{
	"header": {
		"formatType": 1,
		"trackCount": 4,
		"ticksPerBeat": 480
	},
	"tracks": [
		[
			{
				"deltaTime": 0,
				"type": "meta",
				"subtype": "trackName",
				"text": "KeyTTHighway"
			},
			{
				"deltaTime": 0,
				"type": "meta",
				"subtype": "setTempo",
				"microsecondsPerBeat": 705798
			},
			{
				"deltaTime": 0,
				"type": "meta",
				"subtype": "timeSignature",
				"numerator": 4,
				"denominator": 4,
				"metronome": 24,
				"thirtyseconds": 8
			},
			{
				"deltaTime": 0,
				"type": "meta",
				"subtype": "endOfTrack"
			}
		],
		[
			{
				"deltaTime": 0,
				"type": "meta",
				"subtype": "trackName",
				"text": "Markers"
			},
			{
				"deltaTime": 1920,
				"type": "meta",
				"subtype": "marker",
				"text": "Intro"
			},
			{
				"deltaTime": 1920,
				"type": "meta",
				"subtype": "marker",
				"text": "Verse 1"
			},
			{
				"deltaTime": 15360,
				"type": "meta",
				"subtype": "marker",
				"text": ""
			},
			{
				"deltaTime": 15360,
				"type": "meta",
				"subtype": "marker",
				"text": "Verse 2"
			},
			{
				"deltaTime": 15360,
				"type": "meta",
				"subtype": "marker",
				"text": "Verse3"
			},
			{
				"deltaTime": 15360,
				"type": "meta",
				"subtype": "marker",
				"text": ""
			},
			{
				"deltaTime": 103680,
				"type": "meta",
				"subtype": "marker",
				"text": "Outro"
			},
			{
				"deltaTime": 5760,
				"type": "meta",
				"subtype": "marker",
				"text": ""
			},
			{
				"deltaTime": 0,
				"type": "meta",
				"subtype": "endOfTrack"
			}
		],
		[
			{
				"deltaTime": 0,
				"type": "meta",
				"subtype": "trackName",
				"text": "BASS"
			},
			{
				"deltaTime": 0,
				"type": "meta",
				"subtype": "unknown",
				"data": "\u0000"
			},
			{
				"deltaTime": 0,
				"type": "meta",
				"subtype": "midiChannelPrefix",
				"channel": 107
			},
			{
				"deltaTime": 0,
				"channel": 1,
				"type": "channel",
				"subtype": "controller",
				"controllerType": 7,
				"value": 127
			},
			{
				"deltaTime": 0,
				"channel": 1,
				"type": "channel",
				"subtype": "controller",
				"controllerType": 10,
				"value": 64
			},
			{
				"deltaTime": 480,
				"channel": 1,
				"type": "channel",
				"subtype": "controller",
				"controllerType": 121,
				"value": 0
			},
			{
				"deltaTime": 0,
				"channel": 1,
				"type": "channel",
				"subtype": "controller",
				"controllerType": 120,
				"value": 0
			},
			{
				"deltaTime": 60,
				"channel": 1,
				"type": "channel",
				"subtype": "controller",
				"controllerType": 11,
				"value": 127
			},
			{
				"deltaTime": 0,
				"channel": 1,
				"type": "channel",
				"subtype": "programChange",
				"programNumber": 33
			},
			{
				"deltaTime": 0,
				"channel": 1,
				"type": "channel",
				"subtype": "controller",
				"controllerType": 93,
				"value": 9
			},
			{
				"deltaTime": 10,
				"channel": 1,
				"type": "channel",
				"subtype": "controller",
				"controllerType": 91,
				"value": 0
			},
			{
				"deltaTime": 150,
				"channel": 1,
				"type": "channel",
				"subtype": "controller",
				"controllerType": 7,
				"value": 127
			},
			{
				"deltaTime": 0,
				"channel": 1,
				"type": "channel",
				"subtype": "controller",
				"controllerType": 10,
				"value": 64
			},
			{
				"deltaTime": 3140,
				"channel": 1,
				"type": "channel",
				"noteNumber": 33,
				"velocity": 119,
				"subtype": "noteOn"
			},
			{
				"deltaTime": 245,
				"channel": 1,
				"type": "channel",
				"subtype": "noteOff",
				"noteNumber": 33,
				"velocity": 64
			},
			{
				"deltaTime": 75,
				"channel": 1,
				"type": "channel",
				"noteNumber": 33,
				"velocity": 93,
				"subtype": "noteOn"
			},
			{
				"deltaTime": 55,
				"channel": 1,
				"type": "channel",
				"subtype": "noteOff",
				"noteNumber": 33,
				"velocity": 64
			},
			{
				"deltaTime": 105,
				"channel": 1,
				"type": "channel",
				"noteNumber": 33,
				"velocity": 107,
				"subtype": "noteOn"
			},
			{
				"deltaTime": 185,
				"channel": 1,
				"type": "channel",
				"subtype": "noteOff",
				"noteNumber": 33,
				"velocity": 64
			},
			{
				"deltaTime": 135,
				"channel": 1,
				"type": "channel",
				"noteNumber": 33,
				"velocity": 102,
				"subtype": "noteOn"
			},
			{
				"deltaTime": 65,
				"channel": 1,
				"type": "channel",
				"subtype": "noteOff",
				"noteNumber": 33,
				"velocity": 64
			},
			{
				"deltaTime": 95,
				"channel": 1,
				"type": "channel",
				"noteNumber": 33,
				"velocity": 107,
				"subtype": "noteOn"
			},
			{
				"deltaTime": 175,
				"channel": 1,
				"type": "channel",
				"subtype": "noteOff",
				"noteNumber": 33,
				"velocity": 64
			},
			{
				"deltaTime": 145,
				"channel": 1,
				"type": "channel",
				"noteNumber": 33,
				"velocity": 107,
				"subtype": "noteOn"
			},
			{
				"deltaTime": 65,
				"channel": 1,
				"type": "channel",
				"subtype": "noteOff",
				"noteNumber": 33,
				"velocity": 64
			},
			{
				"deltaTime": 95,
				"channel": 1,
				"type": "channel",
				"noteNumber": 33,
				"velocity": 107,
				"subtype": "noteOn"
			},
			{
				"deltaTime": 185,
				"channel": 1,
				"type": "channel",
				"subtype": "noteOff",
				"noteNumber": 33,
				"velocity": 64
			},
			{
				"deltaTime": 135,
				"channel": 1,
				"type": "channel",
				"noteNumber": 33,
				"velocity": 107,
				"subtype": "noteOn"
			},
			{
				"deltaTime": 150,
				"channel": 1,
				"type": "channel",
				"subtype": "noteOff",
				"noteNumber": 33,
				"velocity": 64
			},
			{
				"deltaTime": 10,
				"channel": 1,
				"type": "channel",
				"noteNumber": 28,
				"velocity": 93,
				"subtype": "noteOn"
			},
			{
				"deltaTime": 175,
				"channel": 1,
				"type": "channel",
				"subtype": "noteOff",
				"noteNumber": 28,
				"velocity": 64
			},
			{
				"deltaTime": 145,
				"channel": 1,
				"type": "channel",
				"noteNumber": 28,
				"velocity": 89,
				"subtype": "noteOn"
			},
			{
				"deltaTime": 90,
				"channel": 1,
				"type": "channel",
				"subtype": "noteOff",
				"noteNumber": 28,
				"velocity": 64
			},
			{
				"deltaTime": 70,
				"channel": 1,
				"type": "channel",
				"noteNumber": 28,
				"velocity": 85,
				"subtype": "noteOn"
			},
			{
				"deltaTime": 120,
				"channel": 1,
				"type": "channel",
				"subtype": "noteOff",
				"noteNumber": 28,
				"velocity": 64
			},
			{
				"deltaTime": 200,
				"channel": 1,
				"type": "channel",
				"noteNumber": 28,
				"velocity": 89,
				"subtype": "noteOn"
			},
			{
				"deltaTime": 90,
				"channel": 1,
				"type": "channel",
				"subtype": "noteOff",
				"noteNumber": 28,
				"velocity": 64
			},
			{
				"deltaTime": 70,
				"channel": 1,
				"type": "channel",
				"noteNumber": 28,
				"velocity": 76,
				"subtype": "noteOn"
			},
			{
				"deltaTime": 140,
				"channel": 1,
				"type": "channel",
				"subtype": "noteOff",
				"noteNumber": 28,
				"velocity": 64
			},
			{
				"deltaTime": 180,
				"channel": 1,
				"type": "channel",
				"noteNumber": 28,
				"velocity": 93,
				"subtype": "noteOn"
			},
			{
				"deltaTime": 75,
				"channel": 1,
				"type": "channel",
				"subtype": "noteOff",
				"noteNumber": 28,
				"velocity": 64
			},
			{
				"deltaTime": 85,
				"channel": 1,
				"type": "channel",
				"noteNumber": 28,
				"velocity": 89,
				"subtype": "noteOn"
			},
			{
				"deltaTime": 115,
				"channel": 1,
				"type": "channel",
				"subtype": "noteOff",
				"noteNumber": 28,
				"velocity": 64
			},
			{
				"deltaTime": 205,
				"channel": 1,
				"type": "channel",
				"noteNumber": 28,
				"velocity": 102,
				"subtype": "noteOn"
			},
			{
				"deltaTime": 145,
				"channel": 1,
				"type": "channel",
				"subtype": "noteOff",
				"noteNumber": 28,
				"velocity": 64
			},
			{
				"deltaTime": 15,
				"channel": 1,
				"type": "channel",
				"noteNumber": 26,
				"velocity": 89,
				"subtype": "noteOn"
			},
			{
				"deltaTime": 155,
				"channel": 1,
				"type": "channel",
				"subtype": "noteOff",
				"noteNumber": 26,
				"velocity": 64
			},
			{
				"deltaTime": 165,
				"channel": 1,
				"type": "channel",
				"noteNumber": 26,
				"velocity": 98,
				"subtype": "noteOn"
			},
			{
				"deltaTime": 95,
				"channel": 1,
				"type": "channel",
				"subtype": "noteOff",
				"noteNumber": 26,
				"velocity": 64
			},
			{
				"deltaTime": 65,
				"channel": 1,
				"type": "channel",
				"noteNumber": 26,
				"velocity": 89,
				"subtype": "noteOn"
			},
			{
				"deltaTime": 140,
				"channel": 1,
				"type": "channel",
				"subtype": "noteOff",
				"noteNumber": 26,
				"velocity": 64
			},
			{
				"deltaTime": 180,
				"channel": 1,
				"type": "channel",
				"noteNumber": 26,
				"velocity": 102,
				"subtype": "noteOn"
			},
			{
				"deltaTime": 100,
				"channel": 1,
				"type": "channel",
				"subtype": "noteOff",
				"noteNumber": 26,
				"velocity": 64
			},
			{
				"deltaTime": 60,
				"channel": 1,
				"type": "channel",
				"noteNumber": 26,
				"velocity": 98,
				"subtype": "noteOn"
			},
			{
				"deltaTime": 145,
				"channel": 1,
				"type": "channel",
				"subtype": "noteOff",
				"noteNumber": 26,
				"velocity": 64
			},
			{
				"deltaTime": 175,
				"channel": 1,
				"type": "channel",
				"noteNumber": 26,
				"velocity": 102,
				"subtype": "noteOn"
			},
			{
				"deltaTime": 105,
				"channel": 1,
				"type": "channel",
				"subtype": "noteOff",
				"noteNumber": 26,
				"velocity": 64
			},
			{
				"deltaTime": 55,
				"channel": 1,
				"type": "channel",
				"noteNumber": 26,
				"velocity": 93,
				"subtype": "noteOn"
			},
			{
				"deltaTime": 145,
				"channel": 1,
				"type": "channel",
				"subtype": "noteOff",
				"noteNumber": 26,
				"velocity": 64
			},
			{
				"deltaTime": 175,
				"channel": 1,
				"type": "channel",
				"noteNumber": 26,
				"velocity": 93,
				"subtype": "noteOn"
			},
			{
				"deltaTime": 105,
				"channel": 1,
				"type": "channel",
				"subtype": "noteOff",
				"noteNumber": 26,
				"velocity": 64
			},
			{
				"deltaTime": 55,
				"channel": 1,
				"type": "channel",
				"noteNumber": 26,
				"velocity": 102,
				"subtype": "noteOn"
			},
			{
				"deltaTime": 185,
				"channel": 1,
				"type": "channel",
				"subtype": "noteOff",
				"noteNumber": 26,
				"velocity": 64
			},
			{
				"deltaTime": 135,
				"channel": 1,
				"type": "channel",
				"noteNumber": 26,
				"velocity": 102,
				"subtype": "noteOn"
			},
			{
				"deltaTime": 100,
				"channel": 1,
				"type": "channel",
				"subtype": "noteOff",
				"noteNumber": 26,
				"velocity": 64
			},
			{
				"deltaTime": 60,
				"channel": 1,
				"type": "channel",
				"noteNumber": 26,
				"velocity": 98,
				"subtype": "noteOn"
			},
			{
				"deltaTime": 160,
				"channel": 1,
				"type": "channel",
				"subtype": "noteOff",
				"noteNumber": 26,
				"velocity": 64
			},
			{
				"deltaTime": 160,
				"channel": 1,
				"type": "channel",
				"noteNumber": 26,
				"velocity": 102,
				"subtype": "noteOn"
			},
			{
				"deltaTime": 80,
				"channel": 1,
				"type": "channel",
				"subtype": "noteOff",
				"noteNumber": 26,
				"velocity": 64
			},
			{
				"deltaTime": 80,
				"channel": 1,
				"type": "channel",
				"noteNumber": 26,
				"velocity": 93,
				"subtype": "noteOn"
			},
			{
				"deltaTime": 130,
				"channel": 1,
				"type": "channel",
				"subtype": "noteOff",
				"noteNumber": 26,
				"velocity": 64
			},
			{
				"deltaTime": 190,
				"channel": 1,
				"type": "channel",
				"noteNumber": 26,
				"velocity": 98,
				"subtype": "noteOn"
			},
			{
				"deltaTime": 80,
				"channel": 1,
				"type": "channel",
				"subtype": "noteOff",
				"noteNumber": 26,
				"velocity": 64
			},
			{
				"deltaTime": 80,
				"channel": 1,
				"type": "channel",
				"noteNumber": 26,
				"velocity": 102,
				"subtype": "noteOn"
			},
			{
				"deltaTime": 160,
				"channel": 1,
				"type": "channel",
				"subtype": "noteOff",
				"noteNumber": 26,
				"velocity": 64
			},
			{
				"deltaTime": 160,
				"channel": 1,
				"type": "channel",
				"noteNumber": 26,
				"velocity": 102,
				"subtype": "noteOn"
			},
			{
				"deltaTime": 140,
				"channel": 1,
				"type": "channel",
				"subtype": "noteOff",
				"noteNumber": 26,
				"velocity": 64
			},
			{
				"deltaTime": 20,
				"channel": 1,
				"type": "channel",
				"noteNumber": 33,
				"velocity": 107,
				"subtype": "noteOn"
			},
			{
				"deltaTime": 150,
				"channel": 1,
				"type": "channel",
				"subtype": "noteOff",
				"noteNumber": 33,
				"velocity": 64
			},
			{
				"deltaTime": 170,
				"channel": 1,
				"type": "channel",
				"noteNumber": 33,
				"velocity": 113,
				"subtype": "noteOn"
			},
			{
				"deltaTime": 105,
				"channel": 1,
				"type": "channel",
				"subtype": "noteOff",
				"noteNumber": 33,
				"velocity": 64
			},
			{
				"deltaTime": 55,
				"channel": 1,
				"type": "channel",
				"noteNumber": 33,
				"velocity": 98,
				"subtype": "noteOn"
			},
			{
				"deltaTime": 150,
				"channel": 1,
				"type": "channel",
				"subtype": "noteOff",
				"noteNumber": 33,
				"velocity": 64
			},
			{
				"deltaTime": 170,
				"channel": 1,
				"type": "channel",
				"noteNumber": 33,
				"velocity": 107,
				"subtype": "noteOn"
			},
			{
				"deltaTime": 95,
				"channel": 1,
				"type": "channel",
				"subtype": "noteOff",
				"noteNumber": 33,
				"velocity": 64
			},
			{
				"deltaTime": 65,
				"channel": 1,
				"type": "channel",
				"noteNumber": 33,
				"velocity": 93,
				"subtype": "noteOn"
			},
			{
				"deltaTime": 180,
				"channel": 1,
				"type": "channel",
				"subtype": "noteOff",
				"noteNumber": 33,
				"velocity": 64
			},
			{
				"deltaTime": 140,
				"channel": 1,
				"type": "channel",
				"noteNumber": 33,
				"velocity": 107,
				"subtype": "noteOn"
			},
			{
				"deltaTime": 95,
				"channel": 1,
				"type": "channel",
				"subtype": "noteOff",
				"noteNumber": 33,
				"velocity": 64
			},
			{
				"deltaTime": 65,
				"channel": 1,
				"type": "channel",
				"noteNumber": 33,
				"velocity": 93,
				"subtype": "noteOn"
			},
			{
				"deltaTime": 125,
				"channel": 1,
				"type": "channel",
				"subtype": "noteOff",
				"noteNumber": 33,
				"velocity": 64
			},
			{
				"deltaTime": 195,
				"channel": 1,
				"type": "channel",
				"noteNumber": 33,
				"velocity": 107,
				"subtype": "noteOn"
			},
			{
				"deltaTime": 135,
				"channel": 1,
				"type": "channel",
				"subtype": "noteOff",
				"noteNumber": 33,
				"velocity": 64
			},
			{
				"deltaTime": 25,
				"channel": 1,
				"type": "channel",
				"noteNumber": 28,
				"velocity": 98,
				"subtype": "noteOn"
			},
			{
				"deltaTime": 170,
				"channel": 1,
				"type": "channel",
				"subtype": "noteOff",
				"noteNumber": 28,
				"velocity": 64
			},
			{
				"deltaTime": 150,
				"channel": 1,
				"type": "channel",
				"noteNumber": 28,
				"velocity": 93,
				"subtype": "noteOn"
			},
			{
				"deltaTime": 95,
				"channel": 1,
				"type": "channel",
				"subtype": "noteOff",
				"noteNumber": 28,
				"velocity": 64
			},
			{
				"deltaTime": 65,
				"channel": 1,
				"type": "channel",
				"noteNumber": 28,
				"velocity": 80,
				"subtype": "noteOn"
			},
			{
				"deltaTime": 145,
				"channel": 1,
				"type": "channel",
				"subtype": "noteOff",
				"noteNumber": 28,
				"velocity": 64
			},
			{
				"deltaTime": 175,
				"channel": 1,
				"type": "channel",
				"noteNumber": 28,
				"velocity": 89,
				"subtype": "noteOn"
			},
			{
				"deltaTime": 110,
				"channel": 1,
				"type": "channel",
				"subtype": "noteOff",
				"noteNumber": 28,
				"velocity": 64
			},
			{
				"deltaTime": 50,
				"channel": 1,
				"type": "channel",
				"noteNumber": 28,
				"velocity": 89,
				"subtype": "noteOn"
			},
			{
				"deltaTime": 145,
				"channel": 1,
				"type": "channel",
				"subtype": "noteOff",
				"noteNumber": 28,
				"velocity": 64
			},
			{
				"deltaTime": 175,
				"channel": 1,
				"type": "channel",
				"noteNumber": 28,
				"velocity": 93,
				"subtype": "noteOn"
			},
			{
				"deltaTime": 90,
				"channel": 1,
				"type": "channel",
				"subtype": "noteOff",
				"noteNumber": 28,
				"velocity": 64
			},
			{
				"deltaTime": 70,
				"channel": 1,
				"type": "channel",
				"noteNumber": 28,
				"velocity": 89,
				"subtype": "noteOn"
			},
			{
				"deltaTime": 145,
				"channel": 1,
				"type": "channel",
				"subtype": "noteOff",
				"noteNumber": 28,
				"velocity": 64
			},
			{
				"deltaTime": 175,
				"channel": 1,
				"type": "channel",
				"noteNumber": 28,
				"velocity": 89,
				"subtype": "noteOn"
			},
			{
				"deltaTime": 140,
				"channel": 1,
				"type": "channel",
				"subtype": "noteOff",
				"noteNumber": 28,
				"velocity": 64
			},
			{
				"deltaTime": 20,
				"channel": 1,
				"type": "channel",
				"noteNumber": 33,
				"velocity": 102,
				"subtype": "noteOn"
			},
			{
				"deltaTime": 235,
				"channel": 1,
				"type": "channel",
				"subtype": "noteOff",
				"noteNumber": 33,
				"velocity": 64
			},
			{
				"deltaTime": 85,
				"channel": 1,
				"type": "channel",
				"noteNumber": 33,
				"velocity": 93,
				"subtype": "noteOn"
			},
			{
				"deltaTime": 160,
				"channel": 1,
				"type": "channel",
				"noteNumber": 31,
				"velocity": 93,
				"subtype": "noteOn"
			},
			{
				"deltaTime": 10,
				"channel": 1,
				"type": "channel",
				"subtype": "noteOff",
				"noteNumber": 33,
				"velocity": 64
			},
			{
				"deltaTime": 220,
				"channel": 1,
				"type": "channel",
				"subtype": "noteOff",
				"noteNumber": 31,
				"velocity": 64
			},
			{
				"deltaTime": 90,
				"channel": 1,
				"type": "channel",
				"noteNumber": 31,
				"velocity": 85,
				"subtype": "noteOn"
			},
			{
				"deltaTime": 160,
				"channel": 1,
				"type": "channel",
				"noteNumber": 30,
				"velocity": 98,
				"subtype": "noteOn"
			},
			{
				"deltaTime": 15,
				"channel": 1,
				"type": "channel",
				"subtype": "noteOff",
				"noteNumber": 31,
				"velocity": 64
			},
			{
				"deltaTime": 195,
				"channel": 1,
				"type": "channel",
				"subtype": "noteOff",
				"noteNumber": 30,
				"velocity": 64
			},
			{
				"deltaTime": 110,
				"channel": 1,
				"type": "channel",
				"noteNumber": 30,
				"velocity": 89,
				"subtype": "noteOn"
			},
			{
				"deltaTime": 130,
				"channel": 1,
				"type": "channel",
				"subtype": "noteOff",
				"noteNumber": 30,
				"velocity": 64
			},
			{
				"deltaTime": 30,
				"channel": 1,
				"type": "channel",
				"noteNumber": 29,
				"velocity": 89,
				"subtype": "noteOn"
			},
			{
				"deltaTime": 210,
				"channel": 1,
				"type": "channel",
				"subtype": "noteOff",
				"noteNumber": 29,
				"velocity": 64
			},
			{
				"deltaTime": 110,
				"channel": 1,
				"type": "channel",
				"noteNumber": 29,
				"velocity": 93,
				"subtype": "noteOn"
			},
			{
				"deltaTime": 140,
				"channel": 1,
				"type": "channel",
				"subtype": "noteOff",
				"noteNumber": 29,
				"velocity": 64
			},
			{
				"deltaTime": 20,
				"channel": 1,
				"type": "channel",
				"noteNumber": 28,
				"velocity": 93,
				"subtype": "noteOn"
			},
			{
				"deltaTime": 195,
				"channel": 1,
				"type": "channel",
				"subtype": "noteOff",
				"noteNumber": 28,
				"velocity": 64
			},
			{
				"deltaTime": 125,
				"channel": 1,
				"type": "channel",
				"noteNumber": 28,
				"velocity": 72,
				"subtype": "noteOn"
			},
			{
				"deltaTime": 60,
				"channel": 1,
				"type": "channel",
				"subtype": "noteOff",
				"noteNumber": 28,
				"velocity": 64
			},
			{
				"deltaTime": 100,
				"channel": 1,
				"type": "channel",
				"noteNumber": 28,
				"velocity": 93,
				"subtype": "noteOn"
			},
			{
				"deltaTime": 145,
				"channel": 1,
				"type": "channel",
				"subtype": "noteOff",
				"noteNumber": 28,
				"velocity": 64
			},
			{
				"deltaTime": 175,
				"channel": 1,
				"type": "channel",
				"noteNumber": 28,
				"velocity": 89,
				"subtype": "noteOn"
			},
			{
				"deltaTime": 90,
				"channel": 1,
				"type": "channel",
				"subtype": "noteOff",
				"noteNumber": 28,
				"velocity": 64
			},
			{
				"deltaTime": 70,
				"channel": 1,
				"type": "channel",
				"noteNumber": 28,
				"velocity": 85,
				"subtype": "noteOn"
			},
			{
				"deltaTime": 155,
				"channel": 1,
				"type": "channel",
				"subtype": "noteOff",
				"noteNumber": 28,
				"velocity": 64
			},
			{
				"deltaTime": 165,
				"channel": 1,
				"type": "channel",
				"noteNumber": 28,
				"velocity": 93,
				"subtype": "noteOn"
			},
			{
				"deltaTime": 70,
				"channel": 1,
				"type": "channel",
				"subtype": "noteOff",
				"noteNumber": 28,
				"velocity": 64
			},
			{
				"deltaTime": 90,
				"channel": 1,
				"type": "channel",
				"noteNumber": 28,
				"velocity": 89,
				"subtype": "noteOn"
			},
			{
				"deltaTime": 120,
				"channel": 1,
				"type": "channel",
				"subtype": "noteOff",
				"noteNumber": 28,
				"velocity": 64
			},
			{
				"deltaTime": 200,
				"channel": 1,
				"type": "channel",
				"noteNumber": 30,
				"velocity": 119,
				"subtype": "noteOn"
			},
			{
				"deltaTime": 155,
				"channel": 1,
				"type": "channel",
				"subtype": "noteOff",
				"noteNumber": 30,
				"velocity": 64
			},
			{
				"deltaTime": 5,
				"channel": 1,
				"type": "channel",
				"noteNumber": 33,
				"velocity": 107,
				"subtype": "noteOn"
			},
			{
				"deltaTime": 150,
				"channel": 1,
				"type": "channel",
				"subtype": "noteOff",
				"noteNumber": 33,
				"velocity": 64
			},
			{
				"deltaTime": 170,
				"channel": 1,
				"type": "channel",
				"noteNumber": 33,
				"velocity": 102,
				"subtype": "noteOn"
			},
			{
				"deltaTime": 100,
				"channel": 1,
				"type": "channel",
				"subtype": "noteOff",
				"noteNumber": 33,
				"velocity": 64
			},
			{
				"deltaTime": 60,
				"channel": 1,
				"type": "channel",
				"noteNumber": 33,
				"velocity": 93,
				"subtype": "noteOn"
			},
			{
				"deltaTime": 125,
				"channel": 1,
				"type": "channel",
				"subtype": "noteOff",
				"noteNumber": 33,
				"velocity": 64
			},
			{
				"deltaTime": 195,
				"channel": 1,
				"type": "channel",
				"noteNumber": 33,
				"velocity": 102,
				"subtype": "noteOn"
			},
			{
				"deltaTime": 100,
				"channel": 1,
				"type": "channel",
				"subtype": "noteOff",
				"noteNumber": 33,
				"velocity": 64
			},
			{
				"deltaTime": 60,
				"channel": 1,
				"type": "channel",
				"noteNumber": 33,
				"velocity": 93,
				"subtype": "noteOn"
			},
			{
				"deltaTime": 145,
				"channel": 1,
				"type": "channel",
				"subtype": "noteOff",
				"noteNumber": 33,
				"velocity": 64
			},
			{
				"deltaTime": 175,
				"channel": 1,
				"type": "channel",
				"noteNumber": 33,
				"velocity": 107,
				"subtype": "noteOn"
			},
			{
				"deltaTime": 90,
				"channel": 1,
				"type": "channel",
				"subtype": "noteOff",
				"noteNumber": 33,
				"velocity": 64
			},
			{
				"deltaTime": 70,
				"channel": 1,
				"type": "channel",
				"noteNumber": 33,
				"velocity": 93,
				"subtype": "noteOn"
			},
			{
				"deltaTime": 140,
				"channel": 1,
				"type": "channel",
				"subtype": "noteOff",
				"noteNumber": 33,
				"velocity": 64
			},
			{
				"deltaTime": 180,
				"channel": 1,
				"type": "channel",
				"noteNumber": 33,
				"velocity": 107,
				"subtype": "noteOn"
			},
			{
				"deltaTime": 145,
				"channel": 1,
				"type": "channel",
				"subtype": "noteOff",
				"noteNumber": 33,
				"velocity": 64
			},
			{
				"deltaTime": 15,
				"channel": 1,
				"type": "channel",
				"noteNumber": 28,
				"velocity": 102,
				"subtype": "noteOn"
			},
			{
				"deltaTime": 160,
				"channel": 1,
				"type": "channel",
				"subtype": "noteOff",
				"noteNumber": 28,
				"velocity": 64
			},
			{
				"deltaTime": 160,
				"channel": 1,
				"type": "channel",
				"noteNumber": 28,
				"velocity": 98,
				"subtype": "noteOn"
			},
			{
				"deltaTime": 95,
				"channel": 1,
				"type": "channel",
				"subtype": "noteOff",
				"noteNumber": 28,
				"velocity": 64
			},
			{
				"deltaTime": 65,
				"channel": 1,
				"type": "channel",
				"noteNumber": 28,
				"velocity": 102,
				"subtype": "noteOn"
			},
			{
				"deltaTime": 135,
				"channel": 1,
				"type": "channel",
				"subtype": "noteOff",
				"noteNumber": 28,
				"velocity": 64
			},
			{
				"deltaTime": 185,
				"channel": 1,
				"type": "channel",
				"noteNumber": 28,
				"velocity": 93,
				"subtype": "noteOn"
			},
			{
				"deltaTime": 90,
				"channel": 1,
				"type": "channel",
				"subtype": "noteOff",
				"noteNumber": 28,
				"velocity": 64
			},
			{
				"deltaTime": 70,
				"channel": 1,
				"type": "channel",
				"noteNumber": 28,
				"velocity": 93,
				"subtype": "noteOn"
			},
			{
				"deltaTime": 110,
				"channel": 1,
				"type": "channel",
				"subtype": "noteOff",
				"noteNumber": 28,
				"velocity": 64
			},
			{
				"deltaTime": 210,
				"channel": 1,
				"type": "channel",
				"noteNumber": 28,
				"velocity": 93,
				"subtype": "noteOn"
			},
			{
				"deltaTime": 130,
				"channel": 1,
				"type": "channel",
				"subtype": "noteOff",
				"noteNumber": 28,
				"velocity": 64
			},
			{
				"deltaTime": 30,
				"channel": 1,
				"type": "channel",
				"noteNumber": 32,
				"velocity": 89,
				"subtype": "noteOn"
			},
			{
				"deltaTime": 305,
				"channel": 1,
				"type": "channel",
				"subtype": "noteOff",
				"noteNumber": 32,
				"velocity": 64
			},
			{
				"deltaTime": 15,
				"channel": 1,
				"type": "channel",
				"noteNumber": 35,
				"velocity": 89,
				"subtype": "noteOn"
			},
			{
				"deltaTime": 145,
				"channel": 1,
				"type": "channel",
				"subtype": "noteOff",
				"noteNumber": 35,
				"velocity": 64
			},
			{
				"deltaTime": 15,
				"channel": 1,
				"type": "channel",
				"noteNumber": 38,
				"velocity": 98,
				"subtype": "noteOn"
			},
			{
				"deltaTime": 185,
				"channel": 1,
				"type": "channel",
				"subtype": "noteOff",
				"noteNumber": 38,
				"velocity": 64
			},
			{
				"deltaTime": 135,
				"channel": 1,
				"type": "channel",
				"noteNumber": 38,
				"velocity": 98,
				"subtype": "noteOn"
			},
			{
				"deltaTime": 105,
				"channel": 1,
				"type": "channel",
				"subtype": "noteOff",
				"noteNumber": 38,
				"velocity": 64
			},
			{
				"deltaTime": 55,
				"channel": 1,
				"type": "channel",
				"noteNumber": 38,
				"velocity": 89,
				"subtype": "noteOn"
			},
			{
				"deltaTime": 120,
				"channel": 1,
				"type": "channel",
				"subtype": "noteOff",
				"noteNumber": 38,
				"velocity": 64
			},
			{
				"deltaTime": 200,
				"channel": 1,
				"type": "channel",
				"noteNumber": 38,
				"velocity": 93,
				"subtype": "noteOn"
			},
			{
				"deltaTime": 90,
				"channel": 1,
				"type": "channel",
				"subtype": "noteOff",
				"noteNumber": 38,
				"velocity": 64
			},
			{
				"deltaTime": 70,
				"channel": 1,
				"type": "channel",
				"noteNumber": 38,
				"velocity": 93,
				"subtype": "noteOn"
			},
			{
				"deltaTime": 140,
				"channel": 1,
				"type": "channel",
				"subtype": "noteOff",
				"noteNumber": 38,
				"velocity": 64
			},
			{
				"deltaTime": 180,
				"channel": 1,
				"type": "channel",
				"noteNumber": 38,
				"velocity": 98,
				"subtype": "noteOn"
			},
			{
				"deltaTime": 100,
				"channel": 1,
				"type": "channel",
				"subtype": "noteOff",
				"noteNumber": 38,
				"velocity": 64
			},
			{
				"deltaTime": 60,
				"channel": 1,
				"type": "channel",
				"noteNumber": 38,
				"velocity": 93,
				"subtype": "noteOn"
			},
			{
				"deltaTime": 175,
				"channel": 1,
				"type": "channel",
				"subtype": "noteOff",
				"noteNumber": 38,
				"velocity": 64
			},
			{
				"deltaTime": 145,
				"channel": 1,
				"type": "channel",
				"noteNumber": 38,
				"velocity": 102,
				"subtype": "noteOn"
			},
			{
				"deltaTime": 105,
				"channel": 1,
				"type": "channel",
				"subtype": "noteOff",
				"noteNumber": 38,
				"velocity": 64
			},
			{
				"deltaTime": 55,
				"channel": 1,
				"type": "channel",
				"noteNumber": 38,
				"velocity": 98,
				"subtype": "noteOn"
			},
			{
				"deltaTime": 150,
				"channel": 1,
				"type": "channel",
				"subtype": "noteOff",
				"noteNumber": 38,
				"velocity": 64
			},
			{
				"deltaTime": 170,
				"channel": 1,
				"type": "channel",
				"noteNumber": 38,
				"velocity": 107,
				"subtype": "noteOn"
			},
			{
				"deltaTime": 140,
				"channel": 1,
				"type": "channel",
				"subtype": "noteOff",
				"noteNumber": 38,
				"velocity": 64
			},
			{
				"deltaTime": 20,
				"channel": 1,
				"type": "channel",
				"noteNumber": 30,
				"velocity": 102,
				"subtype": "noteOn"
			},
			{
				"deltaTime": 160,
				"channel": 1,
				"type": "channel",
				"subtype": "noteOff",
				"noteNumber": 30,
				"velocity": 64
			},
			{
				"deltaTime": 160,
				"channel": 1,
				"type": "channel",
				"noteNumber": 30,
				"velocity": 93,
				"subtype": "noteOn"
			},
			{
				"deltaTime": 130,
				"channel": 1,
				"type": "channel",
				"subtype": "noteOff",
				"noteNumber": 30,
				"velocity": 64
			},
			{
				"deltaTime": 30,
				"channel": 1,
				"type": "channel",
				"noteNumber": 31,
				"velocity": 80,
				"subtype": "noteOn"
			},
			{
				"deltaTime": 175,
				"channel": 1,
				"type": "channel",
				"subtype": "noteOff",
				"noteNumber": 31,
				"velocity": 64
			},
			{
				"deltaTime": 145,
				"channel": 1,
				"type": "channel",
				"noteNumber": 31,
				"velocity": 113,
				"subtype": "noteOn"
			},
			{
				"deltaTime": 155,
				"channel": 1,
				"type": "channel",
				"subtype": "noteOff",
				"noteNumber": 31,
				"velocity": 64
			},
			{
				"deltaTime": 5,
				"channel": 1,
				"type": "channel",
				"noteNumber": 32,
				"velocity": 102,
				"subtype": "noteOn"
			},
			{
				"deltaTime": 145,
				"channel": 1,
				"type": "channel",
				"subtype": "noteOff",
				"noteNumber": 32,
				"velocity": 64
			},
			{
				"deltaTime": 175,
				"channel": 1,
				"type": "channel",
				"noteNumber": 32,
				"velocity": 113,
				"subtype": "noteOn"
			},
			{
				"deltaTime": 140,
				"channel": 1,
				"type": "channel",
				"subtype": "noteOff",
				"noteNumber": 32,
				"velocity": 64
			},
			{
				"deltaTime": 20,
				"channel": 1,
				"type": "channel",
				"noteNumber": 33,
				"velocity": 107,
				"subtype": "noteOn"
			},
			{
				"deltaTime": 185,
				"channel": 1,
				"type": "channel",
				"subtype": "noteOff",
				"noteNumber": 33,
				"velocity": 64
			},
			{
				"deltaTime": 135,
				"channel": 1,
				"type": "channel",
				"noteNumber": 33,
				"velocity": 113,
				"subtype": "noteOn"
			},
			{
				"deltaTime": 110,
				"channel": 1,
				"type": "channel",
				"subtype": "noteOff",
				"noteNumber": 33,
				"velocity": 64
			},
			{
				"deltaTime": 50,
				"channel": 1,
				"type": "channel",
				"noteNumber": 33,
				"velocity": 102,
				"subtype": "noteOn"
			},
			{
				"deltaTime": 150,
				"channel": 1,
				"type": "channel",
				"subtype": "noteOff",
				"noteNumber": 33,
				"velocity": 64
			},
			{
				"deltaTime": 170,
				"channel": 1,
				"type": "channel",
				"noteNumber": 33,
				"velocity": 113,
				"subtype": "noteOn"
			},
			{
				"deltaTime": 105,
				"channel": 1,
				"type": "channel",
				"subtype": "noteOff",
				"noteNumber": 33,
				"velocity": 64
			},
			{
				"deltaTime": 55,
				"channel": 1,
				"type": "channel",
				"noteNumber": 33,
				"velocity": 93,
				"subtype": "noteOn"
			},
			{
				"deltaTime": 165,
				"channel": 1,
				"type": "channel",
				"subtype": "noteOff",
				"noteNumber": 33,
				"velocity": 64
			},
			{
				"deltaTime": 155,
				"channel": 1,
				"type": "channel",
				"noteNumber": 33,
				"velocity": 113,
				"subtype": "noteOn"
			},
			{
				"deltaTime": 90,
				"channel": 1,
				"type": "channel",
				"subtype": "noteOff",
				"noteNumber": 33,
				"velocity": 64
			},
			{
				"deltaTime": 70,
				"channel": 1,
				"type": "channel",
				"noteNumber": 33,
				"velocity": 89,
				"subtype": "noteOn"
			},
			{
				"deltaTime": 165,
				"channel": 1,
				"type": "channel",
				"subtype": "noteOff",
				"noteNumber": 33,
				"velocity": 64
			},
			{
				"deltaTime": 155,
				"channel": 1,
				"type": "channel",
				"noteNumber": 33,
				"velocity": 113,
				"subtype": "noteOn"
			},
			{
				"deltaTime": 155,
				"channel": 1,
				"type": "channel",
				"subtype": "noteOff",
				"noteNumber": 33,
				"velocity": 64
			},
			{
				"deltaTime": 5,
				"channel": 1,
				"type": "channel",
				"noteNumber": 28,
				"velocity": 98,
				"subtype": "noteOn"
			},
			{
				"deltaTime": 195,
				"channel": 1,
				"type": "channel",
				"subtype": "noteOff",
				"noteNumber": 28,
				"velocity": 64
			},
			{
				"deltaTime": 125,
				"channel": 1,
				"type": "channel",
				"noteNumber": 28,
				"velocity": 93,
				"subtype": "noteOn"
			},
			{
				"deltaTime": 100,
				"channel": 1,
				"type": "channel",
				"subtype": "noteOff",
				"noteNumber": 28,
				"velocity": 64
			},
			{
				"deltaTime": 60,
				"channel": 1,
				"type": "channel",
				"noteNumber": 28,
				"velocity": 89,
				"subtype": "noteOn"
			},
			{
				"deltaTime": 140,
				"channel": 1,
				"type": "channel",
				"subtype": "noteOff",
				"noteNumber": 28,
				"velocity": 64
			},
			{
				"deltaTime": 180,
				"channel": 1,
				"type": "channel",
				"noteNumber": 28,
				"velocity": 89,
				"subtype": "noteOn"
			},
			{
				"deltaTime": 85,
				"channel": 1,
				"type": "channel",
				"subtype": "noteOff",
				"noteNumber": 28,
				"velocity": 64
			},
			{
				"deltaTime": 75,
				"channel": 1,
				"type": "channel",
				"noteNumber": 28,
				"velocity": 89,
				"subtype": "noteOn"
			},
			{
				"deltaTime": 115,
				"channel": 1,
				"type": "channel",
				"subtype": "noteOff",
				"noteNumber": 28,
				"velocity": 64
			},
			{
				"deltaTime": 205,
				"channel": 1,
				"type": "channel",
				"noteNumber": 28,
				"velocity": 93,
				"subtype": "noteOn"
			},
			{
				"deltaTime": 90,
				"channel": 1,
				"type": "channel",
				"subtype": "noteOff",
				"noteNumber": 28,
				"velocity": 64
			},
			{
				"deltaTime": 70,
				"channel": 1,
				"type": "channel",
				"noteNumber": 28,
				"velocity": 85,
				"subtype": "noteOn"
			},
			{
				"deltaTime": 110,
				"channel": 1,
				"type": "channel",
				"subtype": "noteOff",
				"noteNumber": 28,
				"velocity": 64
			},
			{
				"deltaTime": 210,
				"channel": 1,
				"type": "channel",
				"noteNumber": 28,
				"velocity": 93,
				"subtype": "noteOn"
			},
			{
				"deltaTime": 160,
				"channel": 1,
				"type": "channel",
				"noteNumber": 33,
				"velocity": 107,
				"subtype": "noteOn"
			},
			{
				"deltaTime": 10,
				"channel": 1,
				"type": "channel",
				"subtype": "noteOff",
				"noteNumber": 28,
				"velocity": 64
			},
			{
				"deltaTime": 425,
				"channel": 1,
				"type": "channel",
				"subtype": "noteOff",
				"noteNumber": 33,
				"velocity": 64
			},
			{
				"deltaTime": 45,
				"channel": 1,
				"type": "channel",
				"noteNumber": 31,
				"velocity": 102,
				"subtype": "noteOn"
			},
			{
				"deltaTime": 450,
				"channel": 1,
				"type": "channel",
				"subtype": "noteOff",
				"noteNumber": 31,
				"velocity": 64
			},
			{
				"deltaTime": 30,
				"channel": 1,
				"type": "channel",
				"noteNumber": 30,
				"velocity": 85,
				"subtype": "noteOn"
			},
			{
				"deltaTime": 470,
				"channel": 1,
				"type": "channel",
				"subtype": "noteOff",
				"noteNumber": 30,
				"velocity": 64
			},
			{
				"deltaTime": 10,
				"channel": 1,
				"type": "channel",
				"noteNumber": 29,
				"velocity": 98,
				"subtype": "noteOn"
			},
			{
				"deltaTime": 430,
				"channel": 1,
				"type": "channel",
				"subtype": "noteOff",
				"noteNumber": 29,
				"velocity": 64
			},
			{
				"deltaTime": 50,
				"channel": 1,
				"type": "channel",
				"noteNumber": 28,
				"velocity": 98,
				"subtype": "noteOn"
			},
			{
				"deltaTime": 410,
				"channel": 1,
				"type": "channel",
				"subtype": "noteOff",
				"noteNumber": 28,
				"velocity": 64
			},
			{
				"deltaTime": 70,
				"channel": 1,
				"type": "channel",
				"noteNumber": 28,
				"velocity": 102,
				"subtype": "noteOn"
			},
			{
				"deltaTime": 105,
				"channel": 1,
				"type": "channel",
				"subtype": "noteOff",
				"noteNumber": 28,
				"velocity": 64
			},
			{
				"deltaTime": 215,
				"channel": 1,
				"type": "channel",
				"noteNumber": 28,
				"velocity": 107,
				"subtype": "noteOn"
			},
			{
				"deltaTime": 335,
				"channel": 1,
				"type": "channel",
				"subtype": "noteOff",
				"noteNumber": 28,
				"velocity": 64
			},
			{
				"deltaTime": 145,
				"channel": 1,
				"type": "channel",
				"noteNumber": 28,
				"velocity": 93,
				"subtype": "noteOn"
			},
			{
				"deltaTime": 75,
				"channel": 1,
				"type": "channel",
				"subtype": "noteOff",
				"noteNumber": 28,
				"velocity": 64
			},
			{
				"deltaTime": 85,
				"channel": 1,
				"type": "channel",
				"noteNumber": 28,
				"velocity": 93,
				"subtype": "noteOn"
			},
			{
				"deltaTime": 320,
				"channel": 1,
				"type": "channel",
				"subtype": "noteOff",
				"noteNumber": 28,
				"velocity": 64
			},
			{
				"deltaTime": 0,
				"channel": 1,
				"type": "channel",
				"noteNumber": 30,
				"velocity": 93,
				"subtype": "noteOn"
			},
			{
				"deltaTime": 160,
				"channel": 1,
				"type": "channel",
				"noteNumber": 33,
				"velocity": 113,
				"subtype": "noteOn"
			},
			{
				"deltaTime": 5,
				"channel": 1,
				"type": "channel",
				"subtype": "noteOff",
				"noteNumber": 30,
				"velocity": 64
			},
			{
				"deltaTime": 100,
				"channel": 1,
				"type": "channel",
				"subtype": "noteOff",
				"noteNumber": 33,
				"velocity": 64
			},
			{
				"deltaTime": 215,
				"channel": 1,
				"type": "channel",
				"noteNumber": 33,
				"velocity": 85,
				"subtype": "noteOn"
			},
			{
				"deltaTime": 85,
				"channel": 1,
				"type": "channel",
				"subtype": "noteOff",
				"noteNumber": 33,
				"velocity": 64
			},
			{
				"deltaTime": 75,
				"channel": 1,
				"type": "channel",
				"noteNumber": 33,
				"velocity": 98,
				"subtype": "noteOn"
			},
			{
				"deltaTime": 135,
				"channel": 1,
				"type": "channel",
				"subtype": "noteOff",
				"noteNumber": 33,
				"velocity": 64
			},
			{
				"deltaTime": 185,
				"channel": 1,
				"type": "channel",
				"noteNumber": 33,
				"velocity": 93,
				"subtype": "noteOn"
			},
			{
				"deltaTime": 80,
				"channel": 1,
				"type": "channel",
				"subtype": "noteOff",
				"noteNumber": 33,
				"velocity": 64
			},
			{
				"deltaTime": 80,
				"channel": 1,
				"type": "channel",
				"noteNumber": 33,
				"velocity": 98,
				"subtype": "noteOn"
			},
			{
				"deltaTime": 110,
				"channel": 1,
				"type": "channel",
				"subtype": "noteOff",
				"noteNumber": 33,
				"velocity": 64
			},
			{
				"deltaTime": 210,
				"channel": 1,
				"type": "channel",
				"noteNumber": 33,
				"velocity": 102,
				"subtype": "noteOn"
			},
			{
				"deltaTime": 140,
				"channel": 1,
				"type": "channel",
				"subtype": "noteOff",
				"noteNumber": 33,
				"velocity": 64
			},
			{
				"deltaTime": 20,
				"channel": 1,
				"type": "channel",
				"noteNumber": 37,
				"velocity": 102,
				"subtype": "noteOn"
			},
			{
				"deltaTime": 310,
				"channel": 1,
				"type": "channel",
				"subtype": "noteOff",
				"noteNumber": 37,
				"velocity": 64
			},
			{
				"deltaTime": 10,
				"channel": 1,
				"type": "channel",
				"noteNumber": 38,
				"velocity": 80,
				"subtype": "noteOn"
			},
			{
				"deltaTime": 160,
				"channel": 1,
				"type": "channel",
				"noteNumber": 40,
				"velocity": 102,
				"subtype": "noteOn"
			},
			{
				"deltaTime": 5,
				"channel": 1,
				"type": "channel",
				"subtype": "noteOff",
				"noteNumber": 38,
				"velocity": 64
			},
			{
				"deltaTime": 125,
				"channel": 1,
				"type": "channel",
				"subtype": "noteOff",
				"noteNumber": 40,
				"velocity": 64
			},
			{
				"deltaTime": 190,
				"channel": 1,
				"type": "channel",
				"noteNumber": 40,
				"velocity": 93,
				"subtype": "noteOn"
			},
			{
				"deltaTime": 80,
				"channel": 1,
				"type": "channel",
				"subtype": "noteOff",
				"noteNumber": 40,
				"velocity": 64
			},
			{
				"deltaTime": 80,
				"channel": 1,
				"type": "channel",
				"noteNumber": 40,
				"velocity": 85,
				"subtype": "noteOn"
			},
			{
				"deltaTime": 125,
				"channel": 1,
				"type": "channel",
				"subtype": "noteOff",
				"noteNumber": 40,
				"velocity": 64
			},
			{
				"deltaTime": 195,
				"channel": 1,
				"type": "channel",
				"noteNumber": 40,
				"velocity": 102,
				"subtype": "noteOn"
			},
			{
				"deltaTime": 85,
				"channel": 1,
				"type": "channel",
				"subtype": "noteOff",
				"noteNumber": 40,
				"velocity": 64
			},
			{
				"deltaTime": 75,
				"channel": 1,
				"type": "channel",
				"noteNumber": 40,
				"velocity": 76,
				"subtype": "noteOn"
			},
			{
				"deltaTime": 155,
				"channel": 1,
				"type": "channel",
				"subtype": "noteOff",
				"noteNumber": 40,
				"velocity": 64
			},
			{
				"deltaTime": 165,
				"channel": 1,
				"type": "channel",
				"noteNumber": 40,
				"velocity": 98,
				"subtype": "noteOn"
			},
			{
				"deltaTime": 95,
				"channel": 1,
				"type": "channel",
				"subtype": "noteOff",
				"noteNumber": 40,
				"velocity": 64
			},
			{
				"deltaTime": 65,
				"channel": 1,
				"type": "channel",
				"noteNumber": 40,
				"velocity": 93,
				"subtype": "noteOn"
			},
			{
				"deltaTime": 155,
				"channel": 1,
				"type": "channel",
				"subtype": "noteOff",
				"noteNumber": 40,
				"velocity": 64
			},
			{
				"deltaTime": 165,
				"channel": 1,
				"type": "channel",
				"noteNumber": 40,
				"velocity": 107,
				"subtype": "noteOn"
			},
			{
				"deltaTime": 145,
				"channel": 1,
				"type": "channel",
				"subtype": "noteOff",
				"noteNumber": 40,
				"velocity": 64
			},
			{
				"deltaTime": 15,
				"channel": 1,
				"type": "channel",
				"noteNumber": 38,
				"velocity": 102,
				"subtype": "noteOn"
			},
			{
				"deltaTime": 160,
				"channel": 1,
				"type": "channel",
				"subtype": "noteOff",
				"noteNumber": 38,
				"velocity": 64
			},
			{
				"deltaTime": 160,
				"channel": 1,
				"type": "channel",
				"noteNumber": 38,
				"velocity": 102,
				"subtype": "noteOn"
			},
			{
				"deltaTime": 90,
				"channel": 1,
				"type": "channel",
				"subtype": "noteOff",
				"noteNumber": 38,
				"velocity": 64
			},
			{
				"deltaTime": 70,
				"channel": 1,
				"type": "channel",
				"noteNumber": 38,
				"velocity": 93,
				"subtype": "noteOn"
			},
			{
				"deltaTime": 130,
				"channel": 1,
				"type": "channel",
				"subtype": "noteOff",
				"noteNumber": 38,
				"velocity": 64
			},
			{
				"deltaTime": 190,
				"channel": 1,
				"type": "channel",
				"noteNumber": 38,
				"velocity": 107,
				"subtype": "noteOn"
			},
			{
				"deltaTime": 95,
				"channel": 1,
				"type": "channel",
				"subtype": "noteOff",
				"noteNumber": 38,
				"velocity": 64
			},
			{
				"deltaTime": 65,
				"channel": 1,
				"type": "channel",
				"noteNumber": 38,
				"velocity": 102,
				"subtype": "noteOn"
			},
			{
				"deltaTime": 150,
				"channel": 1,
				"type": "channel",
				"subtype": "noteOff",
				"noteNumber": 38,
				"velocity": 64
			},
			{
				"deltaTime": 170,
				"channel": 1,
				"type": "channel",
				"noteNumber": 38,
				"velocity": 107,
				"subtype": "noteOn"
			},
			{
				"deltaTime": 95,
				"channel": 1,
				"type": "channel",
				"subtype": "noteOff",
				"noteNumber": 38,
				"velocity": 64
			},
			{
				"deltaTime": 65,
				"channel": 1,
				"type": "channel",
				"noteNumber": 38,
				"velocity": 102,
				"subtype": "noteOn"
			},
			{
				"deltaTime": 150,
				"channel": 1,
				"type": "channel",
				"subtype": "noteOff",
				"noteNumber": 38,
				"velocity": 64
			},
			{
				"deltaTime": 170,
				"channel": 1,
				"type": "channel",
				"noteNumber": 38,
				"velocity": 107,
				"subtype": "noteOn"
			},
			{
				"deltaTime": 90,
				"channel": 1,
				"type": "channel",
				"subtype": "noteOff",
				"noteNumber": 38,
				"velocity": 64
			},
			{
				"deltaTime": 70,
				"channel": 1,
				"type": "channel",
				"noteNumber": 38,
				"velocity": 93,
				"subtype": "noteOn"
			},
			{
				"deltaTime": 210,
				"channel": 1,
				"type": "channel",
				"subtype": "noteOff",
				"noteNumber": 38,
				"velocity": 64
			},
			{
				"deltaTime": 110,
				"channel": 1,
				"type": "channel",
				"noteNumber": 38,
				"velocity": 93,
				"subtype": "noteOn"
			},
			{
				"deltaTime": 100,
				"channel": 1,
				"type": "channel",
				"subtype": "noteOff",
				"noteNumber": 38,
				"velocity": 64
			},
			{
				"deltaTime": 60,
				"channel": 1,
				"type": "channel",
				"noteNumber": 38,
				"velocity": 98,
				"subtype": "noteOn"
			},
			{
				"deltaTime": 150,
				"channel": 1,
				"type": "channel",
				"subtype": "noteOff",
				"noteNumber": 38,
				"velocity": 64
			},
			{
				"deltaTime": 170,
				"channel": 1,
				"type": "channel",
				"noteNumber": 38,
				"velocity": 107,
				"subtype": "noteOn"
			},
			{
				"deltaTime": 95,
				"channel": 1,
				"type": "channel",
				"subtype": "noteOff",
				"noteNumber": 38,
				"velocity": 64
			},
			{
				"deltaTime": 65,
				"channel": 1,
				"type": "channel",
				"noteNumber": 38,
				"velocity": 89,
				"subtype": "noteOn"
			},
			{
				"deltaTime": 170,
				"channel": 1,
				"type": "channel",
				"subtype": "noteOff",
				"noteNumber": 38,
				"velocity": 64
			},
			{
				"deltaTime": 150,
				"channel": 1,
				"type": "channel",
				"noteNumber": 38,
				"velocity": 113,
				"subtype": "noteOn"
			},
			{
				"deltaTime": 155,
				"channel": 1,
				"type": "channel",
				"subtype": "noteOff",
				"noteNumber": 38,
				"velocity": 64
			},
			{
				"deltaTime": 5,
				"channel": 1,
				"type": "channel",
				"noteNumber": 30,
				"velocity": 93,
				"subtype": "noteOn"
			},
			{
				"deltaTime": 130,
				"channel": 1,
				"type": "channel",
				"subtype": "noteOff",
				"noteNumber": 30,
				"velocity": 64
			},
			{
				"deltaTime": 30,
				"channel": 1,
				"type": "channel",
				"noteNumber": 31,
				"velocity": 102,
				"subtype": "noteOn"
			},
			{
				"deltaTime": 150,
				"channel": 1,
				"type": "channel",
				"subtype": "noteOff",
				"noteNumber": 31,
				"velocity": 64
			},
			{
				"deltaTime": 10,
				"channel": 1,
				"type": "channel",
				"noteNumber": 32,
				"velocity": 85,
				"subtype": "noteOn"
			},
			{
				"deltaTime": 160,
				"channel": 1,
				"type": "channel",
				"noteNumber": 33,
				"velocity": 107,
				"subtype": "noteOn"
			},
			{
				"deltaTime": 5,
				"channel": 1,
				"type": "channel",
				"subtype": "noteOff",
				"noteNumber": 32,
				"velocity": 64
			},
			{
				"deltaTime": 155,
				"channel": 1,
				"type": "channel",
				"subtype": "noteOff",
				"noteNumber": 33,
				"velocity": 64
			},
			{
				"deltaTime": 160,
				"channel": 1,
				"type": "channel",
				"noteNumber": 33,
				"velocity": 107,
				"subtype": "noteOn"
			},
			{
				"deltaTime": 110,
				"channel": 1,
				"type": "channel",
				"subtype": "noteOff",
				"noteNumber": 33,
				"velocity": 64
			},
			{
				"deltaTime": 50,
				"channel": 1,
				"type": "channel",
				"noteNumber": 33,
				"velocity": 102,
				"subtype": "noteOn"
			},
			{
				"deltaTime": 130,
				"channel": 1,
				"type": "channel",
				"subtype": "noteOff",
				"noteNumber": 33,
				"velocity": 64
			},
			{
				"deltaTime": 190,
				"channel": 1,
				"type": "channel",
				"noteNumber": 33,
				"velocity": 107,
				"subtype": "noteOn"
			},
			{
				"deltaTime": 120,
				"channel": 1,
				"type": "channel",
				"subtype": "noteOff",
				"noteNumber": 33,
				"velocity": 64
			},
			{
				"deltaTime": 40,
				"channel": 1,
				"type": "channel",
				"noteNumber": 33,
				"velocity": 93,
				"subtype": "noteOn"
			},
			{
				"deltaTime": 120,
				"channel": 1,
				"type": "channel",
				"subtype": "noteOff",
				"noteNumber": 33,
				"velocity": 64
			},
			{
				"deltaTime": 200,
				"channel": 1,
				"type": "channel",
				"noteNumber": 33,
				"velocity": 113,
				"subtype": "noteOn"
			},
			{
				"deltaTime": 105,
				"channel": 1,
				"type": "channel",
				"subtype": "noteOff",
				"noteNumber": 33,
				"velocity": 64
			},
			{
				"deltaTime": 55,
				"channel": 1,
				"type": "channel",
				"noteNumber": 33,
				"velocity": 98,
				"subtype": "noteOn"
			},
			{
				"deltaTime": 135,
				"channel": 1,
				"type": "channel",
				"subtype": "noteOff",
				"noteNumber": 33,
				"velocity": 64
			},
			{
				"deltaTime": 185,
				"channel": 1,
				"type": "channel",
				"noteNumber": 33,
				"velocity": 107,
				"subtype": "noteOn"
			},
			{
				"deltaTime": 155,
				"channel": 1,
				"type": "channel",
				"subtype": "noteOff",
				"noteNumber": 33,
				"velocity": 64
			},
			{
				"deltaTime": 5,
				"channel": 1,
				"type": "channel",
				"noteNumber": 28,
				"velocity": 98,
				"subtype": "noteOn"
			},
			{
				"deltaTime": 165,
				"channel": 1,
				"type": "channel",
				"subtype": "noteOff",
				"noteNumber": 28,
				"velocity": 64
			},
			{
				"deltaTime": 155,
				"channel": 1,
				"type": "channel",
				"noteNumber": 28,
				"velocity": 89,
				"subtype": "noteOn"
			},
			{
				"deltaTime": 110,
				"channel": 1,
				"type": "channel",
				"subtype": "noteOff",
				"noteNumber": 28,
				"velocity": 64
			},
			{
				"deltaTime": 50,
				"channel": 1,
				"type": "channel",
				"noteNumber": 28,
				"velocity": 89,
				"subtype": "noteOn"
			},
			{
				"deltaTime": 130,
				"channel": 1,
				"type": "channel",
				"subtype": "noteOff",
				"noteNumber": 28,
				"velocity": 64
			},
			{
				"deltaTime": 190,
				"channel": 1,
				"type": "channel",
				"noteNumber": 28,
				"velocity": 89,
				"subtype": "noteOn"
			},
			{
				"deltaTime": 110,
				"channel": 1,
				"type": "channel",
				"subtype": "noteOff",
				"noteNumber": 28,
				"velocity": 64
			},
			{
				"deltaTime": 50,
				"channel": 1,
				"type": "channel",
				"noteNumber": 28,
				"velocity": 85,
				"subtype": "noteOn"
			},
			{
				"deltaTime": 145,
				"channel": 1,
				"type": "channel",
				"subtype": "noteOff",
				"noteNumber": 28,
				"velocity": 64
			},
			{
				"deltaTime": 175,
				"channel": 1,
				"type": "channel",
				"noteNumber": 28,
				"velocity": 98,
				"subtype": "noteOn"
			},
			{
				"deltaTime": 90,
				"channel": 1,
				"type": "channel",
				"subtype": "noteOff",
				"noteNumber": 28,
				"velocity": 64
			},
			{
				"deltaTime": 70,
				"channel": 1,
				"type": "channel",
				"noteNumber": 28,
				"velocity": 89,
				"subtype": "noteOn"
			},
			{
				"deltaTime": 130,
				"channel": 1,
				"type": "channel",
				"subtype": "noteOff",
				"noteNumber": 28,
				"velocity": 64
			},
			{
				"deltaTime": 190,
				"channel": 1,
				"type": "channel",
				"noteNumber": 28,
				"velocity": 93,
				"subtype": "noteOn"
			},
			{
				"deltaTime": 155,
				"channel": 1,
				"type": "channel",
				"subtype": "noteOff",
				"noteNumber": 28,
				"velocity": 64
			},
			{
				"deltaTime": 5,
				"channel": 1,
				"type": "channel",
				"noteNumber": 33,
				"velocity": 102,
				"subtype": "noteOn"
			},
			{
				"deltaTime": 190,
				"channel": 1,
				"type": "channel",
				"subtype": "noteOff",
				"noteNumber": 33,
				"velocity": 64
			},
			{
				"deltaTime": 130,
				"channel": 1,
				"type": "channel",
				"noteNumber": 33,
				"velocity": 107,
				"subtype": "noteOn"
			},
			{
				"deltaTime": 145,
				"channel": 1,
				"type": "channel",
				"subtype": "noteOff",
				"noteNumber": 33,
				"velocity": 64
			},
			{
				"deltaTime": 15,
				"channel": 1,
				"type": "channel",
				"noteNumber": 31,
				"velocity": 102,
				"subtype": "noteOn"
			},
			{
				"deltaTime": 180,
				"channel": 1,
				"type": "channel",
				"subtype": "noteOff",
				"noteNumber": 31,
				"velocity": 64
			},
			{
				"deltaTime": 140,
				"channel": 1,
				"type": "channel",
				"noteNumber": 31,
				"velocity": 107,
				"subtype": "noteOn"
			},
			{
				"deltaTime": 160,
				"channel": 1,
				"type": "channel",
				"noteNumber": 30,
				"velocity": 107,
				"subtype": "noteOn"
			},
			{
				"deltaTime": 20,
				"channel": 1,
				"type": "channel",
				"subtype": "noteOff",
				"noteNumber": 31,
				"velocity": 64
			},
			{
				"deltaTime": 195,
				"channel": 1,
				"type": "channel",
				"subtype": "noteOff",
				"noteNumber": 30,
				"velocity": 64
			},
			{
				"deltaTime": 105,
				"channel": 1,
				"type": "channel",
				"noteNumber": 30,
				"velocity": 107,
				"subtype": "noteOn"
			},
			{
				"deltaTime": 135,
				"channel": 1,
				"type": "channel",
				"subtype": "noteOff",
				"noteNumber": 30,
				"velocity": 64
			},
			{
				"deltaTime": 25,
				"channel": 1,
				"type": "channel",
				"noteNumber": 29,
				"velocity": 98,
				"subtype": "noteOn"
			},
			{
				"deltaTime": 185,
				"channel": 1,
				"type": "channel",
				"subtype": "noteOff",
				"noteNumber": 29,
				"velocity": 64
			},
			{
				"deltaTime": 135,
				"channel": 1,
				"type": "channel",
				"noteNumber": 29,
				"velocity": 89,
				"subtype": "noteOn"
			},
			{
				"deltaTime": 145,
				"channel": 1,
				"type": "channel",
				"subtype": "noteOff",
				"noteNumber": 29,
				"velocity": 64
			},
			{
				"deltaTime": 15,
				"channel": 1,
				"type": "channel",
				"noteNumber": 28,
				"velocity": 89,
				"subtype": "noteOn"
			},
			{
				"deltaTime": 195,
				"channel": 1,
				"type": "channel",
				"subtype": "noteOff",
				"noteNumber": 28,
				"velocity": 64
			},
			{
				"deltaTime": 125,
				"channel": 1,
				"type": "channel",
				"noteNumber": 28,
				"velocity": 102,
				"subtype": "noteOn"
			},
			{
				"deltaTime": 95,
				"channel": 1,
				"type": "channel",
				"subtype": "noteOff",
				"noteNumber": 28,
				"velocity": 64
			},
			{
				"deltaTime": 65,
				"channel": 1,
				"type": "channel",
				"noteNumber": 28,
				"velocity": 89,
				"subtype": "noteOn"
			},
			{
				"deltaTime": 140,
				"channel": 1,
				"type": "channel",
				"subtype": "noteOff",
				"noteNumber": 28,
				"velocity": 64
			},
			{
				"deltaTime": 180,
				"channel": 1,
				"type": "channel",
				"noteNumber": 28,
				"velocity": 113,
				"subtype": "noteOn"
			},
			{
				"deltaTime": 95,
				"channel": 1,
				"type": "channel",
				"subtype": "noteOff",
				"noteNumber": 28,
				"velocity": 64
			},
			{
				"deltaTime": 65,
				"channel": 1,
				"type": "channel",
				"noteNumber": 28,
				"velocity": 80,
				"subtype": "noteOn"
			},
			{
				"deltaTime": 175,
				"channel": 1,
				"type": "channel",
				"subtype": "noteOff",
				"noteNumber": 28,
				"velocity": 64
			},
			{
				"deltaTime": 145,
				"channel": 1,
				"type": "channel",
				"noteNumber": 28,
				"velocity": 93,
				"subtype": "noteOn"
			},
			{
				"deltaTime": 85,
				"channel": 1,
				"type": "channel",
				"subtype": "noteOff",
				"noteNumber": 28,
				"velocity": 64
			},
			{
				"deltaTime": 75,
				"channel": 1,
				"type": "channel",
				"noteNumber": 28,
				"velocity": 98,
				"subtype": "noteOn"
			},
			{
				"deltaTime": 140,
				"channel": 1,
				"type": "channel",
				"subtype": "noteOff",
				"noteNumber": 28,
				"velocity": 64
			},
			{
				"deltaTime": 180,
				"channel": 1,
				"type": "channel",
				"noteNumber": 30,
				"velocity": 102,
				"subtype": "noteOn"
			},
			{
				"deltaTime": 130,
				"channel": 1,
				"type": "channel",
				"subtype": "noteOff",
				"noteNumber": 30,
				"velocity": 64
			},
			{
				"deltaTime": 30,
				"channel": 1,
				"type": "channel",
				"noteNumber": 33,
				"velocity": 76,
				"subtype": "noteOn"
			},
			{
				"deltaTime": 155,
				"channel": 1,
				"type": "channel",
				"subtype": "noteOff",
				"noteNumber": 33,
				"velocity": 64
			},
			{
				"deltaTime": 165,
				"channel": 1,
				"type": "channel",
				"noteNumber": 33,
				"velocity": 107,
				"subtype": "noteOn"
			},
			{
				"deltaTime": 160,
				"channel": 1,
				"type": "channel",
				"noteNumber": 37,
				"velocity": 107,
				"subtype": "noteOn"
			},
			{
				"deltaTime": 25,
				"channel": 1,
				"type": "channel",
				"subtype": "noteOff",
				"noteNumber": 33,
				"velocity": 64
			},
			{
				"deltaTime": 120,
				"channel": 1,
				"type": "channel",
				"subtype": "noteOff",
				"noteNumber": 37,
				"velocity": 64
			},
			{
				"deltaTime": 175,
				"channel": 1,
				"type": "channel",
				"noteNumber": 37,
				"velocity": 89,
				"subtype": "noteOn"
			},
			{
				"deltaTime": 160,
				"channel": 1,
				"type": "channel",
				"subtype": "noteOff",
				"noteNumber": 37,
				"velocity": 64
			},
			{
				"deltaTime": 0,
				"channel": 1,
				"type": "channel",
				"noteNumber": 40,
				"velocity": 89,
				"subtype": "noteOn"
			},
			{
				"deltaTime": 125,
				"channel": 1,
				"type": "channel",
				"subtype": "noteOff",
				"noteNumber": 40,
				"velocity": 64
			},
			{
				"deltaTime": 195,
				"channel": 1,
				"type": "channel",
				"noteNumber": 40,
				"velocity": 80,
				"subtype": "noteOn"
			},
			{
				"deltaTime": 160,
				"channel": 1,
				"type": "channel",
				"noteNumber": 42,
				"velocity": 80,
				"subtype": "noteOn"
			},
			{
				"deltaTime": 15,
				"channel": 1,
				"type": "channel",
				"subtype": "noteOff",
				"noteNumber": 40,
				"velocity": 64
			},
			{
				"deltaTime": 130,
				"channel": 1,
				"type": "channel",
				"subtype": "noteOff",
				"noteNumber": 42,
				"velocity": 64
			},
			{
				"deltaTime": 15,
				"channel": 1,
				"type": "channel",
				"noteNumber": 40,
				"velocity": 85,
				"subtype": "noteOn"
			},
			{
				"deltaTime": 125,
				"channel": 1,
				"type": "channel",
				"subtype": "noteOff",
				"noteNumber": 40,
				"velocity": 64
			},
			{
				"deltaTime": 35,
				"channel": 1,
				"type": "channel",
				"noteNumber": 37,
				"velocity": 93,
				"subtype": "noteOn"
			},
			{
				"deltaTime": 130,
				"channel": 1,
				"type": "channel",
				"subtype": "noteOff",
				"noteNumber": 37,
				"velocity": 64
			},
			{
				"deltaTime": 30,
				"channel": 1,
				"type": "channel",
				"noteNumber": 28,
				"velocity": 107,
				"subtype": "noteOn"
			},
			{
				"deltaTime": 150,
				"channel": 1,
				"type": "channel",
				"subtype": "noteOff",
				"noteNumber": 28,
				"velocity": 64
			},
			{
				"deltaTime": 170,
				"channel": 1,
				"type": "channel",
				"noteNumber": 28,
				"velocity": 93,
				"subtype": "noteOn"
			},
			{
				"deltaTime": 160,
				"channel": 1,
				"type": "channel",
				"subtype": "noteOff",
				"noteNumber": 28,
				"velocity": 64
			},
			{
				"deltaTime": 0,
				"channel": 1,
				"type": "channel",
				"noteNumber": 32,
				"velocity": 107,
				"subtype": "noteOn"
			},
			{
				"deltaTime": 125,
				"channel": 1,
				"type": "channel",
				"subtype": "noteOff",
				"noteNumber": 32,
				"velocity": 64
			},
			{
				"deltaTime": 195,
				"channel": 1,
				"type": "channel",
				"noteNumber": 32,
				"velocity": 98,
				"subtype": "noteOn"
			},
			{
				"deltaTime": 155,
				"channel": 1,
				"type": "channel",
				"subtype": "noteOff",
				"noteNumber": 32,
				"velocity": 64
			},
			{
				"deltaTime": 5,
				"channel": 1,
				"type": "channel",
				"noteNumber": 35,
				"velocity": 98,
				"subtype": "noteOn"
			},
			{
				"deltaTime": 135,
				"channel": 1,
				"type": "channel",
				"subtype": "noteOff",
				"noteNumber": 35,
				"velocity": 64
			},
			{
				"deltaTime": 185,
				"channel": 1,
				"type": "channel",
				"noteNumber": 35,
				"velocity": 93,
				"subtype": "noteOn"
			},
			{
				"deltaTime": 160,
				"channel": 1,
				"type": "channel",
				"noteNumber": 37,
				"velocity": 93,
				"subtype": "noteOn"
			},
			{
				"deltaTime": 25,
				"channel": 1,
				"type": "channel",
				"subtype": "noteOff",
				"noteNumber": 35,
				"velocity": 64
			},
			{
				"deltaTime": 295,
				"channel": 1,
				"type": "channel",
				"subtype": "noteOff",
				"noteNumber": 37,
				"velocity": 64
			},
			{
				"deltaTime": 0,
				"channel": 1,
				"type": "channel",
				"noteNumber": 35,
				"velocity": 93,
				"subtype": "noteOn"
			},
			{
				"deltaTime": 150,
				"channel": 1,
				"type": "channel",
				"subtype": "noteOff",
				"noteNumber": 35,
				"velocity": 64
			},
			{
				"deltaTime": 10,
				"channel": 1,
				"type": "channel",
				"noteNumber": 38,
				"velocity": 107,
				"subtype": "noteOn"
			},
			{
				"deltaTime": 165,
				"channel": 1,
				"type": "channel",
				"subtype": "noteOff",
				"noteNumber": 38,
				"velocity": 64
			},
			{
				"deltaTime": 155,
				"channel": 1,
				"type": "channel",
				"noteNumber": 38,
				"velocity": 107,
				"subtype": "noteOn"
			},
			{
				"deltaTime": 115,
				"channel": 1,
				"type": "channel",
				"subtype": "noteOff",
				"noteNumber": 38,
				"velocity": 64
			},
			{
				"deltaTime": 45,
				"channel": 1,
				"type": "channel",
				"noteNumber": 38,
				"velocity": 93,
				"subtype": "noteOn"
			},
			{
				"deltaTime": 165,
				"channel": 1,
				"type": "channel",
				"subtype": "noteOff",
				"noteNumber": 38,
				"velocity": 64
			},
			{
				"deltaTime": 155,
				"channel": 1,
				"type": "channel",
				"noteNumber": 38,
				"velocity": 89,
				"subtype": "noteOn"
			},
			{
				"deltaTime": 115,
				"channel": 1,
				"type": "channel",
				"subtype": "noteOff",
				"noteNumber": 38,
				"velocity": 64
			},
			{
				"deltaTime": 45,
				"channel": 1,
				"type": "channel",
				"noteNumber": 38,
				"velocity": 93,
				"subtype": "noteOn"
			},
			{
				"deltaTime": 155,
				"channel": 1,
				"type": "channel",
				"subtype": "noteOff",
				"noteNumber": 38,
				"velocity": 64
			},
			{
				"deltaTime": 165,
				"channel": 1,
				"type": "channel",
				"noteNumber": 38,
				"velocity": 98,
				"subtype": "noteOn"
			},
			{
				"deltaTime": 110,
				"channel": 1,
				"type": "channel",
				"subtype": "noteOff",
				"noteNumber": 38,
				"velocity": 64
			},
			{
				"deltaTime": 50,
				"channel": 1,
				"type": "channel",
				"noteNumber": 38,
				"velocity": 89,
				"subtype": "noteOn"
			},
			{
				"deltaTime": 160,
				"channel": 1,
				"type": "channel",
				"subtype": "noteOff",
				"noteNumber": 38,
				"velocity": 64
			},
			{
				"deltaTime": 160,
				"channel": 1,
				"type": "channel",
				"noteNumber": 38,
				"velocity": 107,
				"subtype": "noteOn"
			},
			{
				"deltaTime": 115,
				"channel": 1,
				"type": "channel",
				"subtype": "noteOff",
				"noteNumber": 38,
				"velocity": 64
			},
			{
				"deltaTime": 45,
				"channel": 1,
				"type": "channel",
				"noteNumber": 38,
				"velocity": 102,
				"subtype": "noteOn"
			},
			{
				"deltaTime": 155,
				"channel": 1,
				"type": "channel",
				"subtype": "noteOff",
				"noteNumber": 38,
				"velocity": 64
			},
			{
				"deltaTime": 165,
				"channel": 1,
				"type": "channel",
				"noteNumber": 38,
				"velocity": 102,
				"subtype": "noteOn"
			},
			{
				"deltaTime": 110,
				"channel": 1,
				"type": "channel",
				"subtype": "noteOff",
				"noteNumber": 38,
				"velocity": 64
			},
			{
				"deltaTime": 50,
				"channel": 1,
				"type": "channel",
				"noteNumber": 38,
				"velocity": 89,
				"subtype": "noteOn"
			},
			{
				"deltaTime": 195,
				"channel": 1,
				"type": "channel",
				"subtype": "noteOff",
				"noteNumber": 38,
				"velocity": 64
			},
			{
				"deltaTime": 125,
				"channel": 1,
				"type": "channel",
				"noteNumber": 38,
				"velocity": 107,
				"subtype": "noteOn"
			},
			{
				"deltaTime": 125,
				"channel": 1,
				"type": "channel",
				"subtype": "noteOff",
				"noteNumber": 38,
				"velocity": 64
			},
			{
				"deltaTime": 35,
				"channel": 1,
				"type": "channel",
				"noteNumber": 38,
				"velocity": 107,
				"subtype": "noteOn"
			},
			{
				"deltaTime": 160,
				"channel": 1,
				"type": "channel",
				"subtype": "noteOff",
				"noteNumber": 38,
				"velocity": 64
			},
			{
				"deltaTime": 160,
				"channel": 1,
				"type": "channel",
				"noteNumber": 38,
				"velocity": 98,
				"subtype": "noteOn"
			},
			{
				"deltaTime": 150,
				"channel": 1,
				"type": "channel",
				"subtype": "noteOff",
				"noteNumber": 38,
				"velocity": 64
			},
			{
				"deltaTime": 10,
				"channel": 1,
				"type": "channel",
				"noteNumber": 30,
				"velocity": 98,
				"subtype": "noteOn"
			},
			{
				"deltaTime": 285,
				"channel": 1,
				"type": "channel",
				"subtype": "noteOff",
				"noteNumber": 30,
				"velocity": 64
			},
			{
				"deltaTime": 35,
				"channel": 1,
				"type": "channel",
				"noteNumber": 31,
				"velocity": 93,
				"subtype": "noteOn"
			},
			{
				"deltaTime": 160,
				"channel": 1,
				"type": "channel",
				"noteNumber": 33,
				"velocity": 113,
				"subtype": "noteOn"
			},
			{
				"deltaTime": 10,
				"channel": 1,
				"type": "channel",
				"subtype": "noteOff",
				"noteNumber": 31,
				"velocity": 64
			},
			{
				"deltaTime": 135,
				"channel": 1,
				"type": "channel",
				"subtype": "noteOff",
				"noteNumber": 33,
				"velocity": 64
			},
			{
				"deltaTime": 175,
				"channel": 1,
				"type": "channel",
				"noteNumber": 33,
				"velocity": 113,
				"subtype": "noteOn"
			},
			{
				"deltaTime": 105,
				"channel": 1,
				"type": "channel",
				"subtype": "noteOff",
				"noteNumber": 33,
				"velocity": 64
			},
			{
				"deltaTime": 55,
				"channel": 1,
				"type": "channel",
				"noteNumber": 33,
				"velocity": 102,
				"subtype": "noteOn"
			},
			{
				"deltaTime": 130,
				"channel": 1,
				"type": "channel",
				"subtype": "noteOff",
				"noteNumber": 33,
				"velocity": 64
			},
			{
				"deltaTime": 190,
				"channel": 1,
				"type": "channel",
				"noteNumber": 33,
				"velocity": 107,
				"subtype": "noteOn"
			},
			{
				"deltaTime": 115,
				"channel": 1,
				"type": "channel",
				"subtype": "noteOff",
				"noteNumber": 33,
				"velocity": 64
			},
			{
				"deltaTime": 45,
				"channel": 1,
				"type": "channel",
				"noteNumber": 33,
				"velocity": 98,
				"subtype": "noteOn"
			},
			{
				"deltaTime": 155,
				"channel": 1,
				"type": "channel",
				"subtype": "noteOff",
				"noteNumber": 33,
				"velocity": 64
			},
			{
				"deltaTime": 165,
				"channel": 1,
				"type": "channel",
				"noteNumber": 33,
				"velocity": 107,
				"subtype": "noteOn"
			},
			{
				"deltaTime": 115,
				"channel": 1,
				"type": "channel",
				"subtype": "noteOff",
				"noteNumber": 33,
				"velocity": 64
			},
			{
				"deltaTime": 45,
				"channel": 1,
				"type": "channel",
				"noteNumber": 33,
				"velocity": 102,
				"subtype": "noteOn"
			},
			{
				"deltaTime": 150,
				"channel": 1,
				"type": "channel",
				"subtype": "noteOff",
				"noteNumber": 33,
				"velocity": 64
			},
			{
				"deltaTime": 170,
				"channel": 1,
				"type": "channel",
				"noteNumber": 33,
				"velocity": 98,
				"subtype": "noteOn"
			},
			{
				"deltaTime": 160,
				"channel": 1,
				"type": "channel",
				"noteNumber": 28,
				"velocity": 113,
				"subtype": "noteOn"
			},
			{
				"deltaTime": 5,
				"channel": 1,
				"type": "channel",
				"subtype": "noteOff",
				"noteNumber": 33,
				"velocity": 64
			},
			{
				"deltaTime": 155,
				"channel": 1,
				"type": "channel",
				"subtype": "noteOff",
				"noteNumber": 28,
				"velocity": 64
			},
			{
				"deltaTime": 160,
				"channel": 1,
				"type": "channel",
				"noteNumber": 28,
				"velocity": 98,
				"subtype": "noteOn"
			},
			{
				"deltaTime": 105,
				"channel": 1,
				"type": "channel",
				"subtype": "noteOff",
				"noteNumber": 28,
				"velocity": 64
			},
			{
				"deltaTime": 55,
				"channel": 1,
				"type": "channel",
				"noteNumber": 28,
				"velocity": 93,
				"subtype": "noteOn"
			},
			{
				"deltaTime": 140,
				"channel": 1,
				"type": "channel",
				"subtype": "noteOff",
				"noteNumber": 28,
				"velocity": 64
			},
			{
				"deltaTime": 180,
				"channel": 1,
				"type": "channel",
				"noteNumber": 28,
				"velocity": 93,
				"subtype": "noteOn"
			},
			{
				"deltaTime": 100,
				"channel": 1,
				"type": "channel",
				"subtype": "noteOff",
				"noteNumber": 28,
				"velocity": 64
			},
			{
				"deltaTime": 60,
				"channel": 1,
				"type": "channel",
				"noteNumber": 28,
				"velocity": 93,
				"subtype": "noteOn"
			},
			{
				"deltaTime": 150,
				"channel": 1,
				"type": "channel",
				"subtype": "noteOff",
				"noteNumber": 28,
				"velocity": 64
			},
			{
				"deltaTime": 170,
				"channel": 1,
				"type": "channel",
				"noteNumber": 28,
				"velocity": 93,
				"subtype": "noteOn"
			},
			{
				"deltaTime": 95,
				"channel": 1,
				"type": "channel",
				"subtype": "noteOff",
				"noteNumber": 28,
				"velocity": 64
			},
			{
				"deltaTime": 65,
				"channel": 1,
				"type": "channel",
				"noteNumber": 28,
				"velocity": 85,
				"subtype": "noteOn"
			},
			{
				"deltaTime": 130,
				"channel": 1,
				"type": "channel",
				"subtype": "noteOff",
				"noteNumber": 28,
				"velocity": 64
			},
			{
				"deltaTime": 190,
				"channel": 1,
				"type": "channel",
				"noteNumber": 28,
				"velocity": 93,
				"subtype": "noteOn"
			},
			{
				"deltaTime": 110,
				"channel": 1,
				"type": "channel",
				"subtype": "noteOff",
				"noteNumber": 28,
				"velocity": 64
			},
			{
				"deltaTime": 50,
				"channel": 1,
				"type": "channel",
				"noteNumber": 33,
				"velocity": 107,
				"subtype": "noteOn"
			},
			{
				"deltaTime": 320,
				"channel": 1,
				"type": "channel",
				"noteNumber": 45,
				"velocity": 107,
				"subtype": "noteOn"
			},
			{
				"deltaTime": 30,
				"channel": 1,
				"type": "channel",
				"subtype": "noteOff",
				"noteNumber": 33,
				"velocity": 64
			},
			{
				"deltaTime": 130,
				"channel": 1,
				"type": "channel",
				"noteNumber": 31,
				"velocity": 102,
				"subtype": "noteOn"
			},
			{
				"deltaTime": 35,
				"channel": 1,
				"type": "channel",
				"subtype": "noteOff",
				"noteNumber": 45,
				"velocity": 64
			},
			{
				"deltaTime": 285,
				"channel": 1,
				"type": "channel",
				"noteNumber": 43,
				"velocity": 102,
				"subtype": "noteOn"
			},
			{
				"deltaTime": 60,
				"channel": 1,
				"type": "channel",
				"subtype": "noteOff",
				"noteNumber": 31,
				"velocity": 64
			},
			{
				"deltaTime": 85,
				"channel": 1,
				"type": "channel",
				"subtype": "noteOff",
				"noteNumber": 43,
				"velocity": 64
			},
			{
				"deltaTime": 15,
				"channel": 1,
				"type": "channel",
				"noteNumber": 30,
				"velocity": 102,
				"subtype": "noteOn"
			},
			{
				"deltaTime": 320,
				"channel": 1,
				"type": "channel",
				"noteNumber": 42,
				"velocity": 102,
				"subtype": "noteOn"
			},
			{
				"deltaTime": 80,
				"channel": 1,
				"type": "channel",
				"subtype": "noteOff",
				"noteNumber": 30,
				"velocity": 64
			},
			{
				"deltaTime": 75,
				"channel": 1,
				"type": "channel",
				"subtype": "noteOff",
				"noteNumber": 42,
				"velocity": 64
			},
			{
				"deltaTime": 5,
				"channel": 1,
				"type": "channel",
				"noteNumber": 29,
				"velocity": 113,
				"subtype": "noteOn"
			},
			{
				"deltaTime": 320,
				"channel": 1,
				"type": "channel",
				"noteNumber": 41,
				"velocity": 102,
				"subtype": "noteOn"
			},
			{
				"deltaTime": 85,
				"channel": 1,
				"type": "channel",
				"subtype": "noteOff",
				"noteNumber": 29,
				"velocity": 64
			},
			{
				"deltaTime": 35,
				"channel": 1,
				"type": "channel",
				"subtype": "noteOff",
				"noteNumber": 41,
				"velocity": 64
			},
			{
				"deltaTime": 40,
				"channel": 1,
				"type": "channel",
				"noteNumber": 28,
				"velocity": 93,
				"subtype": "noteOn"
			},
			{
				"deltaTime": 320,
				"channel": 1,
				"type": "channel",
				"subtype": "noteOff",
				"noteNumber": 28,
				"velocity": 64
			},
			{
				"deltaTime": 0,
				"channel": 1,
				"type": "channel",
				"noteNumber": 40,
				"velocity": 113,
				"subtype": "noteOn"
			},
			{
				"deltaTime": 160,
				"channel": 1,
				"type": "channel",
				"noteNumber": 28,
				"velocity": 89,
				"subtype": "noteOn"
			},
			{
				"deltaTime": 80,
				"channel": 1,
				"type": "channel",
				"subtype": "noteOff",
				"noteNumber": 40,
				"velocity": 64
			},
			{
				"deltaTime": 225,
				"channel": 1,
				"type": "channel",
				"subtype": "noteOff",
				"noteNumber": 28,
				"velocity": 64
			},
			{
				"deltaTime": 15,
				"channel": 1,
				"type": "channel",
				"noteNumber": 40,
				"velocity": 119,
				"subtype": "noteOn"
			},
			{
				"deltaTime": 465,
				"channel": 1,
				"type": "channel",
				"subtype": "noteOff",
				"noteNumber": 40,
				"velocity": 64
			},
			{
				"deltaTime": 15,
				"channel": 1,
				"type": "channel",
				"noteNumber": 28,
				"velocity": 89,
				"subtype": "noteOn"
			},
			{
				"deltaTime": 100,
				"channel": 1,
				"type": "channel",
				"subtype": "noteOff",
				"noteNumber": 28,
				"velocity": 64
			},
			{
				"deltaTime": 60,
				"channel": 1,
				"type": "channel",
				"noteNumber": 28,
				"velocity": 98,
				"subtype": "noteOn"
			},
			{
				"deltaTime": 320,
				"channel": 1,
				"type": "channel",
				"subtype": "noteOff",
				"noteNumber": 28,
				"velocity": 64
			},
			{
				"deltaTime": 0,
				"channel": 1,
				"type": "channel",
				"noteNumber": 30,
				"velocity": 107,
				"subtype": "noteOn"
			},
			{
				"deltaTime": 160,
				"channel": 1,
				"type": "channel",
				"noteNumber": 33,
				"velocity": 119,
				"subtype": "noteOn"
			},
			{
				"deltaTime": 15,
				"channel": 1,
				"type": "channel",
				"subtype": "noteOff",
				"noteNumber": 30,
				"velocity": 64
			},
			{
				"deltaTime": 125,
				"channel": 1,
				"type": "channel",
				"subtype": "noteOff",
				"noteNumber": 33,
				"velocity": 64
			},
			{
				"deltaTime": 180,
				"channel": 1,
				"type": "channel",
				"noteNumber": 33,
				"velocity": 93,
				"subtype": "noteOn"
			},
			{
				"deltaTime": 105,
				"channel": 1,
				"type": "channel",
				"subtype": "noteOff",
				"noteNumber": 33,
				"velocity": 64
			},
			{
				"deltaTime": 55,
				"channel": 1,
				"type": "channel",
				"noteNumber": 33,
				"velocity": 113,
				"subtype": "noteOn"
			},
			{
				"deltaTime": 145,
				"channel": 1,
				"type": "channel",
				"subtype": "noteOff",
				"noteNumber": 33,
				"velocity": 64
			},
			{
				"deltaTime": 175,
				"channel": 1,
				"type": "channel",
				"noteNumber": 33,
				"velocity": 93,
				"subtype": "noteOn"
			},
			{
				"deltaTime": 85,
				"channel": 1,
				"type": "channel",
				"subtype": "noteOff",
				"noteNumber": 33,
				"velocity": 64
			},
			{
				"deltaTime": 75,
				"channel": 1,
				"type": "channel",
				"noteNumber": 33,
				"velocity": 89,
				"subtype": "noteOn"
			},
			{
				"deltaTime": 125,
				"channel": 1,
				"type": "channel",
				"subtype": "noteOff",
				"noteNumber": 33,
				"velocity": 64
			},
			{
				"deltaTime": 195,
				"channel": 1,
				"type": "channel",
				"noteNumber": 33,
				"velocity": 107,
				"subtype": "noteOn"
			},
			{
				"deltaTime": 145,
				"channel": 1,
				"type": "channel",
				"subtype": "noteOff",
				"noteNumber": 33,
				"velocity": 64
			},
			{
				"deltaTime": 15,
				"channel": 1,
				"type": "channel",
				"noteNumber": 37,
				"velocity": 98,
				"subtype": "noteOn"
			},
			{
				"deltaTime": 320,
				"channel": 1,
				"type": "channel",
				"noteNumber": 40,
				"velocity": 89,
				"subtype": "noteOn"
			},
			{
				"deltaTime": 5,
				"channel": 1,
				"type": "channel",
				"subtype": "noteOff",
				"noteNumber": 37,
				"velocity": 64
			},
			{
				"deltaTime": 140,
				"channel": 1,
				"type": "channel",
				"subtype": "noteOff",
				"noteNumber": 40,
				"velocity": 64
			},
			{
				"deltaTime": 15,
				"channel": 1,
				"type": "channel",
				"noteNumber": 28,
				"velocity": 98,
				"subtype": "noteOn"
			},
			{
				"deltaTime": 145,
				"channel": 1,
				"type": "channel",
				"subtype": "noteOff",
				"noteNumber": 28,
				"velocity": 64
			},
			{
				"deltaTime": 175,
				"channel": 1,
				"type": "channel",
				"noteNumber": 28,
				"velocity": 98,
				"subtype": "noteOn"
			},
			{
				"deltaTime": 120,
				"channel": 1,
				"type": "channel",
				"subtype": "noteOff",
				"noteNumber": 28,
				"velocity": 64
			},
			{
				"deltaTime": 40,
				"channel": 1,
				"type": "channel",
				"noteNumber": 28,
				"velocity": 89,
				"subtype": "noteOn"
			},
			{
				"deltaTime": 140,
				"channel": 1,
				"type": "channel",
				"subtype": "noteOff",
				"noteNumber": 28,
				"velocity": 64
			},
			{
				"deltaTime": 180,
				"channel": 1,
				"type": "channel",
				"noteNumber": 28,
				"velocity": 98,
				"subtype": "noteOn"
			},
			{
				"deltaTime": 100,
				"channel": 1,
				"type": "channel",
				"subtype": "noteOff",
				"noteNumber": 28,
				"velocity": 64
			},
			{
				"deltaTime": 60,
				"channel": 1,
				"type": "channel",
				"noteNumber": 28,
				"velocity": 85,
				"subtype": "noteOn"
			},
			{
				"deltaTime": 165,
				"channel": 1,
				"type": "channel",
				"subtype": "noteOff",
				"noteNumber": 28,
				"velocity": 64
			},
			{
				"deltaTime": 155,
				"channel": 1,
				"type": "channel",
				"noteNumber": 28,
				"velocity": 102,
				"subtype": "noteOn"
			},
			{
				"deltaTime": 145,
				"channel": 1,
				"type": "channel",
				"subtype": "noteOff",
				"noteNumber": 28,
				"velocity": 64
			},
			{
				"deltaTime": 15,
				"channel": 1,
				"type": "channel",
				"noteNumber": 32,
				"velocity": 102,
				"subtype": "noteOn"
			},
			{
				"deltaTime": 310,
				"channel": 1,
				"type": "channel",
				"subtype": "noteOff",
				"noteNumber": 32,
				"velocity": 64
			},
			{
				"deltaTime": 10,
				"channel": 1,
				"type": "channel",
				"noteNumber": 35,
				"velocity": 93,
				"subtype": "noteOn"
			},
			{
				"deltaTime": 160,
				"channel": 1,
				"type": "channel",
				"noteNumber": 38,
				"velocity": 98,
				"subtype": "noteOn"
			},
			{
				"deltaTime": 10,
				"channel": 1,
				"type": "channel",
				"subtype": "noteOff",
				"noteNumber": 35,
				"velocity": 64
			},
			{
				"deltaTime": 150,
				"channel": 1,
				"type": "channel",
				"subtype": "noteOff",
				"noteNumber": 38,
				"velocity": 64
			},
			{
				"deltaTime": 160,
				"channel": 1,
				"type": "channel",
				"noteNumber": 38,
				"velocity": 107,
				"subtype": "noteOn"
			},
			{
				"deltaTime": 110,
				"channel": 1,
				"type": "channel",
				"subtype": "noteOff",
				"noteNumber": 38,
				"velocity": 64
			},
			{
				"deltaTime": 50,
				"channel": 1,
				"type": "channel",
				"noteNumber": 38,
				"velocity": 93,
				"subtype": "noteOn"
			},
			{
				"deltaTime": 195,
				"channel": 1,
				"type": "channel",
				"subtype": "noteOff",
				"noteNumber": 38,
				"velocity": 64
			},
			{
				"deltaTime": 125,
				"channel": 1,
				"type": "channel",
				"noteNumber": 38,
				"velocity": 98,
				"subtype": "noteOn"
			},
			{
				"deltaTime": 80,
				"channel": 1,
				"type": "channel",
				"subtype": "noteOff",
				"noteNumber": 38,
				"velocity": 64
			},
			{
				"deltaTime": 80,
				"channel": 1,
				"type": "channel",
				"noteNumber": 38,
				"velocity": 93,
				"subtype": "noteOn"
			},
			{
				"deltaTime": 175,
				"channel": 1,
				"type": "channel",
				"subtype": "noteOff",
				"noteNumber": 38,
				"velocity": 64
			},
			{
				"deltaTime": 145,
				"channel": 1,
				"type": "channel",
				"noteNumber": 38,
				"velocity": 57,
				"subtype": "noteOn"
			},
			{
				"deltaTime": 100,
				"channel": 1,
				"type": "channel",
				"subtype": "noteOff",
				"noteNumber": 38,
				"velocity": 64
			},
			{
				"deltaTime": 60,
				"channel": 1,
				"type": "channel",
				"noteNumber": 40,
				"velocity": 98,
				"subtype": "noteOn"
			},
			{
				"deltaTime": 0,
				"channel": 1,
				"type": "channel",
				"noteNumber": 42,
				"velocity": 59,
				"subtype": "noteOn"
			},
			{
				"deltaTime": 80,
				"channel": 1,
				"type": "channel",
				"subtype": "noteOff",
				"noteNumber": 40,
				"velocity": 64
			},
			{
				"deltaTime": 210,
				"channel": 1,
				"type": "channel",
				"subtype": "noteOff",
				"noteNumber": 42,
				"velocity": 64
			},
			{
				"deltaTime": 30,
				"channel": 1,
				"type": "channel",
				"noteNumber": 45,
				"velocity": 89,
				"subtype": "noteOn"
			},
			{
				"deltaTime": 140,
				"channel": 1,
				"type": "channel",
				"subtype": "noteOff",
				"noteNumber": 45,
				"velocity": 64
			},
			{
				"deltaTime": 20,
				"channel": 1,
				"type": "channel",
				"noteNumber": 38,
				"velocity": 98,
				"subtype": "noteOn"
			},
			{
				"deltaTime": 150,
				"channel": 1,
				"type": "channel",
				"subtype": "noteOff",
				"noteNumber": 38,
				"velocity": 64
			},
			{
				"deltaTime": 170,
				"channel": 1,
				"type": "channel",
				"noteNumber": 38,
				"velocity": 113,
				"subtype": "noteOn"
			},
			{
				"deltaTime": 160,
				"channel": 1,
				"type": "channel",
				"noteNumber": 30,
				"velocity": 102,
				"subtype": "noteOn"
			},
			{
				"deltaTime": 5,
				"channel": 1,
				"type": "channel",
				"subtype": "noteOff",
				"noteNumber": 38,
				"velocity": 64
			},
			{
				"deltaTime": 200,
				"channel": 1,
				"type": "channel",
				"subtype": "noteOff",
				"noteNumber": 30,
				"velocity": 64
			},
			{
				"deltaTime": 115,
				"channel": 1,
				"type": "channel",
				"noteNumber": 30,
				"velocity": 93,
				"subtype": "noteOn"
			},
			{
				"deltaTime": 155,
				"channel": 1,
				"type": "channel",
				"subtype": "noteOff",
				"noteNumber": 30,
				"velocity": 64
			},
			{
				"deltaTime": 5,
				"channel": 1,
				"type": "channel",
				"noteNumber": 31,
				"velocity": 107,
				"subtype": "noteOn"
			},
			{
				"deltaTime": 175,
				"channel": 1,
				"type": "channel",
				"subtype": "noteOff",
				"noteNumber": 31,
				"velocity": 64
			},
			{
				"deltaTime": 145,
				"channel": 1,
				"type": "channel",
				"noteNumber": 31,
				"velocity": 102,
				"subtype": "noteOn"
			},
			{
				"deltaTime": 150,
				"channel": 1,
				"type": "channel",
				"subtype": "noteOff",
				"noteNumber": 31,
				"velocity": 64
			},
			{
				"deltaTime": 10,
				"channel": 1,
				"type": "channel",
				"noteNumber": 32,
				"velocity": 102,
				"subtype": "noteOn"
			},
			{
				"deltaTime": 155,
				"channel": 1,
				"type": "channel",
				"subtype": "noteOff",
				"noteNumber": 32,
				"velocity": 64
			},
			{
				"deltaTime": 165,
				"channel": 1,
				"type": "channel",
				"noteNumber": 32,
				"velocity": 107,
				"subtype": "noteOn"
			},
			{
				"deltaTime": 135,
				"channel": 1,
				"type": "channel",
				"subtype": "noteOff",
				"noteNumber": 32,
				"velocity": 64
			},
			{
				"deltaTime": 25,
				"channel": 1,
				"type": "channel",
				"noteNumber": 33,
				"velocity": 102,
				"subtype": "noteOn"
			},
			{
				"deltaTime": 165,
				"channel": 1,
				"type": "channel",
				"subtype": "noteOff",
				"noteNumber": 33,
				"velocity": 64
			},
			{
				"deltaTime": 155,
				"channel": 1,
				"type": "channel",
				"noteNumber": 33,
				"velocity": 107,
				"subtype": "noteOn"
			},
			{
				"deltaTime": 135,
				"channel": 1,
				"type": "channel",
				"subtype": "noteOff",
				"noteNumber": 33,
				"velocity": 64
			},
			{
				"deltaTime": 25,
				"channel": 1,
				"type": "channel",
				"noteNumber": 37,
				"velocity": 113,
				"subtype": "noteOn"
			},
			{
				"deltaTime": 190,
				"channel": 1,
				"type": "channel",
				"subtype": "noteOff",
				"noteNumber": 37,
				"velocity": 64
			},
			{
				"deltaTime": 130,
				"channel": 1,
				"type": "channel",
				"noteNumber": 37,
				"velocity": 89,
				"subtype": "noteOn"
			},
			{
				"deltaTime": 140,
				"channel": 1,
				"type": "channel",
				"subtype": "noteOff",
				"noteNumber": 37,
				"velocity": 64
			},
			{
				"deltaTime": 20,
				"channel": 1,
				"type": "channel",
				"noteNumber": 40,
				"velocity": 89,
				"subtype": "noteOn"
			},
			{
				"deltaTime": 185,
				"channel": 1,
				"type": "channel",
				"subtype": "noteOff",
				"noteNumber": 40,
				"velocity": 64
			},
			{
				"deltaTime": 135,
				"channel": 1,
				"type": "channel",
				"noteNumber": 40,
				"velocity": 93,
				"subtype": "noteOn"
			},
			{
				"deltaTime": 135,
				"channel": 1,
				"type": "channel",
				"subtype": "noteOff",
				"noteNumber": 40,
				"velocity": 64
			},
			{
				"deltaTime": 25,
				"channel": 1,
				"type": "channel",
				"noteNumber": 42,
				"velocity": 85,
				"subtype": "noteOn"
			},
			{
				"deltaTime": 320,
				"channel": 1,
				"type": "channel",
				"noteNumber": 40,
				"velocity": 93,
				"subtype": "noteOn"
			},
			{
				"deltaTime": 25,
				"channel": 1,
				"type": "channel",
				"subtype": "noteOff",
				"noteNumber": 42,
				"velocity": 64
			},
			{
				"deltaTime": 135,
				"channel": 1,
				"type": "channel",
				"subtype": "noteOff",
				"noteNumber": 40,
				"velocity": 64
			},
			{
				"deltaTime": 0,
				"channel": 1,
				"type": "channel",
				"noteNumber": 28,
				"velocity": 93,
				"subtype": "noteOn"
			},
			{
				"deltaTime": 155,
				"channel": 1,
				"type": "channel",
				"subtype": "noteOff",
				"noteNumber": 28,
				"velocity": 64
			},
			{
				"deltaTime": 165,
				"channel": 1,
				"type": "channel",
				"noteNumber": 28,
				"velocity": 107,
				"subtype": "noteOn"
			},
			{
				"deltaTime": 85,
				"channel": 1,
				"type": "channel",
				"subtype": "noteOff",
				"noteNumber": 28,
				"velocity": 64
			},
			{
				"deltaTime": 75,
				"channel": 1,
				"type": "channel",
				"noteNumber": 28,
				"velocity": 93,
				"subtype": "noteOn"
			},
			{
				"deltaTime": 175,
				"channel": 1,
				"type": "channel",
				"subtype": "noteOff",
				"noteNumber": 28,
				"velocity": 64
			},
			{
				"deltaTime": 145,
				"channel": 1,
				"type": "channel",
				"noteNumber": 28,
				"velocity": 93,
				"subtype": "noteOn"
			},
			{
				"deltaTime": 100,
				"channel": 1,
				"type": "channel",
				"subtype": "noteOff",
				"noteNumber": 28,
				"velocity": 64
			},
			{
				"deltaTime": 60,
				"channel": 1,
				"type": "channel",
				"noteNumber": 28,
				"velocity": 89,
				"subtype": "noteOn"
			},
			{
				"deltaTime": 160,
				"channel": 1,
				"type": "channel",
				"subtype": "noteOff",
				"noteNumber": 28,
				"velocity": 64
			},
			{
				"deltaTime": 160,
				"channel": 1,
				"type": "channel",
				"noteNumber": 28,
				"velocity": 93,
				"subtype": "noteOn"
			},
			{
				"deltaTime": 75,
				"channel": 1,
				"type": "channel",
				"subtype": "noteOff",
				"noteNumber": 28,
				"velocity": 64
			},
			{
				"deltaTime": 85,
				"channel": 1,
				"type": "channel",
				"noteNumber": 28,
				"velocity": 89,
				"subtype": "noteOn"
			},
			{
				"deltaTime": 290,
				"channel": 1,
				"type": "channel",
				"subtype": "noteOff",
				"noteNumber": 28,
				"velocity": 64
			},
			{
				"deltaTime": 30,
				"channel": 1,
				"type": "channel",
				"noteNumber": 30,
				"velocity": 107,
				"subtype": "noteOn"
			},
			{
				"deltaTime": 105,
				"channel": 1,
				"type": "channel",
				"subtype": "noteOff",
				"noteNumber": 30,
				"velocity": 64
			},
			{
				"deltaTime": 55,
				"channel": 1,
				"type": "channel",
				"noteNumber": 33,
				"velocity": 107,
				"subtype": "noteOn"
			},
			{
				"deltaTime": 245,
				"channel": 1,
				"type": "channel",
				"subtype": "noteOff",
				"noteNumber": 33,
				"velocity": 64
			},
			{
				"deltaTime": 75,
				"channel": 1,
				"type": "channel",
				"noteNumber": 33,
				"velocity": 93,
				"subtype": "noteOn"
			},
			{
				"deltaTime": 135,
				"channel": 1,
				"type": "channel",
				"subtype": "noteOff",
				"noteNumber": 33,
				"velocity": 64
			},
			{
				"deltaTime": 25,
				"channel": 1,
				"type": "channel",
				"noteNumber": 31,
				"velocity": 107,
				"subtype": "noteOn"
			},
			{
				"deltaTime": 270,
				"channel": 1,
				"type": "channel",
				"subtype": "noteOff",
				"noteNumber": 31,
				"velocity": 64
			},
			{
				"deltaTime": 50,
				"channel": 1,
				"type": "channel",
				"noteNumber": 31,
				"velocity": 89,
				"subtype": "noteOn"
			},
			{
				"deltaTime": 130,
				"channel": 1,
				"type": "channel",
				"subtype": "noteOff",
				"noteNumber": 31,
				"velocity": 64
			},
			{
				"deltaTime": 30,
				"channel": 1,
				"type": "channel",
				"noteNumber": 30,
				"velocity": 98,
				"subtype": "noteOn"
			},
			{
				"deltaTime": 250,
				"channel": 1,
				"type": "channel",
				"subtype": "noteOff",
				"noteNumber": 30,
				"velocity": 64
			},
			{
				"deltaTime": 70,
				"channel": 1,
				"type": "channel",
				"noteNumber": 30,
				"velocity": 98,
				"subtype": "noteOn"
			},
			{
				"deltaTime": 140,
				"channel": 1,
				"type": "channel",
				"subtype": "noteOff",
				"noteNumber": 30,
				"velocity": 64
			},
			{
				"deltaTime": 20,
				"channel": 1,
				"type": "channel",
				"noteNumber": 29,
				"velocity": 107,
				"subtype": "noteOn"
			},
			{
				"deltaTime": 190,
				"channel": 1,
				"type": "channel",
				"subtype": "noteOff",
				"noteNumber": 29,
				"velocity": 64
			},
			{
				"deltaTime": 130,
				"channel": 1,
				"type": "channel",
				"noteNumber": 29,
				"velocity": 89,
				"subtype": "noteOn"
			},
			{
				"deltaTime": 115,
				"channel": 1,
				"type": "channel",
				"subtype": "noteOff",
				"noteNumber": 29,
				"velocity": 64
			},
			{
				"deltaTime": 45,
				"channel": 1,
				"type": "channel",
				"noteNumber": 28,
				"velocity": 102,
				"subtype": "noteOn"
			},
			{
				"deltaTime": 215,
				"channel": 1,
				"type": "channel",
				"subtype": "noteOff",
				"noteNumber": 28,
				"velocity": 64
			},
			{
				"deltaTime": 105,
				"channel": 1,
				"type": "channel",
				"noteNumber": 28,
				"velocity": 102,
				"subtype": "noteOn"
			},
			{
				"deltaTime": 105,
				"channel": 1,
				"type": "channel",
				"subtype": "noteOff",
				"noteNumber": 28,
				"velocity": 64
			},
			{
				"deltaTime": 55,
				"channel": 1,
				"type": "channel",
				"noteNumber": 28,
				"velocity": 98,
				"subtype": "noteOn"
			},
			{
				"deltaTime": 190,
				"channel": 1,
				"type": "channel",
				"subtype": "noteOff",
				"noteNumber": 28,
				"velocity": 64
			},
			{
				"deltaTime": 130,
				"channel": 1,
				"type": "channel",
				"noteNumber": 28,
				"velocity": 102,
				"subtype": "noteOn"
			},
			{
				"deltaTime": 105,
				"channel": 1,
				"type": "channel",
				"subtype": "noteOff",
				"noteNumber": 28,
				"velocity": 64
			},
			{
				"deltaTime": 55,
				"channel": 1,
				"type": "channel",
				"noteNumber": 28,
				"velocity": 89,
				"subtype": "noteOn"
			},
			{
				"deltaTime": 160,
				"channel": 1,
				"type": "channel",
				"subtype": "noteOff",
				"noteNumber": 28,
				"velocity": 64
			},
			{
				"deltaTime": 160,
				"channel": 1,
				"type": "channel",
				"noteNumber": 28,
				"velocity": 102,
				"subtype": "noteOn"
			},
			{
				"deltaTime": 90,
				"channel": 1,
				"type": "channel",
				"subtype": "noteOff",
				"noteNumber": 28,
				"velocity": 64
			},
			{
				"deltaTime": 70,
				"channel": 1,
				"type": "channel",
				"noteNumber": 28,
				"velocity": 98,
				"subtype": "noteOn"
			},
			{
				"deltaTime": 235,
				"channel": 1,
				"type": "channel",
				"subtype": "noteOff",
				"noteNumber": 28,
				"velocity": 64
			},
			{
				"deltaTime": 85,
				"channel": 1,
				"type": "channel",
				"noteNumber": 30,
				"velocity": 102,
				"subtype": "noteOn"
			},
			{
				"deltaTime": 150,
				"channel": 1,
				"type": "channel",
				"subtype": "noteOff",
				"noteNumber": 30,
				"velocity": 64
			},
			{
				"deltaTime": 10,
				"channel": 1,
				"type": "channel",
				"noteNumber": 33,
				"velocity": 119,
				"subtype": "noteOn"
			},
			{
				"deltaTime": 115,
				"channel": 1,
				"type": "channel",
				"subtype": "noteOff",
				"noteNumber": 33,
				"velocity": 64
			},
			{
				"deltaTime": 205,
				"channel": 1,
				"type": "channel",
				"noteNumber": 33,
				"velocity": 107,
				"subtype": "noteOn"
			},
			{
				"deltaTime": 100,
				"channel": 1,
				"type": "channel",
				"subtype": "noteOff",
				"noteNumber": 33,
				"velocity": 64
			},
			{
				"deltaTime": 60,
				"channel": 1,
				"type": "channel",
				"noteNumber": 33,
				"velocity": 107,
				"subtype": "noteOn"
			},
			{
				"deltaTime": 165,
				"channel": 1,
				"type": "channel",
				"subtype": "noteOff",
				"noteNumber": 33,
				"velocity": 64
			},
			{
				"deltaTime": 155,
				"channel": 1,
				"type": "channel",
				"noteNumber": 33,
				"velocity": 107,
				"subtype": "noteOn"
			},
			{
				"deltaTime": 95,
				"channel": 1,
				"type": "channel",
				"subtype": "noteOff",
				"noteNumber": 33,
				"velocity": 64
			},
			{
				"deltaTime": 65,
				"channel": 1,
				"type": "channel",
				"noteNumber": 33,
				"velocity": 93,
				"subtype": "noteOn"
			},
			{
				"deltaTime": 165,
				"channel": 1,
				"type": "channel",
				"subtype": "noteOff",
				"noteNumber": 33,
				"velocity": 64
			},
			{
				"deltaTime": 155,
				"channel": 1,
				"type": "channel",
				"noteNumber": 33,
				"velocity": 107,
				"subtype": "noteOn"
			},
			{
				"deltaTime": 140,
				"channel": 1,
				"type": "channel",
				"subtype": "noteOff",
				"noteNumber": 33,
				"velocity": 64
			},
			{
				"deltaTime": 20,
				"channel": 1,
				"type": "channel",
				"noteNumber": 37,
				"velocity": 98,
				"subtype": "noteOn"
			},
			{
				"deltaTime": 300,
				"channel": 1,
				"type": "channel",
				"subtype": "noteOff",
				"noteNumber": 37,
				"velocity": 64
			},
			{
				"deltaTime": 20,
				"channel": 1,
				"type": "channel",
				"noteNumber": 38,
				"velocity": 93,
				"subtype": "noteOn"
			},
			{
				"deltaTime": 160,
				"channel": 1,
				"type": "channel",
				"noteNumber": 40,
				"velocity": 107,
				"subtype": "noteOn"
			},
			{
				"deltaTime": 20,
				"channel": 1,
				"type": "channel",
				"subtype": "noteOff",
				"noteNumber": 38,
				"velocity": 64
			},
			{
				"deltaTime": 105,
				"channel": 1,
				"type": "channel",
				"subtype": "noteOff",
				"noteNumber": 40,
				"velocity": 64
			},
			{
				"deltaTime": 195,
				"channel": 1,
				"type": "channel",
				"noteNumber": 40,
				"velocity": 107,
				"subtype": "noteOn"
			},
			{
				"deltaTime": 95,
				"channel": 1,
				"type": "channel",
				"subtype": "noteOff",
				"noteNumber": 40,
				"velocity": 64
			},
			{
				"deltaTime": 65,
				"channel": 1,
				"type": "channel",
				"noteNumber": 40,
				"velocity": 102,
				"subtype": "noteOn"
			},
			{
				"deltaTime": 140,
				"channel": 1,
				"type": "channel",
				"subtype": "noteOff",
				"noteNumber": 40,
				"velocity": 64
			},
			{
				"deltaTime": 180,
				"channel": 1,
				"type": "channel",
				"noteNumber": 40,
				"velocity": 98,
				"subtype": "noteOn"
			},
			{
				"deltaTime": 90,
				"channel": 1,
				"type": "channel",
				"subtype": "noteOff",
				"noteNumber": 40,
				"velocity": 64
			},
			{
				"deltaTime": 70,
				"channel": 1,
				"type": "channel",
				"noteNumber": 40,
				"velocity": 102,
				"subtype": "noteOn"
			},
			{
				"deltaTime": 175,
				"channel": 1,
				"type": "channel",
				"subtype": "noteOff",
				"noteNumber": 40,
				"velocity": 64
			},
			{
				"deltaTime": 145,
				"channel": 1,
				"type": "channel",
				"noteNumber": 40,
				"velocity": 93,
				"subtype": "noteOn"
			},
			{
				"deltaTime": 80,
				"channel": 1,
				"type": "channel",
				"subtype": "noteOff",
				"noteNumber": 40,
				"velocity": 64
			},
			{
				"deltaTime": 80,
				"channel": 1,
				"type": "channel",
				"noteNumber": 40,
				"velocity": 107,
				"subtype": "noteOn"
			},
			{
				"deltaTime": 310,
				"channel": 1,
				"type": "channel",
				"subtype": "noteOff",
				"noteNumber": 40,
				"velocity": 64
			},
			{
				"deltaTime": 10,
				"channel": 1,
				"type": "channel",
				"noteNumber": 39,
				"velocity": 107,
				"subtype": "noteOn"
			},
			{
				"deltaTime": 145,
				"channel": 1,
				"type": "channel",
				"subtype": "noteOff",
				"noteNumber": 39,
				"velocity": 64
			},
			{
				"deltaTime": 15,
				"channel": 1,
				"type": "channel",
				"noteNumber": 38,
				"velocity": 102,
				"subtype": "noteOn"
			},
			{
				"deltaTime": 190,
				"channel": 1,
				"type": "channel",
				"subtype": "noteOff",
				"noteNumber": 38,
				"velocity": 64
			},
			{
				"deltaTime": 130,
				"channel": 1,
				"type": "channel",
				"noteNumber": 38,
				"velocity": 102,
				"subtype": "noteOn"
			},
			{
				"deltaTime": 100,
				"channel": 1,
				"type": "channel",
				"subtype": "noteOff",
				"noteNumber": 38,
				"velocity": 64
			},
			{
				"deltaTime": 60,
				"channel": 1,
				"type": "channel",
				"noteNumber": 38,
				"velocity": 98,
				"subtype": "noteOn"
			},
			{
				"deltaTime": 155,
				"channel": 1,
				"type": "channel",
				"subtype": "noteOff",
				"noteNumber": 38,
				"velocity": 64
			},
			{
				"deltaTime": 165,
				"channel": 1,
				"type": "channel",
				"noteNumber": 38,
				"velocity": 89,
				"subtype": "noteOn"
			},
			{
				"deltaTime": 95,
				"channel": 1,
				"type": "channel",
				"subtype": "noteOff",
				"noteNumber": 38,
				"velocity": 64
			},
			{
				"deltaTime": 65,
				"channel": 1,
				"type": "channel",
				"noteNumber": 38,
				"velocity": 89,
				"subtype": "noteOn"
			},
			{
				"deltaTime": 125,
				"channel": 1,
				"type": "channel",
				"subtype": "noteOff",
				"noteNumber": 38,
				"velocity": 64
			},
			{
				"deltaTime": 195,
				"channel": 1,
				"type": "channel",
				"noteNumber": 38,
				"velocity": 98,
				"subtype": "noteOn"
			},
			{
				"deltaTime": 110,
				"channel": 1,
				"type": "channel",
				"subtype": "noteOff",
				"noteNumber": 38,
				"velocity": 64
			},
			{
				"deltaTime": 50,
				"channel": 1,
				"type": "channel",
				"noteNumber": 38,
				"velocity": 76,
				"subtype": "noteOn"
			},
			{
				"deltaTime": 190,
				"channel": 1,
				"type": "channel",
				"subtype": "noteOff",
				"noteNumber": 38,
				"velocity": 64
			},
			{
				"deltaTime": 130,
				"channel": 1,
				"type": "channel",
				"noteNumber": 38,
				"velocity": 93,
				"subtype": "noteOn"
			},
			{
				"deltaTime": 100,
				"channel": 1,
				"type": "channel",
				"subtype": "noteOff",
				"noteNumber": 38,
				"velocity": 64
			},
			{
				"deltaTime": 60,
				"channel": 1,
				"type": "channel",
				"noteNumber": 38,
				"velocity": 89,
				"subtype": "noteOn"
			},
			{
				"deltaTime": 165,
				"channel": 1,
				"type": "channel",
				"subtype": "noteOff",
				"noteNumber": 38,
				"velocity": 64
			},
			{
				"deltaTime": 155,
				"channel": 1,
				"type": "channel",
				"noteNumber": 38,
				"velocity": 98,
				"subtype": "noteOn"
			},
			{
				"deltaTime": 160,
				"channel": 1,
				"type": "channel",
				"noteNumber": 30,
				"velocity": 102,
				"subtype": "noteOn"
			},
			{
				"deltaTime": 15,
				"channel": 1,
				"type": "channel",
				"subtype": "noteOff",
				"noteNumber": 38,
				"velocity": 64
			},
			{
				"deltaTime": 145,
				"channel": 1,
				"type": "channel",
				"subtype": "noteOff",
				"noteNumber": 30,
				"velocity": 64
			},
			{
				"deltaTime": 160,
				"channel": 1,
				"type": "channel",
				"noteNumber": 30,
				"velocity": 85,
				"subtype": "noteOn"
			},
			{
				"deltaTime": 160,
				"channel": 1,
				"type": "channel",
				"noteNumber": 33,
				"velocity": 98,
				"subtype": "noteOn"
			},
			{
				"deltaTime": 30,
				"channel": 1,
				"type": "channel",
				"subtype": "noteOff",
				"noteNumber": 30,
				"velocity": 64
			},
			{
				"deltaTime": 130,
				"channel": 1,
				"type": "channel",
				"subtype": "noteOff",
				"noteNumber": 33,
				"velocity": 64
			},
			{
				"deltaTime": 160,
				"channel": 1,
				"type": "channel",
				"noteNumber": 33,
				"velocity": 89,
				"subtype": "noteOn"
			},
			{
				"deltaTime": 160,
				"channel": 1,
				"type": "channel",
				"noteNumber": 35,
				"velocity": 93,
				"subtype": "noteOn"
			},
			{
				"deltaTime": 5,
				"channel": 1,
				"type": "channel",
				"subtype": "noteOff",
				"noteNumber": 33,
				"velocity": 64
			},
			{
				"deltaTime": 170,
				"channel": 1,
				"type": "channel",
				"subtype": "noteOff",
				"noteNumber": 35,
				"velocity": 64
			},
			{
				"deltaTime": 145,
				"channel": 1,
				"type": "channel",
				"noteNumber": 35,
				"velocity": 102,
				"subtype": "noteOn"
			},
			{
				"deltaTime": 145,
				"channel": 1,
				"type": "channel",
				"subtype": "noteOff",
				"noteNumber": 35,
				"velocity": 64
			},
			{
				"deltaTime": 15,
				"channel": 1,
				"type": "channel",
				"noteNumber": 33,
				"velocity": 98,
				"subtype": "noteOn"
			},
			{
				"deltaTime": 150,
				"channel": 1,
				"type": "channel",
				"subtype": "noteOff",
				"noteNumber": 33,
				"velocity": 64
			},
			{
				"deltaTime": 170,
				"channel": 1,
				"type": "channel",
				"noteNumber": 33,
				"velocity": 113,
				"subtype": "noteOn"
			},
			{
				"deltaTime": 100,
				"channel": 1,
				"type": "channel",
				"subtype": "noteOff",
				"noteNumber": 33,
				"velocity": 64
			},
			{
				"deltaTime": 60,
				"channel": 1,
				"type": "channel",
				"noteNumber": 33,
				"velocity": 102,
				"subtype": "noteOn"
			},
			{
				"deltaTime": 160,
				"channel": 1,
				"type": "channel",
				"subtype": "noteOff",
				"noteNumber": 33,
				"velocity": 64
			},
			{
				"deltaTime": 160,
				"channel": 1,
				"type": "channel",
				"noteNumber": 33,
				"velocity": 107,
				"subtype": "noteOn"
			},
			{
				"deltaTime": 95,
				"channel": 1,
				"type": "channel",
				"subtype": "noteOff",
				"noteNumber": 33,
				"velocity": 64
			},
			{
				"deltaTime": 65,
				"channel": 1,
				"type": "channel",
				"noteNumber": 33,
				"velocity": 93,
				"subtype": "noteOn"
			},
			{
				"deltaTime": 190,
				"channel": 1,
				"type": "channel",
				"subtype": "noteOff",
				"noteNumber": 33,
				"velocity": 64
			},
			{
				"deltaTime": 130,
				"channel": 1,
				"type": "channel",
				"noteNumber": 33,
				"velocity": 93,
				"subtype": "noteOn"
			},
			{
				"deltaTime": 95,
				"channel": 1,
				"type": "channel",
				"subtype": "noteOff",
				"noteNumber": 33,
				"velocity": 64
			},
			{
				"deltaTime": 65,
				"channel": 1,
				"type": "channel",
				"noteNumber": 33,
				"velocity": 98,
				"subtype": "noteOn"
			},
			{
				"deltaTime": 140,
				"channel": 1,
				"type": "channel",
				"subtype": "noteOff",
				"noteNumber": 33,
				"velocity": 64
			},
			{
				"deltaTime": 180,
				"channel": 1,
				"type": "channel",
				"noteNumber": 33,
				"velocity": 93,
				"subtype": "noteOn"
			},
			{
				"deltaTime": 110,
				"channel": 1,
				"type": "channel",
				"subtype": "noteOff",
				"noteNumber": 33,
				"velocity": 64
			},
			{
				"deltaTime": 50,
				"channel": 1,
				"type": "channel",
				"noteNumber": 28,
				"velocity": 89,
				"subtype": "noteOn"
			},
			{
				"deltaTime": 145,
				"channel": 1,
				"type": "channel",
				"subtype": "noteOff",
				"noteNumber": 28,
				"velocity": 64
			},
			{
				"deltaTime": 175,
				"channel": 1,
				"type": "channel",
				"noteNumber": 28,
				"velocity": 98,
				"subtype": "noteOn"
			},
			{
				"deltaTime": 160,
				"channel": 1,
				"type": "channel",
				"noteNumber": 32,
				"velocity": 107,
				"subtype": "noteOn"
			},
			{
				"deltaTime": 25,
				"channel": 1,
				"type": "channel",
				"subtype": "noteOff",
				"noteNumber": 28,
				"velocity": 64
			},
			{
				"deltaTime": 155,
				"channel": 1,
				"type": "channel",
				"subtype": "noteOff",
				"noteNumber": 32,
				"velocity": 64
			},
			{
				"deltaTime": 140,
				"channel": 1,
				"type": "channel",
				"noteNumber": 32,
				"velocity": 102,
				"subtype": "noteOn"
			},
			{
				"deltaTime": 160,
				"channel": 1,
				"type": "channel",
				"noteNumber": 35,
				"velocity": 93,
				"subtype": "noteOn"
			},
			{
				"deltaTime": 5,
				"channel": 1,
				"type": "channel",
				"subtype": "noteOff",
				"noteNumber": 32,
				"velocity": 64
			},
			{
				"deltaTime": 140,
				"channel": 1,
				"type": "channel",
				"subtype": "noteOff",
				"noteNumber": 35,
				"velocity": 64
			},
			{
				"deltaTime": 175,
				"channel": 1,
				"type": "channel",
				"noteNumber": 35,
				"velocity": 98,
				"subtype": "noteOn"
			},
			{
				"deltaTime": 155,
				"channel": 1,
				"type": "channel",
				"subtype": "noteOff",
				"noteNumber": 35,
				"velocity": 64
			},
			{
				"deltaTime": 5,
				"channel": 1,
				"type": "channel",
				"noteNumber": 37,
				"velocity": 102,
				"subtype": "noteOn"
			},
			{
				"deltaTime": 285,
				"channel": 1,
				"type": "channel",
				"subtype": "noteOff",
				"noteNumber": 37,
				"velocity": 64
			},
			{
				"deltaTime": 35,
				"channel": 1,
				"type": "channel",
				"noteNumber": 40,
				"velocity": 89,
				"subtype": "noteOn"
			},
			{
				"deltaTime": 160,
				"channel": 1,
				"type": "channel",
				"noteNumber": 33,
				"velocity": 107,
				"subtype": "noteOn"
			},
			{
				"deltaTime": 5,
				"channel": 1,
				"type": "channel",
				"subtype": "noteOff",
				"noteNumber": 40,
				"velocity": 64
			},
			{
				"deltaTime": 130,
				"channel": 1,
				"type": "channel",
				"subtype": "noteOff",
				"noteNumber": 33,
				"velocity": 64
			},
			{
				"deltaTime": 185,
				"channel": 1,
				"type": "channel",
				"noteNumber": 33,
				"velocity": 107,
				"subtype": "noteOn"
			},
			{
				"deltaTime": 150,
				"channel": 1,
				"type": "channel",
				"subtype": "noteOff",
				"noteNumber": 33,
				"velocity": 64
			},
			{
				"deltaTime": 10,
				"channel": 1,
				"type": "channel",
				"noteNumber": 31,
				"velocity": 98,
				"subtype": "noteOn"
			},
			{
				"deltaTime": 190,
				"channel": 1,
				"type": "channel",
				"subtype": "noteOff",
				"noteNumber": 31,
				"velocity": 64
			},
			{
				"deltaTime": 130,
				"channel": 1,
				"type": "channel",
				"noteNumber": 31,
				"velocity": 98,
				"subtype": "noteOn"
			},
			{
				"deltaTime": 160,
				"channel": 1,
				"type": "channel",
				"subtype": "noteOff",
				"noteNumber": 31,
				"velocity": 64
			},
			{
				"deltaTime": 0,
				"channel": 1,
				"type": "channel",
				"noteNumber": 30,
				"velocity": 98,
				"subtype": "noteOn"
			},
			{
				"deltaTime": 215,
				"channel": 1,
				"type": "channel",
				"subtype": "noteOff",
				"noteNumber": 30,
				"velocity": 64
			},
			{
				"deltaTime": 105,
				"channel": 1,
				"type": "channel",
				"noteNumber": 30,
				"velocity": 107,
				"subtype": "noteOn"
			},
			{
				"deltaTime": 155,
				"channel": 1,
				"type": "channel",
				"subtype": "noteOff",
				"noteNumber": 30,
				"velocity": 64
			},
			{
				"deltaTime": 5,
				"channel": 1,
				"type": "channel",
				"noteNumber": 29,
				"velocity": 80,
				"subtype": "noteOn"
			},
			{
				"deltaTime": 245,
				"channel": 1,
				"type": "channel",
				"subtype": "noteOff",
				"noteNumber": 29,
				"velocity": 64
			},
			{
				"deltaTime": 75,
				"channel": 1,
				"type": "channel",
				"noteNumber": 29,
				"velocity": 98,
				"subtype": "noteOn"
			},
			{
				"deltaTime": 145,
				"channel": 1,
				"type": "channel",
				"subtype": "noteOff",
				"noteNumber": 29,
				"velocity": 64
			},
			{
				"deltaTime": 15,
				"channel": 1,
				"type": "channel",
				"noteNumber": 28,
				"velocity": 107,
				"subtype": "noteOn"
			},
			{
				"deltaTime": 220,
				"channel": 1,
				"type": "channel",
				"subtype": "noteOff",
				"noteNumber": 28,
				"velocity": 64
			},
			{
				"deltaTime": 100,
				"channel": 1,
				"type": "channel",
				"noteNumber": 28,
				"velocity": 89,
				"subtype": "noteOn"
			},
			{
				"deltaTime": 105,
				"channel": 1,
				"type": "channel",
				"subtype": "noteOff",
				"noteNumber": 28,
				"velocity": 64
			},
			{
				"deltaTime": 55,
				"channel": 1,
				"type": "channel",
				"noteNumber": 28,
				"velocity": 107,
				"subtype": "noteOn"
			},
			{
				"deltaTime": 185,
				"channel": 1,
				"type": "channel",
				"subtype": "noteOff",
				"noteNumber": 28,
				"velocity": 64
			},
			{
				"deltaTime": 135,
				"channel": 1,
				"type": "channel",
				"noteNumber": 28,
				"velocity": 107,
				"subtype": "noteOn"
			},
			{
				"deltaTime": 85,
				"channel": 1,
				"type": "channel",
				"subtype": "noteOff",
				"noteNumber": 28,
				"velocity": 64
			},
			{
				"deltaTime": 75,
				"channel": 1,
				"type": "channel",
				"noteNumber": 28,
				"velocity": 89,
				"subtype": "noteOn"
			},
			{
				"deltaTime": 200,
				"channel": 1,
				"type": "channel",
				"subtype": "noteOff",
				"noteNumber": 28,
				"velocity": 64
			},
			{
				"deltaTime": 120,
				"channel": 1,
				"type": "channel",
				"noteNumber": 28,
				"velocity": 98,
				"subtype": "noteOn"
			},
			{
				"deltaTime": 100,
				"channel": 1,
				"type": "channel",
				"subtype": "noteOff",
				"noteNumber": 28,
				"velocity": 64
			},
			{
				"deltaTime": 60,
				"channel": 1,
				"type": "channel",
				"noteNumber": 28,
				"velocity": 89,
				"subtype": "noteOn"
			},
			{
				"deltaTime": 170,
				"channel": 1,
				"type": "channel",
				"subtype": "noteOff",
				"noteNumber": 28,
				"velocity": 64
			},
			{
				"deltaTime": 150,
				"channel": 1,
				"type": "channel",
				"noteNumber": 28,
				"velocity": 107,
				"subtype": "noteOn"
			},
			{
				"deltaTime": 155,
				"channel": 1,
				"type": "channel",
				"subtype": "noteOff",
				"noteNumber": 28,
				"velocity": 64
			},
			{
				"deltaTime": 5,
				"channel": 1,
				"type": "channel",
				"noteNumber": 33,
				"velocity": 107,
				"subtype": "noteOn"
			},
			{
				"deltaTime": 130,
				"channel": 1,
				"type": "channel",
				"subtype": "noteOff",
				"noteNumber": 33,
				"velocity": 64
			},
			{
				"deltaTime": 190,
				"channel": 1,
				"type": "channel",
				"noteNumber": 33,
				"velocity": 119,
				"subtype": "noteOn"
			},
			{
				"deltaTime": 85,
				"channel": 1,
				"type": "channel",
				"subtype": "noteOff",
				"noteNumber": 33,
				"velocity": 64
			},
			{
				"deltaTime": 75,
				"channel": 1,
				"type": "channel",
				"noteNumber": 33,
				"velocity": 113,
				"subtype": "noteOn"
			},
			{
				"deltaTime": 135,
				"channel": 1,
				"type": "channel",
				"subtype": "noteOff",
				"noteNumber": 33,
				"velocity": 64
			},
			{
				"deltaTime": 185,
				"channel": 1,
				"type": "channel",
				"noteNumber": 33,
				"velocity": 119,
				"subtype": "noteOn"
			},
			{
				"deltaTime": 90,
				"channel": 1,
				"type": "channel",
				"subtype": "noteOff",
				"noteNumber": 33,
				"velocity": 64
			},
			{
				"deltaTime": 70,
				"channel": 1,
				"type": "channel",
				"noteNumber": 33,
				"velocity": 102,
				"subtype": "noteOn"
			},
			{
				"deltaTime": 125,
				"channel": 1,
				"type": "channel",
				"subtype": "noteOff",
				"noteNumber": 33,
				"velocity": 64
			},
			{
				"deltaTime": 195,
				"channel": 1,
				"type": "channel",
				"noteNumber": 33,
				"velocity": 113,
				"subtype": "noteOn"
			},
			{
				"deltaTime": 85,
				"channel": 1,
				"type": "channel",
				"subtype": "noteOff",
				"noteNumber": 33,
				"velocity": 64
			},
			{
				"deltaTime": 75,
				"channel": 1,
				"type": "channel",
				"noteNumber": 33,
				"velocity": 107,
				"subtype": "noteOn"
			},
			{
				"deltaTime": 150,
				"channel": 1,
				"type": "channel",
				"subtype": "noteOff",
				"noteNumber": 33,
				"velocity": 64
			},
			{
				"deltaTime": 170,
				"channel": 1,
				"type": "channel",
				"noteNumber": 33,
				"velocity": 113,
				"subtype": "noteOn"
			},
			{
				"deltaTime": 145,
				"channel": 1,
				"type": "channel",
				"subtype": "noteOff",
				"noteNumber": 33,
				"velocity": 64
			},
			{
				"deltaTime": 15,
				"channel": 1,
				"type": "channel",
				"noteNumber": 28,
				"velocity": 107,
				"subtype": "noteOn"
			},
			{
				"deltaTime": 135,
				"channel": 1,
				"type": "channel",
				"subtype": "noteOff",
				"noteNumber": 28,
				"velocity": 64
			},
			{
				"deltaTime": 185,
				"channel": 1,
				"type": "channel",
				"noteNumber": 28,
				"velocity": 102,
				"subtype": "noteOn"
			},
			{
				"deltaTime": 90,
				"channel": 1,
				"type": "channel",
				"subtype": "noteOff",
				"noteNumber": 28,
				"velocity": 64
			},
			{
				"deltaTime": 70,
				"channel": 1,
				"type": "channel",
				"noteNumber": 28,
				"velocity": 102,
				"subtype": "noteOn"
			},
			{
				"deltaTime": 125,
				"channel": 1,
				"type": "channel",
				"subtype": "noteOff",
				"noteNumber": 28,
				"velocity": 64
			},
			{
				"deltaTime": 195,
				"channel": 1,
				"type": "channel",
				"noteNumber": 28,
				"velocity": 113,
				"subtype": "noteOn"
			},
			{
				"deltaTime": 80,
				"channel": 1,
				"type": "channel",
				"subtype": "noteOff",
				"noteNumber": 28,
				"velocity": 64
			},
			{
				"deltaTime": 80,
				"channel": 1,
				"type": "channel",
				"noteNumber": 28,
				"velocity": 98,
				"subtype": "noteOn"
			},
			{
				"deltaTime": 135,
				"channel": 1,
				"type": "channel",
				"subtype": "noteOff",
				"noteNumber": 28,
				"velocity": 64
			},
			{
				"deltaTime": 185,
				"channel": 1,
				"type": "channel",
				"noteNumber": 28,
				"velocity": 102,
				"subtype": "noteOn"
			},
			{
				"deltaTime": 80,
				"channel": 1,
				"type": "channel",
				"subtype": "noteOff",
				"noteNumber": 28,
				"velocity": 64
			},
			{
				"deltaTime": 80,
				"channel": 1,
				"type": "channel",
				"noteNumber": 28,
				"velocity": 107,
				"subtype": "noteOn"
			},
			{
				"deltaTime": 120,
				"channel": 1,
				"type": "channel",
				"subtype": "noteOff",
				"noteNumber": 28,
				"velocity": 64
			},
			{
				"deltaTime": 200,
				"channel": 1,
				"type": "channel",
				"noteNumber": 28,
				"velocity": 102,
				"subtype": "noteOn"
			},
			{
				"deltaTime": 140,
				"channel": 1,
				"type": "channel",
				"subtype": "noteOff",
				"noteNumber": 28,
				"velocity": 64
			},
			{
				"deltaTime": 20,
				"channel": 1,
				"type": "channel",
				"noteNumber": 26,
				"velocity": 102,
				"subtype": "noteOn"
			},
			{
				"deltaTime": 135,
				"channel": 1,
				"type": "channel",
				"subtype": "noteOff",
				"noteNumber": 26,
				"velocity": 64
			},
			{
				"deltaTime": 185,
				"channel": 1,
				"type": "channel",
				"noteNumber": 26,
				"velocity": 102,
				"subtype": "noteOn"
			},
			{
				"deltaTime": 90,
				"channel": 1,
				"type": "channel",
				"subtype": "noteOff",
				"noteNumber": 26,
				"velocity": 64
			},
			{
				"deltaTime": 70,
				"channel": 1,
				"type": "channel",
				"noteNumber": 26,
				"velocity": 98,
				"subtype": "noteOn"
			},
			{
				"deltaTime": 125,
				"channel": 1,
				"type": "channel",
				"subtype": "noteOff",
				"noteNumber": 26,
				"velocity": 64
			},
			{
				"deltaTime": 195,
				"channel": 1,
				"type": "channel",
				"noteNumber": 26,
				"velocity": 107,
				"subtype": "noteOn"
			},
			{
				"deltaTime": 95,
				"channel": 1,
				"type": "channel",
				"subtype": "noteOff",
				"noteNumber": 26,
				"velocity": 64
			},
			{
				"deltaTime": 65,
				"channel": 1,
				"type": "channel",
				"noteNumber": 26,
				"velocity": 93,
				"subtype": "noteOn"
			},
			{
				"deltaTime": 130,
				"channel": 1,
				"type": "channel",
				"subtype": "noteOff",
				"noteNumber": 26,
				"velocity": 64
			},
			{
				"deltaTime": 190,
				"channel": 1,
				"type": "channel",
				"noteNumber": 26,
				"velocity": 102,
				"subtype": "noteOn"
			},
			{
				"deltaTime": 90,
				"channel": 1,
				"type": "channel",
				"subtype": "noteOff",
				"noteNumber": 26,
				"velocity": 64
			},
			{
				"deltaTime": 70,
				"channel": 1,
				"type": "channel",
				"noteNumber": 26,
				"velocity": 98,
				"subtype": "noteOn"
			},
			{
				"deltaTime": 135,
				"channel": 1,
				"type": "channel",
				"subtype": "noteOff",
				"noteNumber": 26,
				"velocity": 64
			},
			{
				"deltaTime": 185,
				"channel": 1,
				"type": "channel",
				"noteNumber": 26,
				"velocity": 107,
				"subtype": "noteOn"
			},
			{
				"deltaTime": 85,
				"channel": 1,
				"type": "channel",
				"subtype": "noteOff",
				"noteNumber": 26,
				"velocity": 64
			},
			{
				"deltaTime": 75,
				"channel": 1,
				"type": "channel",
				"noteNumber": 26,
				"velocity": 107,
				"subtype": "noteOn"
			},
			{
				"deltaTime": 130,
				"channel": 1,
				"type": "channel",
				"subtype": "noteOff",
				"noteNumber": 26,
				"velocity": 64
			},
			{
				"deltaTime": 190,
				"channel": 1,
				"type": "channel",
				"noteNumber": 26,
				"velocity": 107,
				"subtype": "noteOn"
			},
			{
				"deltaTime": 95,
				"channel": 1,
				"type": "channel",
				"subtype": "noteOff",
				"noteNumber": 26,
				"velocity": 64
			},
			{
				"deltaTime": 65,
				"channel": 1,
				"type": "channel",
				"noteNumber": 26,
				"velocity": 107,
				"subtype": "noteOn"
			},
			{
				"deltaTime": 135,
				"channel": 1,
				"type": "channel",
				"subtype": "noteOff",
				"noteNumber": 26,
				"velocity": 64
			},
			{
				"deltaTime": 185,
				"channel": 1,
				"type": "channel",
				"noteNumber": 26,
				"velocity": 93,
				"subtype": "noteOn"
			},
			{
				"deltaTime": 95,
				"channel": 1,
				"type": "channel",
				"subtype": "noteOff",
				"noteNumber": 26,
				"velocity": 64
			},
			{
				"deltaTime": 65,
				"channel": 1,
				"type": "channel",
				"noteNumber": 26,
				"velocity": 102,
				"subtype": "noteOn"
			},
			{
				"deltaTime": 140,
				"channel": 1,
				"type": "channel",
				"subtype": "noteOff",
				"noteNumber": 26,
				"velocity": 64
			},
			{
				"deltaTime": 180,
				"channel": 1,
				"type": "channel",
				"noteNumber": 26,
				"velocity": 89,
				"subtype": "noteOn"
			},
			{
				"deltaTime": 90,
				"channel": 1,
				"type": "channel",
				"subtype": "noteOff",
				"noteNumber": 26,
				"velocity": 64
			},
			{
				"deltaTime": 70,
				"channel": 1,
				"type": "channel",
				"noteNumber": 26,
				"velocity": 93,
				"subtype": "noteOn"
			},
			{
				"deltaTime": 140,
				"channel": 1,
				"type": "channel",
				"subtype": "noteOff",
				"noteNumber": 26,
				"velocity": 64
			},
			{
				"deltaTime": 180,
				"channel": 1,
				"type": "channel",
				"noteNumber": 26,
				"velocity": 98,
				"subtype": "noteOn"
			},
			{
				"deltaTime": 160,
				"channel": 1,
				"type": "channel",
				"noteNumber": 33,
				"velocity": 98,
				"subtype": "noteOn"
			},
			{
				"deltaTime": 55,
				"channel": 1,
				"type": "channel",
				"subtype": "noteOff",
				"noteNumber": 26,
				"velocity": 64
			},
			{
				"deltaTime": 115,
				"channel": 1,
				"type": "channel",
				"subtype": "noteOff",
				"noteNumber": 33,
				"velocity": 64
			},
			{
				"deltaTime": 150,
				"channel": 1,
				"type": "channel",
				"noteNumber": 33,
				"velocity": 113,
				"subtype": "noteOn"
			},
			{
				"deltaTime": 100,
				"channel": 1,
				"type": "channel",
				"subtype": "noteOff",
				"noteNumber": 33,
				"velocity": 64
			},
			{
				"deltaTime": 60,
				"channel": 1,
				"type": "channel",
				"noteNumber": 33,
				"velocity": 102,
				"subtype": "noteOn"
			},
			{
				"deltaTime": 155,
				"channel": 1,
				"type": "channel",
				"subtype": "noteOff",
				"noteNumber": 33,
				"velocity": 64
			},
			{
				"deltaTime": 165,
				"channel": 1,
				"type": "channel",
				"noteNumber": 33,
				"velocity": 107,
				"subtype": "noteOn"
			},
			{
				"deltaTime": 85,
				"channel": 1,
				"type": "channel",
				"subtype": "noteOff",
				"noteNumber": 33,
				"velocity": 64
			},
			{
				"deltaTime": 75,
				"channel": 1,
				"type": "channel",
				"noteNumber": 33,
				"velocity": 98,
				"subtype": "noteOn"
			},
			{
				"deltaTime": 145,
				"channel": 1,
				"type": "channel",
				"subtype": "noteOff",
				"noteNumber": 33,
				"velocity": 64
			},
			{
				"deltaTime": 175,
				"channel": 1,
				"type": "channel",
				"noteNumber": 33,
				"velocity": 107,
				"subtype": "noteOn"
			},
			{
				"deltaTime": 85,
				"channel": 1,
				"type": "channel",
				"subtype": "noteOff",
				"noteNumber": 33,
				"velocity": 64
			},
			{
				"deltaTime": 75,
				"channel": 1,
				"type": "channel",
				"noteNumber": 33,
				"velocity": 107,
				"subtype": "noteOn"
			},
			{
				"deltaTime": 120,
				"channel": 1,
				"type": "channel",
				"subtype": "noteOff",
				"noteNumber": 33,
				"velocity": 64
			},
			{
				"deltaTime": 200,
				"channel": 1,
				"type": "channel",
				"noteNumber": 33,
				"velocity": 107,
				"subtype": "noteOn"
			},
			{
				"deltaTime": 130,
				"channel": 1,
				"type": "channel",
				"subtype": "noteOff",
				"noteNumber": 33,
				"velocity": 64
			},
			{
				"deltaTime": 30,
				"channel": 1,
				"type": "channel",
				"noteNumber": 28,
				"velocity": 107,
				"subtype": "noteOn"
			},
			{
				"deltaTime": 145,
				"channel": 1,
				"type": "channel",
				"subtype": "noteOff",
				"noteNumber": 28,
				"velocity": 64
			},
			{
				"deltaTime": 175,
				"channel": 1,
				"type": "channel",
				"noteNumber": 28,
				"velocity": 107,
				"subtype": "noteOn"
			},
			{
				"deltaTime": 80,
				"channel": 1,
				"type": "channel",
				"subtype": "noteOff",
				"noteNumber": 28,
				"velocity": 64
			},
			{
				"deltaTime": 80,
				"channel": 1,
				"type": "channel",
				"noteNumber": 28,
				"velocity": 113,
				"subtype": "noteOn"
			},
			{
				"deltaTime": 125,
				"channel": 1,
				"type": "channel",
				"subtype": "noteOff",
				"noteNumber": 28,
				"velocity": 64
			},
			{
				"deltaTime": 195,
				"channel": 1,
				"type": "channel",
				"noteNumber": 28,
				"velocity": 113,
				"subtype": "noteOn"
			},
			{
				"deltaTime": 90,
				"channel": 1,
				"type": "channel",
				"subtype": "noteOff",
				"noteNumber": 28,
				"velocity": 64
			},
			{
				"deltaTime": 70,
				"channel": 1,
				"type": "channel",
				"noteNumber": 28,
				"velocity": 89,
				"subtype": "noteOn"
			},
			{
				"deltaTime": 125,
				"channel": 1,
				"type": "channel",
				"subtype": "noteOff",
				"noteNumber": 28,
				"velocity": 64
			},
			{
				"deltaTime": 195,
				"channel": 1,
				"type": "channel",
				"noteNumber": 28,
				"velocity": 107,
				"subtype": "noteOn"
			},
			{
				"deltaTime": 90,
				"channel": 1,
				"type": "channel",
				"subtype": "noteOff",
				"noteNumber": 28,
				"velocity": 64
			},
			{
				"deltaTime": 70,
				"channel": 1,
				"type": "channel",
				"noteNumber": 28,
				"velocity": 107,
				"subtype": "noteOn"
			},
			{
				"deltaTime": 125,
				"channel": 1,
				"type": "channel",
				"subtype": "noteOff",
				"noteNumber": 28,
				"velocity": 64
			},
			{
				"deltaTime": 195,
				"channel": 1,
				"type": "channel",
				"noteNumber": 28,
				"velocity": 107,
				"subtype": "noteOn"
			},
			{
				"deltaTime": 130,
				"channel": 1,
				"type": "channel",
				"subtype": "noteOff",
				"noteNumber": 28,
				"velocity": 64
			},
			{
				"deltaTime": 30,
				"channel": 1,
				"type": "channel",
				"noteNumber": 33,
				"velocity": 113,
				"subtype": "noteOn"
			},
			{
				"deltaTime": 190,
				"channel": 1,
				"type": "channel",
				"subtype": "noteOff",
				"noteNumber": 33,
				"velocity": 64
			},
			{
				"deltaTime": 130,
				"channel": 1,
				"type": "channel",
				"noteNumber": 33,
				"velocity": 113,
				"subtype": "noteOn"
			},
			{
				"deltaTime": 140,
				"channel": 1,
				"type": "channel",
				"subtype": "noteOff",
				"noteNumber": 33,
				"velocity": 64
			},
			{
				"deltaTime": 20,
				"channel": 1,
				"type": "channel",
				"noteNumber": 31,
				"velocity": 113,
				"subtype": "noteOn"
			},
			{
				"deltaTime": 215,
				"channel": 1,
				"type": "channel",
				"subtype": "noteOff",
				"noteNumber": 31,
				"velocity": 64
			},
			{
				"deltaTime": 105,
				"channel": 1,
				"type": "channel",
				"noteNumber": 31,
				"velocity": 102,
				"subtype": "noteOn"
			},
			{
				"deltaTime": 160,
				"channel": 1,
				"type": "channel",
				"noteNumber": 30,
				"velocity": 98,
				"subtype": "noteOn"
			},
			{
				"deltaTime": 15,
				"channel": 1,
				"type": "channel",
				"subtype": "noteOff",
				"noteNumber": 31,
				"velocity": 64
			},
			{
				"deltaTime": 230,
				"channel": 1,
				"type": "channel",
				"subtype": "noteOff",
				"noteNumber": 30,
				"velocity": 64
			},
			{
				"deltaTime": 75,
				"channel": 1,
				"type": "channel",
				"noteNumber": 30,
				"velocity": 107,
				"subtype": "noteOn"
			},
			{
				"deltaTime": 130,
				"channel": 1,
				"type": "channel",
				"subtype": "noteOff",
				"noteNumber": 30,
				"velocity": 64
			},
			{
				"deltaTime": 30,
				"channel": 1,
				"type": "channel",
				"noteNumber": 29,
				"velocity": 93,
				"subtype": "noteOn"
			},
			{
				"deltaTime": 240,
				"channel": 1,
				"type": "channel",
				"subtype": "noteOff",
				"noteNumber": 29,
				"velocity": 64
			},
			{
				"deltaTime": 80,
				"channel": 1,
				"type": "channel",
				"noteNumber": 29,
				"velocity": 98,
				"subtype": "noteOn"
			},
			{
				"deltaTime": 130,
				"channel": 1,
				"type": "channel",
				"subtype": "noteOff",
				"noteNumber": 29,
				"velocity": 64
			},
			{
				"deltaTime": 30,
				"channel": 1,
				"type": "channel",
				"noteNumber": 28,
				"velocity": 102,
				"subtype": "noteOn"
			},
			{
				"deltaTime": 215,
				"channel": 1,
				"type": "channel",
				"subtype": "noteOff",
				"noteNumber": 28,
				"velocity": 64
			},
			{
				"deltaTime": 105,
				"channel": 1,
				"type": "channel",
				"noteNumber": 28,
				"velocity": 93,
				"subtype": "noteOn"
			},
			{
				"deltaTime": 80,
				"channel": 1,
				"type": "channel",
				"subtype": "noteOff",
				"noteNumber": 28,
				"velocity": 64
			},
			{
				"deltaTime": 80,
				"channel": 1,
				"type": "channel",
				"noteNumber": 28,
				"velocity": 107,
				"subtype": "noteOn"
			},
			{
				"deltaTime": 145,
				"channel": 1,
				"type": "channel",
				"subtype": "noteOff",
				"noteNumber": 28,
				"velocity": 64
			},
			{
				"deltaTime": 175,
				"channel": 1,
				"type": "channel",
				"noteNumber": 28,
				"velocity": 107,
				"subtype": "noteOn"
			},
			{
				"deltaTime": 90,
				"channel": 1,
				"type": "channel",
				"subtype": "noteOff",
				"noteNumber": 28,
				"velocity": 64
			},
			{
				"deltaTime": 70,
				"channel": 1,
				"type": "channel",
				"noteNumber": 28,
				"velocity": 93,
				"subtype": "noteOn"
			},
			{
				"deltaTime": 165,
				"channel": 1,
				"type": "channel",
				"subtype": "noteOff",
				"noteNumber": 28,
				"velocity": 64
			},
			{
				"deltaTime": 155,
				"channel": 1,
				"type": "channel",
				"noteNumber": 28,
				"velocity": 102,
				"subtype": "noteOn"
			},
			{
				"deltaTime": 105,
				"channel": 1,
				"type": "channel",
				"subtype": "noteOff",
				"noteNumber": 28,
				"velocity": 64
			},
			{
				"deltaTime": 55,
				"channel": 1,
				"type": "channel",
				"noteNumber": 28,
				"velocity": 107,
				"subtype": "noteOn"
			},
			{
				"deltaTime": 225,
				"channel": 1,
				"type": "channel",
				"subtype": "noteOff",
				"noteNumber": 28,
				"velocity": 64
			},
			{
				"deltaTime": 95,
				"channel": 1,
				"type": "channel",
				"noteNumber": 28,
				"velocity": 93,
				"subtype": "noteOn"
			},
			{
				"deltaTime": 160,
				"channel": 1,
				"type": "channel",
				"noteNumber": 33,
				"velocity": 107,
				"subtype": "noteOn"
			},
			{
				"deltaTime": 30,
				"channel": 1,
				"type": "channel",
				"subtype": "noteOff",
				"noteNumber": 28,
				"velocity": 64
			},
			{
				"deltaTime": 120,
				"channel": 1,
				"type": "channel",
				"subtype": "noteOff",
				"noteNumber": 33,
				"velocity": 64
			},
			{
				"deltaTime": 170,
				"channel": 1,
				"type": "channel",
				"noteNumber": 33,
				"velocity": 102,
				"subtype": "noteOn"
			},
			{
				"deltaTime": 100,
				"channel": 1,
				"type": "channel",
				"subtype": "noteOff",
				"noteNumber": 33,
				"velocity": 64
			},
			{
				"deltaTime": 60,
				"channel": 1,
				"type": "channel",
				"noteNumber": 33,
				"velocity": 93,
				"subtype": "noteOn"
			},
			{
				"deltaTime": 125,
				"channel": 1,
				"type": "channel",
				"subtype": "noteOff",
				"noteNumber": 33,
				"velocity": 64
			},
			{
				"deltaTime": 195,
				"channel": 1,
				"type": "channel",
				"noteNumber": 33,
				"velocity": 102,
				"subtype": "noteOn"
			},
			{
				"deltaTime": 100,
				"channel": 1,
				"type": "channel",
				"subtype": "noteOff",
				"noteNumber": 33,
				"velocity": 64
			},
			{
				"deltaTime": 60,
				"channel": 1,
				"type": "channel",
				"noteNumber": 33,
				"velocity": 93,
				"subtype": "noteOn"
			},
			{
				"deltaTime": 145,
				"channel": 1,
				"type": "channel",
				"subtype": "noteOff",
				"noteNumber": 33,
				"velocity": 64
			},
			{
				"deltaTime": 175,
				"channel": 1,
				"type": "channel",
				"noteNumber": 33,
				"velocity": 107,
				"subtype": "noteOn"
			},
			{
				"deltaTime": 90,
				"channel": 1,
				"type": "channel",
				"subtype": "noteOff",
				"noteNumber": 33,
				"velocity": 64
			},
			{
				"deltaTime": 70,
				"channel": 1,
				"type": "channel",
				"noteNumber": 33,
				"velocity": 93,
				"subtype": "noteOn"
			},
			{
				"deltaTime": 140,
				"channel": 1,
				"type": "channel",
				"subtype": "noteOff",
				"noteNumber": 33,
				"velocity": 64
			},
			{
				"deltaTime": 180,
				"channel": 1,
				"type": "channel",
				"noteNumber": 33,
				"velocity": 107,
				"subtype": "noteOn"
			},
			{
				"deltaTime": 145,
				"channel": 1,
				"type": "channel",
				"subtype": "noteOff",
				"noteNumber": 33,
				"velocity": 64
			},
			{
				"deltaTime": 15,
				"channel": 1,
				"type": "channel",
				"noteNumber": 28,
				"velocity": 102,
				"subtype": "noteOn"
			},
			{
				"deltaTime": 160,
				"channel": 1,
				"type": "channel",
				"subtype": "noteOff",
				"noteNumber": 28,
				"velocity": 64
			},
			{
				"deltaTime": 160,
				"channel": 1,
				"type": "channel",
				"noteNumber": 28,
				"velocity": 98,
				"subtype": "noteOn"
			},
			{
				"deltaTime": 95,
				"channel": 1,
				"type": "channel",
				"subtype": "noteOff",
				"noteNumber": 28,
				"velocity": 64
			},
			{
				"deltaTime": 65,
				"channel": 1,
				"type": "channel",
				"noteNumber": 28,
				"velocity": 102,
				"subtype": "noteOn"
			},
			{
				"deltaTime": 135,
				"channel": 1,
				"type": "channel",
				"subtype": "noteOff",
				"noteNumber": 28,
				"velocity": 64
			},
			{
				"deltaTime": 185,
				"channel": 1,
				"type": "channel",
				"noteNumber": 28,
				"velocity": 93,
				"subtype": "noteOn"
			},
			{
				"deltaTime": 90,
				"channel": 1,
				"type": "channel",
				"subtype": "noteOff",
				"noteNumber": 28,
				"velocity": 64
			},
			{
				"deltaTime": 70,
				"channel": 1,
				"type": "channel",
				"noteNumber": 28,
				"velocity": 93,
				"subtype": "noteOn"
			},
			{
				"deltaTime": 110,
				"channel": 1,
				"type": "channel",
				"subtype": "noteOff",
				"noteNumber": 28,
				"velocity": 64
			},
			{
				"deltaTime": 210,
				"channel": 1,
				"type": "channel",
				"noteNumber": 28,
				"velocity": 93,
				"subtype": "noteOn"
			},
			{
				"deltaTime": 130,
				"channel": 1,
				"type": "channel",
				"subtype": "noteOff",
				"noteNumber": 28,
				"velocity": 64
			},
			{
				"deltaTime": 30,
				"channel": 1,
				"type": "channel",
				"noteNumber": 32,
				"velocity": 89,
				"subtype": "noteOn"
			},
			{
				"deltaTime": 305,
				"channel": 1,
				"type": "channel",
				"subtype": "noteOff",
				"noteNumber": 32,
				"velocity": 64
			},
			{
				"deltaTime": 15,
				"channel": 1,
				"type": "channel",
				"noteNumber": 35,
				"velocity": 89,
				"subtype": "noteOn"
			},
			{
				"deltaTime": 145,
				"channel": 1,
				"type": "channel",
				"subtype": "noteOff",
				"noteNumber": 35,
				"velocity": 64
			},
			{
				"deltaTime": 15,
				"channel": 1,
				"type": "channel",
				"noteNumber": 38,
				"velocity": 98,
				"subtype": "noteOn"
			},
			{
				"deltaTime": 185,
				"channel": 1,
				"type": "channel",
				"subtype": "noteOff",
				"noteNumber": 38,
				"velocity": 64
			},
			{
				"deltaTime": 135,
				"channel": 1,
				"type": "channel",
				"noteNumber": 38,
				"velocity": 98,
				"subtype": "noteOn"
			},
			{
				"deltaTime": 105,
				"channel": 1,
				"type": "channel",
				"subtype": "noteOff",
				"noteNumber": 38,
				"velocity": 64
			},
			{
				"deltaTime": 55,
				"channel": 1,
				"type": "channel",
				"noteNumber": 38,
				"velocity": 89,
				"subtype": "noteOn"
			},
			{
				"deltaTime": 120,
				"channel": 1,
				"type": "channel",
				"subtype": "noteOff",
				"noteNumber": 38,
				"velocity": 64
			},
			{
				"deltaTime": 200,
				"channel": 1,
				"type": "channel",
				"noteNumber": 38,
				"velocity": 93,
				"subtype": "noteOn"
			},
			{
				"deltaTime": 90,
				"channel": 1,
				"type": "channel",
				"subtype": "noteOff",
				"noteNumber": 38,
				"velocity": 64
			},
			{
				"deltaTime": 70,
				"channel": 1,
				"type": "channel",
				"noteNumber": 38,
				"velocity": 93,
				"subtype": "noteOn"
			},
			{
				"deltaTime": 140,
				"channel": 1,
				"type": "channel",
				"subtype": "noteOff",
				"noteNumber": 38,
				"velocity": 64
			},
			{
				"deltaTime": 180,
				"channel": 1,
				"type": "channel",
				"noteNumber": 38,
				"velocity": 98,
				"subtype": "noteOn"
			},
			{
				"deltaTime": 100,
				"channel": 1,
				"type": "channel",
				"subtype": "noteOff",
				"noteNumber": 38,
				"velocity": 64
			},
			{
				"deltaTime": 60,
				"channel": 1,
				"type": "channel",
				"noteNumber": 38,
				"velocity": 93,
				"subtype": "noteOn"
			},
			{
				"deltaTime": 175,
				"channel": 1,
				"type": "channel",
				"subtype": "noteOff",
				"noteNumber": 38,
				"velocity": 64
			},
			{
				"deltaTime": 145,
				"channel": 1,
				"type": "channel",
				"noteNumber": 38,
				"velocity": 102,
				"subtype": "noteOn"
			},
			{
				"deltaTime": 105,
				"channel": 1,
				"type": "channel",
				"subtype": "noteOff",
				"noteNumber": 38,
				"velocity": 64
			},
			{
				"deltaTime": 55,
				"channel": 1,
				"type": "channel",
				"noteNumber": 38,
				"velocity": 98,
				"subtype": "noteOn"
			},
			{
				"deltaTime": 150,
				"channel": 1,
				"type": "channel",
				"subtype": "noteOff",
				"noteNumber": 38,
				"velocity": 64
			},
			{
				"deltaTime": 170,
				"channel": 1,
				"type": "channel",
				"noteNumber": 38,
				"velocity": 107,
				"subtype": "noteOn"
			},
			{
				"deltaTime": 140,
				"channel": 1,
				"type": "channel",
				"subtype": "noteOff",
				"noteNumber": 38,
				"velocity": 64
			},
			{
				"deltaTime": 20,
				"channel": 1,
				"type": "channel",
				"noteNumber": 30,
				"velocity": 102,
				"subtype": "noteOn"
			},
			{
				"deltaTime": 160,
				"channel": 1,
				"type": "channel",
				"subtype": "noteOff",
				"noteNumber": 30,
				"velocity": 64
			},
			{
				"deltaTime": 160,
				"channel": 1,
				"type": "channel",
				"noteNumber": 30,
				"velocity": 93,
				"subtype": "noteOn"
			},
			{
				"deltaTime": 130,
				"channel": 1,
				"type": "channel",
				"subtype": "noteOff",
				"noteNumber": 30,
				"velocity": 64
			},
			{
				"deltaTime": 30,
				"channel": 1,
				"type": "channel",
				"noteNumber": 31,
				"velocity": 80,
				"subtype": "noteOn"
			},
			{
				"deltaTime": 175,
				"channel": 1,
				"type": "channel",
				"subtype": "noteOff",
				"noteNumber": 31,
				"velocity": 64
			},
			{
				"deltaTime": 145,
				"channel": 1,
				"type": "channel",
				"noteNumber": 31,
				"velocity": 113,
				"subtype": "noteOn"
			},
			{
				"deltaTime": 155,
				"channel": 1,
				"type": "channel",
				"subtype": "noteOff",
				"noteNumber": 31,
				"velocity": 64
			},
			{
				"deltaTime": 5,
				"channel": 1,
				"type": "channel",
				"noteNumber": 32,
				"velocity": 102,
				"subtype": "noteOn"
			},
			{
				"deltaTime": 145,
				"channel": 1,
				"type": "channel",
				"subtype": "noteOff",
				"noteNumber": 32,
				"velocity": 64
			},
			{
				"deltaTime": 175,
				"channel": 1,
				"type": "channel",
				"noteNumber": 32,
				"velocity": 113,
				"subtype": "noteOn"
			},
			{
				"deltaTime": 140,
				"channel": 1,
				"type": "channel",
				"subtype": "noteOff",
				"noteNumber": 32,
				"velocity": 64
			},
			{
				"deltaTime": 20,
				"channel": 1,
				"type": "channel",
				"noteNumber": 33,
				"velocity": 107,
				"subtype": "noteOn"
			},
			{
				"deltaTime": 185,
				"channel": 1,
				"type": "channel",
				"subtype": "noteOff",
				"noteNumber": 33,
				"velocity": 64
			},
			{
				"deltaTime": 135,
				"channel": 1,
				"type": "channel",
				"noteNumber": 33,
				"velocity": 113,
				"subtype": "noteOn"
			},
			{
				"deltaTime": 110,
				"channel": 1,
				"type": "channel",
				"subtype": "noteOff",
				"noteNumber": 33,
				"velocity": 64
			},
			{
				"deltaTime": 50,
				"channel": 1,
				"type": "channel",
				"noteNumber": 33,
				"velocity": 102,
				"subtype": "noteOn"
			},
			{
				"deltaTime": 150,
				"channel": 1,
				"type": "channel",
				"subtype": "noteOff",
				"noteNumber": 33,
				"velocity": 64
			},
			{
				"deltaTime": 170,
				"channel": 1,
				"type": "channel",
				"noteNumber": 33,
				"velocity": 113,
				"subtype": "noteOn"
			},
			{
				"deltaTime": 105,
				"channel": 1,
				"type": "channel",
				"subtype": "noteOff",
				"noteNumber": 33,
				"velocity": 64
			},
			{
				"deltaTime": 55,
				"channel": 1,
				"type": "channel",
				"noteNumber": 33,
				"velocity": 93,
				"subtype": "noteOn"
			},
			{
				"deltaTime": 165,
				"channel": 1,
				"type": "channel",
				"subtype": "noteOff",
				"noteNumber": 33,
				"velocity": 64
			},
			{
				"deltaTime": 155,
				"channel": 1,
				"type": "channel",
				"noteNumber": 33,
				"velocity": 113,
				"subtype": "noteOn"
			},
			{
				"deltaTime": 90,
				"channel": 1,
				"type": "channel",
				"subtype": "noteOff",
				"noteNumber": 33,
				"velocity": 64
			},
			{
				"deltaTime": 70,
				"channel": 1,
				"type": "channel",
				"noteNumber": 33,
				"velocity": 89,
				"subtype": "noteOn"
			},
			{
				"deltaTime": 165,
				"channel": 1,
				"type": "channel",
				"subtype": "noteOff",
				"noteNumber": 33,
				"velocity": 64
			},
			{
				"deltaTime": 155,
				"channel": 1,
				"type": "channel",
				"noteNumber": 33,
				"velocity": 113,
				"subtype": "noteOn"
			},
			{
				"deltaTime": 155,
				"channel": 1,
				"type": "channel",
				"subtype": "noteOff",
				"noteNumber": 33,
				"velocity": 64
			},
			{
				"deltaTime": 5,
				"channel": 1,
				"type": "channel",
				"noteNumber": 28,
				"velocity": 98,
				"subtype": "noteOn"
			},
			{
				"deltaTime": 195,
				"channel": 1,
				"type": "channel",
				"subtype": "noteOff",
				"noteNumber": 28,
				"velocity": 64
			},
			{
				"deltaTime": 125,
				"channel": 1,
				"type": "channel",
				"noteNumber": 28,
				"velocity": 93,
				"subtype": "noteOn"
			},
			{
				"deltaTime": 100,
				"channel": 1,
				"type": "channel",
				"subtype": "noteOff",
				"noteNumber": 28,
				"velocity": 64
			},
			{
				"deltaTime": 60,
				"channel": 1,
				"type": "channel",
				"noteNumber": 28,
				"velocity": 89,
				"subtype": "noteOn"
			},
			{
				"deltaTime": 140,
				"channel": 1,
				"type": "channel",
				"subtype": "noteOff",
				"noteNumber": 28,
				"velocity": 64
			},
			{
				"deltaTime": 180,
				"channel": 1,
				"type": "channel",
				"noteNumber": 28,
				"velocity": 89,
				"subtype": "noteOn"
			},
			{
				"deltaTime": 85,
				"channel": 1,
				"type": "channel",
				"subtype": "noteOff",
				"noteNumber": 28,
				"velocity": 64
			},
			{
				"deltaTime": 75,
				"channel": 1,
				"type": "channel",
				"noteNumber": 28,
				"velocity": 89,
				"subtype": "noteOn"
			},
			{
				"deltaTime": 115,
				"channel": 1,
				"type": "channel",
				"subtype": "noteOff",
				"noteNumber": 28,
				"velocity": 64
			},
			{
				"deltaTime": 205,
				"channel": 1,
				"type": "channel",
				"noteNumber": 28,
				"velocity": 93,
				"subtype": "noteOn"
			},
			{
				"deltaTime": 90,
				"channel": 1,
				"type": "channel",
				"subtype": "noteOff",
				"noteNumber": 28,
				"velocity": 64
			},
			{
				"deltaTime": 70,
				"channel": 1,
				"type": "channel",
				"noteNumber": 28,
				"velocity": 85,
				"subtype": "noteOn"
			},
			{
				"deltaTime": 110,
				"channel": 1,
				"type": "channel",
				"subtype": "noteOff",
				"noteNumber": 28,
				"velocity": 64
			},
			{
				"deltaTime": 210,
				"channel": 1,
				"type": "channel",
				"noteNumber": 28,
				"velocity": 93,
				"subtype": "noteOn"
			},
			{
				"deltaTime": 160,
				"channel": 1,
				"type": "channel",
				"noteNumber": 33,
				"velocity": 107,
				"subtype": "noteOn"
			},
			{
				"deltaTime": 10,
				"channel": 1,
				"type": "channel",
				"subtype": "noteOff",
				"noteNumber": 28,
				"velocity": 64
			},
			{
				"deltaTime": 425,
				"channel": 1,
				"type": "channel",
				"subtype": "noteOff",
				"noteNumber": 33,
				"velocity": 64
			},
			{
				"deltaTime": 45,
				"channel": 1,
				"type": "channel",
				"noteNumber": 31,
				"velocity": 102,
				"subtype": "noteOn"
			},
			{
				"deltaTime": 450,
				"channel": 1,
				"type": "channel",
				"subtype": "noteOff",
				"noteNumber": 31,
				"velocity": 64
			},
			{
				"deltaTime": 30,
				"channel": 1,
				"type": "channel",
				"noteNumber": 30,
				"velocity": 85,
				"subtype": "noteOn"
			},
			{
				"deltaTime": 470,
				"channel": 1,
				"type": "channel",
				"subtype": "noteOff",
				"noteNumber": 30,
				"velocity": 64
			},
			{
				"deltaTime": 10,
				"channel": 1,
				"type": "channel",
				"noteNumber": 29,
				"velocity": 98,
				"subtype": "noteOn"
			},
			{
				"deltaTime": 430,
				"channel": 1,
				"type": "channel",
				"subtype": "noteOff",
				"noteNumber": 29,
				"velocity": 64
			},
			{
				"deltaTime": 50,
				"channel": 1,
				"type": "channel",
				"noteNumber": 28,
				"velocity": 98,
				"subtype": "noteOn"
			},
			{
				"deltaTime": 410,
				"channel": 1,
				"type": "channel",
				"subtype": "noteOff",
				"noteNumber": 28,
				"velocity": 64
			},
			{
				"deltaTime": 70,
				"channel": 1,
				"type": "channel",
				"noteNumber": 28,
				"velocity": 102,
				"subtype": "noteOn"
			},
			{
				"deltaTime": 105,
				"channel": 1,
				"type": "channel",
				"subtype": "noteOff",
				"noteNumber": 28,
				"velocity": 64
			},
			{
				"deltaTime": 215,
				"channel": 1,
				"type": "channel",
				"noteNumber": 28,
				"velocity": 107,
				"subtype": "noteOn"
			},
			{
				"deltaTime": 335,
				"channel": 1,
				"type": "channel",
				"subtype": "noteOff",
				"noteNumber": 28,
				"velocity": 64
			},
			{
				"deltaTime": 145,
				"channel": 1,
				"type": "channel",
				"noteNumber": 28,
				"velocity": 93,
				"subtype": "noteOn"
			},
			{
				"deltaTime": 75,
				"channel": 1,
				"type": "channel",
				"subtype": "noteOff",
				"noteNumber": 28,
				"velocity": 64
			},
			{
				"deltaTime": 85,
				"channel": 1,
				"type": "channel",
				"noteNumber": 28,
				"velocity": 93,
				"subtype": "noteOn"
			},
			{
				"deltaTime": 320,
				"channel": 1,
				"type": "channel",
				"subtype": "noteOff",
				"noteNumber": 28,
				"velocity": 64
			},
			{
				"deltaTime": 0,
				"channel": 1,
				"type": "channel",
				"noteNumber": 30,
				"velocity": 93,
				"subtype": "noteOn"
			},
			{
				"deltaTime": 160,
				"channel": 1,
				"type": "channel",
				"noteNumber": 33,
				"velocity": 113,
				"subtype": "noteOn"
			},
			{
				"deltaTime": 5,
				"channel": 1,
				"type": "channel",
				"subtype": "noteOff",
				"noteNumber": 30,
				"velocity": 64
			},
			{
				"deltaTime": 100,
				"channel": 1,
				"type": "channel",
				"subtype": "noteOff",
				"noteNumber": 33,
				"velocity": 64
			},
			{
				"deltaTime": 215,
				"channel": 1,
				"type": "channel",
				"noteNumber": 33,
				"velocity": 85,
				"subtype": "noteOn"
			},
			{
				"deltaTime": 85,
				"channel": 1,
				"type": "channel",
				"subtype": "noteOff",
				"noteNumber": 33,
				"velocity": 64
			},
			{
				"deltaTime": 75,
				"channel": 1,
				"type": "channel",
				"noteNumber": 33,
				"velocity": 98,
				"subtype": "noteOn"
			},
			{
				"deltaTime": 135,
				"channel": 1,
				"type": "channel",
				"subtype": "noteOff",
				"noteNumber": 33,
				"velocity": 64
			},
			{
				"deltaTime": 185,
				"channel": 1,
				"type": "channel",
				"noteNumber": 33,
				"velocity": 93,
				"subtype": "noteOn"
			},
			{
				"deltaTime": 80,
				"channel": 1,
				"type": "channel",
				"subtype": "noteOff",
				"noteNumber": 33,
				"velocity": 64
			},
			{
				"deltaTime": 80,
				"channel": 1,
				"type": "channel",
				"noteNumber": 33,
				"velocity": 98,
				"subtype": "noteOn"
			},
			{
				"deltaTime": 110,
				"channel": 1,
				"type": "channel",
				"subtype": "noteOff",
				"noteNumber": 33,
				"velocity": 64
			},
			{
				"deltaTime": 210,
				"channel": 1,
				"type": "channel",
				"noteNumber": 33,
				"velocity": 102,
				"subtype": "noteOn"
			},
			{
				"deltaTime": 140,
				"channel": 1,
				"type": "channel",
				"subtype": "noteOff",
				"noteNumber": 33,
				"velocity": 64
			},
			{
				"deltaTime": 20,
				"channel": 1,
				"type": "channel",
				"noteNumber": 37,
				"velocity": 102,
				"subtype": "noteOn"
			},
			{
				"deltaTime": 310,
				"channel": 1,
				"type": "channel",
				"subtype": "noteOff",
				"noteNumber": 37,
				"velocity": 64
			},
			{
				"deltaTime": 10,
				"channel": 1,
				"type": "channel",
				"noteNumber": 38,
				"velocity": 80,
				"subtype": "noteOn"
			},
			{
				"deltaTime": 160,
				"channel": 1,
				"type": "channel",
				"noteNumber": 40,
				"velocity": 102,
				"subtype": "noteOn"
			},
			{
				"deltaTime": 5,
				"channel": 1,
				"type": "channel",
				"subtype": "noteOff",
				"noteNumber": 38,
				"velocity": 64
			},
			{
				"deltaTime": 125,
				"channel": 1,
				"type": "channel",
				"subtype": "noteOff",
				"noteNumber": 40,
				"velocity": 64
			},
			{
				"deltaTime": 190,
				"channel": 1,
				"type": "channel",
				"noteNumber": 40,
				"velocity": 93,
				"subtype": "noteOn"
			},
			{
				"deltaTime": 80,
				"channel": 1,
				"type": "channel",
				"subtype": "noteOff",
				"noteNumber": 40,
				"velocity": 64
			},
			{
				"deltaTime": 80,
				"channel": 1,
				"type": "channel",
				"noteNumber": 40,
				"velocity": 85,
				"subtype": "noteOn"
			},
			{
				"deltaTime": 125,
				"channel": 1,
				"type": "channel",
				"subtype": "noteOff",
				"noteNumber": 40,
				"velocity": 64
			},
			{
				"deltaTime": 195,
				"channel": 1,
				"type": "channel",
				"noteNumber": 40,
				"velocity": 102,
				"subtype": "noteOn"
			},
			{
				"deltaTime": 85,
				"channel": 1,
				"type": "channel",
				"subtype": "noteOff",
				"noteNumber": 40,
				"velocity": 64
			},
			{
				"deltaTime": 75,
				"channel": 1,
				"type": "channel",
				"noteNumber": 40,
				"velocity": 76,
				"subtype": "noteOn"
			},
			{
				"deltaTime": 155,
				"channel": 1,
				"type": "channel",
				"subtype": "noteOff",
				"noteNumber": 40,
				"velocity": 64
			},
			{
				"deltaTime": 165,
				"channel": 1,
				"type": "channel",
				"noteNumber": 40,
				"velocity": 98,
				"subtype": "noteOn"
			},
			{
				"deltaTime": 95,
				"channel": 1,
				"type": "channel",
				"subtype": "noteOff",
				"noteNumber": 40,
				"velocity": 64
			},
			{
				"deltaTime": 65,
				"channel": 1,
				"type": "channel",
				"noteNumber": 40,
				"velocity": 93,
				"subtype": "noteOn"
			},
			{
				"deltaTime": 155,
				"channel": 1,
				"type": "channel",
				"subtype": "noteOff",
				"noteNumber": 40,
				"velocity": 64
			},
			{
				"deltaTime": 165,
				"channel": 1,
				"type": "channel",
				"noteNumber": 40,
				"velocity": 107,
				"subtype": "noteOn"
			},
			{
				"deltaTime": 145,
				"channel": 1,
				"type": "channel",
				"subtype": "noteOff",
				"noteNumber": 40,
				"velocity": 64
			},
			{
				"deltaTime": 15,
				"channel": 1,
				"type": "channel",
				"noteNumber": 38,
				"velocity": 102,
				"subtype": "noteOn"
			},
			{
				"deltaTime": 160,
				"channel": 1,
				"type": "channel",
				"subtype": "noteOff",
				"noteNumber": 38,
				"velocity": 64
			},
			{
				"deltaTime": 160,
				"channel": 1,
				"type": "channel",
				"noteNumber": 38,
				"velocity": 102,
				"subtype": "noteOn"
			},
			{
				"deltaTime": 90,
				"channel": 1,
				"type": "channel",
				"subtype": "noteOff",
				"noteNumber": 38,
				"velocity": 64
			},
			{
				"deltaTime": 70,
				"channel": 1,
				"type": "channel",
				"noteNumber": 38,
				"velocity": 93,
				"subtype": "noteOn"
			},
			{
				"deltaTime": 130,
				"channel": 1,
				"type": "channel",
				"subtype": "noteOff",
				"noteNumber": 38,
				"velocity": 64
			},
			{
				"deltaTime": 190,
				"channel": 1,
				"type": "channel",
				"noteNumber": 38,
				"velocity": 107,
				"subtype": "noteOn"
			},
			{
				"deltaTime": 95,
				"channel": 1,
				"type": "channel",
				"subtype": "noteOff",
				"noteNumber": 38,
				"velocity": 64
			},
			{
				"deltaTime": 65,
				"channel": 1,
				"type": "channel",
				"noteNumber": 38,
				"velocity": 102,
				"subtype": "noteOn"
			},
			{
				"deltaTime": 150,
				"channel": 1,
				"type": "channel",
				"subtype": "noteOff",
				"noteNumber": 38,
				"velocity": 64
			},
			{
				"deltaTime": 170,
				"channel": 1,
				"type": "channel",
				"noteNumber": 38,
				"velocity": 107,
				"subtype": "noteOn"
			},
			{
				"deltaTime": 95,
				"channel": 1,
				"type": "channel",
				"subtype": "noteOff",
				"noteNumber": 38,
				"velocity": 64
			},
			{
				"deltaTime": 65,
				"channel": 1,
				"type": "channel",
				"noteNumber": 38,
				"velocity": 102,
				"subtype": "noteOn"
			},
			{
				"deltaTime": 150,
				"channel": 1,
				"type": "channel",
				"subtype": "noteOff",
				"noteNumber": 38,
				"velocity": 64
			},
			{
				"deltaTime": 170,
				"channel": 1,
				"type": "channel",
				"noteNumber": 38,
				"velocity": 107,
				"subtype": "noteOn"
			},
			{
				"deltaTime": 90,
				"channel": 1,
				"type": "channel",
				"subtype": "noteOff",
				"noteNumber": 38,
				"velocity": 64
			},
			{
				"deltaTime": 70,
				"channel": 1,
				"type": "channel",
				"noteNumber": 38,
				"velocity": 93,
				"subtype": "noteOn"
			},
			{
				"deltaTime": 210,
				"channel": 1,
				"type": "channel",
				"subtype": "noteOff",
				"noteNumber": 38,
				"velocity": 64
			},
			{
				"deltaTime": 110,
				"channel": 1,
				"type": "channel",
				"noteNumber": 38,
				"velocity": 93,
				"subtype": "noteOn"
			},
			{
				"deltaTime": 100,
				"channel": 1,
				"type": "channel",
				"subtype": "noteOff",
				"noteNumber": 38,
				"velocity": 64
			},
			{
				"deltaTime": 60,
				"channel": 1,
				"type": "channel",
				"noteNumber": 38,
				"velocity": 98,
				"subtype": "noteOn"
			},
			{
				"deltaTime": 150,
				"channel": 1,
				"type": "channel",
				"subtype": "noteOff",
				"noteNumber": 38,
				"velocity": 64
			},
			{
				"deltaTime": 170,
				"channel": 1,
				"type": "channel",
				"noteNumber": 38,
				"velocity": 107,
				"subtype": "noteOn"
			},
			{
				"deltaTime": 95,
				"channel": 1,
				"type": "channel",
				"subtype": "noteOff",
				"noteNumber": 38,
				"velocity": 64
			},
			{
				"deltaTime": 65,
				"channel": 1,
				"type": "channel",
				"noteNumber": 38,
				"velocity": 89,
				"subtype": "noteOn"
			},
			{
				"deltaTime": 170,
				"channel": 1,
				"type": "channel",
				"subtype": "noteOff",
				"noteNumber": 38,
				"velocity": 64
			},
			{
				"deltaTime": 150,
				"channel": 1,
				"type": "channel",
				"noteNumber": 38,
				"velocity": 113,
				"subtype": "noteOn"
			},
			{
				"deltaTime": 155,
				"channel": 1,
				"type": "channel",
				"subtype": "noteOff",
				"noteNumber": 38,
				"velocity": 64
			},
			{
				"deltaTime": 5,
				"channel": 1,
				"type": "channel",
				"noteNumber": 30,
				"velocity": 93,
				"subtype": "noteOn"
			},
			{
				"deltaTime": 130,
				"channel": 1,
				"type": "channel",
				"subtype": "noteOff",
				"noteNumber": 30,
				"velocity": 64
			},
			{
				"deltaTime": 30,
				"channel": 1,
				"type": "channel",
				"noteNumber": 31,
				"velocity": 102,
				"subtype": "noteOn"
			},
			{
				"deltaTime": 150,
				"channel": 1,
				"type": "channel",
				"subtype": "noteOff",
				"noteNumber": 31,
				"velocity": 64
			},
			{
				"deltaTime": 10,
				"channel": 1,
				"type": "channel",
				"noteNumber": 32,
				"velocity": 85,
				"subtype": "noteOn"
			},
			{
				"deltaTime": 160,
				"channel": 1,
				"type": "channel",
				"noteNumber": 33,
				"velocity": 107,
				"subtype": "noteOn"
			},
			{
				"deltaTime": 5,
				"channel": 1,
				"type": "channel",
				"subtype": "noteOff",
				"noteNumber": 32,
				"velocity": 64
			},
			{
				"deltaTime": 155,
				"channel": 1,
				"type": "channel",
				"subtype": "noteOff",
				"noteNumber": 33,
				"velocity": 64
			},
			{
				"deltaTime": 160,
				"channel": 1,
				"type": "channel",
				"noteNumber": 33,
				"velocity": 107,
				"subtype": "noteOn"
			},
			{
				"deltaTime": 110,
				"channel": 1,
				"type": "channel",
				"subtype": "noteOff",
				"noteNumber": 33,
				"velocity": 64
			},
			{
				"deltaTime": 50,
				"channel": 1,
				"type": "channel",
				"noteNumber": 33,
				"velocity": 102,
				"subtype": "noteOn"
			},
			{
				"deltaTime": 130,
				"channel": 1,
				"type": "channel",
				"subtype": "noteOff",
				"noteNumber": 33,
				"velocity": 64
			},
			{
				"deltaTime": 190,
				"channel": 1,
				"type": "channel",
				"noteNumber": 33,
				"velocity": 107,
				"subtype": "noteOn"
			},
			{
				"deltaTime": 120,
				"channel": 1,
				"type": "channel",
				"subtype": "noteOff",
				"noteNumber": 33,
				"velocity": 64
			},
			{
				"deltaTime": 40,
				"channel": 1,
				"type": "channel",
				"noteNumber": 33,
				"velocity": 93,
				"subtype": "noteOn"
			},
			{
				"deltaTime": 120,
				"channel": 1,
				"type": "channel",
				"subtype": "noteOff",
				"noteNumber": 33,
				"velocity": 64
			},
			{
				"deltaTime": 200,
				"channel": 1,
				"type": "channel",
				"noteNumber": 33,
				"velocity": 113,
				"subtype": "noteOn"
			},
			{
				"deltaTime": 105,
				"channel": 1,
				"type": "channel",
				"subtype": "noteOff",
				"noteNumber": 33,
				"velocity": 64
			},
			{
				"deltaTime": 55,
				"channel": 1,
				"type": "channel",
				"noteNumber": 33,
				"velocity": 98,
				"subtype": "noteOn"
			},
			{
				"deltaTime": 135,
				"channel": 1,
				"type": "channel",
				"subtype": "noteOff",
				"noteNumber": 33,
				"velocity": 64
			},
			{
				"deltaTime": 185,
				"channel": 1,
				"type": "channel",
				"noteNumber": 33,
				"velocity": 107,
				"subtype": "noteOn"
			},
			{
				"deltaTime": 155,
				"channel": 1,
				"type": "channel",
				"subtype": "noteOff",
				"noteNumber": 33,
				"velocity": 64
			},
			{
				"deltaTime": 5,
				"channel": 1,
				"type": "channel",
				"noteNumber": 28,
				"velocity": 98,
				"subtype": "noteOn"
			},
			{
				"deltaTime": 165,
				"channel": 1,
				"type": "channel",
				"subtype": "noteOff",
				"noteNumber": 28,
				"velocity": 64
			},
			{
				"deltaTime": 155,
				"channel": 1,
				"type": "channel",
				"noteNumber": 28,
				"velocity": 89,
				"subtype": "noteOn"
			},
			{
				"deltaTime": 110,
				"channel": 1,
				"type": "channel",
				"subtype": "noteOff",
				"noteNumber": 28,
				"velocity": 64
			},
			{
				"deltaTime": 50,
				"channel": 1,
				"type": "channel",
				"noteNumber": 28,
				"velocity": 89,
				"subtype": "noteOn"
			},
			{
				"deltaTime": 130,
				"channel": 1,
				"type": "channel",
				"subtype": "noteOff",
				"noteNumber": 28,
				"velocity": 64
			},
			{
				"deltaTime": 190,
				"channel": 1,
				"type": "channel",
				"noteNumber": 28,
				"velocity": 89,
				"subtype": "noteOn"
			},
			{
				"deltaTime": 110,
				"channel": 1,
				"type": "channel",
				"subtype": "noteOff",
				"noteNumber": 28,
				"velocity": 64
			},
			{
				"deltaTime": 50,
				"channel": 1,
				"type": "channel",
				"noteNumber": 28,
				"velocity": 85,
				"subtype": "noteOn"
			},
			{
				"deltaTime": 145,
				"channel": 1,
				"type": "channel",
				"subtype": "noteOff",
				"noteNumber": 28,
				"velocity": 64
			},
			{
				"deltaTime": 175,
				"channel": 1,
				"type": "channel",
				"noteNumber": 28,
				"velocity": 98,
				"subtype": "noteOn"
			},
			{
				"deltaTime": 90,
				"channel": 1,
				"type": "channel",
				"subtype": "noteOff",
				"noteNumber": 28,
				"velocity": 64
			},
			{
				"deltaTime": 70,
				"channel": 1,
				"type": "channel",
				"noteNumber": 28,
				"velocity": 89,
				"subtype": "noteOn"
			},
			{
				"deltaTime": 130,
				"channel": 1,
				"type": "channel",
				"subtype": "noteOff",
				"noteNumber": 28,
				"velocity": 64
			},
			{
				"deltaTime": 190,
				"channel": 1,
				"type": "channel",
				"noteNumber": 28,
				"velocity": 93,
				"subtype": "noteOn"
			},
			{
				"deltaTime": 155,
				"channel": 1,
				"type": "channel",
				"subtype": "noteOff",
				"noteNumber": 28,
				"velocity": 64
			},
			{
				"deltaTime": 5,
				"channel": 1,
				"type": "channel",
				"noteNumber": 33,
				"velocity": 102,
				"subtype": "noteOn"
			},
			{
				"deltaTime": 190,
				"channel": 1,
				"type": "channel",
				"subtype": "noteOff",
				"noteNumber": 33,
				"velocity": 64
			},
			{
				"deltaTime": 130,
				"channel": 1,
				"type": "channel",
				"noteNumber": 33,
				"velocity": 107,
				"subtype": "noteOn"
			},
			{
				"deltaTime": 145,
				"channel": 1,
				"type": "channel",
				"subtype": "noteOff",
				"noteNumber": 33,
				"velocity": 64
			},
			{
				"deltaTime": 15,
				"channel": 1,
				"type": "channel",
				"noteNumber": 31,
				"velocity": 102,
				"subtype": "noteOn"
			},
			{
				"deltaTime": 180,
				"channel": 1,
				"type": "channel",
				"subtype": "noteOff",
				"noteNumber": 31,
				"velocity": 64
			},
			{
				"deltaTime": 140,
				"channel": 1,
				"type": "channel",
				"noteNumber": 31,
				"velocity": 107,
				"subtype": "noteOn"
			},
			{
				"deltaTime": 160,
				"channel": 1,
				"type": "channel",
				"noteNumber": 30,
				"velocity": 107,
				"subtype": "noteOn"
			},
			{
				"deltaTime": 20,
				"channel": 1,
				"type": "channel",
				"subtype": "noteOff",
				"noteNumber": 31,
				"velocity": 64
			},
			{
				"deltaTime": 195,
				"channel": 1,
				"type": "channel",
				"subtype": "noteOff",
				"noteNumber": 30,
				"velocity": 64
			},
			{
				"deltaTime": 105,
				"channel": 1,
				"type": "channel",
				"noteNumber": 30,
				"velocity": 107,
				"subtype": "noteOn"
			},
			{
				"deltaTime": 135,
				"channel": 1,
				"type": "channel",
				"subtype": "noteOff",
				"noteNumber": 30,
				"velocity": 64
			},
			{
				"deltaTime": 25,
				"channel": 1,
				"type": "channel",
				"noteNumber": 29,
				"velocity": 98,
				"subtype": "noteOn"
			},
			{
				"deltaTime": 185,
				"channel": 1,
				"type": "channel",
				"subtype": "noteOff",
				"noteNumber": 29,
				"velocity": 64
			},
			{
				"deltaTime": 135,
				"channel": 1,
				"type": "channel",
				"noteNumber": 29,
				"velocity": 89,
				"subtype": "noteOn"
			},
			{
				"deltaTime": 145,
				"channel": 1,
				"type": "channel",
				"subtype": "noteOff",
				"noteNumber": 29,
				"velocity": 64
			},
			{
				"deltaTime": 15,
				"channel": 1,
				"type": "channel",
				"noteNumber": 28,
				"velocity": 89,
				"subtype": "noteOn"
			},
			{
				"deltaTime": 195,
				"channel": 1,
				"type": "channel",
				"subtype": "noteOff",
				"noteNumber": 28,
				"velocity": 64
			},
			{
				"deltaTime": 125,
				"channel": 1,
				"type": "channel",
				"noteNumber": 28,
				"velocity": 102,
				"subtype": "noteOn"
			},
			{
				"deltaTime": 95,
				"channel": 1,
				"type": "channel",
				"subtype": "noteOff",
				"noteNumber": 28,
				"velocity": 64
			},
			{
				"deltaTime": 65,
				"channel": 1,
				"type": "channel",
				"noteNumber": 28,
				"velocity": 89,
				"subtype": "noteOn"
			},
			{
				"deltaTime": 140,
				"channel": 1,
				"type": "channel",
				"subtype": "noteOff",
				"noteNumber": 28,
				"velocity": 64
			},
			{
				"deltaTime": 180,
				"channel": 1,
				"type": "channel",
				"noteNumber": 28,
				"velocity": 113,
				"subtype": "noteOn"
			},
			{
				"deltaTime": 95,
				"channel": 1,
				"type": "channel",
				"subtype": "noteOff",
				"noteNumber": 28,
				"velocity": 64
			},
			{
				"deltaTime": 65,
				"channel": 1,
				"type": "channel",
				"noteNumber": 28,
				"velocity": 80,
				"subtype": "noteOn"
			},
			{
				"deltaTime": 175,
				"channel": 1,
				"type": "channel",
				"subtype": "noteOff",
				"noteNumber": 28,
				"velocity": 64
			},
			{
				"deltaTime": 145,
				"channel": 1,
				"type": "channel",
				"noteNumber": 28,
				"velocity": 93,
				"subtype": "noteOn"
			},
			{
				"deltaTime": 85,
				"channel": 1,
				"type": "channel",
				"subtype": "noteOff",
				"noteNumber": 28,
				"velocity": 64
			},
			{
				"deltaTime": 75,
				"channel": 1,
				"type": "channel",
				"noteNumber": 28,
				"velocity": 98,
				"subtype": "noteOn"
			},
			{
				"deltaTime": 140,
				"channel": 1,
				"type": "channel",
				"subtype": "noteOff",
				"noteNumber": 28,
				"velocity": 64
			},
			{
				"deltaTime": 180,
				"channel": 1,
				"type": "channel",
				"noteNumber": 30,
				"velocity": 102,
				"subtype": "noteOn"
			},
			{
				"deltaTime": 0,
				"channel": 1,
				"type": "channel",
				"noteNumber": 31,
				"velocity": 48,
				"subtype": "noteOn"
			},
			{
				"deltaTime": 65,
				"channel": 1,
				"type": "channel",
				"subtype": "noteOff",
				"noteNumber": 31,
				"velocity": 64
			},
			{
				"deltaTime": 65,
				"channel": 1,
				"type": "channel",
				"subtype": "noteOff",
				"noteNumber": 30,
				"velocity": 64
			},
			{
				"deltaTime": 30,
				"channel": 1,
				"type": "channel",
				"noteNumber": 33,
				"velocity": 119,
				"subtype": "noteOn"
			},
			{
				"deltaTime": 140,
				"channel": 1,
				"type": "channel",
				"subtype": "noteOff",
				"noteNumber": 33,
				"velocity": 64
			},
			{
				"deltaTime": 180,
				"channel": 1,
				"type": "channel",
				"noteNumber": 33,
				"velocity": 93,
				"subtype": "noteOn"
			},
			{
				"deltaTime": 105,
				"channel": 1,
				"type": "channel",
				"subtype": "noteOff",
				"noteNumber": 33,
				"velocity": 64
			},
			{
				"deltaTime": 55,
				"channel": 1,
				"type": "channel",
				"noteNumber": 33,
				"velocity": 113,
				"subtype": "noteOn"
			},
			{
				"deltaTime": 145,
				"channel": 1,
				"type": "channel",
				"subtype": "noteOff",
				"noteNumber": 33,
				"velocity": 64
			},
			{
				"deltaTime": 175,
				"channel": 1,
				"type": "channel",
				"noteNumber": 33,
				"velocity": 93,
				"subtype": "noteOn"
			},
			{
				"deltaTime": 85,
				"channel": 1,
				"type": "channel",
				"subtype": "noteOff",
				"noteNumber": 33,
				"velocity": 64
			},
			{
				"deltaTime": 75,
				"channel": 1,
				"type": "channel",
				"noteNumber": 33,
				"velocity": 89,
				"subtype": "noteOn"
			},
			{
				"deltaTime": 125,
				"channel": 1,
				"type": "channel",
				"subtype": "noteOff",
				"noteNumber": 33,
				"velocity": 64
			},
			{
				"deltaTime": 195,
				"channel": 1,
				"type": "channel",
				"noteNumber": 33,
				"velocity": 107,
				"subtype": "noteOn"
			},
			{
				"deltaTime": 145,
				"channel": 1,
				"type": "channel",
				"subtype": "noteOff",
				"noteNumber": 33,
				"velocity": 64
			},
			{
				"deltaTime": 15,
				"channel": 1,
				"type": "channel",
				"noteNumber": 37,
				"velocity": 98,
				"subtype": "noteOn"
			},
			{
				"deltaTime": 320,
				"channel": 1,
				"type": "channel",
				"noteNumber": 40,
				"velocity": 89,
				"subtype": "noteOn"
			},
			{
				"deltaTime": 5,
				"channel": 1,
				"type": "channel",
				"subtype": "noteOff",
				"noteNumber": 37,
				"velocity": 64
			},
			{
				"deltaTime": 140,
				"channel": 1,
				"type": "channel",
				"subtype": "noteOff",
				"noteNumber": 40,
				"velocity": 64
			},
			{
				"deltaTime": 15,
				"channel": 1,
				"type": "channel",
				"noteNumber": 28,
				"velocity": 98,
				"subtype": "noteOn"
			},
			{
				"deltaTime": 145,
				"channel": 1,
				"type": "channel",
				"subtype": "noteOff",
				"noteNumber": 28,
				"velocity": 64
			},
			{
				"deltaTime": 175,
				"channel": 1,
				"type": "channel",
				"noteNumber": 28,
				"velocity": 98,
				"subtype": "noteOn"
			},
			{
				"deltaTime": 120,
				"channel": 1,
				"type": "channel",
				"subtype": "noteOff",
				"noteNumber": 28,
				"velocity": 64
			},
			{
				"deltaTime": 40,
				"channel": 1,
				"type": "channel",
				"noteNumber": 28,
				"velocity": 89,
				"subtype": "noteOn"
			},
			{
				"deltaTime": 140,
				"channel": 1,
				"type": "channel",
				"subtype": "noteOff",
				"noteNumber": 28,
				"velocity": 64
			},
			{
				"deltaTime": 180,
				"channel": 1,
				"type": "channel",
				"noteNumber": 28,
				"velocity": 98,
				"subtype": "noteOn"
			},
			{
				"deltaTime": 100,
				"channel": 1,
				"type": "channel",
				"subtype": "noteOff",
				"noteNumber": 28,
				"velocity": 64
			},
			{
				"deltaTime": 60,
				"channel": 1,
				"type": "channel",
				"noteNumber": 28,
				"velocity": 85,
				"subtype": "noteOn"
			},
			{
				"deltaTime": 165,
				"channel": 1,
				"type": "channel",
				"subtype": "noteOff",
				"noteNumber": 28,
				"velocity": 64
			},
			{
				"deltaTime": 155,
				"channel": 1,
				"type": "channel",
				"noteNumber": 28,
				"velocity": 102,
				"subtype": "noteOn"
			},
			{
				"deltaTime": 145,
				"channel": 1,
				"type": "channel",
				"subtype": "noteOff",
				"noteNumber": 28,
				"velocity": 64
			},
			{
				"deltaTime": 15,
				"channel": 1,
				"type": "channel",
				"noteNumber": 32,
				"velocity": 102,
				"subtype": "noteOn"
			},
			{
				"deltaTime": 310,
				"channel": 1,
				"type": "channel",
				"subtype": "noteOff",
				"noteNumber": 32,
				"velocity": 64
			},
			{
				"deltaTime": 10,
				"channel": 1,
				"type": "channel",
				"noteNumber": 35,
				"velocity": 93,
				"subtype": "noteOn"
			},
			{
				"deltaTime": 160,
				"channel": 1,
				"type": "channel",
				"noteNumber": 38,
				"velocity": 98,
				"subtype": "noteOn"
			},
			{
				"deltaTime": 10,
				"channel": 1,
				"type": "channel",
				"subtype": "noteOff",
				"noteNumber": 35,
				"velocity": 64
			},
			{
				"deltaTime": 150,
				"channel": 1,
				"type": "channel",
				"subtype": "noteOff",
				"noteNumber": 38,
				"velocity": 64
			},
			{
				"deltaTime": 160,
				"channel": 1,
				"type": "channel",
				"noteNumber": 38,
				"velocity": 107,
				"subtype": "noteOn"
			},
			{
				"deltaTime": 110,
				"channel": 1,
				"type": "channel",
				"subtype": "noteOff",
				"noteNumber": 38,
				"velocity": 64
			},
			{
				"deltaTime": 50,
				"channel": 1,
				"type": "channel",
				"noteNumber": 38,
				"velocity": 93,
				"subtype": "noteOn"
			},
			{
				"deltaTime": 195,
				"channel": 1,
				"type": "channel",
				"subtype": "noteOff",
				"noteNumber": 38,
				"velocity": 64
			},
			{
				"deltaTime": 125,
				"channel": 1,
				"type": "channel",
				"noteNumber": 38,
				"velocity": 98,
				"subtype": "noteOn"
			},
			{
				"deltaTime": 80,
				"channel": 1,
				"type": "channel",
				"subtype": "noteOff",
				"noteNumber": 38,
				"velocity": 64
			},
			{
				"deltaTime": 80,
				"channel": 1,
				"type": "channel",
				"noteNumber": 38,
				"velocity": 93,
				"subtype": "noteOn"
			},
			{
				"deltaTime": 175,
				"channel": 1,
				"type": "channel",
				"subtype": "noteOff",
				"noteNumber": 38,
				"velocity": 64
			},
			{
				"deltaTime": 145,
				"channel": 1,
				"type": "channel",
				"noteNumber": 38,
				"velocity": 57,
				"subtype": "noteOn"
			},
			{
				"deltaTime": 100,
				"channel": 1,
				"type": "channel",
				"subtype": "noteOff",
				"noteNumber": 38,
				"velocity": 64
			},
			{
				"deltaTime": 60,
				"channel": 1,
				"type": "channel",
				"noteNumber": 40,
				"velocity": 98,
				"subtype": "noteOn"
			},
			{
				"deltaTime": 0,
				"channel": 1,
				"type": "channel",
				"noteNumber": 42,
				"velocity": 59,
				"subtype": "noteOn"
			},
			{
				"deltaTime": 80,
				"channel": 1,
				"type": "channel",
				"subtype": "noteOff",
				"noteNumber": 40,
				"velocity": 64
			},
			{
				"deltaTime": 210,
				"channel": 1,
				"type": "channel",
				"subtype": "noteOff",
				"noteNumber": 42,
				"velocity": 64
			},
			{
				"deltaTime": 30,
				"channel": 1,
				"type": "channel",
				"noteNumber": 45,
				"velocity": 89,
				"subtype": "noteOn"
			},
			{
				"deltaTime": 140,
				"channel": 1,
				"type": "channel",
				"subtype": "noteOff",
				"noteNumber": 45,
				"velocity": 64
			},
			{
				"deltaTime": 20,
				"channel": 1,
				"type": "channel",
				"noteNumber": 38,
				"velocity": 98,
				"subtype": "noteOn"
			},
			{
				"deltaTime": 150,
				"channel": 1,
				"type": "channel",
				"subtype": "noteOff",
				"noteNumber": 38,
				"velocity": 64
			},
			{
				"deltaTime": 170,
				"channel": 1,
				"type": "channel",
				"noteNumber": 38,
				"velocity": 113,
				"subtype": "noteOn"
			},
			{
				"deltaTime": 160,
				"channel": 1,
				"type": "channel",
				"noteNumber": 30,
				"velocity": 102,
				"subtype": "noteOn"
			},
			{
				"deltaTime": 5,
				"channel": 1,
				"type": "channel",
				"subtype": "noteOff",
				"noteNumber": 38,
				"velocity": 64
			},
			{
				"deltaTime": 200,
				"channel": 1,
				"type": "channel",
				"subtype": "noteOff",
				"noteNumber": 30,
				"velocity": 64
			},
			{
				"deltaTime": 115,
				"channel": 1,
				"type": "channel",
				"noteNumber": 30,
				"velocity": 93,
				"subtype": "noteOn"
			},
			{
				"deltaTime": 155,
				"channel": 1,
				"type": "channel",
				"subtype": "noteOff",
				"noteNumber": 30,
				"velocity": 64
			},
			{
				"deltaTime": 5,
				"channel": 1,
				"type": "channel",
				"noteNumber": 31,
				"velocity": 107,
				"subtype": "noteOn"
			},
			{
				"deltaTime": 175,
				"channel": 1,
				"type": "channel",
				"subtype": "noteOff",
				"noteNumber": 31,
				"velocity": 64
			},
			{
				"deltaTime": 145,
				"channel": 1,
				"type": "channel",
				"noteNumber": 31,
				"velocity": 102,
				"subtype": "noteOn"
			},
			{
				"deltaTime": 150,
				"channel": 1,
				"type": "channel",
				"subtype": "noteOff",
				"noteNumber": 31,
				"velocity": 64
			},
			{
				"deltaTime": 10,
				"channel": 1,
				"type": "channel",
				"noteNumber": 32,
				"velocity": 102,
				"subtype": "noteOn"
			},
			{
				"deltaTime": 155,
				"channel": 1,
				"type": "channel",
				"subtype": "noteOff",
				"noteNumber": 32,
				"velocity": 64
			},
			{
				"deltaTime": 165,
				"channel": 1,
				"type": "channel",
				"noteNumber": 32,
				"velocity": 107,
				"subtype": "noteOn"
			},
			{
				"deltaTime": 135,
				"channel": 1,
				"type": "channel",
				"subtype": "noteOff",
				"noteNumber": 32,
				"velocity": 64
			},
			{
				"deltaTime": 25,
				"channel": 1,
				"type": "channel",
				"noteNumber": 33,
				"velocity": 102,
				"subtype": "noteOn"
			},
			{
				"deltaTime": 165,
				"channel": 1,
				"type": "channel",
				"subtype": "noteOff",
				"noteNumber": 33,
				"velocity": 64
			},
			{
				"deltaTime": 155,
				"channel": 1,
				"type": "channel",
				"noteNumber": 33,
				"velocity": 107,
				"subtype": "noteOn"
			},
			{
				"deltaTime": 135,
				"channel": 1,
				"type": "channel",
				"subtype": "noteOff",
				"noteNumber": 33,
				"velocity": 64
			},
			{
				"deltaTime": 25,
				"channel": 1,
				"type": "channel",
				"noteNumber": 37,
				"velocity": 113,
				"subtype": "noteOn"
			},
			{
				"deltaTime": 190,
				"channel": 1,
				"type": "channel",
				"subtype": "noteOff",
				"noteNumber": 37,
				"velocity": 64
			},
			{
				"deltaTime": 130,
				"channel": 1,
				"type": "channel",
				"noteNumber": 37,
				"velocity": 89,
				"subtype": "noteOn"
			},
			{
				"deltaTime": 140,
				"channel": 1,
				"type": "channel",
				"subtype": "noteOff",
				"noteNumber": 37,
				"velocity": 64
			},
			{
				"deltaTime": 20,
				"channel": 1,
				"type": "channel",
				"noteNumber": 40,
				"velocity": 89,
				"subtype": "noteOn"
			},
			{
				"deltaTime": 185,
				"channel": 1,
				"type": "channel",
				"subtype": "noteOff",
				"noteNumber": 40,
				"velocity": 64
			},
			{
				"deltaTime": 135,
				"channel": 1,
				"type": "channel",
				"noteNumber": 40,
				"velocity": 93,
				"subtype": "noteOn"
			},
			{
				"deltaTime": 135,
				"channel": 1,
				"type": "channel",
				"subtype": "noteOff",
				"noteNumber": 40,
				"velocity": 64
			},
			{
				"deltaTime": 25,
				"channel": 1,
				"type": "channel",
				"noteNumber": 42,
				"velocity": 85,
				"subtype": "noteOn"
			},
			{
				"deltaTime": 320,
				"channel": 1,
				"type": "channel",
				"noteNumber": 40,
				"velocity": 93,
				"subtype": "noteOn"
			},
			{
				"deltaTime": 25,
				"channel": 1,
				"type": "channel",
				"subtype": "noteOff",
				"noteNumber": 42,
				"velocity": 64
			},
			{
				"deltaTime": 135,
				"channel": 1,
				"type": "channel",
				"subtype": "noteOff",
				"noteNumber": 40,
				"velocity": 64
			},
			{
				"deltaTime": 0,
				"channel": 1,
				"type": "channel",
				"noteNumber": 28,
				"velocity": 93,
				"subtype": "noteOn"
			},
			{
				"deltaTime": 155,
				"channel": 1,
				"type": "channel",
				"subtype": "noteOff",
				"noteNumber": 28,
				"velocity": 64
			},
			{
				"deltaTime": 165,
				"channel": 1,
				"type": "channel",
				"noteNumber": 28,
				"velocity": 107,
				"subtype": "noteOn"
			},
			{
				"deltaTime": 85,
				"channel": 1,
				"type": "channel",
				"subtype": "noteOff",
				"noteNumber": 28,
				"velocity": 64
			},
			{
				"deltaTime": 75,
				"channel": 1,
				"type": "channel",
				"noteNumber": 28,
				"velocity": 93,
				"subtype": "noteOn"
			},
			{
				"deltaTime": 175,
				"channel": 1,
				"type": "channel",
				"subtype": "noteOff",
				"noteNumber": 28,
				"velocity": 64
			},
			{
				"deltaTime": 145,
				"channel": 1,
				"type": "channel",
				"noteNumber": 28,
				"velocity": 93,
				"subtype": "noteOn"
			},
			{
				"deltaTime": 100,
				"channel": 1,
				"type": "channel",
				"subtype": "noteOff",
				"noteNumber": 28,
				"velocity": 64
			},
			{
				"deltaTime": 60,
				"channel": 1,
				"type": "channel",
				"noteNumber": 28,
				"velocity": 89,
				"subtype": "noteOn"
			},
			{
				"deltaTime": 160,
				"channel": 1,
				"type": "channel",
				"subtype": "noteOff",
				"noteNumber": 28,
				"velocity": 64
			},
			{
				"deltaTime": 160,
				"channel": 1,
				"type": "channel",
				"noteNumber": 28,
				"velocity": 93,
				"subtype": "noteOn"
			},
			{
				"deltaTime": 75,
				"channel": 1,
				"type": "channel",
				"subtype": "noteOff",
				"noteNumber": 28,
				"velocity": 64
			},
			{
				"deltaTime": 85,
				"channel": 1,
				"type": "channel",
				"noteNumber": 28,
				"velocity": 89,
				"subtype": "noteOn"
			},
			{
				"deltaTime": 290,
				"channel": 1,
				"type": "channel",
				"subtype": "noteOff",
				"noteNumber": 28,
				"velocity": 64
			},
			{
				"deltaTime": 30,
				"channel": 1,
				"type": "channel",
				"noteNumber": 30,
				"velocity": 107,
				"subtype": "noteOn"
			},
			{
				"deltaTime": 105,
				"channel": 1,
				"type": "channel",
				"subtype": "noteOff",
				"noteNumber": 30,
				"velocity": 64
			},
			{
				"deltaTime": 55,
				"channel": 1,
				"type": "channel",
				"noteNumber": 33,
				"velocity": 107,
				"subtype": "noteOn"
			},
			{
				"deltaTime": 245,
				"channel": 1,
				"type": "channel",
				"subtype": "noteOff",
				"noteNumber": 33,
				"velocity": 64
			},
			{
				"deltaTime": 75,
				"channel": 1,
				"type": "channel",
				"noteNumber": 33,
				"velocity": 93,
				"subtype": "noteOn"
			},
			{
				"deltaTime": 135,
				"channel": 1,
				"type": "channel",
				"subtype": "noteOff",
				"noteNumber": 33,
				"velocity": 64
			},
			{
				"deltaTime": 25,
				"channel": 1,
				"type": "channel",
				"noteNumber": 31,
				"velocity": 107,
				"subtype": "noteOn"
			},
			{
				"deltaTime": 270,
				"channel": 1,
				"type": "channel",
				"subtype": "noteOff",
				"noteNumber": 31,
				"velocity": 64
			},
			{
				"deltaTime": 50,
				"channel": 1,
				"type": "channel",
				"noteNumber": 31,
				"velocity": 89,
				"subtype": "noteOn"
			},
			{
				"deltaTime": 130,
				"channel": 1,
				"type": "channel",
				"subtype": "noteOff",
				"noteNumber": 31,
				"velocity": 64
			},
			{
				"deltaTime": 30,
				"channel": 1,
				"type": "channel",
				"noteNumber": 30,
				"velocity": 98,
				"subtype": "noteOn"
			},
			{
				"deltaTime": 250,
				"channel": 1,
				"type": "channel",
				"subtype": "noteOff",
				"noteNumber": 30,
				"velocity": 64
			},
			{
				"deltaTime": 70,
				"channel": 1,
				"type": "channel",
				"noteNumber": 30,
				"velocity": 98,
				"subtype": "noteOn"
			},
			{
				"deltaTime": 140,
				"channel": 1,
				"type": "channel",
				"subtype": "noteOff",
				"noteNumber": 30,
				"velocity": 64
			},
			{
				"deltaTime": 20,
				"channel": 1,
				"type": "channel",
				"noteNumber": 29,
				"velocity": 107,
				"subtype": "noteOn"
			},
			{
				"deltaTime": 190,
				"channel": 1,
				"type": "channel",
				"subtype": "noteOff",
				"noteNumber": 29,
				"velocity": 64
			},
			{
				"deltaTime": 130,
				"channel": 1,
				"type": "channel",
				"noteNumber": 29,
				"velocity": 89,
				"subtype": "noteOn"
			},
			{
				"deltaTime": 115,
				"channel": 1,
				"type": "channel",
				"subtype": "noteOff",
				"noteNumber": 29,
				"velocity": 64
			},
			{
				"deltaTime": 45,
				"channel": 1,
				"type": "channel",
				"noteNumber": 28,
				"velocity": 102,
				"subtype": "noteOn"
			},
			{
				"deltaTime": 215,
				"channel": 1,
				"type": "channel",
				"subtype": "noteOff",
				"noteNumber": 28,
				"velocity": 64
			},
			{
				"deltaTime": 105,
				"channel": 1,
				"type": "channel",
				"noteNumber": 28,
				"velocity": 102,
				"subtype": "noteOn"
			},
			{
				"deltaTime": 105,
				"channel": 1,
				"type": "channel",
				"subtype": "noteOff",
				"noteNumber": 28,
				"velocity": 64
			},
			{
				"deltaTime": 55,
				"channel": 1,
				"type": "channel",
				"noteNumber": 28,
				"velocity": 98,
				"subtype": "noteOn"
			},
			{
				"deltaTime": 190,
				"channel": 1,
				"type": "channel",
				"subtype": "noteOff",
				"noteNumber": 28,
				"velocity": 64
			},
			{
				"deltaTime": 130,
				"channel": 1,
				"type": "channel",
				"noteNumber": 28,
				"velocity": 102,
				"subtype": "noteOn"
			},
			{
				"deltaTime": 105,
				"channel": 1,
				"type": "channel",
				"subtype": "noteOff",
				"noteNumber": 28,
				"velocity": 64
			},
			{
				"deltaTime": 55,
				"channel": 1,
				"type": "channel",
				"noteNumber": 28,
				"velocity": 89,
				"subtype": "noteOn"
			},
			{
				"deltaTime": 160,
				"channel": 1,
				"type": "channel",
				"subtype": "noteOff",
				"noteNumber": 28,
				"velocity": 64
			},
			{
				"deltaTime": 160,
				"channel": 1,
				"type": "channel",
				"noteNumber": 28,
				"velocity": 102,
				"subtype": "noteOn"
			},
			{
				"deltaTime": 90,
				"channel": 1,
				"type": "channel",
				"subtype": "noteOff",
				"noteNumber": 28,
				"velocity": 64
			},
			{
				"deltaTime": 70,
				"channel": 1,
				"type": "channel",
				"noteNumber": 28,
				"velocity": 98,
				"subtype": "noteOn"
			},
			{
				"deltaTime": 235,
				"channel": 1,
				"type": "channel",
				"subtype": "noteOff",
				"noteNumber": 28,
				"velocity": 64
			},
			{
				"deltaTime": 85,
				"channel": 1,
				"type": "channel",
				"noteNumber": 30,
				"velocity": 102,
				"subtype": "noteOn"
			},
			{
				"deltaTime": 150,
				"channel": 1,
				"type": "channel",
				"subtype": "noteOff",
				"noteNumber": 30,
				"velocity": 64
			},
			{
				"deltaTime": 10,
				"channel": 1,
				"type": "channel",
				"noteNumber": 33,
				"velocity": 119,
				"subtype": "noteOn"
			},
			{
				"deltaTime": 115,
				"channel": 1,
				"type": "channel",
				"subtype": "noteOff",
				"noteNumber": 33,
				"velocity": 64
			},
			{
				"deltaTime": 205,
				"channel": 1,
				"type": "channel",
				"noteNumber": 33,
				"velocity": 107,
				"subtype": "noteOn"
			},
			{
				"deltaTime": 100,
				"channel": 1,
				"type": "channel",
				"subtype": "noteOff",
				"noteNumber": 33,
				"velocity": 64
			},
			{
				"deltaTime": 60,
				"channel": 1,
				"type": "channel",
				"noteNumber": 33,
				"velocity": 107,
				"subtype": "noteOn"
			},
			{
				"deltaTime": 165,
				"channel": 1,
				"type": "channel",
				"subtype": "noteOff",
				"noteNumber": 33,
				"velocity": 64
			},
			{
				"deltaTime": 155,
				"channel": 1,
				"type": "channel",
				"noteNumber": 33,
				"velocity": 107,
				"subtype": "noteOn"
			},
			{
				"deltaTime": 95,
				"channel": 1,
				"type": "channel",
				"subtype": "noteOff",
				"noteNumber": 33,
				"velocity": 64
			},
			{
				"deltaTime": 65,
				"channel": 1,
				"type": "channel",
				"noteNumber": 33,
				"velocity": 93,
				"subtype": "noteOn"
			},
			{
				"deltaTime": 165,
				"channel": 1,
				"type": "channel",
				"subtype": "noteOff",
				"noteNumber": 33,
				"velocity": 64
			},
			{
				"deltaTime": 155,
				"channel": 1,
				"type": "channel",
				"noteNumber": 33,
				"velocity": 107,
				"subtype": "noteOn"
			},
			{
				"deltaTime": 140,
				"channel": 1,
				"type": "channel",
				"subtype": "noteOff",
				"noteNumber": 33,
				"velocity": 64
			},
			{
				"deltaTime": 20,
				"channel": 1,
				"type": "channel",
				"noteNumber": 37,
				"velocity": 98,
				"subtype": "noteOn"
			},
			{
				"deltaTime": 300,
				"channel": 1,
				"type": "channel",
				"subtype": "noteOff",
				"noteNumber": 37,
				"velocity": 64
			},
			{
				"deltaTime": 20,
				"channel": 1,
				"type": "channel",
				"noteNumber": 38,
				"velocity": 93,
				"subtype": "noteOn"
			},
			{
				"deltaTime": 160,
				"channel": 1,
				"type": "channel",
				"noteNumber": 40,
				"velocity": 107,
				"subtype": "noteOn"
			},
			{
				"deltaTime": 20,
				"channel": 1,
				"type": "channel",
				"subtype": "noteOff",
				"noteNumber": 38,
				"velocity": 64
			},
			{
				"deltaTime": 105,
				"channel": 1,
				"type": "channel",
				"subtype": "noteOff",
				"noteNumber": 40,
				"velocity": 64
			},
			{
				"deltaTime": 195,
				"channel": 1,
				"type": "channel",
				"noteNumber": 40,
				"velocity": 107,
				"subtype": "noteOn"
			},
			{
				"deltaTime": 95,
				"channel": 1,
				"type": "channel",
				"subtype": "noteOff",
				"noteNumber": 40,
				"velocity": 64
			},
			{
				"deltaTime": 65,
				"channel": 1,
				"type": "channel",
				"noteNumber": 40,
				"velocity": 102,
				"subtype": "noteOn"
			},
			{
				"deltaTime": 140,
				"channel": 1,
				"type": "channel",
				"subtype": "noteOff",
				"noteNumber": 40,
				"velocity": 64
			},
			{
				"deltaTime": 180,
				"channel": 1,
				"type": "channel",
				"noteNumber": 40,
				"velocity": 98,
				"subtype": "noteOn"
			},
			{
				"deltaTime": 90,
				"channel": 1,
				"type": "channel",
				"subtype": "noteOff",
				"noteNumber": 40,
				"velocity": 64
			},
			{
				"deltaTime": 70,
				"channel": 1,
				"type": "channel",
				"noteNumber": 40,
				"velocity": 102,
				"subtype": "noteOn"
			},
			{
				"deltaTime": 175,
				"channel": 1,
				"type": "channel",
				"subtype": "noteOff",
				"noteNumber": 40,
				"velocity": 64
			},
			{
				"deltaTime": 145,
				"channel": 1,
				"type": "channel",
				"noteNumber": 40,
				"velocity": 93,
				"subtype": "noteOn"
			},
			{
				"deltaTime": 80,
				"channel": 1,
				"type": "channel",
				"subtype": "noteOff",
				"noteNumber": 40,
				"velocity": 64
			},
			{
				"deltaTime": 80,
				"channel": 1,
				"type": "channel",
				"noteNumber": 40,
				"velocity": 107,
				"subtype": "noteOn"
			},
			{
				"deltaTime": 310,
				"channel": 1,
				"type": "channel",
				"subtype": "noteOff",
				"noteNumber": 40,
				"velocity": 64
			},
			{
				"deltaTime": 10,
				"channel": 1,
				"type": "channel",
				"noteNumber": 39,
				"velocity": 107,
				"subtype": "noteOn"
			},
			{
				"deltaTime": 145,
				"channel": 1,
				"type": "channel",
				"subtype": "noteOff",
				"noteNumber": 39,
				"velocity": 64
			},
			{
				"deltaTime": 15,
				"channel": 1,
				"type": "channel",
				"noteNumber": 38,
				"velocity": 102,
				"subtype": "noteOn"
			},
			{
				"deltaTime": 190,
				"channel": 1,
				"type": "channel",
				"subtype": "noteOff",
				"noteNumber": 38,
				"velocity": 64
			},
			{
				"deltaTime": 130,
				"channel": 1,
				"type": "channel",
				"noteNumber": 38,
				"velocity": 102,
				"subtype": "noteOn"
			},
			{
				"deltaTime": 100,
				"channel": 1,
				"type": "channel",
				"subtype": "noteOff",
				"noteNumber": 38,
				"velocity": 64
			},
			{
				"deltaTime": 60,
				"channel": 1,
				"type": "channel",
				"noteNumber": 38,
				"velocity": 98,
				"subtype": "noteOn"
			},
			{
				"deltaTime": 155,
				"channel": 1,
				"type": "channel",
				"subtype": "noteOff",
				"noteNumber": 38,
				"velocity": 64
			},
			{
				"deltaTime": 165,
				"channel": 1,
				"type": "channel",
				"noteNumber": 38,
				"velocity": 89,
				"subtype": "noteOn"
			},
			{
				"deltaTime": 95,
				"channel": 1,
				"type": "channel",
				"subtype": "noteOff",
				"noteNumber": 38,
				"velocity": 64
			},
			{
				"deltaTime": 65,
				"channel": 1,
				"type": "channel",
				"noteNumber": 38,
				"velocity": 89,
				"subtype": "noteOn"
			},
			{
				"deltaTime": 125,
				"channel": 1,
				"type": "channel",
				"subtype": "noteOff",
				"noteNumber": 38,
				"velocity": 64
			},
			{
				"deltaTime": 195,
				"channel": 1,
				"type": "channel",
				"noteNumber": 38,
				"velocity": 98,
				"subtype": "noteOn"
			},
			{
				"deltaTime": 110,
				"channel": 1,
				"type": "channel",
				"subtype": "noteOff",
				"noteNumber": 38,
				"velocity": 64
			},
			{
				"deltaTime": 50,
				"channel": 1,
				"type": "channel",
				"noteNumber": 38,
				"velocity": 76,
				"subtype": "noteOn"
			},
			{
				"deltaTime": 190,
				"channel": 1,
				"type": "channel",
				"subtype": "noteOff",
				"noteNumber": 38,
				"velocity": 64
			},
			{
				"deltaTime": 130,
				"channel": 1,
				"type": "channel",
				"noteNumber": 38,
				"velocity": 93,
				"subtype": "noteOn"
			},
			{
				"deltaTime": 100,
				"channel": 1,
				"type": "channel",
				"subtype": "noteOff",
				"noteNumber": 38,
				"velocity": 64
			},
			{
				"deltaTime": 60,
				"channel": 1,
				"type": "channel",
				"noteNumber": 38,
				"velocity": 89,
				"subtype": "noteOn"
			},
			{
				"deltaTime": 165,
				"channel": 1,
				"type": "channel",
				"subtype": "noteOff",
				"noteNumber": 38,
				"velocity": 64
			},
			{
				"deltaTime": 155,
				"channel": 1,
				"type": "channel",
				"noteNumber": 38,
				"velocity": 98,
				"subtype": "noteOn"
			},
			{
				"deltaTime": 160,
				"channel": 1,
				"type": "channel",
				"noteNumber": 30,
				"velocity": 102,
				"subtype": "noteOn"
			},
			{
				"deltaTime": 15,
				"channel": 1,
				"type": "channel",
				"subtype": "noteOff",
				"noteNumber": 38,
				"velocity": 64
			},
			{
				"deltaTime": 145,
				"channel": 1,
				"type": "channel",
				"subtype": "noteOff",
				"noteNumber": 30,
				"velocity": 64
			},
			{
				"deltaTime": 160,
				"channel": 1,
				"type": "channel",
				"noteNumber": 30,
				"velocity": 85,
				"subtype": "noteOn"
			},
			{
				"deltaTime": 160,
				"channel": 1,
				"type": "channel",
				"noteNumber": 33,
				"velocity": 98,
				"subtype": "noteOn"
			},
			{
				"deltaTime": 30,
				"channel": 1,
				"type": "channel",
				"subtype": "noteOff",
				"noteNumber": 30,
				"velocity": 64
			},
			{
				"deltaTime": 130,
				"channel": 1,
				"type": "channel",
				"subtype": "noteOff",
				"noteNumber": 33,
				"velocity": 64
			},
			{
				"deltaTime": 160,
				"channel": 1,
				"type": "channel",
				"noteNumber": 33,
				"velocity": 89,
				"subtype": "noteOn"
			},
			{
				"deltaTime": 160,
				"channel": 1,
				"type": "channel",
				"noteNumber": 35,
				"velocity": 93,
				"subtype": "noteOn"
			},
			{
				"deltaTime": 5,
				"channel": 1,
				"type": "channel",
				"subtype": "noteOff",
				"noteNumber": 33,
				"velocity": 64
			},
			{
				"deltaTime": 170,
				"channel": 1,
				"type": "channel",
				"subtype": "noteOff",
				"noteNumber": 35,
				"velocity": 64
			},
			{
				"deltaTime": 145,
				"channel": 1,
				"type": "channel",
				"noteNumber": 35,
				"velocity": 102,
				"subtype": "noteOn"
			},
			{
				"deltaTime": 145,
				"channel": 1,
				"type": "channel",
				"subtype": "noteOff",
				"noteNumber": 35,
				"velocity": 64
			},
			{
				"deltaTime": 15,
				"channel": 1,
				"type": "channel",
				"noteNumber": 33,
				"velocity": 98,
				"subtype": "noteOn"
			},
			{
				"deltaTime": 150,
				"channel": 1,
				"type": "channel",
				"subtype": "noteOff",
				"noteNumber": 33,
				"velocity": 64
			},
			{
				"deltaTime": 170,
				"channel": 1,
				"type": "channel",
				"noteNumber": 33,
				"velocity": 113,
				"subtype": "noteOn"
			},
			{
				"deltaTime": 100,
				"channel": 1,
				"type": "channel",
				"subtype": "noteOff",
				"noteNumber": 33,
				"velocity": 64
			},
			{
				"deltaTime": 60,
				"channel": 1,
				"type": "channel",
				"noteNumber": 33,
				"velocity": 102,
				"subtype": "noteOn"
			},
			{
				"deltaTime": 160,
				"channel": 1,
				"type": "channel",
				"subtype": "noteOff",
				"noteNumber": 33,
				"velocity": 64
			},
			{
				"deltaTime": 160,
				"channel": 1,
				"type": "channel",
				"noteNumber": 33,
				"velocity": 107,
				"subtype": "noteOn"
			},
			{
				"deltaTime": 95,
				"channel": 1,
				"type": "channel",
				"subtype": "noteOff",
				"noteNumber": 33,
				"velocity": 64
			},
			{
				"deltaTime": 65,
				"channel": 1,
				"type": "channel",
				"noteNumber": 33,
				"velocity": 93,
				"subtype": "noteOn"
			},
			{
				"deltaTime": 190,
				"channel": 1,
				"type": "channel",
				"subtype": "noteOff",
				"noteNumber": 33,
				"velocity": 64
			},
			{
				"deltaTime": 130,
				"channel": 1,
				"type": "channel",
				"noteNumber": 33,
				"velocity": 93,
				"subtype": "noteOn"
			},
			{
				"deltaTime": 95,
				"channel": 1,
				"type": "channel",
				"subtype": "noteOff",
				"noteNumber": 33,
				"velocity": 64
			},
			{
				"deltaTime": 65,
				"channel": 1,
				"type": "channel",
				"noteNumber": 33,
				"velocity": 98,
				"subtype": "noteOn"
			},
			{
				"deltaTime": 140,
				"channel": 1,
				"type": "channel",
				"subtype": "noteOff",
				"noteNumber": 33,
				"velocity": 64
			},
			{
				"deltaTime": 180,
				"channel": 1,
				"type": "channel",
				"noteNumber": 33,
				"velocity": 93,
				"subtype": "noteOn"
			},
			{
				"deltaTime": 110,
				"channel": 1,
				"type": "channel",
				"subtype": "noteOff",
				"noteNumber": 33,
				"velocity": 64
			},
			{
				"deltaTime": 50,
				"channel": 1,
				"type": "channel",
				"noteNumber": 28,
				"velocity": 89,
				"subtype": "noteOn"
			},
			{
				"deltaTime": 145,
				"channel": 1,
				"type": "channel",
				"subtype": "noteOff",
				"noteNumber": 28,
				"velocity": 64
			},
			{
				"deltaTime": 175,
				"channel": 1,
				"type": "channel",
				"noteNumber": 28,
				"velocity": 98,
				"subtype": "noteOn"
			},
			{
				"deltaTime": 160,
				"channel": 1,
				"type": "channel",
				"noteNumber": 32,
				"velocity": 107,
				"subtype": "noteOn"
			},
			{
				"deltaTime": 25,
				"channel": 1,
				"type": "channel",
				"subtype": "noteOff",
				"noteNumber": 28,
				"velocity": 64
			},
			{
				"deltaTime": 155,
				"channel": 1,
				"type": "channel",
				"subtype": "noteOff",
				"noteNumber": 32,
				"velocity": 64
			},
			{
				"deltaTime": 140,
				"channel": 1,
				"type": "channel",
				"noteNumber": 32,
				"velocity": 102,
				"subtype": "noteOn"
			},
			{
				"deltaTime": 160,
				"channel": 1,
				"type": "channel",
				"noteNumber": 35,
				"velocity": 93,
				"subtype": "noteOn"
			},
			{
				"deltaTime": 5,
				"channel": 1,
				"type": "channel",
				"subtype": "noteOff",
				"noteNumber": 32,
				"velocity": 64
			},
			{
				"deltaTime": 140,
				"channel": 1,
				"type": "channel",
				"subtype": "noteOff",
				"noteNumber": 35,
				"velocity": 64
			},
			{
				"deltaTime": 175,
				"channel": 1,
				"type": "channel",
				"noteNumber": 35,
				"velocity": 98,
				"subtype": "noteOn"
			},
			{
				"deltaTime": 155,
				"channel": 1,
				"type": "channel",
				"subtype": "noteOff",
				"noteNumber": 35,
				"velocity": 64
			},
			{
				"deltaTime": 5,
				"channel": 1,
				"type": "channel",
				"noteNumber": 37,
				"velocity": 102,
				"subtype": "noteOn"
			},
			{
				"deltaTime": 285,
				"channel": 1,
				"type": "channel",
				"subtype": "noteOff",
				"noteNumber": 37,
				"velocity": 64
			},
			{
				"deltaTime": 35,
				"channel": 1,
				"type": "channel",
				"noteNumber": 40,
				"velocity": 89,
				"subtype": "noteOn"
			},
			{
				"deltaTime": 160,
				"channel": 1,
				"type": "channel",
				"noteNumber": 33,
				"velocity": 107,
				"subtype": "noteOn"
			},
			{
				"deltaTime": 5,
				"channel": 1,
				"type": "channel",
				"subtype": "noteOff",
				"noteNumber": 40,
				"velocity": 64
			},
			{
				"deltaTime": 130,
				"channel": 1,
				"type": "channel",
				"subtype": "noteOff",
				"noteNumber": 33,
				"velocity": 64
			},
			{
				"deltaTime": 185,
				"channel": 1,
				"type": "channel",
				"noteNumber": 33,
				"velocity": 107,
				"subtype": "noteOn"
			},
			{
				"deltaTime": 150,
				"channel": 1,
				"type": "channel",
				"subtype": "noteOff",
				"noteNumber": 33,
				"velocity": 64
			},
			{
				"deltaTime": 10,
				"channel": 1,
				"type": "channel",
				"noteNumber": 31,
				"velocity": 98,
				"subtype": "noteOn"
			},
			{
				"deltaTime": 190,
				"channel": 1,
				"type": "channel",
				"subtype": "noteOff",
				"noteNumber": 31,
				"velocity": 64
			},
			{
				"deltaTime": 130,
				"channel": 1,
				"type": "channel",
				"noteNumber": 31,
				"velocity": 98,
				"subtype": "noteOn"
			},
			{
				"deltaTime": 160,
				"channel": 1,
				"type": "channel",
				"subtype": "noteOff",
				"noteNumber": 31,
				"velocity": 64
			},
			{
				"deltaTime": 0,
				"channel": 1,
				"type": "channel",
				"noteNumber": 30,
				"velocity": 98,
				"subtype": "noteOn"
			},
			{
				"deltaTime": 215,
				"channel": 1,
				"type": "channel",
				"subtype": "noteOff",
				"noteNumber": 30,
				"velocity": 64
			},
			{
				"deltaTime": 105,
				"channel": 1,
				"type": "channel",
				"noteNumber": 30,
				"velocity": 107,
				"subtype": "noteOn"
			},
			{
				"deltaTime": 155,
				"channel": 1,
				"type": "channel",
				"subtype": "noteOff",
				"noteNumber": 30,
				"velocity": 64
			},
			{
				"deltaTime": 5,
				"channel": 1,
				"type": "channel",
				"noteNumber": 29,
				"velocity": 80,
				"subtype": "noteOn"
			},
			{
				"deltaTime": 245,
				"channel": 1,
				"type": "channel",
				"subtype": "noteOff",
				"noteNumber": 29,
				"velocity": 64
			},
			{
				"deltaTime": 75,
				"channel": 1,
				"type": "channel",
				"noteNumber": 29,
				"velocity": 98,
				"subtype": "noteOn"
			},
			{
				"deltaTime": 145,
				"channel": 1,
				"type": "channel",
				"subtype": "noteOff",
				"noteNumber": 29,
				"velocity": 64
			},
			{
				"deltaTime": 15,
				"channel": 1,
				"type": "channel",
				"noteNumber": 28,
				"velocity": 102,
				"subtype": "noteOn"
			},
			{
				"deltaTime": 160,
				"channel": 1,
				"type": "channel",
				"subtype": "noteOff",
				"noteNumber": 28,
				"velocity": 64
			},
			{
				"deltaTime": 320,
				"channel": 1,
				"type": "channel",
				"noteNumber": 32,
				"velocity": 127,
				"subtype": "noteOn"
			},
			{
				"deltaTime": 235,
				"channel": 1,
				"type": "channel",
				"subtype": "noteOff",
				"noteNumber": 32,
				"velocity": 64
			},
			{
				"deltaTime": 85,
				"channel": 1,
				"type": "channel",
				"noteNumber": 33,
				"velocity": 119,
				"subtype": "noteOn"
			},
			{
				"deltaTime": 2920,
				"channel": 1,
				"type": "channel",
				"subtype": "noteOff",
				"noteNumber": 33,
				"velocity": 64
			},
			{
				"deltaTime": 120,
				"channel": 1,
				"type": "channel",
				"noteNumber": 33,
				"velocity": 127,
				"subtype": "noteOn"
			},
			{
				"deltaTime": 150,
				"channel": 1,
				"type": "channel",
				"subtype": "noteOff",
				"noteNumber": 33,
				"velocity": 64
			},
			{
				"deltaTime": 0,
				"type": "meta",
				"subtype": "endOfTrack"
			}
		],
		[
			{
				"deltaTime": 0,
				"type": "meta",
				"subtype": "trackName",
				"text": "tk10"
			},
			{
				"deltaTime": 0,
				"type": "meta",
				"subtype": "unknown",
				"data": "\u0000"
			},
			{
				"deltaTime": 0,
				"type": "meta",
				"subtype": "midiChannelPrefix",
				"channel": 107
			},
			{
				"deltaTime": 0,
				"channel": 9,
				"type": "channel",
				"subtype": "controller",
				"controllerType": 7,
				"value": 118
			},
			{
				"deltaTime": 0,
				"channel": 9,
				"type": "channel",
				"subtype": "controller",
				"controllerType": 10,
				"value": 64
			},
			{
				"deltaTime": 525,
				"channel": 9,
				"type": "channel",
				"subtype": "controller",
				"controllerType": 93,
				"value": 0
			},
			{
				"deltaTime": 50,
				"channel": 9,
				"type": "channel",
				"subtype": "controller",
				"controllerType": 91,
				"value": 62
			},
			{
				"deltaTime": 125,
				"channel": 9,
				"type": "channel",
				"subtype": "controller",
				"controllerType": 7,
				"value": 118
			},
			{
				"deltaTime": 0,
				"channel": 9,
				"type": "channel",
				"subtype": "controller",
				"controllerType": 10,
				"value": 64
			},
			{
				"deltaTime": 1220,
				"channel": 9,
				"type": "channel",
				"noteNumber": 42,
				"velocity": 127,
				"subtype": "noteOn"
			},
			{
				"deltaTime": 120,
				"channel": 9,
				"type": "channel",
				"subtype": "noteOff",
				"noteNumber": 42,
				"velocity": 64
			},
			{
				"deltaTime": 367,
				"channel": 9,
				"type": "channel",
				"noteNumber": 42,
				"velocity": 127,
				"subtype": "noteOn"
			},
			{
				"deltaTime": 125,
				"channel": 9,
				"type": "channel",
				"subtype": "noteOff",
				"noteNumber": 42,
				"velocity": 64
			},
			{
				"deltaTime": 347,
				"channel": 9,
				"type": "channel",
				"noteNumber": 40,
				"velocity": 76,
				"subtype": "noteOn"
			},
			{
				"deltaTime": 0,
				"channel": 9,
				"type": "channel",
				"noteNumber": 42,
				"velocity": 127,
				"subtype": "noteOn"
			},
			{
				"deltaTime": 0,
				"channel": 9,
				"type": "channel",
				"noteNumber": 43,
				"velocity": 52,
				"subtype": "noteOn"
			},
			{
				"deltaTime": 0,
				"channel": 9,
				"type": "channel",
				"noteNumber": 45,
				"velocity": 56,
				"subtype": "noteOn"
			},
			{
				"deltaTime": 45,
				"channel": 9,
				"type": "channel",
				"subtype": "noteOff",
				"noteNumber": 43,
				"velocity": 64
			},
			{
				"deltaTime": 0,
				"channel": 9,
				"type": "channel",
				"subtype": "noteOff",
				"noteNumber": 45,
				"velocity": 64
			},
			{
				"deltaTime": 10,
				"channel": 9,
				"type": "channel",
				"subtype": "noteOff",
				"noteNumber": 40,
				"velocity": 64
			},
			{
				"deltaTime": 45,
				"channel": 9,
				"type": "channel",
				"subtype": "noteOff",
				"noteNumber": 42,
				"velocity": 64
			},
			{
				"deltaTime": 54,
				"channel": 9,
				"type": "channel",
				"noteNumber": 40,
				"velocity": 64,
				"subtype": "noteOn"
			},
			{
				"deltaTime": 0,
				"channel": 9,
				"type": "channel",
				"noteNumber": 43,
				"velocity": 57,
				"subtype": "noteOn"
			},
			{
				"deltaTime": 0,
				"channel": 9,
				"type": "channel",
				"noteNumber": 45,
				"velocity": 68,
				"subtype": "noteOn"
			},
			{
				"deltaTime": 55,
				"channel": 9,
				"type": "channel",
				"subtype": "noteOff",
				"noteNumber": 43,
				"velocity": 64
			},
			{
				"deltaTime": 0,
				"channel": 9,
				"type": "channel",
				"subtype": "noteOff",
				"noteNumber": 45,
				"velocity": 64
			},
			{
				"deltaTime": 10,
				"channel": 9,
				"type": "channel",
				"subtype": "noteOff",
				"noteNumber": 40,
				"velocity": 64
			},
			{
				"deltaTime": 102,
				"channel": 9,
				"type": "channel",
				"noteNumber": 40,
				"velocity": 102,
				"subtype": "noteOn"
			},
			{
				"deltaTime": 0,
				"channel": 9,
				"type": "channel",
				"noteNumber": 43,
				"velocity": 93,
				"subtype": "noteOn"
			},
			{
				"deltaTime": 0,
				"channel": 9,
				"type": "channel",
				"noteNumber": 45,
				"velocity": 93,
				"subtype": "noteOn"
			},
			{
				"deltaTime": 60,
				"channel": 9,
				"type": "channel",
				"subtype": "noteOff",
				"noteNumber": 45,
				"velocity": 64
			},
			{
				"deltaTime": 5,
				"channel": 9,
				"type": "channel",
				"subtype": "noteOff",
				"noteNumber": 43,
				"velocity": 64
			},
			{
				"deltaTime": 10,
				"channel": 9,
				"type": "channel",
				"subtype": "noteOff",
				"noteNumber": 40,
				"velocity": 64
			},
			{
				"deltaTime": 88,
				"channel": 9,
				"type": "channel",
				"noteNumber": 40,
				"velocity": 113,
				"subtype": "noteOn"
			},
			{
				"deltaTime": 0,
				"channel": 9,
				"type": "channel",
				"noteNumber": 42,
				"velocity": 127,
				"subtype": "noteOn"
			},
			{
				"deltaTime": 0,
				"channel": 9,
				"type": "channel",
				"noteNumber": 43,
				"velocity": 107,
				"subtype": "noteOn"
			},
			{
				"deltaTime": 0,
				"channel": 9,
				"type": "channel",
				"noteNumber": 45,
				"velocity": 107,
				"subtype": "noteOn"
			},
			{
				"deltaTime": 60,
				"channel": 9,
				"type": "channel",
				"subtype": "noteOff",
				"noteNumber": 43,
				"velocity": 64
			},
			{
				"deltaTime": 5,
				"channel": 9,
				"type": "channel",
				"subtype": "noteOff",
				"noteNumber": 40,
				"velocity": 64
			},
			{
				"deltaTime": 5,
				"channel": 9,
				"type": "channel",
				"subtype": "noteOff",
				"noteNumber": 45,
				"velocity": 64
			},
			{
				"deltaTime": 5,
				"channel": 9,
				"type": "channel",
				"subtype": "noteOff",
				"noteNumber": 42,
				"velocity": 64
			},
			{
				"deltaTime": 82,
				"channel": 9,
				"type": "channel",
				"noteNumber": 40,
				"velocity": 113,
				"subtype": "noteOn"
			},
			{
				"deltaTime": 0,
				"channel": 9,
				"type": "channel",
				"noteNumber": 43,
				"velocity": 107,
				"subtype": "noteOn"
			},
			{
				"deltaTime": 0,
				"channel": 9,
				"type": "channel",
				"noteNumber": 45,
				"velocity": 102,
				"subtype": "noteOn"
			},
			{
				"deltaTime": 65,
				"channel": 9,
				"type": "channel",
				"subtype": "noteOff",
				"noteNumber": 45,
				"velocity": 64
			},
			{
				"deltaTime": 5,
				"channel": 9,
				"type": "channel",
				"subtype": "noteOff",
				"noteNumber": 40,
				"velocity": 64
			},
			{
				"deltaTime": 0,
				"channel": 9,
				"type": "channel",
				"subtype": "noteOff",
				"noteNumber": 43,
				"velocity": 64
			},
			{
				"deltaTime": 90,
				"channel": 9,
				"type": "channel",
				"noteNumber": 40,
				"velocity": 107,
				"subtype": "noteOn"
			},
			{
				"deltaTime": 0,
				"channel": 9,
				"type": "channel",
				"noteNumber": 43,
				"velocity": 113,
				"subtype": "noteOn"
			},
			{
				"deltaTime": 0,
				"channel": 9,
				"type": "channel",
				"noteNumber": 45,
				"velocity": 113,
				"subtype": "noteOn"
			},
			{
				"deltaTime": 125,
				"channel": 9,
				"type": "channel",
				"subtype": "noteOff",
				"noteNumber": 40,
				"velocity": 64
			},
			{
				"deltaTime": 10,
				"channel": 9,
				"type": "channel",
				"subtype": "noteOff",
				"noteNumber": 43,
				"velocity": 64
			},
			{
				"deltaTime": 0,
				"channel": 9,
				"type": "channel",
				"subtype": "noteOff",
				"noteNumber": 45,
				"velocity": 64
			},
			{
				"deltaTime": 25,
				"channel": 9,
				"type": "channel",
				"noteNumber": 36,
				"velocity": 107,
				"subtype": "noteOn"
			},
			{
				"deltaTime": 0,
				"channel": 9,
				"type": "channel",
				"noteNumber": 36,
				"velocity": 76,
				"subtype": "noteOn"
			},
			{
				"deltaTime": 0,
				"channel": 9,
				"type": "channel",
				"noteNumber": 51,
				"velocity": 127,
				"subtype": "noteOn"
			},
			{
				"deltaTime": 0,
				"channel": 9,
				"type": "channel",
				"noteNumber": 57,
				"velocity": 107,
				"subtype": "noteOn"
			},
			{
				"deltaTime": 1,
				"channel": 9,
				"type": "channel",
				"subtype": "noteOff",
				"noteNumber": 36,
				"velocity": 64
			},
			{
				"deltaTime": 24,
				"channel": 9,
				"type": "channel",
				"subtype": "noteOff",
				"noteNumber": 57,
				"velocity": 64
			},
			{
				"deltaTime": 45,
				"channel": 9,
				"type": "channel",
				"subtype": "noteOff",
				"noteNumber": 51,
				"velocity": 64
			},
			{
				"deltaTime": 248,
				"channel": 9,
				"type": "channel",
				"noteNumber": 51,
				"velocity": 85,
				"subtype": "noteOn"
			},
			{
				"deltaTime": 20,
				"channel": 9,
				"type": "channel",
				"subtype": "noteOff",
				"noteNumber": 51,
				"velocity": 64
			},
			{
				"deltaTime": 149,
				"channel": 9,
				"type": "channel",
				"noteNumber": 40,
				"velocity": 127,
				"subtype": "noteOn"
			},
			{
				"deltaTime": 0,
				"channel": 9,
				"type": "channel",
				"noteNumber": 51,
				"velocity": 127,
				"subtype": "noteOn"
			},
			{
				"deltaTime": 110,
				"channel": 9,
				"type": "channel",
				"subtype": "noteOff",
				"noteNumber": 51,
				"velocity": 64
			},
			{
				"deltaTime": 43,
				"channel": 9,
				"type": "channel",
				"subtype": "noteOff",
				"noteNumber": 36,
				"velocity": 64
			},
			{
				"deltaTime": 150,
				"channel": 9,
				"type": "channel",
				"noteNumber": 36,
				"velocity": 93,
				"subtype": "noteOn"
			},
			{
				"deltaTime": 0,
				"channel": 9,
				"type": "channel",
				"noteNumber": 51,
				"velocity": 107,
				"subtype": "noteOn"
			},
			{
				"deltaTime": 17,
				"channel": 9,
				"type": "channel",
				"subtype": "noteOff",
				"noteNumber": 40,
				"velocity": 64
			},
			{
				"deltaTime": 28,
				"channel": 9,
				"type": "channel",
				"subtype": "noteOff",
				"noteNumber": 51,
				"velocity": 64
			},
			{
				"deltaTime": 20,
				"channel": 9,
				"type": "channel",
				"subtype": "noteOff",
				"noteNumber": 36,
				"velocity": 64
			},
			{
				"deltaTime": 104,
				"channel": 9,
				"type": "channel",
				"noteNumber": 36,
				"velocity": 93,
				"subtype": "noteOn"
			},
			{
				"deltaTime": 0,
				"channel": 9,
				"type": "channel",
				"noteNumber": 51,
				"velocity": 127,
				"subtype": "noteOn"
			},
			{
				"deltaTime": 60,
				"channel": 9,
				"type": "channel",
				"subtype": "noteOff",
				"noteNumber": 51,
				"velocity": 64
			},
			{
				"deltaTime": 261,
				"channel": 9,
				"type": "channel",
				"noteNumber": 51,
				"velocity": 98,
				"subtype": "noteOn"
			},
			{
				"deltaTime": 35,
				"channel": 9,
				"type": "channel",
				"subtype": "noteOff",
				"noteNumber": 51,
				"velocity": 64
			},
			{
				"deltaTime": 128,
				"channel": 9,
				"type": "channel",
				"noteNumber": 40,
				"velocity": 127,
				"subtype": "noteOn"
			},
			{
				"deltaTime": 0,
				"channel": 9,
				"type": "channel",
				"noteNumber": 51,
				"velocity": 127,
				"subtype": "noteOn"
			},
			{
				"deltaTime": 75,
				"channel": 9,
				"type": "channel",
				"subtype": "noteOff",
				"noteNumber": 51,
				"velocity": 64
			},
			{
				"deltaTime": 71,
				"channel": 9,
				"type": "channel",
				"subtype": "noteOff",
				"noteNumber": 36,
				"velocity": 64
			},
			{
				"deltaTime": 159,
				"channel": 9,
				"type": "channel",
				"subtype": "noteOff",
				"noteNumber": 40,
				"velocity": 64
			},
			{
				"deltaTime": 12,
				"channel": 9,
				"type": "channel",
				"noteNumber": 36,
				"velocity": 72,
				"subtype": "noteOn"
			},
			{
				"deltaTime": 0,
				"channel": 9,
				"type": "channel",
				"noteNumber": 51,
				"velocity": 113,
				"subtype": "noteOn"
			},
			{
				"deltaTime": 45,
				"channel": 9,
				"type": "channel",
				"subtype": "noteOff",
				"noteNumber": 51,
				"velocity": 64
			},
			{
				"deltaTime": 20,
				"channel": 9,
				"type": "channel",
				"subtype": "noteOff",
				"noteNumber": 36,
				"velocity": 64
			},
			{
				"deltaTime": 95,
				"channel": 9,
				"type": "channel",
				"noteNumber": 36,
				"velocity": 107,
				"subtype": "noteOn"
			},
			{
				"deltaTime": 0,
				"channel": 9,
				"type": "channel",
				"noteNumber": 51,
				"velocity": 127,
				"subtype": "noteOn"
			},
			{
				"deltaTime": 70,
				"channel": 9,
				"type": "channel",
				"subtype": "noteOff",
				"noteNumber": 51,
				"velocity": 64
			},
			{
				"deltaTime": 248,
				"channel": 9,
				"type": "channel",
				"noteNumber": 51,
				"velocity": 85,
				"subtype": "noteOn"
			},
			{
				"deltaTime": 35,
				"channel": 9,
				"type": "channel",
				"subtype": "noteOff",
				"noteNumber": 51,
				"velocity": 64
			},
			{
				"deltaTime": 134,
				"channel": 9,
				"type": "channel",
				"noteNumber": 40,
				"velocity": 127,
				"subtype": "noteOn"
			},
			{
				"deltaTime": 0,
				"channel": 9,
				"type": "channel",
				"noteNumber": 51,
				"velocity": 127,
				"subtype": "noteOn"
			},
			{
				"deltaTime": 75,
				"channel": 9,
				"type": "channel",
				"subtype": "noteOff",
				"noteNumber": 51,
				"velocity": 64
			},
			{
				"deltaTime": 78,
				"channel": 9,
				"type": "channel",
				"subtype": "noteOff",
				"noteNumber": 36,
				"velocity": 64
			},
			{
				"deltaTime": 150,
				"channel": 9,
				"type": "channel",
				"noteNumber": 36,
				"velocity": 85,
				"subtype": "noteOn"
			},
			{
				"deltaTime": 0,
				"channel": 9,
				"type": "channel",
				"noteNumber": 51,
				"velocity": 107,
				"subtype": "noteOn"
			},
			{
				"deltaTime": 32,
				"channel": 9,
				"type": "channel",
				"subtype": "noteOff",
				"noteNumber": 40,
				"velocity": 64
			},
			{
				"deltaTime": 8,
				"channel": 9,
				"type": "channel",
				"subtype": "noteOff",
				"noteNumber": 51,
				"velocity": 64
			},
			{
				"deltaTime": 25,
				"channel": 9,
				"type": "channel",
				"subtype": "noteOff",
				"noteNumber": 36,
				"velocity": 64
			},
			{
				"deltaTime": 104,
				"channel": 9,
				"type": "channel",
				"noteNumber": 36,
				"velocity": 85,
				"subtype": "noteOn"
			},
			{
				"deltaTime": 0,
				"channel": 9,
				"type": "channel",
				"noteNumber": 51,
				"velocity": 107,
				"subtype": "noteOn"
			},
			{
				"deltaTime": 55,
				"channel": 9,
				"type": "channel",
				"subtype": "noteOff",
				"noteNumber": 51,
				"velocity": 64
			},
			{
				"deltaTime": 266,
				"channel": 9,
				"type": "channel",
				"noteNumber": 51,
				"velocity": 107,
				"subtype": "noteOn"
			},
			{
				"deltaTime": 45,
				"channel": 9,
				"type": "channel",
				"subtype": "noteOff",
				"noteNumber": 51,
				"velocity": 64
			},
			{
				"deltaTime": 118,
				"channel": 9,
				"type": "channel",
				"noteNumber": 40,
				"velocity": 127,
				"subtype": "noteOn"
			},
			{
				"deltaTime": 0,
				"channel": 9,
				"type": "channel",
				"noteNumber": 51,
				"velocity": 127,
				"subtype": "noteOn"
			},
			{
				"deltaTime": 75,
				"channel": 9,
				"type": "channel",
				"subtype": "noteOff",
				"noteNumber": 51,
				"velocity": 64
			},
			{
				"deltaTime": 76,
				"channel": 9,
				"type": "channel",
				"subtype": "noteOff",
				"noteNumber": 36,
				"velocity": 64
			},
			{
				"deltaTime": 49,
				"channel": 9,
				"type": "channel",
				"subtype": "noteOff",
				"noteNumber": 40,
				"velocity": 64
			},
			{
				"deltaTime": 117,
				"channel": 9,
				"type": "channel",
				"noteNumber": 36,
				"velocity": 93,
				"subtype": "noteOn"
			},
			{
				"deltaTime": 0,
				"channel": 9,
				"type": "channel",
				"noteNumber": 51,
				"velocity": 127,
				"subtype": "noteOn"
			},
			{
				"deltaTime": 35,
				"channel": 9,
				"type": "channel",
				"subtype": "noteOff",
				"noteNumber": 51,
				"velocity": 64
			},
			{
				"deltaTime": 5,
				"channel": 9,
				"type": "channel",
				"subtype": "noteOff",
				"noteNumber": 36,
				"velocity": 64
			},
			{
				"deltaTime": 120,
				"channel": 9,
				"type": "channel",
				"noteNumber": 36,
				"velocity": 107,
				"subtype": "noteOn"
			},
			{
				"deltaTime": 0,
				"channel": 9,
				"type": "channel",
				"noteNumber": 51,
				"velocity": 127,
				"subtype": "noteOn"
			},
			{
				"deltaTime": 40,
				"channel": 9,
				"type": "channel",
				"subtype": "noteOff",
				"noteNumber": 51,
				"velocity": 64
			},
			{
				"deltaTime": 278,
				"channel": 9,
				"type": "channel",
				"noteNumber": 51,
				"velocity": 68,
				"subtype": "noteOn"
			},
			{
				"deltaTime": 25,
				"channel": 9,
				"type": "channel",
				"subtype": "noteOff",
				"noteNumber": 51,
				"velocity": 64
			},
			{
				"deltaTime": 144,
				"channel": 9,
				"type": "channel",
				"noteNumber": 40,
				"velocity": 127,
				"subtype": "noteOn"
			},
			{
				"deltaTime": 0,
				"channel": 9,
				"type": "channel",
				"noteNumber": 51,
				"velocity": 127,
				"subtype": "noteOn"
			},
			{
				"deltaTime": 125,
				"channel": 9,
				"type": "channel",
				"subtype": "noteOff",
				"noteNumber": 51,
				"velocity": 64
			},
			{
				"deltaTime": 38,
				"channel": 9,
				"type": "channel",
				"subtype": "noteOff",
				"noteNumber": 36,
				"velocity": 64
			},
			{
				"deltaTime": 140,
				"channel": 9,
				"type": "channel",
				"noteNumber": 36,
				"velocity": 50,
				"subtype": "noteOn"
			},
			{
				"deltaTime": 0,
				"channel": 9,
				"type": "channel",
				"noteNumber": 51,
				"velocity": 102,
				"subtype": "noteOn"
			},
			{
				"deltaTime": 50,
				"channel": 9,
				"type": "channel",
				"subtype": "noteOff",
				"noteNumber": 36,
				"velocity": 64
			},
			{
				"deltaTime": 0,
				"channel": 9,
				"type": "channel",
				"subtype": "noteOff",
				"noteNumber": 51,
				"velocity": 64
			},
			{
				"deltaTime": 22,
				"channel": 9,
				"type": "channel",
				"subtype": "noteOff",
				"noteNumber": 40,
				"velocity": 64
			},
			{
				"deltaTime": 97,
				"channel": 9,
				"type": "channel",
				"noteNumber": 36,
				"velocity": 85,
				"subtype": "noteOn"
			},
			{
				"deltaTime": 0,
				"channel": 9,
				"type": "channel",
				"noteNumber": 51,
				"velocity": 113,
				"subtype": "noteOn"
			},
			{
				"deltaTime": 95,
				"channel": 9,
				"type": "channel",
				"subtype": "noteOff",
				"noteNumber": 51,
				"velocity": 64
			},
			{
				"deltaTime": 226,
				"channel": 9,
				"type": "channel",
				"noteNumber": 51,
				"velocity": 93,
				"subtype": "noteOn"
			},
			{
				"deltaTime": 35,
				"channel": 9,
				"type": "channel",
				"subtype": "noteOff",
				"noteNumber": 51,
				"velocity": 64
			},
			{
				"deltaTime": 128,
				"channel": 9,
				"type": "channel",
				"noteNumber": 40,
				"velocity": 127,
				"subtype": "noteOn"
			},
			{
				"deltaTime": 0,
				"channel": 9,
				"type": "channel",
				"noteNumber": 51,
				"velocity": 127,
				"subtype": "noteOn"
			},
			{
				"deltaTime": 120,
				"channel": 9,
				"type": "channel",
				"subtype": "noteOff",
				"noteNumber": 51,
				"velocity": 64
			},
			{
				"deltaTime": 86,
				"channel": 9,
				"type": "channel",
				"subtype": "noteOff",
				"noteNumber": 36,
				"velocity": 64
			},
			{
				"deltaTime": 94,
				"channel": 9,
				"type": "channel",
				"subtype": "noteOff",
				"noteNumber": 40,
				"velocity": 64
			},
			{
				"deltaTime": 17,
				"channel": 9,
				"type": "channel",
				"noteNumber": 36,
				"velocity": 72,
				"subtype": "noteOn"
			},
			{
				"deltaTime": 0,
				"channel": 9,
				"type": "channel",
				"noteNumber": 51,
				"velocity": 107,
				"subtype": "noteOn"
			},
			{
				"deltaTime": 55,
				"channel": 9,
				"type": "channel",
				"subtype": "noteOff",
				"noteNumber": 51,
				"velocity": 64
			},
			{
				"deltaTime": 25,
				"channel": 9,
				"type": "channel",
				"subtype": "noteOff",
				"noteNumber": 36,
				"velocity": 64
			},
			{
				"deltaTime": 80,
				"channel": 9,
				"type": "channel",
				"noteNumber": 36,
				"velocity": 80,
				"subtype": "noteOn"
			},
			{
				"deltaTime": 0,
				"channel": 9,
				"type": "channel",
				"noteNumber": 51,
				"velocity": 113,
				"subtype": "noteOn"
			},
			{
				"deltaTime": 95,
				"channel": 9,
				"type": "channel",
				"subtype": "noteOff",
				"noteNumber": 51,
				"velocity": 64
			},
			{
				"deltaTime": 223,
				"channel": 9,
				"type": "channel",
				"noteNumber": 51,
				"velocity": 68,
				"subtype": "noteOn"
			},
			{
				"deltaTime": 25,
				"channel": 9,
				"type": "channel",
				"subtype": "noteOff",
				"noteNumber": 51,
				"velocity": 64
			},
			{
				"deltaTime": 144,
				"channel": 9,
				"type": "channel",
				"noteNumber": 40,
				"velocity": 127,
				"subtype": "noteOn"
			},
			{
				"deltaTime": 0,
				"channel": 9,
				"type": "channel",
				"noteNumber": 51,
				"velocity": 127,
				"subtype": "noteOn"
			},
			{
				"deltaTime": 140,
				"channel": 9,
				"type": "channel",
				"subtype": "noteOff",
				"noteNumber": 51,
				"velocity": 64
			},
			{
				"deltaTime": 73,
				"channel": 9,
				"type": "channel",
				"subtype": "noteOff",
				"noteNumber": 36,
				"velocity": 64
			},
			{
				"deltaTime": 82,
				"channel": 9,
				"type": "channel",
				"subtype": "noteOff",
				"noteNumber": 40,
				"velocity": 64
			},
			{
				"deltaTime": 8,
				"channel": 9,
				"type": "channel",
				"noteNumber": 36,
				"velocity": 72,
				"subtype": "noteOn"
			},
			{
				"deltaTime": 0,
				"channel": 9,
				"type": "channel",
				"noteNumber": 51,
				"velocity": 98,
				"subtype": "noteOn"
			},
			{
				"deltaTime": 45,
				"channel": 9,
				"type": "channel",
				"subtype": "noteOff",
				"noteNumber": 51,
				"velocity": 64
			},
			{
				"deltaTime": 10,
				"channel": 9,
				"type": "channel",
				"subtype": "noteOff",
				"noteNumber": 36,
				"velocity": 64
			},
			{
				"deltaTime": 114,
				"channel": 9,
				"type": "channel",
				"noteNumber": 36,
				"velocity": 98,
				"subtype": "noteOn"
			},
			{
				"deltaTime": 0,
				"channel": 9,
				"type": "channel",
				"noteNumber": 51,
				"velocity": 113,
				"subtype": "noteOn"
			},
			{
				"deltaTime": 90,
				"channel": 9,
				"type": "channel",
				"subtype": "noteOff",
				"noteNumber": 51,
				"velocity": 64
			},
			{
				"deltaTime": 231,
				"channel": 9,
				"type": "channel",
				"noteNumber": 51,
				"velocity": 89,
				"subtype": "noteOn"
			},
			{
				"deltaTime": 35,
				"channel": 9,
				"type": "channel",
				"subtype": "noteOff",
				"noteNumber": 51,
				"velocity": 64
			},
			{
				"deltaTime": 128,
				"channel": 9,
				"type": "channel",
				"noteNumber": 40,
				"velocity": 127,
				"subtype": "noteOn"
			},
			{
				"deltaTime": 0,
				"channel": 9,
				"type": "channel",
				"noteNumber": 51,
				"velocity": 127,
				"subtype": "noteOn"
			},
			{
				"deltaTime": 120,
				"channel": 9,
				"type": "channel",
				"subtype": "noteOff",
				"noteNumber": 51,
				"velocity": 64
			},
			{
				"deltaTime": 46,
				"channel": 9,
				"type": "channel",
				"subtype": "noteOff",
				"noteNumber": 36,
				"velocity": 64
			},
			{
				"deltaTime": 144,
				"channel": 9,
				"type": "channel",
				"subtype": "noteOff",
				"noteNumber": 40,
				"velocity": 64
			},
			{
				"deltaTime": 7,
				"channel": 9,
				"type": "channel",
				"noteNumber": 36,
				"velocity": 76,
				"subtype": "noteOn"
			},
			{
				"deltaTime": 0,
				"channel": 9,
				"type": "channel",
				"noteNumber": 51,
				"velocity": 102,
				"subtype": "noteOn"
			},
			{
				"deltaTime": 45,
				"channel": 9,
				"type": "channel",
				"subtype": "noteOff",
				"noteNumber": 51,
				"velocity": 64
			},
			{
				"deltaTime": 20,
				"channel": 9,
				"type": "channel",
				"subtype": "noteOff",
				"noteNumber": 36,
				"velocity": 64
			},
			{
				"deltaTime": 95,
				"channel": 9,
				"type": "channel",
				"noteNumber": 36,
				"velocity": 76,
				"subtype": "noteOn"
			},
			{
				"deltaTime": 0,
				"channel": 9,
				"type": "channel",
				"noteNumber": 51,
				"velocity": 127,
				"subtype": "noteOn"
			},
			{
				"deltaTime": 70,
				"channel": 9,
				"type": "channel",
				"subtype": "noteOff",
				"noteNumber": 51,
				"velocity": 64
			},
			{
				"deltaTime": 248,
				"channel": 9,
				"type": "channel",
				"noteNumber": 51,
				"velocity": 85,
				"subtype": "noteOn"
			},
			{
				"deltaTime": 20,
				"channel": 9,
				"type": "channel",
				"subtype": "noteOff",
				"noteNumber": 51,
				"velocity": 64
			},
			{
				"deltaTime": 149,
				"channel": 9,
				"type": "channel",
				"noteNumber": 40,
				"velocity": 127,
				"subtype": "noteOn"
			},
			{
				"deltaTime": 0,
				"channel": 9,
				"type": "channel",
				"noteNumber": 49,
				"velocity": 107,
				"subtype": "noteOn"
			},
			{
				"deltaTime": 0,
				"channel": 9,
				"type": "channel",
				"noteNumber": 51,
				"velocity": 127,
				"subtype": "noteOn"
			},
			{
				"deltaTime": 60,
				"channel": 9,
				"type": "channel",
				"subtype": "noteOff",
				"noteNumber": 49,
				"velocity": 64
			},
			{
				"deltaTime": 50,
				"channel": 9,
				"type": "channel",
				"subtype": "noteOff",
				"noteNumber": 51,
				"velocity": 64
			},
			{
				"deltaTime": 43,
				"channel": 9,
				"type": "channel",
				"subtype": "noteOff",
				"noteNumber": 36,
				"velocity": 64
			},
			{
				"deltaTime": 150,
				"channel": 9,
				"type": "channel",
				"noteNumber": 36,
				"velocity": 93,
				"subtype": "noteOn"
			},
			{
				"deltaTime": 0,
				"channel": 9,
				"type": "channel",
				"noteNumber": 51,
				"velocity": 107,
				"subtype": "noteOn"
			},
			{
				"deltaTime": 17,
				"channel": 9,
				"type": "channel",
				"subtype": "noteOff",
				"noteNumber": 40,
				"velocity": 64
			},
			{
				"deltaTime": 28,
				"channel": 9,
				"type": "channel",
				"subtype": "noteOff",
				"noteNumber": 51,
				"velocity": 64
			},
			{
				"deltaTime": 20,
				"channel": 9,
				"type": "channel",
				"subtype": "noteOff",
				"noteNumber": 36,
				"velocity": 64
			},
			{
				"deltaTime": 104,
				"channel": 9,
				"type": "channel",
				"noteNumber": 36,
				"velocity": 93,
				"subtype": "noteOn"
			},
			{
				"deltaTime": 0,
				"channel": 9,
				"type": "channel",
				"noteNumber": 51,
				"velocity": 127,
				"subtype": "noteOn"
			},
			{
				"deltaTime": 60,
				"channel": 9,
				"type": "channel",
				"subtype": "noteOff",
				"noteNumber": 51,
				"velocity": 64
			},
			{
				"deltaTime": 261,
				"channel": 9,
				"type": "channel",
				"noteNumber": 51,
				"velocity": 98,
				"subtype": "noteOn"
			},
			{
				"deltaTime": 35,
				"channel": 9,
				"type": "channel",
				"subtype": "noteOff",
				"noteNumber": 51,
				"velocity": 64
			},
			{
				"deltaTime": 128,
				"channel": 9,
				"type": "channel",
				"noteNumber": 40,
				"velocity": 127,
				"subtype": "noteOn"
			},
			{
				"deltaTime": 0,
				"channel": 9,
				"type": "channel",
				"noteNumber": 51,
				"velocity": 127,
				"subtype": "noteOn"
			},
			{
				"deltaTime": 75,
				"channel": 9,
				"type": "channel",
				"subtype": "noteOff",
				"noteNumber": 51,
				"velocity": 64
			},
			{
				"deltaTime": 71,
				"channel": 9,
				"type": "channel",
				"subtype": "noteOff",
				"noteNumber": 36,
				"velocity": 64
			},
			{
				"deltaTime": 159,
				"channel": 9,
				"type": "channel",
				"subtype": "noteOff",
				"noteNumber": 40,
				"velocity": 64
			},
			{
				"deltaTime": 12,
				"channel": 9,
				"type": "channel",
				"noteNumber": 36,
				"velocity": 72,
				"subtype": "noteOn"
			},
			{
				"deltaTime": 0,
				"channel": 9,
				"type": "channel",
				"noteNumber": 51,
				"velocity": 113,
				"subtype": "noteOn"
			},
			{
				"deltaTime": 45,
				"channel": 9,
				"type": "channel",
				"subtype": "noteOff",
				"noteNumber": 51,
				"velocity": 64
			},
			{
				"deltaTime": 20,
				"channel": 9,
				"type": "channel",
				"subtype": "noteOff",
				"noteNumber": 36,
				"velocity": 64
			},
			{
				"deltaTime": 95,
				"channel": 9,
				"type": "channel",
				"noteNumber": 36,
				"velocity": 107,
				"subtype": "noteOn"
			},
			{
				"deltaTime": 0,
				"channel": 9,
				"type": "channel",
				"noteNumber": 51,
				"velocity": 127,
				"subtype": "noteOn"
			},
			{
				"deltaTime": 70,
				"channel": 9,
				"type": "channel",
				"subtype": "noteOff",
				"noteNumber": 51,
				"velocity": 64
			},
			{
				"deltaTime": 248,
				"channel": 9,
				"type": "channel",
				"noteNumber": 51,
				"velocity": 85,
				"subtype": "noteOn"
			},
			{
				"deltaTime": 35,
				"channel": 9,
				"type": "channel",
				"subtype": "noteOff",
				"noteNumber": 51,
				"velocity": 64
			},
			{
				"deltaTime": 134,
				"channel": 9,
				"type": "channel",
				"noteNumber": 40,
				"velocity": 127,
				"subtype": "noteOn"
			},
			{
				"deltaTime": 0,
				"channel": 9,
				"type": "channel",
				"noteNumber": 51,
				"velocity": 127,
				"subtype": "noteOn"
			},
			{
				"deltaTime": 75,
				"channel": 9,
				"type": "channel",
				"subtype": "noteOff",
				"noteNumber": 51,
				"velocity": 64
			},
			{
				"deltaTime": 78,
				"channel": 9,
				"type": "channel",
				"subtype": "noteOff",
				"noteNumber": 36,
				"velocity": 64
			},
			{
				"deltaTime": 150,
				"channel": 9,
				"type": "channel",
				"noteNumber": 36,
				"velocity": 85,
				"subtype": "noteOn"
			},
			{
				"deltaTime": 0,
				"channel": 9,
				"type": "channel",
				"noteNumber": 51,
				"velocity": 107,
				"subtype": "noteOn"
			},
			{
				"deltaTime": 32,
				"channel": 9,
				"type": "channel",
				"subtype": "noteOff",
				"noteNumber": 40,
				"velocity": 64
			},
			{
				"deltaTime": 8,
				"channel": 9,
				"type": "channel",
				"subtype": "noteOff",
				"noteNumber": 51,
				"velocity": 64
			},
			{
				"deltaTime": 25,
				"channel": 9,
				"type": "channel",
				"subtype": "noteOff",
				"noteNumber": 36,
				"velocity": 64
			},
			{
				"deltaTime": 104,
				"channel": 9,
				"type": "channel",
				"noteNumber": 36,
				"velocity": 85,
				"subtype": "noteOn"
			},
			{
				"deltaTime": 0,
				"channel": 9,
				"type": "channel",
				"noteNumber": 51,
				"velocity": 107,
				"subtype": "noteOn"
			},
			{
				"deltaTime": 55,
				"channel": 9,
				"type": "channel",
				"subtype": "noteOff",
				"noteNumber": 51,
				"velocity": 64
			},
			{
				"deltaTime": 266,
				"channel": 9,
				"type": "channel",
				"noteNumber": 51,
				"velocity": 107,
				"subtype": "noteOn"
			},
			{
				"deltaTime": 45,
				"channel": 9,
				"type": "channel",
				"subtype": "noteOff",
				"noteNumber": 51,
				"velocity": 64
			},
			{
				"deltaTime": 118,
				"channel": 9,
				"type": "channel",
				"noteNumber": 40,
				"velocity": 127,
				"subtype": "noteOn"
			},
			{
				"deltaTime": 0,
				"channel": 9,
				"type": "channel",
				"noteNumber": 51,
				"velocity": 127,
				"subtype": "noteOn"
			},
			{
				"deltaTime": 75,
				"channel": 9,
				"type": "channel",
				"subtype": "noteOff",
				"noteNumber": 51,
				"velocity": 64
			},
			{
				"deltaTime": 76,
				"channel": 9,
				"type": "channel",
				"subtype": "noteOff",
				"noteNumber": 36,
				"velocity": 64
			},
			{
				"deltaTime": 49,
				"channel": 9,
				"type": "channel",
				"subtype": "noteOff",
				"noteNumber": 40,
				"velocity": 64
			},
			{
				"deltaTime": 117,
				"channel": 9,
				"type": "channel",
				"noteNumber": 36,
				"velocity": 93,
				"subtype": "noteOn"
			},
			{
				"deltaTime": 0,
				"channel": 9,
				"type": "channel",
				"noteNumber": 51,
				"velocity": 127,
				"subtype": "noteOn"
			},
			{
				"deltaTime": 35,
				"channel": 9,
				"type": "channel",
				"subtype": "noteOff",
				"noteNumber": 51,
				"velocity": 64
			},
			{
				"deltaTime": 5,
				"channel": 9,
				"type": "channel",
				"subtype": "noteOff",
				"noteNumber": 36,
				"velocity": 64
			},
			{
				"deltaTime": 120,
				"channel": 9,
				"type": "channel",
				"noteNumber": 36,
				"velocity": 107,
				"subtype": "noteOn"
			},
			{
				"deltaTime": 0,
				"channel": 9,
				"type": "channel",
				"noteNumber": 51,
				"velocity": 127,
				"subtype": "noteOn"
			},
			{
				"deltaTime": 0,
				"channel": 9,
				"type": "channel",
				"noteNumber": 57,
				"velocity": 93,
				"subtype": "noteOn"
			},
			{
				"deltaTime": 40,
				"channel": 9,
				"type": "channel",
				"subtype": "noteOff",
				"noteNumber": 51,
				"velocity": 64
			},
			{
				"deltaTime": 15,
				"channel": 9,
				"type": "channel",
				"subtype": "noteOff",
				"noteNumber": 57,
				"velocity": 64
			},
			{
				"deltaTime": 263,
				"channel": 9,
				"type": "channel",
				"noteNumber": 51,
				"velocity": 68,
				"subtype": "noteOn"
			},
			{
				"deltaTime": 25,
				"channel": 9,
				"type": "channel",
				"subtype": "noteOff",
				"noteNumber": 51,
				"velocity": 64
			},
			{
				"deltaTime": 144,
				"channel": 9,
				"type": "channel",
				"noteNumber": 40,
				"velocity": 127,
				"subtype": "noteOn"
			},
			{
				"deltaTime": 0,
				"channel": 9,
				"type": "channel",
				"noteNumber": 51,
				"velocity": 127,
				"subtype": "noteOn"
			},
			{
				"deltaTime": 125,
				"channel": 9,
				"type": "channel",
				"subtype": "noteOff",
				"noteNumber": 51,
				"velocity": 64
			},
			{
				"deltaTime": 38,
				"channel": 9,
				"type": "channel",
				"subtype": "noteOff",
				"noteNumber": 36,
				"velocity": 64
			},
			{
				"deltaTime": 140,
				"channel": 9,
				"type": "channel",
				"noteNumber": 36,
				"velocity": 50,
				"subtype": "noteOn"
			},
			{
				"deltaTime": 0,
				"channel": 9,
				"type": "channel",
				"noteNumber": 51,
				"velocity": 102,
				"subtype": "noteOn"
			},
			{
				"deltaTime": 50,
				"channel": 9,
				"type": "channel",
				"subtype": "noteOff",
				"noteNumber": 36,
				"velocity": 64
			},
			{
				"deltaTime": 0,
				"channel": 9,
				"type": "channel",
				"subtype": "noteOff",
				"noteNumber": 51,
				"velocity": 64
			},
			{
				"deltaTime": 22,
				"channel": 9,
				"type": "channel",
				"subtype": "noteOff",
				"noteNumber": 40,
				"velocity": 64
			},
			{
				"deltaTime": 97,
				"channel": 9,
				"type": "channel",
				"noteNumber": 36,
				"velocity": 85,
				"subtype": "noteOn"
			},
			{
				"deltaTime": 0,
				"channel": 9,
				"type": "channel",
				"noteNumber": 51,
				"velocity": 113,
				"subtype": "noteOn"
			},
			{
				"deltaTime": 95,
				"channel": 9,
				"type": "channel",
				"subtype": "noteOff",
				"noteNumber": 51,
				"velocity": 64
			},
			{
				"deltaTime": 226,
				"channel": 9,
				"type": "channel",
				"noteNumber": 51,
				"velocity": 93,
				"subtype": "noteOn"
			},
			{
				"deltaTime": 35,
				"channel": 9,
				"type": "channel",
				"subtype": "noteOff",
				"noteNumber": 51,
				"velocity": 64
			},
			{
				"deltaTime": 128,
				"channel": 9,
				"type": "channel",
				"noteNumber": 40,
				"velocity": 127,
				"subtype": "noteOn"
			},
			{
				"deltaTime": 0,
				"channel": 9,
				"type": "channel",
				"noteNumber": 51,
				"velocity": 127,
				"subtype": "noteOn"
			},
			{
				"deltaTime": 120,
				"channel": 9,
				"type": "channel",
				"subtype": "noteOff",
				"noteNumber": 51,
				"velocity": 64
			},
			{
				"deltaTime": 86,
				"channel": 9,
				"type": "channel",
				"subtype": "noteOff",
				"noteNumber": 36,
				"velocity": 64
			},
			{
				"deltaTime": 94,
				"channel": 9,
				"type": "channel",
				"subtype": "noteOff",
				"noteNumber": 40,
				"velocity": 64
			},
			{
				"deltaTime": 17,
				"channel": 9,
				"type": "channel",
				"noteNumber": 36,
				"velocity": 72,
				"subtype": "noteOn"
			},
			{
				"deltaTime": 0,
				"channel": 9,
				"type": "channel",
				"noteNumber": 51,
				"velocity": 107,
				"subtype": "noteOn"
			},
			{
				"deltaTime": 55,
				"channel": 9,
				"type": "channel",
				"subtype": "noteOff",
				"noteNumber": 51,
				"velocity": 64
			},
			{
				"deltaTime": 25,
				"channel": 9,
				"type": "channel",
				"subtype": "noteOff",
				"noteNumber": 36,
				"velocity": 64
			},
			{
				"deltaTime": 80,
				"channel": 9,
				"type": "channel",
				"noteNumber": 36,
				"velocity": 80,
				"subtype": "noteOn"
			},
			{
				"deltaTime": 0,
				"channel": 9,
				"type": "channel",
				"noteNumber": 51,
				"velocity": 113,
				"subtype": "noteOn"
			},
			{
				"deltaTime": 95,
				"channel": 9,
				"type": "channel",
				"subtype": "noteOff",
				"noteNumber": 51,
				"velocity": 64
			},
			{
				"deltaTime": 223,
				"channel": 9,
				"type": "channel",
				"noteNumber": 51,
				"velocity": 68,
				"subtype": "noteOn"
			},
			{
				"deltaTime": 25,
				"channel": 9,
				"type": "channel",
				"subtype": "noteOff",
				"noteNumber": 51,
				"velocity": 64
			},
			{
				"deltaTime": 144,
				"channel": 9,
				"type": "channel",
				"noteNumber": 40,
				"velocity": 127,
				"subtype": "noteOn"
			},
			{
				"deltaTime": 0,
				"channel": 9,
				"type": "channel",
				"noteNumber": 51,
				"velocity": 127,
				"subtype": "noteOn"
			},
			{
				"deltaTime": 140,
				"channel": 9,
				"type": "channel",
				"subtype": "noteOff",
				"noteNumber": 51,
				"velocity": 64
			},
			{
				"deltaTime": 73,
				"channel": 9,
				"type": "channel",
				"subtype": "noteOff",
				"noteNumber": 36,
				"velocity": 64
			},
			{
				"deltaTime": 82,
				"channel": 9,
				"type": "channel",
				"subtype": "noteOff",
				"noteNumber": 40,
				"velocity": 64
			},
			{
				"deltaTime": 8,
				"channel": 9,
				"type": "channel",
				"noteNumber": 36,
				"velocity": 72,
				"subtype": "noteOn"
			},
			{
				"deltaTime": 0,
				"channel": 9,
				"type": "channel",
				"noteNumber": 51,
				"velocity": 98,
				"subtype": "noteOn"
			},
			{
				"deltaTime": 45,
				"channel": 9,
				"type": "channel",
				"subtype": "noteOff",
				"noteNumber": 51,
				"velocity": 64
			},
			{
				"deltaTime": 10,
				"channel": 9,
				"type": "channel",
				"subtype": "noteOff",
				"noteNumber": 36,
				"velocity": 64
			},
			{
				"deltaTime": 114,
				"channel": 9,
				"type": "channel",
				"noteNumber": 36,
				"velocity": 98,
				"subtype": "noteOn"
			},
			{
				"deltaTime": 0,
				"channel": 9,
				"type": "channel",
				"noteNumber": 51,
				"velocity": 113,
				"subtype": "noteOn"
			},
			{
				"deltaTime": 90,
				"channel": 9,
				"type": "channel",
				"subtype": "noteOff",
				"noteNumber": 51,
				"velocity": 64
			},
			{
				"deltaTime": 231,
				"channel": 9,
				"type": "channel",
				"noteNumber": 40,
				"velocity": 76,
				"subtype": "noteOn"
			},
			{
				"deltaTime": 0,
				"channel": 9,
				"type": "channel",
				"noteNumber": 51,
				"velocity": 89,
				"subtype": "noteOn"
			},
			{
				"deltaTime": 35,
				"channel": 9,
				"type": "channel",
				"subtype": "noteOff",
				"noteNumber": 51,
				"velocity": 64
			},
			{
				"deltaTime": 15,
				"channel": 9,
				"type": "channel",
				"subtype": "noteOff",
				"noteNumber": 40,
				"velocity": 64
			},
			{
				"deltaTime": 113,
				"channel": 9,
				"type": "channel",
				"noteNumber": 40,
				"velocity": 107,
				"subtype": "noteOn"
			},
			{
				"deltaTime": 0,
				"channel": 9,
				"type": "channel",
				"noteNumber": 51,
				"velocity": 127,
				"subtype": "noteOn"
			},
			{
				"deltaTime": 60,
				"channel": 9,
				"type": "channel",
				"subtype": "noteOff",
				"noteNumber": 40,
				"velocity": 64
			},
			{
				"deltaTime": 60,
				"channel": 9,
				"type": "channel",
				"subtype": "noteOff",
				"noteNumber": 51,
				"velocity": 64
			},
			{
				"deltaTime": 37,
				"channel": 9,
				"type": "channel",
				"noteNumber": 40,
				"velocity": 119,
				"subtype": "noteOn"
			},
			{
				"deltaTime": 9,
				"channel": 9,
				"type": "channel",
				"subtype": "noteOff",
				"noteNumber": 36,
				"velocity": 64
			},
			{
				"deltaTime": 56,
				"channel": 9,
				"type": "channel",
				"subtype": "noteOff",
				"noteNumber": 40,
				"velocity": 64
			},
			{
				"deltaTime": 95,
				"channel": 9,
				"type": "channel",
				"noteNumber": 36,
				"velocity": 76,
				"subtype": "noteOn"
			},
			{
				"deltaTime": 0,
				"channel": 9,
				"type": "channel",
				"noteNumber": 40,
				"velocity": 127,
				"subtype": "noteOn"
			},
			{
				"deltaTime": 0,
				"channel": 9,
				"type": "channel",
				"noteNumber": 51,
				"velocity": 102,
				"subtype": "noteOn"
			},
			{
				"deltaTime": 45,
				"channel": 9,
				"type": "channel",
				"subtype": "noteOff",
				"noteNumber": 51,
				"velocity": 64
			},
			{
				"deltaTime": 20,
				"channel": 9,
				"type": "channel",
				"subtype": "noteOff",
				"noteNumber": 36,
				"velocity": 64
			},
			{
				"deltaTime": 35,
				"channel": 9,
				"type": "channel",
				"subtype": "noteOff",
				"noteNumber": 40,
				"velocity": 64
			},
			{
				"deltaTime": 60,
				"channel": 9,
				"type": "channel",
				"noteNumber": 36,
				"velocity": 76,
				"subtype": "noteOn"
			},
			{
				"deltaTime": 0,
				"channel": 9,
				"type": "channel",
				"noteNumber": 49,
				"velocity": 107,
				"subtype": "noteOn"
			},
			{
				"deltaTime": 0,
				"channel": 9,
				"type": "channel",
				"noteNumber": 51,
				"velocity": 127,
				"subtype": "noteOn"
			},
			{
				"deltaTime": 35,
				"channel": 9,
				"type": "channel",
				"subtype": "noteOff",
				"noteNumber": 49,
				"velocity": 64
			},
			{
				"deltaTime": 35,
				"channel": 9,
				"type": "channel",
				"subtype": "noteOff",
				"noteNumber": 51,
				"velocity": 64
			},
			{
				"deltaTime": 248,
				"channel": 9,
				"type": "channel",
				"noteNumber": 51,
				"velocity": 85,
				"subtype": "noteOn"
			},
			{
				"deltaTime": 20,
				"channel": 9,
				"type": "channel",
				"subtype": "noteOff",
				"noteNumber": 51,
				"velocity": 64
			},
			{
				"deltaTime": 149,
				"channel": 9,
				"type": "channel",
				"noteNumber": 40,
				"velocity": 127,
				"subtype": "noteOn"
			},
			{
				"deltaTime": 0,
				"channel": 9,
				"type": "channel",
				"noteNumber": 51,
				"velocity": 127,
				"subtype": "noteOn"
			},
			{
				"deltaTime": 110,
				"channel": 9,
				"type": "channel",
				"subtype": "noteOff",
				"noteNumber": 51,
				"velocity": 64
			},
			{
				"deltaTime": 43,
				"channel": 9,
				"type": "channel",
				"subtype": "noteOff",
				"noteNumber": 36,
				"velocity": 64
			},
			{
				"deltaTime": 150,
				"channel": 9,
				"type": "channel",
				"noteNumber": 36,
				"velocity": 93,
				"subtype": "noteOn"
			},
			{
				"deltaTime": 0,
				"channel": 9,
				"type": "channel",
				"noteNumber": 51,
				"velocity": 107,
				"subtype": "noteOn"
			},
			{
				"deltaTime": 17,
				"channel": 9,
				"type": "channel",
				"subtype": "noteOff",
				"noteNumber": 40,
				"velocity": 64
			},
			{
				"deltaTime": 28,
				"channel": 9,
				"type": "channel",
				"subtype": "noteOff",
				"noteNumber": 51,
				"velocity": 64
			},
			{
				"deltaTime": 20,
				"channel": 9,
				"type": "channel",
				"subtype": "noteOff",
				"noteNumber": 36,
				"velocity": 64
			},
			{
				"deltaTime": 104,
				"channel": 9,
				"type": "channel",
				"noteNumber": 36,
				"velocity": 93,
				"subtype": "noteOn"
			},
			{
				"deltaTime": 0,
				"channel": 9,
				"type": "channel",
				"noteNumber": 51,
				"velocity": 127,
				"subtype": "noteOn"
			},
			{
				"deltaTime": 60,
				"channel": 9,
				"type": "channel",
				"subtype": "noteOff",
				"noteNumber": 51,
				"velocity": 64
			},
			{
				"deltaTime": 261,
				"channel": 9,
				"type": "channel",
				"noteNumber": 51,
				"velocity": 98,
				"subtype": "noteOn"
			},
			{
				"deltaTime": 35,
				"channel": 9,
				"type": "channel",
				"subtype": "noteOff",
				"noteNumber": 51,
				"velocity": 64
			},
			{
				"deltaTime": 128,
				"channel": 9,
				"type": "channel",
				"noteNumber": 40,
				"velocity": 127,
				"subtype": "noteOn"
			},
			{
				"deltaTime": 0,
				"channel": 9,
				"type": "channel",
				"noteNumber": 51,
				"velocity": 127,
				"subtype": "noteOn"
			},
			{
				"deltaTime": 75,
				"channel": 9,
				"type": "channel",
				"subtype": "noteOff",
				"noteNumber": 51,
				"velocity": 64
			},
			{
				"deltaTime": 71,
				"channel": 9,
				"type": "channel",
				"subtype": "noteOff",
				"noteNumber": 36,
				"velocity": 64
			},
			{
				"deltaTime": 159,
				"channel": 9,
				"type": "channel",
				"subtype": "noteOff",
				"noteNumber": 40,
				"velocity": 64
			},
			{
				"deltaTime": 12,
				"channel": 9,
				"type": "channel",
				"noteNumber": 36,
				"velocity": 72,
				"subtype": "noteOn"
			},
			{
				"deltaTime": 0,
				"channel": 9,
				"type": "channel",
				"noteNumber": 51,
				"velocity": 113,
				"subtype": "noteOn"
			},
			{
				"deltaTime": 45,
				"channel": 9,
				"type": "channel",
				"subtype": "noteOff",
				"noteNumber": 51,
				"velocity": 64
			},
			{
				"deltaTime": 20,
				"channel": 9,
				"type": "channel",
				"subtype": "noteOff",
				"noteNumber": 36,
				"velocity": 64
			},
			{
				"deltaTime": 95,
				"channel": 9,
				"type": "channel",
				"noteNumber": 36,
				"velocity": 107,
				"subtype": "noteOn"
			},
			{
				"deltaTime": 0,
				"channel": 9,
				"type": "channel",
				"noteNumber": 51,
				"velocity": 127,
				"subtype": "noteOn"
			},
			{
				"deltaTime": 70,
				"channel": 9,
				"type": "channel",
				"subtype": "noteOff",
				"noteNumber": 51,
				"velocity": 64
			},
			{
				"deltaTime": 248,
				"channel": 9,
				"type": "channel",
				"noteNumber": 51,
				"velocity": 85,
				"subtype": "noteOn"
			},
			{
				"deltaTime": 35,
				"channel": 9,
				"type": "channel",
				"subtype": "noteOff",
				"noteNumber": 51,
				"velocity": 64
			},
			{
				"deltaTime": 134,
				"channel": 9,
				"type": "channel",
				"noteNumber": 40,
				"velocity": 127,
				"subtype": "noteOn"
			},
			{
				"deltaTime": 0,
				"channel": 9,
				"type": "channel",
				"noteNumber": 51,
				"velocity": 127,
				"subtype": "noteOn"
			},
			{
				"deltaTime": 75,
				"channel": 9,
				"type": "channel",
				"subtype": "noteOff",
				"noteNumber": 51,
				"velocity": 64
			},
			{
				"deltaTime": 78,
				"channel": 9,
				"type": "channel",
				"subtype": "noteOff",
				"noteNumber": 36,
				"velocity": 64
			},
			{
				"deltaTime": 150,
				"channel": 9,
				"type": "channel",
				"noteNumber": 36,
				"velocity": 85,
				"subtype": "noteOn"
			},
			{
				"deltaTime": 0,
				"channel": 9,
				"type": "channel",
				"noteNumber": 51,
				"velocity": 107,
				"subtype": "noteOn"
			},
			{
				"deltaTime": 32,
				"channel": 9,
				"type": "channel",
				"subtype": "noteOff",
				"noteNumber": 40,
				"velocity": 64
			},
			{
				"deltaTime": 8,
				"channel": 9,
				"type": "channel",
				"subtype": "noteOff",
				"noteNumber": 51,
				"velocity": 64
			},
			{
				"deltaTime": 25,
				"channel": 9,
				"type": "channel",
				"subtype": "noteOff",
				"noteNumber": 36,
				"velocity": 64
			},
			{
				"deltaTime": 104,
				"channel": 9,
				"type": "channel",
				"noteNumber": 36,
				"velocity": 85,
				"subtype": "noteOn"
			},
			{
				"deltaTime": 0,
				"channel": 9,
				"type": "channel",
				"noteNumber": 51,
				"velocity": 107,
				"subtype": "noteOn"
			},
			{
				"deltaTime": 55,
				"channel": 9,
				"type": "channel",
				"subtype": "noteOff",
				"noteNumber": 51,
				"velocity": 64
			},
			{
				"deltaTime": 266,
				"channel": 9,
				"type": "channel",
				"noteNumber": 51,
				"velocity": 107,
				"subtype": "noteOn"
			},
			{
				"deltaTime": 45,
				"channel": 9,
				"type": "channel",
				"subtype": "noteOff",
				"noteNumber": 51,
				"velocity": 64
			},
			{
				"deltaTime": 118,
				"channel": 9,
				"type": "channel",
				"noteNumber": 40,
				"velocity": 127,
				"subtype": "noteOn"
			},
			{
				"deltaTime": 0,
				"channel": 9,
				"type": "channel",
				"noteNumber": 51,
				"velocity": 127,
				"subtype": "noteOn"
			},
			{
				"deltaTime": 75,
				"channel": 9,
				"type": "channel",
				"subtype": "noteOff",
				"noteNumber": 51,
				"velocity": 64
			},
			{
				"deltaTime": 76,
				"channel": 9,
				"type": "channel",
				"subtype": "noteOff",
				"noteNumber": 36,
				"velocity": 64
			},
			{
				"deltaTime": 49,
				"channel": 9,
				"type": "channel",
				"subtype": "noteOff",
				"noteNumber": 40,
				"velocity": 64
			},
			{
				"deltaTime": 117,
				"channel": 9,
				"type": "channel",
				"noteNumber": 36,
				"velocity": 93,
				"subtype": "noteOn"
			},
			{
				"deltaTime": 0,
				"channel": 9,
				"type": "channel",
				"noteNumber": 51,
				"velocity": 127,
				"subtype": "noteOn"
			},
			{
				"deltaTime": 35,
				"channel": 9,
				"type": "channel",
				"subtype": "noteOff",
				"noteNumber": 51,
				"velocity": 64
			},
			{
				"deltaTime": 5,
				"channel": 9,
				"type": "channel",
				"subtype": "noteOff",
				"noteNumber": 36,
				"velocity": 64
			},
			{
				"deltaTime": 120,
				"channel": 9,
				"type": "channel",
				"noteNumber": 36,
				"velocity": 107,
				"subtype": "noteOn"
			},
			{
				"deltaTime": 0,
				"channel": 9,
				"type": "channel",
				"noteNumber": 51,
				"velocity": 127,
				"subtype": "noteOn"
			},
			{
				"deltaTime": 0,
				"channel": 9,
				"type": "channel",
				"noteNumber": 57,
				"velocity": 98,
				"subtype": "noteOn"
			},
			{
				"deltaTime": 40,
				"channel": 9,
				"type": "channel",
				"subtype": "noteOff",
				"noteNumber": 51,
				"velocity": 64
			},
			{
				"deltaTime": 0,
				"channel": 9,
				"type": "channel",
				"subtype": "noteOff",
				"noteNumber": 57,
				"velocity": 64
			},
			{
				"deltaTime": 278,
				"channel": 9,
				"type": "channel",
				"noteNumber": 51,
				"velocity": 68,
				"subtype": "noteOn"
			},
			{
				"deltaTime": 25,
				"channel": 9,
				"type": "channel",
				"subtype": "noteOff",
				"noteNumber": 51,
				"velocity": 64
			},
			{
				"deltaTime": 144,
				"channel": 9,
				"type": "channel",
				"noteNumber": 40,
				"velocity": 127,
				"subtype": "noteOn"
			},
			{
				"deltaTime": 0,
				"channel": 9,
				"type": "channel",
				"noteNumber": 51,
				"velocity": 127,
				"subtype": "noteOn"
			},
			{
				"deltaTime": 125,
				"channel": 9,
				"type": "channel",
				"subtype": "noteOff",
				"noteNumber": 51,
				"velocity": 64
			},
			{
				"deltaTime": 38,
				"channel": 9,
				"type": "channel",
				"subtype": "noteOff",
				"noteNumber": 36,
				"velocity": 64
			},
			{
				"deltaTime": 140,
				"channel": 9,
				"type": "channel",
				"noteNumber": 36,
				"velocity": 50,
				"subtype": "noteOn"
			},
			{
				"deltaTime": 0,
				"channel": 9,
				"type": "channel",
				"noteNumber": 51,
				"velocity": 102,
				"subtype": "noteOn"
			},
			{
				"deltaTime": 50,
				"channel": 9,
				"type": "channel",
				"subtype": "noteOff",
				"noteNumber": 36,
				"velocity": 64
			},
			{
				"deltaTime": 0,
				"channel": 9,
				"type": "channel",
				"subtype": "noteOff",
				"noteNumber": 51,
				"velocity": 64
			},
			{
				"deltaTime": 22,
				"channel": 9,
				"type": "channel",
				"subtype": "noteOff",
				"noteNumber": 40,
				"velocity": 64
			},
			{
				"deltaTime": 97,
				"channel": 9,
				"type": "channel",
				"noteNumber": 36,
				"velocity": 85,
				"subtype": "noteOn"
			},
			{
				"deltaTime": 0,
				"channel": 9,
				"type": "channel",
				"noteNumber": 51,
				"velocity": 113,
				"subtype": "noteOn"
			},
			{
				"deltaTime": 95,
				"channel": 9,
				"type": "channel",
				"subtype": "noteOff",
				"noteNumber": 51,
				"velocity": 64
			},
			{
				"deltaTime": 226,
				"channel": 9,
				"type": "channel",
				"noteNumber": 51,
				"velocity": 93,
				"subtype": "noteOn"
			},
			{
				"deltaTime": 35,
				"channel": 9,
				"type": "channel",
				"subtype": "noteOff",
				"noteNumber": 51,
				"velocity": 64
			},
			{
				"deltaTime": 128,
				"channel": 9,
				"type": "channel",
				"noteNumber": 40,
				"velocity": 127,
				"subtype": "noteOn"
			},
			{
				"deltaTime": 0,
				"channel": 9,
				"type": "channel",
				"noteNumber": 51,
				"velocity": 127,
				"subtype": "noteOn"
			},
			{
				"deltaTime": 120,
				"channel": 9,
				"type": "channel",
				"subtype": "noteOff",
				"noteNumber": 51,
				"velocity": 64
			},
			{
				"deltaTime": 86,
				"channel": 9,
				"type": "channel",
				"subtype": "noteOff",
				"noteNumber": 36,
				"velocity": 64
			},
			{
				"deltaTime": 94,
				"channel": 9,
				"type": "channel",
				"subtype": "noteOff",
				"noteNumber": 40,
				"velocity": 64
			},
			{
				"deltaTime": 17,
				"channel": 9,
				"type": "channel",
				"noteNumber": 36,
				"velocity": 72,
				"subtype": "noteOn"
			},
			{
				"deltaTime": 0,
				"channel": 9,
				"type": "channel",
				"noteNumber": 51,
				"velocity": 107,
				"subtype": "noteOn"
			},
			{
				"deltaTime": 55,
				"channel": 9,
				"type": "channel",
				"subtype": "noteOff",
				"noteNumber": 51,
				"velocity": 64
			},
			{
				"deltaTime": 25,
				"channel": 9,
				"type": "channel",
				"subtype": "noteOff",
				"noteNumber": 36,
				"velocity": 64
			},
			{
				"deltaTime": 80,
				"channel": 9,
				"type": "channel",
				"noteNumber": 36,
				"velocity": 80,
				"subtype": "noteOn"
			},
			{
				"deltaTime": 0,
				"channel": 9,
				"type": "channel",
				"noteNumber": 51,
				"velocity": 113,
				"subtype": "noteOn"
			},
			{
				"deltaTime": 95,
				"channel": 9,
				"type": "channel",
				"subtype": "noteOff",
				"noteNumber": 51,
				"velocity": 64
			},
			{
				"deltaTime": 223,
				"channel": 9,
				"type": "channel",
				"noteNumber": 51,
				"velocity": 68,
				"subtype": "noteOn"
			},
			{
				"deltaTime": 25,
				"channel": 9,
				"type": "channel",
				"subtype": "noteOff",
				"noteNumber": 51,
				"velocity": 64
			},
			{
				"deltaTime": 144,
				"channel": 9,
				"type": "channel",
				"noteNumber": 40,
				"velocity": 127,
				"subtype": "noteOn"
			},
			{
				"deltaTime": 0,
				"channel": 9,
				"type": "channel",
				"noteNumber": 49,
				"velocity": 113,
				"subtype": "noteOn"
			},
			{
				"deltaTime": 0,
				"channel": 9,
				"type": "channel",
				"noteNumber": 51,
				"velocity": 127,
				"subtype": "noteOn"
			},
			{
				"deltaTime": 60,
				"channel": 9,
				"type": "channel",
				"subtype": "noteOff",
				"noteNumber": 49,
				"velocity": 64
			},
			{
				"deltaTime": 80,
				"channel": 9,
				"type": "channel",
				"subtype": "noteOff",
				"noteNumber": 51,
				"velocity": 64
			},
			{
				"deltaTime": 73,
				"channel": 9,
				"type": "channel",
				"subtype": "noteOff",
				"noteNumber": 36,
				"velocity": 64
			},
			{
				"deltaTime": 82,
				"channel": 9,
				"type": "channel",
				"subtype": "noteOff",
				"noteNumber": 40,
				"velocity": 64
			},
			{
				"deltaTime": 8,
				"channel": 9,
				"type": "channel",
				"noteNumber": 36,
				"velocity": 72,
				"subtype": "noteOn"
			},
			{
				"deltaTime": 0,
				"channel": 9,
				"type": "channel",
				"noteNumber": 51,
				"velocity": 98,
				"subtype": "noteOn"
			},
			{
				"deltaTime": 45,
				"channel": 9,
				"type": "channel",
				"subtype": "noteOff",
				"noteNumber": 51,
				"velocity": 64
			},
			{
				"deltaTime": 10,
				"channel": 9,
				"type": "channel",
				"subtype": "noteOff",
				"noteNumber": 36,
				"velocity": 64
			},
			{
				"deltaTime": 114,
				"channel": 9,
				"type": "channel",
				"noteNumber": 36,
				"velocity": 98,
				"subtype": "noteOn"
			},
			{
				"deltaTime": 0,
				"channel": 9,
				"type": "channel",
				"noteNumber": 51,
				"velocity": 113,
				"subtype": "noteOn"
			},
			{
				"deltaTime": 90,
				"channel": 9,
				"type": "channel",
				"subtype": "noteOff",
				"noteNumber": 51,
				"velocity": 64
			},
			{
				"deltaTime": 231,
				"channel": 9,
				"type": "channel",
				"noteNumber": 51,
				"velocity": 89,
				"subtype": "noteOn"
			},
			{
				"deltaTime": 35,
				"channel": 9,
				"type": "channel",
				"subtype": "noteOff",
				"noteNumber": 51,
				"velocity": 64
			},
			{
				"deltaTime": 128,
				"channel": 9,
				"type": "channel",
				"noteNumber": 40,
				"velocity": 127,
				"subtype": "noteOn"
			},
			{
				"deltaTime": 0,
				"channel": 9,
				"type": "channel",
				"noteNumber": 51,
				"velocity": 127,
				"subtype": "noteOn"
			},
			{
				"deltaTime": 0,
				"channel": 9,
				"type": "channel",
				"noteNumber": 57,
				"velocity": 107,
				"subtype": "noteOn"
			},
			{
				"deltaTime": 60,
				"channel": 9,
				"type": "channel",
				"subtype": "noteOff",
				"noteNumber": 57,
				"velocity": 64
			},
			{
				"deltaTime": 60,
				"channel": 9,
				"type": "channel",
				"subtype": "noteOff",
				"noteNumber": 51,
				"velocity": 64
			},
			{
				"deltaTime": 46,
				"channel": 9,
				"type": "channel",
				"subtype": "noteOff",
				"noteNumber": 36,
				"velocity": 64
			},
			{
				"deltaTime": 144,
				"channel": 9,
				"type": "channel",
				"subtype": "noteOff",
				"noteNumber": 40,
				"velocity": 64
			},
			{
				"deltaTime": 7,
				"channel": 9,
				"type": "channel",
				"noteNumber": 36,
				"velocity": 76,
				"subtype": "noteOn"
			},
			{
				"deltaTime": 0,
				"channel": 9,
				"type": "channel",
				"noteNumber": 51,
				"velocity": 102,
				"subtype": "noteOn"
			},
			{
				"deltaTime": 45,
				"channel": 9,
				"type": "channel",
				"subtype": "noteOff",
				"noteNumber": 51,
				"velocity": 64
			},
			{
				"deltaTime": 20,
				"channel": 9,
				"type": "channel",
				"subtype": "noteOff",
				"noteNumber": 36,
				"velocity": 64
			},
			{
				"deltaTime": 95,
				"channel": 9,
				"type": "channel",
				"noteNumber": 36,
				"velocity": 76,
				"subtype": "noteOn"
			},
			{
				"deltaTime": 0,
				"channel": 9,
				"type": "channel",
				"noteNumber": 51,
				"velocity": 127,
				"subtype": "noteOn"
			},
			{
				"deltaTime": 70,
				"channel": 9,
				"type": "channel",
				"subtype": "noteOff",
				"noteNumber": 51,
				"velocity": 64
			},
			{
				"deltaTime": 248,
				"channel": 9,
				"type": "channel",
				"noteNumber": 51,
				"velocity": 85,
				"subtype": "noteOn"
			},
			{
				"deltaTime": 20,
				"channel": 9,
				"type": "channel",
				"subtype": "noteOff",
				"noteNumber": 51,
				"velocity": 64
			},
			{
				"deltaTime": 149,
				"channel": 9,
				"type": "channel",
				"noteNumber": 40,
				"velocity": 127,
				"subtype": "noteOn"
			},
			{
				"deltaTime": 0,
				"channel": 9,
				"type": "channel",
				"noteNumber": 49,
				"velocity": 113,
				"subtype": "noteOn"
			},
			{
				"deltaTime": 0,
				"channel": 9,
				"type": "channel",
				"noteNumber": 51,
				"velocity": 127,
				"subtype": "noteOn"
			},
			{
				"deltaTime": 50,
				"channel": 9,
				"type": "channel",
				"subtype": "noteOff",
				"noteNumber": 49,
				"velocity": 64
			},
			{
				"deltaTime": 60,
				"channel": 9,
				"type": "channel",
				"subtype": "noteOff",
				"noteNumber": 51,
				"velocity": 64
			},
			{
				"deltaTime": 43,
				"channel": 9,
				"type": "channel",
				"subtype": "noteOff",
				"noteNumber": 36,
				"velocity": 64
			},
			{
				"deltaTime": 150,
				"channel": 9,
				"type": "channel",
				"noteNumber": 36,
				"velocity": 93,
				"subtype": "noteOn"
			},
			{
				"deltaTime": 0,
				"channel": 9,
				"type": "channel",
				"noteNumber": 51,
				"velocity": 107,
				"subtype": "noteOn"
			},
			{
				"deltaTime": 17,
				"channel": 9,
				"type": "channel",
				"subtype": "noteOff",
				"noteNumber": 40,
				"velocity": 64
			},
			{
				"deltaTime": 28,
				"channel": 9,
				"type": "channel",
				"subtype": "noteOff",
				"noteNumber": 51,
				"velocity": 64
			},
			{
				"deltaTime": 20,
				"channel": 9,
				"type": "channel",
				"subtype": "noteOff",
				"noteNumber": 36,
				"velocity": 64
			},
			{
				"deltaTime": 104,
				"channel": 9,
				"type": "channel",
				"noteNumber": 36,
				"velocity": 93,
				"subtype": "noteOn"
			},
			{
				"deltaTime": 0,
				"channel": 9,
				"type": "channel",
				"noteNumber": 51,
				"velocity": 127,
				"subtype": "noteOn"
			},
			{
				"deltaTime": 60,
				"channel": 9,
				"type": "channel",
				"subtype": "noteOff",
				"noteNumber": 51,
				"velocity": 64
			},
			{
				"deltaTime": 261,
				"channel": 9,
				"type": "channel",
				"noteNumber": 51,
				"velocity": 98,
				"subtype": "noteOn"
			},
			{
				"deltaTime": 35,
				"channel": 9,
				"type": "channel",
				"subtype": "noteOff",
				"noteNumber": 51,
				"velocity": 64
			},
			{
				"deltaTime": 128,
				"channel": 9,
				"type": "channel",
				"noteNumber": 40,
				"velocity": 127,
				"subtype": "noteOn"
			},
			{
				"deltaTime": 0,
				"channel": 9,
				"type": "channel",
				"noteNumber": 51,
				"velocity": 127,
				"subtype": "noteOn"
			},
			{
				"deltaTime": 75,
				"channel": 9,
				"type": "channel",
				"subtype": "noteOff",
				"noteNumber": 51,
				"velocity": 64
			},
			{
				"deltaTime": 71,
				"channel": 9,
				"type": "channel",
				"subtype": "noteOff",
				"noteNumber": 36,
				"velocity": 64
			},
			{
				"deltaTime": 159,
				"channel": 9,
				"type": "channel",
				"subtype": "noteOff",
				"noteNumber": 40,
				"velocity": 64
			},
			{
				"deltaTime": 12,
				"channel": 9,
				"type": "channel",
				"noteNumber": 36,
				"velocity": 72,
				"subtype": "noteOn"
			},
			{
				"deltaTime": 0,
				"channel": 9,
				"type": "channel",
				"noteNumber": 51,
				"velocity": 113,
				"subtype": "noteOn"
			},
			{
				"deltaTime": 45,
				"channel": 9,
				"type": "channel",
				"subtype": "noteOff",
				"noteNumber": 51,
				"velocity": 64
			},
			{
				"deltaTime": 20,
				"channel": 9,
				"type": "channel",
				"subtype": "noteOff",
				"noteNumber": 36,
				"velocity": 64
			},
			{
				"deltaTime": 95,
				"channel": 9,
				"type": "channel",
				"noteNumber": 36,
				"velocity": 107,
				"subtype": "noteOn"
			},
			{
				"deltaTime": 0,
				"channel": 9,
				"type": "channel",
				"noteNumber": 51,
				"velocity": 127,
				"subtype": "noteOn"
			},
			{
				"deltaTime": 70,
				"channel": 9,
				"type": "channel",
				"subtype": "noteOff",
				"noteNumber": 51,
				"velocity": 64
			},
			{
				"deltaTime": 248,
				"channel": 9,
				"type": "channel",
				"noteNumber": 51,
				"velocity": 85,
				"subtype": "noteOn"
			},
			{
				"deltaTime": 35,
				"channel": 9,
				"type": "channel",
				"subtype": "noteOff",
				"noteNumber": 51,
				"velocity": 64
			},
			{
				"deltaTime": 134,
				"channel": 9,
				"type": "channel",
				"noteNumber": 40,
				"velocity": 127,
				"subtype": "noteOn"
			},
			{
				"deltaTime": 0,
				"channel": 9,
				"type": "channel",
				"noteNumber": 51,
				"velocity": 127,
				"subtype": "noteOn"
			},
			{
				"deltaTime": 0,
				"channel": 9,
				"type": "channel",
				"noteNumber": 57,
				"velocity": 107,
				"subtype": "noteOn"
			},
			{
				"deltaTime": 40,
				"channel": 9,
				"type": "channel",
				"subtype": "noteOff",
				"noteNumber": 57,
				"velocity": 64
			},
			{
				"deltaTime": 35,
				"channel": 9,
				"type": "channel",
				"subtype": "noteOff",
				"noteNumber": 51,
				"velocity": 64
			},
			{
				"deltaTime": 78,
				"channel": 9,
				"type": "channel",
				"subtype": "noteOff",
				"noteNumber": 36,
				"velocity": 64
			},
			{
				"deltaTime": 150,
				"channel": 9,
				"type": "channel",
				"noteNumber": 36,
				"velocity": 85,
				"subtype": "noteOn"
			},
			{
				"deltaTime": 0,
				"channel": 9,
				"type": "channel",
				"noteNumber": 51,
				"velocity": 107,
				"subtype": "noteOn"
			},
			{
				"deltaTime": 32,
				"channel": 9,
				"type": "channel",
				"subtype": "noteOff",
				"noteNumber": 40,
				"velocity": 64
			},
			{
				"deltaTime": 8,
				"channel": 9,
				"type": "channel",
				"subtype": "noteOff",
				"noteNumber": 51,
				"velocity": 64
			},
			{
				"deltaTime": 25,
				"channel": 9,
				"type": "channel",
				"subtype": "noteOff",
				"noteNumber": 36,
				"velocity": 64
			},
			{
				"deltaTime": 104,
				"channel": 9,
				"type": "channel",
				"noteNumber": 36,
				"velocity": 85,
				"subtype": "noteOn"
			},
			{
				"deltaTime": 0,
				"channel": 9,
				"type": "channel",
				"noteNumber": 51,
				"velocity": 107,
				"subtype": "noteOn"
			},
			{
				"deltaTime": 55,
				"channel": 9,
				"type": "channel",
				"subtype": "noteOff",
				"noteNumber": 51,
				"velocity": 64
			},
			{
				"deltaTime": 266,
				"channel": 9,
				"type": "channel",
				"noteNumber": 51,
				"velocity": 107,
				"subtype": "noteOn"
			},
			{
				"deltaTime": 45,
				"channel": 9,
				"type": "channel",
				"subtype": "noteOff",
				"noteNumber": 51,
				"velocity": 64
			},
			{
				"deltaTime": 118,
				"channel": 9,
				"type": "channel",
				"noteNumber": 40,
				"velocity": 127,
				"subtype": "noteOn"
			},
			{
				"deltaTime": 0,
				"channel": 9,
				"type": "channel",
				"noteNumber": 51,
				"velocity": 127,
				"subtype": "noteOn"
			},
			{
				"deltaTime": 75,
				"channel": 9,
				"type": "channel",
				"subtype": "noteOff",
				"noteNumber": 51,
				"velocity": 64
			},
			{
				"deltaTime": 76,
				"channel": 9,
				"type": "channel",
				"subtype": "noteOff",
				"noteNumber": 36,
				"velocity": 64
			},
			{
				"deltaTime": 49,
				"channel": 9,
				"type": "channel",
				"subtype": "noteOff",
				"noteNumber": 40,
				"velocity": 64
			},
			{
				"deltaTime": 117,
				"channel": 9,
				"type": "channel",
				"noteNumber": 36,
				"velocity": 93,
				"subtype": "noteOn"
			},
			{
				"deltaTime": 0,
				"channel": 9,
				"type": "channel",
				"noteNumber": 51,
				"velocity": 127,
				"subtype": "noteOn"
			},
			{
				"deltaTime": 35,
				"channel": 9,
				"type": "channel",
				"subtype": "noteOff",
				"noteNumber": 51,
				"velocity": 64
			},
			{
				"deltaTime": 5,
				"channel": 9,
				"type": "channel",
				"subtype": "noteOff",
				"noteNumber": 36,
				"velocity": 64
			},
			{
				"deltaTime": 120,
				"channel": 9,
				"type": "channel",
				"noteNumber": 36,
				"velocity": 107,
				"subtype": "noteOn"
			},
			{
				"deltaTime": 0,
				"channel": 9,
				"type": "channel",
				"noteNumber": 49,
				"velocity": 102,
				"subtype": "noteOn"
			},
			{
				"deltaTime": 0,
				"channel": 9,
				"type": "channel",
				"noteNumber": 51,
				"velocity": 127,
				"subtype": "noteOn"
			},
			{
				"deltaTime": 40,
				"channel": 9,
				"type": "channel",
				"subtype": "noteOff",
				"noteNumber": 51,
				"velocity": 64
			},
			{
				"deltaTime": 10,
				"channel": 9,
				"type": "channel",
				"subtype": "noteOff",
				"noteNumber": 49,
				"velocity": 64
			},
			{
				"deltaTime": 268,
				"channel": 9,
				"type": "channel",
				"noteNumber": 51,
				"velocity": 68,
				"subtype": "noteOn"
			},
			{
				"deltaTime": 25,
				"channel": 9,
				"type": "channel",
				"subtype": "noteOff",
				"noteNumber": 51,
				"velocity": 64
			},
			{
				"deltaTime": 144,
				"channel": 9,
				"type": "channel",
				"noteNumber": 40,
				"velocity": 127,
				"subtype": "noteOn"
			},
			{
				"deltaTime": 0,
				"channel": 9,
				"type": "channel",
				"noteNumber": 51,
				"velocity": 127,
				"subtype": "noteOn"
			},
			{
				"deltaTime": 125,
				"channel": 9,
				"type": "channel",
				"subtype": "noteOff",
				"noteNumber": 51,
				"velocity": 64
			},
			{
				"deltaTime": 38,
				"channel": 9,
				"type": "channel",
				"subtype": "noteOff",
				"noteNumber": 36,
				"velocity": 64
			},
			{
				"deltaTime": 140,
				"channel": 9,
				"type": "channel",
				"noteNumber": 36,
				"velocity": 50,
				"subtype": "noteOn"
			},
			{
				"deltaTime": 0,
				"channel": 9,
				"type": "channel",
				"noteNumber": 51,
				"velocity": 102,
				"subtype": "noteOn"
			},
			{
				"deltaTime": 50,
				"channel": 9,
				"type": "channel",
				"subtype": "noteOff",
				"noteNumber": 36,
				"velocity": 64
			},
			{
				"deltaTime": 0,
				"channel": 9,
				"type": "channel",
				"subtype": "noteOff",
				"noteNumber": 51,
				"velocity": 64
			},
			{
				"deltaTime": 22,
				"channel": 9,
				"type": "channel",
				"subtype": "noteOff",
				"noteNumber": 40,
				"velocity": 64
			},
			{
				"deltaTime": 97,
				"channel": 9,
				"type": "channel",
				"noteNumber": 36,
				"velocity": 85,
				"subtype": "noteOn"
			},
			{
				"deltaTime": 0,
				"channel": 9,
				"type": "channel",
				"noteNumber": 51,
				"velocity": 113,
				"subtype": "noteOn"
			},
			{
				"deltaTime": 95,
				"channel": 9,
				"type": "channel",
				"subtype": "noteOff",
				"noteNumber": 51,
				"velocity": 64
			},
			{
				"deltaTime": 226,
				"channel": 9,
				"type": "channel",
				"noteNumber": 51,
				"velocity": 93,
				"subtype": "noteOn"
			},
			{
				"deltaTime": 35,
				"channel": 9,
				"type": "channel",
				"subtype": "noteOff",
				"noteNumber": 51,
				"velocity": 64
			},
			{
				"deltaTime": 128,
				"channel": 9,
				"type": "channel",
				"noteNumber": 40,
				"velocity": 127,
				"subtype": "noteOn"
			},
			{
				"deltaTime": 0,
				"channel": 9,
				"type": "channel",
				"noteNumber": 51,
				"velocity": 127,
				"subtype": "noteOn"
			},
			{
				"deltaTime": 120,
				"channel": 9,
				"type": "channel",
				"subtype": "noteOff",
				"noteNumber": 51,
				"velocity": 64
			},
			{
				"deltaTime": 86,
				"channel": 9,
				"type": "channel",
				"subtype": "noteOff",
				"noteNumber": 36,
				"velocity": 64
			},
			{
				"deltaTime": 94,
				"channel": 9,
				"type": "channel",
				"subtype": "noteOff",
				"noteNumber": 40,
				"velocity": 64
			},
			{
				"deltaTime": 17,
				"channel": 9,
				"type": "channel",
				"noteNumber": 36,
				"velocity": 72,
				"subtype": "noteOn"
			},
			{
				"deltaTime": 0,
				"channel": 9,
				"type": "channel",
				"noteNumber": 51,
				"velocity": 107,
				"subtype": "noteOn"
			},
			{
				"deltaTime": 55,
				"channel": 9,
				"type": "channel",
				"subtype": "noteOff",
				"noteNumber": 51,
				"velocity": 64
			},
			{
				"deltaTime": 25,
				"channel": 9,
				"type": "channel",
				"subtype": "noteOff",
				"noteNumber": 36,
				"velocity": 64
			},
			{
				"deltaTime": 80,
				"channel": 9,
				"type": "channel",
				"noteNumber": 36,
				"velocity": 80,
				"subtype": "noteOn"
			},
			{
				"deltaTime": 0,
				"channel": 9,
				"type": "channel",
				"noteNumber": 51,
				"velocity": 113,
				"subtype": "noteOn"
			},
			{
				"deltaTime": 95,
				"channel": 9,
				"type": "channel",
				"subtype": "noteOff",
				"noteNumber": 51,
				"velocity": 64
			},
			{
				"deltaTime": 223,
				"channel": 9,
				"type": "channel",
				"noteNumber": 51,
				"velocity": 68,
				"subtype": "noteOn"
			},
			{
				"deltaTime": 25,
				"channel": 9,
				"type": "channel",
				"subtype": "noteOff",
				"noteNumber": 51,
				"velocity": 64
			},
			{
				"deltaTime": 144,
				"channel": 9,
				"type": "channel",
				"noteNumber": 40,
				"velocity": 127,
				"subtype": "noteOn"
			},
			{
				"deltaTime": 0,
				"channel": 9,
				"type": "channel",
				"noteNumber": 51,
				"velocity": 127,
				"subtype": "noteOn"
			},
			{
				"deltaTime": 140,
				"channel": 9,
				"type": "channel",
				"subtype": "noteOff",
				"noteNumber": 51,
				"velocity": 64
			},
			{
				"deltaTime": 73,
				"channel": 9,
				"type": "channel",
				"subtype": "noteOff",
				"noteNumber": 36,
				"velocity": 64
			},
			{
				"deltaTime": 82,
				"channel": 9,
				"type": "channel",
				"subtype": "noteOff",
				"noteNumber": 40,
				"velocity": 64
			},
			{
				"deltaTime": 8,
				"channel": 9,
				"type": "channel",
				"noteNumber": 36,
				"velocity": 72,
				"subtype": "noteOn"
			},
			{
				"deltaTime": 0,
				"channel": 9,
				"type": "channel",
				"noteNumber": 51,
				"velocity": 98,
				"subtype": "noteOn"
			},
			{
				"deltaTime": 45,
				"channel": 9,
				"type": "channel",
				"subtype": "noteOff",
				"noteNumber": 51,
				"velocity": 64
			},
			{
				"deltaTime": 10,
				"channel": 9,
				"type": "channel",
				"subtype": "noteOff",
				"noteNumber": 36,
				"velocity": 64
			},
			{
				"deltaTime": 114,
				"channel": 9,
				"type": "channel",
				"noteNumber": 36,
				"velocity": 98,
				"subtype": "noteOn"
			},
			{
				"deltaTime": 0,
				"channel": 9,
				"type": "channel",
				"noteNumber": 51,
				"velocity": 113,
				"subtype": "noteOn"
			},
			{
				"deltaTime": 90,
				"channel": 9,
				"type": "channel",
				"subtype": "noteOff",
				"noteNumber": 51,
				"velocity": 64
			},
			{
				"deltaTime": 231,
				"channel": 9,
				"type": "channel",
				"noteNumber": 51,
				"velocity": 89,
				"subtype": "noteOn"
			},
			{
				"deltaTime": 35,
				"channel": 9,
				"type": "channel",
				"subtype": "noteOff",
				"noteNumber": 51,
				"velocity": 64
			},
			{
				"deltaTime": 128,
				"channel": 9,
				"type": "channel",
				"noteNumber": 40,
				"velocity": 127,
				"subtype": "noteOn"
			},
			{
				"deltaTime": 0,
				"channel": 9,
				"type": "channel",
				"noteNumber": 51,
				"velocity": 127,
				"subtype": "noteOn"
			},
			{
				"deltaTime": 120,
				"channel": 9,
				"type": "channel",
				"subtype": "noteOff",
				"noteNumber": 51,
				"velocity": 64
			},
			{
				"deltaTime": 37,
				"channel": 9,
				"type": "channel",
				"noteNumber": 40,
				"velocity": 102,
				"subtype": "noteOn"
			},
			{
				"deltaTime": 3,
				"channel": 9,
				"type": "channel",
				"subtype": "noteOff",
				"noteNumber": 40,
				"velocity": 64
			},
			{
				"deltaTime": 6,
				"channel": 9,
				"type": "channel",
				"subtype": "noteOff",
				"noteNumber": 36,
				"velocity": 64
			},
			{
				"deltaTime": 141,
				"channel": 9,
				"type": "channel",
				"subtype": "noteOff",
				"noteNumber": 40,
				"velocity": 64
			},
			{
				"deltaTime": 10,
				"channel": 9,
				"type": "channel",
				"noteNumber": 36,
				"velocity": 76,
				"subtype": "noteOn"
			},
			{
				"deltaTime": 0,
				"channel": 9,
				"type": "channel",
				"noteNumber": 40,
				"velocity": 119,
				"subtype": "noteOn"
			},
			{
				"deltaTime": 0,
				"channel": 9,
				"type": "channel",
				"noteNumber": 51,
				"velocity": 102,
				"subtype": "noteOn"
			},
			{
				"deltaTime": 45,
				"channel": 9,
				"type": "channel",
				"subtype": "noteOff",
				"noteNumber": 51,
				"velocity": 64
			},
			{
				"deltaTime": 20,
				"channel": 9,
				"type": "channel",
				"subtype": "noteOff",
				"noteNumber": 36,
				"velocity": 64
			},
			{
				"deltaTime": 10,
				"channel": 9,
				"type": "channel",
				"subtype": "noteOff",
				"noteNumber": 40,
				"velocity": 64
			},
			{
				"deltaTime": 85,
				"channel": 9,
				"type": "channel",
				"noteNumber": 36,
				"velocity": 113,
				"subtype": "noteOn"
			},
			{
				"deltaTime": 0,
				"channel": 9,
				"type": "channel",
				"noteNumber": 42,
				"velocity": 127,
				"subtype": "noteOn"
			},
			{
				"deltaTime": 0,
				"channel": 9,
				"type": "channel",
				"noteNumber": 57,
				"velocity": 107,
				"subtype": "noteOn"
			},
			{
				"deltaTime": 30,
				"channel": 9,
				"type": "channel",
				"subtype": "noteOff",
				"noteNumber": 57,
				"velocity": 64
			},
			{
				"deltaTime": 10,
				"channel": 9,
				"type": "channel",
				"subtype": "noteOff",
				"noteNumber": 42,
				"velocity": 64
			},
			{
				"deltaTime": 278,
				"channel": 9,
				"type": "channel",
				"noteNumber": 42,
				"velocity": 127,
				"subtype": "noteOn"
			},
			{
				"deltaTime": 45,
				"channel": 9,
				"type": "channel",
				"subtype": "noteOff",
				"noteNumber": 42,
				"velocity": 64
			},
			{
				"deltaTime": 124,
				"channel": 9,
				"type": "channel",
				"noteNumber": 40,
				"velocity": 127,
				"subtype": "noteOn"
			},
			{
				"deltaTime": 0,
				"channel": 9,
				"type": "channel",
				"noteNumber": 42,
				"velocity": 127,
				"subtype": "noteOn"
			},
			{
				"deltaTime": 60,
				"channel": 9,
				"type": "channel",
				"subtype": "noteOff",
				"noteNumber": 42,
				"velocity": 64
			},
			{
				"deltaTime": 93,
				"channel": 9,
				"type": "channel",
				"subtype": "noteOff",
				"noteNumber": 36,
				"velocity": 64
			},
			{
				"deltaTime": 150,
				"channel": 9,
				"type": "channel",
				"noteNumber": 36,
				"velocity": 80,
				"subtype": "noteOn"
			},
			{
				"deltaTime": 0,
				"channel": 9,
				"type": "channel",
				"noteNumber": 42,
				"velocity": 127,
				"subtype": "noteOn"
			},
			{
				"deltaTime": 35,
				"channel": 9,
				"type": "channel",
				"subtype": "noteOff",
				"noteNumber": 42,
				"velocity": 64
			},
			{
				"deltaTime": 2,
				"channel": 9,
				"type": "channel",
				"subtype": "noteOff",
				"noteNumber": 40,
				"velocity": 64
			},
			{
				"deltaTime": 43,
				"channel": 9,
				"type": "channel",
				"subtype": "noteOff",
				"noteNumber": 36,
				"velocity": 64
			},
			{
				"deltaTime": 89,
				"channel": 9,
				"type": "channel",
				"noteNumber": 36,
				"velocity": 113,
				"subtype": "noteOn"
			},
			{
				"deltaTime": 0,
				"channel": 9,
				"type": "channel",
				"noteNumber": 42,
				"velocity": 127,
				"subtype": "noteOn"
			},
			{
				"deltaTime": 60,
				"channel": 9,
				"type": "channel",
				"subtype": "noteOff",
				"noteNumber": 42,
				"velocity": 64
			},
			{
				"deltaTime": 261,
				"channel": 9,
				"type": "channel",
				"noteNumber": 42,
				"velocity": 127,
				"subtype": "noteOn"
			},
			{
				"deltaTime": 45,
				"channel": 9,
				"type": "channel",
				"subtype": "noteOff",
				"noteNumber": 42,
				"velocity": 64
			},
			{
				"deltaTime": 118,
				"channel": 9,
				"type": "channel",
				"noteNumber": 40,
				"velocity": 127,
				"subtype": "noteOn"
			},
			{
				"deltaTime": 0,
				"channel": 9,
				"type": "channel",
				"noteNumber": 42,
				"velocity": 127,
				"subtype": "noteOn"
			},
			{
				"deltaTime": 130,
				"channel": 9,
				"type": "channel",
				"subtype": "noteOff",
				"noteNumber": 42,
				"velocity": 64
			},
			{
				"deltaTime": 36,
				"channel": 9,
				"type": "channel",
				"subtype": "noteOff",
				"noteNumber": 36,
				"velocity": 64
			},
			{
				"deltaTime": 151,
				"channel": 9,
				"type": "channel",
				"noteNumber": 36,
				"velocity": 98,
				"subtype": "noteOn"
			},
			{
				"deltaTime": 0,
				"channel": 9,
				"type": "channel",
				"noteNumber": 46,
				"velocity": 127,
				"subtype": "noteOn"
			},
			{
				"deltaTime": 60,
				"channel": 9,
				"type": "channel",
				"subtype": "noteOff",
				"noteNumber": 36,
				"velocity": 64
			},
			{
				"deltaTime": 38,
				"channel": 9,
				"type": "channel",
				"subtype": "noteOff",
				"noteNumber": 40,
				"velocity": 64
			},
			{
				"deltaTime": 57,
				"channel": 9,
				"type": "channel",
				"subtype": "noteOff",
				"noteNumber": 46,
				"velocity": 64
			},
			{
				"deltaTime": 5,
				"channel": 9,
				"type": "channel",
				"noteNumber": 36,
				"velocity": 107,
				"subtype": "noteOn"
			},
			{
				"deltaTime": 0,
				"channel": 9,
				"type": "channel",
				"noteNumber": 42,
				"velocity": 113,
				"subtype": "noteOn"
			},
			{
				"deltaTime": 75,
				"channel": 9,
				"type": "channel",
				"subtype": "noteOff",
				"noteNumber": 42,
				"velocity": 64
			},
			{
				"deltaTime": 243,
				"channel": 9,
				"type": "channel",
				"noteNumber": 42,
				"velocity": 127,
				"subtype": "noteOn"
			},
			{
				"deltaTime": 55,
				"channel": 9,
				"type": "channel",
				"subtype": "noteOff",
				"noteNumber": 42,
				"velocity": 64
			},
			{
				"deltaTime": 114,
				"channel": 9,
				"type": "channel",
				"noteNumber": 40,
				"velocity": 127,
				"subtype": "noteOn"
			},
			{
				"deltaTime": 0,
				"channel": 9,
				"type": "channel",
				"noteNumber": 42,
				"velocity": 127,
				"subtype": "noteOn"
			},
			{
				"deltaTime": 55,
				"channel": 9,
				"type": "channel",
				"subtype": "noteOff",
				"noteNumber": 42,
				"velocity": 64
			},
			{
				"deltaTime": 83,
				"channel": 9,
				"type": "channel",
				"subtype": "noteOff",
				"noteNumber": 36,
				"velocity": 64
			},
			{
				"deltaTime": 165,
				"channel": 9,
				"type": "channel",
				"noteNumber": 36,
				"velocity": 98,
				"subtype": "noteOn"
			},
			{
				"deltaTime": 0,
				"channel": 9,
				"type": "channel",
				"noteNumber": 42,
				"velocity": 127,
				"subtype": "noteOn"
			},
			{
				"deltaTime": 32,
				"channel": 9,
				"type": "channel",
				"subtype": "noteOff",
				"noteNumber": 40,
				"velocity": 64
			},
			{
				"deltaTime": 23,
				"channel": 9,
				"type": "channel",
				"subtype": "noteOff",
				"noteNumber": 42,
				"velocity": 64
			},
			{
				"deltaTime": 15,
				"channel": 9,
				"type": "channel",
				"subtype": "noteOff",
				"noteNumber": 36,
				"velocity": 64
			},
			{
				"deltaTime": 99,
				"channel": 9,
				"type": "channel",
				"noteNumber": 36,
				"velocity": 107,
				"subtype": "noteOn"
			},
			{
				"deltaTime": 0,
				"channel": 9,
				"type": "channel",
				"noteNumber": 42,
				"velocity": 127,
				"subtype": "noteOn"
			},
			{
				"deltaTime": 60,
				"channel": 9,
				"type": "channel",
				"subtype": "noteOff",
				"noteNumber": 42,
				"velocity": 64
			},
			{
				"deltaTime": 130,
				"channel": 9,
				"type": "channel",
				"subtype": "noteOff",
				"noteNumber": 36,
				"velocity": 64
			},
			{
				"deltaTime": 131,
				"channel": 9,
				"type": "channel",
				"noteNumber": 36,
				"velocity": 64,
				"subtype": "noteOn"
			},
			{
				"deltaTime": 0,
				"channel": 9,
				"type": "channel",
				"noteNumber": 42,
				"velocity": 127,
				"subtype": "noteOn"
			},
			{
				"deltaTime": 55,
				"channel": 9,
				"type": "channel",
				"subtype": "noteOff",
				"noteNumber": 42,
				"velocity": 64
			},
			{
				"deltaTime": 108,
				"channel": 9,
				"type": "channel",
				"noteNumber": 40,
				"velocity": 127,
				"subtype": "noteOn"
			},
			{
				"deltaTime": 0,
				"channel": 9,
				"type": "channel",
				"noteNumber": 42,
				"velocity": 127,
				"subtype": "noteOn"
			},
			{
				"deltaTime": 115,
				"channel": 9,
				"type": "channel",
				"subtype": "noteOff",
				"noteNumber": 42,
				"velocity": 64
			},
			{
				"deltaTime": 17,
				"channel": 9,
				"type": "channel",
				"subtype": "noteOff",
				"noteNumber": 36,
				"velocity": 64
			},
			{
				"deltaTime": 185,
				"channel": 9,
				"type": "channel",
				"noteNumber": 36,
				"velocity": 93,
				"subtype": "noteOn"
			},
			{
				"deltaTime": 0,
				"channel": 9,
				"type": "channel",
				"noteNumber": 46,
				"velocity": 119,
				"subtype": "noteOn"
			},
			{
				"deltaTime": 33,
				"channel": 9,
				"type": "channel",
				"subtype": "noteOff",
				"noteNumber": 40,
				"velocity": 64
			},
			{
				"deltaTime": 52,
				"channel": 9,
				"type": "channel",
				"subtype": "noteOff",
				"noteNumber": 36,
				"velocity": 64
			},
			{
				"deltaTime": 75,
				"channel": 9,
				"type": "channel",
				"subtype": "noteOff",
				"noteNumber": 46,
				"velocity": 64
			},
			{
				"deltaTime": 0,
				"channel": 9,
				"type": "channel",
				"noteNumber": 36,
				"velocity": 102,
				"subtype": "noteOn"
			},
			{
				"deltaTime": 0,
				"channel": 9,
				"type": "channel",
				"noteNumber": 42,
				"velocity": 119,
				"subtype": "noteOn"
			},
			{
				"deltaTime": 70,
				"channel": 9,
				"type": "channel",
				"subtype": "noteOff",
				"noteNumber": 42,
				"velocity": 64
			},
			{
				"deltaTime": 248,
				"channel": 9,
				"type": "channel",
				"noteNumber": 42,
				"velocity": 127,
				"subtype": "noteOn"
			},
			{
				"deltaTime": 60,
				"channel": 9,
				"type": "channel",
				"subtype": "noteOff",
				"noteNumber": 42,
				"velocity": 64
			},
			{
				"deltaTime": 109,
				"channel": 9,
				"type": "channel",
				"noteNumber": 40,
				"velocity": 127,
				"subtype": "noteOn"
			},
			{
				"deltaTime": 0,
				"channel": 9,
				"type": "channel",
				"noteNumber": 42,
				"velocity": 127,
				"subtype": "noteOn"
			},
			{
				"deltaTime": 60,
				"channel": 9,
				"type": "channel",
				"subtype": "noteOff",
				"noteNumber": 42,
				"velocity": 64
			},
			{
				"deltaTime": 18,
				"channel": 9,
				"type": "channel",
				"subtype": "noteOff",
				"noteNumber": 36,
				"velocity": 64
			},
			{
				"deltaTime": 182,
				"channel": 9,
				"type": "channel",
				"subtype": "noteOff",
				"noteNumber": 40,
				"velocity": 64
			},
			{
				"deltaTime": 43,
				"channel": 9,
				"type": "channel",
				"noteNumber": 36,
				"velocity": 102,
				"subtype": "noteOn"
			},
			{
				"deltaTime": 0,
				"channel": 9,
				"type": "channel",
				"noteNumber": 42,
				"velocity": 127,
				"subtype": "noteOn"
			},
			{
				"deltaTime": 50,
				"channel": 9,
				"type": "channel",
				"subtype": "noteOff",
				"noteNumber": 42,
				"velocity": 64
			},
			{
				"deltaTime": 25,
				"channel": 9,
				"type": "channel",
				"subtype": "noteOff",
				"noteNumber": 36,
				"velocity": 64
			},
			{
				"deltaTime": 94,
				"channel": 9,
				"type": "channel",
				"noteNumber": 36,
				"velocity": 89,
				"subtype": "noteOn"
			},
			{
				"deltaTime": 0,
				"channel": 9,
				"type": "channel",
				"noteNumber": 42,
				"velocity": 127,
				"subtype": "noteOn"
			},
			{
				"deltaTime": 75,
				"channel": 9,
				"type": "channel",
				"subtype": "noteOff",
				"noteNumber": 42,
				"velocity": 64
			},
			{
				"deltaTime": 55,
				"channel": 9,
				"type": "channel",
				"subtype": "noteOff",
				"noteNumber": 36,
				"velocity": 64
			},
			{
				"deltaTime": 191,
				"channel": 9,
				"type": "channel",
				"noteNumber": 36,
				"velocity": 93,
				"subtype": "noteOn"
			},
			{
				"deltaTime": 0,
				"channel": 9,
				"type": "channel",
				"noteNumber": 42,
				"velocity": 127,
				"subtype": "noteOn"
			},
			{
				"deltaTime": 55,
				"channel": 9,
				"type": "channel",
				"subtype": "noteOff",
				"noteNumber": 42,
				"velocity": 64
			},
			{
				"deltaTime": 70,
				"channel": 9,
				"type": "channel",
				"subtype": "noteOff",
				"noteNumber": 36,
				"velocity": 64
			},
			{
				"deltaTime": 38,
				"channel": 9,
				"type": "channel",
				"noteNumber": 40,
				"velocity": 127,
				"subtype": "noteOn"
			},
			{
				"deltaTime": 0,
				"channel": 9,
				"type": "channel",
				"noteNumber": 42,
				"velocity": 127,
				"subtype": "noteOn"
			},
			{
				"deltaTime": 75,
				"channel": 9,
				"type": "channel",
				"subtype": "noteOff",
				"noteNumber": 42,
				"velocity": 64
			},
			{
				"deltaTime": 242,
				"channel": 9,
				"type": "channel",
				"noteNumber": 36,
				"velocity": 98,
				"subtype": "noteOn"
			},
			{
				"deltaTime": 0,
				"channel": 9,
				"type": "channel",
				"noteNumber": 42,
				"velocity": 127,
				"subtype": "noteOn"
			},
			{
				"deltaTime": 13,
				"channel": 9,
				"type": "channel",
				"subtype": "noteOff",
				"noteNumber": 40,
				"velocity": 64
			},
			{
				"deltaTime": 47,
				"channel": 9,
				"type": "channel",
				"subtype": "noteOff",
				"noteNumber": 42,
				"velocity": 64
			},
			{
				"deltaTime": 15,
				"channel": 9,
				"type": "channel",
				"subtype": "noteOff",
				"noteNumber": 36,
				"velocity": 64
			},
			{
				"deltaTime": 85,
				"channel": 9,
				"type": "channel",
				"noteNumber": 36,
				"velocity": 98,
				"subtype": "noteOn"
			},
			{
				"deltaTime": 0,
				"channel": 9,
				"type": "channel",
				"noteNumber": 42,
				"velocity": 127,
				"subtype": "noteOn"
			},
			{
				"deltaTime": 60,
				"channel": 9,
				"type": "channel",
				"subtype": "noteOff",
				"noteNumber": 42,
				"velocity": 64
			},
			{
				"deltaTime": 190,
				"channel": 9,
				"type": "channel",
				"subtype": "noteOff",
				"noteNumber": 36,
				"velocity": 64
			},
			{
				"deltaTime": 68,
				"channel": 9,
				"type": "channel",
				"noteNumber": 42,
				"velocity": 127,
				"subtype": "noteOn"
			},
			{
				"deltaTime": 55,
				"channel": 9,
				"type": "channel",
				"subtype": "noteOff",
				"noteNumber": 42,
				"velocity": 64
			},
			{
				"deltaTime": 114,
				"channel": 9,
				"type": "channel",
				"noteNumber": 40,
				"velocity": 127,
				"subtype": "noteOn"
			},
			{
				"deltaTime": 0,
				"channel": 9,
				"type": "channel",
				"noteNumber": 42,
				"velocity": 127,
				"subtype": "noteOn"
			},
			{
				"deltaTime": 75,
				"channel": 9,
				"type": "channel",
				"subtype": "noteOff",
				"noteNumber": 42,
				"velocity": 64
			},
			{
				"deltaTime": 170,
				"channel": 9,
				"type": "channel",
				"subtype": "noteOff",
				"noteNumber": 40,
				"velocity": 64
			},
			{
				"deltaTime": 58,
				"channel": 9,
				"type": "channel",
				"noteNumber": 36,
				"velocity": 76,
				"subtype": "noteOn"
			},
			{
				"deltaTime": 0,
				"channel": 9,
				"type": "channel",
				"noteNumber": 42,
				"velocity": 127,
				"subtype": "noteOn"
			},
			{
				"deltaTime": 65,
				"channel": 9,
				"type": "channel",
				"subtype": "noteOff",
				"noteNumber": 42,
				"velocity": 64
			},
			{
				"deltaTime": 15,
				"channel": 9,
				"type": "channel",
				"subtype": "noteOff",
				"noteNumber": 36,
				"velocity": 64
			},
			{
				"deltaTime": 89,
				"channel": 9,
				"type": "channel",
				"noteNumber": 36,
				"velocity": 98,
				"subtype": "noteOn"
			},
			{
				"deltaTime": 0,
				"channel": 9,
				"type": "channel",
				"noteNumber": 42,
				"velocity": 127,
				"subtype": "noteOn"
			},
			{
				"deltaTime": 70,
				"channel": 9,
				"type": "channel",
				"subtype": "noteOff",
				"noteNumber": 42,
				"velocity": 64
			},
			{
				"deltaTime": 115,
				"channel": 9,
				"type": "channel",
				"subtype": "noteOff",
				"noteNumber": 36,
				"velocity": 64
			},
			{
				"deltaTime": 136,
				"channel": 9,
				"type": "channel",
				"noteNumber": 36,
				"velocity": 85,
				"subtype": "noteOn"
			},
			{
				"deltaTime": 0,
				"channel": 9,
				"type": "channel",
				"noteNumber": 42,
				"velocity": 127,
				"subtype": "noteOn"
			},
			{
				"deltaTime": 55,
				"channel": 9,
				"type": "channel",
				"subtype": "noteOff",
				"noteNumber": 42,
				"velocity": 64
			},
			{
				"deltaTime": 65,
				"channel": 9,
				"type": "channel",
				"subtype": "noteOff",
				"noteNumber": 36,
				"velocity": 64
			},
			{
				"deltaTime": 43,
				"channel": 9,
				"type": "channel",
				"noteNumber": 40,
				"velocity": 127,
				"subtype": "noteOn"
			},
			{
				"deltaTime": 0,
				"channel": 9,
				"type": "channel",
				"noteNumber": 42,
				"velocity": 127,
				"subtype": "noteOn"
			},
			{
				"deltaTime": 115,
				"channel": 9,
				"type": "channel",
				"subtype": "noteOff",
				"noteNumber": 42,
				"velocity": 64
			},
			{
				"deltaTime": 202,
				"channel": 9,
				"type": "channel",
				"noteNumber": 36,
				"velocity": 93,
				"subtype": "noteOn"
			},
			{
				"deltaTime": 0,
				"channel": 9,
				"type": "channel",
				"noteNumber": 46,
				"velocity": 119,
				"subtype": "noteOn"
			},
			{
				"deltaTime": 3,
				"channel": 9,
				"type": "channel",
				"subtype": "noteOff",
				"noteNumber": 40,
				"velocity": 64
			},
			{
				"deltaTime": 82,
				"channel": 9,
				"type": "channel",
				"subtype": "noteOff",
				"noteNumber": 36,
				"velocity": 64
			},
			{
				"deltaTime": 65,
				"channel": 9,
				"type": "channel",
				"subtype": "noteOff",
				"noteNumber": 46,
				"velocity": 64
			},
			{
				"deltaTime": 10,
				"channel": 9,
				"type": "channel",
				"noteNumber": 36,
				"velocity": 107,
				"subtype": "noteOn"
			},
			{
				"deltaTime": 0,
				"channel": 9,
				"type": "channel",
				"noteNumber": 42,
				"velocity": 119,
				"subtype": "noteOn"
			},
			{
				"deltaTime": 0,
				"channel": 9,
				"type": "channel",
				"noteNumber": 49,
				"velocity": 76,
				"subtype": "noteOn"
			},
			{
				"deltaTime": 45,
				"channel": 9,
				"type": "channel",
				"subtype": "noteOff",
				"noteNumber": 49,
				"velocity": 64
			},
			{
				"deltaTime": 30,
				"channel": 9,
				"type": "channel",
				"subtype": "noteOff",
				"noteNumber": 42,
				"velocity": 64
			},
			{
				"deltaTime": 155,
				"channel": 9,
				"type": "channel",
				"subtype": "noteOff",
				"noteNumber": 36,
				"velocity": 64
			},
			{
				"deltaTime": 88,
				"channel": 9,
				"type": "channel",
				"noteNumber": 42,
				"velocity": 127,
				"subtype": "noteOn"
			},
			{
				"deltaTime": 55,
				"channel": 9,
				"type": "channel",
				"subtype": "noteOff",
				"noteNumber": 42,
				"velocity": 64
			},
			{
				"deltaTime": 114,
				"channel": 9,
				"type": "channel",
				"noteNumber": 40,
				"velocity": 127,
				"subtype": "noteOn"
			},
			{
				"deltaTime": 0,
				"channel": 9,
				"type": "channel",
				"noteNumber": 42,
				"velocity": 127,
				"subtype": "noteOn"
			},
			{
				"deltaTime": 80,
				"channel": 9,
				"type": "channel",
				"subtype": "noteOff",
				"noteNumber": 42,
				"velocity": 64
			},
			{
				"deltaTime": 170,
				"channel": 9,
				"type": "channel",
				"subtype": "noteOff",
				"noteNumber": 40,
				"velocity": 64
			},
			{
				"deltaTime": 53,
				"channel": 9,
				"type": "channel",
				"noteNumber": 36,
				"velocity": 98,
				"subtype": "noteOn"
			},
			{
				"deltaTime": 0,
				"channel": 9,
				"type": "channel",
				"noteNumber": 42,
				"velocity": 127,
				"subtype": "noteOn"
			},
			{
				"deltaTime": 55,
				"channel": 9,
				"type": "channel",
				"subtype": "noteOff",
				"noteNumber": 42,
				"velocity": 64
			},
			{
				"deltaTime": 20,
				"channel": 9,
				"type": "channel",
				"subtype": "noteOff",
				"noteNumber": 36,
				"velocity": 64
			},
			{
				"deltaTime": 94,
				"channel": 9,
				"type": "channel",
				"noteNumber": 36,
				"velocity": 107,
				"subtype": "noteOn"
			},
			{
				"deltaTime": 0,
				"channel": 9,
				"type": "channel",
				"noteNumber": 42,
				"velocity": 127,
				"subtype": "noteOn"
			},
			{
				"deltaTime": 70,
				"channel": 9,
				"type": "channel",
				"subtype": "noteOff",
				"noteNumber": 42,
				"velocity": 64
			},
			{
				"deltaTime": 105,
				"channel": 9,
				"type": "channel",
				"subtype": "noteOff",
				"noteNumber": 36,
				"velocity": 64
			},
			{
				"deltaTime": 146,
				"channel": 9,
				"type": "channel",
				"noteNumber": 42,
				"velocity": 127,
				"subtype": "noteOn"
			},
			{
				"deltaTime": 60,
				"channel": 9,
				"type": "channel",
				"subtype": "noteOff",
				"noteNumber": 42,
				"velocity": 64
			},
			{
				"deltaTime": 103,
				"channel": 9,
				"type": "channel",
				"noteNumber": 40,
				"velocity": 127,
				"subtype": "noteOn"
			},
			{
				"deltaTime": 0,
				"channel": 9,
				"type": "channel",
				"noteNumber": 42,
				"velocity": 127,
				"subtype": "noteOn"
			},
			{
				"deltaTime": 105,
				"channel": 9,
				"type": "channel",
				"subtype": "noteOff",
				"noteNumber": 42,
				"velocity": 64
			},
			{
				"deltaTime": 160,
				"channel": 9,
				"type": "channel",
				"subtype": "noteOff",
				"noteNumber": 40,
				"velocity": 64
			},
			{
				"deltaTime": 52,
				"channel": 9,
				"type": "channel",
				"noteNumber": 36,
				"velocity": 93,
				"subtype": "noteOn"
			},
			{
				"deltaTime": 0,
				"channel": 9,
				"type": "channel",
				"noteNumber": 46,
				"velocity": 119,
				"subtype": "noteOn"
			},
			{
				"deltaTime": 75,
				"channel": 9,
				"type": "channel",
				"subtype": "noteOff",
				"noteNumber": 36,
				"velocity": 64
			},
			{
				"deltaTime": 85,
				"channel": 9,
				"type": "channel",
				"subtype": "noteOff",
				"noteNumber": 46,
				"velocity": 64
			},
			{
				"deltaTime": 0,
				"channel": 9,
				"type": "channel",
				"noteNumber": 36,
				"velocity": 102,
				"subtype": "noteOn"
			},
			{
				"deltaTime": 0,
				"channel": 9,
				"type": "channel",
				"noteNumber": 42,
				"velocity": 127,
				"subtype": "noteOn"
			},
			{
				"deltaTime": 70,
				"channel": 9,
				"type": "channel",
				"subtype": "noteOff",
				"noteNumber": 42,
				"velocity": 64
			},
			{
				"deltaTime": 150,
				"channel": 9,
				"type": "channel",
				"subtype": "noteOff",
				"noteNumber": 36,
				"velocity": 64
			},
			{
				"deltaTime": 98,
				"channel": 9,
				"type": "channel",
				"noteNumber": 42,
				"velocity": 127,
				"subtype": "noteOn"
			},
			{
				"deltaTime": 55,
				"channel": 9,
				"type": "channel",
				"subtype": "noteOff",
				"noteNumber": 42,
				"velocity": 64
			},
			{
				"deltaTime": 114,
				"channel": 9,
				"type": "channel",
				"noteNumber": 40,
				"velocity": 127,
				"subtype": "noteOn"
			},
			{
				"deltaTime": 0,
				"channel": 9,
				"type": "channel",
				"noteNumber": 42,
				"velocity": 127,
				"subtype": "noteOn"
			},
			{
				"deltaTime": 65,
				"channel": 9,
				"type": "channel",
				"subtype": "noteOff",
				"noteNumber": 42,
				"velocity": 64
			},
			{
				"deltaTime": 155,
				"channel": 9,
				"type": "channel",
				"subtype": "noteOff",
				"noteNumber": 40,
				"velocity": 64
			},
			{
				"deltaTime": 83,
				"channel": 9,
				"type": "channel",
				"noteNumber": 36,
				"velocity": 102,
				"subtype": "noteOn"
			},
			{
				"deltaTime": 0,
				"channel": 9,
				"type": "channel",
				"noteNumber": 42,
				"velocity": 127,
				"subtype": "noteOn"
			},
			{
				"deltaTime": 60,
				"channel": 9,
				"type": "channel",
				"subtype": "noteOff",
				"noteNumber": 42,
				"velocity": 64
			},
			{
				"deltaTime": 25,
				"channel": 9,
				"type": "channel",
				"subtype": "noteOff",
				"noteNumber": 36,
				"velocity": 64
			},
			{
				"deltaTime": 84,
				"channel": 9,
				"type": "channel",
				"noteNumber": 36,
				"velocity": 93,
				"subtype": "noteOn"
			},
			{
				"deltaTime": 0,
				"channel": 9,
				"type": "channel",
				"noteNumber": 42,
				"velocity": 127,
				"subtype": "noteOn"
			},
			{
				"deltaTime": 65,
				"channel": 9,
				"type": "channel",
				"subtype": "noteOff",
				"noteNumber": 42,
				"velocity": 64
			},
			{
				"deltaTime": 50,
				"channel": 9,
				"type": "channel",
				"subtype": "noteOff",
				"noteNumber": 36,
				"velocity": 64
			},
			{
				"deltaTime": 206,
				"channel": 9,
				"type": "channel",
				"noteNumber": 36,
				"velocity": 102,
				"subtype": "noteOn"
			},
			{
				"deltaTime": 0,
				"channel": 9,
				"type": "channel",
				"noteNumber": 42,
				"velocity": 127,
				"subtype": "noteOn"
			},
			{
				"deltaTime": 55,
				"channel": 9,
				"type": "channel",
				"subtype": "noteOff",
				"noteNumber": 42,
				"velocity": 64
			},
			{
				"deltaTime": 35,
				"channel": 9,
				"type": "channel",
				"subtype": "noteOff",
				"noteNumber": 36,
				"velocity": 64
			},
			{
				"deltaTime": 73,
				"channel": 9,
				"type": "channel",
				"noteNumber": 40,
				"velocity": 127,
				"subtype": "noteOn"
			},
			{
				"deltaTime": 0,
				"channel": 9,
				"type": "channel",
				"noteNumber": 42,
				"velocity": 127,
				"subtype": "noteOn"
			},
			{
				"deltaTime": 70,
				"channel": 9,
				"type": "channel",
				"subtype": "noteOff",
				"noteNumber": 42,
				"velocity": 64
			},
			{
				"deltaTime": 200,
				"channel": 9,
				"type": "channel",
				"subtype": "noteOff",
				"noteNumber": 40,
				"velocity": 64
			},
			{
				"deltaTime": 47,
				"channel": 9,
				"type": "channel",
				"noteNumber": 36,
				"velocity": 102,
				"subtype": "noteOn"
			},
			{
				"deltaTime": 0,
				"channel": 9,
				"type": "channel",
				"noteNumber": 42,
				"velocity": 127,
				"subtype": "noteOn"
			},
			{
				"deltaTime": 65,
				"channel": 9,
				"type": "channel",
				"subtype": "noteOff",
				"noteNumber": 42,
				"velocity": 64
			},
			{
				"deltaTime": 10,
				"channel": 9,
				"type": "channel",
				"subtype": "noteOff",
				"noteNumber": 36,
				"velocity": 64
			},
			{
				"deltaTime": 85,
				"channel": 9,
				"type": "channel",
				"noteNumber": 36,
				"velocity": 113,
				"subtype": "noteOn"
			},
			{
				"deltaTime": 0,
				"channel": 9,
				"type": "channel",
				"noteNumber": 42,
				"velocity": 127,
				"subtype": "noteOn"
			},
			{
				"deltaTime": 65,
				"channel": 9,
				"type": "channel",
				"subtype": "noteOff",
				"noteNumber": 42,
				"velocity": 64
			},
			{
				"deltaTime": 95,
				"channel": 9,
				"type": "channel",
				"subtype": "noteOff",
				"noteNumber": 36,
				"velocity": 64
			},
			{
				"deltaTime": 158,
				"channel": 9,
				"type": "channel",
				"noteNumber": 42,
				"velocity": 127,
				"subtype": "noteOn"
			},
			{
				"deltaTime": 50,
				"channel": 9,
				"type": "channel",
				"subtype": "noteOff",
				"noteNumber": 42,
				"velocity": 64
			},
			{
				"deltaTime": 119,
				"channel": 9,
				"type": "channel",
				"noteNumber": 40,
				"velocity": 127,
				"subtype": "noteOn"
			},
			{
				"deltaTime": 0,
				"channel": 9,
				"type": "channel",
				"noteNumber": 42,
				"velocity": 127,
				"subtype": "noteOn"
			},
			{
				"deltaTime": 70,
				"channel": 9,
				"type": "channel",
				"subtype": "noteOff",
				"noteNumber": 42,
				"velocity": 64
			},
			{
				"deltaTime": 210,
				"channel": 9,
				"type": "channel",
				"subtype": "noteOff",
				"noteNumber": 40,
				"velocity": 64
			},
			{
				"deltaTime": 23,
				"channel": 9,
				"type": "channel",
				"noteNumber": 36,
				"velocity": 98,
				"subtype": "noteOn"
			},
			{
				"deltaTime": 0,
				"channel": 9,
				"type": "channel",
				"noteNumber": 42,
				"velocity": 127,
				"subtype": "noteOn"
			},
			{
				"deltaTime": 60,
				"channel": 9,
				"type": "channel",
				"subtype": "noteOff",
				"noteNumber": 42,
				"velocity": 64
			},
			{
				"deltaTime": 35,
				"channel": 9,
				"type": "channel",
				"subtype": "noteOff",
				"noteNumber": 36,
				"velocity": 64
			},
			{
				"deltaTime": 74,
				"channel": 9,
				"type": "channel",
				"noteNumber": 36,
				"velocity": 102,
				"subtype": "noteOn"
			},
			{
				"deltaTime": 0,
				"channel": 9,
				"type": "channel",
				"noteNumber": 42,
				"velocity": 127,
				"subtype": "noteOn"
			},
			{
				"deltaTime": 80,
				"channel": 9,
				"type": "channel",
				"subtype": "noteOff",
				"noteNumber": 42,
				"velocity": 64
			},
			{
				"deltaTime": 135,
				"channel": 9,
				"type": "channel",
				"subtype": "noteOff",
				"noteNumber": 36,
				"velocity": 64
			},
			{
				"deltaTime": 106,
				"channel": 9,
				"type": "channel",
				"noteNumber": 42,
				"velocity": 127,
				"subtype": "noteOn"
			},
			{
				"deltaTime": 55,
				"channel": 9,
				"type": "channel",
				"subtype": "noteOff",
				"noteNumber": 42,
				"velocity": 64
			},
			{
				"deltaTime": 108,
				"channel": 9,
				"type": "channel",
				"noteNumber": 40,
				"velocity": 127,
				"subtype": "noteOn"
			},
			{
				"deltaTime": 0,
				"channel": 9,
				"type": "channel",
				"noteNumber": 42,
				"velocity": 127,
				"subtype": "noteOn"
			},
			{
				"deltaTime": 75,
				"channel": 9,
				"type": "channel",
				"subtype": "noteOff",
				"noteNumber": 42,
				"velocity": 64
			},
			{
				"deltaTime": 205,
				"channel": 9,
				"type": "channel",
				"subtype": "noteOff",
				"noteNumber": 40,
				"velocity": 64
			},
			{
				"deltaTime": 37,
				"channel": 9,
				"type": "channel",
				"noteNumber": 36,
				"velocity": 98,
				"subtype": "noteOn"
			},
			{
				"deltaTime": 0,
				"channel": 9,
				"type": "channel",
				"noteNumber": 42,
				"velocity": 127,
				"subtype": "noteOn"
			},
			{
				"deltaTime": 65,
				"channel": 9,
				"type": "channel",
				"subtype": "noteOff",
				"noteNumber": 42,
				"velocity": 64
			},
			{
				"deltaTime": 20,
				"channel": 9,
				"type": "channel",
				"subtype": "noteOff",
				"noteNumber": 36,
				"velocity": 64
			},
			{
				"deltaTime": 75,
				"channel": 9,
				"type": "channel",
				"noteNumber": 36,
				"velocity": 102,
				"subtype": "noteOn"
			},
			{
				"deltaTime": 0,
				"channel": 9,
				"type": "channel",
				"noteNumber": 42,
				"velocity": 127,
				"subtype": "noteOn"
			},
			{
				"deltaTime": 70,
				"channel": 9,
				"type": "channel",
				"subtype": "noteOff",
				"noteNumber": 42,
				"velocity": 64
			},
			{
				"deltaTime": 248,
				"channel": 9,
				"type": "channel",
				"noteNumber": 42,
				"velocity": 127,
				"subtype": "noteOn"
			},
			{
				"deltaTime": 60,
				"channel": 9,
				"type": "channel",
				"subtype": "noteOff",
				"noteNumber": 42,
				"velocity": 64
			},
			{
				"deltaTime": 109,
				"channel": 9,
				"type": "channel",
				"noteNumber": 40,
				"velocity": 127,
				"subtype": "noteOn"
			},
			{
				"deltaTime": 0,
				"channel": 9,
				"type": "channel",
				"noteNumber": 42,
				"velocity": 127,
				"subtype": "noteOn"
			},
			{
				"deltaTime": 33,
				"channel": 9,
				"type": "channel",
				"subtype": "noteOff",
				"noteNumber": 36,
				"velocity": 64
			},
			{
				"deltaTime": 52,
				"channel": 9,
				"type": "channel",
				"subtype": "noteOff",
				"noteNumber": 42,
				"velocity": 64
			},
			{
				"deltaTime": 218,
				"channel": 9,
				"type": "channel",
				"noteNumber": 36,
				"velocity": 85,
				"subtype": "noteOn"
			},
			{
				"deltaTime": 0,
				"channel": 9,
				"type": "channel",
				"noteNumber": 42,
				"velocity": 127,
				"subtype": "noteOn"
			},
			{
				"deltaTime": 45,
				"channel": 9,
				"type": "channel",
				"subtype": "noteOff",
				"noteNumber": 36,
				"velocity": 64
			},
			{
				"deltaTime": 15,
				"channel": 9,
				"type": "channel",
				"subtype": "noteOff",
				"noteNumber": 42,
				"velocity": 64
			},
			{
				"deltaTime": 102,
				"channel": 9,
				"type": "channel",
				"subtype": "noteOff",
				"noteNumber": 40,
				"velocity": 64
			},
			{
				"deltaTime": 7,
				"channel": 9,
				"type": "channel",
				"noteNumber": 36,
				"velocity": 93,
				"subtype": "noteOn"
			},
			{
				"deltaTime": 0,
				"channel": 9,
				"type": "channel",
				"noteNumber": 42,
				"velocity": 127,
				"subtype": "noteOn"
			},
			{
				"deltaTime": 80,
				"channel": 9,
				"type": "channel",
				"subtype": "noteOff",
				"noteNumber": 42,
				"velocity": 64
			},
			{
				"deltaTime": 74,
				"channel": 9,
				"type": "channel",
				"noteNumber": 40,
				"velocity": 127,
				"subtype": "noteOn"
			},
			{
				"deltaTime": 41,
				"channel": 9,
				"type": "channel",
				"subtype": "noteOff",
				"noteNumber": 36,
				"velocity": 64
			},
			{
				"deltaTime": 104,
				"channel": 9,
				"type": "channel",
				"subtype": "noteOff",
				"noteNumber": 40,
				"velocity": 64
			},
			{
				"deltaTime": 22,
				"channel": 9,
				"type": "channel",
				"noteNumber": 36,
				"velocity": 76,
				"subtype": "noteOn"
			},
			{
				"deltaTime": 0,
				"channel": 9,
				"type": "channel",
				"noteNumber": 42,
				"velocity": 127,
				"subtype": "noteOn"
			},
			{
				"deltaTime": 60,
				"channel": 9,
				"type": "channel",
				"subtype": "noteOff",
				"noteNumber": 42,
				"velocity": 64
			},
			{
				"deltaTime": 103,
				"channel": 9,
				"type": "channel",
				"noteNumber": 40,
				"velocity": 127,
				"subtype": "noteOn"
			},
			{
				"deltaTime": 0,
				"channel": 9,
				"type": "channel",
				"noteNumber": 42,
				"velocity": 127,
				"subtype": "noteOn"
			},
			{
				"deltaTime": 7,
				"channel": 9,
				"type": "channel",
				"subtype": "noteOff",
				"noteNumber": 36,
				"velocity": 64
			},
			{
				"deltaTime": 103,
				"channel": 9,
				"type": "channel",
				"subtype": "noteOff",
				"noteNumber": 42,
				"velocity": 64
			},
			{
				"deltaTime": 47,
				"channel": 9,
				"type": "channel",
				"noteNumber": 36,
				"velocity": 107,
				"subtype": "noteOn"
			},
			{
				"deltaTime": 73,
				"channel": 9,
				"type": "channel",
				"subtype": "noteOff",
				"noteNumber": 40,
				"velocity": 64
			},
			{
				"deltaTime": 27,
				"channel": 9,
				"type": "channel",
				"subtype": "noteOff",
				"noteNumber": 36,
				"velocity": 64
			},
			{
				"deltaTime": 60,
				"channel": 9,
				"type": "channel",
				"noteNumber": 36,
				"velocity": 107,
				"subtype": "noteOn"
			},
			{
				"deltaTime": 0,
				"channel": 9,
				"type": "channel",
				"noteNumber": 46,
				"velocity": 127,
				"subtype": "noteOn"
			},
			{
				"deltaTime": 90,
				"channel": 9,
				"type": "channel",
				"subtype": "noteOff",
				"noteNumber": 36,
				"velocity": 64
			},
			{
				"deltaTime": 40,
				"channel": 9,
				"type": "channel",
				"subtype": "noteOff",
				"noteNumber": 46,
				"velocity": 64
			},
			{
				"deltaTime": 30,
				"channel": 9,
				"type": "channel",
				"noteNumber": 36,
				"velocity": 113,
				"subtype": "noteOn"
			},
			{
				"deltaTime": 0,
				"channel": 9,
				"type": "channel",
				"noteNumber": 42,
				"velocity": 127,
				"subtype": "noteOn"
			},
			{
				"deltaTime": 0,
				"channel": 9,
				"type": "channel",
				"noteNumber": 57,
				"velocity": 107,
				"subtype": "noteOn"
			},
			{
				"deltaTime": 30,
				"channel": 9,
				"type": "channel",
				"subtype": "noteOff",
				"noteNumber": 57,
				"velocity": 64
			},
			{
				"deltaTime": 10,
				"channel": 9,
				"type": "channel",
				"subtype": "noteOff",
				"noteNumber": 42,
				"velocity": 64
			},
			{
				"deltaTime": 278,
				"channel": 9,
				"type": "channel",
				"noteNumber": 42,
				"velocity": 127,
				"subtype": "noteOn"
			},
			{
				"deltaTime": 45,
				"channel": 9,
				"type": "channel",
				"subtype": "noteOff",
				"noteNumber": 42,
				"velocity": 64
			},
			{
				"deltaTime": 124,
				"channel": 9,
				"type": "channel",
				"noteNumber": 40,
				"velocity": 127,
				"subtype": "noteOn"
			},
			{
				"deltaTime": 0,
				"channel": 9,
				"type": "channel",
				"noteNumber": 42,
				"velocity": 127,
				"subtype": "noteOn"
			},
			{
				"deltaTime": 60,
				"channel": 9,
				"type": "channel",
				"subtype": "noteOff",
				"noteNumber": 42,
				"velocity": 64
			},
			{
				"deltaTime": 93,
				"channel": 9,
				"type": "channel",
				"subtype": "noteOff",
				"noteNumber": 36,
				"velocity": 64
			},
			{
				"deltaTime": 150,
				"channel": 9,
				"type": "channel",
				"noteNumber": 36,
				"velocity": 80,
				"subtype": "noteOn"
			},
			{
				"deltaTime": 0,
				"channel": 9,
				"type": "channel",
				"noteNumber": 42,
				"velocity": 127,
				"subtype": "noteOn"
			},
			{
				"deltaTime": 35,
				"channel": 9,
				"type": "channel",
				"subtype": "noteOff",
				"noteNumber": 42,
				"velocity": 64
			},
			{
				"deltaTime": 2,
				"channel": 9,
				"type": "channel",
				"subtype": "noteOff",
				"noteNumber": 40,
				"velocity": 64
			},
			{
				"deltaTime": 43,
				"channel": 9,
				"type": "channel",
				"subtype": "noteOff",
				"noteNumber": 36,
				"velocity": 64
			},
			{
				"deltaTime": 89,
				"channel": 9,
				"type": "channel",
				"noteNumber": 36,
				"velocity": 113,
				"subtype": "noteOn"
			},
			{
				"deltaTime": 0,
				"channel": 9,
				"type": "channel",
				"noteNumber": 42,
				"velocity": 127,
				"subtype": "noteOn"
			},
			{
				"deltaTime": 60,
				"channel": 9,
				"type": "channel",
				"subtype": "noteOff",
				"noteNumber": 42,
				"velocity": 64
			},
			{
				"deltaTime": 261,
				"channel": 9,
				"type": "channel",
				"noteNumber": 42,
				"velocity": 127,
				"subtype": "noteOn"
			},
			{
				"deltaTime": 45,
				"channel": 9,
				"type": "channel",
				"subtype": "noteOff",
				"noteNumber": 42,
				"velocity": 64
			},
			{
				"deltaTime": 118,
				"channel": 9,
				"type": "channel",
				"noteNumber": 40,
				"velocity": 127,
				"subtype": "noteOn"
			},
			{
				"deltaTime": 0,
				"channel": 9,
				"type": "channel",
				"noteNumber": 42,
				"velocity": 127,
				"subtype": "noteOn"
			},
			{
				"deltaTime": 130,
				"channel": 9,
				"type": "channel",
				"subtype": "noteOff",
				"noteNumber": 42,
				"velocity": 64
			},
			{
				"deltaTime": 36,
				"channel": 9,
				"type": "channel",
				"subtype": "noteOff",
				"noteNumber": 36,
				"velocity": 64
			},
			{
				"deltaTime": 151,
				"channel": 9,
				"type": "channel",
				"noteNumber": 36,
				"velocity": 98,
				"subtype": "noteOn"
			},
			{
				"deltaTime": 0,
				"channel": 9,
				"type": "channel",
				"noteNumber": 46,
				"velocity": 127,
				"subtype": "noteOn"
			},
			{
				"deltaTime": 60,
				"channel": 9,
				"type": "channel",
				"subtype": "noteOff",
				"noteNumber": 36,
				"velocity": 64
			},
			{
				"deltaTime": 38,
				"channel": 9,
				"type": "channel",
				"subtype": "noteOff",
				"noteNumber": 40,
				"velocity": 64
			},
			{
				"deltaTime": 57,
				"channel": 9,
				"type": "channel",
				"subtype": "noteOff",
				"noteNumber": 46,
				"velocity": 64
			},
			{
				"deltaTime": 5,
				"channel": 9,
				"type": "channel",
				"noteNumber": 36,
				"velocity": 107,
				"subtype": "noteOn"
			},
			{
				"deltaTime": 0,
				"channel": 9,
				"type": "channel",
				"noteNumber": 42,
				"velocity": 113,
				"subtype": "noteOn"
			},
			{
				"deltaTime": 75,
				"channel": 9,
				"type": "channel",
				"subtype": "noteOff",
				"noteNumber": 42,
				"velocity": 64
			},
			{
				"deltaTime": 243,
				"channel": 9,
				"type": "channel",
				"noteNumber": 42,
				"velocity": 127,
				"subtype": "noteOn"
			},
			{
				"deltaTime": 55,
				"channel": 9,
				"type": "channel",
				"subtype": "noteOff",
				"noteNumber": 42,
				"velocity": 64
			},
			{
				"deltaTime": 114,
				"channel": 9,
				"type": "channel",
				"noteNumber": 40,
				"velocity": 127,
				"subtype": "noteOn"
			},
			{
				"deltaTime": 0,
				"channel": 9,
				"type": "channel",
				"noteNumber": 42,
				"velocity": 127,
				"subtype": "noteOn"
			},
			{
				"deltaTime": 55,
				"channel": 9,
				"type": "channel",
				"subtype": "noteOff",
				"noteNumber": 42,
				"velocity": 64
			},
			{
				"deltaTime": 83,
				"channel": 9,
				"type": "channel",
				"subtype": "noteOff",
				"noteNumber": 36,
				"velocity": 64
			},
			{
				"deltaTime": 165,
				"channel": 9,
				"type": "channel",
				"noteNumber": 36,
				"velocity": 98,
				"subtype": "noteOn"
			},
			{
				"deltaTime": 0,
				"channel": 9,
				"type": "channel",
				"noteNumber": 42,
				"velocity": 127,
				"subtype": "noteOn"
			},
			{
				"deltaTime": 32,
				"channel": 9,
				"type": "channel",
				"subtype": "noteOff",
				"noteNumber": 40,
				"velocity": 64
			},
			{
				"deltaTime": 23,
				"channel": 9,
				"type": "channel",
				"subtype": "noteOff",
				"noteNumber": 42,
				"velocity": 64
			},
			{
				"deltaTime": 15,
				"channel": 9,
				"type": "channel",
				"subtype": "noteOff",
				"noteNumber": 36,
				"velocity": 64
			},
			{
				"deltaTime": 99,
				"channel": 9,
				"type": "channel",
				"noteNumber": 36,
				"velocity": 107,
				"subtype": "noteOn"
			},
			{
				"deltaTime": 0,
				"channel": 9,
				"type": "channel",
				"noteNumber": 42,
				"velocity": 127,
				"subtype": "noteOn"
			},
			{
				"deltaTime": 60,
				"channel": 9,
				"type": "channel",
				"subtype": "noteOff",
				"noteNumber": 42,
				"velocity": 64
			},
			{
				"deltaTime": 130,
				"channel": 9,
				"type": "channel",
				"subtype": "noteOff",
				"noteNumber": 36,
				"velocity": 64
			},
			{
				"deltaTime": 131,
				"channel": 9,
				"type": "channel",
				"noteNumber": 36,
				"velocity": 64,
				"subtype": "noteOn"
			},
			{
				"deltaTime": 0,
				"channel": 9,
				"type": "channel",
				"noteNumber": 42,
				"velocity": 127,
				"subtype": "noteOn"
			},
			{
				"deltaTime": 55,
				"channel": 9,
				"type": "channel",
				"subtype": "noteOff",
				"noteNumber": 42,
				"velocity": 64
			},
			{
				"deltaTime": 108,
				"channel": 9,
				"type": "channel",
				"noteNumber": 40,
				"velocity": 127,
				"subtype": "noteOn"
			},
			{
				"deltaTime": 0,
				"channel": 9,
				"type": "channel",
				"noteNumber": 42,
				"velocity": 127,
				"subtype": "noteOn"
			},
			{
				"deltaTime": 115,
				"channel": 9,
				"type": "channel",
				"subtype": "noteOff",
				"noteNumber": 42,
				"velocity": 64
			},
			{
				"deltaTime": 17,
				"channel": 9,
				"type": "channel",
				"subtype": "noteOff",
				"noteNumber": 36,
				"velocity": 64
			},
			{
				"deltaTime": 185,
				"channel": 9,
				"type": "channel",
				"noteNumber": 36,
				"velocity": 93,
				"subtype": "noteOn"
			},
			{
				"deltaTime": 0,
				"channel": 9,
				"type": "channel",
				"noteNumber": 46,
				"velocity": 119,
				"subtype": "noteOn"
			},
			{
				"deltaTime": 33,
				"channel": 9,
				"type": "channel",
				"subtype": "noteOff",
				"noteNumber": 40,
				"velocity": 64
			},
			{
				"deltaTime": 52,
				"channel": 9,
				"type": "channel",
				"subtype": "noteOff",
				"noteNumber": 36,
				"velocity": 64
			},
			{
				"deltaTime": 75,
				"channel": 9,
				"type": "channel",
				"subtype": "noteOff",
				"noteNumber": 46,
				"velocity": 64
			},
			{
				"deltaTime": 0,
				"channel": 9,
				"type": "channel",
				"noteNumber": 36,
				"velocity": 102,
				"subtype": "noteOn"
			},
			{
				"deltaTime": 0,
				"channel": 9,
				"type": "channel",
				"noteNumber": 42,
				"velocity": 119,
				"subtype": "noteOn"
			},
			{
				"deltaTime": 70,
				"channel": 9,
				"type": "channel",
				"subtype": "noteOff",
				"noteNumber": 42,
				"velocity": 64
			},
			{
				"deltaTime": 248,
				"channel": 9,
				"type": "channel",
				"noteNumber": 42,
				"velocity": 127,
				"subtype": "noteOn"
			},
			{
				"deltaTime": 60,
				"channel": 9,
				"type": "channel",
				"subtype": "noteOff",
				"noteNumber": 42,
				"velocity": 64
			},
			{
				"deltaTime": 109,
				"channel": 9,
				"type": "channel",
				"noteNumber": 40,
				"velocity": 127,
				"subtype": "noteOn"
			},
			{
				"deltaTime": 0,
				"channel": 9,
				"type": "channel",
				"noteNumber": 42,
				"velocity": 127,
				"subtype": "noteOn"
			},
			{
				"deltaTime": 60,
				"channel": 9,
				"type": "channel",
				"subtype": "noteOff",
				"noteNumber": 42,
				"velocity": 64
			},
			{
				"deltaTime": 18,
				"channel": 9,
				"type": "channel",
				"subtype": "noteOff",
				"noteNumber": 36,
				"velocity": 64
			},
			{
				"deltaTime": 182,
				"channel": 9,
				"type": "channel",
				"subtype": "noteOff",
				"noteNumber": 40,
				"velocity": 64
			},
			{
				"deltaTime": 43,
				"channel": 9,
				"type": "channel",
				"noteNumber": 36,
				"velocity": 102,
				"subtype": "noteOn"
			},
			{
				"deltaTime": 0,
				"channel": 9,
				"type": "channel",
				"noteNumber": 42,
				"velocity": 127,
				"subtype": "noteOn"
			},
			{
				"deltaTime": 50,
				"channel": 9,
				"type": "channel",
				"subtype": "noteOff",
				"noteNumber": 42,
				"velocity": 64
			},
			{
				"deltaTime": 25,
				"channel": 9,
				"type": "channel",
				"subtype": "noteOff",
				"noteNumber": 36,
				"velocity": 64
			},
			{
				"deltaTime": 94,
				"channel": 9,
				"type": "channel",
				"noteNumber": 36,
				"velocity": 89,
				"subtype": "noteOn"
			},
			{
				"deltaTime": 0,
				"channel": 9,
				"type": "channel",
				"noteNumber": 42,
				"velocity": 127,
				"subtype": "noteOn"
			},
			{
				"deltaTime": 75,
				"channel": 9,
				"type": "channel",
				"subtype": "noteOff",
				"noteNumber": 42,
				"velocity": 64
			},
			{
				"deltaTime": 55,
				"channel": 9,
				"type": "channel",
				"subtype": "noteOff",
				"noteNumber": 36,
				"velocity": 64
			},
			{
				"deltaTime": 191,
				"channel": 9,
				"type": "channel",
				"noteNumber": 36,
				"velocity": 93,
				"subtype": "noteOn"
			},
			{
				"deltaTime": 0,
				"channel": 9,
				"type": "channel",
				"noteNumber": 42,
				"velocity": 127,
				"subtype": "noteOn"
			},
			{
				"deltaTime": 55,
				"channel": 9,
				"type": "channel",
				"subtype": "noteOff",
				"noteNumber": 42,
				"velocity": 64
			},
			{
				"deltaTime": 70,
				"channel": 9,
				"type": "channel",
				"subtype": "noteOff",
				"noteNumber": 36,
				"velocity": 64
			},
			{
				"deltaTime": 38,
				"channel": 9,
				"type": "channel",
				"noteNumber": 40,
				"velocity": 127,
				"subtype": "noteOn"
			},
			{
				"deltaTime": 0,
				"channel": 9,
				"type": "channel",
				"noteNumber": 42,
				"velocity": 127,
				"subtype": "noteOn"
			},
			{
				"deltaTime": 75,
				"channel": 9,
				"type": "channel",
				"subtype": "noteOff",
				"noteNumber": 42,
				"velocity": 64
			},
			{
				"deltaTime": 242,
				"channel": 9,
				"type": "channel",
				"noteNumber": 36,
				"velocity": 98,
				"subtype": "noteOn"
			},
			{
				"deltaTime": 0,
				"channel": 9,
				"type": "channel",
				"noteNumber": 42,
				"velocity": 127,
				"subtype": "noteOn"
			},
			{
				"deltaTime": 13,
				"channel": 9,
				"type": "channel",
				"subtype": "noteOff",
				"noteNumber": 40,
				"velocity": 64
			},
			{
				"deltaTime": 47,
				"channel": 9,
				"type": "channel",
				"subtype": "noteOff",
				"noteNumber": 42,
				"velocity": 64
			},
			{
				"deltaTime": 15,
				"channel": 9,
				"type": "channel",
				"subtype": "noteOff",
				"noteNumber": 36,
				"velocity": 64
			},
			{
				"deltaTime": 85,
				"channel": 9,
				"type": "channel",
				"noteNumber": 36,
				"velocity": 98,
				"subtype": "noteOn"
			},
			{
				"deltaTime": 0,
				"channel": 9,
				"type": "channel",
				"noteNumber": 42,
				"velocity": 127,
				"subtype": "noteOn"
			},
			{
				"deltaTime": 60,
				"channel": 9,
				"type": "channel",
				"subtype": "noteOff",
				"noteNumber": 42,
				"velocity": 64
			},
			{
				"deltaTime": 190,
				"channel": 9,
				"type": "channel",
				"subtype": "noteOff",
				"noteNumber": 36,
				"velocity": 64
			},
			{
				"deltaTime": 68,
				"channel": 9,
				"type": "channel",
				"noteNumber": 42,
				"velocity": 127,
				"subtype": "noteOn"
			},
			{
				"deltaTime": 55,
				"channel": 9,
				"type": "channel",
				"subtype": "noteOff",
				"noteNumber": 42,
				"velocity": 64
			},
			{
				"deltaTime": 114,
				"channel": 9,
				"type": "channel",
				"noteNumber": 40,
				"velocity": 127,
				"subtype": "noteOn"
			},
			{
				"deltaTime": 0,
				"channel": 9,
				"type": "channel",
				"noteNumber": 42,
				"velocity": 127,
				"subtype": "noteOn"
			},
			{
				"deltaTime": 75,
				"channel": 9,
				"type": "channel",
				"subtype": "noteOff",
				"noteNumber": 42,
				"velocity": 64
			},
			{
				"deltaTime": 170,
				"channel": 9,
				"type": "channel",
				"subtype": "noteOff",
				"noteNumber": 40,
				"velocity": 64
			},
			{
				"deltaTime": 58,
				"channel": 9,
				"type": "channel",
				"noteNumber": 36,
				"velocity": 76,
				"subtype": "noteOn"
			},
			{
				"deltaTime": 0,
				"channel": 9,
				"type": "channel",
				"noteNumber": 42,
				"velocity": 127,
				"subtype": "noteOn"
			},
			{
				"deltaTime": 65,
				"channel": 9,
				"type": "channel",
				"subtype": "noteOff",
				"noteNumber": 42,
				"velocity": 64
			},
			{
				"deltaTime": 15,
				"channel": 9,
				"type": "channel",
				"subtype": "noteOff",
				"noteNumber": 36,
				"velocity": 64
			},
			{
				"deltaTime": 89,
				"channel": 9,
				"type": "channel",
				"noteNumber": 36,
				"velocity": 98,
				"subtype": "noteOn"
			},
			{
				"deltaTime": 0,
				"channel": 9,
				"type": "channel",
				"noteNumber": 42,
				"velocity": 127,
				"subtype": "noteOn"
			},
			{
				"deltaTime": 70,
				"channel": 9,
				"type": "channel",
				"subtype": "noteOff",
				"noteNumber": 42,
				"velocity": 64
			},
			{
				"deltaTime": 115,
				"channel": 9,
				"type": "channel",
				"subtype": "noteOff",
				"noteNumber": 36,
				"velocity": 64
			},
			{
				"deltaTime": 136,
				"channel": 9,
				"type": "channel",
				"noteNumber": 36,
				"velocity": 85,
				"subtype": "noteOn"
			},
			{
				"deltaTime": 0,
				"channel": 9,
				"type": "channel",
				"noteNumber": 42,
				"velocity": 127,
				"subtype": "noteOn"
			},
			{
				"deltaTime": 55,
				"channel": 9,
				"type": "channel",
				"subtype": "noteOff",
				"noteNumber": 42,
				"velocity": 64
			},
			{
				"deltaTime": 65,
				"channel": 9,
				"type": "channel",
				"subtype": "noteOff",
				"noteNumber": 36,
				"velocity": 64
			},
			{
				"deltaTime": 43,
				"channel": 9,
				"type": "channel",
				"noteNumber": 40,
				"velocity": 127,
				"subtype": "noteOn"
			},
			{
				"deltaTime": 0,
				"channel": 9,
				"type": "channel",
				"noteNumber": 42,
				"velocity": 127,
				"subtype": "noteOn"
			},
			{
				"deltaTime": 115,
				"channel": 9,
				"type": "channel",
				"subtype": "noteOff",
				"noteNumber": 42,
				"velocity": 64
			},
			{
				"deltaTime": 202,
				"channel": 9,
				"type": "channel",
				"noteNumber": 36,
				"velocity": 93,
				"subtype": "noteOn"
			},
			{
				"deltaTime": 0,
				"channel": 9,
				"type": "channel",
				"noteNumber": 46,
				"velocity": 119,
				"subtype": "noteOn"
			},
			{
				"deltaTime": 3,
				"channel": 9,
				"type": "channel",
				"subtype": "noteOff",
				"noteNumber": 40,
				"velocity": 64
			},
			{
				"deltaTime": 82,
				"channel": 9,
				"type": "channel",
				"subtype": "noteOff",
				"noteNumber": 36,
				"velocity": 64
			},
			{
				"deltaTime": 65,
				"channel": 9,
				"type": "channel",
				"subtype": "noteOff",
				"noteNumber": 46,
				"velocity": 64
			},
			{
				"deltaTime": 10,
				"channel": 9,
				"type": "channel",
				"noteNumber": 36,
				"velocity": 107,
				"subtype": "noteOn"
			},
			{
				"deltaTime": 0,
				"channel": 9,
				"type": "channel",
				"noteNumber": 42,
				"velocity": 119,
				"subtype": "noteOn"
			},
			{
				"deltaTime": 0,
				"channel": 9,
				"type": "channel",
				"noteNumber": 49,
				"velocity": 76,
				"subtype": "noteOn"
			},
			{
				"deltaTime": 45,
				"channel": 9,
				"type": "channel",
				"subtype": "noteOff",
				"noteNumber": 49,
				"velocity": 64
			},
			{
				"deltaTime": 30,
				"channel": 9,
				"type": "channel",
				"subtype": "noteOff",
				"noteNumber": 42,
				"velocity": 64
			},
			{
				"deltaTime": 155,
				"channel": 9,
				"type": "channel",
				"subtype": "noteOff",
				"noteNumber": 36,
				"velocity": 64
			},
			{
				"deltaTime": 88,
				"channel": 9,
				"type": "channel",
				"noteNumber": 42,
				"velocity": 127,
				"subtype": "noteOn"
			},
			{
				"deltaTime": 55,
				"channel": 9,
				"type": "channel",
				"subtype": "noteOff",
				"noteNumber": 42,
				"velocity": 64
			},
			{
				"deltaTime": 114,
				"channel": 9,
				"type": "channel",
				"noteNumber": 40,
				"velocity": 127,
				"subtype": "noteOn"
			},
			{
				"deltaTime": 0,
				"channel": 9,
				"type": "channel",
				"noteNumber": 42,
				"velocity": 127,
				"subtype": "noteOn"
			},
			{
				"deltaTime": 80,
				"channel": 9,
				"type": "channel",
				"subtype": "noteOff",
				"noteNumber": 42,
				"velocity": 64
			},
			{
				"deltaTime": 170,
				"channel": 9,
				"type": "channel",
				"subtype": "noteOff",
				"noteNumber": 40,
				"velocity": 64
			},
			{
				"deltaTime": 53,
				"channel": 9,
				"type": "channel",
				"noteNumber": 36,
				"velocity": 98,
				"subtype": "noteOn"
			},
			{
				"deltaTime": 0,
				"channel": 9,
				"type": "channel",
				"noteNumber": 42,
				"velocity": 127,
				"subtype": "noteOn"
			},
			{
				"deltaTime": 55,
				"channel": 9,
				"type": "channel",
				"subtype": "noteOff",
				"noteNumber": 42,
				"velocity": 64
			},
			{
				"deltaTime": 20,
				"channel": 9,
				"type": "channel",
				"subtype": "noteOff",
				"noteNumber": 36,
				"velocity": 64
			},
			{
				"deltaTime": 94,
				"channel": 9,
				"type": "channel",
				"noteNumber": 36,
				"velocity": 107,
				"subtype": "noteOn"
			},
			{
				"deltaTime": 0,
				"channel": 9,
				"type": "channel",
				"noteNumber": 42,
				"velocity": 127,
				"subtype": "noteOn"
			},
			{
				"deltaTime": 70,
				"channel": 9,
				"type": "channel",
				"subtype": "noteOff",
				"noteNumber": 42,
				"velocity": 64
			},
			{
				"deltaTime": 105,
				"channel": 9,
				"type": "channel",
				"subtype": "noteOff",
				"noteNumber": 36,
				"velocity": 64
			},
			{
				"deltaTime": 146,
				"channel": 9,
				"type": "channel",
				"noteNumber": 42,
				"velocity": 127,
				"subtype": "noteOn"
			},
			{
				"deltaTime": 60,
				"channel": 9,
				"type": "channel",
				"subtype": "noteOff",
				"noteNumber": 42,
				"velocity": 64
			},
			{
				"deltaTime": 103,
				"channel": 9,
				"type": "channel",
				"noteNumber": 40,
				"velocity": 127,
				"subtype": "noteOn"
			},
			{
				"deltaTime": 0,
				"channel": 9,
				"type": "channel",
				"noteNumber": 42,
				"velocity": 127,
				"subtype": "noteOn"
			},
			{
				"deltaTime": 105,
				"channel": 9,
				"type": "channel",
				"subtype": "noteOff",
				"noteNumber": 42,
				"velocity": 64
			},
			{
				"deltaTime": 160,
				"channel": 9,
				"type": "channel",
				"subtype": "noteOff",
				"noteNumber": 40,
				"velocity": 64
			},
			{
				"deltaTime": 52,
				"channel": 9,
				"type": "channel",
				"noteNumber": 36,
				"velocity": 93,
				"subtype": "noteOn"
			},
			{
				"deltaTime": 0,
				"channel": 9,
				"type": "channel",
				"noteNumber": 46,
				"velocity": 119,
				"subtype": "noteOn"
			},
			{
				"deltaTime": 75,
				"channel": 9,
				"type": "channel",
				"subtype": "noteOff",
				"noteNumber": 36,
				"velocity": 64
			},
			{
				"deltaTime": 85,
				"channel": 9,
				"type": "channel",
				"subtype": "noteOff",
				"noteNumber": 46,
				"velocity": 64
			},
			{
				"deltaTime": 0,
				"channel": 9,
				"type": "channel",
				"noteNumber": 36,
				"velocity": 102,
				"subtype": "noteOn"
			},
			{
				"deltaTime": 0,
				"channel": 9,
				"type": "channel",
				"noteNumber": 42,
				"velocity": 127,
				"subtype": "noteOn"
			},
			{
				"deltaTime": 70,
				"channel": 9,
				"type": "channel",
				"subtype": "noteOff",
				"noteNumber": 42,
				"velocity": 64
			},
			{
				"deltaTime": 150,
				"channel": 9,
				"type": "channel",
				"subtype": "noteOff",
				"noteNumber": 36,
				"velocity": 64
			},
			{
				"deltaTime": 98,
				"channel": 9,
				"type": "channel",
				"noteNumber": 42,
				"velocity": 127,
				"subtype": "noteOn"
			},
			{
				"deltaTime": 55,
				"channel": 9,
				"type": "channel",
				"subtype": "noteOff",
				"noteNumber": 42,
				"velocity": 64
			},
			{
				"deltaTime": 114,
				"channel": 9,
				"type": "channel",
				"noteNumber": 40,
				"velocity": 127,
				"subtype": "noteOn"
			},
			{
				"deltaTime": 0,
				"channel": 9,
				"type": "channel",
				"noteNumber": 42,
				"velocity": 127,
				"subtype": "noteOn"
			},
			{
				"deltaTime": 65,
				"channel": 9,
				"type": "channel",
				"subtype": "noteOff",
				"noteNumber": 42,
				"velocity": 64
			},
			{
				"deltaTime": 155,
				"channel": 9,
				"type": "channel",
				"subtype": "noteOff",
				"noteNumber": 40,
				"velocity": 64
			},
			{
				"deltaTime": 83,
				"channel": 9,
				"type": "channel",
				"noteNumber": 36,
				"velocity": 102,
				"subtype": "noteOn"
			},
			{
				"deltaTime": 0,
				"channel": 9,
				"type": "channel",
				"noteNumber": 42,
				"velocity": 127,
				"subtype": "noteOn"
			},
			{
				"deltaTime": 60,
				"channel": 9,
				"type": "channel",
				"subtype": "noteOff",
				"noteNumber": 42,
				"velocity": 64
			},
			{
				"deltaTime": 25,
				"channel": 9,
				"type": "channel",
				"subtype": "noteOff",
				"noteNumber": 36,
				"velocity": 64
			},
			{
				"deltaTime": 84,
				"channel": 9,
				"type": "channel",
				"noteNumber": 36,
				"velocity": 93,
				"subtype": "noteOn"
			},
			{
				"deltaTime": 0,
				"channel": 9,
				"type": "channel",
				"noteNumber": 42,
				"velocity": 127,
				"subtype": "noteOn"
			},
			{
				"deltaTime": 65,
				"channel": 9,
				"type": "channel",
				"subtype": "noteOff",
				"noteNumber": 42,
				"velocity": 64
			},
			{
				"deltaTime": 50,
				"channel": 9,
				"type": "channel",
				"subtype": "noteOff",
				"noteNumber": 36,
				"velocity": 64
			},
			{
				"deltaTime": 206,
				"channel": 9,
				"type": "channel",
				"noteNumber": 36,
				"velocity": 102,
				"subtype": "noteOn"
			},
			{
				"deltaTime": 0,
				"channel": 9,
				"type": "channel",
				"noteNumber": 42,
				"velocity": 127,
				"subtype": "noteOn"
			},
			{
				"deltaTime": 55,
				"channel": 9,
				"type": "channel",
				"subtype": "noteOff",
				"noteNumber": 42,
				"velocity": 64
			},
			{
				"deltaTime": 35,
				"channel": 9,
				"type": "channel",
				"subtype": "noteOff",
				"noteNumber": 36,
				"velocity": 64
			},
			{
				"deltaTime": 73,
				"channel": 9,
				"type": "channel",
				"noteNumber": 40,
				"velocity": 127,
				"subtype": "noteOn"
			},
			{
				"deltaTime": 0,
				"channel": 9,
				"type": "channel",
				"noteNumber": 42,
				"velocity": 127,
				"subtype": "noteOn"
			},
			{
				"deltaTime": 70,
				"channel": 9,
				"type": "channel",
				"subtype": "noteOff",
				"noteNumber": 42,
				"velocity": 64
			},
			{
				"deltaTime": 200,
				"channel": 9,
				"type": "channel",
				"subtype": "noteOff",
				"noteNumber": 40,
				"velocity": 64
			},
			{
				"deltaTime": 47,
				"channel": 9,
				"type": "channel",
				"noteNumber": 36,
				"velocity": 102,
				"subtype": "noteOn"
			},
			{
				"deltaTime": 0,
				"channel": 9,
				"type": "channel",
				"noteNumber": 42,
				"velocity": 127,
				"subtype": "noteOn"
			},
			{
				"deltaTime": 65,
				"channel": 9,
				"type": "channel",
				"subtype": "noteOff",
				"noteNumber": 42,
				"velocity": 64
			},
			{
				"deltaTime": 10,
				"channel": 9,
				"type": "channel",
				"subtype": "noteOff",
				"noteNumber": 36,
				"velocity": 64
			},
			{
				"deltaTime": 85,
				"channel": 9,
				"type": "channel",
				"noteNumber": 36,
				"velocity": 113,
				"subtype": "noteOn"
			},
			{
				"deltaTime": 0,
				"channel": 9,
				"type": "channel",
				"noteNumber": 42,
				"velocity": 127,
				"subtype": "noteOn"
			},
			{
				"deltaTime": 65,
				"channel": 9,
				"type": "channel",
				"subtype": "noteOff",
				"noteNumber": 42,
				"velocity": 64
			},
			{
				"deltaTime": 95,
				"channel": 9,
				"type": "channel",
				"subtype": "noteOff",
				"noteNumber": 36,
				"velocity": 64
			},
			{
				"deltaTime": 158,
				"channel": 9,
				"type": "channel",
				"noteNumber": 42,
				"velocity": 127,
				"subtype": "noteOn"
			},
			{
				"deltaTime": 50,
				"channel": 9,
				"type": "channel",
				"subtype": "noteOff",
				"noteNumber": 42,
				"velocity": 64
			},
			{
				"deltaTime": 119,
				"channel": 9,
				"type": "channel",
				"noteNumber": 40,
				"velocity": 127,
				"subtype": "noteOn"
			},
			{
				"deltaTime": 0,
				"channel": 9,
				"type": "channel",
				"noteNumber": 42,
				"velocity": 127,
				"subtype": "noteOn"
			},
			{
				"deltaTime": 70,
				"channel": 9,
				"type": "channel",
				"subtype": "noteOff",
				"noteNumber": 42,
				"velocity": 64
			},
			{
				"deltaTime": 210,
				"channel": 9,
				"type": "channel",
				"subtype": "noteOff",
				"noteNumber": 40,
				"velocity": 64
			},
			{
				"deltaTime": 23,
				"channel": 9,
				"type": "channel",
				"noteNumber": 36,
				"velocity": 98,
				"subtype": "noteOn"
			},
			{
				"deltaTime": 0,
				"channel": 9,
				"type": "channel",
				"noteNumber": 42,
				"velocity": 127,
				"subtype": "noteOn"
			},
			{
				"deltaTime": 60,
				"channel": 9,
				"type": "channel",
				"subtype": "noteOff",
				"noteNumber": 42,
				"velocity": 64
			},
			{
				"deltaTime": 35,
				"channel": 9,
				"type": "channel",
				"subtype": "noteOff",
				"noteNumber": 36,
				"velocity": 64
			},
			{
				"deltaTime": 74,
				"channel": 9,
				"type": "channel",
				"noteNumber": 36,
				"velocity": 102,
				"subtype": "noteOn"
			},
			{
				"deltaTime": 0,
				"channel": 9,
				"type": "channel",
				"noteNumber": 42,
				"velocity": 127,
				"subtype": "noteOn"
			},
			{
				"deltaTime": 80,
				"channel": 9,
				"type": "channel",
				"subtype": "noteOff",
				"noteNumber": 42,
				"velocity": 64
			},
			{
				"deltaTime": 135,
				"channel": 9,
				"type": "channel",
				"subtype": "noteOff",
				"noteNumber": 36,
				"velocity": 64
			},
			{
				"deltaTime": 106,
				"channel": 9,
				"type": "channel",
				"noteNumber": 42,
				"velocity": 127,
				"subtype": "noteOn"
			},
			{
				"deltaTime": 55,
				"channel": 9,
				"type": "channel",
				"subtype": "noteOff",
				"noteNumber": 42,
				"velocity": 64
			},
			{
				"deltaTime": 108,
				"channel": 9,
				"type": "channel",
				"noteNumber": 40,
				"velocity": 127,
				"subtype": "noteOn"
			},
			{
				"deltaTime": 0,
				"channel": 9,
				"type": "channel",
				"noteNumber": 42,
				"velocity": 127,
				"subtype": "noteOn"
			},
			{
				"deltaTime": 75,
				"channel": 9,
				"type": "channel",
				"subtype": "noteOff",
				"noteNumber": 42,
				"velocity": 64
			},
			{
				"deltaTime": 205,
				"channel": 9,
				"type": "channel",
				"subtype": "noteOff",
				"noteNumber": 40,
				"velocity": 64
			},
			{
				"deltaTime": 37,
				"channel": 9,
				"type": "channel",
				"noteNumber": 36,
				"velocity": 98,
				"subtype": "noteOn"
			},
			{
				"deltaTime": 0,
				"channel": 9,
				"type": "channel",
				"noteNumber": 42,
				"velocity": 127,
				"subtype": "noteOn"
			},
			{
				"deltaTime": 65,
				"channel": 9,
				"type": "channel",
				"subtype": "noteOff",
				"noteNumber": 42,
				"velocity": 64
			},
			{
				"deltaTime": 20,
				"channel": 9,
				"type": "channel",
				"subtype": "noteOff",
				"noteNumber": 36,
				"velocity": 64
			},
			{
				"deltaTime": 75,
				"channel": 9,
				"type": "channel",
				"noteNumber": 36,
				"velocity": 102,
				"subtype": "noteOn"
			},
			{
				"deltaTime": 0,
				"channel": 9,
				"type": "channel",
				"noteNumber": 42,
				"velocity": 127,
				"subtype": "noteOn"
			},
			{
				"deltaTime": 70,
				"channel": 9,
				"type": "channel",
				"subtype": "noteOff",
				"noteNumber": 42,
				"velocity": 64
			},
			{
				"deltaTime": 248,
				"channel": 9,
				"type": "channel",
				"noteNumber": 42,
				"velocity": 127,
				"subtype": "noteOn"
			},
			{
				"deltaTime": 60,
				"channel": 9,
				"type": "channel",
				"subtype": "noteOff",
				"noteNumber": 42,
				"velocity": 64
			},
			{
				"deltaTime": 109,
				"channel": 9,
				"type": "channel",
				"noteNumber": 40,
				"velocity": 127,
				"subtype": "noteOn"
			},
			{
				"deltaTime": 0,
				"channel": 9,
				"type": "channel",
				"noteNumber": 42,
				"velocity": 127,
				"subtype": "noteOn"
			},
			{
				"deltaTime": 33,
				"channel": 9,
				"type": "channel",
				"subtype": "noteOff",
				"noteNumber": 36,
				"velocity": 64
			},
			{
				"deltaTime": 52,
				"channel": 9,
				"type": "channel",
				"subtype": "noteOff",
				"noteNumber": 42,
				"velocity": 64
			},
			{
				"deltaTime": 218,
				"channel": 9,
				"type": "channel",
				"noteNumber": 36,
				"velocity": 85,
				"subtype": "noteOn"
			},
			{
				"deltaTime": 0,
				"channel": 9,
				"type": "channel",
				"noteNumber": 42,
				"velocity": 127,
				"subtype": "noteOn"
			},
			{
				"deltaTime": 45,
				"channel": 9,
				"type": "channel",
				"subtype": "noteOff",
				"noteNumber": 36,
				"velocity": 64
			},
			{
				"deltaTime": 15,
				"channel": 9,
				"type": "channel",
				"subtype": "noteOff",
				"noteNumber": 42,
				"velocity": 64
			},
			{
				"deltaTime": 102,
				"channel": 9,
				"type": "channel",
				"subtype": "noteOff",
				"noteNumber": 40,
				"velocity": 64
			},
			{
				"deltaTime": 7,
				"channel": 9,
				"type": "channel",
				"noteNumber": 36,
				"velocity": 93,
				"subtype": "noteOn"
			},
			{
				"deltaTime": 0,
				"channel": 9,
				"type": "channel",
				"noteNumber": 42,
				"velocity": 127,
				"subtype": "noteOn"
			},
			{
				"deltaTime": 80,
				"channel": 9,
				"type": "channel",
				"subtype": "noteOff",
				"noteNumber": 42,
				"velocity": 64
			},
			{
				"deltaTime": 74,
				"channel": 9,
				"type": "channel",
				"noteNumber": 40,
				"velocity": 127,
				"subtype": "noteOn"
			},
			{
				"deltaTime": 41,
				"channel": 9,
				"type": "channel",
				"subtype": "noteOff",
				"noteNumber": 36,
				"velocity": 64
			},
			{
				"deltaTime": 104,
				"channel": 9,
				"type": "channel",
				"subtype": "noteOff",
				"noteNumber": 40,
				"velocity": 64
			},
			{
				"deltaTime": 22,
				"channel": 9,
				"type": "channel",
				"noteNumber": 36,
				"velocity": 76,
				"subtype": "noteOn"
			},
			{
				"deltaTime": 0,
				"channel": 9,
				"type": "channel",
				"noteNumber": 42,
				"velocity": 127,
				"subtype": "noteOn"
			},
			{
				"deltaTime": 60,
				"channel": 9,
				"type": "channel",
				"subtype": "noteOff",
				"noteNumber": 42,
				"velocity": 64
			},
			{
				"deltaTime": 103,
				"channel": 9,
				"type": "channel",
				"noteNumber": 40,
				"velocity": 127,
				"subtype": "noteOn"
			},
			{
				"deltaTime": 0,
				"channel": 9,
				"type": "channel",
				"noteNumber": 42,
				"velocity": 127,
				"subtype": "noteOn"
			},
			{
				"deltaTime": 7,
				"channel": 9,
				"type": "channel",
				"subtype": "noteOff",
				"noteNumber": 36,
				"velocity": 64
			},
			{
				"deltaTime": 103,
				"channel": 9,
				"type": "channel",
				"subtype": "noteOff",
				"noteNumber": 42,
				"velocity": 64
			},
			{
				"deltaTime": 47,
				"channel": 9,
				"type": "channel",
				"noteNumber": 36,
				"velocity": 107,
				"subtype": "noteOn"
			},
			{
				"deltaTime": 73,
				"channel": 9,
				"type": "channel",
				"subtype": "noteOff",
				"noteNumber": 40,
				"velocity": 64
			},
			{
				"deltaTime": 27,
				"channel": 9,
				"type": "channel",
				"subtype": "noteOff",
				"noteNumber": 36,
				"velocity": 64
			},
			{
				"deltaTime": 60,
				"channel": 9,
				"type": "channel",
				"noteNumber": 36,
				"velocity": 107,
				"subtype": "noteOn"
			},
			{
				"deltaTime": 0,
				"channel": 9,
				"type": "channel",
				"noteNumber": 46,
				"velocity": 127,
				"subtype": "noteOn"
			},
			{
				"deltaTime": 90,
				"channel": 9,
				"type": "channel",
				"subtype": "noteOff",
				"noteNumber": 36,
				"velocity": 64
			},
			{
				"deltaTime": 40,
				"channel": 9,
				"type": "channel",
				"subtype": "noteOff",
				"noteNumber": 46,
				"velocity": 64
			},
			{
				"deltaTime": 30,
				"channel": 9,
				"type": "channel",
				"noteNumber": 36,
				"velocity": 107,
				"subtype": "noteOn"
			},
			{
				"deltaTime": 0,
				"channel": 9,
				"type": "channel",
				"noteNumber": 36,
				"velocity": 76,
				"subtype": "noteOn"
			},
			{
				"deltaTime": 0,
				"channel": 9,
				"type": "channel",
				"noteNumber": 51,
				"velocity": 127,
				"subtype": "noteOn"
			},
			{
				"deltaTime": 0,
				"channel": 9,
				"type": "channel",
				"noteNumber": 57,
				"velocity": 107,
				"subtype": "noteOn"
			},
			{
				"deltaTime": 1,
				"channel": 9,
				"type": "channel",
				"subtype": "noteOff",
				"noteNumber": 36,
				"velocity": 64
			},
			{
				"deltaTime": 24,
				"channel": 9,
				"type": "channel",
				"subtype": "noteOff",
				"noteNumber": 57,
				"velocity": 64
			},
			{
				"deltaTime": 45,
				"channel": 9,
				"type": "channel",
				"subtype": "noteOff",
				"noteNumber": 51,
				"velocity": 64
			},
			{
				"deltaTime": 248,
				"channel": 9,
				"type": "channel",
				"noteNumber": 51,
				"velocity": 85,
				"subtype": "noteOn"
			},
			{
				"deltaTime": 20,
				"channel": 9,
				"type": "channel",
				"subtype": "noteOff",
				"noteNumber": 51,
				"velocity": 64
			},
			{
				"deltaTime": 149,
				"channel": 9,
				"type": "channel",
				"noteNumber": 40,
				"velocity": 127,
				"subtype": "noteOn"
			},
			{
				"deltaTime": 0,
				"channel": 9,
				"type": "channel",
				"noteNumber": 51,
				"velocity": 127,
				"subtype": "noteOn"
			},
			{
				"deltaTime": 110,
				"channel": 9,
				"type": "channel",
				"subtype": "noteOff",
				"noteNumber": 51,
				"velocity": 64
			},
			{
				"deltaTime": 43,
				"channel": 9,
				"type": "channel",
				"subtype": "noteOff",
				"noteNumber": 36,
				"velocity": 64
			},
			{
				"deltaTime": 150,
				"channel": 9,
				"type": "channel",
				"noteNumber": 36,
				"velocity": 93,
				"subtype": "noteOn"
			},
			{
				"deltaTime": 0,
				"channel": 9,
				"type": "channel",
				"noteNumber": 51,
				"velocity": 107,
				"subtype": "noteOn"
			},
			{
				"deltaTime": 17,
				"channel": 9,
				"type": "channel",
				"subtype": "noteOff",
				"noteNumber": 40,
				"velocity": 64
			},
			{
				"deltaTime": 28,
				"channel": 9,
				"type": "channel",
				"subtype": "noteOff",
				"noteNumber": 51,
				"velocity": 64
			},
			{
				"deltaTime": 20,
				"channel": 9,
				"type": "channel",
				"subtype": "noteOff",
				"noteNumber": 36,
				"velocity": 64
			},
			{
				"deltaTime": 104,
				"channel": 9,
				"type": "channel",
				"noteNumber": 36,
				"velocity": 93,
				"subtype": "noteOn"
			},
			{
				"deltaTime": 0,
				"channel": 9,
				"type": "channel",
				"noteNumber": 51,
				"velocity": 127,
				"subtype": "noteOn"
			},
			{
				"deltaTime": 60,
				"channel": 9,
				"type": "channel",
				"subtype": "noteOff",
				"noteNumber": 51,
				"velocity": 64
			},
			{
				"deltaTime": 261,
				"channel": 9,
				"type": "channel",
				"noteNumber": 51,
				"velocity": 98,
				"subtype": "noteOn"
			},
			{
				"deltaTime": 35,
				"channel": 9,
				"type": "channel",
				"subtype": "noteOff",
				"noteNumber": 51,
				"velocity": 64
			},
			{
				"deltaTime": 128,
				"channel": 9,
				"type": "channel",
				"noteNumber": 40,
				"velocity": 127,
				"subtype": "noteOn"
			},
			{
				"deltaTime": 0,
				"channel": 9,
				"type": "channel",
				"noteNumber": 51,
				"velocity": 127,
				"subtype": "noteOn"
			},
			{
				"deltaTime": 75,
				"channel": 9,
				"type": "channel",
				"subtype": "noteOff",
				"noteNumber": 51,
				"velocity": 64
			},
			{
				"deltaTime": 71,
				"channel": 9,
				"type": "channel",
				"subtype": "noteOff",
				"noteNumber": 36,
				"velocity": 64
			},
			{
				"deltaTime": 159,
				"channel": 9,
				"type": "channel",
				"subtype": "noteOff",
				"noteNumber": 40,
				"velocity": 64
			},
			{
				"deltaTime": 12,
				"channel": 9,
				"type": "channel",
				"noteNumber": 36,
				"velocity": 72,
				"subtype": "noteOn"
			},
			{
				"deltaTime": 0,
				"channel": 9,
				"type": "channel",
				"noteNumber": 51,
				"velocity": 113,
				"subtype": "noteOn"
			},
			{
				"deltaTime": 45,
				"channel": 9,
				"type": "channel",
				"subtype": "noteOff",
				"noteNumber": 51,
				"velocity": 64
			},
			{
				"deltaTime": 20,
				"channel": 9,
				"type": "channel",
				"subtype": "noteOff",
				"noteNumber": 36,
				"velocity": 64
			},
			{
				"deltaTime": 95,
				"channel": 9,
				"type": "channel",
				"noteNumber": 36,
				"velocity": 107,
				"subtype": "noteOn"
			},
			{
				"deltaTime": 0,
				"channel": 9,
				"type": "channel",
				"noteNumber": 51,
				"velocity": 127,
				"subtype": "noteOn"
			},
			{
				"deltaTime": 70,
				"channel": 9,
				"type": "channel",
				"subtype": "noteOff",
				"noteNumber": 51,
				"velocity": 64
			},
			{
				"deltaTime": 248,
				"channel": 9,
				"type": "channel",
				"noteNumber": 51,
				"velocity": 85,
				"subtype": "noteOn"
			},
			{
				"deltaTime": 35,
				"channel": 9,
				"type": "channel",
				"subtype": "noteOff",
				"noteNumber": 51,
				"velocity": 64
			},
			{
				"deltaTime": 134,
				"channel": 9,
				"type": "channel",
				"noteNumber": 40,
				"velocity": 127,
				"subtype": "noteOn"
			},
			{
				"deltaTime": 0,
				"channel": 9,
				"type": "channel",
				"noteNumber": 51,
				"velocity": 127,
				"subtype": "noteOn"
			},
			{
				"deltaTime": 75,
				"channel": 9,
				"type": "channel",
				"subtype": "noteOff",
				"noteNumber": 51,
				"velocity": 64
			},
			{
				"deltaTime": 78,
				"channel": 9,
				"type": "channel",
				"subtype": "noteOff",
				"noteNumber": 36,
				"velocity": 64
			},
			{
				"deltaTime": 150,
				"channel": 9,
				"type": "channel",
				"noteNumber": 36,
				"velocity": 85,
				"subtype": "noteOn"
			},
			{
				"deltaTime": 0,
				"channel": 9,
				"type": "channel",
				"noteNumber": 51,
				"velocity": 107,
				"subtype": "noteOn"
			},
			{
				"deltaTime": 32,
				"channel": 9,
				"type": "channel",
				"subtype": "noteOff",
				"noteNumber": 40,
				"velocity": 64
			},
			{
				"deltaTime": 8,
				"channel": 9,
				"type": "channel",
				"subtype": "noteOff",
				"noteNumber": 51,
				"velocity": 64
			},
			{
				"deltaTime": 25,
				"channel": 9,
				"type": "channel",
				"subtype": "noteOff",
				"noteNumber": 36,
				"velocity": 64
			},
			{
				"deltaTime": 104,
				"channel": 9,
				"type": "channel",
				"noteNumber": 36,
				"velocity": 85,
				"subtype": "noteOn"
			},
			{
				"deltaTime": 0,
				"channel": 9,
				"type": "channel",
				"noteNumber": 51,
				"velocity": 107,
				"subtype": "noteOn"
			},
			{
				"deltaTime": 55,
				"channel": 9,
				"type": "channel",
				"subtype": "noteOff",
				"noteNumber": 51,
				"velocity": 64
			},
			{
				"deltaTime": 266,
				"channel": 9,
				"type": "channel",
				"noteNumber": 51,
				"velocity": 107,
				"subtype": "noteOn"
			},
			{
				"deltaTime": 45,
				"channel": 9,
				"type": "channel",
				"subtype": "noteOff",
				"noteNumber": 51,
				"velocity": 64
			},
			{
				"deltaTime": 118,
				"channel": 9,
				"type": "channel",
				"noteNumber": 40,
				"velocity": 127,
				"subtype": "noteOn"
			},
			{
				"deltaTime": 0,
				"channel": 9,
				"type": "channel",
				"noteNumber": 51,
				"velocity": 127,
				"subtype": "noteOn"
			},
			{
				"deltaTime": 75,
				"channel": 9,
				"type": "channel",
				"subtype": "noteOff",
				"noteNumber": 51,
				"velocity": 64
			},
			{
				"deltaTime": 76,
				"channel": 9,
				"type": "channel",
				"subtype": "noteOff",
				"noteNumber": 36,
				"velocity": 64
			},
			{
				"deltaTime": 49,
				"channel": 9,
				"type": "channel",
				"subtype": "noteOff",
				"noteNumber": 40,
				"velocity": 64
			},
			{
				"deltaTime": 117,
				"channel": 9,
				"type": "channel",
				"noteNumber": 36,
				"velocity": 93,
				"subtype": "noteOn"
			},
			{
				"deltaTime": 0,
				"channel": 9,
				"type": "channel",
				"noteNumber": 51,
				"velocity": 127,
				"subtype": "noteOn"
			},
			{
				"deltaTime": 35,
				"channel": 9,
				"type": "channel",
				"subtype": "noteOff",
				"noteNumber": 51,
				"velocity": 64
			},
			{
				"deltaTime": 5,
				"channel": 9,
				"type": "channel",
				"subtype": "noteOff",
				"noteNumber": 36,
				"velocity": 64
			},
			{
				"deltaTime": 120,
				"channel": 9,
				"type": "channel",
				"noteNumber": 36,
				"velocity": 107,
				"subtype": "noteOn"
			},
			{
				"deltaTime": 0,
				"channel": 9,
				"type": "channel",
				"noteNumber": 51,
				"velocity": 127,
				"subtype": "noteOn"
			},
			{
				"deltaTime": 40,
				"channel": 9,
				"type": "channel",
				"subtype": "noteOff",
				"noteNumber": 51,
				"velocity": 64
			},
			{
				"deltaTime": 278,
				"channel": 9,
				"type": "channel",
				"noteNumber": 51,
				"velocity": 68,
				"subtype": "noteOn"
			},
			{
				"deltaTime": 25,
				"channel": 9,
				"type": "channel",
				"subtype": "noteOff",
				"noteNumber": 51,
				"velocity": 64
			},
			{
				"deltaTime": 144,
				"channel": 9,
				"type": "channel",
				"noteNumber": 40,
				"velocity": 127,
				"subtype": "noteOn"
			},
			{
				"deltaTime": 0,
				"channel": 9,
				"type": "channel",
				"noteNumber": 51,
				"velocity": 127,
				"subtype": "noteOn"
			},
			{
				"deltaTime": 125,
				"channel": 9,
				"type": "channel",
				"subtype": "noteOff",
				"noteNumber": 51,
				"velocity": 64
			},
			{
				"deltaTime": 38,
				"channel": 9,
				"type": "channel",
				"subtype": "noteOff",
				"noteNumber": 36,
				"velocity": 64
			},
			{
				"deltaTime": 140,
				"channel": 9,
				"type": "channel",
				"noteNumber": 36,
				"velocity": 50,
				"subtype": "noteOn"
			},
			{
				"deltaTime": 0,
				"channel": 9,
				"type": "channel",
				"noteNumber": 51,
				"velocity": 102,
				"subtype": "noteOn"
			},
			{
				"deltaTime": 50,
				"channel": 9,
				"type": "channel",
				"subtype": "noteOff",
				"noteNumber": 36,
				"velocity": 64
			},
			{
				"deltaTime": 0,
				"channel": 9,
				"type": "channel",
				"subtype": "noteOff",
				"noteNumber": 51,
				"velocity": 64
			},
			{
				"deltaTime": 22,
				"channel": 9,
				"type": "channel",
				"subtype": "noteOff",
				"noteNumber": 40,
				"velocity": 64
			},
			{
				"deltaTime": 97,
				"channel": 9,
				"type": "channel",
				"noteNumber": 36,
				"velocity": 85,
				"subtype": "noteOn"
			},
			{
				"deltaTime": 0,
				"channel": 9,
				"type": "channel",
				"noteNumber": 51,
				"velocity": 113,
				"subtype": "noteOn"
			},
			{
				"deltaTime": 95,
				"channel": 9,
				"type": "channel",
				"subtype": "noteOff",
				"noteNumber": 51,
				"velocity": 64
			},
			{
				"deltaTime": 226,
				"channel": 9,
				"type": "channel",
				"noteNumber": 51,
				"velocity": 93,
				"subtype": "noteOn"
			},
			{
				"deltaTime": 35,
				"channel": 9,
				"type": "channel",
				"subtype": "noteOff",
				"noteNumber": 51,
				"velocity": 64
			},
			{
				"deltaTime": 128,
				"channel": 9,
				"type": "channel",
				"noteNumber": 40,
				"velocity": 127,
				"subtype": "noteOn"
			},
			{
				"deltaTime": 0,
				"channel": 9,
				"type": "channel",
				"noteNumber": 51,
				"velocity": 127,
				"subtype": "noteOn"
			},
			{
				"deltaTime": 120,
				"channel": 9,
				"type": "channel",
				"subtype": "noteOff",
				"noteNumber": 51,
				"velocity": 64
			},
			{
				"deltaTime": 86,
				"channel": 9,
				"type": "channel",
				"subtype": "noteOff",
				"noteNumber": 36,
				"velocity": 64
			},
			{
				"deltaTime": 94,
				"channel": 9,
				"type": "channel",
				"subtype": "noteOff",
				"noteNumber": 40,
				"velocity": 64
			},
			{
				"deltaTime": 17,
				"channel": 9,
				"type": "channel",
				"noteNumber": 36,
				"velocity": 72,
				"subtype": "noteOn"
			},
			{
				"deltaTime": 0,
				"channel": 9,
				"type": "channel",
				"noteNumber": 51,
				"velocity": 107,
				"subtype": "noteOn"
			},
			{
				"deltaTime": 55,
				"channel": 9,
				"type": "channel",
				"subtype": "noteOff",
				"noteNumber": 51,
				"velocity": 64
			},
			{
				"deltaTime": 25,
				"channel": 9,
				"type": "channel",
				"subtype": "noteOff",
				"noteNumber": 36,
				"velocity": 64
			},
			{
				"deltaTime": 80,
				"channel": 9,
				"type": "channel",
				"noteNumber": 36,
				"velocity": 80,
				"subtype": "noteOn"
			},
			{
				"deltaTime": 0,
				"channel": 9,
				"type": "channel",
				"noteNumber": 51,
				"velocity": 113,
				"subtype": "noteOn"
			},
			{
				"deltaTime": 95,
				"channel": 9,
				"type": "channel",
				"subtype": "noteOff",
				"noteNumber": 51,
				"velocity": 64
			},
			{
				"deltaTime": 223,
				"channel": 9,
				"type": "channel",
				"noteNumber": 51,
				"velocity": 68,
				"subtype": "noteOn"
			},
			{
				"deltaTime": 25,
				"channel": 9,
				"type": "channel",
				"subtype": "noteOff",
				"noteNumber": 51,
				"velocity": 64
			},
			{
				"deltaTime": 144,
				"channel": 9,
				"type": "channel",
				"noteNumber": 40,
				"velocity": 127,
				"subtype": "noteOn"
			},
			{
				"deltaTime": 0,
				"channel": 9,
				"type": "channel",
				"noteNumber": 51,
				"velocity": 127,
				"subtype": "noteOn"
			},
			{
				"deltaTime": 140,
				"channel": 9,
				"type": "channel",
				"subtype": "noteOff",
				"noteNumber": 51,
				"velocity": 64
			},
			{
				"deltaTime": 73,
				"channel": 9,
				"type": "channel",
				"subtype": "noteOff",
				"noteNumber": 36,
				"velocity": 64
			},
			{
				"deltaTime": 82,
				"channel": 9,
				"type": "channel",
				"subtype": "noteOff",
				"noteNumber": 40,
				"velocity": 64
			},
			{
				"deltaTime": 8,
				"channel": 9,
				"type": "channel",
				"noteNumber": 36,
				"velocity": 72,
				"subtype": "noteOn"
			},
			{
				"deltaTime": 0,
				"channel": 9,
				"type": "channel",
				"noteNumber": 51,
				"velocity": 98,
				"subtype": "noteOn"
			},
			{
				"deltaTime": 45,
				"channel": 9,
				"type": "channel",
				"subtype": "noteOff",
				"noteNumber": 51,
				"velocity": 64
			},
			{
				"deltaTime": 10,
				"channel": 9,
				"type": "channel",
				"subtype": "noteOff",
				"noteNumber": 36,
				"velocity": 64
			},
			{
				"deltaTime": 114,
				"channel": 9,
				"type": "channel",
				"noteNumber": 36,
				"velocity": 98,
				"subtype": "noteOn"
			},
			{
				"deltaTime": 0,
				"channel": 9,
				"type": "channel",
				"noteNumber": 51,
				"velocity": 113,
				"subtype": "noteOn"
			},
			{
				"deltaTime": 90,
				"channel": 9,
				"type": "channel",
				"subtype": "noteOff",
				"noteNumber": 51,
				"velocity": 64
			},
			{
				"deltaTime": 231,
				"channel": 9,
				"type": "channel",
				"noteNumber": 51,
				"velocity": 89,
				"subtype": "noteOn"
			},
			{
				"deltaTime": 35,
				"channel": 9,
				"type": "channel",
				"subtype": "noteOff",
				"noteNumber": 51,
				"velocity": 64
			},
			{
				"deltaTime": 128,
				"channel": 9,
				"type": "channel",
				"noteNumber": 40,
				"velocity": 127,
				"subtype": "noteOn"
			},
			{
				"deltaTime": 0,
				"channel": 9,
				"type": "channel",
				"noteNumber": 51,
				"velocity": 127,
				"subtype": "noteOn"
			},
			{
				"deltaTime": 120,
				"channel": 9,
				"type": "channel",
				"subtype": "noteOff",
				"noteNumber": 51,
				"velocity": 64
			},
			{
				"deltaTime": 46,
				"channel": 9,
				"type": "channel",
				"subtype": "noteOff",
				"noteNumber": 36,
				"velocity": 64
			},
			{
				"deltaTime": 144,
				"channel": 9,
				"type": "channel",
				"subtype": "noteOff",
				"noteNumber": 40,
				"velocity": 64
			},
			{
				"deltaTime": 7,
				"channel": 9,
				"type": "channel",
				"noteNumber": 36,
				"velocity": 76,
				"subtype": "noteOn"
			},
			{
				"deltaTime": 0,
				"channel": 9,
				"type": "channel",
				"noteNumber": 51,
				"velocity": 102,
				"subtype": "noteOn"
			},
			{
				"deltaTime": 45,
				"channel": 9,
				"type": "channel",
				"subtype": "noteOff",
				"noteNumber": 51,
				"velocity": 64
			},
			{
				"deltaTime": 20,
				"channel": 9,
				"type": "channel",
				"subtype": "noteOff",
				"noteNumber": 36,
				"velocity": 64
			},
			{
				"deltaTime": 95,
				"channel": 9,
				"type": "channel",
				"noteNumber": 36,
				"velocity": 76,
				"subtype": "noteOn"
			},
			{
				"deltaTime": 0,
				"channel": 9,
				"type": "channel",
				"noteNumber": 51,
				"velocity": 127,
				"subtype": "noteOn"
			},
			{
				"deltaTime": 70,
				"channel": 9,
				"type": "channel",
				"subtype": "noteOff",
				"noteNumber": 51,
				"velocity": 64
			},
			{
				"deltaTime": 248,
				"channel": 9,
				"type": "channel",
				"noteNumber": 51,
				"velocity": 85,
				"subtype": "noteOn"
			},
			{
				"deltaTime": 20,
				"channel": 9,
				"type": "channel",
				"subtype": "noteOff",
				"noteNumber": 51,
				"velocity": 64
			},
			{
				"deltaTime": 149,
				"channel": 9,
				"type": "channel",
				"noteNumber": 40,
				"velocity": 127,
				"subtype": "noteOn"
			},
			{
				"deltaTime": 0,
				"channel": 9,
				"type": "channel",
				"noteNumber": 49,
				"velocity": 107,
				"subtype": "noteOn"
			},
			{
				"deltaTime": 0,
				"channel": 9,
				"type": "channel",
				"noteNumber": 51,
				"velocity": 127,
				"subtype": "noteOn"
			},
			{
				"deltaTime": 60,
				"channel": 9,
				"type": "channel",
				"subtype": "noteOff",
				"noteNumber": 49,
				"velocity": 64
			},
			{
				"deltaTime": 50,
				"channel": 9,
				"type": "channel",
				"subtype": "noteOff",
				"noteNumber": 51,
				"velocity": 64
			},
			{
				"deltaTime": 43,
				"channel": 9,
				"type": "channel",
				"subtype": "noteOff",
				"noteNumber": 36,
				"velocity": 64
			},
			{
				"deltaTime": 150,
				"channel": 9,
				"type": "channel",
				"noteNumber": 36,
				"velocity": 93,
				"subtype": "noteOn"
			},
			{
				"deltaTime": 0,
				"channel": 9,
				"type": "channel",
				"noteNumber": 51,
				"velocity": 107,
				"subtype": "noteOn"
			},
			{
				"deltaTime": 17,
				"channel": 9,
				"type": "channel",
				"subtype": "noteOff",
				"noteNumber": 40,
				"velocity": 64
			},
			{
				"deltaTime": 28,
				"channel": 9,
				"type": "channel",
				"subtype": "noteOff",
				"noteNumber": 51,
				"velocity": 64
			},
			{
				"deltaTime": 20,
				"channel": 9,
				"type": "channel",
				"subtype": "noteOff",
				"noteNumber": 36,
				"velocity": 64
			},
			{
				"deltaTime": 104,
				"channel": 9,
				"type": "channel",
				"noteNumber": 36,
				"velocity": 93,
				"subtype": "noteOn"
			},
			{
				"deltaTime": 0,
				"channel": 9,
				"type": "channel",
				"noteNumber": 51,
				"velocity": 127,
				"subtype": "noteOn"
			},
			{
				"deltaTime": 60,
				"channel": 9,
				"type": "channel",
				"subtype": "noteOff",
				"noteNumber": 51,
				"velocity": 64
			},
			{
				"deltaTime": 261,
				"channel": 9,
				"type": "channel",
				"noteNumber": 51,
				"velocity": 98,
				"subtype": "noteOn"
			},
			{
				"deltaTime": 35,
				"channel": 9,
				"type": "channel",
				"subtype": "noteOff",
				"noteNumber": 51,
				"velocity": 64
			},
			{
				"deltaTime": 128,
				"channel": 9,
				"type": "channel",
				"noteNumber": 40,
				"velocity": 127,
				"subtype": "noteOn"
			},
			{
				"deltaTime": 0,
				"channel": 9,
				"type": "channel",
				"noteNumber": 51,
				"velocity": 127,
				"subtype": "noteOn"
			},
			{
				"deltaTime": 75,
				"channel": 9,
				"type": "channel",
				"subtype": "noteOff",
				"noteNumber": 51,
				"velocity": 64
			},
			{
				"deltaTime": 71,
				"channel": 9,
				"type": "channel",
				"subtype": "noteOff",
				"noteNumber": 36,
				"velocity": 64
			},
			{
				"deltaTime": 159,
				"channel": 9,
				"type": "channel",
				"subtype": "noteOff",
				"noteNumber": 40,
				"velocity": 64
			},
			{
				"deltaTime": 12,
				"channel": 9,
				"type": "channel",
				"noteNumber": 36,
				"velocity": 72,
				"subtype": "noteOn"
			},
			{
				"deltaTime": 0,
				"channel": 9,
				"type": "channel",
				"noteNumber": 51,
				"velocity": 113,
				"subtype": "noteOn"
			},
			{
				"deltaTime": 45,
				"channel": 9,
				"type": "channel",
				"subtype": "noteOff",
				"noteNumber": 51,
				"velocity": 64
			},
			{
				"deltaTime": 20,
				"channel": 9,
				"type": "channel",
				"subtype": "noteOff",
				"noteNumber": 36,
				"velocity": 64
			},
			{
				"deltaTime": 95,
				"channel": 9,
				"type": "channel",
				"noteNumber": 36,
				"velocity": 107,
				"subtype": "noteOn"
			},
			{
				"deltaTime": 0,
				"channel": 9,
				"type": "channel",
				"noteNumber": 51,
				"velocity": 127,
				"subtype": "noteOn"
			},
			{
				"deltaTime": 70,
				"channel": 9,
				"type": "channel",
				"subtype": "noteOff",
				"noteNumber": 51,
				"velocity": 64
			},
			{
				"deltaTime": 248,
				"channel": 9,
				"type": "channel",
				"noteNumber": 51,
				"velocity": 85,
				"subtype": "noteOn"
			},
			{
				"deltaTime": 35,
				"channel": 9,
				"type": "channel",
				"subtype": "noteOff",
				"noteNumber": 51,
				"velocity": 64
			},
			{
				"deltaTime": 134,
				"channel": 9,
				"type": "channel",
				"noteNumber": 40,
				"velocity": 127,
				"subtype": "noteOn"
			},
			{
				"deltaTime": 0,
				"channel": 9,
				"type": "channel",
				"noteNumber": 51,
				"velocity": 127,
				"subtype": "noteOn"
			},
			{
				"deltaTime": 75,
				"channel": 9,
				"type": "channel",
				"subtype": "noteOff",
				"noteNumber": 51,
				"velocity": 64
			},
			{
				"deltaTime": 78,
				"channel": 9,
				"type": "channel",
				"subtype": "noteOff",
				"noteNumber": 36,
				"velocity": 64
			},
			{
				"deltaTime": 150,
				"channel": 9,
				"type": "channel",
				"noteNumber": 36,
				"velocity": 85,
				"subtype": "noteOn"
			},
			{
				"deltaTime": 0,
				"channel": 9,
				"type": "channel",
				"noteNumber": 51,
				"velocity": 107,
				"subtype": "noteOn"
			},
			{
				"deltaTime": 32,
				"channel": 9,
				"type": "channel",
				"subtype": "noteOff",
				"noteNumber": 40,
				"velocity": 64
			},
			{
				"deltaTime": 8,
				"channel": 9,
				"type": "channel",
				"subtype": "noteOff",
				"noteNumber": 51,
				"velocity": 64
			},
			{
				"deltaTime": 25,
				"channel": 9,
				"type": "channel",
				"subtype": "noteOff",
				"noteNumber": 36,
				"velocity": 64
			},
			{
				"deltaTime": 104,
				"channel": 9,
				"type": "channel",
				"noteNumber": 36,
				"velocity": 85,
				"subtype": "noteOn"
			},
			{
				"deltaTime": 0,
				"channel": 9,
				"type": "channel",
				"noteNumber": 51,
				"velocity": 107,
				"subtype": "noteOn"
			},
			{
				"deltaTime": 55,
				"channel": 9,
				"type": "channel",
				"subtype": "noteOff",
				"noteNumber": 51,
				"velocity": 64
			},
			{
				"deltaTime": 266,
				"channel": 9,
				"type": "channel",
				"noteNumber": 51,
				"velocity": 107,
				"subtype": "noteOn"
			},
			{
				"deltaTime": 45,
				"channel": 9,
				"type": "channel",
				"subtype": "noteOff",
				"noteNumber": 51,
				"velocity": 64
			},
			{
				"deltaTime": 118,
				"channel": 9,
				"type": "channel",
				"noteNumber": 40,
				"velocity": 127,
				"subtype": "noteOn"
			},
			{
				"deltaTime": 0,
				"channel": 9,
				"type": "channel",
				"noteNumber": 51,
				"velocity": 127,
				"subtype": "noteOn"
			},
			{
				"deltaTime": 75,
				"channel": 9,
				"type": "channel",
				"subtype": "noteOff",
				"noteNumber": 51,
				"velocity": 64
			},
			{
				"deltaTime": 76,
				"channel": 9,
				"type": "channel",
				"subtype": "noteOff",
				"noteNumber": 36,
				"velocity": 64
			},
			{
				"deltaTime": 49,
				"channel": 9,
				"type": "channel",
				"subtype": "noteOff",
				"noteNumber": 40,
				"velocity": 64
			},
			{
				"deltaTime": 117,
				"channel": 9,
				"type": "channel",
				"noteNumber": 36,
				"velocity": 93,
				"subtype": "noteOn"
			},
			{
				"deltaTime": 0,
				"channel": 9,
				"type": "channel",
				"noteNumber": 51,
				"velocity": 127,
				"subtype": "noteOn"
			},
			{
				"deltaTime": 35,
				"channel": 9,
				"type": "channel",
				"subtype": "noteOff",
				"noteNumber": 51,
				"velocity": 64
			},
			{
				"deltaTime": 5,
				"channel": 9,
				"type": "channel",
				"subtype": "noteOff",
				"noteNumber": 36,
				"velocity": 64
			},
			{
				"deltaTime": 120,
				"channel": 9,
				"type": "channel",
				"noteNumber": 36,
				"velocity": 107,
				"subtype": "noteOn"
			},
			{
				"deltaTime": 0,
				"channel": 9,
				"type": "channel",
				"noteNumber": 51,
				"velocity": 127,
				"subtype": "noteOn"
			},
			{
				"deltaTime": 0,
				"channel": 9,
				"type": "channel",
				"noteNumber": 57,
				"velocity": 93,
				"subtype": "noteOn"
			},
			{
				"deltaTime": 40,
				"channel": 9,
				"type": "channel",
				"subtype": "noteOff",
				"noteNumber": 51,
				"velocity": 64
			},
			{
				"deltaTime": 15,
				"channel": 9,
				"type": "channel",
				"subtype": "noteOff",
				"noteNumber": 57,
				"velocity": 64
			},
			{
				"deltaTime": 263,
				"channel": 9,
				"type": "channel",
				"noteNumber": 51,
				"velocity": 68,
				"subtype": "noteOn"
			},
			{
				"deltaTime": 25,
				"channel": 9,
				"type": "channel",
				"subtype": "noteOff",
				"noteNumber": 51,
				"velocity": 64
			},
			{
				"deltaTime": 144,
				"channel": 9,
				"type": "channel",
				"noteNumber": 40,
				"velocity": 127,
				"subtype": "noteOn"
			},
			{
				"deltaTime": 0,
				"channel": 9,
				"type": "channel",
				"noteNumber": 51,
				"velocity": 127,
				"subtype": "noteOn"
			},
			{
				"deltaTime": 125,
				"channel": 9,
				"type": "channel",
				"subtype": "noteOff",
				"noteNumber": 51,
				"velocity": 64
			},
			{
				"deltaTime": 38,
				"channel": 9,
				"type": "channel",
				"subtype": "noteOff",
				"noteNumber": 36,
				"velocity": 64
			},
			{
				"deltaTime": 140,
				"channel": 9,
				"type": "channel",
				"noteNumber": 36,
				"velocity": 50,
				"subtype": "noteOn"
			},
			{
				"deltaTime": 0,
				"channel": 9,
				"type": "channel",
				"noteNumber": 51,
				"velocity": 102,
				"subtype": "noteOn"
			},
			{
				"deltaTime": 50,
				"channel": 9,
				"type": "channel",
				"subtype": "noteOff",
				"noteNumber": 36,
				"velocity": 64
			},
			{
				"deltaTime": 0,
				"channel": 9,
				"type": "channel",
				"subtype": "noteOff",
				"noteNumber": 51,
				"velocity": 64
			},
			{
				"deltaTime": 22,
				"channel": 9,
				"type": "channel",
				"subtype": "noteOff",
				"noteNumber": 40,
				"velocity": 64
			},
			{
				"deltaTime": 97,
				"channel": 9,
				"type": "channel",
				"noteNumber": 36,
				"velocity": 85,
				"subtype": "noteOn"
			},
			{
				"deltaTime": 0,
				"channel": 9,
				"type": "channel",
				"noteNumber": 51,
				"velocity": 113,
				"subtype": "noteOn"
			},
			{
				"deltaTime": 95,
				"channel": 9,
				"type": "channel",
				"subtype": "noteOff",
				"noteNumber": 51,
				"velocity": 64
			},
			{
				"deltaTime": 226,
				"channel": 9,
				"type": "channel",
				"noteNumber": 51,
				"velocity": 93,
				"subtype": "noteOn"
			},
			{
				"deltaTime": 35,
				"channel": 9,
				"type": "channel",
				"subtype": "noteOff",
				"noteNumber": 51,
				"velocity": 64
			},
			{
				"deltaTime": 128,
				"channel": 9,
				"type": "channel",
				"noteNumber": 40,
				"velocity": 127,
				"subtype": "noteOn"
			},
			{
				"deltaTime": 0,
				"channel": 9,
				"type": "channel",
				"noteNumber": 51,
				"velocity": 127,
				"subtype": "noteOn"
			},
			{
				"deltaTime": 120,
				"channel": 9,
				"type": "channel",
				"subtype": "noteOff",
				"noteNumber": 51,
				"velocity": 64
			},
			{
				"deltaTime": 86,
				"channel": 9,
				"type": "channel",
				"subtype": "noteOff",
				"noteNumber": 36,
				"velocity": 64
			},
			{
				"deltaTime": 94,
				"channel": 9,
				"type": "channel",
				"subtype": "noteOff",
				"noteNumber": 40,
				"velocity": 64
			},
			{
				"deltaTime": 17,
				"channel": 9,
				"type": "channel",
				"noteNumber": 36,
				"velocity": 72,
				"subtype": "noteOn"
			},
			{
				"deltaTime": 0,
				"channel": 9,
				"type": "channel",
				"noteNumber": 51,
				"velocity": 107,
				"subtype": "noteOn"
			},
			{
				"deltaTime": 55,
				"channel": 9,
				"type": "channel",
				"subtype": "noteOff",
				"noteNumber": 51,
				"velocity": 64
			},
			{
				"deltaTime": 25,
				"channel": 9,
				"type": "channel",
				"subtype": "noteOff",
				"noteNumber": 36,
				"velocity": 64
			},
			{
				"deltaTime": 80,
				"channel": 9,
				"type": "channel",
				"noteNumber": 36,
				"velocity": 80,
				"subtype": "noteOn"
			},
			{
				"deltaTime": 0,
				"channel": 9,
				"type": "channel",
				"noteNumber": 51,
				"velocity": 113,
				"subtype": "noteOn"
			},
			{
				"deltaTime": 95,
				"channel": 9,
				"type": "channel",
				"subtype": "noteOff",
				"noteNumber": 51,
				"velocity": 64
			},
			{
				"deltaTime": 223,
				"channel": 9,
				"type": "channel",
				"noteNumber": 51,
				"velocity": 68,
				"subtype": "noteOn"
			},
			{
				"deltaTime": 25,
				"channel": 9,
				"type": "channel",
				"subtype": "noteOff",
				"noteNumber": 51,
				"velocity": 64
			},
			{
				"deltaTime": 144,
				"channel": 9,
				"type": "channel",
				"noteNumber": 40,
				"velocity": 127,
				"subtype": "noteOn"
			},
			{
				"deltaTime": 0,
				"channel": 9,
				"type": "channel",
				"noteNumber": 51,
				"velocity": 127,
				"subtype": "noteOn"
			},
			{
				"deltaTime": 140,
				"channel": 9,
				"type": "channel",
				"subtype": "noteOff",
				"noteNumber": 51,
				"velocity": 64
			},
			{
				"deltaTime": 73,
				"channel": 9,
				"type": "channel",
				"subtype": "noteOff",
				"noteNumber": 36,
				"velocity": 64
			},
			{
				"deltaTime": 82,
				"channel": 9,
				"type": "channel",
				"subtype": "noteOff",
				"noteNumber": 40,
				"velocity": 64
			},
			{
				"deltaTime": 8,
				"channel": 9,
				"type": "channel",
				"noteNumber": 36,
				"velocity": 72,
				"subtype": "noteOn"
			},
			{
				"deltaTime": 0,
				"channel": 9,
				"type": "channel",
				"noteNumber": 51,
				"velocity": 98,
				"subtype": "noteOn"
			},
			{
				"deltaTime": 45,
				"channel": 9,
				"type": "channel",
				"subtype": "noteOff",
				"noteNumber": 51,
				"velocity": 64
			},
			{
				"deltaTime": 10,
				"channel": 9,
				"type": "channel",
				"subtype": "noteOff",
				"noteNumber": 36,
				"velocity": 64
			},
			{
				"deltaTime": 114,
				"channel": 9,
				"type": "channel",
				"noteNumber": 36,
				"velocity": 98,
				"subtype": "noteOn"
			},
			{
				"deltaTime": 0,
				"channel": 9,
				"type": "channel",
				"noteNumber": 51,
				"velocity": 113,
				"subtype": "noteOn"
			},
			{
				"deltaTime": 90,
				"channel": 9,
				"type": "channel",
				"subtype": "noteOff",
				"noteNumber": 51,
				"velocity": 64
			},
			{
				"deltaTime": 231,
				"channel": 9,
				"type": "channel",
				"noteNumber": 40,
				"velocity": 76,
				"subtype": "noteOn"
			},
			{
				"deltaTime": 0,
				"channel": 9,
				"type": "channel",
				"noteNumber": 51,
				"velocity": 89,
				"subtype": "noteOn"
			},
			{
				"deltaTime": 35,
				"channel": 9,
				"type": "channel",
				"subtype": "noteOff",
				"noteNumber": 51,
				"velocity": 64
			},
			{
				"deltaTime": 15,
				"channel": 9,
				"type": "channel",
				"subtype": "noteOff",
				"noteNumber": 40,
				"velocity": 64
			},
			{
				"deltaTime": 113,
				"channel": 9,
				"type": "channel",
				"noteNumber": 40,
				"velocity": 107,
				"subtype": "noteOn"
			},
			{
				"deltaTime": 0,
				"channel": 9,
				"type": "channel",
				"noteNumber": 51,
				"velocity": 127,
				"subtype": "noteOn"
			},
			{
				"deltaTime": 60,
				"channel": 9,
				"type": "channel",
				"subtype": "noteOff",
				"noteNumber": 40,
				"velocity": 64
			},
			{
				"deltaTime": 60,
				"channel": 9,
				"type": "channel",
				"subtype": "noteOff",
				"noteNumber": 51,
				"velocity": 64
			},
			{
				"deltaTime": 37,
				"channel": 9,
				"type": "channel",
				"noteNumber": 40,
				"velocity": 119,
				"subtype": "noteOn"
			},
			{
				"deltaTime": 9,
				"channel": 9,
				"type": "channel",
				"subtype": "noteOff",
				"noteNumber": 36,
				"velocity": 64
			},
			{
				"deltaTime": 56,
				"channel": 9,
				"type": "channel",
				"subtype": "noteOff",
				"noteNumber": 40,
				"velocity": 64
			},
			{
				"deltaTime": 95,
				"channel": 9,
				"type": "channel",
				"noteNumber": 36,
				"velocity": 76,
				"subtype": "noteOn"
			},
			{
				"deltaTime": 0,
				"channel": 9,
				"type": "channel",
				"noteNumber": 40,
				"velocity": 127,
				"subtype": "noteOn"
			},
			{
				"deltaTime": 0,
				"channel": 9,
				"type": "channel",
				"noteNumber": 51,
				"velocity": 102,
				"subtype": "noteOn"
			},
			{
				"deltaTime": 45,
				"channel": 9,
				"type": "channel",
				"subtype": "noteOff",
				"noteNumber": 51,
				"velocity": 64
			},
			{
				"deltaTime": 20,
				"channel": 9,
				"type": "channel",
				"subtype": "noteOff",
				"noteNumber": 36,
				"velocity": 64
			},
			{
				"deltaTime": 35,
				"channel": 9,
				"type": "channel",
				"subtype": "noteOff",
				"noteNumber": 40,
				"velocity": 64
			},
			{
				"deltaTime": 60,
				"channel": 9,
				"type": "channel",
				"noteNumber": 36,
				"velocity": 76,
				"subtype": "noteOn"
			},
			{
				"deltaTime": 0,
				"channel": 9,
				"type": "channel",
				"noteNumber": 49,
				"velocity": 107,
				"subtype": "noteOn"
			},
			{
				"deltaTime": 0,
				"channel": 9,
				"type": "channel",
				"noteNumber": 51,
				"velocity": 127,
				"subtype": "noteOn"
			},
			{
				"deltaTime": 35,
				"channel": 9,
				"type": "channel",
				"subtype": "noteOff",
				"noteNumber": 49,
				"velocity": 64
			},
			{
				"deltaTime": 35,
				"channel": 9,
				"type": "channel",
				"subtype": "noteOff",
				"noteNumber": 51,
				"velocity": 64
			},
			{
				"deltaTime": 248,
				"channel": 9,
				"type": "channel",
				"noteNumber": 51,
				"velocity": 85,
				"subtype": "noteOn"
			},
			{
				"deltaTime": 20,
				"channel": 9,
				"type": "channel",
				"subtype": "noteOff",
				"noteNumber": 51,
				"velocity": 64
			},
			{
				"deltaTime": 149,
				"channel": 9,
				"type": "channel",
				"noteNumber": 40,
				"velocity": 127,
				"subtype": "noteOn"
			},
			{
				"deltaTime": 0,
				"channel": 9,
				"type": "channel",
				"noteNumber": 51,
				"velocity": 127,
				"subtype": "noteOn"
			},
			{
				"deltaTime": 110,
				"channel": 9,
				"type": "channel",
				"subtype": "noteOff",
				"noteNumber": 51,
				"velocity": 64
			},
			{
				"deltaTime": 43,
				"channel": 9,
				"type": "channel",
				"subtype": "noteOff",
				"noteNumber": 36,
				"velocity": 64
			},
			{
				"deltaTime": 150,
				"channel": 9,
				"type": "channel",
				"noteNumber": 36,
				"velocity": 93,
				"subtype": "noteOn"
			},
			{
				"deltaTime": 0,
				"channel": 9,
				"type": "channel",
				"noteNumber": 51,
				"velocity": 107,
				"subtype": "noteOn"
			},
			{
				"deltaTime": 17,
				"channel": 9,
				"type": "channel",
				"subtype": "noteOff",
				"noteNumber": 40,
				"velocity": 64
			},
			{
				"deltaTime": 28,
				"channel": 9,
				"type": "channel",
				"subtype": "noteOff",
				"noteNumber": 51,
				"velocity": 64
			},
			{
				"deltaTime": 20,
				"channel": 9,
				"type": "channel",
				"subtype": "noteOff",
				"noteNumber": 36,
				"velocity": 64
			},
			{
				"deltaTime": 104,
				"channel": 9,
				"type": "channel",
				"noteNumber": 36,
				"velocity": 93,
				"subtype": "noteOn"
			},
			{
				"deltaTime": 0,
				"channel": 9,
				"type": "channel",
				"noteNumber": 51,
				"velocity": 127,
				"subtype": "noteOn"
			},
			{
				"deltaTime": 60,
				"channel": 9,
				"type": "channel",
				"subtype": "noteOff",
				"noteNumber": 51,
				"velocity": 64
			},
			{
				"deltaTime": 261,
				"channel": 9,
				"type": "channel",
				"noteNumber": 51,
				"velocity": 98,
				"subtype": "noteOn"
			},
			{
				"deltaTime": 35,
				"channel": 9,
				"type": "channel",
				"subtype": "noteOff",
				"noteNumber": 51,
				"velocity": 64
			},
			{
				"deltaTime": 128,
				"channel": 9,
				"type": "channel",
				"noteNumber": 40,
				"velocity": 127,
				"subtype": "noteOn"
			},
			{
				"deltaTime": 0,
				"channel": 9,
				"type": "channel",
				"noteNumber": 51,
				"velocity": 127,
				"subtype": "noteOn"
			},
			{
				"deltaTime": 75,
				"channel": 9,
				"type": "channel",
				"subtype": "noteOff",
				"noteNumber": 51,
				"velocity": 64
			},
			{
				"deltaTime": 71,
				"channel": 9,
				"type": "channel",
				"subtype": "noteOff",
				"noteNumber": 36,
				"velocity": 64
			},
			{
				"deltaTime": 159,
				"channel": 9,
				"type": "channel",
				"subtype": "noteOff",
				"noteNumber": 40,
				"velocity": 64
			},
			{
				"deltaTime": 12,
				"channel": 9,
				"type": "channel",
				"noteNumber": 36,
				"velocity": 72,
				"subtype": "noteOn"
			},
			{
				"deltaTime": 0,
				"channel": 9,
				"type": "channel",
				"noteNumber": 51,
				"velocity": 113,
				"subtype": "noteOn"
			},
			{
				"deltaTime": 45,
				"channel": 9,
				"type": "channel",
				"subtype": "noteOff",
				"noteNumber": 51,
				"velocity": 64
			},
			{
				"deltaTime": 20,
				"channel": 9,
				"type": "channel",
				"subtype": "noteOff",
				"noteNumber": 36,
				"velocity": 64
			},
			{
				"deltaTime": 95,
				"channel": 9,
				"type": "channel",
				"noteNumber": 36,
				"velocity": 107,
				"subtype": "noteOn"
			},
			{
				"deltaTime": 0,
				"channel": 9,
				"type": "channel",
				"noteNumber": 51,
				"velocity": 127,
				"subtype": "noteOn"
			},
			{
				"deltaTime": 70,
				"channel": 9,
				"type": "channel",
				"subtype": "noteOff",
				"noteNumber": 51,
				"velocity": 64
			},
			{
				"deltaTime": 248,
				"channel": 9,
				"type": "channel",
				"noteNumber": 51,
				"velocity": 85,
				"subtype": "noteOn"
			},
			{
				"deltaTime": 35,
				"channel": 9,
				"type": "channel",
				"subtype": "noteOff",
				"noteNumber": 51,
				"velocity": 64
			},
			{
				"deltaTime": 134,
				"channel": 9,
				"type": "channel",
				"noteNumber": 40,
				"velocity": 127,
				"subtype": "noteOn"
			},
			{
				"deltaTime": 0,
				"channel": 9,
				"type": "channel",
				"noteNumber": 51,
				"velocity": 127,
				"subtype": "noteOn"
			},
			{
				"deltaTime": 75,
				"channel": 9,
				"type": "channel",
				"subtype": "noteOff",
				"noteNumber": 51,
				"velocity": 64
			},
			{
				"deltaTime": 78,
				"channel": 9,
				"type": "channel",
				"subtype": "noteOff",
				"noteNumber": 36,
				"velocity": 64
			},
			{
				"deltaTime": 150,
				"channel": 9,
				"type": "channel",
				"noteNumber": 36,
				"velocity": 85,
				"subtype": "noteOn"
			},
			{
				"deltaTime": 0,
				"channel": 9,
				"type": "channel",
				"noteNumber": 51,
				"velocity": 107,
				"subtype": "noteOn"
			},
			{
				"deltaTime": 32,
				"channel": 9,
				"type": "channel",
				"subtype": "noteOff",
				"noteNumber": 40,
				"velocity": 64
			},
			{
				"deltaTime": 8,
				"channel": 9,
				"type": "channel",
				"subtype": "noteOff",
				"noteNumber": 51,
				"velocity": 64
			},
			{
				"deltaTime": 25,
				"channel": 9,
				"type": "channel",
				"subtype": "noteOff",
				"noteNumber": 36,
				"velocity": 64
			},
			{
				"deltaTime": 104,
				"channel": 9,
				"type": "channel",
				"noteNumber": 36,
				"velocity": 85,
				"subtype": "noteOn"
			},
			{
				"deltaTime": 0,
				"channel": 9,
				"type": "channel",
				"noteNumber": 51,
				"velocity": 107,
				"subtype": "noteOn"
			},
			{
				"deltaTime": 55,
				"channel": 9,
				"type": "channel",
				"subtype": "noteOff",
				"noteNumber": 51,
				"velocity": 64
			},
			{
				"deltaTime": 266,
				"channel": 9,
				"type": "channel",
				"noteNumber": 51,
				"velocity": 107,
				"subtype": "noteOn"
			},
			{
				"deltaTime": 45,
				"channel": 9,
				"type": "channel",
				"subtype": "noteOff",
				"noteNumber": 51,
				"velocity": 64
			},
			{
				"deltaTime": 118,
				"channel": 9,
				"type": "channel",
				"noteNumber": 40,
				"velocity": 127,
				"subtype": "noteOn"
			},
			{
				"deltaTime": 0,
				"channel": 9,
				"type": "channel",
				"noteNumber": 51,
				"velocity": 127,
				"subtype": "noteOn"
			},
			{
				"deltaTime": 75,
				"channel": 9,
				"type": "channel",
				"subtype": "noteOff",
				"noteNumber": 51,
				"velocity": 64
			},
			{
				"deltaTime": 76,
				"channel": 9,
				"type": "channel",
				"subtype": "noteOff",
				"noteNumber": 36,
				"velocity": 64
			},
			{
				"deltaTime": 49,
				"channel": 9,
				"type": "channel",
				"subtype": "noteOff",
				"noteNumber": 40,
				"velocity": 64
			},
			{
				"deltaTime": 117,
				"channel": 9,
				"type": "channel",
				"noteNumber": 36,
				"velocity": 93,
				"subtype": "noteOn"
			},
			{
				"deltaTime": 0,
				"channel": 9,
				"type": "channel",
				"noteNumber": 51,
				"velocity": 127,
				"subtype": "noteOn"
			},
			{
				"deltaTime": 35,
				"channel": 9,
				"type": "channel",
				"subtype": "noteOff",
				"noteNumber": 51,
				"velocity": 64
			},
			{
				"deltaTime": 5,
				"channel": 9,
				"type": "channel",
				"subtype": "noteOff",
				"noteNumber": 36,
				"velocity": 64
			},
			{
				"deltaTime": 120,
				"channel": 9,
				"type": "channel",
				"noteNumber": 36,
				"velocity": 107,
				"subtype": "noteOn"
			},
			{
				"deltaTime": 0,
				"channel": 9,
				"type": "channel",
				"noteNumber": 51,
				"velocity": 127,
				"subtype": "noteOn"
			},
			{
				"deltaTime": 0,
				"channel": 9,
				"type": "channel",
				"noteNumber": 57,
				"velocity": 98,
				"subtype": "noteOn"
			},
			{
				"deltaTime": 40,
				"channel": 9,
				"type": "channel",
				"subtype": "noteOff",
				"noteNumber": 51,
				"velocity": 64
			},
			{
				"deltaTime": 0,
				"channel": 9,
				"type": "channel",
				"subtype": "noteOff",
				"noteNumber": 57,
				"velocity": 64
			},
			{
				"deltaTime": 278,
				"channel": 9,
				"type": "channel",
				"noteNumber": 51,
				"velocity": 68,
				"subtype": "noteOn"
			},
			{
				"deltaTime": 25,
				"channel": 9,
				"type": "channel",
				"subtype": "noteOff",
				"noteNumber": 51,
				"velocity": 64
			},
			{
				"deltaTime": 144,
				"channel": 9,
				"type": "channel",
				"noteNumber": 40,
				"velocity": 127,
				"subtype": "noteOn"
			},
			{
				"deltaTime": 0,
				"channel": 9,
				"type": "channel",
				"noteNumber": 51,
				"velocity": 127,
				"subtype": "noteOn"
			},
			{
				"deltaTime": 125,
				"channel": 9,
				"type": "channel",
				"subtype": "noteOff",
				"noteNumber": 51,
				"velocity": 64
			},
			{
				"deltaTime": 38,
				"channel": 9,
				"type": "channel",
				"subtype": "noteOff",
				"noteNumber": 36,
				"velocity": 64
			},
			{
				"deltaTime": 140,
				"channel": 9,
				"type": "channel",
				"noteNumber": 36,
				"velocity": 50,
				"subtype": "noteOn"
			},
			{
				"deltaTime": 0,
				"channel": 9,
				"type": "channel",
				"noteNumber": 51,
				"velocity": 102,
				"subtype": "noteOn"
			},
			{
				"deltaTime": 50,
				"channel": 9,
				"type": "channel",
				"subtype": "noteOff",
				"noteNumber": 36,
				"velocity": 64
			},
			{
				"deltaTime": 0,
				"channel": 9,
				"type": "channel",
				"subtype": "noteOff",
				"noteNumber": 51,
				"velocity": 64
			},
			{
				"deltaTime": 22,
				"channel": 9,
				"type": "channel",
				"subtype": "noteOff",
				"noteNumber": 40,
				"velocity": 64
			},
			{
				"deltaTime": 97,
				"channel": 9,
				"type": "channel",
				"noteNumber": 36,
				"velocity": 85,
				"subtype": "noteOn"
			},
			{
				"deltaTime": 0,
				"channel": 9,
				"type": "channel",
				"noteNumber": 51,
				"velocity": 113,
				"subtype": "noteOn"
			},
			{
				"deltaTime": 95,
				"channel": 9,
				"type": "channel",
				"subtype": "noteOff",
				"noteNumber": 51,
				"velocity": 64
			},
			{
				"deltaTime": 226,
				"channel": 9,
				"type": "channel",
				"noteNumber": 51,
				"velocity": 93,
				"subtype": "noteOn"
			},
			{
				"deltaTime": 35,
				"channel": 9,
				"type": "channel",
				"subtype": "noteOff",
				"noteNumber": 51,
				"velocity": 64
			},
			{
				"deltaTime": 128,
				"channel": 9,
				"type": "channel",
				"noteNumber": 40,
				"velocity": 127,
				"subtype": "noteOn"
			},
			{
				"deltaTime": 0,
				"channel": 9,
				"type": "channel",
				"noteNumber": 51,
				"velocity": 127,
				"subtype": "noteOn"
			},
			{
				"deltaTime": 120,
				"channel": 9,
				"type": "channel",
				"subtype": "noteOff",
				"noteNumber": 51,
				"velocity": 64
			},
			{
				"deltaTime": 86,
				"channel": 9,
				"type": "channel",
				"subtype": "noteOff",
				"noteNumber": 36,
				"velocity": 64
			},
			{
				"deltaTime": 94,
				"channel": 9,
				"type": "channel",
				"subtype": "noteOff",
				"noteNumber": 40,
				"velocity": 64
			},
			{
				"deltaTime": 17,
				"channel": 9,
				"type": "channel",
				"noteNumber": 36,
				"velocity": 72,
				"subtype": "noteOn"
			},
			{
				"deltaTime": 0,
				"channel": 9,
				"type": "channel",
				"noteNumber": 51,
				"velocity": 107,
				"subtype": "noteOn"
			},
			{
				"deltaTime": 55,
				"channel": 9,
				"type": "channel",
				"subtype": "noteOff",
				"noteNumber": 51,
				"velocity": 64
			},
			{
				"deltaTime": 25,
				"channel": 9,
				"type": "channel",
				"subtype": "noteOff",
				"noteNumber": 36,
				"velocity": 64
			},
			{
				"deltaTime": 80,
				"channel": 9,
				"type": "channel",
				"noteNumber": 36,
				"velocity": 80,
				"subtype": "noteOn"
			},
			{
				"deltaTime": 0,
				"channel": 9,
				"type": "channel",
				"noteNumber": 51,
				"velocity": 113,
				"subtype": "noteOn"
			},
			{
				"deltaTime": 95,
				"channel": 9,
				"type": "channel",
				"subtype": "noteOff",
				"noteNumber": 51,
				"velocity": 64
			},
			{
				"deltaTime": 223,
				"channel": 9,
				"type": "channel",
				"noteNumber": 51,
				"velocity": 68,
				"subtype": "noteOn"
			},
			{
				"deltaTime": 25,
				"channel": 9,
				"type": "channel",
				"subtype": "noteOff",
				"noteNumber": 51,
				"velocity": 64
			},
			{
				"deltaTime": 144,
				"channel": 9,
				"type": "channel",
				"noteNumber": 40,
				"velocity": 127,
				"subtype": "noteOn"
			},
			{
				"deltaTime": 0,
				"channel": 9,
				"type": "channel",
				"noteNumber": 49,
				"velocity": 113,
				"subtype": "noteOn"
			},
			{
				"deltaTime": 0,
				"channel": 9,
				"type": "channel",
				"noteNumber": 51,
				"velocity": 127,
				"subtype": "noteOn"
			},
			{
				"deltaTime": 60,
				"channel": 9,
				"type": "channel",
				"subtype": "noteOff",
				"noteNumber": 49,
				"velocity": 64
			},
			{
				"deltaTime": 80,
				"channel": 9,
				"type": "channel",
				"subtype": "noteOff",
				"noteNumber": 51,
				"velocity": 64
			},
			{
				"deltaTime": 73,
				"channel": 9,
				"type": "channel",
				"subtype": "noteOff",
				"noteNumber": 36,
				"velocity": 64
			},
			{
				"deltaTime": 82,
				"channel": 9,
				"type": "channel",
				"subtype": "noteOff",
				"noteNumber": 40,
				"velocity": 64
			},
			{
				"deltaTime": 8,
				"channel": 9,
				"type": "channel",
				"noteNumber": 36,
				"velocity": 72,
				"subtype": "noteOn"
			},
			{
				"deltaTime": 0,
				"channel": 9,
				"type": "channel",
				"noteNumber": 51,
				"velocity": 98,
				"subtype": "noteOn"
			},
			{
				"deltaTime": 45,
				"channel": 9,
				"type": "channel",
				"subtype": "noteOff",
				"noteNumber": 51,
				"velocity": 64
			},
			{
				"deltaTime": 10,
				"channel": 9,
				"type": "channel",
				"subtype": "noteOff",
				"noteNumber": 36,
				"velocity": 64
			},
			{
				"deltaTime": 114,
				"channel": 9,
				"type": "channel",
				"noteNumber": 36,
				"velocity": 98,
				"subtype": "noteOn"
			},
			{
				"deltaTime": 0,
				"channel": 9,
				"type": "channel",
				"noteNumber": 51,
				"velocity": 113,
				"subtype": "noteOn"
			},
			{
				"deltaTime": 90,
				"channel": 9,
				"type": "channel",
				"subtype": "noteOff",
				"noteNumber": 51,
				"velocity": 64
			},
			{
				"deltaTime": 231,
				"channel": 9,
				"type": "channel",
				"noteNumber": 51,
				"velocity": 89,
				"subtype": "noteOn"
			},
			{
				"deltaTime": 35,
				"channel": 9,
				"type": "channel",
				"subtype": "noteOff",
				"noteNumber": 51,
				"velocity": 64
			},
			{
				"deltaTime": 128,
				"channel": 9,
				"type": "channel",
				"noteNumber": 40,
				"velocity": 127,
				"subtype": "noteOn"
			},
			{
				"deltaTime": 0,
				"channel": 9,
				"type": "channel",
				"noteNumber": 51,
				"velocity": 127,
				"subtype": "noteOn"
			},
			{
				"deltaTime": 0,
				"channel": 9,
				"type": "channel",
				"noteNumber": 57,
				"velocity": 107,
				"subtype": "noteOn"
			},
			{
				"deltaTime": 60,
				"channel": 9,
				"type": "channel",
				"subtype": "noteOff",
				"noteNumber": 57,
				"velocity": 64
			},
			{
				"deltaTime": 60,
				"channel": 9,
				"type": "channel",
				"subtype": "noteOff",
				"noteNumber": 51,
				"velocity": 64
			},
			{
				"deltaTime": 46,
				"channel": 9,
				"type": "channel",
				"subtype": "noteOff",
				"noteNumber": 36,
				"velocity": 64
			},
			{
				"deltaTime": 144,
				"channel": 9,
				"type": "channel",
				"subtype": "noteOff",
				"noteNumber": 40,
				"velocity": 64
			},
			{
				"deltaTime": 7,
				"channel": 9,
				"type": "channel",
				"noteNumber": 36,
				"velocity": 76,
				"subtype": "noteOn"
			},
			{
				"deltaTime": 0,
				"channel": 9,
				"type": "channel",
				"noteNumber": 51,
				"velocity": 102,
				"subtype": "noteOn"
			},
			{
				"deltaTime": 45,
				"channel": 9,
				"type": "channel",
				"subtype": "noteOff",
				"noteNumber": 51,
				"velocity": 64
			},
			{
				"deltaTime": 20,
				"channel": 9,
				"type": "channel",
				"subtype": "noteOff",
				"noteNumber": 36,
				"velocity": 64
			},
			{
				"deltaTime": 95,
				"channel": 9,
				"type": "channel",
				"noteNumber": 36,
				"velocity": 76,
				"subtype": "noteOn"
			},
			{
				"deltaTime": 0,
				"channel": 9,
				"type": "channel",
				"noteNumber": 51,
				"velocity": 127,
				"subtype": "noteOn"
			},
			{
				"deltaTime": 70,
				"channel": 9,
				"type": "channel",
				"subtype": "noteOff",
				"noteNumber": 51,
				"velocity": 64
			},
			{
				"deltaTime": 248,
				"channel": 9,
				"type": "channel",
				"noteNumber": 51,
				"velocity": 85,
				"subtype": "noteOn"
			},
			{
				"deltaTime": 20,
				"channel": 9,
				"type": "channel",
				"subtype": "noteOff",
				"noteNumber": 51,
				"velocity": 64
			},
			{
				"deltaTime": 149,
				"channel": 9,
				"type": "channel",
				"noteNumber": 40,
				"velocity": 127,
				"subtype": "noteOn"
			},
			{
				"deltaTime": 0,
				"channel": 9,
				"type": "channel",
				"noteNumber": 49,
				"velocity": 113,
				"subtype": "noteOn"
			},
			{
				"deltaTime": 0,
				"channel": 9,
				"type": "channel",
				"noteNumber": 51,
				"velocity": 127,
				"subtype": "noteOn"
			},
			{
				"deltaTime": 50,
				"channel": 9,
				"type": "channel",
				"subtype": "noteOff",
				"noteNumber": 49,
				"velocity": 64
			},
			{
				"deltaTime": 60,
				"channel": 9,
				"type": "channel",
				"subtype": "noteOff",
				"noteNumber": 51,
				"velocity": 64
			},
			{
				"deltaTime": 43,
				"channel": 9,
				"type": "channel",
				"subtype": "noteOff",
				"noteNumber": 36,
				"velocity": 64
			},
			{
				"deltaTime": 150,
				"channel": 9,
				"type": "channel",
				"noteNumber": 36,
				"velocity": 93,
				"subtype": "noteOn"
			},
			{
				"deltaTime": 0,
				"channel": 9,
				"type": "channel",
				"noteNumber": 51,
				"velocity": 107,
				"subtype": "noteOn"
			},
			{
				"deltaTime": 17,
				"channel": 9,
				"type": "channel",
				"subtype": "noteOff",
				"noteNumber": 40,
				"velocity": 64
			},
			{
				"deltaTime": 28,
				"channel": 9,
				"type": "channel",
				"subtype": "noteOff",
				"noteNumber": 51,
				"velocity": 64
			},
			{
				"deltaTime": 20,
				"channel": 9,
				"type": "channel",
				"subtype": "noteOff",
				"noteNumber": 36,
				"velocity": 64
			},
			{
				"deltaTime": 104,
				"channel": 9,
				"type": "channel",
				"noteNumber": 36,
				"velocity": 93,
				"subtype": "noteOn"
			},
			{
				"deltaTime": 0,
				"channel": 9,
				"type": "channel",
				"noteNumber": 51,
				"velocity": 127,
				"subtype": "noteOn"
			},
			{
				"deltaTime": 60,
				"channel": 9,
				"type": "channel",
				"subtype": "noteOff",
				"noteNumber": 51,
				"velocity": 64
			},
			{
				"deltaTime": 261,
				"channel": 9,
				"type": "channel",
				"noteNumber": 51,
				"velocity": 98,
				"subtype": "noteOn"
			},
			{
				"deltaTime": 35,
				"channel": 9,
				"type": "channel",
				"subtype": "noteOff",
				"noteNumber": 51,
				"velocity": 64
			},
			{
				"deltaTime": 128,
				"channel": 9,
				"type": "channel",
				"noteNumber": 40,
				"velocity": 127,
				"subtype": "noteOn"
			},
			{
				"deltaTime": 0,
				"channel": 9,
				"type": "channel",
				"noteNumber": 51,
				"velocity": 127,
				"subtype": "noteOn"
			},
			{
				"deltaTime": 75,
				"channel": 9,
				"type": "channel",
				"subtype": "noteOff",
				"noteNumber": 51,
				"velocity": 64
			},
			{
				"deltaTime": 71,
				"channel": 9,
				"type": "channel",
				"subtype": "noteOff",
				"noteNumber": 36,
				"velocity": 64
			},
			{
				"deltaTime": 159,
				"channel": 9,
				"type": "channel",
				"subtype": "noteOff",
				"noteNumber": 40,
				"velocity": 64
			},
			{
				"deltaTime": 12,
				"channel": 9,
				"type": "channel",
				"noteNumber": 36,
				"velocity": 72,
				"subtype": "noteOn"
			},
			{
				"deltaTime": 0,
				"channel": 9,
				"type": "channel",
				"noteNumber": 51,
				"velocity": 113,
				"subtype": "noteOn"
			},
			{
				"deltaTime": 45,
				"channel": 9,
				"type": "channel",
				"subtype": "noteOff",
				"noteNumber": 51,
				"velocity": 64
			},
			{
				"deltaTime": 20,
				"channel": 9,
				"type": "channel",
				"subtype": "noteOff",
				"noteNumber": 36,
				"velocity": 64
			},
			{
				"deltaTime": 95,
				"channel": 9,
				"type": "channel",
				"noteNumber": 36,
				"velocity": 107,
				"subtype": "noteOn"
			},
			{
				"deltaTime": 0,
				"channel": 9,
				"type": "channel",
				"noteNumber": 51,
				"velocity": 127,
				"subtype": "noteOn"
			},
			{
				"deltaTime": 70,
				"channel": 9,
				"type": "channel",
				"subtype": "noteOff",
				"noteNumber": 51,
				"velocity": 64
			},
			{
				"deltaTime": 248,
				"channel": 9,
				"type": "channel",
				"noteNumber": 51,
				"velocity": 85,
				"subtype": "noteOn"
			},
			{
				"deltaTime": 35,
				"channel": 9,
				"type": "channel",
				"subtype": "noteOff",
				"noteNumber": 51,
				"velocity": 64
			},
			{
				"deltaTime": 134,
				"channel": 9,
				"type": "channel",
				"noteNumber": 40,
				"velocity": 127,
				"subtype": "noteOn"
			},
			{
				"deltaTime": 0,
				"channel": 9,
				"type": "channel",
				"noteNumber": 51,
				"velocity": 127,
				"subtype": "noteOn"
			},
			{
				"deltaTime": 0,
				"channel": 9,
				"type": "channel",
				"noteNumber": 57,
				"velocity": 107,
				"subtype": "noteOn"
			},
			{
				"deltaTime": 40,
				"channel": 9,
				"type": "channel",
				"subtype": "noteOff",
				"noteNumber": 57,
				"velocity": 64
			},
			{
				"deltaTime": 35,
				"channel": 9,
				"type": "channel",
				"subtype": "noteOff",
				"noteNumber": 51,
				"velocity": 64
			},
			{
				"deltaTime": 78,
				"channel": 9,
				"type": "channel",
				"subtype": "noteOff",
				"noteNumber": 36,
				"velocity": 64
			},
			{
				"deltaTime": 150,
				"channel": 9,
				"type": "channel",
				"noteNumber": 36,
				"velocity": 85,
				"subtype": "noteOn"
			},
			{
				"deltaTime": 0,
				"channel": 9,
				"type": "channel",
				"noteNumber": 51,
				"velocity": 107,
				"subtype": "noteOn"
			},
			{
				"deltaTime": 32,
				"channel": 9,
				"type": "channel",
				"subtype": "noteOff",
				"noteNumber": 40,
				"velocity": 64
			},
			{
				"deltaTime": 8,
				"channel": 9,
				"type": "channel",
				"subtype": "noteOff",
				"noteNumber": 51,
				"velocity": 64
			},
			{
				"deltaTime": 25,
				"channel": 9,
				"type": "channel",
				"subtype": "noteOff",
				"noteNumber": 36,
				"velocity": 64
			},
			{
				"deltaTime": 104,
				"channel": 9,
				"type": "channel",
				"noteNumber": 36,
				"velocity": 85,
				"subtype": "noteOn"
			},
			{
				"deltaTime": 0,
				"channel": 9,
				"type": "channel",
				"noteNumber": 51,
				"velocity": 107,
				"subtype": "noteOn"
			},
			{
				"deltaTime": 55,
				"channel": 9,
				"type": "channel",
				"subtype": "noteOff",
				"noteNumber": 51,
				"velocity": 64
			},
			{
				"deltaTime": 266,
				"channel": 9,
				"type": "channel",
				"noteNumber": 51,
				"velocity": 107,
				"subtype": "noteOn"
			},
			{
				"deltaTime": 45,
				"channel": 9,
				"type": "channel",
				"subtype": "noteOff",
				"noteNumber": 51,
				"velocity": 64
			},
			{
				"deltaTime": 118,
				"channel": 9,
				"type": "channel",
				"noteNumber": 40,
				"velocity": 127,
				"subtype": "noteOn"
			},
			{
				"deltaTime": 0,
				"channel": 9,
				"type": "channel",
				"noteNumber": 51,
				"velocity": 127,
				"subtype": "noteOn"
			},
			{
				"deltaTime": 75,
				"channel": 9,
				"type": "channel",
				"subtype": "noteOff",
				"noteNumber": 51,
				"velocity": 64
			},
			{
				"deltaTime": 76,
				"channel": 9,
				"type": "channel",
				"subtype": "noteOff",
				"noteNumber": 36,
				"velocity": 64
			},
			{
				"deltaTime": 49,
				"channel": 9,
				"type": "channel",
				"subtype": "noteOff",
				"noteNumber": 40,
				"velocity": 64
			},
			{
				"deltaTime": 117,
				"channel": 9,
				"type": "channel",
				"noteNumber": 36,
				"velocity": 93,
				"subtype": "noteOn"
			},
			{
				"deltaTime": 0,
				"channel": 9,
				"type": "channel",
				"noteNumber": 51,
				"velocity": 127,
				"subtype": "noteOn"
			},
			{
				"deltaTime": 35,
				"channel": 9,
				"type": "channel",
				"subtype": "noteOff",
				"noteNumber": 51,
				"velocity": 64
			},
			{
				"deltaTime": 5,
				"channel": 9,
				"type": "channel",
				"subtype": "noteOff",
				"noteNumber": 36,
				"velocity": 64
			},
			{
				"deltaTime": 120,
				"channel": 9,
				"type": "channel",
				"noteNumber": 36,
				"velocity": 107,
				"subtype": "noteOn"
			},
			{
				"deltaTime": 0,
				"channel": 9,
				"type": "channel",
				"noteNumber": 49,
				"velocity": 102,
				"subtype": "noteOn"
			},
			{
				"deltaTime": 0,
				"channel": 9,
				"type": "channel",
				"noteNumber": 51,
				"velocity": 127,
				"subtype": "noteOn"
			},
			{
				"deltaTime": 40,
				"channel": 9,
				"type": "channel",
				"subtype": "noteOff",
				"noteNumber": 51,
				"velocity": 64
			},
			{
				"deltaTime": 10,
				"channel": 9,
				"type": "channel",
				"subtype": "noteOff",
				"noteNumber": 49,
				"velocity": 64
			},
			{
				"deltaTime": 268,
				"channel": 9,
				"type": "channel",
				"noteNumber": 51,
				"velocity": 68,
				"subtype": "noteOn"
			},
			{
				"deltaTime": 25,
				"channel": 9,
				"type": "channel",
				"subtype": "noteOff",
				"noteNumber": 51,
				"velocity": 64
			},
			{
				"deltaTime": 144,
				"channel": 9,
				"type": "channel",
				"noteNumber": 40,
				"velocity": 127,
				"subtype": "noteOn"
			},
			{
				"deltaTime": 0,
				"channel": 9,
				"type": "channel",
				"noteNumber": 51,
				"velocity": 127,
				"subtype": "noteOn"
			},
			{
				"deltaTime": 125,
				"channel": 9,
				"type": "channel",
				"subtype": "noteOff",
				"noteNumber": 51,
				"velocity": 64
			},
			{
				"deltaTime": 38,
				"channel": 9,
				"type": "channel",
				"subtype": "noteOff",
				"noteNumber": 36,
				"velocity": 64
			},
			{
				"deltaTime": 140,
				"channel": 9,
				"type": "channel",
				"noteNumber": 36,
				"velocity": 50,
				"subtype": "noteOn"
			},
			{
				"deltaTime": 0,
				"channel": 9,
				"type": "channel",
				"noteNumber": 51,
				"velocity": 102,
				"subtype": "noteOn"
			},
			{
				"deltaTime": 50,
				"channel": 9,
				"type": "channel",
				"subtype": "noteOff",
				"noteNumber": 36,
				"velocity": 64
			},
			{
				"deltaTime": 0,
				"channel": 9,
				"type": "channel",
				"subtype": "noteOff",
				"noteNumber": 51,
				"velocity": 64
			},
			{
				"deltaTime": 22,
				"channel": 9,
				"type": "channel",
				"subtype": "noteOff",
				"noteNumber": 40,
				"velocity": 64
			},
			{
				"deltaTime": 97,
				"channel": 9,
				"type": "channel",
				"noteNumber": 36,
				"velocity": 85,
				"subtype": "noteOn"
			},
			{
				"deltaTime": 0,
				"channel": 9,
				"type": "channel",
				"noteNumber": 51,
				"velocity": 113,
				"subtype": "noteOn"
			},
			{
				"deltaTime": 95,
				"channel": 9,
				"type": "channel",
				"subtype": "noteOff",
				"noteNumber": 51,
				"velocity": 64
			},
			{
				"deltaTime": 226,
				"channel": 9,
				"type": "channel",
				"noteNumber": 51,
				"velocity": 93,
				"subtype": "noteOn"
			},
			{
				"deltaTime": 35,
				"channel": 9,
				"type": "channel",
				"subtype": "noteOff",
				"noteNumber": 51,
				"velocity": 64
			},
			{
				"deltaTime": 128,
				"channel": 9,
				"type": "channel",
				"noteNumber": 40,
				"velocity": 127,
				"subtype": "noteOn"
			},
			{
				"deltaTime": 0,
				"channel": 9,
				"type": "channel",
				"noteNumber": 51,
				"velocity": 127,
				"subtype": "noteOn"
			},
			{
				"deltaTime": 120,
				"channel": 9,
				"type": "channel",
				"subtype": "noteOff",
				"noteNumber": 51,
				"velocity": 64
			},
			{
				"deltaTime": 86,
				"channel": 9,
				"type": "channel",
				"subtype": "noteOff",
				"noteNumber": 36,
				"velocity": 64
			},
			{
				"deltaTime": 94,
				"channel": 9,
				"type": "channel",
				"subtype": "noteOff",
				"noteNumber": 40,
				"velocity": 64
			},
			{
				"deltaTime": 17,
				"channel": 9,
				"type": "channel",
				"noteNumber": 36,
				"velocity": 72,
				"subtype": "noteOn"
			},
			{
				"deltaTime": 0,
				"channel": 9,
				"type": "channel",
				"noteNumber": 51,
				"velocity": 107,
				"subtype": "noteOn"
			},
			{
				"deltaTime": 55,
				"channel": 9,
				"type": "channel",
				"subtype": "noteOff",
				"noteNumber": 51,
				"velocity": 64
			},
			{
				"deltaTime": 25,
				"channel": 9,
				"type": "channel",
				"subtype": "noteOff",
				"noteNumber": 36,
				"velocity": 64
			},
			{
				"deltaTime": 80,
				"channel": 9,
				"type": "channel",
				"noteNumber": 36,
				"velocity": 80,
				"subtype": "noteOn"
			},
			{
				"deltaTime": 0,
				"channel": 9,
				"type": "channel",
				"noteNumber": 51,
				"velocity": 113,
				"subtype": "noteOn"
			},
			{
				"deltaTime": 95,
				"channel": 9,
				"type": "channel",
				"subtype": "noteOff",
				"noteNumber": 51,
				"velocity": 64
			},
			{
				"deltaTime": 223,
				"channel": 9,
				"type": "channel",
				"noteNumber": 51,
				"velocity": 68,
				"subtype": "noteOn"
			},
			{
				"deltaTime": 25,
				"channel": 9,
				"type": "channel",
				"subtype": "noteOff",
				"noteNumber": 51,
				"velocity": 64
			},
			{
				"deltaTime": 144,
				"channel": 9,
				"type": "channel",
				"noteNumber": 40,
				"velocity": 127,
				"subtype": "noteOn"
			},
			{
				"deltaTime": 0,
				"channel": 9,
				"type": "channel",
				"noteNumber": 51,
				"velocity": 127,
				"subtype": "noteOn"
			},
			{
				"deltaTime": 140,
				"channel": 9,
				"type": "channel",
				"subtype": "noteOff",
				"noteNumber": 51,
				"velocity": 64
			},
			{
				"deltaTime": 73,
				"channel": 9,
				"type": "channel",
				"subtype": "noteOff",
				"noteNumber": 36,
				"velocity": 64
			},
			{
				"deltaTime": 82,
				"channel": 9,
				"type": "channel",
				"subtype": "noteOff",
				"noteNumber": 40,
				"velocity": 64
			},
			{
				"deltaTime": 8,
				"channel": 9,
				"type": "channel",
				"noteNumber": 36,
				"velocity": 72,
				"subtype": "noteOn"
			},
			{
				"deltaTime": 0,
				"channel": 9,
				"type": "channel",
				"noteNumber": 51,
				"velocity": 98,
				"subtype": "noteOn"
			},
			{
				"deltaTime": 45,
				"channel": 9,
				"type": "channel",
				"subtype": "noteOff",
				"noteNumber": 51,
				"velocity": 64
			},
			{
				"deltaTime": 10,
				"channel": 9,
				"type": "channel",
				"subtype": "noteOff",
				"noteNumber": 36,
				"velocity": 64
			},
			{
				"deltaTime": 114,
				"channel": 9,
				"type": "channel",
				"noteNumber": 36,
				"velocity": 98,
				"subtype": "noteOn"
			},
			{
				"deltaTime": 0,
				"channel": 9,
				"type": "channel",
				"noteNumber": 51,
				"velocity": 113,
				"subtype": "noteOn"
			},
			{
				"deltaTime": 90,
				"channel": 9,
				"type": "channel",
				"subtype": "noteOff",
				"noteNumber": 51,
				"velocity": 64
			},
			{
				"deltaTime": 231,
				"channel": 9,
				"type": "channel",
				"noteNumber": 51,
				"velocity": 89,
				"subtype": "noteOn"
			},
			{
				"deltaTime": 35,
				"channel": 9,
				"type": "channel",
				"subtype": "noteOff",
				"noteNumber": 51,
				"velocity": 64
			},
			{
				"deltaTime": 128,
				"channel": 9,
				"type": "channel",
				"noteNumber": 40,
				"velocity": 127,
				"subtype": "noteOn"
			},
			{
				"deltaTime": 0,
				"channel": 9,
				"type": "channel",
				"noteNumber": 51,
				"velocity": 127,
				"subtype": "noteOn"
			},
			{
				"deltaTime": 120,
				"channel": 9,
				"type": "channel",
				"subtype": "noteOff",
				"noteNumber": 51,
				"velocity": 64
			},
			{
				"deltaTime": 37,
				"channel": 9,
				"type": "channel",
				"noteNumber": 40,
				"velocity": 102,
				"subtype": "noteOn"
			},
			{
				"deltaTime": 3,
				"channel": 9,
				"type": "channel",
				"subtype": "noteOff",
				"noteNumber": 40,
				"velocity": 64
			},
			{
				"deltaTime": 6,
				"channel": 9,
				"type": "channel",
				"subtype": "noteOff",
				"noteNumber": 36,
				"velocity": 64
			},
			{
				"deltaTime": 141,
				"channel": 9,
				"type": "channel",
				"subtype": "noteOff",
				"noteNumber": 40,
				"velocity": 64
			},
			{
				"deltaTime": 10,
				"channel": 9,
				"type": "channel",
				"noteNumber": 36,
				"velocity": 76,
				"subtype": "noteOn"
			},
			{
				"deltaTime": 0,
				"channel": 9,
				"type": "channel",
				"noteNumber": 40,
				"velocity": 119,
				"subtype": "noteOn"
			},
			{
				"deltaTime": 0,
				"channel": 9,
				"type": "channel",
				"noteNumber": 51,
				"velocity": 102,
				"subtype": "noteOn"
			},
			{
				"deltaTime": 45,
				"channel": 9,
				"type": "channel",
				"subtype": "noteOff",
				"noteNumber": 51,
				"velocity": 64
			},
			{
				"deltaTime": 20,
				"channel": 9,
				"type": "channel",
				"subtype": "noteOff",
				"noteNumber": 36,
				"velocity": 64
			},
			{
				"deltaTime": 10,
				"channel": 9,
				"type": "channel",
				"subtype": "noteOff",
				"noteNumber": 40,
				"velocity": 64
			},
			{
				"deltaTime": 85,
				"channel": 9,
				"type": "channel",
				"noteNumber": 36,
				"velocity": 107,
				"subtype": "noteOn"
			},
			{
				"deltaTime": 0,
				"channel": 9,
				"type": "channel",
				"noteNumber": 36,
				"velocity": 76,
				"subtype": "noteOn"
			},
			{
				"deltaTime": 0,
				"channel": 9,
				"type": "channel",
				"noteNumber": 51,
				"velocity": 127,
				"subtype": "noteOn"
			},
			{
				"deltaTime": 0,
				"channel": 9,
				"type": "channel",
				"noteNumber": 57,
				"velocity": 107,
				"subtype": "noteOn"
			},
			{
				"deltaTime": 1,
				"channel": 9,
				"type": "channel",
				"subtype": "noteOff",
				"noteNumber": 36,
				"velocity": 64
			},
			{
				"deltaTime": 24,
				"channel": 9,
				"type": "channel",
				"subtype": "noteOff",
				"noteNumber": 57,
				"velocity": 64
			},
			{
				"deltaTime": 45,
				"channel": 9,
				"type": "channel",
				"subtype": "noteOff",
				"noteNumber": 51,
				"velocity": 64
			},
			{
				"deltaTime": 248,
				"channel": 9,
				"type": "channel",
				"noteNumber": 51,
				"velocity": 85,
				"subtype": "noteOn"
			},
			{
				"deltaTime": 20,
				"channel": 9,
				"type": "channel",
				"subtype": "noteOff",
				"noteNumber": 51,
				"velocity": 64
			},
			{
				"deltaTime": 149,
				"channel": 9,
				"type": "channel",
				"noteNumber": 40,
				"velocity": 127,
				"subtype": "noteOn"
			},
			{
				"deltaTime": 0,
				"channel": 9,
				"type": "channel",
				"noteNumber": 51,
				"velocity": 127,
				"subtype": "noteOn"
			},
			{
				"deltaTime": 110,
				"channel": 9,
				"type": "channel",
				"subtype": "noteOff",
				"noteNumber": 51,
				"velocity": 64
			},
			{
				"deltaTime": 43,
				"channel": 9,
				"type": "channel",
				"subtype": "noteOff",
				"noteNumber": 36,
				"velocity": 64
			},
			{
				"deltaTime": 150,
				"channel": 9,
				"type": "channel",
				"noteNumber": 36,
				"velocity": 93,
				"subtype": "noteOn"
			},
			{
				"deltaTime": 0,
				"channel": 9,
				"type": "channel",
				"noteNumber": 51,
				"velocity": 107,
				"subtype": "noteOn"
			},
			{
				"deltaTime": 17,
				"channel": 9,
				"type": "channel",
				"subtype": "noteOff",
				"noteNumber": 40,
				"velocity": 64
			},
			{
				"deltaTime": 28,
				"channel": 9,
				"type": "channel",
				"subtype": "noteOff",
				"noteNumber": 51,
				"velocity": 64
			},
			{
				"deltaTime": 20,
				"channel": 9,
				"type": "channel",
				"subtype": "noteOff",
				"noteNumber": 36,
				"velocity": 64
			},
			{
				"deltaTime": 104,
				"channel": 9,
				"type": "channel",
				"noteNumber": 36,
				"velocity": 93,
				"subtype": "noteOn"
			},
			{
				"deltaTime": 0,
				"channel": 9,
				"type": "channel",
				"noteNumber": 51,
				"velocity": 127,
				"subtype": "noteOn"
			},
			{
				"deltaTime": 60,
				"channel": 9,
				"type": "channel",
				"subtype": "noteOff",
				"noteNumber": 51,
				"velocity": 64
			},
			{
				"deltaTime": 261,
				"channel": 9,
				"type": "channel",
				"noteNumber": 51,
				"velocity": 98,
				"subtype": "noteOn"
			},
			{
				"deltaTime": 35,
				"channel": 9,
				"type": "channel",
				"subtype": "noteOff",
				"noteNumber": 51,
				"velocity": 64
			},
			{
				"deltaTime": 128,
				"channel": 9,
				"type": "channel",
				"noteNumber": 40,
				"velocity": 127,
				"subtype": "noteOn"
			},
			{
				"deltaTime": 0,
				"channel": 9,
				"type": "channel",
				"noteNumber": 51,
				"velocity": 127,
				"subtype": "noteOn"
			},
			{
				"deltaTime": 75,
				"channel": 9,
				"type": "channel",
				"subtype": "noteOff",
				"noteNumber": 51,
				"velocity": 64
			},
			{
				"deltaTime": 71,
				"channel": 9,
				"type": "channel",
				"subtype": "noteOff",
				"noteNumber": 36,
				"velocity": 64
			},
			{
				"deltaTime": 159,
				"channel": 9,
				"type": "channel",
				"subtype": "noteOff",
				"noteNumber": 40,
				"velocity": 64
			},
			{
				"deltaTime": 12,
				"channel": 9,
				"type": "channel",
				"noteNumber": 36,
				"velocity": 72,
				"subtype": "noteOn"
			},
			{
				"deltaTime": 0,
				"channel": 9,
				"type": "channel",
				"noteNumber": 51,
				"velocity": 113,
				"subtype": "noteOn"
			},
			{
				"deltaTime": 45,
				"channel": 9,
				"type": "channel",
				"subtype": "noteOff",
				"noteNumber": 51,
				"velocity": 64
			},
			{
				"deltaTime": 20,
				"channel": 9,
				"type": "channel",
				"subtype": "noteOff",
				"noteNumber": 36,
				"velocity": 64
			},
			{
				"deltaTime": 95,
				"channel": 9,
				"type": "channel",
				"noteNumber": 36,
				"velocity": 107,
				"subtype": "noteOn"
			},
			{
				"deltaTime": 0,
				"channel": 9,
				"type": "channel",
				"noteNumber": 51,
				"velocity": 127,
				"subtype": "noteOn"
			},
			{
				"deltaTime": 70,
				"channel": 9,
				"type": "channel",
				"subtype": "noteOff",
				"noteNumber": 51,
				"velocity": 64
			},
			{
				"deltaTime": 248,
				"channel": 9,
				"type": "channel",
				"noteNumber": 51,
				"velocity": 85,
				"subtype": "noteOn"
			},
			{
				"deltaTime": 35,
				"channel": 9,
				"type": "channel",
				"subtype": "noteOff",
				"noteNumber": 51,
				"velocity": 64
			},
			{
				"deltaTime": 134,
				"channel": 9,
				"type": "channel",
				"noteNumber": 40,
				"velocity": 127,
				"subtype": "noteOn"
			},
			{
				"deltaTime": 0,
				"channel": 9,
				"type": "channel",
				"noteNumber": 51,
				"velocity": 127,
				"subtype": "noteOn"
			},
			{
				"deltaTime": 75,
				"channel": 9,
				"type": "channel",
				"subtype": "noteOff",
				"noteNumber": 51,
				"velocity": 64
			},
			{
				"deltaTime": 78,
				"channel": 9,
				"type": "channel",
				"subtype": "noteOff",
				"noteNumber": 36,
				"velocity": 64
			},
			{
				"deltaTime": 150,
				"channel": 9,
				"type": "channel",
				"noteNumber": 36,
				"velocity": 85,
				"subtype": "noteOn"
			},
			{
				"deltaTime": 0,
				"channel": 9,
				"type": "channel",
				"noteNumber": 51,
				"velocity": 107,
				"subtype": "noteOn"
			},
			{
				"deltaTime": 32,
				"channel": 9,
				"type": "channel",
				"subtype": "noteOff",
				"noteNumber": 40,
				"velocity": 64
			},
			{
				"deltaTime": 8,
				"channel": 9,
				"type": "channel",
				"subtype": "noteOff",
				"noteNumber": 51,
				"velocity": 64
			},
			{
				"deltaTime": 25,
				"channel": 9,
				"type": "channel",
				"subtype": "noteOff",
				"noteNumber": 36,
				"velocity": 64
			},
			{
				"deltaTime": 104,
				"channel": 9,
				"type": "channel",
				"noteNumber": 36,
				"velocity": 85,
				"subtype": "noteOn"
			},
			{
				"deltaTime": 0,
				"channel": 9,
				"type": "channel",
				"noteNumber": 51,
				"velocity": 107,
				"subtype": "noteOn"
			},
			{
				"deltaTime": 55,
				"channel": 9,
				"type": "channel",
				"subtype": "noteOff",
				"noteNumber": 51,
				"velocity": 64
			},
			{
				"deltaTime": 266,
				"channel": 9,
				"type": "channel",
				"noteNumber": 51,
				"velocity": 107,
				"subtype": "noteOn"
			},
			{
				"deltaTime": 45,
				"channel": 9,
				"type": "channel",
				"subtype": "noteOff",
				"noteNumber": 51,
				"velocity": 64
			},
			{
				"deltaTime": 118,
				"channel": 9,
				"type": "channel",
				"noteNumber": 40,
				"velocity": 127,
				"subtype": "noteOn"
			},
			{
				"deltaTime": 0,
				"channel": 9,
				"type": "channel",
				"noteNumber": 51,
				"velocity": 127,
				"subtype": "noteOn"
			},
			{
				"deltaTime": 75,
				"channel": 9,
				"type": "channel",
				"subtype": "noteOff",
				"noteNumber": 51,
				"velocity": 64
			},
			{
				"deltaTime": 76,
				"channel": 9,
				"type": "channel",
				"subtype": "noteOff",
				"noteNumber": 36,
				"velocity": 64
			},
			{
				"deltaTime": 49,
				"channel": 9,
				"type": "channel",
				"subtype": "noteOff",
				"noteNumber": 40,
				"velocity": 64
			},
			{
				"deltaTime": 117,
				"channel": 9,
				"type": "channel",
				"noteNumber": 36,
				"velocity": 93,
				"subtype": "noteOn"
			},
			{
				"deltaTime": 0,
				"channel": 9,
				"type": "channel",
				"noteNumber": 51,
				"velocity": 127,
				"subtype": "noteOn"
			},
			{
				"deltaTime": 35,
				"channel": 9,
				"type": "channel",
				"subtype": "noteOff",
				"noteNumber": 51,
				"velocity": 64
			},
			{
				"deltaTime": 5,
				"channel": 9,
				"type": "channel",
				"subtype": "noteOff",
				"noteNumber": 36,
				"velocity": 64
			},
			{
				"deltaTime": 120,
				"channel": 9,
				"type": "channel",
				"noteNumber": 36,
				"velocity": 107,
				"subtype": "noteOn"
			},
			{
				"deltaTime": 0,
				"channel": 9,
				"type": "channel",
				"noteNumber": 51,
				"velocity": 127,
				"subtype": "noteOn"
			},
			{
				"deltaTime": 40,
				"channel": 9,
				"type": "channel",
				"subtype": "noteOff",
				"noteNumber": 51,
				"velocity": 64
			},
			{
				"deltaTime": 278,
				"channel": 9,
				"type": "channel",
				"noteNumber": 51,
				"velocity": 68,
				"subtype": "noteOn"
			},
			{
				"deltaTime": 25,
				"channel": 9,
				"type": "channel",
				"subtype": "noteOff",
				"noteNumber": 51,
				"velocity": 64
			},
			{
				"deltaTime": 144,
				"channel": 9,
				"type": "channel",
				"noteNumber": 40,
				"velocity": 127,
				"subtype": "noteOn"
			},
			{
				"deltaTime": 0,
				"channel": 9,
				"type": "channel",
				"noteNumber": 51,
				"velocity": 127,
				"subtype": "noteOn"
			},
			{
				"deltaTime": 125,
				"channel": 9,
				"type": "channel",
				"subtype": "noteOff",
				"noteNumber": 51,
				"velocity": 64
			},
			{
				"deltaTime": 38,
				"channel": 9,
				"type": "channel",
				"subtype": "noteOff",
				"noteNumber": 36,
				"velocity": 64
			},
			{
				"deltaTime": 140,
				"channel": 9,
				"type": "channel",
				"noteNumber": 36,
				"velocity": 50,
				"subtype": "noteOn"
			},
			{
				"deltaTime": 0,
				"channel": 9,
				"type": "channel",
				"noteNumber": 51,
				"velocity": 102,
				"subtype": "noteOn"
			},
			{
				"deltaTime": 50,
				"channel": 9,
				"type": "channel",
				"subtype": "noteOff",
				"noteNumber": 36,
				"velocity": 64
			},
			{
				"deltaTime": 0,
				"channel": 9,
				"type": "channel",
				"subtype": "noteOff",
				"noteNumber": 51,
				"velocity": 64
			},
			{
				"deltaTime": 22,
				"channel": 9,
				"type": "channel",
				"subtype": "noteOff",
				"noteNumber": 40,
				"velocity": 64
			},
			{
				"deltaTime": 97,
				"channel": 9,
				"type": "channel",
				"noteNumber": 36,
				"velocity": 85,
				"subtype": "noteOn"
			},
			{
				"deltaTime": 0,
				"channel": 9,
				"type": "channel",
				"noteNumber": 51,
				"velocity": 113,
				"subtype": "noteOn"
			},
			{
				"deltaTime": 95,
				"channel": 9,
				"type": "channel",
				"subtype": "noteOff",
				"noteNumber": 51,
				"velocity": 64
			},
			{
				"deltaTime": 226,
				"channel": 9,
				"type": "channel",
				"noteNumber": 51,
				"velocity": 93,
				"subtype": "noteOn"
			},
			{
				"deltaTime": 35,
				"channel": 9,
				"type": "channel",
				"subtype": "noteOff",
				"noteNumber": 51,
				"velocity": 64
			},
			{
				"deltaTime": 128,
				"channel": 9,
				"type": "channel",
				"noteNumber": 40,
				"velocity": 127,
				"subtype": "noteOn"
			},
			{
				"deltaTime": 0,
				"channel": 9,
				"type": "channel",
				"noteNumber": 51,
				"velocity": 127,
				"subtype": "noteOn"
			},
			{
				"deltaTime": 120,
				"channel": 9,
				"type": "channel",
				"subtype": "noteOff",
				"noteNumber": 51,
				"velocity": 64
			},
			{
				"deltaTime": 86,
				"channel": 9,
				"type": "channel",
				"subtype": "noteOff",
				"noteNumber": 36,
				"velocity": 64
			},
			{
				"deltaTime": 94,
				"channel": 9,
				"type": "channel",
				"subtype": "noteOff",
				"noteNumber": 40,
				"velocity": 64
			},
			{
				"deltaTime": 17,
				"channel": 9,
				"type": "channel",
				"noteNumber": 36,
				"velocity": 72,
				"subtype": "noteOn"
			},
			{
				"deltaTime": 0,
				"channel": 9,
				"type": "channel",
				"noteNumber": 51,
				"velocity": 107,
				"subtype": "noteOn"
			},
			{
				"deltaTime": 55,
				"channel": 9,
				"type": "channel",
				"subtype": "noteOff",
				"noteNumber": 51,
				"velocity": 64
			},
			{
				"deltaTime": 25,
				"channel": 9,
				"type": "channel",
				"subtype": "noteOff",
				"noteNumber": 36,
				"velocity": 64
			},
			{
				"deltaTime": 80,
				"channel": 9,
				"type": "channel",
				"noteNumber": 36,
				"velocity": 80,
				"subtype": "noteOn"
			},
			{
				"deltaTime": 0,
				"channel": 9,
				"type": "channel",
				"noteNumber": 51,
				"velocity": 113,
				"subtype": "noteOn"
			},
			{
				"deltaTime": 95,
				"channel": 9,
				"type": "channel",
				"subtype": "noteOff",
				"noteNumber": 51,
				"velocity": 64
			},
			{
				"deltaTime": 223,
				"channel": 9,
				"type": "channel",
				"noteNumber": 51,
				"velocity": 68,
				"subtype": "noteOn"
			},
			{
				"deltaTime": 25,
				"channel": 9,
				"type": "channel",
				"subtype": "noteOff",
				"noteNumber": 51,
				"velocity": 64
			},
			{
				"deltaTime": 144,
				"channel": 9,
				"type": "channel",
				"noteNumber": 40,
				"velocity": 127,
				"subtype": "noteOn"
			},
			{
				"deltaTime": 0,
				"channel": 9,
				"type": "channel",
				"noteNumber": 51,
				"velocity": 127,
				"subtype": "noteOn"
			},
			{
				"deltaTime": 140,
				"channel": 9,
				"type": "channel",
				"subtype": "noteOff",
				"noteNumber": 51,
				"velocity": 64
			},
			{
				"deltaTime": 73,
				"channel": 9,
				"type": "channel",
				"subtype": "noteOff",
				"noteNumber": 36,
				"velocity": 64
			},
			{
				"deltaTime": 82,
				"channel": 9,
				"type": "channel",
				"subtype": "noteOff",
				"noteNumber": 40,
				"velocity": 64
			},
			{
				"deltaTime": 8,
				"channel": 9,
				"type": "channel",
				"noteNumber": 36,
				"velocity": 72,
				"subtype": "noteOn"
			},
			{
				"deltaTime": 0,
				"channel": 9,
				"type": "channel",
				"noteNumber": 51,
				"velocity": 98,
				"subtype": "noteOn"
			},
			{
				"deltaTime": 45,
				"channel": 9,
				"type": "channel",
				"subtype": "noteOff",
				"noteNumber": 51,
				"velocity": 64
			},
			{
				"deltaTime": 10,
				"channel": 9,
				"type": "channel",
				"subtype": "noteOff",
				"noteNumber": 36,
				"velocity": 64
			},
			{
				"deltaTime": 114,
				"channel": 9,
				"type": "channel",
				"noteNumber": 36,
				"velocity": 98,
				"subtype": "noteOn"
			},
			{
				"deltaTime": 0,
				"channel": 9,
				"type": "channel",
				"noteNumber": 51,
				"velocity": 113,
				"subtype": "noteOn"
			},
			{
				"deltaTime": 90,
				"channel": 9,
				"type": "channel",
				"subtype": "noteOff",
				"noteNumber": 51,
				"velocity": 64
			},
			{
				"deltaTime": 231,
				"channel": 9,
				"type": "channel",
				"noteNumber": 51,
				"velocity": 89,
				"subtype": "noteOn"
			},
			{
				"deltaTime": 35,
				"channel": 9,
				"type": "channel",
				"subtype": "noteOff",
				"noteNumber": 51,
				"velocity": 64
			},
			{
				"deltaTime": 128,
				"channel": 9,
				"type": "channel",
				"noteNumber": 40,
				"velocity": 127,
				"subtype": "noteOn"
			},
			{
				"deltaTime": 0,
				"channel": 9,
				"type": "channel",
				"noteNumber": 51,
				"velocity": 127,
				"subtype": "noteOn"
			},
			{
				"deltaTime": 120,
				"channel": 9,
				"type": "channel",
				"subtype": "noteOff",
				"noteNumber": 51,
				"velocity": 64
			},
			{
				"deltaTime": 46,
				"channel": 9,
				"type": "channel",
				"subtype": "noteOff",
				"noteNumber": 36,
				"velocity": 64
			},
			{
				"deltaTime": 144,
				"channel": 9,
				"type": "channel",
				"subtype": "noteOff",
				"noteNumber": 40,
				"velocity": 64
			},
			{
				"deltaTime": 7,
				"channel": 9,
				"type": "channel",
				"noteNumber": 36,
				"velocity": 76,
				"subtype": "noteOn"
			},
			{
				"deltaTime": 0,
				"channel": 9,
				"type": "channel",
				"noteNumber": 51,
				"velocity": 102,
				"subtype": "noteOn"
			},
			{
				"deltaTime": 45,
				"channel": 9,
				"type": "channel",
				"subtype": "noteOff",
				"noteNumber": 51,
				"velocity": 64
			},
			{
				"deltaTime": 20,
				"channel": 9,
				"type": "channel",
				"subtype": "noteOff",
				"noteNumber": 36,
				"velocity": 64
			},
			{
				"deltaTime": 95,
				"channel": 9,
				"type": "channel",
				"noteNumber": 36,
				"velocity": 76,
				"subtype": "noteOn"
			},
			{
				"deltaTime": 0,
				"channel": 9,
				"type": "channel",
				"noteNumber": 51,
				"velocity": 127,
				"subtype": "noteOn"
			},
			{
				"deltaTime": 70,
				"channel": 9,
				"type": "channel",
				"subtype": "noteOff",
				"noteNumber": 51,
				"velocity": 64
			},
			{
				"deltaTime": 248,
				"channel": 9,
				"type": "channel",
				"noteNumber": 51,
				"velocity": 85,
				"subtype": "noteOn"
			},
			{
				"deltaTime": 20,
				"channel": 9,
				"type": "channel",
				"subtype": "noteOff",
				"noteNumber": 51,
				"velocity": 64
			},
			{
				"deltaTime": 149,
				"channel": 9,
				"type": "channel",
				"noteNumber": 40,
				"velocity": 127,
				"subtype": "noteOn"
			},
			{
				"deltaTime": 0,
				"channel": 9,
				"type": "channel",
				"noteNumber": 49,
				"velocity": 107,
				"subtype": "noteOn"
			},
			{
				"deltaTime": 0,
				"channel": 9,
				"type": "channel",
				"noteNumber": 51,
				"velocity": 127,
				"subtype": "noteOn"
			},
			{
				"deltaTime": 60,
				"channel": 9,
				"type": "channel",
				"subtype": "noteOff",
				"noteNumber": 49,
				"velocity": 64
			},
			{
				"deltaTime": 50,
				"channel": 9,
				"type": "channel",
				"subtype": "noteOff",
				"noteNumber": 51,
				"velocity": 64
			},
			{
				"deltaTime": 43,
				"channel": 9,
				"type": "channel",
				"subtype": "noteOff",
				"noteNumber": 36,
				"velocity": 64
			},
			{
				"deltaTime": 150,
				"channel": 9,
				"type": "channel",
				"noteNumber": 36,
				"velocity": 93,
				"subtype": "noteOn"
			},
			{
				"deltaTime": 0,
				"channel": 9,
				"type": "channel",
				"noteNumber": 51,
				"velocity": 107,
				"subtype": "noteOn"
			},
			{
				"deltaTime": 17,
				"channel": 9,
				"type": "channel",
				"subtype": "noteOff",
				"noteNumber": 40,
				"velocity": 64
			},
			{
				"deltaTime": 28,
				"channel": 9,
				"type": "channel",
				"subtype": "noteOff",
				"noteNumber": 51,
				"velocity": 64
			},
			{
				"deltaTime": 20,
				"channel": 9,
				"type": "channel",
				"subtype": "noteOff",
				"noteNumber": 36,
				"velocity": 64
			},
			{
				"deltaTime": 104,
				"channel": 9,
				"type": "channel",
				"noteNumber": 36,
				"velocity": 93,
				"subtype": "noteOn"
			},
			{
				"deltaTime": 0,
				"channel": 9,
				"type": "channel",
				"noteNumber": 51,
				"velocity": 127,
				"subtype": "noteOn"
			},
			{
				"deltaTime": 60,
				"channel": 9,
				"type": "channel",
				"subtype": "noteOff",
				"noteNumber": 51,
				"velocity": 64
			},
			{
				"deltaTime": 261,
				"channel": 9,
				"type": "channel",
				"noteNumber": 51,
				"velocity": 98,
				"subtype": "noteOn"
			},
			{
				"deltaTime": 35,
				"channel": 9,
				"type": "channel",
				"subtype": "noteOff",
				"noteNumber": 51,
				"velocity": 64
			},
			{
				"deltaTime": 128,
				"channel": 9,
				"type": "channel",
				"noteNumber": 40,
				"velocity": 127,
				"subtype": "noteOn"
			},
			{
				"deltaTime": 0,
				"channel": 9,
				"type": "channel",
				"noteNumber": 51,
				"velocity": 127,
				"subtype": "noteOn"
			},
			{
				"deltaTime": 75,
				"channel": 9,
				"type": "channel",
				"subtype": "noteOff",
				"noteNumber": 51,
				"velocity": 64
			},
			{
				"deltaTime": 71,
				"channel": 9,
				"type": "channel",
				"subtype": "noteOff",
				"noteNumber": 36,
				"velocity": 64
			},
			{
				"deltaTime": 159,
				"channel": 9,
				"type": "channel",
				"subtype": "noteOff",
				"noteNumber": 40,
				"velocity": 64
			},
			{
				"deltaTime": 12,
				"channel": 9,
				"type": "channel",
				"noteNumber": 36,
				"velocity": 72,
				"subtype": "noteOn"
			},
			{
				"deltaTime": 0,
				"channel": 9,
				"type": "channel",
				"noteNumber": 51,
				"velocity": 113,
				"subtype": "noteOn"
			},
			{
				"deltaTime": 45,
				"channel": 9,
				"type": "channel",
				"subtype": "noteOff",
				"noteNumber": 51,
				"velocity": 64
			},
			{
				"deltaTime": 20,
				"channel": 9,
				"type": "channel",
				"subtype": "noteOff",
				"noteNumber": 36,
				"velocity": 64
			},
			{
				"deltaTime": 95,
				"channel": 9,
				"type": "channel",
				"noteNumber": 36,
				"velocity": 107,
				"subtype": "noteOn"
			},
			{
				"deltaTime": 0,
				"channel": 9,
				"type": "channel",
				"noteNumber": 51,
				"velocity": 127,
				"subtype": "noteOn"
			},
			{
				"deltaTime": 70,
				"channel": 9,
				"type": "channel",
				"subtype": "noteOff",
				"noteNumber": 51,
				"velocity": 64
			},
			{
				"deltaTime": 248,
				"channel": 9,
				"type": "channel",
				"noteNumber": 51,
				"velocity": 85,
				"subtype": "noteOn"
			},
			{
				"deltaTime": 35,
				"channel": 9,
				"type": "channel",
				"subtype": "noteOff",
				"noteNumber": 51,
				"velocity": 64
			},
			{
				"deltaTime": 134,
				"channel": 9,
				"type": "channel",
				"noteNumber": 40,
				"velocity": 127,
				"subtype": "noteOn"
			},
			{
				"deltaTime": 0,
				"channel": 9,
				"type": "channel",
				"noteNumber": 51,
				"velocity": 127,
				"subtype": "noteOn"
			},
			{
				"deltaTime": 75,
				"channel": 9,
				"type": "channel",
				"subtype": "noteOff",
				"noteNumber": 51,
				"velocity": 64
			},
			{
				"deltaTime": 78,
				"channel": 9,
				"type": "channel",
				"subtype": "noteOff",
				"noteNumber": 36,
				"velocity": 64
			},
			{
				"deltaTime": 150,
				"channel": 9,
				"type": "channel",
				"noteNumber": 36,
				"velocity": 85,
				"subtype": "noteOn"
			},
			{
				"deltaTime": 0,
				"channel": 9,
				"type": "channel",
				"noteNumber": 51,
				"velocity": 107,
				"subtype": "noteOn"
			},
			{
				"deltaTime": 32,
				"channel": 9,
				"type": "channel",
				"subtype": "noteOff",
				"noteNumber": 40,
				"velocity": 64
			},
			{
				"deltaTime": 8,
				"channel": 9,
				"type": "channel",
				"subtype": "noteOff",
				"noteNumber": 51,
				"velocity": 64
			},
			{
				"deltaTime": 25,
				"channel": 9,
				"type": "channel",
				"subtype": "noteOff",
				"noteNumber": 36,
				"velocity": 64
			},
			{
				"deltaTime": 104,
				"channel": 9,
				"type": "channel",
				"noteNumber": 36,
				"velocity": 85,
				"subtype": "noteOn"
			},
			{
				"deltaTime": 0,
				"channel": 9,
				"type": "channel",
				"noteNumber": 51,
				"velocity": 107,
				"subtype": "noteOn"
			},
			{
				"deltaTime": 55,
				"channel": 9,
				"type": "channel",
				"subtype": "noteOff",
				"noteNumber": 51,
				"velocity": 64
			},
			{
				"deltaTime": 266,
				"channel": 9,
				"type": "channel",
				"noteNumber": 51,
				"velocity": 107,
				"subtype": "noteOn"
			},
			{
				"deltaTime": 45,
				"channel": 9,
				"type": "channel",
				"subtype": "noteOff",
				"noteNumber": 51,
				"velocity": 64
			},
			{
				"deltaTime": 118,
				"channel": 9,
				"type": "channel",
				"noteNumber": 40,
				"velocity": 127,
				"subtype": "noteOn"
			},
			{
				"deltaTime": 0,
				"channel": 9,
				"type": "channel",
				"noteNumber": 51,
				"velocity": 127,
				"subtype": "noteOn"
			},
			{
				"deltaTime": 75,
				"channel": 9,
				"type": "channel",
				"subtype": "noteOff",
				"noteNumber": 51,
				"velocity": 64
			},
			{
				"deltaTime": 76,
				"channel": 9,
				"type": "channel",
				"subtype": "noteOff",
				"noteNumber": 36,
				"velocity": 64
			},
			{
				"deltaTime": 49,
				"channel": 9,
				"type": "channel",
				"subtype": "noteOff",
				"noteNumber": 40,
				"velocity": 64
			},
			{
				"deltaTime": 117,
				"channel": 9,
				"type": "channel",
				"noteNumber": 36,
				"velocity": 93,
				"subtype": "noteOn"
			},
			{
				"deltaTime": 0,
				"channel": 9,
				"type": "channel",
				"noteNumber": 51,
				"velocity": 127,
				"subtype": "noteOn"
			},
			{
				"deltaTime": 35,
				"channel": 9,
				"type": "channel",
				"subtype": "noteOff",
				"noteNumber": 51,
				"velocity": 64
			},
			{
				"deltaTime": 5,
				"channel": 9,
				"type": "channel",
				"subtype": "noteOff",
				"noteNumber": 36,
				"velocity": 64
			},
			{
				"deltaTime": 120,
				"channel": 9,
				"type": "channel",
				"noteNumber": 36,
				"velocity": 107,
				"subtype": "noteOn"
			},
			{
				"deltaTime": 0,
				"channel": 9,
				"type": "channel",
				"noteNumber": 51,
				"velocity": 127,
				"subtype": "noteOn"
			},
			{
				"deltaTime": 0,
				"channel": 9,
				"type": "channel",
				"noteNumber": 57,
				"velocity": 93,
				"subtype": "noteOn"
			},
			{
				"deltaTime": 40,
				"channel": 9,
				"type": "channel",
				"subtype": "noteOff",
				"noteNumber": 51,
				"velocity": 64
			},
			{
				"deltaTime": 15,
				"channel": 9,
				"type": "channel",
				"subtype": "noteOff",
				"noteNumber": 57,
				"velocity": 64
			},
			{
				"deltaTime": 263,
				"channel": 9,
				"type": "channel",
				"noteNumber": 51,
				"velocity": 68,
				"subtype": "noteOn"
			},
			{
				"deltaTime": 25,
				"channel": 9,
				"type": "channel",
				"subtype": "noteOff",
				"noteNumber": 51,
				"velocity": 64
			},
			{
				"deltaTime": 144,
				"channel": 9,
				"type": "channel",
				"noteNumber": 40,
				"velocity": 127,
				"subtype": "noteOn"
			},
			{
				"deltaTime": 0,
				"channel": 9,
				"type": "channel",
				"noteNumber": 51,
				"velocity": 127,
				"subtype": "noteOn"
			},
			{
				"deltaTime": 125,
				"channel": 9,
				"type": "channel",
				"subtype": "noteOff",
				"noteNumber": 51,
				"velocity": 64
			},
			{
				"deltaTime": 38,
				"channel": 9,
				"type": "channel",
				"subtype": "noteOff",
				"noteNumber": 36,
				"velocity": 64
			},
			{
				"deltaTime": 140,
				"channel": 9,
				"type": "channel",
				"noteNumber": 36,
				"velocity": 50,
				"subtype": "noteOn"
			},
			{
				"deltaTime": 0,
				"channel": 9,
				"type": "channel",
				"noteNumber": 51,
				"velocity": 102,
				"subtype": "noteOn"
			},
			{
				"deltaTime": 50,
				"channel": 9,
				"type": "channel",
				"subtype": "noteOff",
				"noteNumber": 36,
				"velocity": 64
			},
			{
				"deltaTime": 0,
				"channel": 9,
				"type": "channel",
				"subtype": "noteOff",
				"noteNumber": 51,
				"velocity": 64
			},
			{
				"deltaTime": 22,
				"channel": 9,
				"type": "channel",
				"subtype": "noteOff",
				"noteNumber": 40,
				"velocity": 64
			},
			{
				"deltaTime": 97,
				"channel": 9,
				"type": "channel",
				"noteNumber": 36,
				"velocity": 85,
				"subtype": "noteOn"
			},
			{
				"deltaTime": 0,
				"channel": 9,
				"type": "channel",
				"noteNumber": 51,
				"velocity": 113,
				"subtype": "noteOn"
			},
			{
				"deltaTime": 95,
				"channel": 9,
				"type": "channel",
				"subtype": "noteOff",
				"noteNumber": 51,
				"velocity": 64
			},
			{
				"deltaTime": 226,
				"channel": 9,
				"type": "channel",
				"noteNumber": 51,
				"velocity": 93,
				"subtype": "noteOn"
			},
			{
				"deltaTime": 35,
				"channel": 9,
				"type": "channel",
				"subtype": "noteOff",
				"noteNumber": 51,
				"velocity": 64
			},
			{
				"deltaTime": 128,
				"channel": 9,
				"type": "channel",
				"noteNumber": 40,
				"velocity": 127,
				"subtype": "noteOn"
			},
			{
				"deltaTime": 0,
				"channel": 9,
				"type": "channel",
				"noteNumber": 51,
				"velocity": 127,
				"subtype": "noteOn"
			},
			{
				"deltaTime": 120,
				"channel": 9,
				"type": "channel",
				"subtype": "noteOff",
				"noteNumber": 51,
				"velocity": 64
			},
			{
				"deltaTime": 86,
				"channel": 9,
				"type": "channel",
				"subtype": "noteOff",
				"noteNumber": 36,
				"velocity": 64
			},
			{
				"deltaTime": 94,
				"channel": 9,
				"type": "channel",
				"subtype": "noteOff",
				"noteNumber": 40,
				"velocity": 64
			},
			{
				"deltaTime": 17,
				"channel": 9,
				"type": "channel",
				"noteNumber": 36,
				"velocity": 72,
				"subtype": "noteOn"
			},
			{
				"deltaTime": 0,
				"channel": 9,
				"type": "channel",
				"noteNumber": 51,
				"velocity": 107,
				"subtype": "noteOn"
			},
			{
				"deltaTime": 55,
				"channel": 9,
				"type": "channel",
				"subtype": "noteOff",
				"noteNumber": 51,
				"velocity": 64
			},
			{
				"deltaTime": 25,
				"channel": 9,
				"type": "channel",
				"subtype": "noteOff",
				"noteNumber": 36,
				"velocity": 64
			},
			{
				"deltaTime": 80,
				"channel": 9,
				"type": "channel",
				"noteNumber": 36,
				"velocity": 80,
				"subtype": "noteOn"
			},
			{
				"deltaTime": 0,
				"channel": 9,
				"type": "channel",
				"noteNumber": 51,
				"velocity": 113,
				"subtype": "noteOn"
			},
			{
				"deltaTime": 95,
				"channel": 9,
				"type": "channel",
				"subtype": "noteOff",
				"noteNumber": 51,
				"velocity": 64
			},
			{
				"deltaTime": 223,
				"channel": 9,
				"type": "channel",
				"noteNumber": 51,
				"velocity": 68,
				"subtype": "noteOn"
			},
			{
				"deltaTime": 25,
				"channel": 9,
				"type": "channel",
				"subtype": "noteOff",
				"noteNumber": 51,
				"velocity": 64
			},
			{
				"deltaTime": 144,
				"channel": 9,
				"type": "channel",
				"noteNumber": 40,
				"velocity": 127,
				"subtype": "noteOn"
			},
			{
				"deltaTime": 0,
				"channel": 9,
				"type": "channel",
				"noteNumber": 51,
				"velocity": 127,
				"subtype": "noteOn"
			},
			{
				"deltaTime": 140,
				"channel": 9,
				"type": "channel",
				"subtype": "noteOff",
				"noteNumber": 51,
				"velocity": 64
			},
			{
				"deltaTime": 73,
				"channel": 9,
				"type": "channel",
				"subtype": "noteOff",
				"noteNumber": 36,
				"velocity": 64
			},
			{
				"deltaTime": 82,
				"channel": 9,
				"type": "channel",
				"subtype": "noteOff",
				"noteNumber": 40,
				"velocity": 64
			},
			{
				"deltaTime": 8,
				"channel": 9,
				"type": "channel",
				"noteNumber": 36,
				"velocity": 72,
				"subtype": "noteOn"
			},
			{
				"deltaTime": 0,
				"channel": 9,
				"type": "channel",
				"noteNumber": 51,
				"velocity": 98,
				"subtype": "noteOn"
			},
			{
				"deltaTime": 45,
				"channel": 9,
				"type": "channel",
				"subtype": "noteOff",
				"noteNumber": 51,
				"velocity": 64
			},
			{
				"deltaTime": 10,
				"channel": 9,
				"type": "channel",
				"subtype": "noteOff",
				"noteNumber": 36,
				"velocity": 64
			},
			{
				"deltaTime": 114,
				"channel": 9,
				"type": "channel",
				"noteNumber": 36,
				"velocity": 98,
				"subtype": "noteOn"
			},
			{
				"deltaTime": 0,
				"channel": 9,
				"type": "channel",
				"noteNumber": 51,
				"velocity": 113,
				"subtype": "noteOn"
			},
			{
				"deltaTime": 90,
				"channel": 9,
				"type": "channel",
				"subtype": "noteOff",
				"noteNumber": 51,
				"velocity": 64
			},
			{
				"deltaTime": 231,
				"channel": 9,
				"type": "channel",
				"noteNumber": 40,
				"velocity": 76,
				"subtype": "noteOn"
			},
			{
				"deltaTime": 0,
				"channel": 9,
				"type": "channel",
				"noteNumber": 51,
				"velocity": 89,
				"subtype": "noteOn"
			},
			{
				"deltaTime": 35,
				"channel": 9,
				"type": "channel",
				"subtype": "noteOff",
				"noteNumber": 51,
				"velocity": 64
			},
			{
				"deltaTime": 15,
				"channel": 9,
				"type": "channel",
				"subtype": "noteOff",
				"noteNumber": 40,
				"velocity": 64
			},
			{
				"deltaTime": 113,
				"channel": 9,
				"type": "channel",
				"noteNumber": 40,
				"velocity": 107,
				"subtype": "noteOn"
			},
			{
				"deltaTime": 0,
				"channel": 9,
				"type": "channel",
				"noteNumber": 51,
				"velocity": 127,
				"subtype": "noteOn"
			},
			{
				"deltaTime": 60,
				"channel": 9,
				"type": "channel",
				"subtype": "noteOff",
				"noteNumber": 40,
				"velocity": 64
			},
			{
				"deltaTime": 60,
				"channel": 9,
				"type": "channel",
				"subtype": "noteOff",
				"noteNumber": 51,
				"velocity": 64
			},
			{
				"deltaTime": 37,
				"channel": 9,
				"type": "channel",
				"noteNumber": 40,
				"velocity": 119,
				"subtype": "noteOn"
			},
			{
				"deltaTime": 9,
				"channel": 9,
				"type": "channel",
				"subtype": "noteOff",
				"noteNumber": 36,
				"velocity": 64
			},
			{
				"deltaTime": 56,
				"channel": 9,
				"type": "channel",
				"subtype": "noteOff",
				"noteNumber": 40,
				"velocity": 64
			},
			{
				"deltaTime": 95,
				"channel": 9,
				"type": "channel",
				"noteNumber": 36,
				"velocity": 76,
				"subtype": "noteOn"
			},
			{
				"deltaTime": 0,
				"channel": 9,
				"type": "channel",
				"noteNumber": 40,
				"velocity": 127,
				"subtype": "noteOn"
			},
			{
				"deltaTime": 0,
				"channel": 9,
				"type": "channel",
				"noteNumber": 51,
				"velocity": 102,
				"subtype": "noteOn"
			},
			{
				"deltaTime": 45,
				"channel": 9,
				"type": "channel",
				"subtype": "noteOff",
				"noteNumber": 51,
				"velocity": 64
			},
			{
				"deltaTime": 20,
				"channel": 9,
				"type": "channel",
				"subtype": "noteOff",
				"noteNumber": 36,
				"velocity": 64
			},
			{
				"deltaTime": 35,
				"channel": 9,
				"type": "channel",
				"subtype": "noteOff",
				"noteNumber": 40,
				"velocity": 64
			},
			{
				"deltaTime": 60,
				"channel": 9,
				"type": "channel",
				"noteNumber": 36,
				"velocity": 113,
				"subtype": "noteOn"
			},
			{
				"deltaTime": 0,
				"channel": 9,
				"type": "channel",
				"noteNumber": 42,
				"velocity": 127,
				"subtype": "noteOn"
			},
			{
				"deltaTime": 0,
				"channel": 9,
				"type": "channel",
				"noteNumber": 57,
				"velocity": 107,
				"subtype": "noteOn"
			},
			{
				"deltaTime": 30,
				"channel": 9,
				"type": "channel",
				"subtype": "noteOff",
				"noteNumber": 57,
				"velocity": 64
			},
			{
				"deltaTime": 10,
				"channel": 9,
				"type": "channel",
				"subtype": "noteOff",
				"noteNumber": 42,
				"velocity": 64
			},
			{
				"deltaTime": 278,
				"channel": 9,
				"type": "channel",
				"noteNumber": 42,
				"velocity": 127,
				"subtype": "noteOn"
			},
			{
				"deltaTime": 45,
				"channel": 9,
				"type": "channel",
				"subtype": "noteOff",
				"noteNumber": 42,
				"velocity": 64
			},
			{
				"deltaTime": 124,
				"channel": 9,
				"type": "channel",
				"noteNumber": 40,
				"velocity": 127,
				"subtype": "noteOn"
			},
			{
				"deltaTime": 0,
				"channel": 9,
				"type": "channel",
				"noteNumber": 42,
				"velocity": 127,
				"subtype": "noteOn"
			},
			{
				"deltaTime": 60,
				"channel": 9,
				"type": "channel",
				"subtype": "noteOff",
				"noteNumber": 42,
				"velocity": 64
			},
			{
				"deltaTime": 93,
				"channel": 9,
				"type": "channel",
				"subtype": "noteOff",
				"noteNumber": 36,
				"velocity": 64
			},
			{
				"deltaTime": 150,
				"channel": 9,
				"type": "channel",
				"noteNumber": 36,
				"velocity": 80,
				"subtype": "noteOn"
			},
			{
				"deltaTime": 0,
				"channel": 9,
				"type": "channel",
				"noteNumber": 42,
				"velocity": 127,
				"subtype": "noteOn"
			},
			{
				"deltaTime": 35,
				"channel": 9,
				"type": "channel",
				"subtype": "noteOff",
				"noteNumber": 42,
				"velocity": 64
			},
			{
				"deltaTime": 2,
				"channel": 9,
				"type": "channel",
				"subtype": "noteOff",
				"noteNumber": 40,
				"velocity": 64
			},
			{
				"deltaTime": 43,
				"channel": 9,
				"type": "channel",
				"subtype": "noteOff",
				"noteNumber": 36,
				"velocity": 64
			},
			{
				"deltaTime": 89,
				"channel": 9,
				"type": "channel",
				"noteNumber": 36,
				"velocity": 113,
				"subtype": "noteOn"
			},
			{
				"deltaTime": 0,
				"channel": 9,
				"type": "channel",
				"noteNumber": 42,
				"velocity": 127,
				"subtype": "noteOn"
			},
			{
				"deltaTime": 60,
				"channel": 9,
				"type": "channel",
				"subtype": "noteOff",
				"noteNumber": 42,
				"velocity": 64
			},
			{
				"deltaTime": 261,
				"channel": 9,
				"type": "channel",
				"noteNumber": 42,
				"velocity": 127,
				"subtype": "noteOn"
			},
			{
				"deltaTime": 45,
				"channel": 9,
				"type": "channel",
				"subtype": "noteOff",
				"noteNumber": 42,
				"velocity": 64
			},
			{
				"deltaTime": 118,
				"channel": 9,
				"type": "channel",
				"noteNumber": 40,
				"velocity": 127,
				"subtype": "noteOn"
			},
			{
				"deltaTime": 0,
				"channel": 9,
				"type": "channel",
				"noteNumber": 42,
				"velocity": 127,
				"subtype": "noteOn"
			},
			{
				"deltaTime": 130,
				"channel": 9,
				"type": "channel",
				"subtype": "noteOff",
				"noteNumber": 42,
				"velocity": 64
			},
			{
				"deltaTime": 36,
				"channel": 9,
				"type": "channel",
				"subtype": "noteOff",
				"noteNumber": 36,
				"velocity": 64
			},
			{
				"deltaTime": 151,
				"channel": 9,
				"type": "channel",
				"noteNumber": 36,
				"velocity": 98,
				"subtype": "noteOn"
			},
			{
				"deltaTime": 0,
				"channel": 9,
				"type": "channel",
				"noteNumber": 46,
				"velocity": 127,
				"subtype": "noteOn"
			},
			{
				"deltaTime": 60,
				"channel": 9,
				"type": "channel",
				"subtype": "noteOff",
				"noteNumber": 36,
				"velocity": 64
			},
			{
				"deltaTime": 38,
				"channel": 9,
				"type": "channel",
				"subtype": "noteOff",
				"noteNumber": 40,
				"velocity": 64
			},
			{
				"deltaTime": 57,
				"channel": 9,
				"type": "channel",
				"subtype": "noteOff",
				"noteNumber": 46,
				"velocity": 64
			},
			{
				"deltaTime": 5,
				"channel": 9,
				"type": "channel",
				"noteNumber": 36,
				"velocity": 107,
				"subtype": "noteOn"
			},
			{
				"deltaTime": 0,
				"channel": 9,
				"type": "channel",
				"noteNumber": 42,
				"velocity": 113,
				"subtype": "noteOn"
			},
			{
				"deltaTime": 75,
				"channel": 9,
				"type": "channel",
				"subtype": "noteOff",
				"noteNumber": 42,
				"velocity": 64
			},
			{
				"deltaTime": 243,
				"channel": 9,
				"type": "channel",
				"noteNumber": 42,
				"velocity": 127,
				"subtype": "noteOn"
			},
			{
				"deltaTime": 55,
				"channel": 9,
				"type": "channel",
				"subtype": "noteOff",
				"noteNumber": 42,
				"velocity": 64
			},
			{
				"deltaTime": 114,
				"channel": 9,
				"type": "channel",
				"noteNumber": 40,
				"velocity": 127,
				"subtype": "noteOn"
			},
			{
				"deltaTime": 0,
				"channel": 9,
				"type": "channel",
				"noteNumber": 42,
				"velocity": 127,
				"subtype": "noteOn"
			},
			{
				"deltaTime": 55,
				"channel": 9,
				"type": "channel",
				"subtype": "noteOff",
				"noteNumber": 42,
				"velocity": 64
			},
			{
				"deltaTime": 83,
				"channel": 9,
				"type": "channel",
				"subtype": "noteOff",
				"noteNumber": 36,
				"velocity": 64
			},
			{
				"deltaTime": 165,
				"channel": 9,
				"type": "channel",
				"noteNumber": 36,
				"velocity": 98,
				"subtype": "noteOn"
			},
			{
				"deltaTime": 0,
				"channel": 9,
				"type": "channel",
				"noteNumber": 42,
				"velocity": 127,
				"subtype": "noteOn"
			},
			{
				"deltaTime": 32,
				"channel": 9,
				"type": "channel",
				"subtype": "noteOff",
				"noteNumber": 40,
				"velocity": 64
			},
			{
				"deltaTime": 23,
				"channel": 9,
				"type": "channel",
				"subtype": "noteOff",
				"noteNumber": 42,
				"velocity": 64
			},
			{
				"deltaTime": 15,
				"channel": 9,
				"type": "channel",
				"subtype": "noteOff",
				"noteNumber": 36,
				"velocity": 64
			},
			{
				"deltaTime": 99,
				"channel": 9,
				"type": "channel",
				"noteNumber": 36,
				"velocity": 107,
				"subtype": "noteOn"
			},
			{
				"deltaTime": 0,
				"channel": 9,
				"type": "channel",
				"noteNumber": 42,
				"velocity": 127,
				"subtype": "noteOn"
			},
			{
				"deltaTime": 60,
				"channel": 9,
				"type": "channel",
				"subtype": "noteOff",
				"noteNumber": 42,
				"velocity": 64
			},
			{
				"deltaTime": 130,
				"channel": 9,
				"type": "channel",
				"subtype": "noteOff",
				"noteNumber": 36,
				"velocity": 64
			},
			{
				"deltaTime": 131,
				"channel": 9,
				"type": "channel",
				"noteNumber": 36,
				"velocity": 64,
				"subtype": "noteOn"
			},
			{
				"deltaTime": 0,
				"channel": 9,
				"type": "channel",
				"noteNumber": 42,
				"velocity": 127,
				"subtype": "noteOn"
			},
			{
				"deltaTime": 55,
				"channel": 9,
				"type": "channel",
				"subtype": "noteOff",
				"noteNumber": 42,
				"velocity": 64
			},
			{
				"deltaTime": 108,
				"channel": 9,
				"type": "channel",
				"noteNumber": 40,
				"velocity": 127,
				"subtype": "noteOn"
			},
			{
				"deltaTime": 0,
				"channel": 9,
				"type": "channel",
				"noteNumber": 42,
				"velocity": 127,
				"subtype": "noteOn"
			},
			{
				"deltaTime": 115,
				"channel": 9,
				"type": "channel",
				"subtype": "noteOff",
				"noteNumber": 42,
				"velocity": 64
			},
			{
				"deltaTime": 17,
				"channel": 9,
				"type": "channel",
				"subtype": "noteOff",
				"noteNumber": 36,
				"velocity": 64
			},
			{
				"deltaTime": 185,
				"channel": 9,
				"type": "channel",
				"noteNumber": 36,
				"velocity": 93,
				"subtype": "noteOn"
			},
			{
				"deltaTime": 0,
				"channel": 9,
				"type": "channel",
				"noteNumber": 46,
				"velocity": 119,
				"subtype": "noteOn"
			},
			{
				"deltaTime": 33,
				"channel": 9,
				"type": "channel",
				"subtype": "noteOff",
				"noteNumber": 40,
				"velocity": 64
			},
			{
				"deltaTime": 52,
				"channel": 9,
				"type": "channel",
				"subtype": "noteOff",
				"noteNumber": 36,
				"velocity": 64
			},
			{
				"deltaTime": 75,
				"channel": 9,
				"type": "channel",
				"subtype": "noteOff",
				"noteNumber": 46,
				"velocity": 64
			},
			{
				"deltaTime": 0,
				"channel": 9,
				"type": "channel",
				"noteNumber": 36,
				"velocity": 102,
				"subtype": "noteOn"
			},
			{
				"deltaTime": 0,
				"channel": 9,
				"type": "channel",
				"noteNumber": 42,
				"velocity": 119,
				"subtype": "noteOn"
			},
			{
				"deltaTime": 70,
				"channel": 9,
				"type": "channel",
				"subtype": "noteOff",
				"noteNumber": 42,
				"velocity": 64
			},
			{
				"deltaTime": 248,
				"channel": 9,
				"type": "channel",
				"noteNumber": 42,
				"velocity": 127,
				"subtype": "noteOn"
			},
			{
				"deltaTime": 60,
				"channel": 9,
				"type": "channel",
				"subtype": "noteOff",
				"noteNumber": 42,
				"velocity": 64
			},
			{
				"deltaTime": 109,
				"channel": 9,
				"type": "channel",
				"noteNumber": 40,
				"velocity": 127,
				"subtype": "noteOn"
			},
			{
				"deltaTime": 0,
				"channel": 9,
				"type": "channel",
				"noteNumber": 42,
				"velocity": 127,
				"subtype": "noteOn"
			},
			{
				"deltaTime": 60,
				"channel": 9,
				"type": "channel",
				"subtype": "noteOff",
				"noteNumber": 42,
				"velocity": 64
			},
			{
				"deltaTime": 18,
				"channel": 9,
				"type": "channel",
				"subtype": "noteOff",
				"noteNumber": 36,
				"velocity": 64
			},
			{
				"deltaTime": 182,
				"channel": 9,
				"type": "channel",
				"subtype": "noteOff",
				"noteNumber": 40,
				"velocity": 64
			},
			{
				"deltaTime": 43,
				"channel": 9,
				"type": "channel",
				"noteNumber": 36,
				"velocity": 102,
				"subtype": "noteOn"
			},
			{
				"deltaTime": 0,
				"channel": 9,
				"type": "channel",
				"noteNumber": 42,
				"velocity": 127,
				"subtype": "noteOn"
			},
			{
				"deltaTime": 50,
				"channel": 9,
				"type": "channel",
				"subtype": "noteOff",
				"noteNumber": 42,
				"velocity": 64
			},
			{
				"deltaTime": 25,
				"channel": 9,
				"type": "channel",
				"subtype": "noteOff",
				"noteNumber": 36,
				"velocity": 64
			},
			{
				"deltaTime": 94,
				"channel": 9,
				"type": "channel",
				"noteNumber": 36,
				"velocity": 89,
				"subtype": "noteOn"
			},
			{
				"deltaTime": 0,
				"channel": 9,
				"type": "channel",
				"noteNumber": 42,
				"velocity": 127,
				"subtype": "noteOn"
			},
			{
				"deltaTime": 75,
				"channel": 9,
				"type": "channel",
				"subtype": "noteOff",
				"noteNumber": 42,
				"velocity": 64
			},
			{
				"deltaTime": 55,
				"channel": 9,
				"type": "channel",
				"subtype": "noteOff",
				"noteNumber": 36,
				"velocity": 64
			},
			{
				"deltaTime": 191,
				"channel": 9,
				"type": "channel",
				"noteNumber": 36,
				"velocity": 93,
				"subtype": "noteOn"
			},
			{
				"deltaTime": 0,
				"channel": 9,
				"type": "channel",
				"noteNumber": 42,
				"velocity": 127,
				"subtype": "noteOn"
			},
			{
				"deltaTime": 55,
				"channel": 9,
				"type": "channel",
				"subtype": "noteOff",
				"noteNumber": 42,
				"velocity": 64
			},
			{
				"deltaTime": 70,
				"channel": 9,
				"type": "channel",
				"subtype": "noteOff",
				"noteNumber": 36,
				"velocity": 64
			},
			{
				"deltaTime": 38,
				"channel": 9,
				"type": "channel",
				"noteNumber": 40,
				"velocity": 127,
				"subtype": "noteOn"
			},
			{
				"deltaTime": 0,
				"channel": 9,
				"type": "channel",
				"noteNumber": 42,
				"velocity": 127,
				"subtype": "noteOn"
			},
			{
				"deltaTime": 75,
				"channel": 9,
				"type": "channel",
				"subtype": "noteOff",
				"noteNumber": 42,
				"velocity": 64
			},
			{
				"deltaTime": 242,
				"channel": 9,
				"type": "channel",
				"noteNumber": 36,
				"velocity": 98,
				"subtype": "noteOn"
			},
			{
				"deltaTime": 0,
				"channel": 9,
				"type": "channel",
				"noteNumber": 42,
				"velocity": 127,
				"subtype": "noteOn"
			},
			{
				"deltaTime": 13,
				"channel": 9,
				"type": "channel",
				"subtype": "noteOff",
				"noteNumber": 40,
				"velocity": 64
			},
			{
				"deltaTime": 47,
				"channel": 9,
				"type": "channel",
				"subtype": "noteOff",
				"noteNumber": 42,
				"velocity": 64
			},
			{
				"deltaTime": 15,
				"channel": 9,
				"type": "channel",
				"subtype": "noteOff",
				"noteNumber": 36,
				"velocity": 64
			},
			{
				"deltaTime": 85,
				"channel": 9,
				"type": "channel",
				"noteNumber": 36,
				"velocity": 98,
				"subtype": "noteOn"
			},
			{
				"deltaTime": 0,
				"channel": 9,
				"type": "channel",
				"noteNumber": 42,
				"velocity": 127,
				"subtype": "noteOn"
			},
			{
				"deltaTime": 60,
				"channel": 9,
				"type": "channel",
				"subtype": "noteOff",
				"noteNumber": 42,
				"velocity": 64
			},
			{
				"deltaTime": 190,
				"channel": 9,
				"type": "channel",
				"subtype": "noteOff",
				"noteNumber": 36,
				"velocity": 64
			},
			{
				"deltaTime": 68,
				"channel": 9,
				"type": "channel",
				"noteNumber": 42,
				"velocity": 127,
				"subtype": "noteOn"
			},
			{
				"deltaTime": 55,
				"channel": 9,
				"type": "channel",
				"subtype": "noteOff",
				"noteNumber": 42,
				"velocity": 64
			},
			{
				"deltaTime": 114,
				"channel": 9,
				"type": "channel",
				"noteNumber": 40,
				"velocity": 127,
				"subtype": "noteOn"
			},
			{
				"deltaTime": 0,
				"channel": 9,
				"type": "channel",
				"noteNumber": 42,
				"velocity": 127,
				"subtype": "noteOn"
			},
			{
				"deltaTime": 75,
				"channel": 9,
				"type": "channel",
				"subtype": "noteOff",
				"noteNumber": 42,
				"velocity": 64
			},
			{
				"deltaTime": 170,
				"channel": 9,
				"type": "channel",
				"subtype": "noteOff",
				"noteNumber": 40,
				"velocity": 64
			},
			{
				"deltaTime": 58,
				"channel": 9,
				"type": "channel",
				"noteNumber": 36,
				"velocity": 76,
				"subtype": "noteOn"
			},
			{
				"deltaTime": 0,
				"channel": 9,
				"type": "channel",
				"noteNumber": 42,
				"velocity": 127,
				"subtype": "noteOn"
			},
			{
				"deltaTime": 65,
				"channel": 9,
				"type": "channel",
				"subtype": "noteOff",
				"noteNumber": 42,
				"velocity": 64
			},
			{
				"deltaTime": 15,
				"channel": 9,
				"type": "channel",
				"subtype": "noteOff",
				"noteNumber": 36,
				"velocity": 64
			},
			{
				"deltaTime": 89,
				"channel": 9,
				"type": "channel",
				"noteNumber": 36,
				"velocity": 98,
				"subtype": "noteOn"
			},
			{
				"deltaTime": 0,
				"channel": 9,
				"type": "channel",
				"noteNumber": 42,
				"velocity": 127,
				"subtype": "noteOn"
			},
			{
				"deltaTime": 70,
				"channel": 9,
				"type": "channel",
				"subtype": "noteOff",
				"noteNumber": 42,
				"velocity": 64
			},
			{
				"deltaTime": 115,
				"channel": 9,
				"type": "channel",
				"subtype": "noteOff",
				"noteNumber": 36,
				"velocity": 64
			},
			{
				"deltaTime": 136,
				"channel": 9,
				"type": "channel",
				"noteNumber": 36,
				"velocity": 85,
				"subtype": "noteOn"
			},
			{
				"deltaTime": 0,
				"channel": 9,
				"type": "channel",
				"noteNumber": 42,
				"velocity": 127,
				"subtype": "noteOn"
			},
			{
				"deltaTime": 55,
				"channel": 9,
				"type": "channel",
				"subtype": "noteOff",
				"noteNumber": 42,
				"velocity": 64
			},
			{
				"deltaTime": 65,
				"channel": 9,
				"type": "channel",
				"subtype": "noteOff",
				"noteNumber": 36,
				"velocity": 64
			},
			{
				"deltaTime": 43,
				"channel": 9,
				"type": "channel",
				"noteNumber": 40,
				"velocity": 127,
				"subtype": "noteOn"
			},
			{
				"deltaTime": 0,
				"channel": 9,
				"type": "channel",
				"noteNumber": 42,
				"velocity": 127,
				"subtype": "noteOn"
			},
			{
				"deltaTime": 115,
				"channel": 9,
				"type": "channel",
				"subtype": "noteOff",
				"noteNumber": 42,
				"velocity": 64
			},
			{
				"deltaTime": 202,
				"channel": 9,
				"type": "channel",
				"noteNumber": 36,
				"velocity": 93,
				"subtype": "noteOn"
			},
			{
				"deltaTime": 0,
				"channel": 9,
				"type": "channel",
				"noteNumber": 46,
				"velocity": 119,
				"subtype": "noteOn"
			},
			{
				"deltaTime": 3,
				"channel": 9,
				"type": "channel",
				"subtype": "noteOff",
				"noteNumber": 40,
				"velocity": 64
			},
			{
				"deltaTime": 82,
				"channel": 9,
				"type": "channel",
				"subtype": "noteOff",
				"noteNumber": 36,
				"velocity": 64
			},
			{
				"deltaTime": 65,
				"channel": 9,
				"type": "channel",
				"subtype": "noteOff",
				"noteNumber": 46,
				"velocity": 64
			},
			{
				"deltaTime": 10,
				"channel": 9,
				"type": "channel",
				"noteNumber": 36,
				"velocity": 107,
				"subtype": "noteOn"
			},
			{
				"deltaTime": 0,
				"channel": 9,
				"type": "channel",
				"noteNumber": 42,
				"velocity": 119,
				"subtype": "noteOn"
			},
			{
				"deltaTime": 0,
				"channel": 9,
				"type": "channel",
				"noteNumber": 49,
				"velocity": 76,
				"subtype": "noteOn"
			},
			{
				"deltaTime": 45,
				"channel": 9,
				"type": "channel",
				"subtype": "noteOff",
				"noteNumber": 49,
				"velocity": 64
			},
			{
				"deltaTime": 30,
				"channel": 9,
				"type": "channel",
				"subtype": "noteOff",
				"noteNumber": 42,
				"velocity": 64
			},
			{
				"deltaTime": 155,
				"channel": 9,
				"type": "channel",
				"subtype": "noteOff",
				"noteNumber": 36,
				"velocity": 64
			},
			{
				"deltaTime": 88,
				"channel": 9,
				"type": "channel",
				"noteNumber": 42,
				"velocity": 127,
				"subtype": "noteOn"
			},
			{
				"deltaTime": 55,
				"channel": 9,
				"type": "channel",
				"subtype": "noteOff",
				"noteNumber": 42,
				"velocity": 64
			},
			{
				"deltaTime": 114,
				"channel": 9,
				"type": "channel",
				"noteNumber": 40,
				"velocity": 127,
				"subtype": "noteOn"
			},
			{
				"deltaTime": 0,
				"channel": 9,
				"type": "channel",
				"noteNumber": 42,
				"velocity": 127,
				"subtype": "noteOn"
			},
			{
				"deltaTime": 80,
				"channel": 9,
				"type": "channel",
				"subtype": "noteOff",
				"noteNumber": 42,
				"velocity": 64
			},
			{
				"deltaTime": 170,
				"channel": 9,
				"type": "channel",
				"subtype": "noteOff",
				"noteNumber": 40,
				"velocity": 64
			},
			{
				"deltaTime": 53,
				"channel": 9,
				"type": "channel",
				"noteNumber": 36,
				"velocity": 98,
				"subtype": "noteOn"
			},
			{
				"deltaTime": 0,
				"channel": 9,
				"type": "channel",
				"noteNumber": 42,
				"velocity": 127,
				"subtype": "noteOn"
			},
			{
				"deltaTime": 55,
				"channel": 9,
				"type": "channel",
				"subtype": "noteOff",
				"noteNumber": 42,
				"velocity": 64
			},
			{
				"deltaTime": 20,
				"channel": 9,
				"type": "channel",
				"subtype": "noteOff",
				"noteNumber": 36,
				"velocity": 64
			},
			{
				"deltaTime": 94,
				"channel": 9,
				"type": "channel",
				"noteNumber": 36,
				"velocity": 107,
				"subtype": "noteOn"
			},
			{
				"deltaTime": 0,
				"channel": 9,
				"type": "channel",
				"noteNumber": 42,
				"velocity": 127,
				"subtype": "noteOn"
			},
			{
				"deltaTime": 70,
				"channel": 9,
				"type": "channel",
				"subtype": "noteOff",
				"noteNumber": 42,
				"velocity": 64
			},
			{
				"deltaTime": 105,
				"channel": 9,
				"type": "channel",
				"subtype": "noteOff",
				"noteNumber": 36,
				"velocity": 64
			},
			{
				"deltaTime": 146,
				"channel": 9,
				"type": "channel",
				"noteNumber": 42,
				"velocity": 127,
				"subtype": "noteOn"
			},
			{
				"deltaTime": 60,
				"channel": 9,
				"type": "channel",
				"subtype": "noteOff",
				"noteNumber": 42,
				"velocity": 64
			},
			{
				"deltaTime": 103,
				"channel": 9,
				"type": "channel",
				"noteNumber": 40,
				"velocity": 127,
				"subtype": "noteOn"
			},
			{
				"deltaTime": 0,
				"channel": 9,
				"type": "channel",
				"noteNumber": 42,
				"velocity": 127,
				"subtype": "noteOn"
			},
			{
				"deltaTime": 105,
				"channel": 9,
				"type": "channel",
				"subtype": "noteOff",
				"noteNumber": 42,
				"velocity": 64
			},
			{
				"deltaTime": 160,
				"channel": 9,
				"type": "channel",
				"subtype": "noteOff",
				"noteNumber": 40,
				"velocity": 64
			},
			{
				"deltaTime": 52,
				"channel": 9,
				"type": "channel",
				"noteNumber": 36,
				"velocity": 93,
				"subtype": "noteOn"
			},
			{
				"deltaTime": 0,
				"channel": 9,
				"type": "channel",
				"noteNumber": 46,
				"velocity": 119,
				"subtype": "noteOn"
			},
			{
				"deltaTime": 75,
				"channel": 9,
				"type": "channel",
				"subtype": "noteOff",
				"noteNumber": 36,
				"velocity": 64
			},
			{
				"deltaTime": 85,
				"channel": 9,
				"type": "channel",
				"subtype": "noteOff",
				"noteNumber": 46,
				"velocity": 64
			},
			{
				"deltaTime": 0,
				"channel": 9,
				"type": "channel",
				"noteNumber": 36,
				"velocity": 102,
				"subtype": "noteOn"
			},
			{
				"deltaTime": 0,
				"channel": 9,
				"type": "channel",
				"noteNumber": 42,
				"velocity": 127,
				"subtype": "noteOn"
			},
			{
				"deltaTime": 70,
				"channel": 9,
				"type": "channel",
				"subtype": "noteOff",
				"noteNumber": 42,
				"velocity": 64
			},
			{
				"deltaTime": 150,
				"channel": 9,
				"type": "channel",
				"subtype": "noteOff",
				"noteNumber": 36,
				"velocity": 64
			},
			{
				"deltaTime": 98,
				"channel": 9,
				"type": "channel",
				"noteNumber": 42,
				"velocity": 127,
				"subtype": "noteOn"
			},
			{
				"deltaTime": 55,
				"channel": 9,
				"type": "channel",
				"subtype": "noteOff",
				"noteNumber": 42,
				"velocity": 64
			},
			{
				"deltaTime": 114,
				"channel": 9,
				"type": "channel",
				"noteNumber": 40,
				"velocity": 127,
				"subtype": "noteOn"
			},
			{
				"deltaTime": 0,
				"channel": 9,
				"type": "channel",
				"noteNumber": 42,
				"velocity": 127,
				"subtype": "noteOn"
			},
			{
				"deltaTime": 65,
				"channel": 9,
				"type": "channel",
				"subtype": "noteOff",
				"noteNumber": 42,
				"velocity": 64
			},
			{
				"deltaTime": 155,
				"channel": 9,
				"type": "channel",
				"subtype": "noteOff",
				"noteNumber": 40,
				"velocity": 64
			},
			{
				"deltaTime": 83,
				"channel": 9,
				"type": "channel",
				"noteNumber": 36,
				"velocity": 102,
				"subtype": "noteOn"
			},
			{
				"deltaTime": 0,
				"channel": 9,
				"type": "channel",
				"noteNumber": 42,
				"velocity": 127,
				"subtype": "noteOn"
			},
			{
				"deltaTime": 60,
				"channel": 9,
				"type": "channel",
				"subtype": "noteOff",
				"noteNumber": 42,
				"velocity": 64
			},
			{
				"deltaTime": 25,
				"channel": 9,
				"type": "channel",
				"subtype": "noteOff",
				"noteNumber": 36,
				"velocity": 64
			},
			{
				"deltaTime": 84,
				"channel": 9,
				"type": "channel",
				"noteNumber": 36,
				"velocity": 93,
				"subtype": "noteOn"
			},
			{
				"deltaTime": 0,
				"channel": 9,
				"type": "channel",
				"noteNumber": 42,
				"velocity": 127,
				"subtype": "noteOn"
			},
			{
				"deltaTime": 65,
				"channel": 9,
				"type": "channel",
				"subtype": "noteOff",
				"noteNumber": 42,
				"velocity": 64
			},
			{
				"deltaTime": 50,
				"channel": 9,
				"type": "channel",
				"subtype": "noteOff",
				"noteNumber": 36,
				"velocity": 64
			},
			{
				"deltaTime": 206,
				"channel": 9,
				"type": "channel",
				"noteNumber": 36,
				"velocity": 102,
				"subtype": "noteOn"
			},
			{
				"deltaTime": 0,
				"channel": 9,
				"type": "channel",
				"noteNumber": 42,
				"velocity": 127,
				"subtype": "noteOn"
			},
			{
				"deltaTime": 55,
				"channel": 9,
				"type": "channel",
				"subtype": "noteOff",
				"noteNumber": 42,
				"velocity": 64
			},
			{
				"deltaTime": 35,
				"channel": 9,
				"type": "channel",
				"subtype": "noteOff",
				"noteNumber": 36,
				"velocity": 64
			},
			{
				"deltaTime": 73,
				"channel": 9,
				"type": "channel",
				"noteNumber": 40,
				"velocity": 127,
				"subtype": "noteOn"
			},
			{
				"deltaTime": 0,
				"channel": 9,
				"type": "channel",
				"noteNumber": 42,
				"velocity": 127,
				"subtype": "noteOn"
			},
			{
				"deltaTime": 70,
				"channel": 9,
				"type": "channel",
				"subtype": "noteOff",
				"noteNumber": 42,
				"velocity": 64
			},
			{
				"deltaTime": 200,
				"channel": 9,
				"type": "channel",
				"subtype": "noteOff",
				"noteNumber": 40,
				"velocity": 64
			},
			{
				"deltaTime": 47,
				"channel": 9,
				"type": "channel",
				"noteNumber": 36,
				"velocity": 102,
				"subtype": "noteOn"
			},
			{
				"deltaTime": 0,
				"channel": 9,
				"type": "channel",
				"noteNumber": 42,
				"velocity": 127,
				"subtype": "noteOn"
			},
			{
				"deltaTime": 65,
				"channel": 9,
				"type": "channel",
				"subtype": "noteOff",
				"noteNumber": 42,
				"velocity": 64
			},
			{
				"deltaTime": 10,
				"channel": 9,
				"type": "channel",
				"subtype": "noteOff",
				"noteNumber": 36,
				"velocity": 64
			},
			{
				"deltaTime": 85,
				"channel": 9,
				"type": "channel",
				"noteNumber": 36,
				"velocity": 113,
				"subtype": "noteOn"
			},
			{
				"deltaTime": 0,
				"channel": 9,
				"type": "channel",
				"noteNumber": 42,
				"velocity": 127,
				"subtype": "noteOn"
			},
			{
				"deltaTime": 65,
				"channel": 9,
				"type": "channel",
				"subtype": "noteOff",
				"noteNumber": 42,
				"velocity": 64
			},
			{
				"deltaTime": 95,
				"channel": 9,
				"type": "channel",
				"subtype": "noteOff",
				"noteNumber": 36,
				"velocity": 64
			},
			{
				"deltaTime": 158,
				"channel": 9,
				"type": "channel",
				"noteNumber": 42,
				"velocity": 127,
				"subtype": "noteOn"
			},
			{
				"deltaTime": 50,
				"channel": 9,
				"type": "channel",
				"subtype": "noteOff",
				"noteNumber": 42,
				"velocity": 64
			},
			{
				"deltaTime": 119,
				"channel": 9,
				"type": "channel",
				"noteNumber": 40,
				"velocity": 127,
				"subtype": "noteOn"
			},
			{
				"deltaTime": 0,
				"channel": 9,
				"type": "channel",
				"noteNumber": 42,
				"velocity": 127,
				"subtype": "noteOn"
			},
			{
				"deltaTime": 70,
				"channel": 9,
				"type": "channel",
				"subtype": "noteOff",
				"noteNumber": 42,
				"velocity": 64
			},
			{
				"deltaTime": 210,
				"channel": 9,
				"type": "channel",
				"subtype": "noteOff",
				"noteNumber": 40,
				"velocity": 64
			},
			{
				"deltaTime": 23,
				"channel": 9,
				"type": "channel",
				"noteNumber": 36,
				"velocity": 98,
				"subtype": "noteOn"
			},
			{
				"deltaTime": 0,
				"channel": 9,
				"type": "channel",
				"noteNumber": 42,
				"velocity": 127,
				"subtype": "noteOn"
			},
			{
				"deltaTime": 60,
				"channel": 9,
				"type": "channel",
				"subtype": "noteOff",
				"noteNumber": 42,
				"velocity": 64
			},
			{
				"deltaTime": 35,
				"channel": 9,
				"type": "channel",
				"subtype": "noteOff",
				"noteNumber": 36,
				"velocity": 64
			},
			{
				"deltaTime": 74,
				"channel": 9,
				"type": "channel",
				"noteNumber": 36,
				"velocity": 102,
				"subtype": "noteOn"
			},
			{
				"deltaTime": 0,
				"channel": 9,
				"type": "channel",
				"noteNumber": 42,
				"velocity": 127,
				"subtype": "noteOn"
			},
			{
				"deltaTime": 80,
				"channel": 9,
				"type": "channel",
				"subtype": "noteOff",
				"noteNumber": 42,
				"velocity": 64
			},
			{
				"deltaTime": 135,
				"channel": 9,
				"type": "channel",
				"subtype": "noteOff",
				"noteNumber": 36,
				"velocity": 64
			},
			{
				"deltaTime": 106,
				"channel": 9,
				"type": "channel",
				"noteNumber": 42,
				"velocity": 127,
				"subtype": "noteOn"
			},
			{
				"deltaTime": 55,
				"channel": 9,
				"type": "channel",
				"subtype": "noteOff",
				"noteNumber": 42,
				"velocity": 64
			},
			{
				"deltaTime": 108,
				"channel": 9,
				"type": "channel",
				"noteNumber": 40,
				"velocity": 127,
				"subtype": "noteOn"
			},
			{
				"deltaTime": 0,
				"channel": 9,
				"type": "channel",
				"noteNumber": 42,
				"velocity": 127,
				"subtype": "noteOn"
			},
			{
				"deltaTime": 75,
				"channel": 9,
				"type": "channel",
				"subtype": "noteOff",
				"noteNumber": 42,
				"velocity": 64
			},
			{
				"deltaTime": 205,
				"channel": 9,
				"type": "channel",
				"subtype": "noteOff",
				"noteNumber": 40,
				"velocity": 64
			},
			{
				"deltaTime": 37,
				"channel": 9,
				"type": "channel",
				"noteNumber": 36,
				"velocity": 98,
				"subtype": "noteOn"
			},
			{
				"deltaTime": 0,
				"channel": 9,
				"type": "channel",
				"noteNumber": 42,
				"velocity": 127,
				"subtype": "noteOn"
			},
			{
				"deltaTime": 65,
				"channel": 9,
				"type": "channel",
				"subtype": "noteOff",
				"noteNumber": 42,
				"velocity": 64
			},
			{
				"deltaTime": 20,
				"channel": 9,
				"type": "channel",
				"subtype": "noteOff",
				"noteNumber": 36,
				"velocity": 64
			},
			{
				"deltaTime": 75,
				"channel": 9,
				"type": "channel",
				"noteNumber": 36,
				"velocity": 102,
				"subtype": "noteOn"
			},
			{
				"deltaTime": 0,
				"channel": 9,
				"type": "channel",
				"noteNumber": 42,
				"velocity": 127,
				"subtype": "noteOn"
			},
			{
				"deltaTime": 70,
				"channel": 9,
				"type": "channel",
				"subtype": "noteOff",
				"noteNumber": 42,
				"velocity": 64
			},
			{
				"deltaTime": 248,
				"channel": 9,
				"type": "channel",
				"noteNumber": 42,
				"velocity": 127,
				"subtype": "noteOn"
			},
			{
				"deltaTime": 60,
				"channel": 9,
				"type": "channel",
				"subtype": "noteOff",
				"noteNumber": 42,
				"velocity": 64
			},
			{
				"deltaTime": 109,
				"channel": 9,
				"type": "channel",
				"noteNumber": 40,
				"velocity": 127,
				"subtype": "noteOn"
			},
			{
				"deltaTime": 0,
				"channel": 9,
				"type": "channel",
				"noteNumber": 42,
				"velocity": 127,
				"subtype": "noteOn"
			},
			{
				"deltaTime": 33,
				"channel": 9,
				"type": "channel",
				"subtype": "noteOff",
				"noteNumber": 36,
				"velocity": 64
			},
			{
				"deltaTime": 52,
				"channel": 9,
				"type": "channel",
				"subtype": "noteOff",
				"noteNumber": 42,
				"velocity": 64
			},
			{
				"deltaTime": 218,
				"channel": 9,
				"type": "channel",
				"noteNumber": 36,
				"velocity": 85,
				"subtype": "noteOn"
			},
			{
				"deltaTime": 0,
				"channel": 9,
				"type": "channel",
				"noteNumber": 42,
				"velocity": 127,
				"subtype": "noteOn"
			},
			{
				"deltaTime": 45,
				"channel": 9,
				"type": "channel",
				"subtype": "noteOff",
				"noteNumber": 36,
				"velocity": 64
			},
			{
				"deltaTime": 15,
				"channel": 9,
				"type": "channel",
				"subtype": "noteOff",
				"noteNumber": 42,
				"velocity": 64
			},
			{
				"deltaTime": 102,
				"channel": 9,
				"type": "channel",
				"subtype": "noteOff",
				"noteNumber": 40,
				"velocity": 64
			},
			{
				"deltaTime": 7,
				"channel": 9,
				"type": "channel",
				"noteNumber": 36,
				"velocity": 93,
				"subtype": "noteOn"
			},
			{
				"deltaTime": 0,
				"channel": 9,
				"type": "channel",
				"noteNumber": 42,
				"velocity": 127,
				"subtype": "noteOn"
			},
			{
				"deltaTime": 80,
				"channel": 9,
				"type": "channel",
				"subtype": "noteOff",
				"noteNumber": 42,
				"velocity": 64
			},
			{
				"deltaTime": 74,
				"channel": 9,
				"type": "channel",
				"noteNumber": 40,
				"velocity": 127,
				"subtype": "noteOn"
			},
			{
				"deltaTime": 41,
				"channel": 9,
				"type": "channel",
				"subtype": "noteOff",
				"noteNumber": 36,
				"velocity": 64
			},
			{
				"deltaTime": 104,
				"channel": 9,
				"type": "channel",
				"subtype": "noteOff",
				"noteNumber": 40,
				"velocity": 64
			},
			{
				"deltaTime": 22,
				"channel": 9,
				"type": "channel",
				"noteNumber": 36,
				"velocity": 76,
				"subtype": "noteOn"
			},
			{
				"deltaTime": 0,
				"channel": 9,
				"type": "channel",
				"noteNumber": 42,
				"velocity": 127,
				"subtype": "noteOn"
			},
			{
				"deltaTime": 60,
				"channel": 9,
				"type": "channel",
				"subtype": "noteOff",
				"noteNumber": 42,
				"velocity": 64
			},
			{
				"deltaTime": 103,
				"channel": 9,
				"type": "channel",
				"noteNumber": 40,
				"velocity": 127,
				"subtype": "noteOn"
			},
			{
				"deltaTime": 0,
				"channel": 9,
				"type": "channel",
				"noteNumber": 42,
				"velocity": 127,
				"subtype": "noteOn"
			},
			{
				"deltaTime": 7,
				"channel": 9,
				"type": "channel",
				"subtype": "noteOff",
				"noteNumber": 36,
				"velocity": 64
			},
			{
				"deltaTime": 103,
				"channel": 9,
				"type": "channel",
				"subtype": "noteOff",
				"noteNumber": 42,
				"velocity": 64
			},
			{
				"deltaTime": 47,
				"channel": 9,
				"type": "channel",
				"noteNumber": 36,
				"velocity": 107,
				"subtype": "noteOn"
			},
			{
				"deltaTime": 73,
				"channel": 9,
				"type": "channel",
				"subtype": "noteOff",
				"noteNumber": 40,
				"velocity": 64
			},
			{
				"deltaTime": 27,
				"channel": 9,
				"type": "channel",
				"subtype": "noteOff",
				"noteNumber": 36,
				"velocity": 64
			},
			{
				"deltaTime": 60,
				"channel": 9,
				"type": "channel",
				"noteNumber": 36,
				"velocity": 107,
				"subtype": "noteOn"
			},
			{
				"deltaTime": 0,
				"channel": 9,
				"type": "channel",
				"noteNumber": 46,
				"velocity": 127,
				"subtype": "noteOn"
			},
			{
				"deltaTime": 90,
				"channel": 9,
				"type": "channel",
				"subtype": "noteOff",
				"noteNumber": 36,
				"velocity": 64
			},
			{
				"deltaTime": 40,
				"channel": 9,
				"type": "channel",
				"subtype": "noteOff",
				"noteNumber": 46,
				"velocity": 64
			},
			{
				"deltaTime": 30,
				"channel": 9,
				"type": "channel",
				"noteNumber": 36,
				"velocity": 113,
				"subtype": "noteOn"
			},
			{
				"deltaTime": 0,
				"channel": 9,
				"type": "channel",
				"noteNumber": 42,
				"velocity": 127,
				"subtype": "noteOn"
			},
			{
				"deltaTime": 0,
				"channel": 9,
				"type": "channel",
				"noteNumber": 57,
				"velocity": 107,
				"subtype": "noteOn"
			},
			{
				"deltaTime": 30,
				"channel": 9,
				"type": "channel",
				"subtype": "noteOff",
				"noteNumber": 57,
				"velocity": 64
			},
			{
				"deltaTime": 10,
				"channel": 9,
				"type": "channel",
				"subtype": "noteOff",
				"noteNumber": 42,
				"velocity": 64
			},
			{
				"deltaTime": 278,
				"channel": 9,
				"type": "channel",
				"noteNumber": 42,
				"velocity": 127,
				"subtype": "noteOn"
			},
			{
				"deltaTime": 45,
				"channel": 9,
				"type": "channel",
				"subtype": "noteOff",
				"noteNumber": 42,
				"velocity": 64
			},
			{
				"deltaTime": 124,
				"channel": 9,
				"type": "channel",
				"noteNumber": 40,
				"velocity": 127,
				"subtype": "noteOn"
			},
			{
				"deltaTime": 0,
				"channel": 9,
				"type": "channel",
				"noteNumber": 42,
				"velocity": 127,
				"subtype": "noteOn"
			},
			{
				"deltaTime": 60,
				"channel": 9,
				"type": "channel",
				"subtype": "noteOff",
				"noteNumber": 42,
				"velocity": 64
			},
			{
				"deltaTime": 93,
				"channel": 9,
				"type": "channel",
				"subtype": "noteOff",
				"noteNumber": 36,
				"velocity": 64
			},
			{
				"deltaTime": 150,
				"channel": 9,
				"type": "channel",
				"noteNumber": 36,
				"velocity": 80,
				"subtype": "noteOn"
			},
			{
				"deltaTime": 0,
				"channel": 9,
				"type": "channel",
				"noteNumber": 42,
				"velocity": 127,
				"subtype": "noteOn"
			},
			{
				"deltaTime": 35,
				"channel": 9,
				"type": "channel",
				"subtype": "noteOff",
				"noteNumber": 42,
				"velocity": 64
			},
			{
				"deltaTime": 2,
				"channel": 9,
				"type": "channel",
				"subtype": "noteOff",
				"noteNumber": 40,
				"velocity": 64
			},
			{
				"deltaTime": 43,
				"channel": 9,
				"type": "channel",
				"subtype": "noteOff",
				"noteNumber": 36,
				"velocity": 64
			},
			{
				"deltaTime": 89,
				"channel": 9,
				"type": "channel",
				"noteNumber": 36,
				"velocity": 113,
				"subtype": "noteOn"
			},
			{
				"deltaTime": 0,
				"channel": 9,
				"type": "channel",
				"noteNumber": 42,
				"velocity": 127,
				"subtype": "noteOn"
			},
			{
				"deltaTime": 60,
				"channel": 9,
				"type": "channel",
				"subtype": "noteOff",
				"noteNumber": 42,
				"velocity": 64
			},
			{
				"deltaTime": 261,
				"channel": 9,
				"type": "channel",
				"noteNumber": 42,
				"velocity": 127,
				"subtype": "noteOn"
			},
			{
				"deltaTime": 45,
				"channel": 9,
				"type": "channel",
				"subtype": "noteOff",
				"noteNumber": 42,
				"velocity": 64
			},
			{
				"deltaTime": 118,
				"channel": 9,
				"type": "channel",
				"noteNumber": 40,
				"velocity": 127,
				"subtype": "noteOn"
			},
			{
				"deltaTime": 0,
				"channel": 9,
				"type": "channel",
				"noteNumber": 42,
				"velocity": 127,
				"subtype": "noteOn"
			},
			{
				"deltaTime": 130,
				"channel": 9,
				"type": "channel",
				"subtype": "noteOff",
				"noteNumber": 42,
				"velocity": 64
			},
			{
				"deltaTime": 36,
				"channel": 9,
				"type": "channel",
				"subtype": "noteOff",
				"noteNumber": 36,
				"velocity": 64
			},
			{
				"deltaTime": 151,
				"channel": 9,
				"type": "channel",
				"noteNumber": 36,
				"velocity": 98,
				"subtype": "noteOn"
			},
			{
				"deltaTime": 0,
				"channel": 9,
				"type": "channel",
				"noteNumber": 46,
				"velocity": 127,
				"subtype": "noteOn"
			},
			{
				"deltaTime": 60,
				"channel": 9,
				"type": "channel",
				"subtype": "noteOff",
				"noteNumber": 36,
				"velocity": 64
			},
			{
				"deltaTime": 38,
				"channel": 9,
				"type": "channel",
				"subtype": "noteOff",
				"noteNumber": 40,
				"velocity": 64
			},
			{
				"deltaTime": 57,
				"channel": 9,
				"type": "channel",
				"subtype": "noteOff",
				"noteNumber": 46,
				"velocity": 64
			},
			{
				"deltaTime": 5,
				"channel": 9,
				"type": "channel",
				"noteNumber": 36,
				"velocity": 107,
				"subtype": "noteOn"
			},
			{
				"deltaTime": 0,
				"channel": 9,
				"type": "channel",
				"noteNumber": 42,
				"velocity": 113,
				"subtype": "noteOn"
			},
			{
				"deltaTime": 75,
				"channel": 9,
				"type": "channel",
				"subtype": "noteOff",
				"noteNumber": 42,
				"velocity": 64
			},
			{
				"deltaTime": 243,
				"channel": 9,
				"type": "channel",
				"noteNumber": 42,
				"velocity": 127,
				"subtype": "noteOn"
			},
			{
				"deltaTime": 55,
				"channel": 9,
				"type": "channel",
				"subtype": "noteOff",
				"noteNumber": 42,
				"velocity": 64
			},
			{
				"deltaTime": 114,
				"channel": 9,
				"type": "channel",
				"noteNumber": 40,
				"velocity": 127,
				"subtype": "noteOn"
			},
			{
				"deltaTime": 0,
				"channel": 9,
				"type": "channel",
				"noteNumber": 42,
				"velocity": 127,
				"subtype": "noteOn"
			},
			{
				"deltaTime": 55,
				"channel": 9,
				"type": "channel",
				"subtype": "noteOff",
				"noteNumber": 42,
				"velocity": 64
			},
			{
				"deltaTime": 83,
				"channel": 9,
				"type": "channel",
				"subtype": "noteOff",
				"noteNumber": 36,
				"velocity": 64
			},
			{
				"deltaTime": 165,
				"channel": 9,
				"type": "channel",
				"noteNumber": 36,
				"velocity": 98,
				"subtype": "noteOn"
			},
			{
				"deltaTime": 0,
				"channel": 9,
				"type": "channel",
				"noteNumber": 42,
				"velocity": 127,
				"subtype": "noteOn"
			},
			{
				"deltaTime": 32,
				"channel": 9,
				"type": "channel",
				"subtype": "noteOff",
				"noteNumber": 40,
				"velocity": 64
			},
			{
				"deltaTime": 23,
				"channel": 9,
				"type": "channel",
				"subtype": "noteOff",
				"noteNumber": 42,
				"velocity": 64
			},
			{
				"deltaTime": 15,
				"channel": 9,
				"type": "channel",
				"subtype": "noteOff",
				"noteNumber": 36,
				"velocity": 64
			},
			{
				"deltaTime": 99,
				"channel": 9,
				"type": "channel",
				"noteNumber": 36,
				"velocity": 107,
				"subtype": "noteOn"
			},
			{
				"deltaTime": 0,
				"channel": 9,
				"type": "channel",
				"noteNumber": 42,
				"velocity": 127,
				"subtype": "noteOn"
			},
			{
				"deltaTime": 60,
				"channel": 9,
				"type": "channel",
				"subtype": "noteOff",
				"noteNumber": 42,
				"velocity": 64
			},
			{
				"deltaTime": 130,
				"channel": 9,
				"type": "channel",
				"subtype": "noteOff",
				"noteNumber": 36,
				"velocity": 64
			},
			{
				"deltaTime": 131,
				"channel": 9,
				"type": "channel",
				"noteNumber": 36,
				"velocity": 64,
				"subtype": "noteOn"
			},
			{
				"deltaTime": 0,
				"channel": 9,
				"type": "channel",
				"noteNumber": 42,
				"velocity": 127,
				"subtype": "noteOn"
			},
			{
				"deltaTime": 55,
				"channel": 9,
				"type": "channel",
				"subtype": "noteOff",
				"noteNumber": 42,
				"velocity": 64
			},
			{
				"deltaTime": 108,
				"channel": 9,
				"type": "channel",
				"noteNumber": 40,
				"velocity": 127,
				"subtype": "noteOn"
			},
			{
				"deltaTime": 0,
				"channel": 9,
				"type": "channel",
				"noteNumber": 42,
				"velocity": 127,
				"subtype": "noteOn"
			},
			{
				"deltaTime": 115,
				"channel": 9,
				"type": "channel",
				"subtype": "noteOff",
				"noteNumber": 42,
				"velocity": 64
			},
			{
				"deltaTime": 17,
				"channel": 9,
				"type": "channel",
				"subtype": "noteOff",
				"noteNumber": 36,
				"velocity": 64
			},
			{
				"deltaTime": 185,
				"channel": 9,
				"type": "channel",
				"noteNumber": 36,
				"velocity": 93,
				"subtype": "noteOn"
			},
			{
				"deltaTime": 0,
				"channel": 9,
				"type": "channel",
				"noteNumber": 46,
				"velocity": 119,
				"subtype": "noteOn"
			},
			{
				"deltaTime": 33,
				"channel": 9,
				"type": "channel",
				"subtype": "noteOff",
				"noteNumber": 40,
				"velocity": 64
			},
			{
				"deltaTime": 52,
				"channel": 9,
				"type": "channel",
				"subtype": "noteOff",
				"noteNumber": 36,
				"velocity": 64
			},
			{
				"deltaTime": 75,
				"channel": 9,
				"type": "channel",
				"subtype": "noteOff",
				"noteNumber": 46,
				"velocity": 64
			},
			{
				"deltaTime": 0,
				"channel": 9,
				"type": "channel",
				"noteNumber": 36,
				"velocity": 102,
				"subtype": "noteOn"
			},
			{
				"deltaTime": 0,
				"channel": 9,
				"type": "channel",
				"noteNumber": 42,
				"velocity": 119,
				"subtype": "noteOn"
			},
			{
				"deltaTime": 70,
				"channel": 9,
				"type": "channel",
				"subtype": "noteOff",
				"noteNumber": 42,
				"velocity": 64
			},
			{
				"deltaTime": 248,
				"channel": 9,
				"type": "channel",
				"noteNumber": 42,
				"velocity": 127,
				"subtype": "noteOn"
			},
			{
				"deltaTime": 60,
				"channel": 9,
				"type": "channel",
				"subtype": "noteOff",
				"noteNumber": 42,
				"velocity": 64
			},
			{
				"deltaTime": 109,
				"channel": 9,
				"type": "channel",
				"noteNumber": 40,
				"velocity": 127,
				"subtype": "noteOn"
			},
			{
				"deltaTime": 0,
				"channel": 9,
				"type": "channel",
				"noteNumber": 42,
				"velocity": 127,
				"subtype": "noteOn"
			},
			{
				"deltaTime": 60,
				"channel": 9,
				"type": "channel",
				"subtype": "noteOff",
				"noteNumber": 42,
				"velocity": 64
			},
			{
				"deltaTime": 18,
				"channel": 9,
				"type": "channel",
				"subtype": "noteOff",
				"noteNumber": 36,
				"velocity": 64
			},
			{
				"deltaTime": 182,
				"channel": 9,
				"type": "channel",
				"subtype": "noteOff",
				"noteNumber": 40,
				"velocity": 64
			},
			{
				"deltaTime": 43,
				"channel": 9,
				"type": "channel",
				"noteNumber": 36,
				"velocity": 102,
				"subtype": "noteOn"
			},
			{
				"deltaTime": 0,
				"channel": 9,
				"type": "channel",
				"noteNumber": 42,
				"velocity": 127,
				"subtype": "noteOn"
			},
			{
				"deltaTime": 50,
				"channel": 9,
				"type": "channel",
				"subtype": "noteOff",
				"noteNumber": 42,
				"velocity": 64
			},
			{
				"deltaTime": 25,
				"channel": 9,
				"type": "channel",
				"subtype": "noteOff",
				"noteNumber": 36,
				"velocity": 64
			},
			{
				"deltaTime": 94,
				"channel": 9,
				"type": "channel",
				"noteNumber": 36,
				"velocity": 89,
				"subtype": "noteOn"
			},
			{
				"deltaTime": 0,
				"channel": 9,
				"type": "channel",
				"noteNumber": 42,
				"velocity": 127,
				"subtype": "noteOn"
			},
			{
				"deltaTime": 75,
				"channel": 9,
				"type": "channel",
				"subtype": "noteOff",
				"noteNumber": 42,
				"velocity": 64
			},
			{
				"deltaTime": 55,
				"channel": 9,
				"type": "channel",
				"subtype": "noteOff",
				"noteNumber": 36,
				"velocity": 64
			},
			{
				"deltaTime": 191,
				"channel": 9,
				"type": "channel",
				"noteNumber": 36,
				"velocity": 93,
				"subtype": "noteOn"
			},
			{
				"deltaTime": 0,
				"channel": 9,
				"type": "channel",
				"noteNumber": 42,
				"velocity": 127,
				"subtype": "noteOn"
			},
			{
				"deltaTime": 55,
				"channel": 9,
				"type": "channel",
				"subtype": "noteOff",
				"noteNumber": 42,
				"velocity": 64
			},
			{
				"deltaTime": 70,
				"channel": 9,
				"type": "channel",
				"subtype": "noteOff",
				"noteNumber": 36,
				"velocity": 64
			},
			{
				"deltaTime": 38,
				"channel": 9,
				"type": "channel",
				"noteNumber": 40,
				"velocity": 127,
				"subtype": "noteOn"
			},
			{
				"deltaTime": 0,
				"channel": 9,
				"type": "channel",
				"noteNumber": 42,
				"velocity": 127,
				"subtype": "noteOn"
			},
			{
				"deltaTime": 75,
				"channel": 9,
				"type": "channel",
				"subtype": "noteOff",
				"noteNumber": 42,
				"velocity": 64
			},
			{
				"deltaTime": 242,
				"channel": 9,
				"type": "channel",
				"noteNumber": 36,
				"velocity": 98,
				"subtype": "noteOn"
			},
			{
				"deltaTime": 0,
				"channel": 9,
				"type": "channel",
				"noteNumber": 42,
				"velocity": 127,
				"subtype": "noteOn"
			},
			{
				"deltaTime": 13,
				"channel": 9,
				"type": "channel",
				"subtype": "noteOff",
				"noteNumber": 40,
				"velocity": 64
			},
			{
				"deltaTime": 47,
				"channel": 9,
				"type": "channel",
				"subtype": "noteOff",
				"noteNumber": 42,
				"velocity": 64
			},
			{
				"deltaTime": 15,
				"channel": 9,
				"type": "channel",
				"subtype": "noteOff",
				"noteNumber": 36,
				"velocity": 64
			},
			{
				"deltaTime": 85,
				"channel": 9,
				"type": "channel",
				"noteNumber": 36,
				"velocity": 98,
				"subtype": "noteOn"
			},
			{
				"deltaTime": 0,
				"channel": 9,
				"type": "channel",
				"noteNumber": 42,
				"velocity": 127,
				"subtype": "noteOn"
			},
			{
				"deltaTime": 60,
				"channel": 9,
				"type": "channel",
				"subtype": "noteOff",
				"noteNumber": 42,
				"velocity": 64
			},
			{
				"deltaTime": 190,
				"channel": 9,
				"type": "channel",
				"subtype": "noteOff",
				"noteNumber": 36,
				"velocity": 64
			},
			{
				"deltaTime": 68,
				"channel": 9,
				"type": "channel",
				"noteNumber": 42,
				"velocity": 127,
				"subtype": "noteOn"
			},
			{
				"deltaTime": 55,
				"channel": 9,
				"type": "channel",
				"subtype": "noteOff",
				"noteNumber": 42,
				"velocity": 64
			},
			{
				"deltaTime": 114,
				"channel": 9,
				"type": "channel",
				"noteNumber": 40,
				"velocity": 127,
				"subtype": "noteOn"
			},
			{
				"deltaTime": 0,
				"channel": 9,
				"type": "channel",
				"noteNumber": 42,
				"velocity": 127,
				"subtype": "noteOn"
			},
			{
				"deltaTime": 75,
				"channel": 9,
				"type": "channel",
				"subtype": "noteOff",
				"noteNumber": 42,
				"velocity": 64
			},
			{
				"deltaTime": 170,
				"channel": 9,
				"type": "channel",
				"subtype": "noteOff",
				"noteNumber": 40,
				"velocity": 64
			},
			{
				"deltaTime": 58,
				"channel": 9,
				"type": "channel",
				"noteNumber": 36,
				"velocity": 76,
				"subtype": "noteOn"
			},
			{
				"deltaTime": 0,
				"channel": 9,
				"type": "channel",
				"noteNumber": 42,
				"velocity": 127,
				"subtype": "noteOn"
			},
			{
				"deltaTime": 65,
				"channel": 9,
				"type": "channel",
				"subtype": "noteOff",
				"noteNumber": 42,
				"velocity": 64
			},
			{
				"deltaTime": 15,
				"channel": 9,
				"type": "channel",
				"subtype": "noteOff",
				"noteNumber": 36,
				"velocity": 64
			},
			{
				"deltaTime": 89,
				"channel": 9,
				"type": "channel",
				"noteNumber": 36,
				"velocity": 98,
				"subtype": "noteOn"
			},
			{
				"deltaTime": 0,
				"channel": 9,
				"type": "channel",
				"noteNumber": 42,
				"velocity": 127,
				"subtype": "noteOn"
			},
			{
				"deltaTime": 70,
				"channel": 9,
				"type": "channel",
				"subtype": "noteOff",
				"noteNumber": 42,
				"velocity": 64
			},
			{
				"deltaTime": 115,
				"channel": 9,
				"type": "channel",
				"subtype": "noteOff",
				"noteNumber": 36,
				"velocity": 64
			},
			{
				"deltaTime": 136,
				"channel": 9,
				"type": "channel",
				"noteNumber": 36,
				"velocity": 85,
				"subtype": "noteOn"
			},
			{
				"deltaTime": 0,
				"channel": 9,
				"type": "channel",
				"noteNumber": 42,
				"velocity": 127,
				"subtype": "noteOn"
			},
			{
				"deltaTime": 55,
				"channel": 9,
				"type": "channel",
				"subtype": "noteOff",
				"noteNumber": 42,
				"velocity": 64
			},
			{
				"deltaTime": 65,
				"channel": 9,
				"type": "channel",
				"subtype": "noteOff",
				"noteNumber": 36,
				"velocity": 64
			},
			{
				"deltaTime": 43,
				"channel": 9,
				"type": "channel",
				"noteNumber": 40,
				"velocity": 127,
				"subtype": "noteOn"
			},
			{
				"deltaTime": 0,
				"channel": 9,
				"type": "channel",
				"noteNumber": 42,
				"velocity": 127,
				"subtype": "noteOn"
			},
			{
				"deltaTime": 115,
				"channel": 9,
				"type": "channel",
				"subtype": "noteOff",
				"noteNumber": 42,
				"velocity": 64
			},
			{
				"deltaTime": 202,
				"channel": 9,
				"type": "channel",
				"noteNumber": 36,
				"velocity": 93,
				"subtype": "noteOn"
			},
			{
				"deltaTime": 0,
				"channel": 9,
				"type": "channel",
				"noteNumber": 46,
				"velocity": 119,
				"subtype": "noteOn"
			},
			{
				"deltaTime": 3,
				"channel": 9,
				"type": "channel",
				"subtype": "noteOff",
				"noteNumber": 40,
				"velocity": 64
			},
			{
				"deltaTime": 82,
				"channel": 9,
				"type": "channel",
				"subtype": "noteOff",
				"noteNumber": 36,
				"velocity": 64
			},
			{
				"deltaTime": 65,
				"channel": 9,
				"type": "channel",
				"subtype": "noteOff",
				"noteNumber": 46,
				"velocity": 64
			},
			{
				"deltaTime": 10,
				"channel": 9,
				"type": "channel",
				"noteNumber": 36,
				"velocity": 107,
				"subtype": "noteOn"
			},
			{
				"deltaTime": 0,
				"channel": 9,
				"type": "channel",
				"noteNumber": 42,
				"velocity": 119,
				"subtype": "noteOn"
			},
			{
				"deltaTime": 0,
				"channel": 9,
				"type": "channel",
				"noteNumber": 49,
				"velocity": 76,
				"subtype": "noteOn"
			},
			{
				"deltaTime": 45,
				"channel": 9,
				"type": "channel",
				"subtype": "noteOff",
				"noteNumber": 49,
				"velocity": 64
			},
			{
				"deltaTime": 30,
				"channel": 9,
				"type": "channel",
				"subtype": "noteOff",
				"noteNumber": 42,
				"velocity": 64
			},
			{
				"deltaTime": 155,
				"channel": 9,
				"type": "channel",
				"subtype": "noteOff",
				"noteNumber": 36,
				"velocity": 64
			},
			{
				"deltaTime": 88,
				"channel": 9,
				"type": "channel",
				"noteNumber": 42,
				"velocity": 127,
				"subtype": "noteOn"
			},
			{
				"deltaTime": 55,
				"channel": 9,
				"type": "channel",
				"subtype": "noteOff",
				"noteNumber": 42,
				"velocity": 64
			},
			{
				"deltaTime": 114,
				"channel": 9,
				"type": "channel",
				"noteNumber": 40,
				"velocity": 127,
				"subtype": "noteOn"
			},
			{
				"deltaTime": 0,
				"channel": 9,
				"type": "channel",
				"noteNumber": 42,
				"velocity": 127,
				"subtype": "noteOn"
			},
			{
				"deltaTime": 80,
				"channel": 9,
				"type": "channel",
				"subtype": "noteOff",
				"noteNumber": 42,
				"velocity": 64
			},
			{
				"deltaTime": 170,
				"channel": 9,
				"type": "channel",
				"subtype": "noteOff",
				"noteNumber": 40,
				"velocity": 64
			},
			{
				"deltaTime": 53,
				"channel": 9,
				"type": "channel",
				"noteNumber": 36,
				"velocity": 98,
				"subtype": "noteOn"
			},
			{
				"deltaTime": 0,
				"channel": 9,
				"type": "channel",
				"noteNumber": 42,
				"velocity": 127,
				"subtype": "noteOn"
			},
			{
				"deltaTime": 55,
				"channel": 9,
				"type": "channel",
				"subtype": "noteOff",
				"noteNumber": 42,
				"velocity": 64
			},
			{
				"deltaTime": 20,
				"channel": 9,
				"type": "channel",
				"subtype": "noteOff",
				"noteNumber": 36,
				"velocity": 64
			},
			{
				"deltaTime": 94,
				"channel": 9,
				"type": "channel",
				"noteNumber": 36,
				"velocity": 107,
				"subtype": "noteOn"
			},
			{
				"deltaTime": 0,
				"channel": 9,
				"type": "channel",
				"noteNumber": 42,
				"velocity": 127,
				"subtype": "noteOn"
			},
			{
				"deltaTime": 70,
				"channel": 9,
				"type": "channel",
				"subtype": "noteOff",
				"noteNumber": 42,
				"velocity": 64
			},
			{
				"deltaTime": 105,
				"channel": 9,
				"type": "channel",
				"subtype": "noteOff",
				"noteNumber": 36,
				"velocity": 64
			},
			{
				"deltaTime": 146,
				"channel": 9,
				"type": "channel",
				"noteNumber": 42,
				"velocity": 127,
				"subtype": "noteOn"
			},
			{
				"deltaTime": 60,
				"channel": 9,
				"type": "channel",
				"subtype": "noteOff",
				"noteNumber": 42,
				"velocity": 64
			},
			{
				"deltaTime": 103,
				"channel": 9,
				"type": "channel",
				"noteNumber": 40,
				"velocity": 127,
				"subtype": "noteOn"
			},
			{
				"deltaTime": 0,
				"channel": 9,
				"type": "channel",
				"noteNumber": 42,
				"velocity": 127,
				"subtype": "noteOn"
			},
			{
				"deltaTime": 105,
				"channel": 9,
				"type": "channel",
				"subtype": "noteOff",
				"noteNumber": 42,
				"velocity": 64
			},
			{
				"deltaTime": 160,
				"channel": 9,
				"type": "channel",
				"subtype": "noteOff",
				"noteNumber": 40,
				"velocity": 64
			},
			{
				"deltaTime": 52,
				"channel": 9,
				"type": "channel",
				"noteNumber": 36,
				"velocity": 93,
				"subtype": "noteOn"
			},
			{
				"deltaTime": 0,
				"channel": 9,
				"type": "channel",
				"noteNumber": 46,
				"velocity": 119,
				"subtype": "noteOn"
			},
			{
				"deltaTime": 75,
				"channel": 9,
				"type": "channel",
				"subtype": "noteOff",
				"noteNumber": 36,
				"velocity": 64
			},
			{
				"deltaTime": 85,
				"channel": 9,
				"type": "channel",
				"subtype": "noteOff",
				"noteNumber": 46,
				"velocity": 64
			},
			{
				"deltaTime": 0,
				"channel": 9,
				"type": "channel",
				"noteNumber": 36,
				"velocity": 102,
				"subtype": "noteOn"
			},
			{
				"deltaTime": 0,
				"channel": 9,
				"type": "channel",
				"noteNumber": 42,
				"velocity": 127,
				"subtype": "noteOn"
			},
			{
				"deltaTime": 70,
				"channel": 9,
				"type": "channel",
				"subtype": "noteOff",
				"noteNumber": 42,
				"velocity": 64
			},
			{
				"deltaTime": 150,
				"channel": 9,
				"type": "channel",
				"subtype": "noteOff",
				"noteNumber": 36,
				"velocity": 64
			},
			{
				"deltaTime": 98,
				"channel": 9,
				"type": "channel",
				"noteNumber": 42,
				"velocity": 127,
				"subtype": "noteOn"
			},
			{
				"deltaTime": 55,
				"channel": 9,
				"type": "channel",
				"subtype": "noteOff",
				"noteNumber": 42,
				"velocity": 64
			},
			{
				"deltaTime": 114,
				"channel": 9,
				"type": "channel",
				"noteNumber": 40,
				"velocity": 127,
				"subtype": "noteOn"
			},
			{
				"deltaTime": 0,
				"channel": 9,
				"type": "channel",
				"noteNumber": 42,
				"velocity": 127,
				"subtype": "noteOn"
			},
			{
				"deltaTime": 65,
				"channel": 9,
				"type": "channel",
				"subtype": "noteOff",
				"noteNumber": 42,
				"velocity": 64
			},
			{
				"deltaTime": 155,
				"channel": 9,
				"type": "channel",
				"subtype": "noteOff",
				"noteNumber": 40,
				"velocity": 64
			},
			{
				"deltaTime": 83,
				"channel": 9,
				"type": "channel",
				"noteNumber": 36,
				"velocity": 102,
				"subtype": "noteOn"
			},
			{
				"deltaTime": 0,
				"channel": 9,
				"type": "channel",
				"noteNumber": 42,
				"velocity": 127,
				"subtype": "noteOn"
			},
			{
				"deltaTime": 60,
				"channel": 9,
				"type": "channel",
				"subtype": "noteOff",
				"noteNumber": 42,
				"velocity": 64
			},
			{
				"deltaTime": 25,
				"channel": 9,
				"type": "channel",
				"subtype": "noteOff",
				"noteNumber": 36,
				"velocity": 64
			},
			{
				"deltaTime": 84,
				"channel": 9,
				"type": "channel",
				"noteNumber": 36,
				"velocity": 93,
				"subtype": "noteOn"
			},
			{
				"deltaTime": 0,
				"channel": 9,
				"type": "channel",
				"noteNumber": 42,
				"velocity": 127,
				"subtype": "noteOn"
			},
			{
				"deltaTime": 65,
				"channel": 9,
				"type": "channel",
				"subtype": "noteOff",
				"noteNumber": 42,
				"velocity": 64
			},
			{
				"deltaTime": 50,
				"channel": 9,
				"type": "channel",
				"subtype": "noteOff",
				"noteNumber": 36,
				"velocity": 64
			},
			{
				"deltaTime": 206,
				"channel": 9,
				"type": "channel",
				"noteNumber": 36,
				"velocity": 102,
				"subtype": "noteOn"
			},
			{
				"deltaTime": 0,
				"channel": 9,
				"type": "channel",
				"noteNumber": 42,
				"velocity": 127,
				"subtype": "noteOn"
			},
			{
				"deltaTime": 55,
				"channel": 9,
				"type": "channel",
				"subtype": "noteOff",
				"noteNumber": 42,
				"velocity": 64
			},
			{
				"deltaTime": 35,
				"channel": 9,
				"type": "channel",
				"subtype": "noteOff",
				"noteNumber": 36,
				"velocity": 64
			},
			{
				"deltaTime": 73,
				"channel": 9,
				"type": "channel",
				"noteNumber": 40,
				"velocity": 127,
				"subtype": "noteOn"
			},
			{
				"deltaTime": 0,
				"channel": 9,
				"type": "channel",
				"noteNumber": 42,
				"velocity": 127,
				"subtype": "noteOn"
			},
			{
				"deltaTime": 70,
				"channel": 9,
				"type": "channel",
				"subtype": "noteOff",
				"noteNumber": 42,
				"velocity": 64
			},
			{
				"deltaTime": 200,
				"channel": 9,
				"type": "channel",
				"subtype": "noteOff",
				"noteNumber": 40,
				"velocity": 64
			},
			{
				"deltaTime": 47,
				"channel": 9,
				"type": "channel",
				"noteNumber": 36,
				"velocity": 102,
				"subtype": "noteOn"
			},
			{
				"deltaTime": 0,
				"channel": 9,
				"type": "channel",
				"noteNumber": 42,
				"velocity": 127,
				"subtype": "noteOn"
			},
			{
				"deltaTime": 65,
				"channel": 9,
				"type": "channel",
				"subtype": "noteOff",
				"noteNumber": 42,
				"velocity": 64
			},
			{
				"deltaTime": 10,
				"channel": 9,
				"type": "channel",
				"subtype": "noteOff",
				"noteNumber": 36,
				"velocity": 64
			},
			{
				"deltaTime": 85,
				"channel": 9,
				"type": "channel",
				"noteNumber": 36,
				"velocity": 113,
				"subtype": "noteOn"
			},
			{
				"deltaTime": 0,
				"channel": 9,
				"type": "channel",
				"noteNumber": 42,
				"velocity": 127,
				"subtype": "noteOn"
			},
			{
				"deltaTime": 65,
				"channel": 9,
				"type": "channel",
				"subtype": "noteOff",
				"noteNumber": 42,
				"velocity": 64
			},
			{
				"deltaTime": 95,
				"channel": 9,
				"type": "channel",
				"subtype": "noteOff",
				"noteNumber": 36,
				"velocity": 64
			},
			{
				"deltaTime": 158,
				"channel": 9,
				"type": "channel",
				"noteNumber": 42,
				"velocity": 127,
				"subtype": "noteOn"
			},
			{
				"deltaTime": 50,
				"channel": 9,
				"type": "channel",
				"subtype": "noteOff",
				"noteNumber": 42,
				"velocity": 64
			},
			{
				"deltaTime": 119,
				"channel": 9,
				"type": "channel",
				"noteNumber": 40,
				"velocity": 127,
				"subtype": "noteOn"
			},
			{
				"deltaTime": 0,
				"channel": 9,
				"type": "channel",
				"noteNumber": 42,
				"velocity": 127,
				"subtype": "noteOn"
			},
			{
				"deltaTime": 70,
				"channel": 9,
				"type": "channel",
				"subtype": "noteOff",
				"noteNumber": 42,
				"velocity": 64
			},
			{
				"deltaTime": 210,
				"channel": 9,
				"type": "channel",
				"subtype": "noteOff",
				"noteNumber": 40,
				"velocity": 64
			},
			{
				"deltaTime": 23,
				"channel": 9,
				"type": "channel",
				"noteNumber": 36,
				"velocity": 98,
				"subtype": "noteOn"
			},
			{
				"deltaTime": 0,
				"channel": 9,
				"type": "channel",
				"noteNumber": 42,
				"velocity": 127,
				"subtype": "noteOn"
			},
			{
				"deltaTime": 60,
				"channel": 9,
				"type": "channel",
				"subtype": "noteOff",
				"noteNumber": 42,
				"velocity": 64
			},
			{
				"deltaTime": 35,
				"channel": 9,
				"type": "channel",
				"subtype": "noteOff",
				"noteNumber": 36,
				"velocity": 64
			},
			{
				"deltaTime": 74,
				"channel": 9,
				"type": "channel",
				"noteNumber": 36,
				"velocity": 102,
				"subtype": "noteOn"
			},
			{
				"deltaTime": 0,
				"channel": 9,
				"type": "channel",
				"noteNumber": 42,
				"velocity": 127,
				"subtype": "noteOn"
			},
			{
				"deltaTime": 80,
				"channel": 9,
				"type": "channel",
				"subtype": "noteOff",
				"noteNumber": 42,
				"velocity": 64
			},
			{
				"deltaTime": 135,
				"channel": 9,
				"type": "channel",
				"subtype": "noteOff",
				"noteNumber": 36,
				"velocity": 64
			},
			{
				"deltaTime": 106,
				"channel": 9,
				"type": "channel",
				"noteNumber": 42,
				"velocity": 127,
				"subtype": "noteOn"
			},
			{
				"deltaTime": 55,
				"channel": 9,
				"type": "channel",
				"subtype": "noteOff",
				"noteNumber": 42,
				"velocity": 64
			},
			{
				"deltaTime": 108,
				"channel": 9,
				"type": "channel",
				"noteNumber": 40,
				"velocity": 127,
				"subtype": "noteOn"
			},
			{
				"deltaTime": 0,
				"channel": 9,
				"type": "channel",
				"noteNumber": 42,
				"velocity": 127,
				"subtype": "noteOn"
			},
			{
				"deltaTime": 75,
				"channel": 9,
				"type": "channel",
				"subtype": "noteOff",
				"noteNumber": 42,
				"velocity": 64
			},
			{
				"deltaTime": 205,
				"channel": 9,
				"type": "channel",
				"subtype": "noteOff",
				"noteNumber": 40,
				"velocity": 64
			},
			{
				"deltaTime": 37,
				"channel": 9,
				"type": "channel",
				"noteNumber": 36,
				"velocity": 98,
				"subtype": "noteOn"
			},
			{
				"deltaTime": 0,
				"channel": 9,
				"type": "channel",
				"noteNumber": 42,
				"velocity": 127,
				"subtype": "noteOn"
			},
			{
				"deltaTime": 65,
				"channel": 9,
				"type": "channel",
				"subtype": "noteOff",
				"noteNumber": 42,
				"velocity": 64
			},
			{
				"deltaTime": 20,
				"channel": 9,
				"type": "channel",
				"subtype": "noteOff",
				"noteNumber": 36,
				"velocity": 64
			},
			{
				"deltaTime": 75,
				"channel": 9,
				"type": "channel",
				"noteNumber": 36,
				"velocity": 102,
				"subtype": "noteOn"
			},
			{
				"deltaTime": 0,
				"channel": 9,
				"type": "channel",
				"noteNumber": 42,
				"velocity": 127,
				"subtype": "noteOn"
			},
			{
				"deltaTime": 70,
				"channel": 9,
				"type": "channel",
				"subtype": "noteOff",
				"noteNumber": 42,
				"velocity": 64
			},
			{
				"deltaTime": 248,
				"channel": 9,
				"type": "channel",
				"noteNumber": 42,
				"velocity": 127,
				"subtype": "noteOn"
			},
			{
				"deltaTime": 60,
				"channel": 9,
				"type": "channel",
				"subtype": "noteOff",
				"noteNumber": 42,
				"velocity": 64
			},
			{
				"deltaTime": 109,
				"channel": 9,
				"type": "channel",
				"noteNumber": 40,
				"velocity": 127,
				"subtype": "noteOn"
			},
			{
				"deltaTime": 0,
				"channel": 9,
				"type": "channel",
				"noteNumber": 42,
				"velocity": 127,
				"subtype": "noteOn"
			},
			{
				"deltaTime": 33,
				"channel": 9,
				"type": "channel",
				"subtype": "noteOff",
				"noteNumber": 36,
				"velocity": 64
			},
			{
				"deltaTime": 52,
				"channel": 9,
				"type": "channel",
				"subtype": "noteOff",
				"noteNumber": 42,
				"velocity": 64
			},
			{
				"deltaTime": 218,
				"channel": 9,
				"type": "channel",
				"noteNumber": 36,
				"velocity": 85,
				"subtype": "noteOn"
			},
			{
				"deltaTime": 0,
				"channel": 9,
				"type": "channel",
				"noteNumber": 42,
				"velocity": 127,
				"subtype": "noteOn"
			},
			{
				"deltaTime": 45,
				"channel": 9,
				"type": "channel",
				"subtype": "noteOff",
				"noteNumber": 36,
				"velocity": 64
			},
			{
				"deltaTime": 15,
				"channel": 9,
				"type": "channel",
				"subtype": "noteOff",
				"noteNumber": 42,
				"velocity": 64
			},
			{
				"deltaTime": 102,
				"channel": 9,
				"type": "channel",
				"subtype": "noteOff",
				"noteNumber": 40,
				"velocity": 64
			},
			{
				"deltaTime": 7,
				"channel": 9,
				"type": "channel",
				"noteNumber": 36,
				"velocity": 93,
				"subtype": "noteOn"
			},
			{
				"deltaTime": 0,
				"channel": 9,
				"type": "channel",
				"noteNumber": 42,
				"velocity": 127,
				"subtype": "noteOn"
			},
			{
				"deltaTime": 80,
				"channel": 9,
				"type": "channel",
				"subtype": "noteOff",
				"noteNumber": 42,
				"velocity": 64
			},
			{
				"deltaTime": 74,
				"channel": 9,
				"type": "channel",
				"noteNumber": 40,
				"velocity": 127,
				"subtype": "noteOn"
			},
			{
				"deltaTime": 41,
				"channel": 9,
				"type": "channel",
				"subtype": "noteOff",
				"noteNumber": 36,
				"velocity": 64
			},
			{
				"deltaTime": 104,
				"channel": 9,
				"type": "channel",
				"subtype": "noteOff",
				"noteNumber": 40,
				"velocity": 64
			},
			{
				"deltaTime": 22,
				"channel": 9,
				"type": "channel",
				"noteNumber": 36,
				"velocity": 76,
				"subtype": "noteOn"
			},
			{
				"deltaTime": 0,
				"channel": 9,
				"type": "channel",
				"noteNumber": 42,
				"velocity": 127,
				"subtype": "noteOn"
			},
			{
				"deltaTime": 60,
				"channel": 9,
				"type": "channel",
				"subtype": "noteOff",
				"noteNumber": 42,
				"velocity": 64
			},
			{
				"deltaTime": 103,
				"channel": 9,
				"type": "channel",
				"noteNumber": 40,
				"velocity": 127,
				"subtype": "noteOn"
			},
			{
				"deltaTime": 0,
				"channel": 9,
				"type": "channel",
				"noteNumber": 42,
				"velocity": 127,
				"subtype": "noteOn"
			},
			{
				"deltaTime": 7,
				"channel": 9,
				"type": "channel",
				"subtype": "noteOff",
				"noteNumber": 36,
				"velocity": 64
			},
			{
				"deltaTime": 103,
				"channel": 9,
				"type": "channel",
				"subtype": "noteOff",
				"noteNumber": 42,
				"velocity": 64
			},
			{
				"deltaTime": 47,
				"channel": 9,
				"type": "channel",
				"noteNumber": 36,
				"velocity": 107,
				"subtype": "noteOn"
			},
			{
				"deltaTime": 73,
				"channel": 9,
				"type": "channel",
				"subtype": "noteOff",
				"noteNumber": 40,
				"velocity": 64
			},
			{
				"deltaTime": 27,
				"channel": 9,
				"type": "channel",
				"subtype": "noteOff",
				"noteNumber": 36,
				"velocity": 64
			},
			{
				"deltaTime": 60,
				"channel": 9,
				"type": "channel",
				"noteNumber": 36,
				"velocity": 107,
				"subtype": "noteOn"
			},
			{
				"deltaTime": 0,
				"channel": 9,
				"type": "channel",
				"noteNumber": 46,
				"velocity": 127,
				"subtype": "noteOn"
			},
			{
				"deltaTime": 90,
				"channel": 9,
				"type": "channel",
				"subtype": "noteOff",
				"noteNumber": 36,
				"velocity": 64
			},
			{
				"deltaTime": 40,
				"channel": 9,
				"type": "channel",
				"subtype": "noteOff",
				"noteNumber": 46,
				"velocity": 64
			},
			{
				"deltaTime": 30,
				"channel": 9,
				"type": "channel",
				"noteNumber": 36,
				"velocity": 76,
				"subtype": "noteOn"
			},
			{
				"deltaTime": 0,
				"channel": 9,
				"type": "channel",
				"noteNumber": 36,
				"velocity": 107,
				"subtype": "noteOn"
			},
			{
				"deltaTime": 0,
				"channel": 9,
				"type": "channel",
				"noteNumber": 51,
				"velocity": 127,
				"subtype": "noteOn"
			},
			{
				"deltaTime": 0,
				"channel": 9,
				"type": "channel",
				"noteNumber": 57,
				"velocity": 107,
				"subtype": "noteOn"
			},
			{
				"deltaTime": 1,
				"channel": 9,
				"type": "channel",
				"subtype": "noteOff",
				"noteNumber": 36,
				"velocity": 64
			},
			{
				"deltaTime": 24,
				"channel": 9,
				"type": "channel",
				"subtype": "noteOff",
				"noteNumber": 57,
				"velocity": 64
			},
			{
				"deltaTime": 45,
				"channel": 9,
				"type": "channel",
				"subtype": "noteOff",
				"noteNumber": 51,
				"velocity": 64
			},
			{
				"deltaTime": 248,
				"channel": 9,
				"type": "channel",
				"noteNumber": 51,
				"velocity": 85,
				"subtype": "noteOn"
			},
			{
				"deltaTime": 20,
				"channel": 9,
				"type": "channel",
				"subtype": "noteOff",
				"noteNumber": 51,
				"velocity": 64
			},
			{
				"deltaTime": 149,
				"channel": 9,
				"type": "channel",
				"noteNumber": 40,
				"velocity": 127,
				"subtype": "noteOn"
			},
			{
				"deltaTime": 0,
				"channel": 9,
				"type": "channel",
				"noteNumber": 51,
				"velocity": 127,
				"subtype": "noteOn"
			},
			{
				"deltaTime": 110,
				"channel": 9,
				"type": "channel",
				"subtype": "noteOff",
				"noteNumber": 51,
				"velocity": 64
			},
			{
				"deltaTime": 43,
				"channel": 9,
				"type": "channel",
				"subtype": "noteOff",
				"noteNumber": 36,
				"velocity": 64
			},
			{
				"deltaTime": 150,
				"channel": 9,
				"type": "channel",
				"noteNumber": 36,
				"velocity": 93,
				"subtype": "noteOn"
			},
			{
				"deltaTime": 0,
				"channel": 9,
				"type": "channel",
				"noteNumber": 51,
				"velocity": 107,
				"subtype": "noteOn"
			},
			{
				"deltaTime": 17,
				"channel": 9,
				"type": "channel",
				"subtype": "noteOff",
				"noteNumber": 40,
				"velocity": 64
			},
			{
				"deltaTime": 28,
				"channel": 9,
				"type": "channel",
				"subtype": "noteOff",
				"noteNumber": 51,
				"velocity": 64
			},
			{
				"deltaTime": 20,
				"channel": 9,
				"type": "channel",
				"subtype": "noteOff",
				"noteNumber": 36,
				"velocity": 64
			},
			{
				"deltaTime": 104,
				"channel": 9,
				"type": "channel",
				"noteNumber": 36,
				"velocity": 93,
				"subtype": "noteOn"
			},
			{
				"deltaTime": 0,
				"channel": 9,
				"type": "channel",
				"noteNumber": 51,
				"velocity": 127,
				"subtype": "noteOn"
			},
			{
				"deltaTime": 60,
				"channel": 9,
				"type": "channel",
				"subtype": "noteOff",
				"noteNumber": 51,
				"velocity": 64
			},
			{
				"deltaTime": 261,
				"channel": 9,
				"type": "channel",
				"noteNumber": 51,
				"velocity": 98,
				"subtype": "noteOn"
			},
			{
				"deltaTime": 35,
				"channel": 9,
				"type": "channel",
				"subtype": "noteOff",
				"noteNumber": 51,
				"velocity": 64
			},
			{
				"deltaTime": 128,
				"channel": 9,
				"type": "channel",
				"noteNumber": 40,
				"velocity": 127,
				"subtype": "noteOn"
			},
			{
				"deltaTime": 0,
				"channel": 9,
				"type": "channel",
				"noteNumber": 51,
				"velocity": 127,
				"subtype": "noteOn"
			},
			{
				"deltaTime": 75,
				"channel": 9,
				"type": "channel",
				"subtype": "noteOff",
				"noteNumber": 51,
				"velocity": 64
			},
			{
				"deltaTime": 71,
				"channel": 9,
				"type": "channel",
				"subtype": "noteOff",
				"noteNumber": 36,
				"velocity": 64
			},
			{
				"deltaTime": 159,
				"channel": 9,
				"type": "channel",
				"subtype": "noteOff",
				"noteNumber": 40,
				"velocity": 64
			},
			{
				"deltaTime": 12,
				"channel": 9,
				"type": "channel",
				"noteNumber": 36,
				"velocity": 72,
				"subtype": "noteOn"
			},
			{
				"deltaTime": 0,
				"channel": 9,
				"type": "channel",
				"noteNumber": 51,
				"velocity": 113,
				"subtype": "noteOn"
			},
			{
				"deltaTime": 45,
				"channel": 9,
				"type": "channel",
				"subtype": "noteOff",
				"noteNumber": 51,
				"velocity": 64
			},
			{
				"deltaTime": 20,
				"channel": 9,
				"type": "channel",
				"subtype": "noteOff",
				"noteNumber": 36,
				"velocity": 64
			},
			{
				"deltaTime": 95,
				"channel": 9,
				"type": "channel",
				"noteNumber": 36,
				"velocity": 107,
				"subtype": "noteOn"
			},
			{
				"deltaTime": 0,
				"channel": 9,
				"type": "channel",
				"noteNumber": 51,
				"velocity": 127,
				"subtype": "noteOn"
			},
			{
				"deltaTime": 70,
				"channel": 9,
				"type": "channel",
				"subtype": "noteOff",
				"noteNumber": 51,
				"velocity": 64
			},
			{
				"deltaTime": 248,
				"channel": 9,
				"type": "channel",
				"noteNumber": 51,
				"velocity": 85,
				"subtype": "noteOn"
			},
			{
				"deltaTime": 35,
				"channel": 9,
				"type": "channel",
				"subtype": "noteOff",
				"noteNumber": 51,
				"velocity": 64
			},
			{
				"deltaTime": 134,
				"channel": 9,
				"type": "channel",
				"noteNumber": 40,
				"velocity": 127,
				"subtype": "noteOn"
			},
			{
				"deltaTime": 0,
				"channel": 9,
				"type": "channel",
				"noteNumber": 51,
				"velocity": 127,
				"subtype": "noteOn"
			},
			{
				"deltaTime": 75,
				"channel": 9,
				"type": "channel",
				"subtype": "noteOff",
				"noteNumber": 51,
				"velocity": 64
			},
			{
				"deltaTime": 78,
				"channel": 9,
				"type": "channel",
				"subtype": "noteOff",
				"noteNumber": 36,
				"velocity": 64
			},
			{
				"deltaTime": 150,
				"channel": 9,
				"type": "channel",
				"noteNumber": 36,
				"velocity": 85,
				"subtype": "noteOn"
			},
			{
				"deltaTime": 0,
				"channel": 9,
				"type": "channel",
				"noteNumber": 51,
				"velocity": 107,
				"subtype": "noteOn"
			},
			{
				"deltaTime": 32,
				"channel": 9,
				"type": "channel",
				"subtype": "noteOff",
				"noteNumber": 40,
				"velocity": 64
			},
			{
				"deltaTime": 8,
				"channel": 9,
				"type": "channel",
				"subtype": "noteOff",
				"noteNumber": 51,
				"velocity": 64
			},
			{
				"deltaTime": 25,
				"channel": 9,
				"type": "channel",
				"subtype": "noteOff",
				"noteNumber": 36,
				"velocity": 64
			},
			{
				"deltaTime": 104,
				"channel": 9,
				"type": "channel",
				"noteNumber": 36,
				"velocity": 85,
				"subtype": "noteOn"
			},
			{
				"deltaTime": 0,
				"channel": 9,
				"type": "channel",
				"noteNumber": 51,
				"velocity": 107,
				"subtype": "noteOn"
			},
			{
				"deltaTime": 55,
				"channel": 9,
				"type": "channel",
				"subtype": "noteOff",
				"noteNumber": 51,
				"velocity": 64
			},
			{
				"deltaTime": 266,
				"channel": 9,
				"type": "channel",
				"noteNumber": 51,
				"velocity": 107,
				"subtype": "noteOn"
			},
			{
				"deltaTime": 45,
				"channel": 9,
				"type": "channel",
				"subtype": "noteOff",
				"noteNumber": 51,
				"velocity": 64
			},
			{
				"deltaTime": 118,
				"channel": 9,
				"type": "channel",
				"noteNumber": 40,
				"velocity": 127,
				"subtype": "noteOn"
			},
			{
				"deltaTime": 0,
				"channel": 9,
				"type": "channel",
				"noteNumber": 51,
				"velocity": 127,
				"subtype": "noteOn"
			},
			{
				"deltaTime": 75,
				"channel": 9,
				"type": "channel",
				"subtype": "noteOff",
				"noteNumber": 51,
				"velocity": 64
			},
			{
				"deltaTime": 76,
				"channel": 9,
				"type": "channel",
				"subtype": "noteOff",
				"noteNumber": 36,
				"velocity": 64
			},
			{
				"deltaTime": 49,
				"channel": 9,
				"type": "channel",
				"subtype": "noteOff",
				"noteNumber": 40,
				"velocity": 64
			},
			{
				"deltaTime": 117,
				"channel": 9,
				"type": "channel",
				"noteNumber": 36,
				"velocity": 93,
				"subtype": "noteOn"
			},
			{
				"deltaTime": 0,
				"channel": 9,
				"type": "channel",
				"noteNumber": 51,
				"velocity": 127,
				"subtype": "noteOn"
			},
			{
				"deltaTime": 35,
				"channel": 9,
				"type": "channel",
				"subtype": "noteOff",
				"noteNumber": 51,
				"velocity": 64
			},
			{
				"deltaTime": 5,
				"channel": 9,
				"type": "channel",
				"subtype": "noteOff",
				"noteNumber": 36,
				"velocity": 64
			},
			{
				"deltaTime": 120,
				"channel": 9,
				"type": "channel",
				"noteNumber": 36,
				"velocity": 107,
				"subtype": "noteOn"
			},
			{
				"deltaTime": 0,
				"channel": 9,
				"type": "channel",
				"noteNumber": 51,
				"velocity": 127,
				"subtype": "noteOn"
			},
			{
				"deltaTime": 40,
				"channel": 9,
				"type": "channel",
				"subtype": "noteOff",
				"noteNumber": 51,
				"velocity": 64
			},
			{
				"deltaTime": 278,
				"channel": 9,
				"type": "channel",
				"noteNumber": 51,
				"velocity": 68,
				"subtype": "noteOn"
			},
			{
				"deltaTime": 25,
				"channel": 9,
				"type": "channel",
				"subtype": "noteOff",
				"noteNumber": 51,
				"velocity": 64
			},
			{
				"deltaTime": 144,
				"channel": 9,
				"type": "channel",
				"noteNumber": 40,
				"velocity": 127,
				"subtype": "noteOn"
			},
			{
				"deltaTime": 0,
				"channel": 9,
				"type": "channel",
				"noteNumber": 51,
				"velocity": 127,
				"subtype": "noteOn"
			},
			{
				"deltaTime": 125,
				"channel": 9,
				"type": "channel",
				"subtype": "noteOff",
				"noteNumber": 51,
				"velocity": 64
			},
			{
				"deltaTime": 38,
				"channel": 9,
				"type": "channel",
				"subtype": "noteOff",
				"noteNumber": 36,
				"velocity": 64
			},
			{
				"deltaTime": 140,
				"channel": 9,
				"type": "channel",
				"noteNumber": 36,
				"velocity": 50,
				"subtype": "noteOn"
			},
			{
				"deltaTime": 0,
				"channel": 9,
				"type": "channel",
				"noteNumber": 51,
				"velocity": 102,
				"subtype": "noteOn"
			},
			{
				"deltaTime": 50,
				"channel": 9,
				"type": "channel",
				"subtype": "noteOff",
				"noteNumber": 36,
				"velocity": 64
			},
			{
				"deltaTime": 0,
				"channel": 9,
				"type": "channel",
				"subtype": "noteOff",
				"noteNumber": 51,
				"velocity": 64
			},
			{
				"deltaTime": 22,
				"channel": 9,
				"type": "channel",
				"subtype": "noteOff",
				"noteNumber": 40,
				"velocity": 64
			},
			{
				"deltaTime": 97,
				"channel": 9,
				"type": "channel",
				"noteNumber": 36,
				"velocity": 85,
				"subtype": "noteOn"
			},
			{
				"deltaTime": 0,
				"channel": 9,
				"type": "channel",
				"noteNumber": 51,
				"velocity": 113,
				"subtype": "noteOn"
			},
			{
				"deltaTime": 95,
				"channel": 9,
				"type": "channel",
				"subtype": "noteOff",
				"noteNumber": 51,
				"velocity": 64
			},
			{
				"deltaTime": 226,
				"channel": 9,
				"type": "channel",
				"noteNumber": 51,
				"velocity": 93,
				"subtype": "noteOn"
			},
			{
				"deltaTime": 35,
				"channel": 9,
				"type": "channel",
				"subtype": "noteOff",
				"noteNumber": 51,
				"velocity": 64
			},
			{
				"deltaTime": 128,
				"channel": 9,
				"type": "channel",
				"noteNumber": 40,
				"velocity": 127,
				"subtype": "noteOn"
			},
			{
				"deltaTime": 0,
				"channel": 9,
				"type": "channel",
				"noteNumber": 51,
				"velocity": 127,
				"subtype": "noteOn"
			},
			{
				"deltaTime": 120,
				"channel": 9,
				"type": "channel",
				"subtype": "noteOff",
				"noteNumber": 51,
				"velocity": 64
			},
			{
				"deltaTime": 86,
				"channel": 9,
				"type": "channel",
				"subtype": "noteOff",
				"noteNumber": 36,
				"velocity": 64
			},
			{
				"deltaTime": 94,
				"channel": 9,
				"type": "channel",
				"subtype": "noteOff",
				"noteNumber": 40,
				"velocity": 64
			},
			{
				"deltaTime": 17,
				"channel": 9,
				"type": "channel",
				"noteNumber": 36,
				"velocity": 72,
				"subtype": "noteOn"
			},
			{
				"deltaTime": 0,
				"channel": 9,
				"type": "channel",
				"noteNumber": 51,
				"velocity": 107,
				"subtype": "noteOn"
			},
			{
				"deltaTime": 55,
				"channel": 9,
				"type": "channel",
				"subtype": "noteOff",
				"noteNumber": 51,
				"velocity": 64
			},
			{
				"deltaTime": 25,
				"channel": 9,
				"type": "channel",
				"subtype": "noteOff",
				"noteNumber": 36,
				"velocity": 64
			},
			{
				"deltaTime": 80,
				"channel": 9,
				"type": "channel",
				"noteNumber": 36,
				"velocity": 80,
				"subtype": "noteOn"
			},
			{
				"deltaTime": 0,
				"channel": 9,
				"type": "channel",
				"noteNumber": 51,
				"velocity": 113,
				"subtype": "noteOn"
			},
			{
				"deltaTime": 95,
				"channel": 9,
				"type": "channel",
				"subtype": "noteOff",
				"noteNumber": 51,
				"velocity": 64
			},
			{
				"deltaTime": 223,
				"channel": 9,
				"type": "channel",
				"noteNumber": 51,
				"velocity": 68,
				"subtype": "noteOn"
			},
			{
				"deltaTime": 25,
				"channel": 9,
				"type": "channel",
				"subtype": "noteOff",
				"noteNumber": 51,
				"velocity": 64
			},
			{
				"deltaTime": 144,
				"channel": 9,
				"type": "channel",
				"noteNumber": 40,
				"velocity": 127,
				"subtype": "noteOn"
			},
			{
				"deltaTime": 0,
				"channel": 9,
				"type": "channel",
				"noteNumber": 51,
				"velocity": 127,
				"subtype": "noteOn"
			},
			{
				"deltaTime": 140,
				"channel": 9,
				"type": "channel",
				"subtype": "noteOff",
				"noteNumber": 51,
				"velocity": 64
			},
			{
				"deltaTime": 73,
				"channel": 9,
				"type": "channel",
				"subtype": "noteOff",
				"noteNumber": 36,
				"velocity": 64
			},
			{
				"deltaTime": 82,
				"channel": 9,
				"type": "channel",
				"subtype": "noteOff",
				"noteNumber": 40,
				"velocity": 64
			},
			{
				"deltaTime": 8,
				"channel": 9,
				"type": "channel",
				"noteNumber": 36,
				"velocity": 72,
				"subtype": "noteOn"
			},
			{
				"deltaTime": 0,
				"channel": 9,
				"type": "channel",
				"noteNumber": 51,
				"velocity": 98,
				"subtype": "noteOn"
			},
			{
				"deltaTime": 45,
				"channel": 9,
				"type": "channel",
				"subtype": "noteOff",
				"noteNumber": 51,
				"velocity": 64
			},
			{
				"deltaTime": 10,
				"channel": 9,
				"type": "channel",
				"subtype": "noteOff",
				"noteNumber": 36,
				"velocity": 64
			},
			{
				"deltaTime": 114,
				"channel": 9,
				"type": "channel",
				"noteNumber": 36,
				"velocity": 98,
				"subtype": "noteOn"
			},
			{
				"deltaTime": 0,
				"channel": 9,
				"type": "channel",
				"noteNumber": 51,
				"velocity": 113,
				"subtype": "noteOn"
			},
			{
				"deltaTime": 90,
				"channel": 9,
				"type": "channel",
				"subtype": "noteOff",
				"noteNumber": 51,
				"velocity": 64
			},
			{
				"deltaTime": 231,
				"channel": 9,
				"type": "channel",
				"noteNumber": 51,
				"velocity": 89,
				"subtype": "noteOn"
			},
			{
				"deltaTime": 35,
				"channel": 9,
				"type": "channel",
				"subtype": "noteOff",
				"noteNumber": 51,
				"velocity": 64
			},
			{
				"deltaTime": 128,
				"channel": 9,
				"type": "channel",
				"noteNumber": 40,
				"velocity": 127,
				"subtype": "noteOn"
			},
			{
				"deltaTime": 0,
				"channel": 9,
				"type": "channel",
				"noteNumber": 51,
				"velocity": 127,
				"subtype": "noteOn"
			},
			{
				"deltaTime": 120,
				"channel": 9,
				"type": "channel",
				"subtype": "noteOff",
				"noteNumber": 51,
				"velocity": 64
			},
			{
				"deltaTime": 46,
				"channel": 9,
				"type": "channel",
				"subtype": "noteOff",
				"noteNumber": 36,
				"velocity": 64
			},
			{
				"deltaTime": 144,
				"channel": 9,
				"type": "channel",
				"subtype": "noteOff",
				"noteNumber": 40,
				"velocity": 64
			},
			{
				"deltaTime": 7,
				"channel": 9,
				"type": "channel",
				"noteNumber": 36,
				"velocity": 76,
				"subtype": "noteOn"
			},
			{
				"deltaTime": 0,
				"channel": 9,
				"type": "channel",
				"noteNumber": 51,
				"velocity": 102,
				"subtype": "noteOn"
			},
			{
				"deltaTime": 45,
				"channel": 9,
				"type": "channel",
				"subtype": "noteOff",
				"noteNumber": 51,
				"velocity": 64
			},
			{
				"deltaTime": 20,
				"channel": 9,
				"type": "channel",
				"subtype": "noteOff",
				"noteNumber": 36,
				"velocity": 64
			},
			{
				"deltaTime": 95,
				"channel": 9,
				"type": "channel",
				"noteNumber": 36,
				"velocity": 76,
				"subtype": "noteOn"
			},
			{
				"deltaTime": 0,
				"channel": 9,
				"type": "channel",
				"noteNumber": 51,
				"velocity": 127,
				"subtype": "noteOn"
			},
			{
				"deltaTime": 70,
				"channel": 9,
				"type": "channel",
				"subtype": "noteOff",
				"noteNumber": 51,
				"velocity": 64
			},
			{
				"deltaTime": 248,
				"channel": 9,
				"type": "channel",
				"noteNumber": 51,
				"velocity": 85,
				"subtype": "noteOn"
			},
			{
				"deltaTime": 20,
				"channel": 9,
				"type": "channel",
				"subtype": "noteOff",
				"noteNumber": 51,
				"velocity": 64
			},
			{
				"deltaTime": 149,
				"channel": 9,
				"type": "channel",
				"noteNumber": 40,
				"velocity": 127,
				"subtype": "noteOn"
			},
			{
				"deltaTime": 0,
				"channel": 9,
				"type": "channel",
				"noteNumber": 49,
				"velocity": 107,
				"subtype": "noteOn"
			},
			{
				"deltaTime": 0,
				"channel": 9,
				"type": "channel",
				"noteNumber": 51,
				"velocity": 127,
				"subtype": "noteOn"
			},
			{
				"deltaTime": 60,
				"channel": 9,
				"type": "channel",
				"subtype": "noteOff",
				"noteNumber": 49,
				"velocity": 64
			},
			{
				"deltaTime": 50,
				"channel": 9,
				"type": "channel",
				"subtype": "noteOff",
				"noteNumber": 51,
				"velocity": 64
			},
			{
				"deltaTime": 43,
				"channel": 9,
				"type": "channel",
				"subtype": "noteOff",
				"noteNumber": 36,
				"velocity": 64
			},
			{
				"deltaTime": 150,
				"channel": 9,
				"type": "channel",
				"noteNumber": 36,
				"velocity": 93,
				"subtype": "noteOn"
			},
			{
				"deltaTime": 0,
				"channel": 9,
				"type": "channel",
				"noteNumber": 51,
				"velocity": 107,
				"subtype": "noteOn"
			},
			{
				"deltaTime": 17,
				"channel": 9,
				"type": "channel",
				"subtype": "noteOff",
				"noteNumber": 40,
				"velocity": 64
			},
			{
				"deltaTime": 28,
				"channel": 9,
				"type": "channel",
				"subtype": "noteOff",
				"noteNumber": 51,
				"velocity": 64
			},
			{
				"deltaTime": 20,
				"channel": 9,
				"type": "channel",
				"subtype": "noteOff",
				"noteNumber": 36,
				"velocity": 64
			},
			{
				"deltaTime": 104,
				"channel": 9,
				"type": "channel",
				"noteNumber": 36,
				"velocity": 93,
				"subtype": "noteOn"
			},
			{
				"deltaTime": 0,
				"channel": 9,
				"type": "channel",
				"noteNumber": 51,
				"velocity": 127,
				"subtype": "noteOn"
			},
			{
				"deltaTime": 60,
				"channel": 9,
				"type": "channel",
				"subtype": "noteOff",
				"noteNumber": 51,
				"velocity": 64
			},
			{
				"deltaTime": 261,
				"channel": 9,
				"type": "channel",
				"noteNumber": 51,
				"velocity": 98,
				"subtype": "noteOn"
			},
			{
				"deltaTime": 35,
				"channel": 9,
				"type": "channel",
				"subtype": "noteOff",
				"noteNumber": 51,
				"velocity": 64
			},
			{
				"deltaTime": 128,
				"channel": 9,
				"type": "channel",
				"noteNumber": 40,
				"velocity": 127,
				"subtype": "noteOn"
			},
			{
				"deltaTime": 0,
				"channel": 9,
				"type": "channel",
				"noteNumber": 51,
				"velocity": 127,
				"subtype": "noteOn"
			},
			{
				"deltaTime": 75,
				"channel": 9,
				"type": "channel",
				"subtype": "noteOff",
				"noteNumber": 51,
				"velocity": 64
			},
			{
				"deltaTime": 71,
				"channel": 9,
				"type": "channel",
				"subtype": "noteOff",
				"noteNumber": 36,
				"velocity": 64
			},
			{
				"deltaTime": 159,
				"channel": 9,
				"type": "channel",
				"subtype": "noteOff",
				"noteNumber": 40,
				"velocity": 64
			},
			{
				"deltaTime": 12,
				"channel": 9,
				"type": "channel",
				"noteNumber": 36,
				"velocity": 72,
				"subtype": "noteOn"
			},
			{
				"deltaTime": 0,
				"channel": 9,
				"type": "channel",
				"noteNumber": 51,
				"velocity": 113,
				"subtype": "noteOn"
			},
			{
				"deltaTime": 45,
				"channel": 9,
				"type": "channel",
				"subtype": "noteOff",
				"noteNumber": 51,
				"velocity": 64
			},
			{
				"deltaTime": 20,
				"channel": 9,
				"type": "channel",
				"subtype": "noteOff",
				"noteNumber": 36,
				"velocity": 64
			},
			{
				"deltaTime": 95,
				"channel": 9,
				"type": "channel",
				"noteNumber": 36,
				"velocity": 107,
				"subtype": "noteOn"
			},
			{
				"deltaTime": 0,
				"channel": 9,
				"type": "channel",
				"noteNumber": 51,
				"velocity": 127,
				"subtype": "noteOn"
			},
			{
				"deltaTime": 70,
				"channel": 9,
				"type": "channel",
				"subtype": "noteOff",
				"noteNumber": 51,
				"velocity": 64
			},
			{
				"deltaTime": 248,
				"channel": 9,
				"type": "channel",
				"noteNumber": 51,
				"velocity": 85,
				"subtype": "noteOn"
			},
			{
				"deltaTime": 35,
				"channel": 9,
				"type": "channel",
				"subtype": "noteOff",
				"noteNumber": 51,
				"velocity": 64
			},
			{
				"deltaTime": 134,
				"channel": 9,
				"type": "channel",
				"noteNumber": 40,
				"velocity": 127,
				"subtype": "noteOn"
			},
			{
				"deltaTime": 0,
				"channel": 9,
				"type": "channel",
				"noteNumber": 51,
				"velocity": 127,
				"subtype": "noteOn"
			},
			{
				"deltaTime": 75,
				"channel": 9,
				"type": "channel",
				"subtype": "noteOff",
				"noteNumber": 51,
				"velocity": 64
			},
			{
				"deltaTime": 78,
				"channel": 9,
				"type": "channel",
				"subtype": "noteOff",
				"noteNumber": 36,
				"velocity": 64
			},
			{
				"deltaTime": 150,
				"channel": 9,
				"type": "channel",
				"noteNumber": 36,
				"velocity": 85,
				"subtype": "noteOn"
			},
			{
				"deltaTime": 0,
				"channel": 9,
				"type": "channel",
				"noteNumber": 51,
				"velocity": 107,
				"subtype": "noteOn"
			},
			{
				"deltaTime": 32,
				"channel": 9,
				"type": "channel",
				"subtype": "noteOff",
				"noteNumber": 40,
				"velocity": 64
			},
			{
				"deltaTime": 8,
				"channel": 9,
				"type": "channel",
				"subtype": "noteOff",
				"noteNumber": 51,
				"velocity": 64
			},
			{
				"deltaTime": 25,
				"channel": 9,
				"type": "channel",
				"subtype": "noteOff",
				"noteNumber": 36,
				"velocity": 64
			},
			{
				"deltaTime": 104,
				"channel": 9,
				"type": "channel",
				"noteNumber": 36,
				"velocity": 85,
				"subtype": "noteOn"
			},
			{
				"deltaTime": 0,
				"channel": 9,
				"type": "channel",
				"noteNumber": 51,
				"velocity": 107,
				"subtype": "noteOn"
			},
			{
				"deltaTime": 55,
				"channel": 9,
				"type": "channel",
				"subtype": "noteOff",
				"noteNumber": 51,
				"velocity": 64
			},
			{
				"deltaTime": 266,
				"channel": 9,
				"type": "channel",
				"noteNumber": 51,
				"velocity": 107,
				"subtype": "noteOn"
			},
			{
				"deltaTime": 45,
				"channel": 9,
				"type": "channel",
				"subtype": "noteOff",
				"noteNumber": 51,
				"velocity": 64
			},
			{
				"deltaTime": 118,
				"channel": 9,
				"type": "channel",
				"noteNumber": 40,
				"velocity": 127,
				"subtype": "noteOn"
			},
			{
				"deltaTime": 0,
				"channel": 9,
				"type": "channel",
				"noteNumber": 51,
				"velocity": 127,
				"subtype": "noteOn"
			},
			{
				"deltaTime": 75,
				"channel": 9,
				"type": "channel",
				"subtype": "noteOff",
				"noteNumber": 51,
				"velocity": 64
			},
			{
				"deltaTime": 76,
				"channel": 9,
				"type": "channel",
				"subtype": "noteOff",
				"noteNumber": 36,
				"velocity": 64
			},
			{
				"deltaTime": 49,
				"channel": 9,
				"type": "channel",
				"subtype": "noteOff",
				"noteNumber": 40,
				"velocity": 64
			},
			{
				"deltaTime": 117,
				"channel": 9,
				"type": "channel",
				"noteNumber": 36,
				"velocity": 93,
				"subtype": "noteOn"
			},
			{
				"deltaTime": 0,
				"channel": 9,
				"type": "channel",
				"noteNumber": 51,
				"velocity": 127,
				"subtype": "noteOn"
			},
			{
				"deltaTime": 35,
				"channel": 9,
				"type": "channel",
				"subtype": "noteOff",
				"noteNumber": 51,
				"velocity": 64
			},
			{
				"deltaTime": 5,
				"channel": 9,
				"type": "channel",
				"subtype": "noteOff",
				"noteNumber": 36,
				"velocity": 64
			},
			{
				"deltaTime": 120,
				"channel": 9,
				"type": "channel",
				"noteNumber": 36,
				"velocity": 107,
				"subtype": "noteOn"
			},
			{
				"deltaTime": 0,
				"channel": 9,
				"type": "channel",
				"noteNumber": 51,
				"velocity": 127,
				"subtype": "noteOn"
			},
			{
				"deltaTime": 0,
				"channel": 9,
				"type": "channel",
				"noteNumber": 57,
				"velocity": 93,
				"subtype": "noteOn"
			},
			{
				"deltaTime": 40,
				"channel": 9,
				"type": "channel",
				"subtype": "noteOff",
				"noteNumber": 51,
				"velocity": 64
			},
			{
				"deltaTime": 15,
				"channel": 9,
				"type": "channel",
				"subtype": "noteOff",
				"noteNumber": 57,
				"velocity": 64
			},
			{
				"deltaTime": 263,
				"channel": 9,
				"type": "channel",
				"noteNumber": 51,
				"velocity": 68,
				"subtype": "noteOn"
			},
			{
				"deltaTime": 25,
				"channel": 9,
				"type": "channel",
				"subtype": "noteOff",
				"noteNumber": 51,
				"velocity": 64
			},
			{
				"deltaTime": 144,
				"channel": 9,
				"type": "channel",
				"noteNumber": 40,
				"velocity": 127,
				"subtype": "noteOn"
			},
			{
				"deltaTime": 0,
				"channel": 9,
				"type": "channel",
				"noteNumber": 51,
				"velocity": 127,
				"subtype": "noteOn"
			},
			{
				"deltaTime": 125,
				"channel": 9,
				"type": "channel",
				"subtype": "noteOff",
				"noteNumber": 51,
				"velocity": 64
			},
			{
				"deltaTime": 38,
				"channel": 9,
				"type": "channel",
				"subtype": "noteOff",
				"noteNumber": 36,
				"velocity": 64
			},
			{
				"deltaTime": 140,
				"channel": 9,
				"type": "channel",
				"noteNumber": 36,
				"velocity": 50,
				"subtype": "noteOn"
			},
			{
				"deltaTime": 0,
				"channel": 9,
				"type": "channel",
				"noteNumber": 51,
				"velocity": 102,
				"subtype": "noteOn"
			},
			{
				"deltaTime": 50,
				"channel": 9,
				"type": "channel",
				"subtype": "noteOff",
				"noteNumber": 36,
				"velocity": 64
			},
			{
				"deltaTime": 0,
				"channel": 9,
				"type": "channel",
				"subtype": "noteOff",
				"noteNumber": 51,
				"velocity": 64
			},
			{
				"deltaTime": 22,
				"channel": 9,
				"type": "channel",
				"subtype": "noteOff",
				"noteNumber": 40,
				"velocity": 64
			},
			{
				"deltaTime": 97,
				"channel": 9,
				"type": "channel",
				"noteNumber": 36,
				"velocity": 85,
				"subtype": "noteOn"
			},
			{
				"deltaTime": 0,
				"channel": 9,
				"type": "channel",
				"noteNumber": 51,
				"velocity": 113,
				"subtype": "noteOn"
			},
			{
				"deltaTime": 95,
				"channel": 9,
				"type": "channel",
				"subtype": "noteOff",
				"noteNumber": 51,
				"velocity": 64
			},
			{
				"deltaTime": 226,
				"channel": 9,
				"type": "channel",
				"noteNumber": 51,
				"velocity": 93,
				"subtype": "noteOn"
			},
			{
				"deltaTime": 35,
				"channel": 9,
				"type": "channel",
				"subtype": "noteOff",
				"noteNumber": 51,
				"velocity": 64
			},
			{
				"deltaTime": 128,
				"channel": 9,
				"type": "channel",
				"noteNumber": 40,
				"velocity": 127,
				"subtype": "noteOn"
			},
			{
				"deltaTime": 0,
				"channel": 9,
				"type": "channel",
				"noteNumber": 51,
				"velocity": 127,
				"subtype": "noteOn"
			},
			{
				"deltaTime": 120,
				"channel": 9,
				"type": "channel",
				"subtype": "noteOff",
				"noteNumber": 51,
				"velocity": 64
			},
			{
				"deltaTime": 86,
				"channel": 9,
				"type": "channel",
				"subtype": "noteOff",
				"noteNumber": 36,
				"velocity": 64
			},
			{
				"deltaTime": 94,
				"channel": 9,
				"type": "channel",
				"subtype": "noteOff",
				"noteNumber": 40,
				"velocity": 64
			},
			{
				"deltaTime": 17,
				"channel": 9,
				"type": "channel",
				"noteNumber": 36,
				"velocity": 72,
				"subtype": "noteOn"
			},
			{
				"deltaTime": 0,
				"channel": 9,
				"type": "channel",
				"noteNumber": 51,
				"velocity": 107,
				"subtype": "noteOn"
			},
			{
				"deltaTime": 55,
				"channel": 9,
				"type": "channel",
				"subtype": "noteOff",
				"noteNumber": 51,
				"velocity": 64
			},
			{
				"deltaTime": 25,
				"channel": 9,
				"type": "channel",
				"subtype": "noteOff",
				"noteNumber": 36,
				"velocity": 64
			},
			{
				"deltaTime": 80,
				"channel": 9,
				"type": "channel",
				"noteNumber": 36,
				"velocity": 80,
				"subtype": "noteOn"
			},
			{
				"deltaTime": 0,
				"channel": 9,
				"type": "channel",
				"noteNumber": 51,
				"velocity": 113,
				"subtype": "noteOn"
			},
			{
				"deltaTime": 95,
				"channel": 9,
				"type": "channel",
				"subtype": "noteOff",
				"noteNumber": 51,
				"velocity": 64
			},
			{
				"deltaTime": 223,
				"channel": 9,
				"type": "channel",
				"noteNumber": 51,
				"velocity": 68,
				"subtype": "noteOn"
			},
			{
				"deltaTime": 25,
				"channel": 9,
				"type": "channel",
				"subtype": "noteOff",
				"noteNumber": 51,
				"velocity": 64
			},
			{
				"deltaTime": 144,
				"channel": 9,
				"type": "channel",
				"noteNumber": 40,
				"velocity": 127,
				"subtype": "noteOn"
			},
			{
				"deltaTime": 0,
				"channel": 9,
				"type": "channel",
				"noteNumber": 51,
				"velocity": 127,
				"subtype": "noteOn"
			},
			{
				"deltaTime": 140,
				"channel": 9,
				"type": "channel",
				"subtype": "noteOff",
				"noteNumber": 51,
				"velocity": 64
			},
			{
				"deltaTime": 73,
				"channel": 9,
				"type": "channel",
				"subtype": "noteOff",
				"noteNumber": 36,
				"velocity": 64
			},
			{
				"deltaTime": 82,
				"channel": 9,
				"type": "channel",
				"subtype": "noteOff",
				"noteNumber": 40,
				"velocity": 64
			},
			{
				"deltaTime": 8,
				"channel": 9,
				"type": "channel",
				"noteNumber": 36,
				"velocity": 72,
				"subtype": "noteOn"
			},
			{
				"deltaTime": 0,
				"channel": 9,
				"type": "channel",
				"noteNumber": 51,
				"velocity": 98,
				"subtype": "noteOn"
			},
			{
				"deltaTime": 45,
				"channel": 9,
				"type": "channel",
				"subtype": "noteOff",
				"noteNumber": 51,
				"velocity": 64
			},
			{
				"deltaTime": 10,
				"channel": 9,
				"type": "channel",
				"subtype": "noteOff",
				"noteNumber": 36,
				"velocity": 64
			},
			{
				"deltaTime": 114,
				"channel": 9,
				"type": "channel",
				"noteNumber": 36,
				"velocity": 98,
				"subtype": "noteOn"
			},
			{
				"deltaTime": 0,
				"channel": 9,
				"type": "channel",
				"noteNumber": 51,
				"velocity": 113,
				"subtype": "noteOn"
			},
			{
				"deltaTime": 90,
				"channel": 9,
				"type": "channel",
				"subtype": "noteOff",
				"noteNumber": 51,
				"velocity": 64
			},
			{
				"deltaTime": 231,
				"channel": 9,
				"type": "channel",
				"noteNumber": 40,
				"velocity": 76,
				"subtype": "noteOn"
			},
			{
				"deltaTime": 0,
				"channel": 9,
				"type": "channel",
				"noteNumber": 51,
				"velocity": 89,
				"subtype": "noteOn"
			},
			{
				"deltaTime": 35,
				"channel": 9,
				"type": "channel",
				"subtype": "noteOff",
				"noteNumber": 51,
				"velocity": 64
			},
			{
				"deltaTime": 15,
				"channel": 9,
				"type": "channel",
				"subtype": "noteOff",
				"noteNumber": 40,
				"velocity": 64
			},
			{
				"deltaTime": 113,
				"channel": 9,
				"type": "channel",
				"noteNumber": 40,
				"velocity": 107,
				"subtype": "noteOn"
			},
			{
				"deltaTime": 0,
				"channel": 9,
				"type": "channel",
				"noteNumber": 51,
				"velocity": 127,
				"subtype": "noteOn"
			},
			{
				"deltaTime": 60,
				"channel": 9,
				"type": "channel",
				"subtype": "noteOff",
				"noteNumber": 40,
				"velocity": 64
			},
			{
				"deltaTime": 60,
				"channel": 9,
				"type": "channel",
				"subtype": "noteOff",
				"noteNumber": 51,
				"velocity": 64
			},
			{
				"deltaTime": 37,
				"channel": 9,
				"type": "channel",
				"noteNumber": 40,
				"velocity": 119,
				"subtype": "noteOn"
			},
			{
				"deltaTime": 9,
				"channel": 9,
				"type": "channel",
				"subtype": "noteOff",
				"noteNumber": 36,
				"velocity": 64
			},
			{
				"deltaTime": 56,
				"channel": 9,
				"type": "channel",
				"subtype": "noteOff",
				"noteNumber": 40,
				"velocity": 64
			},
			{
				"deltaTime": 95,
				"channel": 9,
				"type": "channel",
				"noteNumber": 36,
				"velocity": 76,
				"subtype": "noteOn"
			},
			{
				"deltaTime": 0,
				"channel": 9,
				"type": "channel",
				"noteNumber": 40,
				"velocity": 127,
				"subtype": "noteOn"
			},
			{
				"deltaTime": 0,
				"channel": 9,
				"type": "channel",
				"noteNumber": 51,
				"velocity": 102,
				"subtype": "noteOn"
			},
			{
				"deltaTime": 45,
				"channel": 9,
				"type": "channel",
				"subtype": "noteOff",
				"noteNumber": 51,
				"velocity": 64
			},
			{
				"deltaTime": 20,
				"channel": 9,
				"type": "channel",
				"subtype": "noteOff",
				"noteNumber": 36,
				"velocity": 64
			},
			{
				"deltaTime": 35,
				"channel": 9,
				"type": "channel",
				"subtype": "noteOff",
				"noteNumber": 40,
				"velocity": 64
			},
			{
				"deltaTime": 60,
				"channel": 9,
				"type": "channel",
				"noteNumber": 36,
				"velocity": 76,
				"subtype": "noteOn"
			},
			{
				"deltaTime": 0,
				"channel": 9,
				"type": "channel",
				"noteNumber": 49,
				"velocity": 107,
				"subtype": "noteOn"
			},
			{
				"deltaTime": 0,
				"channel": 9,
				"type": "channel",
				"noteNumber": 51,
				"velocity": 127,
				"subtype": "noteOn"
			},
			{
				"deltaTime": 35,
				"channel": 9,
				"type": "channel",
				"subtype": "noteOff",
				"noteNumber": 49,
				"velocity": 64
			},
			{
				"deltaTime": 35,
				"channel": 9,
				"type": "channel",
				"subtype": "noteOff",
				"noteNumber": 51,
				"velocity": 64
			},
			{
				"deltaTime": 248,
				"channel": 9,
				"type": "channel",
				"noteNumber": 51,
				"velocity": 85,
				"subtype": "noteOn"
			},
			{
				"deltaTime": 20,
				"channel": 9,
				"type": "channel",
				"subtype": "noteOff",
				"noteNumber": 51,
				"velocity": 64
			},
			{
				"deltaTime": 149,
				"channel": 9,
				"type": "channel",
				"noteNumber": 40,
				"velocity": 127,
				"subtype": "noteOn"
			},
			{
				"deltaTime": 0,
				"channel": 9,
				"type": "channel",
				"noteNumber": 51,
				"velocity": 127,
				"subtype": "noteOn"
			},
			{
				"deltaTime": 110,
				"channel": 9,
				"type": "channel",
				"subtype": "noteOff",
				"noteNumber": 51,
				"velocity": 64
			},
			{
				"deltaTime": 43,
				"channel": 9,
				"type": "channel",
				"subtype": "noteOff",
				"noteNumber": 36,
				"velocity": 64
			},
			{
				"deltaTime": 150,
				"channel": 9,
				"type": "channel",
				"noteNumber": 36,
				"velocity": 93,
				"subtype": "noteOn"
			},
			{
				"deltaTime": 0,
				"channel": 9,
				"type": "channel",
				"noteNumber": 51,
				"velocity": 107,
				"subtype": "noteOn"
			},
			{
				"deltaTime": 17,
				"channel": 9,
				"type": "channel",
				"subtype": "noteOff",
				"noteNumber": 40,
				"velocity": 64
			},
			{
				"deltaTime": 28,
				"channel": 9,
				"type": "channel",
				"subtype": "noteOff",
				"noteNumber": 51,
				"velocity": 64
			},
			{
				"deltaTime": 20,
				"channel": 9,
				"type": "channel",
				"subtype": "noteOff",
				"noteNumber": 36,
				"velocity": 64
			},
			{
				"deltaTime": 104,
				"channel": 9,
				"type": "channel",
				"noteNumber": 36,
				"velocity": 93,
				"subtype": "noteOn"
			},
			{
				"deltaTime": 0,
				"channel": 9,
				"type": "channel",
				"noteNumber": 51,
				"velocity": 127,
				"subtype": "noteOn"
			},
			{
				"deltaTime": 60,
				"channel": 9,
				"type": "channel",
				"subtype": "noteOff",
				"noteNumber": 51,
				"velocity": 64
			},
			{
				"deltaTime": 261,
				"channel": 9,
				"type": "channel",
				"noteNumber": 51,
				"velocity": 98,
				"subtype": "noteOn"
			},
			{
				"deltaTime": 35,
				"channel": 9,
				"type": "channel",
				"subtype": "noteOff",
				"noteNumber": 51,
				"velocity": 64
			},
			{
				"deltaTime": 128,
				"channel": 9,
				"type": "channel",
				"noteNumber": 40,
				"velocity": 127,
				"subtype": "noteOn"
			},
			{
				"deltaTime": 0,
				"channel": 9,
				"type": "channel",
				"noteNumber": 51,
				"velocity": 127,
				"subtype": "noteOn"
			},
			{
				"deltaTime": 75,
				"channel": 9,
				"type": "channel",
				"subtype": "noteOff",
				"noteNumber": 51,
				"velocity": 64
			},
			{
				"deltaTime": 71,
				"channel": 9,
				"type": "channel",
				"subtype": "noteOff",
				"noteNumber": 36,
				"velocity": 64
			},
			{
				"deltaTime": 159,
				"channel": 9,
				"type": "channel",
				"subtype": "noteOff",
				"noteNumber": 40,
				"velocity": 64
			},
			{
				"deltaTime": 12,
				"channel": 9,
				"type": "channel",
				"noteNumber": 36,
				"velocity": 72,
				"subtype": "noteOn"
			},
			{
				"deltaTime": 0,
				"channel": 9,
				"type": "channel",
				"noteNumber": 51,
				"velocity": 113,
				"subtype": "noteOn"
			},
			{
				"deltaTime": 45,
				"channel": 9,
				"type": "channel",
				"subtype": "noteOff",
				"noteNumber": 51,
				"velocity": 64
			},
			{
				"deltaTime": 20,
				"channel": 9,
				"type": "channel",
				"subtype": "noteOff",
				"noteNumber": 36,
				"velocity": 64
			},
			{
				"deltaTime": 95,
				"channel": 9,
				"type": "channel",
				"noteNumber": 36,
				"velocity": 107,
				"subtype": "noteOn"
			},
			{
				"deltaTime": 0,
				"channel": 9,
				"type": "channel",
				"noteNumber": 51,
				"velocity": 127,
				"subtype": "noteOn"
			},
			{
				"deltaTime": 70,
				"channel": 9,
				"type": "channel",
				"subtype": "noteOff",
				"noteNumber": 51,
				"velocity": 64
			},
			{
				"deltaTime": 248,
				"channel": 9,
				"type": "channel",
				"noteNumber": 51,
				"velocity": 85,
				"subtype": "noteOn"
			},
			{
				"deltaTime": 35,
				"channel": 9,
				"type": "channel",
				"subtype": "noteOff",
				"noteNumber": 51,
				"velocity": 64
			},
			{
				"deltaTime": 134,
				"channel": 9,
				"type": "channel",
				"noteNumber": 40,
				"velocity": 127,
				"subtype": "noteOn"
			},
			{
				"deltaTime": 0,
				"channel": 9,
				"type": "channel",
				"noteNumber": 51,
				"velocity": 127,
				"subtype": "noteOn"
			},
			{
				"deltaTime": 75,
				"channel": 9,
				"type": "channel",
				"subtype": "noteOff",
				"noteNumber": 51,
				"velocity": 64
			},
			{
				"deltaTime": 78,
				"channel": 9,
				"type": "channel",
				"subtype": "noteOff",
				"noteNumber": 36,
				"velocity": 64
			},
			{
				"deltaTime": 150,
				"channel": 9,
				"type": "channel",
				"noteNumber": 36,
				"velocity": 85,
				"subtype": "noteOn"
			},
			{
				"deltaTime": 0,
				"channel": 9,
				"type": "channel",
				"noteNumber": 51,
				"velocity": 107,
				"subtype": "noteOn"
			},
			{
				"deltaTime": 32,
				"channel": 9,
				"type": "channel",
				"subtype": "noteOff",
				"noteNumber": 40,
				"velocity": 64
			},
			{
				"deltaTime": 8,
				"channel": 9,
				"type": "channel",
				"subtype": "noteOff",
				"noteNumber": 51,
				"velocity": 64
			},
			{
				"deltaTime": 25,
				"channel": 9,
				"type": "channel",
				"subtype": "noteOff",
				"noteNumber": 36,
				"velocity": 64
			},
			{
				"deltaTime": 104,
				"channel": 9,
				"type": "channel",
				"noteNumber": 36,
				"velocity": 85,
				"subtype": "noteOn"
			},
			{
				"deltaTime": 0,
				"channel": 9,
				"type": "channel",
				"noteNumber": 51,
				"velocity": 107,
				"subtype": "noteOn"
			},
			{
				"deltaTime": 55,
				"channel": 9,
				"type": "channel",
				"subtype": "noteOff",
				"noteNumber": 51,
				"velocity": 64
			},
			{
				"deltaTime": 266,
				"channel": 9,
				"type": "channel",
				"noteNumber": 51,
				"velocity": 107,
				"subtype": "noteOn"
			},
			{
				"deltaTime": 45,
				"channel": 9,
				"type": "channel",
				"subtype": "noteOff",
				"noteNumber": 51,
				"velocity": 64
			},
			{
				"deltaTime": 118,
				"channel": 9,
				"type": "channel",
				"noteNumber": 40,
				"velocity": 127,
				"subtype": "noteOn"
			},
			{
				"deltaTime": 0,
				"channel": 9,
				"type": "channel",
				"noteNumber": 51,
				"velocity": 127,
				"subtype": "noteOn"
			},
			{
				"deltaTime": 75,
				"channel": 9,
				"type": "channel",
				"subtype": "noteOff",
				"noteNumber": 51,
				"velocity": 64
			},
			{
				"deltaTime": 76,
				"channel": 9,
				"type": "channel",
				"subtype": "noteOff",
				"noteNumber": 36,
				"velocity": 64
			},
			{
				"deltaTime": 49,
				"channel": 9,
				"type": "channel",
				"subtype": "noteOff",
				"noteNumber": 40,
				"velocity": 64
			},
			{
				"deltaTime": 117,
				"channel": 9,
				"type": "channel",
				"noteNumber": 36,
				"velocity": 93,
				"subtype": "noteOn"
			},
			{
				"deltaTime": 0,
				"channel": 9,
				"type": "channel",
				"noteNumber": 51,
				"velocity": 127,
				"subtype": "noteOn"
			},
			{
				"deltaTime": 35,
				"channel": 9,
				"type": "channel",
				"subtype": "noteOff",
				"noteNumber": 51,
				"velocity": 64
			},
			{
				"deltaTime": 5,
				"channel": 9,
				"type": "channel",
				"subtype": "noteOff",
				"noteNumber": 36,
				"velocity": 64
			},
			{
				"deltaTime": 120,
				"channel": 9,
				"type": "channel",
				"noteNumber": 36,
				"velocity": 107,
				"subtype": "noteOn"
			},
			{
				"deltaTime": 0,
				"channel": 9,
				"type": "channel",
				"noteNumber": 51,
				"velocity": 127,
				"subtype": "noteOn"
			},
			{
				"deltaTime": 0,
				"channel": 9,
				"type": "channel",
				"noteNumber": 57,
				"velocity": 98,
				"subtype": "noteOn"
			},
			{
				"deltaTime": 40,
				"channel": 9,
				"type": "channel",
				"subtype": "noteOff",
				"noteNumber": 51,
				"velocity": 64
			},
			{
				"deltaTime": 0,
				"channel": 9,
				"type": "channel",
				"subtype": "noteOff",
				"noteNumber": 57,
				"velocity": 64
			},
			{
				"deltaTime": 278,
				"channel": 9,
				"type": "channel",
				"noteNumber": 51,
				"velocity": 68,
				"subtype": "noteOn"
			},
			{
				"deltaTime": 25,
				"channel": 9,
				"type": "channel",
				"subtype": "noteOff",
				"noteNumber": 51,
				"velocity": 64
			},
			{
				"deltaTime": 144,
				"channel": 9,
				"type": "channel",
				"noteNumber": 40,
				"velocity": 127,
				"subtype": "noteOn"
			},
			{
				"deltaTime": 0,
				"channel": 9,
				"type": "channel",
				"noteNumber": 51,
				"velocity": 127,
				"subtype": "noteOn"
			},
			{
				"deltaTime": 125,
				"channel": 9,
				"type": "channel",
				"subtype": "noteOff",
				"noteNumber": 51,
				"velocity": 64
			},
			{
				"deltaTime": 38,
				"channel": 9,
				"type": "channel",
				"subtype": "noteOff",
				"noteNumber": 36,
				"velocity": 64
			},
			{
				"deltaTime": 140,
				"channel": 9,
				"type": "channel",
				"noteNumber": 36,
				"velocity": 50,
				"subtype": "noteOn"
			},
			{
				"deltaTime": 0,
				"channel": 9,
				"type": "channel",
				"noteNumber": 51,
				"velocity": 102,
				"subtype": "noteOn"
			},
			{
				"deltaTime": 50,
				"channel": 9,
				"type": "channel",
				"subtype": "noteOff",
				"noteNumber": 36,
				"velocity": 64
			},
			{
				"deltaTime": 0,
				"channel": 9,
				"type": "channel",
				"subtype": "noteOff",
				"noteNumber": 51,
				"velocity": 64
			},
			{
				"deltaTime": 22,
				"channel": 9,
				"type": "channel",
				"subtype": "noteOff",
				"noteNumber": 40,
				"velocity": 64
			},
			{
				"deltaTime": 97,
				"channel": 9,
				"type": "channel",
				"noteNumber": 36,
				"velocity": 85,
				"subtype": "noteOn"
			},
			{
				"deltaTime": 0,
				"channel": 9,
				"type": "channel",
				"noteNumber": 51,
				"velocity": 113,
				"subtype": "noteOn"
			},
			{
				"deltaTime": 95,
				"channel": 9,
				"type": "channel",
				"subtype": "noteOff",
				"noteNumber": 51,
				"velocity": 64
			},
			{
				"deltaTime": 226,
				"channel": 9,
				"type": "channel",
				"noteNumber": 51,
				"velocity": 93,
				"subtype": "noteOn"
			},
			{
				"deltaTime": 35,
				"channel": 9,
				"type": "channel",
				"subtype": "noteOff",
				"noteNumber": 51,
				"velocity": 64
			},
			{
				"deltaTime": 128,
				"channel": 9,
				"type": "channel",
				"noteNumber": 40,
				"velocity": 127,
				"subtype": "noteOn"
			},
			{
				"deltaTime": 0,
				"channel": 9,
				"type": "channel",
				"noteNumber": 51,
				"velocity": 127,
				"subtype": "noteOn"
			},
			{
				"deltaTime": 120,
				"channel": 9,
				"type": "channel",
				"subtype": "noteOff",
				"noteNumber": 51,
				"velocity": 64
			},
			{
				"deltaTime": 86,
				"channel": 9,
				"type": "channel",
				"subtype": "noteOff",
				"noteNumber": 36,
				"velocity": 64
			},
			{
				"deltaTime": 94,
				"channel": 9,
				"type": "channel",
				"subtype": "noteOff",
				"noteNumber": 40,
				"velocity": 64
			},
			{
				"deltaTime": 17,
				"channel": 9,
				"type": "channel",
				"noteNumber": 36,
				"velocity": 72,
				"subtype": "noteOn"
			},
			{
				"deltaTime": 0,
				"channel": 9,
				"type": "channel",
				"noteNumber": 51,
				"velocity": 107,
				"subtype": "noteOn"
			},
			{
				"deltaTime": 55,
				"channel": 9,
				"type": "channel",
				"subtype": "noteOff",
				"noteNumber": 51,
				"velocity": 64
			},
			{
				"deltaTime": 25,
				"channel": 9,
				"type": "channel",
				"subtype": "noteOff",
				"noteNumber": 36,
				"velocity": 64
			},
			{
				"deltaTime": 80,
				"channel": 9,
				"type": "channel",
				"noteNumber": 36,
				"velocity": 80,
				"subtype": "noteOn"
			},
			{
				"deltaTime": 0,
				"channel": 9,
				"type": "channel",
				"noteNumber": 51,
				"velocity": 113,
				"subtype": "noteOn"
			},
			{
				"deltaTime": 95,
				"channel": 9,
				"type": "channel",
				"subtype": "noteOff",
				"noteNumber": 51,
				"velocity": 64
			},
			{
				"deltaTime": 223,
				"channel": 9,
				"type": "channel",
				"noteNumber": 51,
				"velocity": 68,
				"subtype": "noteOn"
			},
			{
				"deltaTime": 25,
				"channel": 9,
				"type": "channel",
				"subtype": "noteOff",
				"noteNumber": 51,
				"velocity": 64
			},
			{
				"deltaTime": 144,
				"channel": 9,
				"type": "channel",
				"noteNumber": 40,
				"velocity": 127,
				"subtype": "noteOn"
			},
			{
				"deltaTime": 0,
				"channel": 9,
				"type": "channel",
				"noteNumber": 49,
				"velocity": 113,
				"subtype": "noteOn"
			},
			{
				"deltaTime": 0,
				"channel": 9,
				"type": "channel",
				"noteNumber": 51,
				"velocity": 127,
				"subtype": "noteOn"
			},
			{
				"deltaTime": 60,
				"channel": 9,
				"type": "channel",
				"subtype": "noteOff",
				"noteNumber": 49,
				"velocity": 64
			},
			{
				"deltaTime": 80,
				"channel": 9,
				"type": "channel",
				"subtype": "noteOff",
				"noteNumber": 51,
				"velocity": 64
			},
			{
				"deltaTime": 73,
				"channel": 9,
				"type": "channel",
				"subtype": "noteOff",
				"noteNumber": 36,
				"velocity": 64
			},
			{
				"deltaTime": 82,
				"channel": 9,
				"type": "channel",
				"subtype": "noteOff",
				"noteNumber": 40,
				"velocity": 64
			},
			{
				"deltaTime": 8,
				"channel": 9,
				"type": "channel",
				"noteNumber": 36,
				"velocity": 72,
				"subtype": "noteOn"
			},
			{
				"deltaTime": 0,
				"channel": 9,
				"type": "channel",
				"noteNumber": 51,
				"velocity": 98,
				"subtype": "noteOn"
			},
			{
				"deltaTime": 45,
				"channel": 9,
				"type": "channel",
				"subtype": "noteOff",
				"noteNumber": 51,
				"velocity": 64
			},
			{
				"deltaTime": 10,
				"channel": 9,
				"type": "channel",
				"subtype": "noteOff",
				"noteNumber": 36,
				"velocity": 64
			},
			{
				"deltaTime": 114,
				"channel": 9,
				"type": "channel",
				"noteNumber": 36,
				"velocity": 98,
				"subtype": "noteOn"
			},
			{
				"deltaTime": 0,
				"channel": 9,
				"type": "channel",
				"noteNumber": 51,
				"velocity": 113,
				"subtype": "noteOn"
			},
			{
				"deltaTime": 90,
				"channel": 9,
				"type": "channel",
				"subtype": "noteOff",
				"noteNumber": 51,
				"velocity": 64
			},
			{
				"deltaTime": 231,
				"channel": 9,
				"type": "channel",
				"noteNumber": 51,
				"velocity": 89,
				"subtype": "noteOn"
			},
			{
				"deltaTime": 35,
				"channel": 9,
				"type": "channel",
				"subtype": "noteOff",
				"noteNumber": 51,
				"velocity": 64
			},
			{
				"deltaTime": 128,
				"channel": 9,
				"type": "channel",
				"noteNumber": 40,
				"velocity": 127,
				"subtype": "noteOn"
			},
			{
				"deltaTime": 0,
				"channel": 9,
				"type": "channel",
				"noteNumber": 51,
				"velocity": 127,
				"subtype": "noteOn"
			},
			{
				"deltaTime": 0,
				"channel": 9,
				"type": "channel",
				"noteNumber": 57,
				"velocity": 107,
				"subtype": "noteOn"
			},
			{
				"deltaTime": 60,
				"channel": 9,
				"type": "channel",
				"subtype": "noteOff",
				"noteNumber": 57,
				"velocity": 64
			},
			{
				"deltaTime": 60,
				"channel": 9,
				"type": "channel",
				"subtype": "noteOff",
				"noteNumber": 51,
				"velocity": 64
			},
			{
				"deltaTime": 46,
				"channel": 9,
				"type": "channel",
				"subtype": "noteOff",
				"noteNumber": 36,
				"velocity": 64
			},
			{
				"deltaTime": 144,
				"channel": 9,
				"type": "channel",
				"subtype": "noteOff",
				"noteNumber": 40,
				"velocity": 64
			},
			{
				"deltaTime": 7,
				"channel": 9,
				"type": "channel",
				"noteNumber": 36,
				"velocity": 76,
				"subtype": "noteOn"
			},
			{
				"deltaTime": 0,
				"channel": 9,
				"type": "channel",
				"noteNumber": 51,
				"velocity": 102,
				"subtype": "noteOn"
			},
			{
				"deltaTime": 45,
				"channel": 9,
				"type": "channel",
				"subtype": "noteOff",
				"noteNumber": 51,
				"velocity": 64
			},
			{
				"deltaTime": 20,
				"channel": 9,
				"type": "channel",
				"subtype": "noteOff",
				"noteNumber": 36,
				"velocity": 64
			},
			{
				"deltaTime": 95,
				"channel": 9,
				"type": "channel",
				"noteNumber": 36,
				"velocity": 76,
				"subtype": "noteOn"
			},
			{
				"deltaTime": 0,
				"channel": 9,
				"type": "channel",
				"noteNumber": 51,
				"velocity": 127,
				"subtype": "noteOn"
			},
			{
				"deltaTime": 70,
				"channel": 9,
				"type": "channel",
				"subtype": "noteOff",
				"noteNumber": 51,
				"velocity": 64
			},
			{
				"deltaTime": 248,
				"channel": 9,
				"type": "channel",
				"noteNumber": 51,
				"velocity": 85,
				"subtype": "noteOn"
			},
			{
				"deltaTime": 20,
				"channel": 9,
				"type": "channel",
				"subtype": "noteOff",
				"noteNumber": 51,
				"velocity": 64
			},
			{
				"deltaTime": 149,
				"channel": 9,
				"type": "channel",
				"noteNumber": 40,
				"velocity": 127,
				"subtype": "noteOn"
			},
			{
				"deltaTime": 0,
				"channel": 9,
				"type": "channel",
				"noteNumber": 49,
				"velocity": 113,
				"subtype": "noteOn"
			},
			{
				"deltaTime": 0,
				"channel": 9,
				"type": "channel",
				"noteNumber": 51,
				"velocity": 127,
				"subtype": "noteOn"
			},
			{
				"deltaTime": 50,
				"channel": 9,
				"type": "channel",
				"subtype": "noteOff",
				"noteNumber": 49,
				"velocity": 64
			},
			{
				"deltaTime": 60,
				"channel": 9,
				"type": "channel",
				"subtype": "noteOff",
				"noteNumber": 51,
				"velocity": 64
			},
			{
				"deltaTime": 43,
				"channel": 9,
				"type": "channel",
				"subtype": "noteOff",
				"noteNumber": 36,
				"velocity": 64
			},
			{
				"deltaTime": 150,
				"channel": 9,
				"type": "channel",
				"noteNumber": 36,
				"velocity": 93,
				"subtype": "noteOn"
			},
			{
				"deltaTime": 0,
				"channel": 9,
				"type": "channel",
				"noteNumber": 51,
				"velocity": 107,
				"subtype": "noteOn"
			},
			{
				"deltaTime": 17,
				"channel": 9,
				"type": "channel",
				"subtype": "noteOff",
				"noteNumber": 40,
				"velocity": 64
			},
			{
				"deltaTime": 28,
				"channel": 9,
				"type": "channel",
				"subtype": "noteOff",
				"noteNumber": 51,
				"velocity": 64
			},
			{
				"deltaTime": 20,
				"channel": 9,
				"type": "channel",
				"subtype": "noteOff",
				"noteNumber": 36,
				"velocity": 64
			},
			{
				"deltaTime": 104,
				"channel": 9,
				"type": "channel",
				"noteNumber": 36,
				"velocity": 93,
				"subtype": "noteOn"
			},
			{
				"deltaTime": 0,
				"channel": 9,
				"type": "channel",
				"noteNumber": 51,
				"velocity": 127,
				"subtype": "noteOn"
			},
			{
				"deltaTime": 60,
				"channel": 9,
				"type": "channel",
				"subtype": "noteOff",
				"noteNumber": 51,
				"velocity": 64
			},
			{
				"deltaTime": 261,
				"channel": 9,
				"type": "channel",
				"noteNumber": 51,
				"velocity": 98,
				"subtype": "noteOn"
			},
			{
				"deltaTime": 35,
				"channel": 9,
				"type": "channel",
				"subtype": "noteOff",
				"noteNumber": 51,
				"velocity": 64
			},
			{
				"deltaTime": 128,
				"channel": 9,
				"type": "channel",
				"noteNumber": 40,
				"velocity": 127,
				"subtype": "noteOn"
			},
			{
				"deltaTime": 0,
				"channel": 9,
				"type": "channel",
				"noteNumber": 51,
				"velocity": 127,
				"subtype": "noteOn"
			},
			{
				"deltaTime": 75,
				"channel": 9,
				"type": "channel",
				"subtype": "noteOff",
				"noteNumber": 51,
				"velocity": 64
			},
			{
				"deltaTime": 71,
				"channel": 9,
				"type": "channel",
				"subtype": "noteOff",
				"noteNumber": 36,
				"velocity": 64
			},
			{
				"deltaTime": 159,
				"channel": 9,
				"type": "channel",
				"subtype": "noteOff",
				"noteNumber": 40,
				"velocity": 64
			},
			{
				"deltaTime": 12,
				"channel": 9,
				"type": "channel",
				"noteNumber": 36,
				"velocity": 72,
				"subtype": "noteOn"
			},
			{
				"deltaTime": 0,
				"channel": 9,
				"type": "channel",
				"noteNumber": 51,
				"velocity": 113,
				"subtype": "noteOn"
			},
			{
				"deltaTime": 45,
				"channel": 9,
				"type": "channel",
				"subtype": "noteOff",
				"noteNumber": 51,
				"velocity": 64
			},
			{
				"deltaTime": 20,
				"channel": 9,
				"type": "channel",
				"subtype": "noteOff",
				"noteNumber": 36,
				"velocity": 64
			},
			{
				"deltaTime": 95,
				"channel": 9,
				"type": "channel",
				"noteNumber": 36,
				"velocity": 107,
				"subtype": "noteOn"
			},
			{
				"deltaTime": 0,
				"channel": 9,
				"type": "channel",
				"noteNumber": 51,
				"velocity": 127,
				"subtype": "noteOn"
			},
			{
				"deltaTime": 70,
				"channel": 9,
				"type": "channel",
				"subtype": "noteOff",
				"noteNumber": 51,
				"velocity": 64
			},
			{
				"deltaTime": 248,
				"channel": 9,
				"type": "channel",
				"noteNumber": 51,
				"velocity": 85,
				"subtype": "noteOn"
			},
			{
				"deltaTime": 35,
				"channel": 9,
				"type": "channel",
				"subtype": "noteOff",
				"noteNumber": 51,
				"velocity": 64
			},
			{
				"deltaTime": 134,
				"channel": 9,
				"type": "channel",
				"noteNumber": 40,
				"velocity": 127,
				"subtype": "noteOn"
			},
			{
				"deltaTime": 0,
				"channel": 9,
				"type": "channel",
				"noteNumber": 51,
				"velocity": 127,
				"subtype": "noteOn"
			},
			{
				"deltaTime": 0,
				"channel": 9,
				"type": "channel",
				"noteNumber": 57,
				"velocity": 107,
				"subtype": "noteOn"
			},
			{
				"deltaTime": 40,
				"channel": 9,
				"type": "channel",
				"subtype": "noteOff",
				"noteNumber": 57,
				"velocity": 64
			},
			{
				"deltaTime": 35,
				"channel": 9,
				"type": "channel",
				"subtype": "noteOff",
				"noteNumber": 51,
				"velocity": 64
			},
			{
				"deltaTime": 78,
				"channel": 9,
				"type": "channel",
				"subtype": "noteOff",
				"noteNumber": 36,
				"velocity": 64
			},
			{
				"deltaTime": 150,
				"channel": 9,
				"type": "channel",
				"noteNumber": 36,
				"velocity": 85,
				"subtype": "noteOn"
			},
			{
				"deltaTime": 0,
				"channel": 9,
				"type": "channel",
				"noteNumber": 51,
				"velocity": 107,
				"subtype": "noteOn"
			},
			{
				"deltaTime": 32,
				"channel": 9,
				"type": "channel",
				"subtype": "noteOff",
				"noteNumber": 40,
				"velocity": 64
			},
			{
				"deltaTime": 8,
				"channel": 9,
				"type": "channel",
				"subtype": "noteOff",
				"noteNumber": 51,
				"velocity": 64
			},
			{
				"deltaTime": 25,
				"channel": 9,
				"type": "channel",
				"subtype": "noteOff",
				"noteNumber": 36,
				"velocity": 64
			},
			{
				"deltaTime": 104,
				"channel": 9,
				"type": "channel",
				"noteNumber": 36,
				"velocity": 85,
				"subtype": "noteOn"
			},
			{
				"deltaTime": 0,
				"channel": 9,
				"type": "channel",
				"noteNumber": 51,
				"velocity": 107,
				"subtype": "noteOn"
			},
			{
				"deltaTime": 55,
				"channel": 9,
				"type": "channel",
				"subtype": "noteOff",
				"noteNumber": 51,
				"velocity": 64
			},
			{
				"deltaTime": 266,
				"channel": 9,
				"type": "channel",
				"noteNumber": 51,
				"velocity": 107,
				"subtype": "noteOn"
			},
			{
				"deltaTime": 45,
				"channel": 9,
				"type": "channel",
				"subtype": "noteOff",
				"noteNumber": 51,
				"velocity": 64
			},
			{
				"deltaTime": 118,
				"channel": 9,
				"type": "channel",
				"noteNumber": 40,
				"velocity": 127,
				"subtype": "noteOn"
			},
			{
				"deltaTime": 0,
				"channel": 9,
				"type": "channel",
				"noteNumber": 51,
				"velocity": 127,
				"subtype": "noteOn"
			},
			{
				"deltaTime": 75,
				"channel": 9,
				"type": "channel",
				"subtype": "noteOff",
				"noteNumber": 51,
				"velocity": 64
			},
			{
				"deltaTime": 76,
				"channel": 9,
				"type": "channel",
				"subtype": "noteOff",
				"noteNumber": 36,
				"velocity": 64
			},
			{
				"deltaTime": 49,
				"channel": 9,
				"type": "channel",
				"subtype": "noteOff",
				"noteNumber": 40,
				"velocity": 64
			},
			{
				"deltaTime": 117,
				"channel": 9,
				"type": "channel",
				"noteNumber": 36,
				"velocity": 93,
				"subtype": "noteOn"
			},
			{
				"deltaTime": 0,
				"channel": 9,
				"type": "channel",
				"noteNumber": 51,
				"velocity": 127,
				"subtype": "noteOn"
			},
			{
				"deltaTime": 35,
				"channel": 9,
				"type": "channel",
				"subtype": "noteOff",
				"noteNumber": 51,
				"velocity": 64
			},
			{
				"deltaTime": 5,
				"channel": 9,
				"type": "channel",
				"subtype": "noteOff",
				"noteNumber": 36,
				"velocity": 64
			},
			{
				"deltaTime": 120,
				"channel": 9,
				"type": "channel",
				"noteNumber": 36,
				"velocity": 107,
				"subtype": "noteOn"
			},
			{
				"deltaTime": 0,
				"channel": 9,
				"type": "channel",
				"noteNumber": 49,
				"velocity": 102,
				"subtype": "noteOn"
			},
			{
				"deltaTime": 0,
				"channel": 9,
				"type": "channel",
				"noteNumber": 51,
				"velocity": 127,
				"subtype": "noteOn"
			},
			{
				"deltaTime": 40,
				"channel": 9,
				"type": "channel",
				"subtype": "noteOff",
				"noteNumber": 51,
				"velocity": 64
			},
			{
				"deltaTime": 10,
				"channel": 9,
				"type": "channel",
				"subtype": "noteOff",
				"noteNumber": 49,
				"velocity": 64
			},
			{
				"deltaTime": 268,
				"channel": 9,
				"type": "channel",
				"noteNumber": 51,
				"velocity": 68,
				"subtype": "noteOn"
			},
			{
				"deltaTime": 25,
				"channel": 9,
				"type": "channel",
				"subtype": "noteOff",
				"noteNumber": 51,
				"velocity": 64
			},
			{
				"deltaTime": 144,
				"channel": 9,
				"type": "channel",
				"noteNumber": 40,
				"velocity": 127,
				"subtype": "noteOn"
			},
			{
				"deltaTime": 0,
				"channel": 9,
				"type": "channel",
				"noteNumber": 51,
				"velocity": 127,
				"subtype": "noteOn"
			},
			{
				"deltaTime": 125,
				"channel": 9,
				"type": "channel",
				"subtype": "noteOff",
				"noteNumber": 51,
				"velocity": 64
			},
			{
				"deltaTime": 38,
				"channel": 9,
				"type": "channel",
				"subtype": "noteOff",
				"noteNumber": 36,
				"velocity": 64
			},
			{
				"deltaTime": 140,
				"channel": 9,
				"type": "channel",
				"noteNumber": 36,
				"velocity": 50,
				"subtype": "noteOn"
			},
			{
				"deltaTime": 0,
				"channel": 9,
				"type": "channel",
				"noteNumber": 51,
				"velocity": 102,
				"subtype": "noteOn"
			},
			{
				"deltaTime": 50,
				"channel": 9,
				"type": "channel",
				"subtype": "noteOff",
				"noteNumber": 36,
				"velocity": 64
			},
			{
				"deltaTime": 0,
				"channel": 9,
				"type": "channel",
				"subtype": "noteOff",
				"noteNumber": 51,
				"velocity": 64
			},
			{
				"deltaTime": 22,
				"channel": 9,
				"type": "channel",
				"subtype": "noteOff",
				"noteNumber": 40,
				"velocity": 64
			},
			{
				"deltaTime": 97,
				"channel": 9,
				"type": "channel",
				"noteNumber": 36,
				"velocity": 85,
				"subtype": "noteOn"
			},
			{
				"deltaTime": 0,
				"channel": 9,
				"type": "channel",
				"noteNumber": 51,
				"velocity": 113,
				"subtype": "noteOn"
			},
			{
				"deltaTime": 95,
				"channel": 9,
				"type": "channel",
				"subtype": "noteOff",
				"noteNumber": 51,
				"velocity": 64
			},
			{
				"deltaTime": 226,
				"channel": 9,
				"type": "channel",
				"noteNumber": 51,
				"velocity": 93,
				"subtype": "noteOn"
			},
			{
				"deltaTime": 35,
				"channel": 9,
				"type": "channel",
				"subtype": "noteOff",
				"noteNumber": 51,
				"velocity": 64
			},
			{
				"deltaTime": 128,
				"channel": 9,
				"type": "channel",
				"noteNumber": 40,
				"velocity": 127,
				"subtype": "noteOn"
			},
			{
				"deltaTime": 0,
				"channel": 9,
				"type": "channel",
				"noteNumber": 51,
				"velocity": 127,
				"subtype": "noteOn"
			},
			{
				"deltaTime": 120,
				"channel": 9,
				"type": "channel",
				"subtype": "noteOff",
				"noteNumber": 51,
				"velocity": 64
			},
			{
				"deltaTime": 86,
				"channel": 9,
				"type": "channel",
				"subtype": "noteOff",
				"noteNumber": 36,
				"velocity": 64
			},
			{
				"deltaTime": 94,
				"channel": 9,
				"type": "channel",
				"subtype": "noteOff",
				"noteNumber": 40,
				"velocity": 64
			},
			{
				"deltaTime": 17,
				"channel": 9,
				"type": "channel",
				"noteNumber": 36,
				"velocity": 72,
				"subtype": "noteOn"
			},
			{
				"deltaTime": 0,
				"channel": 9,
				"type": "channel",
				"noteNumber": 51,
				"velocity": 107,
				"subtype": "noteOn"
			},
			{
				"deltaTime": 55,
				"channel": 9,
				"type": "channel",
				"subtype": "noteOff",
				"noteNumber": 51,
				"velocity": 64
			},
			{
				"deltaTime": 25,
				"channel": 9,
				"type": "channel",
				"subtype": "noteOff",
				"noteNumber": 36,
				"velocity": 64
			},
			{
				"deltaTime": 80,
				"channel": 9,
				"type": "channel",
				"noteNumber": 36,
				"velocity": 107,
				"subtype": "noteOn"
			},
			{
				"deltaTime": 0,
				"channel": 9,
				"type": "channel",
				"noteNumber": 46,
				"velocity": 113,
				"subtype": "noteOn"
			},
			{
				"deltaTime": 40,
				"channel": 9,
				"type": "channel",
				"subtype": "noteOff",
				"noteNumber": 46,
				"velocity": 64
			},
			{
				"deltaTime": 90,
				"channel": 9,
				"type": "channel",
				"subtype": "noteOff",
				"noteNumber": 36,
				"velocity": 64
			},
			{
				"deltaTime": 188,
				"channel": 9,
				"type": "channel",
				"noteNumber": 36,
				"velocity": 72,
				"subtype": "noteOn"
			},
			{
				"deltaTime": 40,
				"channel": 9,
				"type": "channel",
				"subtype": "noteOff",
				"noteNumber": 36,
				"velocity": 64
			},
			{
				"deltaTime": 129,
				"channel": 9,
				"type": "channel",
				"noteNumber": 36,
				"velocity": 107,
				"subtype": "noteOn"
			},
			{
				"deltaTime": 0,
				"channel": 9,
				"type": "channel",
				"noteNumber": 40,
				"velocity": 127,
				"subtype": "noteOn"
			},
			{
				"deltaTime": 0,
				"channel": 9,
				"type": "channel",
				"noteNumber": 57,
				"velocity": 113,
				"subtype": "noteOn"
			},
			{
				"deltaTime": 115,
				"channel": 9,
				"type": "channel",
				"subtype": "noteOff",
				"noteNumber": 57,
				"velocity": 64
			},
			{
				"deltaTime": 45,
				"channel": 9,
				"type": "channel",
				"subtype": "noteOff",
				"noteNumber": 40,
				"velocity": 64
			},
			{
				"deltaTime": 5,
				"channel": 9,
				"type": "channel",
				"subtype": "noteOff",
				"noteNumber": 36,
				"velocity": 64
			},
			{
				"deltaTime": 138,
				"channel": 9,
				"type": "channel",
				"noteNumber": 36,
				"velocity": 119,
				"subtype": "noteOn"
			},
			{
				"deltaTime": 0,
				"channel": 9,
				"type": "channel",
				"noteNumber": 40,
				"velocity": 127,
				"subtype": "noteOn"
			},
			{
				"deltaTime": 0,
				"channel": 9,
				"type": "channel",
				"noteNumber": 49,
				"velocity": 127,
				"subtype": "noteOn"
			},
			{
				"deltaTime": 55,
				"channel": 9,
				"type": "channel",
				"subtype": "noteOff",
				"noteNumber": 49,
				"velocity": 64
			},
			{
				"deltaTime": 345,
				"channel": 9,
				"type": "channel",
				"subtype": "noteOff",
				"noteNumber": 40,
				"velocity": 64
			},
			{
				"deltaTime": 5,
				"channel": 9,
				"type": "channel",
				"subtype": "noteOff",
				"noteNumber": 36,
				"velocity": 64
			},
			{
				"deltaTime": 2645,
				"channel": 9,
				"type": "channel",
				"noteNumber": 36,
				"velocity": 127,
				"subtype": "noteOn"
			},
			{
				"deltaTime": 0,
				"channel": 9,
				"type": "channel",
				"noteNumber": 40,
				"velocity": 127,
				"subtype": "noteOn"
			},
			{
				"deltaTime": 170,
				"channel": 9,
				"type": "channel",
				"subtype": "noteOff",
				"noteNumber": 40,
				"velocity": 64
			},
			{
				"deltaTime": 10,
				"channel": 9,
				"type": "channel",
				"subtype": "noteOff",
				"noteNumber": 36,
				"velocity": 64
			},
			{
				"deltaTime": 0,
				"type": "meta",
				"subtype": "endOfTrack"
			}
		]
	]
}