{"header":{"formatType":1,"trackCount":3,"ticksPerBeat":128},"tracks":[[{"deltaTime":0,"type":"meta","subtype":"timeSignature","numerator":4,"denominator":4,"metronome":24,"thirtyseconds":8,"realTime":0,"sortKey":2},{"deltaTime":0,"type":"meta","subtype":"setTempo","microsecondsPerBeat":555554,"realTime":0,"sortKey":1},{"deltaTime":0,"type":"meta","subtype":"endOfTrack"}],[{"deltaTime":null,"channel":9,"type":"channel","noteNumber":35,"velocity":114,"subtype":"noteOn","realTime":7168,"sortKey":421},{"deltaTime":0,"channel":9,"type":"channel","noteNumber":49,"velocity":126,"subtype":"noteOn","realTime":7168,"sortKey":422},{"deltaTime":16,"channel":9,"type":"channel","subtype":"noteOff","noteNumber":35,"velocity":64,"realTime":7184,"sortKey":423},{"deltaTime":0,"channel":9,"type":"channel","subtype":"noteOff","noteNumber":49,"velocity":64,"realTime":7184,"sortKey":424},{"deltaTime":54,"channel":9,"type":"channel","noteNumber":42,"velocity":55,"subtype":"noteOn","realTime":7238,"sortKey":425},{"deltaTime":0,"channel":9,"type":"channel","noteNumber":35,"velocity":100,"subtype":"noteOn","realTime":7238,"sortKey":426},{"deltaTime":16,"channel":9,"type":"channel","subtype":"noteOff","noteNumber":42,"velocity":64,"realTime":7254,"sortKey":427},{"deltaTime":0,"channel":9,"type":"channel","subtype":"noteOff","noteNumber":35,"velocity":64,"realTime":7254,"sortKey":428},{"deltaTime":46,"channel":9,"type":"channel","noteNumber":38,"velocity":115,"subtype":"noteOn","realTime":7300,"sortKey":429},{"deltaTime":1,"channel":9,"type":"channel","noteNumber":42,"velocity":97,"subtype":"noteOn","realTime":7301,"sortKey":430},{"deltaTime":15,"channel":9,"type":"channel","subtype":"noteOff","noteNumber":38,"velocity":64,"realTime":7316,"sortKey":431},{"deltaTime":1,"channel":9,"type":"channel","subtype":"noteOff","noteNumber":42,"velocity":64,"realTime":7317,"sortKey":432},{"deltaTime":48,"channel":9,"type":"channel","noteNumber":42,"velocity":46,"subtype":"noteOn","realTime":7365,"sortKey":433},{"deltaTime":16,"channel":9,"type":"channel","subtype":"noteOff","noteNumber":42,"velocity":64,"realTime":7381,"sortKey":434},{"deltaTime":25,"channel":9,"type":"channel","noteNumber":38,"velocity":104,"subtype":"noteOn","realTime":7406,"sortKey":435},{"deltaTime":16,"channel":9,"type":"channel","subtype":"noteOff","noteNumber":38,"velocity":64,"realTime":7422,"sortKey":436},{"deltaTime":6,"channel":9,"type":"channel","noteNumber":42,"velocity":81,"subtype":"noteOn","realTime":7428,"sortKey":437},{"deltaTime":1,"channel":9,"type":"channel","noteNumber":35,"velocity":100,"subtype":"noteOn","realTime":7429,"sortKey":438},{"deltaTime":15,"channel":9,"type":"channel","subtype":"noteOff","noteNumber":42,"velocity":64,"realTime":7444,"sortKey":439},{"deltaTime":1,"channel":9,"type":"channel","subtype":"noteOff","noteNumber":35,"velocity":64,"realTime":7445,"sortKey":440},{"deltaTime":50,"channel":9,"type":"channel","noteNumber":42,"velocity":55,"subtype":"noteOn","realTime":7495,"sortKey":441},{"deltaTime":2,"channel":9,"type":"channel","noteNumber":35,"velocity":99,"subtype":"noteOn","realTime":7497,"sortKey":442},{"deltaTime":14,"channel":9,"type":"channel","subtype":"noteOff","noteNumber":42,"velocity":64,"realTime":7511,"sortKey":443},{"deltaTime":2,"channel":9,"type":"channel","subtype":"noteOff","noteNumber":35,"velocity":64,"realTime":7513,"sortKey":444},{"deltaTime":43,"channel":9,"type":"channel","noteNumber":38,"velocity":113,"subtype":"noteOn","realTime":7556,"sortKey":445},{"deltaTime":1,"channel":9,"type":"channel","noteNumber":42,"velocity":87,"subtype":"noteOn","realTime":7557,"sortKey":446},{"deltaTime":15,"channel":9,"type":"channel","subtype":"noteOff","noteNumber":38,"velocity":64,"realTime":7572,"sortKey":447},{"deltaTime":1,"channel":9,"type":"channel","subtype":"noteOff","noteNumber":42,"velocity":64,"realTime":7573,"sortKey":448},{"deltaTime":48,"channel":9,"type":"channel","noteNumber":42,"velocity":54,"subtype":"noteOn","realTime":7621,"sortKey":449},{"deltaTime":16,"channel":9,"type":"channel","subtype":"noteOff","noteNumber":42,"velocity":64,"realTime":7637,"sortKey":450},{"deltaTime":23,"channel":9,"type":"channel","noteNumber":38,"velocity":99,"subtype":"noteOn","realTime":7660,"sortKey":451},{"deltaTime":16,"channel":9,"type":"channel","subtype":"noteOff","noteNumber":38,"velocity":64,"realTime":7676,"sortKey":452},{"deltaTime":8,"channel":9,"type":"channel","noteNumber":35,"velocity":110,"subtype":"noteOn","realTime":7684,"sortKey":453},{"deltaTime":0,"channel":9,"type":"channel","noteNumber":42,"velocity":77,"subtype":"noteOn","realTime":7684,"sortKey":454},{"deltaTime":16,"channel":9,"type":"channel","subtype":"noteOff","noteNumber":35,"velocity":64,"realTime":7700,"sortKey":455},{"deltaTime":0,"channel":9,"type":"channel","subtype":"noteOff","noteNumber":42,"velocity":64,"realTime":7700,"sortKey":456},{"deltaTime":51,"channel":9,"type":"channel","noteNumber":42,"velocity":56,"subtype":"noteOn","realTime":7751,"sortKey":457},{"deltaTime":1,"channel":9,"type":"channel","noteNumber":35,"velocity":102,"subtype":"noteOn","realTime":7752,"sortKey":458},{"deltaTime":15,"channel":9,"type":"channel","subtype":"noteOff","noteNumber":42,"velocity":64,"realTime":7767,"sortKey":459},{"deltaTime":1,"channel":9,"type":"channel","subtype":"noteOff","noteNumber":35,"velocity":64,"realTime":7768,"sortKey":460},{"deltaTime":43,"channel":9,"type":"channel","noteNumber":38,"velocity":118,"subtype":"noteOn","realTime":7811,"sortKey":461},{"deltaTime":2,"channel":9,"type":"channel","noteNumber":42,"velocity":89,"subtype":"noteOn","realTime":7813,"sortKey":462},{"deltaTime":14,"channel":9,"type":"channel","subtype":"noteOff","noteNumber":38,"velocity":64,"realTime":7827,"sortKey":463},{"deltaTime":2,"channel":9,"type":"channel","subtype":"noteOff","noteNumber":42,"velocity":64,"realTime":7829,"sortKey":464},{"deltaTime":47,"channel":9,"type":"channel","noteNumber":42,"velocity":54,"subtype":"noteOn","realTime":7876,"sortKey":465},{"deltaTime":16,"channel":9,"type":"channel","subtype":"noteOff","noteNumber":42,"velocity":64,"realTime":7892,"sortKey":466},{"deltaTime":20,"channel":9,"type":"channel","noteNumber":38,"velocity":101,"subtype":"noteOn","realTime":7912,"sortKey":467},{"deltaTime":16,"channel":9,"type":"channel","subtype":"noteOff","noteNumber":38,"velocity":64,"realTime":7928,"sortKey":468},{"deltaTime":12,"channel":9,"type":"channel","noteNumber":42,"velocity":84,"subtype":"noteOn","realTime":7940,"sortKey":469},{"deltaTime":1,"channel":9,"type":"channel","noteNumber":35,"velocity":102,"subtype":"noteOn","realTime":7941,"sortKey":470},{"deltaTime":15,"channel":9,"type":"channel","subtype":"noteOff","noteNumber":42,"velocity":64,"realTime":7956,"sortKey":471},{"deltaTime":1,"channel":9,"type":"channel","subtype":"noteOff","noteNumber":35,"velocity":64,"realTime":7957,"sortKey":472},{"deltaTime":49,"channel":9,"type":"channel","noteNumber":35,"velocity":100,"subtype":"noteOn","realTime":8006,"sortKey":473},{"deltaTime":0,"channel":9,"type":"channel","noteNumber":42,"velocity":45,"subtype":"noteOn","realTime":8006,"sortKey":474},{"deltaTime":16,"channel":9,"type":"channel","subtype":"noteOff","noteNumber":35,"velocity":64,"realTime":8022,"sortKey":475},{"deltaTime":0,"channel":9,"type":"channel","subtype":"noteOff","noteNumber":42,"velocity":64,"realTime":8022,"sortKey":476},{"deltaTime":45,"channel":9,"type":"channel","noteNumber":38,"velocity":112,"subtype":"noteOn","realTime":8067,"sortKey":477},{"deltaTime":1,"channel":9,"type":"channel","noteNumber":42,"velocity":103,"subtype":"noteOn","realTime":8068,"sortKey":478},{"deltaTime":15,"channel":9,"type":"channel","subtype":"noteOff","noteNumber":38,"velocity":64,"realTime":8083,"sortKey":479},{"deltaTime":1,"channel":9,"type":"channel","subtype":"noteOff","noteNumber":42,"velocity":64,"realTime":8084,"sortKey":480},{"deltaTime":48,"channel":9,"type":"channel","noteNumber":42,"velocity":41,"subtype":"noteOn","realTime":8132,"sortKey":481},{"deltaTime":16,"channel":9,"type":"channel","subtype":"noteOff","noteNumber":42,"velocity":64,"realTime":8148,"sortKey":482},{"deltaTime":18,"channel":9,"type":"channel","noteNumber":38,"velocity":102,"subtype":"noteOn","realTime":8166,"sortKey":483},{"deltaTime":16,"channel":9,"type":"channel","subtype":"noteOff","noteNumber":38,"velocity":64,"realTime":8182,"sortKey":484},{"deltaTime":12,"channel":9,"type":"channel","noteNumber":35,"velocity":112,"subtype":"noteOn","realTime":8194,"sortKey":485},{"deltaTime":1,"channel":9,"type":"channel","noteNumber":42,"velocity":79,"subtype":"noteOn","realTime":8195,"sortKey":486},{"deltaTime":15,"channel":9,"type":"channel","subtype":"noteOff","noteNumber":35,"velocity":64,"realTime":8210,"sortKey":487},{"deltaTime":1,"channel":9,"type":"channel","subtype":"noteOff","noteNumber":42,"velocity":64,"realTime":8211,"sortKey":488},{"deltaTime":50,"channel":9,"type":"channel","noteNumber":42,"velocity":57,"subtype":"noteOn","realTime":8261,"sortKey":489},{"deltaTime":0,"channel":9,"type":"channel","noteNumber":35,"velocity":100,"subtype":"noteOn","realTime":8261,"sortKey":490},{"deltaTime":16,"channel":9,"type":"channel","subtype":"noteOff","noteNumber":42,"velocity":64,"realTime":8277,"sortKey":491},{"deltaTime":0,"channel":9,"type":"channel","subtype":"noteOff","noteNumber":35,"velocity":64,"realTime":8277,"sortKey":492},{"deltaTime":45,"channel":9,"type":"channel","noteNumber":38,"velocity":117,"subtype":"noteOn","realTime":8322,"sortKey":493},{"deltaTime":1,"channel":9,"type":"channel","noteNumber":42,"velocity":95,"subtype":"noteOn","realTime":8323,"sortKey":494},{"deltaTime":15,"channel":9,"type":"channel","subtype":"noteOff","noteNumber":38,"velocity":64,"realTime":8338,"sortKey":495},{"deltaTime":1,"channel":9,"type":"channel","subtype":"noteOff","noteNumber":42,"velocity":64,"realTime":8339,"sortKey":496},{"deltaTime":48,"channel":9,"type":"channel","noteNumber":42,"velocity":51,"subtype":"noteOn","realTime":8387,"sortKey":497},{"deltaTime":16,"channel":9,"type":"channel","subtype":"noteOff","noteNumber":42,"velocity":64,"realTime":8403,"sortKey":498},{"deltaTime":20,"channel":9,"type":"channel","noteNumber":38,"velocity":103,"subtype":"noteOn","realTime":8423,"sortKey":499},{"deltaTime":16,"channel":9,"type":"channel","subtype":"noteOff","noteNumber":38,"velocity":64,"realTime":8439,"sortKey":500},{"deltaTime":12,"channel":9,"type":"channel","noteNumber":35,"velocity":104,"subtype":"noteOn","realTime":8451,"sortKey":501},{"deltaTime":2,"channel":9,"type":"channel","noteNumber":42,"velocity":79,"subtype":"noteOn","realTime":8453,"sortKey":502},{"deltaTime":14,"channel":9,"type":"channel","subtype":"noteOff","noteNumber":35,"velocity":64,"realTime":8467,"sortKey":503},{"deltaTime":2,"channel":9,"type":"channel","subtype":"noteOff","noteNumber":42,"velocity":64,"realTime":8469,"sortKey":504},{"deltaTime":48,"channel":9,"type":"channel","noteNumber":35,"velocity":101,"subtype":"noteOn","realTime":8517,"sortKey":505},{"deltaTime":0,"channel":9,"type":"channel","noteNumber":42,"velocity":60,"subtype":"noteOn","realTime":8517,"sortKey":506},{"deltaTime":16,"channel":9,"type":"channel","subtype":"noteOff","noteNumber":35,"velocity":64,"realTime":8533,"sortKey":507},{"deltaTime":0,"channel":9,"type":"channel","subtype":"noteOff","noteNumber":42,"velocity":64,"realTime":8533,"sortKey":508},{"deltaTime":46,"channel":9,"type":"channel","noteNumber":38,"velocity":116,"subtype":"noteOn","realTime":8579,"sortKey":509},{"deltaTime":2,"channel":9,"type":"channel","noteNumber":42,"velocity":87,"subtype":"noteOn","realTime":8581,"sortKey":510},{"deltaTime":14,"channel":9,"type":"channel","subtype":"noteOff","noteNumber":38,"velocity":64,"realTime":8595,"sortKey":511},{"deltaTime":2,"channel":9,"type":"channel","subtype":"noteOff","noteNumber":42,"velocity":64,"realTime":8597,"sortKey":512},{"deltaTime":47,"channel":9,"type":"channel","noteNumber":42,"velocity":48,"subtype":"noteOn","realTime":8644,"sortKey":513},{"deltaTime":16,"channel":9,"type":"channel","subtype":"noteOff","noteNumber":42,"velocity":64,"realTime":8660,"sortKey":514},{"deltaTime":22,"channel":9,"type":"channel","noteNumber":38,"velocity":93,"subtype":"noteOn","realTime":8682,"sortKey":515},{"deltaTime":16,"channel":9,"type":"channel","subtype":"noteOff","noteNumber":38,"velocity":64,"realTime":8698,"sortKey":516},{"deltaTime":10,"channel":9,"type":"channel","noteNumber":35,"velocity":108,"subtype":"noteOn","realTime":8708,"sortKey":517},{"deltaTime":0,"channel":9,"type":"channel","noteNumber":42,"velocity":85,"subtype":"noteOn","realTime":8708,"sortKey":518},{"deltaTime":16,"channel":9,"type":"channel","subtype":"noteOff","noteNumber":35,"velocity":64,"realTime":8724,"sortKey":519},{"deltaTime":0,"channel":9,"type":"channel","subtype":"noteOff","noteNumber":42,"velocity":64,"realTime":8724,"sortKey":520},{"deltaTime":51,"channel":9,"type":"channel","noteNumber":42,"velocity":49,"subtype":"noteOn","realTime":8775,"sortKey":521},{"deltaTime":0,"channel":9,"type":"channel","noteNumber":35,"velocity":98,"subtype":"noteOn","realTime":8775,"sortKey":522},{"deltaTime":16,"channel":9,"type":"channel","subtype":"noteOff","noteNumber":42,"velocity":64,"realTime":8791,"sortKey":523},{"deltaTime":0,"channel":9,"type":"channel","subtype":"noteOff","noteNumber":35,"velocity":64,"realTime":8791,"sortKey":524},{"deltaTime":43,"channel":9,"type":"channel","noteNumber":38,"velocity":113,"subtype":"noteOn","realTime":8834,"sortKey":525},{"deltaTime":2,"channel":9,"type":"channel","noteNumber":42,"velocity":91,"subtype":"noteOn","realTime":8836,"sortKey":526},{"deltaTime":14,"channel":9,"type":"channel","subtype":"noteOff","noteNumber":38,"velocity":64,"realTime":8850,"sortKey":527},{"deltaTime":2,"channel":9,"type":"channel","subtype":"noteOff","noteNumber":42,"velocity":64,"realTime":8852,"sortKey":528},{"deltaTime":46,"channel":9,"type":"channel","noteNumber":42,"velocity":49,"subtype":"noteOn","realTime":8898,"sortKey":529},{"deltaTime":16,"channel":9,"type":"channel","subtype":"noteOff","noteNumber":42,"velocity":64,"realTime":8914,"sortKey":530},{"deltaTime":25,"channel":9,"type":"channel","noteNumber":38,"velocity":98,"subtype":"noteOn","realTime":8939,"sortKey":531},{"deltaTime":16,"channel":9,"type":"channel","subtype":"noteOff","noteNumber":38,"velocity":64,"realTime":8955,"sortKey":532},{"deltaTime":8,"channel":9,"type":"channel","noteNumber":42,"velocity":74,"subtype":"noteOn","realTime":8963,"sortKey":533},{"deltaTime":1,"channel":9,"type":"channel","noteNumber":35,"velocity":101,"subtype":"noteOn","realTime":8964,"sortKey":534},{"deltaTime":15,"channel":9,"type":"channel","subtype":"noteOff","noteNumber":42,"velocity":64,"realTime":8979,"sortKey":535},{"deltaTime":1,"channel":9,"type":"channel","subtype":"noteOff","noteNumber":35,"velocity":64,"realTime":8980,"sortKey":536},{"deltaTime":48,"channel":9,"type":"channel","noteNumber":35,"velocity":100,"subtype":"noteOn","realTime":9028,"sortKey":537},{"deltaTime":1,"channel":9,"type":"channel","noteNumber":42,"velocity":59,"subtype":"noteOn","realTime":9029,"sortKey":538},{"deltaTime":15,"channel":9,"type":"channel","subtype":"noteOff","noteNumber":35,"velocity":64,"realTime":9044,"sortKey":539},{"deltaTime":1,"channel":9,"type":"channel","subtype":"noteOff","noteNumber":42,"velocity":64,"realTime":9045,"sortKey":540},{"deltaTime":46,"channel":9,"type":"channel","noteNumber":38,"velocity":119,"subtype":"noteOn","realTime":9091,"sortKey":541},{"deltaTime":1,"channel":9,"type":"channel","noteNumber":42,"velocity":86,"subtype":"noteOn","realTime":9092,"sortKey":542},{"deltaTime":15,"channel":9,"type":"channel","subtype":"noteOff","noteNumber":38,"velocity":64,"realTime":9107,"sortKey":543},{"deltaTime":1,"channel":9,"type":"channel","subtype":"noteOff","noteNumber":42,"velocity":64,"realTime":9108,"sortKey":544},{"deltaTime":47,"channel":9,"type":"channel","noteNumber":42,"velocity":52,"subtype":"noteOn","realTime":9155,"sortKey":545},{"deltaTime":16,"channel":9,"type":"channel","subtype":"noteOff","noteNumber":42,"velocity":64,"realTime":9171,"sortKey":546},{"deltaTime":21,"channel":9,"type":"channel","noteNumber":38,"velocity":97,"subtype":"noteOn","realTime":9192,"sortKey":547},{"deltaTime":16,"channel":9,"type":"channel","subtype":"noteOff","noteNumber":38,"velocity":64,"realTime":9208,"sortKey":548},{"deltaTime":11,"channel":9,"type":"channel","noteNumber":35,"velocity":109,"subtype":"noteOn","realTime":9219,"sortKey":549},{"deltaTime":1,"channel":9,"type":"channel","noteNumber":42,"velocity":77,"subtype":"noteOn","realTime":9220,"sortKey":550},{"deltaTime":15,"channel":9,"type":"channel","subtype":"noteOff","noteNumber":35,"velocity":64,"realTime":9235,"sortKey":551},{"deltaTime":1,"channel":9,"type":"channel","subtype":"noteOff","noteNumber":42,"velocity":64,"realTime":9236,"sortKey":552},{"deltaTime":50,"channel":9,"type":"channel","noteNumber":35,"velocity":99,"subtype":"noteOn","realTime":9286,"sortKey":553},{"deltaTime":1,"channel":9,"type":"channel","noteNumber":42,"velocity":53,"subtype":"noteOn","realTime":9287,"sortKey":554},{"deltaTime":15,"channel":9,"type":"channel","subtype":"noteOff","noteNumber":35,"velocity":64,"realTime":9302,"sortKey":555},{"deltaTime":1,"channel":9,"type":"channel","subtype":"noteOff","noteNumber":42,"velocity":64,"realTime":9303,"sortKey":556},{"deltaTime":46,"channel":9,"type":"channel","noteNumber":38,"velocity":115,"subtype":"noteOn","realTime":9349,"sortKey":557},{"deltaTime":1,"channel":9,"type":"channel","noteNumber":42,"velocity":88,"subtype":"noteOn","realTime":9350,"sortKey":558},{"deltaTime":15,"channel":9,"type":"channel","subtype":"noteOff","noteNumber":38,"velocity":64,"realTime":9365,"sortKey":559},{"deltaTime":1,"channel":9,"type":"channel","subtype":"noteOff","noteNumber":42,"velocity":64,"realTime":9366,"sortKey":560},{"deltaTime":49,"channel":9,"type":"channel","noteNumber":42,"velocity":45,"subtype":"noteOn","realTime":9415,"sortKey":561},{"deltaTime":16,"channel":9,"type":"channel","subtype":"noteOff","noteNumber":42,"velocity":64,"realTime":9431,"sortKey":562},{"deltaTime":22,"channel":9,"type":"channel","noteNumber":38,"velocity":97,"subtype":"noteOn","realTime":9453,"sortKey":563},{"deltaTime":16,"channel":9,"type":"channel","subtype":"noteOff","noteNumber":38,"velocity":64,"realTime":9469,"sortKey":564},{"deltaTime":8,"channel":9,"type":"channel","noteNumber":42,"velocity":73,"subtype":"noteOn","realTime":9477,"sortKey":565},{"deltaTime":1,"channel":9,"type":"channel","noteNumber":35,"velocity":106,"subtype":"noteOn","realTime":9478,"sortKey":566},{"deltaTime":15,"channel":9,"type":"channel","subtype":"noteOff","noteNumber":42,"velocity":64,"realTime":9493,"sortKey":567},{"deltaTime":1,"channel":9,"type":"channel","subtype":"noteOff","noteNumber":35,"velocity":64,"realTime":9494,"sortKey":568},{"deltaTime":51,"channel":9,"type":"channel","noteNumber":42,"velocity":53,"subtype":"noteOn","realTime":9545,"sortKey":569},{"deltaTime":1,"channel":9,"type":"channel","noteNumber":35,"velocity":100,"subtype":"noteOn","realTime":9546,"sortKey":570},{"deltaTime":15,"channel":9,"type":"channel","subtype":"noteOff","noteNumber":42,"velocity":64,"realTime":9561,"sortKey":571},{"deltaTime":1,"channel":9,"type":"channel","subtype":"noteOff","noteNumber":35,"velocity":64,"realTime":9562,"sortKey":572},{"deltaTime":42,"channel":9,"type":"channel","noteNumber":38,"velocity":118,"subtype":"noteOn","realTime":9604,"sortKey":573},{"deltaTime":1,"channel":9,"type":"channel","noteNumber":42,"velocity":86,"subtype":"noteOn","realTime":9605,"sortKey":574},{"deltaTime":15,"channel":9,"type":"channel","subtype":"noteOff","noteNumber":38,"velocity":64,"realTime":9620,"sortKey":575},{"deltaTime":1,"channel":9,"type":"channel","subtype":"noteOff","noteNumber":42,"velocity":64,"realTime":9621,"sortKey":576},{"deltaTime":47,"channel":9,"type":"channel","noteNumber":42,"velocity":51,"subtype":"noteOn","realTime":9668,"sortKey":577},{"deltaTime":16,"channel":9,"type":"channel","subtype":"noteOff","noteNumber":42,"velocity":64,"realTime":9684,"sortKey":578},{"deltaTime":22,"channel":9,"type":"channel","noteNumber":38,"velocity":100,"subtype":"noteOn","realTime":9706,"sortKey":579},{"deltaTime":16,"channel":9,"type":"channel","subtype":"noteOff","noteNumber":38,"velocity":64,"realTime":9722,"sortKey":580},{"deltaTime":9,"channel":9,"type":"channel","noteNumber":35,"velocity":111,"subtype":"noteOn","realTime":9731,"sortKey":581},{"deltaTime":2,"channel":9,"type":"channel","noteNumber":42,"velocity":73,"subtype":"noteOn","realTime":9733,"sortKey":582},{"deltaTime":14,"channel":9,"type":"channel","subtype":"noteOff","noteNumber":35,"velocity":64,"realTime":9747,"sortKey":583},{"deltaTime":2,"channel":9,"type":"channel","subtype":"noteOff","noteNumber":42,"velocity":64,"realTime":9749,"sortKey":584},{"deltaTime":49,"channel":9,"type":"channel","noteNumber":35,"velocity":106,"subtype":"noteOn","realTime":9798,"sortKey":585},{"deltaTime":0,"channel":9,"type":"channel","noteNumber":42,"velocity":60,"subtype":"noteOn","realTime":9798,"sortKey":586},{"deltaTime":16,"channel":9,"type":"channel","subtype":"noteOff","noteNumber":35,"velocity":64,"realTime":9814,"sortKey":587},{"deltaTime":0,"channel":9,"type":"channel","subtype":"noteOff","noteNumber":42,"velocity":64,"realTime":9814,"sortKey":588},{"deltaTime":45,"channel":9,"type":"channel","noteNumber":38,"velocity":112,"subtype":"noteOn","realTime":9859,"sortKey":589},{"deltaTime":1,"channel":9,"type":"channel","noteNumber":42,"velocity":86,"subtype":"noteOn","realTime":9860,"sortKey":590},{"deltaTime":15,"channel":9,"type":"channel","subtype":"noteOff","noteNumber":38,"velocity":64,"realTime":9875,"sortKey":591},{"deltaTime":1,"channel":9,"type":"channel","subtype":"noteOff","noteNumber":42,"velocity":64,"realTime":9876,"sortKey":592},{"deltaTime":46,"channel":9,"type":"channel","noteNumber":42,"velocity":48,"subtype":"noteOn","realTime":9922,"sortKey":593},{"deltaTime":16,"channel":9,"type":"channel","subtype":"noteOff","noteNumber":42,"velocity":64,"realTime":9938,"sortKey":594},{"deltaTime":21,"channel":9,"type":"channel","noteNumber":38,"velocity":104,"subtype":"noteOn","realTime":9959,"sortKey":595},{"deltaTime":16,"channel":9,"type":"channel","subtype":"noteOff","noteNumber":38,"velocity":64,"realTime":9975,"sortKey":596},{"deltaTime":13,"channel":9,"type":"channel","noteNumber":35,"velocity":101,"subtype":"noteOn","realTime":9988,"sortKey":597},{"deltaTime":1,"channel":9,"type":"channel","noteNumber":42,"velocity":84,"subtype":"noteOn","realTime":9989,"sortKey":598},{"deltaTime":15,"channel":9,"type":"channel","subtype":"noteOff","noteNumber":35,"velocity":64,"realTime":10004,"sortKey":599},{"deltaTime":1,"channel":9,"type":"channel","subtype":"noteOff","noteNumber":42,"velocity":64,"realTime":10005,"sortKey":600},{"deltaTime":50,"channel":9,"type":"channel","noteNumber":35,"velocity":102,"subtype":"noteOn","realTime":10055,"sortKey":601},{"deltaTime":1,"channel":9,"type":"channel","noteNumber":42,"velocity":44,"subtype":"noteOn","realTime":10056,"sortKey":602},{"deltaTime":15,"channel":9,"type":"channel","subtype":"noteOff","noteNumber":35,"velocity":64,"realTime":10071,"sortKey":603},{"deltaTime":1,"channel":9,"type":"channel","subtype":"noteOff","noteNumber":42,"velocity":64,"realTime":10072,"sortKey":604},{"deltaTime":44,"channel":9,"type":"channel","noteNumber":38,"velocity":113,"subtype":"noteOn","realTime":10116,"sortKey":605},{"deltaTime":1,"channel":9,"type":"channel","noteNumber":42,"velocity":79,"subtype":"noteOn","realTime":10117,"sortKey":606},{"deltaTime":15,"channel":9,"type":"channel","subtype":"noteOff","noteNumber":38,"velocity":64,"realTime":10132,"sortKey":607},{"deltaTime":1,"channel":9,"type":"channel","subtype":"noteOff","noteNumber":42,"velocity":64,"realTime":10133,"sortKey":608},{"deltaTime":46,"channel":9,"type":"channel","noteNumber":42,"velocity":48,"subtype":"noteOn","realTime":10179,"sortKey":609},{"deltaTime":16,"channel":9,"type":"channel","subtype":"noteOff","noteNumber":42,"velocity":64,"realTime":10195,"sortKey":610},{"deltaTime":23,"channel":9,"type":"channel","noteNumber":38,"velocity":100,"subtype":"noteOn","realTime":10218,"sortKey":611},{"deltaTime":16,"channel":9,"type":"channel","subtype":"noteOff","noteNumber":38,"velocity":64,"realTime":10234,"sortKey":612},{"deltaTime":9,"channel":9,"type":"channel","noteNumber":42,"velocity":73,"subtype":"noteOn","realTime":10243,"sortKey":613},{"deltaTime":1,"channel":9,"type":"channel","noteNumber":35,"velocity":110,"subtype":"noteOn","realTime":10244,"sortKey":614},{"deltaTime":15,"channel":9,"type":"channel","subtype":"noteOff","noteNumber":42,"velocity":64,"realTime":10259,"sortKey":615},{"deltaTime":1,"channel":9,"type":"channel","subtype":"noteOff","noteNumber":35,"velocity":64,"realTime":10260,"sortKey":616},{"deltaTime":50,"channel":9,"type":"channel","noteNumber":35,"velocity":103,"subtype":"noteOn","realTime":10310,"sortKey":617},{"deltaTime":1,"channel":9,"type":"channel","noteNumber":42,"velocity":51,"subtype":"noteOn","realTime":10311,"sortKey":618},{"deltaTime":15,"channel":9,"type":"channel","subtype":"noteOff","noteNumber":35,"velocity":64,"realTime":10326,"sortKey":619},{"deltaTime":1,"channel":9,"type":"channel","subtype":"noteOff","noteNumber":42,"velocity":64,"realTime":10327,"sortKey":620},{"deltaTime":45,"channel":9,"type":"channel","noteNumber":38,"velocity":119,"subtype":"noteOn","realTime":10372,"sortKey":621},{"deltaTime":1,"channel":9,"type":"channel","noteNumber":42,"velocity":85,"subtype":"noteOn","realTime":10373,"sortKey":622},{"deltaTime":15,"channel":9,"type":"channel","subtype":"noteOff","noteNumber":38,"velocity":64,"realTime":10388,"sortKey":623},{"deltaTime":1,"channel":9,"type":"channel","subtype":"noteOff","noteNumber":42,"velocity":64,"realTime":10389,"sortKey":624},{"deltaTime":47,"channel":9,"type":"channel","noteNumber":42,"velocity":53,"subtype":"noteOn","realTime":10436,"sortKey":625},{"deltaTime":16,"channel":9,"type":"channel","subtype":"noteOff","noteNumber":42,"velocity":64,"realTime":10452,"sortKey":626},{"deltaTime":22,"channel":9,"type":"channel","noteNumber":38,"velocity":94,"subtype":"noteOn","realTime":10474,"sortKey":627},{"deltaTime":16,"channel":9,"type":"channel","subtype":"noteOff","noteNumber":38,"velocity":64,"realTime":10490,"sortKey":628},{"deltaTime":10,"channel":9,"type":"channel","noteNumber":42,"velocity":69,"subtype":"noteOn","realTime":10500,"sortKey":629},{"deltaTime":0,"channel":9,"type":"channel","noteNumber":35,"velocity":102,"subtype":"noteOn","realTime":10500,"sortKey":630},{"deltaTime":16,"channel":9,"type":"channel","subtype":"noteOff","noteNumber":42,"velocity":64,"realTime":10516,"sortKey":631},{"deltaTime":0,"channel":9,"type":"channel","subtype":"noteOff","noteNumber":35,"velocity":64,"realTime":10516,"sortKey":632},{"deltaTime":50,"channel":9,"type":"channel","noteNumber":35,"velocity":98,"subtype":"noteOn","realTime":10566,"sortKey":633},{"deltaTime":1,"channel":9,"type":"channel","noteNumber":42,"velocity":55,"subtype":"noteOn","realTime":10567,"sortKey":634},{"deltaTime":15,"channel":9,"type":"channel","subtype":"noteOff","noteNumber":35,"velocity":64,"realTime":10582,"sortKey":635},{"deltaTime":1,"channel":9,"type":"channel","subtype":"noteOff","noteNumber":42,"velocity":64,"realTime":10583,"sortKey":636},{"deltaTime":45,"channel":9,"type":"channel","noteNumber":38,"velocity":114,"subtype":"noteOn","realTime":10628,"sortKey":637},{"deltaTime":2,"channel":9,"type":"channel","noteNumber":42,"velocity":85,"subtype":"noteOn","realTime":10630,"sortKey":638},{"deltaTime":14,"channel":9,"type":"channel","subtype":"noteOff","noteNumber":38,"velocity":64,"realTime":10644,"sortKey":639},{"deltaTime":2,"channel":9,"type":"channel","subtype":"noteOff","noteNumber":42,"velocity":64,"realTime":10646,"sortKey":640},{"deltaTime":46,"channel":9,"type":"channel","noteNumber":42,"velocity":48,"subtype":"noteOn","realTime":10692,"sortKey":641},{"deltaTime":16,"channel":9,"type":"channel","subtype":"noteOff","noteNumber":42,"velocity":64,"realTime":10708,"sortKey":642},{"deltaTime":20,"channel":9,"type":"channel","noteNumber":38,"velocity":93,"subtype":"noteOn","realTime":10728,"sortKey":643},{"deltaTime":16,"channel":9,"type":"channel","subtype":"noteOff","noteNumber":38,"velocity":64,"realTime":10744,"sortKey":644},{"deltaTime":9,"channel":9,"type":"channel","noteNumber":35,"velocity":112,"subtype":"noteOn","realTime":10753,"sortKey":645},{"deltaTime":1,"channel":9,"type":"channel","noteNumber":42,"velocity":64,"subtype":"noteOn","realTime":10754,"sortKey":646},{"deltaTime":15,"channel":9,"type":"channel","subtype":"noteOff","noteNumber":35,"velocity":64,"realTime":10769,"sortKey":647},{"deltaTime":1,"channel":9,"type":"channel","subtype":"noteOff","noteNumber":42,"velocity":64,"realTime":10770,"sortKey":648},{"deltaTime":50,"channel":9,"type":"channel","noteNumber":35,"velocity":110,"subtype":"noteOn","realTime":10820,"sortKey":649},{"deltaTime":1,"channel":9,"type":"channel","noteNumber":42,"velocity":59,"subtype":"noteOn","realTime":10821,"sortKey":650},{"deltaTime":15,"channel":9,"type":"channel","subtype":"noteOff","noteNumber":35,"velocity":64,"realTime":10836,"sortKey":651},{"deltaTime":1,"channel":9,"type":"channel","subtype":"noteOff","noteNumber":42,"velocity":64,"realTime":10837,"sortKey":652},{"deltaTime":46,"channel":9,"type":"channel","noteNumber":38,"velocity":119,"subtype":"noteOn","realTime":10883,"sortKey":653},{"deltaTime":2,"channel":9,"type":"channel","noteNumber":42,"velocity":84,"subtype":"noteOn","realTime":10885,"sortKey":654},{"deltaTime":14,"channel":9,"type":"channel","subtype":"noteOff","noteNumber":38,"velocity":64,"realTime":10899,"sortKey":655},{"deltaTime":2,"channel":9,"type":"channel","subtype":"noteOff","noteNumber":42,"velocity":64,"realTime":10901,"sortKey":656},{"deltaTime":48,"channel":9,"type":"channel","noteNumber":42,"velocity":61,"subtype":"noteOn","realTime":10949,"sortKey":657},{"deltaTime":16,"channel":9,"type":"channel","subtype":"noteOff","noteNumber":42,"velocity":64,"realTime":10965,"sortKey":658},{"deltaTime":17,"channel":9,"type":"channel","noteNumber":38,"velocity":109,"subtype":"noteOn","realTime":10982,"sortKey":659},{"deltaTime":16,"channel":9,"type":"channel","subtype":"noteOff","noteNumber":38,"velocity":64,"realTime":10998,"sortKey":660},{"deltaTime":12,"channel":9,"type":"channel","noteNumber":35,"velocity":114,"subtype":"noteOn","realTime":11010,"sortKey":661},{"deltaTime":2,"channel":9,"type":"channel","noteNumber":46,"velocity":122,"subtype":"noteOn","realTime":11012,"sortKey":662},{"deltaTime":14,"channel":9,"type":"channel","subtype":"noteOff","noteNumber":35,"velocity":64,"realTime":11026,"sortKey":663},{"deltaTime":2,"channel":9,"type":"channel","subtype":"noteOff","noteNumber":46,"velocity":64,"realTime":11028,"sortKey":664},{"deltaTime":47,"channel":9,"type":"channel","noteNumber":48,"velocity":127,"subtype":"noteOn","realTime":11075,"sortKey":665},{"deltaTime":16,"channel":9,"type":"channel","subtype":"noteOff","noteNumber":48,"velocity":64,"realTime":11091,"sortKey":666},{"deltaTime":16,"channel":9,"type":"channel","noteNumber":38,"velocity":46,"subtype":"noteOn","realTime":11107,"sortKey":667},{"deltaTime":16,"channel":9,"type":"channel","subtype":"noteOff","noteNumber":38,"velocity":64,"realTime":11123,"sortKey":668},{"deltaTime":14,"channel":9,"type":"channel","noteNumber":38,"velocity":115,"subtype":"noteOn","realTime":11137,"sortKey":669},{"deltaTime":16,"channel":9,"type":"channel","subtype":"noteOff","noteNumber":38,"velocity":64,"realTime":11153,"sortKey":670},{"deltaTime":19,"channel":9,"type":"channel","noteNumber":38,"velocity":125,"subtype":"noteOn","realTime":11172,"sortKey":671},{"deltaTime":16,"channel":9,"type":"channel","subtype":"noteOff","noteNumber":38,"velocity":64,"realTime":11188,"sortKey":672},{"deltaTime":14,"channel":9,"type":"channel","noteNumber":45,"velocity":125,"subtype":"noteOn","realTime":11202,"sortKey":673},{"deltaTime":16,"channel":9,"type":"channel","subtype":"noteOff","noteNumber":45,"velocity":64,"realTime":11218,"sortKey":674},{"deltaTime":20,"channel":9,"type":"channel","noteNumber":43,"velocity":121,"subtype":"noteOn","realTime":11238,"sortKey":675},{"deltaTime":16,"channel":9,"type":"channel","subtype":"noteOff","noteNumber":43,"velocity":64,"realTime":11254,"sortKey":676},{"deltaTime":13,"channel":9,"type":"channel","noteNumber":35,"velocity":109,"subtype":"noteOn","realTime":11267,"sortKey":677},{"deltaTime":1,"channel":9,"type":"channel","noteNumber":42,"velocity":77,"subtype":"noteOn","realTime":11268,"sortKey":678},{"deltaTime":15,"channel":9,"type":"channel","subtype":"noteOff","noteNumber":35,"velocity":64,"realTime":11283,"sortKey":679},{"deltaTime":1,"channel":9,"type":"channel","subtype":"noteOff","noteNumber":42,"velocity":64,"realTime":11284,"sortKey":680},{"deltaTime":50,"channel":9,"type":"channel","noteNumber":35,"velocity":99,"subtype":"noteOn","realTime":11334,"sortKey":681},{"deltaTime":1,"channel":9,"type":"channel","noteNumber":42,"velocity":53,"subtype":"noteOn","realTime":11335,"sortKey":682},{"deltaTime":15,"channel":9,"type":"channel","subtype":"noteOff","noteNumber":35,"velocity":64,"realTime":11350,"sortKey":683},{"deltaTime":1,"channel":9,"type":"channel","subtype":"noteOff","noteNumber":42,"velocity":64,"realTime":11351,"sortKey":684},{"deltaTime":46,"channel":9,"type":"channel","noteNumber":38,"velocity":115,"subtype":"noteOn","realTime":11397,"sortKey":685},{"deltaTime":1,"channel":9,"type":"channel","noteNumber":42,"velocity":88,"subtype":"noteOn","realTime":11398,"sortKey":686},{"deltaTime":15,"channel":9,"type":"channel","subtype":"noteOff","noteNumber":38,"velocity":64,"realTime":11413,"sortKey":687},{"deltaTime":1,"channel":9,"type":"channel","subtype":"noteOff","noteNumber":42,"velocity":64,"realTime":11414,"sortKey":688},{"deltaTime":49,"channel":9,"type":"channel","noteNumber":42,"velocity":45,"subtype":"noteOn","realTime":11463,"sortKey":689},{"deltaTime":16,"channel":9,"type":"channel","subtype":"noteOff","noteNumber":42,"velocity":64,"realTime":11479,"sortKey":690},{"deltaTime":22,"channel":9,"type":"channel","noteNumber":38,"velocity":97,"subtype":"noteOn","realTime":11501,"sortKey":691},{"deltaTime":16,"channel":9,"type":"channel","subtype":"noteOff","noteNumber":38,"velocity":64,"realTime":11517,"sortKey":692},{"deltaTime":8,"channel":9,"type":"channel","noteNumber":42,"velocity":73,"subtype":"noteOn","realTime":11525,"sortKey":693},{"deltaTime":1,"channel":9,"type":"channel","noteNumber":35,"velocity":106,"subtype":"noteOn","realTime":11526,"sortKey":694},{"deltaTime":15,"channel":9,"type":"channel","subtype":"noteOff","noteNumber":42,"velocity":64,"realTime":11541,"sortKey":695},{"deltaTime":1,"channel":9,"type":"channel","subtype":"noteOff","noteNumber":35,"velocity":64,"realTime":11542,"sortKey":696},{"deltaTime":51,"channel":9,"type":"channel","noteNumber":42,"velocity":53,"subtype":"noteOn","realTime":11593,"sortKey":697},{"deltaTime":1,"channel":9,"type":"channel","noteNumber":35,"velocity":100,"subtype":"noteOn","realTime":11594,"sortKey":698},{"deltaTime":15,"channel":9,"type":"channel","subtype":"noteOff","noteNumber":42,"velocity":64,"realTime":11609,"sortKey":699},{"deltaTime":1,"channel":9,"type":"channel","subtype":"noteOff","noteNumber":35,"velocity":64,"realTime":11610,"sortKey":700},{"deltaTime":42,"channel":9,"type":"channel","noteNumber":38,"velocity":118,"subtype":"noteOn","realTime":11652,"sortKey":701},{"deltaTime":1,"channel":9,"type":"channel","noteNumber":42,"velocity":86,"subtype":"noteOn","realTime":11653,"sortKey":702},{"deltaTime":15,"channel":9,"type":"channel","subtype":"noteOff","noteNumber":38,"velocity":64,"realTime":11668,"sortKey":703},{"deltaTime":1,"channel":9,"type":"channel","subtype":"noteOff","noteNumber":42,"velocity":64,"realTime":11669,"sortKey":704},{"deltaTime":47,"channel":9,"type":"channel","noteNumber":42,"velocity":51,"subtype":"noteOn","realTime":11716,"sortKey":705},{"deltaTime":16,"channel":9,"type":"channel","subtype":"noteOff","noteNumber":42,"velocity":64,"realTime":11732,"sortKey":706},{"deltaTime":22,"channel":9,"type":"channel","noteNumber":38,"velocity":100,"subtype":"noteOn","realTime":11754,"sortKey":707},{"deltaTime":16,"channel":9,"type":"channel","subtype":"noteOff","noteNumber":38,"velocity":64,"realTime":11770,"sortKey":708},{"deltaTime":9,"channel":9,"type":"channel","noteNumber":35,"velocity":111,"subtype":"noteOn","realTime":11779,"sortKey":709},{"deltaTime":2,"channel":9,"type":"channel","noteNumber":42,"velocity":73,"subtype":"noteOn","realTime":11781,"sortKey":710},{"deltaTime":14,"channel":9,"type":"channel","subtype":"noteOff","noteNumber":35,"velocity":64,"realTime":11795,"sortKey":711},{"deltaTime":2,"channel":9,"type":"channel","subtype":"noteOff","noteNumber":42,"velocity":64,"realTime":11797,"sortKey":712},{"deltaTime":49,"channel":9,"type":"channel","noteNumber":35,"velocity":106,"subtype":"noteOn","realTime":11846,"sortKey":713},{"deltaTime":0,"channel":9,"type":"channel","noteNumber":42,"velocity":60,"subtype":"noteOn","realTime":11846,"sortKey":714},{"deltaTime":16,"channel":9,"type":"channel","subtype":"noteOff","noteNumber":35,"velocity":64,"realTime":11862,"sortKey":715},{"deltaTime":0,"channel":9,"type":"channel","subtype":"noteOff","noteNumber":42,"velocity":64,"realTime":11862,"sortKey":716},{"deltaTime":45,"channel":9,"type":"channel","noteNumber":38,"velocity":112,"subtype":"noteOn","realTime":11907,"sortKey":717},{"deltaTime":1,"channel":9,"type":"channel","noteNumber":42,"velocity":86,"subtype":"noteOn","realTime":11908,"sortKey":718},{"deltaTime":15,"channel":9,"type":"channel","subtype":"noteOff","noteNumber":38,"velocity":64,"realTime":11923,"sortKey":719},{"deltaTime":1,"channel":9,"type":"channel","subtype":"noteOff","noteNumber":42,"velocity":64,"realTime":11924,"sortKey":720},{"deltaTime":46,"channel":9,"type":"channel","noteNumber":42,"velocity":48,"subtype":"noteOn","realTime":11970,"sortKey":721},{"deltaTime":16,"channel":9,"type":"channel","subtype":"noteOff","noteNumber":42,"velocity":64,"realTime":11986,"sortKey":722},{"deltaTime":21,"channel":9,"type":"channel","noteNumber":38,"velocity":104,"subtype":"noteOn","realTime":12007,"sortKey":723},{"deltaTime":16,"channel":9,"type":"channel","subtype":"noteOff","noteNumber":38,"velocity":64,"realTime":12023,"sortKey":724},{"deltaTime":13,"channel":9,"type":"channel","noteNumber":35,"velocity":101,"subtype":"noteOn","realTime":12036,"sortKey":725},{"deltaTime":1,"channel":9,"type":"channel","noteNumber":42,"velocity":84,"subtype":"noteOn","realTime":12037,"sortKey":726},{"deltaTime":15,"channel":9,"type":"channel","subtype":"noteOff","noteNumber":35,"velocity":64,"realTime":12052,"sortKey":727},{"deltaTime":1,"channel":9,"type":"channel","subtype":"noteOff","noteNumber":42,"velocity":64,"realTime":12053,"sortKey":728},{"deltaTime":50,"channel":9,"type":"channel","noteNumber":35,"velocity":102,"subtype":"noteOn","realTime":12103,"sortKey":729},{"deltaTime":1,"channel":9,"type":"channel","noteNumber":42,"velocity":44,"subtype":"noteOn","realTime":12104,"sortKey":730},{"deltaTime":15,"channel":9,"type":"channel","subtype":"noteOff","noteNumber":35,"velocity":64,"realTime":12119,"sortKey":731},{"deltaTime":1,"channel":9,"type":"channel","subtype":"noteOff","noteNumber":42,"velocity":64,"realTime":12120,"sortKey":732},{"deltaTime":44,"channel":9,"type":"channel","noteNumber":38,"velocity":113,"subtype":"noteOn","realTime":12164,"sortKey":733},{"deltaTime":1,"channel":9,"type":"channel","noteNumber":42,"velocity":79,"subtype":"noteOn","realTime":12165,"sortKey":734},{"deltaTime":15,"channel":9,"type":"channel","subtype":"noteOff","noteNumber":38,"velocity":64,"realTime":12180,"sortKey":735},{"deltaTime":1,"channel":9,"type":"channel","subtype":"noteOff","noteNumber":42,"velocity":64,"realTime":12181,"sortKey":736},{"deltaTime":46,"channel":9,"type":"channel","noteNumber":42,"velocity":48,"subtype":"noteOn","realTime":12227,"sortKey":737},{"deltaTime":16,"channel":9,"type":"channel","subtype":"noteOff","noteNumber":42,"velocity":64,"realTime":12243,"sortKey":738},{"deltaTime":23,"channel":9,"type":"channel","noteNumber":38,"velocity":100,"subtype":"noteOn","realTime":12266,"sortKey":739},{"deltaTime":16,"channel":9,"type":"channel","subtype":"noteOff","noteNumber":38,"velocity":64,"realTime":12282,"sortKey":740},{"deltaTime":9,"channel":9,"type":"channel","noteNumber":42,"velocity":73,"subtype":"noteOn","realTime":12291,"sortKey":741},{"deltaTime":1,"channel":9,"type":"channel","noteNumber":35,"velocity":110,"subtype":"noteOn","realTime":12292,"sortKey":742},{"deltaTime":15,"channel":9,"type":"channel","subtype":"noteOff","noteNumber":42,"velocity":64,"realTime":12307,"sortKey":743},{"deltaTime":1,"channel":9,"type":"channel","subtype":"noteOff","noteNumber":35,"velocity":64,"realTime":12308,"sortKey":744},{"deltaTime":50,"channel":9,"type":"channel","noteNumber":35,"velocity":103,"subtype":"noteOn","realTime":12358,"sortKey":745},{"deltaTime":1,"channel":9,"type":"channel","noteNumber":42,"velocity":51,"subtype":"noteOn","realTime":12359,"sortKey":746},{"deltaTime":15,"channel":9,"type":"channel","subtype":"noteOff","noteNumber":35,"velocity":64,"realTime":12374,"sortKey":747},{"deltaTime":1,"channel":9,"type":"channel","subtype":"noteOff","noteNumber":42,"velocity":64,"realTime":12375,"sortKey":748},{"deltaTime":45,"channel":9,"type":"channel","noteNumber":38,"velocity":119,"subtype":"noteOn","realTime":12420,"sortKey":749},{"deltaTime":1,"channel":9,"type":"channel","noteNumber":42,"velocity":85,"subtype":"noteOn","realTime":12421,"sortKey":750},{"deltaTime":15,"channel":9,"type":"channel","subtype":"noteOff","noteNumber":38,"velocity":64,"realTime":12436,"sortKey":751},{"deltaTime":1,"channel":9,"type":"channel","subtype":"noteOff","noteNumber":42,"velocity":64,"realTime":12437,"sortKey":752},{"deltaTime":47,"channel":9,"type":"channel","noteNumber":42,"velocity":53,"subtype":"noteOn","realTime":12484,"sortKey":753},{"deltaTime":16,"channel":9,"type":"channel","subtype":"noteOff","noteNumber":42,"velocity":64,"realTime":12500,"sortKey":754},{"deltaTime":22,"channel":9,"type":"channel","noteNumber":38,"velocity":94,"subtype":"noteOn","realTime":12522,"sortKey":755},{"deltaTime":16,"channel":9,"type":"channel","subtype":"noteOff","noteNumber":38,"velocity":64,"realTime":12538,"sortKey":756},{"deltaTime":10,"channel":9,"type":"channel","noteNumber":42,"velocity":69,"subtype":"noteOn","realTime":12548,"sortKey":757},{"deltaTime":0,"channel":9,"type":"channel","noteNumber":35,"velocity":102,"subtype":"noteOn","realTime":12548,"sortKey":758},{"deltaTime":16,"channel":9,"type":"channel","subtype":"noteOff","noteNumber":42,"velocity":64,"realTime":12564,"sortKey":759},{"deltaTime":0,"channel":9,"type":"channel","subtype":"noteOff","noteNumber":35,"velocity":64,"realTime":12564,"sortKey":760},{"deltaTime":50,"channel":9,"type":"channel","noteNumber":35,"velocity":98,"subtype":"noteOn","realTime":12614,"sortKey":761},{"deltaTime":1,"channel":9,"type":"channel","noteNumber":42,"velocity":55,"subtype":"noteOn","realTime":12615,"sortKey":762},{"deltaTime":15,"channel":9,"type":"channel","subtype":"noteOff","noteNumber":35,"velocity":64,"realTime":12630,"sortKey":763},{"deltaTime":1,"channel":9,"type":"channel","subtype":"noteOff","noteNumber":42,"velocity":64,"realTime":12631,"sortKey":764},{"deltaTime":45,"channel":9,"type":"channel","noteNumber":38,"velocity":114,"subtype":"noteOn","realTime":12676,"sortKey":765},{"deltaTime":2,"channel":9,"type":"channel","noteNumber":42,"velocity":85,"subtype":"noteOn","realTime":12678,"sortKey":766},{"deltaTime":14,"channel":9,"type":"channel","subtype":"noteOff","noteNumber":38,"velocity":64,"realTime":12692,"sortKey":767},{"deltaTime":2,"channel":9,"type":"channel","subtype":"noteOff","noteNumber":42,"velocity":64,"realTime":12694,"sortKey":768},{"deltaTime":46,"channel":9,"type":"channel","noteNumber":42,"velocity":48,"subtype":"noteOn","realTime":12740,"sortKey":769},{"deltaTime":16,"channel":9,"type":"channel","subtype":"noteOff","noteNumber":42,"velocity":64,"realTime":12756,"sortKey":770},{"deltaTime":20,"channel":9,"type":"channel","noteNumber":38,"velocity":93,"subtype":"noteOn","realTime":12776,"sortKey":771},{"deltaTime":16,"channel":9,"type":"channel","subtype":"noteOff","noteNumber":38,"velocity":64,"realTime":12792,"sortKey":772},{"deltaTime":9,"channel":9,"type":"channel","noteNumber":35,"velocity":112,"subtype":"noteOn","realTime":12801,"sortKey":773},{"deltaTime":1,"channel":9,"type":"channel","noteNumber":42,"velocity":64,"subtype":"noteOn","realTime":12802,"sortKey":774},{"deltaTime":15,"channel":9,"type":"channel","subtype":"noteOff","noteNumber":35,"velocity":64,"realTime":12817,"sortKey":775},{"deltaTime":1,"channel":9,"type":"channel","subtype":"noteOff","noteNumber":42,"velocity":64,"realTime":12818,"sortKey":776},{"deltaTime":50,"channel":9,"type":"channel","noteNumber":35,"velocity":110,"subtype":"noteOn","realTime":12868,"sortKey":777},{"deltaTime":1,"channel":9,"type":"channel","noteNumber":42,"velocity":59,"subtype":"noteOn","realTime":12869,"sortKey":778},{"deltaTime":15,"channel":9,"type":"channel","subtype":"noteOff","noteNumber":35,"velocity":64,"realTime":12884,"sortKey":779},{"deltaTime":1,"channel":9,"type":"channel","subtype":"noteOff","noteNumber":42,"velocity":64,"realTime":12885,"sortKey":780},{"deltaTime":46,"channel":9,"type":"channel","noteNumber":38,"velocity":119,"subtype":"noteOn","realTime":12931,"sortKey":781},{"deltaTime":2,"channel":9,"type":"channel","noteNumber":42,"velocity":84,"subtype":"noteOn","realTime":12933,"sortKey":782},{"deltaTime":14,"channel":9,"type":"channel","subtype":"noteOff","noteNumber":38,"velocity":64,"realTime":12947,"sortKey":783},{"deltaTime":2,"channel":9,"type":"channel","subtype":"noteOff","noteNumber":42,"velocity":64,"realTime":12949,"sortKey":784},{"deltaTime":48,"channel":9,"type":"channel","noteNumber":42,"velocity":61,"subtype":"noteOn","realTime":12997,"sortKey":785},{"deltaTime":16,"channel":9,"type":"channel","subtype":"noteOff","noteNumber":42,"velocity":64,"realTime":13013,"sortKey":786},{"deltaTime":17,"channel":9,"type":"channel","noteNumber":38,"velocity":109,"subtype":"noteOn","realTime":13030,"sortKey":787},{"deltaTime":16,"channel":9,"type":"channel","subtype":"noteOff","noteNumber":38,"velocity":64,"realTime":13046,"sortKey":788},{"deltaTime":12,"channel":9,"type":"channel","noteNumber":35,"velocity":114,"subtype":"noteOn","realTime":13058,"sortKey":789},{"deltaTime":2,"channel":9,"type":"channel","noteNumber":46,"velocity":122,"subtype":"noteOn","realTime":13060,"sortKey":790},{"deltaTime":14,"channel":9,"type":"channel","subtype":"noteOff","noteNumber":35,"velocity":64,"realTime":13074,"sortKey":791},{"deltaTime":2,"channel":9,"type":"channel","subtype":"noteOff","noteNumber":46,"velocity":64,"realTime":13076,"sortKey":792},{"deltaTime":47,"channel":9,"type":"channel","noteNumber":48,"velocity":127,"subtype":"noteOn","realTime":13123,"sortKey":793},{"deltaTime":16,"channel":9,"type":"channel","subtype":"noteOff","noteNumber":48,"velocity":64,"realTime":13139,"sortKey":794},{"deltaTime":16,"channel":9,"type":"channel","noteNumber":38,"velocity":46,"subtype":"noteOn","realTime":13155,"sortKey":795},{"deltaTime":16,"channel":9,"type":"channel","subtype":"noteOff","noteNumber":38,"velocity":64,"realTime":13171,"sortKey":796},{"deltaTime":14,"channel":9,"type":"channel","noteNumber":38,"velocity":115,"subtype":"noteOn","realTime":13185,"sortKey":797},{"deltaTime":16,"channel":9,"type":"channel","subtype":"noteOff","noteNumber":38,"velocity":64,"realTime":13201,"sortKey":798},{"deltaTime":19,"channel":9,"type":"channel","noteNumber":38,"velocity":125,"subtype":"noteOn","realTime":13220,"sortKey":799},{"deltaTime":16,"channel":9,"type":"channel","subtype":"noteOff","noteNumber":38,"velocity":64,"realTime":13236,"sortKey":800},{"deltaTime":14,"channel":9,"type":"channel","noteNumber":45,"velocity":125,"subtype":"noteOn","realTime":13250,"sortKey":801},{"deltaTime":16,"channel":9,"type":"channel","subtype":"noteOff","noteNumber":45,"velocity":64,"realTime":13266,"sortKey":802},{"deltaTime":20,"channel":9,"type":"channel","noteNumber":43,"velocity":121,"subtype":"noteOn","realTime":13286,"sortKey":803},{"deltaTime":16,"channel":9,"type":"channel","subtype":"noteOff","noteNumber":43,"velocity":64,"realTime":13302,"sortKey":804},{"deltaTime":0,"type":"meta","subtype":"endOfTrack"}],[{"deltaTime":null,"channel":1,"type":"channel","noteNumber":69,"velocity":113,"subtype":"noteOn","realTime":7168,"sortKey":163},{"deltaTime":48,"channel":1,"type":"channel","subtype":"noteOff","noteNumber":69,"velocity":64,"realTime":7216,"sortKey":164},{"deltaTime":16,"channel":1,"type":"channel","noteNumber":81,"velocity":113,"subtype":"noteOn","realTime":7232,"sortKey":165},{"deltaTime":48,"channel":1,"type":"channel","subtype":"noteOff","noteNumber":81,"velocity":64,"realTime":7280,"sortKey":166},{"deltaTime":16,"channel":1,"type":"channel","noteNumber":79,"velocity":111,"subtype":"noteOn","realTime":7296,"sortKey":167},{"deltaTime":48,"channel":1,"type":"channel","subtype":"noteOff","noteNumber":79,"velocity":64,"realTime":7344,"sortKey":168},{"deltaTime":16,"channel":1,"type":"channel","noteNumber":81,"velocity":115,"subtype":"noteOn","realTime":7360,"sortKey":169},{"deltaTime":80,"channel":1,"type":"channel","subtype":"noteOff","noteNumber":81,"velocity":64,"realTime":7440,"sortKey":170},{"deltaTime":16,"channel":1,"type":"channel","noteNumber":79,"velocity":114,"subtype":"noteOn","realTime":7456,"sortKey":171},{"deltaTime":24,"channel":1,"type":"channel","subtype":"noteOff","noteNumber":79,"velocity":64,"realTime":7480,"sortKey":172},{"deltaTime":8,"channel":1,"type":"channel","noteNumber":81,"velocity":114,"subtype":"noteOn","realTime":7488,"sortKey":173},{"deltaTime":48,"channel":1,"type":"channel","subtype":"noteOff","noteNumber":81,"velocity":64,"realTime":7536,"sortKey":174},{"deltaTime":16,"channel":1,"type":"channel","noteNumber":79,"velocity":118,"subtype":"noteOn","realTime":7552,"sortKey":175},{"deltaTime":48,"channel":1,"type":"channel","subtype":"noteOff","noteNumber":79,"velocity":64,"realTime":7600,"sortKey":176},{"deltaTime":16,"channel":1,"type":"channel","noteNumber":72,"velocity":113,"subtype":"noteOn","realTime":7616,"sortKey":177},{"deltaTime":48,"channel":1,"type":"channel","subtype":"noteOff","noteNumber":72,"velocity":64,"realTime":7664,"sortKey":178},{"deltaTime":16,"channel":1,"type":"channel","noteNumber":74,"velocity":107,"subtype":"noteOn","realTime":7680,"sortKey":179},{"deltaTime":48,"channel":1,"type":"channel","subtype":"noteOff","noteNumber":74,"velocity":64,"realTime":7728,"sortKey":180},{"deltaTime":16,"channel":1,"type":"channel","noteNumber":86,"velocity":117,"subtype":"noteOn","realTime":7744,"sortKey":181},{"deltaTime":48,"channel":1,"type":"channel","subtype":"noteOff","noteNumber":86,"velocity":64,"realTime":7792,"sortKey":182},{"deltaTime":16,"channel":1,"type":"channel","noteNumber":84,"velocity":119,"subtype":"noteOn","realTime":7808,"sortKey":183},{"deltaTime":48,"channel":1,"type":"channel","subtype":"noteOff","noteNumber":84,"velocity":64,"realTime":7856,"sortKey":184},{"deltaTime":16,"channel":1,"type":"channel","noteNumber":86,"velocity":115,"subtype":"noteOn","realTime":7872,"sortKey":185},{"deltaTime":80,"channel":1,"type":"channel","subtype":"noteOff","noteNumber":86,"velocity":64,"realTime":7952,"sortKey":186},{"deltaTime":16,"channel":1,"type":"channel","noteNumber":84,"velocity":112,"subtype":"noteOn","realTime":7968,"sortKey":187},{"deltaTime":24,"channel":1,"type":"channel","subtype":"noteOff","noteNumber":84,"velocity":64,"realTime":7992,"sortKey":188},{"deltaTime":8,"channel":1,"type":"channel","noteNumber":86,"velocity":108,"subtype":"noteOn","realTime":8000,"sortKey":189},{"deltaTime":48,"channel":1,"type":"channel","subtype":"noteOff","noteNumber":86,"velocity":64,"realTime":8048,"sortKey":190},{"deltaTime":16,"channel":1,"type":"channel","noteNumber":84,"velocity":115,"subtype":"noteOn","realTime":8064,"sortKey":191},{"deltaTime":48,"channel":1,"type":"channel","subtype":"noteOff","noteNumber":84,"velocity":64,"realTime":8112,"sortKey":192},{"deltaTime":16,"channel":1,"type":"channel","noteNumber":79,"velocity":115,"subtype":"noteOn","realTime":8128,"sortKey":193},{"deltaTime":24,"channel":1,"type":"channel","subtype":"noteOff","noteNumber":79,"velocity":64,"realTime":8152,"sortKey":194},{"deltaTime":8,"channel":1,"type":"channel","noteNumber":81,"velocity":123,"subtype":"noteOn","realTime":8160,"sortKey":195},{"deltaTime":24,"channel":1,"type":"channel","subtype":"noteOff","noteNumber":81,"velocity":64,"realTime":8184,"sortKey":196},{"deltaTime":8,"channel":1,"type":"channel","noteNumber":69,"velocity":114,"subtype":"noteOn","realTime":8192,"sortKey":197},{"deltaTime":48,"channel":1,"type":"channel","subtype":"noteOff","noteNumber":69,"velocity":64,"realTime":8240,"sortKey":198},{"deltaTime":16,"channel":1,"type":"channel","noteNumber":81,"velocity":115,"subtype":"noteOn","realTime":8256,"sortKey":199},{"deltaTime":48,"channel":1,"type":"channel","subtype":"noteOff","noteNumber":81,"velocity":64,"realTime":8304,"sortKey":200},{"deltaTime":16,"channel":1,"type":"channel","noteNumber":79,"velocity":107,"subtype":"noteOn","realTime":8320,"sortKey":201},{"deltaTime":48,"channel":1,"type":"channel","subtype":"noteOff","noteNumber":79,"velocity":64,"realTime":8368,"sortKey":202},{"deltaTime":16,"channel":1,"type":"channel","noteNumber":81,"velocity":114,"subtype":"noteOn","realTime":8384,"sortKey":203},{"deltaTime":80,"channel":1,"type":"channel","subtype":"noteOff","noteNumber":81,"velocity":64,"realTime":8464,"sortKey":204},{"deltaTime":16,"channel":1,"type":"channel","noteNumber":79,"velocity":124,"subtype":"noteOn","realTime":8480,"sortKey":205},{"deltaTime":24,"channel":1,"type":"channel","subtype":"noteOff","noteNumber":79,"velocity":64,"realTime":8504,"sortKey":206},{"deltaTime":8,"channel":1,"type":"channel","noteNumber":81,"velocity":120,"subtype":"noteOn","realTime":8512,"sortKey":207},{"deltaTime":48,"channel":1,"type":"channel","subtype":"noteOff","noteNumber":81,"velocity":64,"realTime":8560,"sortKey":208},{"deltaTime":16,"channel":1,"type":"channel","noteNumber":79,"velocity":105,"subtype":"noteOn","realTime":8576,"sortKey":209},{"deltaTime":48,"channel":1,"type":"channel","subtype":"noteOff","noteNumber":79,"velocity":64,"realTime":8624,"sortKey":210},{"deltaTime":16,"channel":1,"type":"channel","noteNumber":73,"velocity":108,"subtype":"noteOn","realTime":8640,"sortKey":211},{"deltaTime":48,"channel":1,"type":"channel","subtype":"noteOff","noteNumber":73,"velocity":64,"realTime":8688,"sortKey":212},{"deltaTime":16,"channel":1,"type":"channel","noteNumber":69,"velocity":108,"subtype":"noteOn","realTime":8704,"sortKey":213},{"deltaTime":48,"channel":1,"type":"channel","subtype":"noteOff","noteNumber":69,"velocity":64,"realTime":8752,"sortKey":214},{"deltaTime":16,"channel":1,"type":"channel","noteNumber":81,"velocity":119,"subtype":"noteOn","realTime":8768,"sortKey":215},{"deltaTime":48,"channel":1,"type":"channel","subtype":"noteOff","noteNumber":81,"velocity":64,"realTime":8816,"sortKey":216},{"deltaTime":16,"channel":1,"type":"channel","noteNumber":79,"velocity":113,"subtype":"noteOn","realTime":8832,"sortKey":217},{"deltaTime":48,"channel":1,"type":"channel","subtype":"noteOff","noteNumber":79,"velocity":64,"realTime":8880,"sortKey":218},{"deltaTime":16,"channel":1,"type":"channel","noteNumber":81,"velocity":112,"subtype":"noteOn","realTime":8896,"sortKey":219},{"deltaTime":80,"channel":1,"type":"channel","subtype":"noteOff","noteNumber":81,"velocity":64,"realTime":8976,"sortKey":220},{"deltaTime":16,"channel":1,"type":"channel","noteNumber":79,"velocity":105,"subtype":"noteOn","realTime":8992,"sortKey":221},{"deltaTime":24,"channel":1,"type":"channel","subtype":"noteOff","noteNumber":79,"velocity":64,"realTime":9016,"sortKey":222},{"deltaTime":8,"channel":1,"type":"channel","noteNumber":81,"velocity":114,"subtype":"noteOn","realTime":9024,"sortKey":223},{"deltaTime":48,"channel":1,"type":"channel","subtype":"noteOff","noteNumber":81,"velocity":64,"realTime":9072,"sortKey":224},{"deltaTime":16,"channel":1,"type":"channel","noteNumber":79,"velocity":121,"subtype":"noteOn","realTime":9088,"sortKey":225},{"deltaTime":48,"channel":1,"type":"channel","subtype":"noteOff","noteNumber":79,"velocity":64,"realTime":9136,"sortKey":226},{"deltaTime":16,"channel":1,"type":"channel","noteNumber":72,"velocity":110,"subtype":"noteOn","realTime":9152,"sortKey":227},{"deltaTime":48,"channel":1,"type":"channel","subtype":"noteOff","noteNumber":72,"velocity":64,"realTime":9200,"sortKey":228},{"deltaTime":16,"channel":1,"type":"channel","noteNumber":74,"velocity":121,"subtype":"noteOn","realTime":9216,"sortKey":229},{"deltaTime":48,"channel":1,"type":"channel","subtype":"noteOff","noteNumber":74,"velocity":64,"realTime":9264,"sortKey":230},{"deltaTime":16,"channel":1,"type":"channel","noteNumber":74,"velocity":109,"subtype":"noteOn","realTime":9280,"sortKey":231},{"deltaTime":48,"channel":1,"type":"channel","subtype":"noteOff","noteNumber":74,"velocity":64,"realTime":9328,"sortKey":232},{"deltaTime":16,"channel":1,"type":"channel","noteNumber":74,"velocity":124,"subtype":"noteOn","realTime":9344,"sortKey":233},{"deltaTime":48,"channel":1,"type":"channel","subtype":"noteOff","noteNumber":74,"velocity":64,"realTime":9392,"sortKey":234},{"deltaTime":16,"channel":1,"type":"channel","noteNumber":72,"velocity":114,"subtype":"noteOn","realTime":9408,"sortKey":235},{"deltaTime":48,"channel":1,"type":"channel","subtype":"noteOff","noteNumber":72,"velocity":64,"realTime":9456,"sortKey":236},{"deltaTime":16,"channel":1,"type":"channel","noteNumber":74,"velocity":115,"subtype":"noteOn","realTime":9472,"sortKey":237},{"deltaTime":48,"channel":1,"type":"channel","subtype":"noteOff","noteNumber":74,"velocity":64,"realTime":9520,"sortKey":238},{"deltaTime":16,"channel":1,"type":"channel","noteNumber":74,"velocity":122,"subtype":"noteOn","realTime":9536,"sortKey":239},{"deltaTime":48,"channel":1,"type":"channel","subtype":"noteOff","noteNumber":74,"velocity":64,"realTime":9584,"sortKey":240},{"deltaTime":80,"channel":1,"type":"channel","noteNumber":72,"velocity":116,"subtype":"noteOn","realTime":9664,"sortKey":241},{"deltaTime":48,"channel":1,"type":"channel","subtype":"noteOff","noteNumber":72,"velocity":64,"realTime":9712,"sortKey":242},{"deltaTime":16,"channel":1,"type":"channel","noteNumber":74,"velocity":121,"subtype":"noteOn","realTime":9728,"sortKey":243},{"deltaTime":48,"channel":1,"type":"channel","subtype":"noteOff","noteNumber":74,"velocity":64,"realTime":9776,"sortKey":244},{"deltaTime":16,"channel":1,"type":"channel","noteNumber":74,"velocity":107,"subtype":"noteOn","realTime":9792,"sortKey":245},{"deltaTime":24,"channel":1,"type":"channel","subtype":"noteOff","noteNumber":74,"velocity":64,"realTime":9816,"sortKey":246},{"deltaTime":8,"channel":1,"type":"channel","noteNumber":74,"velocity":118,"subtype":"noteOn","realTime":9824,"sortKey":247},{"deltaTime":24,"channel":1,"type":"channel","subtype":"noteOff","noteNumber":74,"velocity":64,"realTime":9848,"sortKey":248},{"deltaTime":8,"channel":1,"type":"channel","noteNumber":74,"velocity":112,"subtype":"noteOn","realTime":9856,"sortKey":249},{"deltaTime":48,"channel":1,"type":"channel","subtype":"noteOff","noteNumber":74,"velocity":64,"realTime":9904,"sortKey":250},{"deltaTime":16,"channel":1,"type":"channel","noteNumber":72,"velocity":113,"subtype":"noteOn","realTime":9920,"sortKey":251},{"deltaTime":48,"channel":1,"type":"channel","subtype":"noteOff","noteNumber":72,"velocity":64,"realTime":9968,"sortKey":252},{"deltaTime":16,"channel":1,"type":"channel","noteNumber":74,"velocity":119,"subtype":"noteOn","realTime":9984,"sortKey":253},{"deltaTime":48,"channel":1,"type":"channel","subtype":"noteOff","noteNumber":74,"velocity":64,"realTime":10032,"sortKey":254},{"deltaTime":16,"channel":1,"type":"channel","noteNumber":74,"velocity":111,"subtype":"noteOn","realTime":10048,"sortKey":255},{"deltaTime":48,"channel":1,"type":"channel","subtype":"noteOff","noteNumber":74,"velocity":64,"realTime":10096,"sortKey":256},{"deltaTime":80,"channel":1,"type":"channel","noteNumber":72,"velocity":112,"subtype":"noteOn","realTime":10176,"sortKey":257},{"deltaTime":48,"channel":1,"type":"channel","subtype":"noteOff","noteNumber":72,"velocity":64,"realTime":10224,"sortKey":258},{"deltaTime":16,"channel":1,"type":"channel","noteNumber":69,"velocity":113,"subtype":"noteOn","realTime":10240,"sortKey":259},{"deltaTime":48,"channel":1,"type":"channel","subtype":"noteOff","noteNumber":69,"velocity":64,"realTime":10288,"sortKey":260},{"deltaTime":16,"channel":1,"type":"channel","noteNumber":81,"velocity":117,"subtype":"noteOn","realTime":10304,"sortKey":261},{"deltaTime":48,"channel":1,"type":"channel","subtype":"noteOff","noteNumber":81,"velocity":64,"realTime":10352,"sortKey":262},{"deltaTime":16,"channel":1,"type":"channel","noteNumber":79,"velocity":114,"subtype":"noteOn","realTime":10368,"sortKey":263},{"deltaTime":48,"channel":1,"type":"channel","subtype":"noteOff","noteNumber":79,"velocity":64,"realTime":10416,"sortKey":264},{"deltaTime":16,"channel":1,"type":"channel","noteNumber":81,"velocity":120,"subtype":"noteOn","realTime":10432,"sortKey":265},{"deltaTime":80,"channel":1,"type":"channel","subtype":"noteOff","noteNumber":81,"velocity":64,"realTime":10512,"sortKey":266},{"deltaTime":16,"channel":1,"type":"channel","noteNumber":79,"velocity":104,"subtype":"noteOn","realTime":10528,"sortKey":267},{"deltaTime":24,"channel":1,"type":"channel","subtype":"noteOff","noteNumber":79,"velocity":64,"realTime":10552,"sortKey":268},{"deltaTime":8,"channel":1,"type":"channel","noteNumber":81,"velocity":115,"subtype":"noteOn","realTime":10560,"sortKey":269},{"deltaTime":48,"channel":1,"type":"channel","subtype":"noteOff","noteNumber":81,"velocity":64,"realTime":10608,"sortKey":270},{"deltaTime":16,"channel":1,"type":"channel","noteNumber":79,"velocity":115,"subtype":"noteOn","realTime":10624,"sortKey":271},{"deltaTime":48,"channel":1,"type":"channel","subtype":"noteOff","noteNumber":79,"velocity":64,"realTime":10672,"sortKey":272},{"deltaTime":16,"channel":1,"type":"channel","noteNumber":73,"velocity":114,"subtype":"noteOn","realTime":10688,"sortKey":273},{"deltaTime":48,"channel":1,"type":"channel","subtype":"noteOff","noteNumber":73,"velocity":64,"realTime":10736,"sortKey":274},{"deltaTime":16,"channel":1,"type":"channel","noteNumber":69,"velocity":105,"subtype":"noteOn","realTime":10752,"sortKey":275},{"deltaTime":48,"channel":1,"type":"channel","subtype":"noteOff","noteNumber":69,"velocity":64,"realTime":10800,"sortKey":276},{"deltaTime":16,"channel":1,"type":"channel","noteNumber":81,"velocity":110,"subtype":"noteOn","realTime":10816,"sortKey":277},{"deltaTime":48,"channel":1,"type":"channel","subtype":"noteOff","noteNumber":81,"velocity":64,"realTime":10864,"sortKey":278},{"deltaTime":16,"channel":1,"type":"channel","noteNumber":79,"velocity":114,"subtype":"noteOn","realTime":10880,"sortKey":279},{"deltaTime":48,"channel":1,"type":"channel","subtype":"noteOff","noteNumber":79,"velocity":64,"realTime":10928,"sortKey":280},{"deltaTime":16,"channel":1,"type":"channel","noteNumber":81,"velocity":124,"subtype":"noteOn","realTime":10944,"sortKey":281},{"deltaTime":80,"channel":1,"type":"channel","subtype":"noteOff","noteNumber":81,"velocity":64,"realTime":11024,"sortKey":282},{"deltaTime":16,"channel":1,"type":"channel","noteNumber":79,"velocity":115,"subtype":"noteOn","realTime":11040,"sortKey":283},{"deltaTime":24,"channel":1,"type":"channel","subtype":"noteOff","noteNumber":79,"velocity":64,"realTime":11064,"sortKey":284},{"deltaTime":8,"channel":1,"type":"channel","noteNumber":81,"velocity":117,"subtype":"noteOn","realTime":11072,"sortKey":285},{"deltaTime":48,"channel":1,"type":"channel","subtype":"noteOff","noteNumber":81,"velocity":64,"realTime":11120,"sortKey":286},{"deltaTime":16,"channel":1,"type":"channel","noteNumber":79,"velocity":119,"subtype":"noteOn","realTime":11136,"sortKey":287},{"deltaTime":24,"channel":1,"type":"channel","subtype":"noteOff","noteNumber":79,"velocity":64,"realTime":11160,"sortKey":288},{"deltaTime":8,"channel":1,"type":"channel","noteNumber":74,"velocity":123,"subtype":"noteOn","realTime":11168,"sortKey":289},{"deltaTime":24,"channel":1,"type":"channel","subtype":"noteOff","noteNumber":74,"velocity":64,"realTime":11192,"sortKey":290},{"deltaTime":8,"channel":1,"type":"channel","noteNumber":76,"velocity":113,"subtype":"noteOn","realTime":11200,"sortKey":291},{"deltaTime":48,"channel":1,"type":"channel","subtype":"noteOff","noteNumber":76,"velocity":64,"realTime":11248,"sortKey":292},{"deltaTime":16,"channel":1,"type":"channel","noteNumber":76,"velocity":114,"subtype":"noteOn","realTime":11264,"sortKey":293},{"deltaTime":48,"channel":1,"type":"channel","subtype":"noteOff","noteNumber":76,"velocity":64,"realTime":11312,"sortKey":294},{"deltaTime":16,"channel":1,"type":"channel","noteNumber":88,"velocity":118,"subtype":"noteOn","realTime":11328,"sortKey":295},{"deltaTime":112,"channel":1,"type":"channel","subtype":"noteOff","noteNumber":88,"velocity":64,"realTime":11440,"sortKey":296},{"deltaTime":16,"channel":1,"type":"channel","noteNumber":76,"velocity":114,"subtype":"noteOn","realTime":11456,"sortKey":297},{"deltaTime":48,"channel":1,"type":"channel","subtype":"noteOff","noteNumber":76,"velocity":64,"realTime":11504,"sortKey":298},{"deltaTime":16,"channel":1,"type":"channel","noteNumber":76,"velocity":109,"subtype":"noteOn","realTime":11520,"sortKey":299},{"deltaTime":48,"channel":1,"type":"channel","subtype":"noteOff","noteNumber":76,"velocity":64,"realTime":11568,"sortKey":300},{"deltaTime":16,"channel":1,"type":"channel","noteNumber":76,"velocity":109,"subtype":"noteOn","realTime":11584,"sortKey":301},{"deltaTime":48,"channel":1,"type":"channel","subtype":"noteOff","noteNumber":76,"velocity":64,"realTime":11632,"sortKey":302},{"deltaTime":16,"channel":1,"type":"channel","noteNumber":76,"velocity":123,"subtype":"noteOn","realTime":11648,"sortKey":303},{"deltaTime":48,"channel":1,"type":"channel","subtype":"noteOff","noteNumber":76,"velocity":64,"realTime":11696,"sortKey":304},{"deltaTime":16,"channel":1,"type":"channel","noteNumber":77,"velocity":117,"subtype":"noteOn","realTime":11712,"sortKey":305},{"deltaTime":48,"channel":1,"type":"channel","subtype":"noteOff","noteNumber":77,"velocity":64,"realTime":11760,"sortKey":306},{"deltaTime":16,"channel":1,"type":"channel","noteNumber":78,"velocity":118,"subtype":"noteOn","realTime":11776,"sortKey":307},{"deltaTime":48,"channel":1,"type":"channel","subtype":"noteOff","noteNumber":78,"velocity":64,"realTime":11824,"sortKey":308},{"deltaTime":16,"channel":1,"type":"channel","noteNumber":90,"velocity":110,"subtype":"noteOn","realTime":11840,"sortKey":309},{"deltaTime":112,"channel":1,"type":"channel","subtype":"noteOff","noteNumber":90,"velocity":64,"realTime":11952,"sortKey":310},{"deltaTime":16,"channel":1,"type":"channel","noteNumber":78,"velocity":114,"subtype":"noteOn","realTime":11968,"sortKey":311},{"deltaTime":48,"channel":1,"type":"channel","subtype":"noteOff","noteNumber":78,"velocity":64,"realTime":12016,"sortKey":312},{"deltaTime":16,"channel":1,"type":"channel","noteNumber":76,"velocity":107,"subtype":"noteOn","realTime":12032,"sortKey":313},{"deltaTime":48,"channel":1,"type":"channel","subtype":"noteOff","noteNumber":76,"velocity":64,"realTime":12080,"sortKey":314},{"deltaTime":16,"channel":1,"type":"channel","noteNumber":88,"velocity":107,"subtype":"noteOn","realTime":12096,"sortKey":315},{"deltaTime":48,"channel":1,"type":"channel","subtype":"noteOff","noteNumber":88,"velocity":64,"realTime":12144,"sortKey":316},{"deltaTime":16,"channel":1,"type":"channel","noteNumber":74,"velocity":120,"subtype":"noteOn","realTime":12160,"sortKey":317},{"deltaTime":48,"channel":1,"type":"channel","subtype":"noteOff","noteNumber":74,"velocity":64,"realTime":12208,"sortKey":318},{"deltaTime":16,"channel":1,"type":"channel","noteNumber":72,"velocity":106,"subtype":"noteOn","realTime":12224,"sortKey":319},{"deltaTime":48,"channel":1,"type":"channel","subtype":"noteOff","noteNumber":72,"velocity":64,"realTime":12272,"sortKey":320},{"deltaTime":16,"channel":1,"type":"channel","noteNumber":69,"velocity":114,"subtype":"noteOn","realTime":12288,"sortKey":321},{"deltaTime":48,"channel":1,"type":"channel","subtype":"noteOff","noteNumber":69,"velocity":64,"realTime":12336,"sortKey":322},{"deltaTime":16,"channel":1,"type":"channel","noteNumber":81,"velocity":116,"subtype":"noteOn","realTime":12352,"sortKey":323},{"deltaTime":48,"channel":1,"type":"channel","subtype":"noteOff","noteNumber":81,"velocity":64,"realTime":12400,"sortKey":324},{"deltaTime":16,"channel":1,"type":"channel","noteNumber":79,"velocity":113,"subtype":"noteOn","realTime":12416,"sortKey":325},{"deltaTime":48,"channel":1,"type":"channel","subtype":"noteOff","noteNumber":79,"velocity":64,"realTime":12464,"sortKey":326},{"deltaTime":16,"channel":1,"type":"channel","noteNumber":81,"velocity":115,"subtype":"noteOn","realTime":12480,"sortKey":327},{"deltaTime":80,"channel":1,"type":"channel","subtype":"noteOff","noteNumber":81,"velocity":64,"realTime":12560,"sortKey":328},{"deltaTime":16,"channel":1,"type":"channel","noteNumber":79,"velocity":114,"subtype":"noteOn","realTime":12576,"sortKey":329},{"deltaTime":24,"channel":1,"type":"channel","subtype":"noteOff","noteNumber":79,"velocity":64,"realTime":12600,"sortKey":330},{"deltaTime":8,"channel":1,"type":"channel","noteNumber":81,"velocity":113,"subtype":"noteOn","realTime":12608,"sortKey":331},{"deltaTime":48,"channel":1,"type":"channel","subtype":"noteOff","noteNumber":81,"velocity":64,"realTime":12656,"sortKey":332},{"deltaTime":16,"channel":1,"type":"channel","noteNumber":79,"velocity":122,"subtype":"noteOn","realTime":12672,"sortKey":333},{"deltaTime":48,"channel":1,"type":"channel","subtype":"noteOff","noteNumber":79,"velocity":64,"realTime":12720,"sortKey":334},{"deltaTime":16,"channel":1,"type":"channel","noteNumber":73,"velocity":111,"subtype":"noteOn","realTime":12736,"sortKey":335},{"deltaTime":48,"channel":1,"type":"channel","subtype":"noteOff","noteNumber":73,"velocity":64,"realTime":12784,"sortKey":336},{"deltaTime":16,"channel":1,"type":"channel","noteNumber":69,"velocity":108,"subtype":"noteOn","realTime":12800,"sortKey":337},{"deltaTime":48,"channel":1,"type":"channel","subtype":"noteOff","noteNumber":69,"velocity":64,"realTime":12848,"sortKey":338},{"deltaTime":16,"channel":1,"type":"channel","noteNumber":81,"velocity":120,"subtype":"noteOn","realTime":12864,"sortKey":339},{"deltaTime":48,"channel":1,"type":"channel","subtype":"noteOff","noteNumber":81,"velocity":64,"realTime":12912,"sortKey":340},{"deltaTime":16,"channel":1,"type":"channel","noteNumber":79,"velocity":112,"subtype":"noteOn","realTime":12928,"sortKey":341},{"deltaTime":48,"channel":1,"type":"channel","subtype":"noteOff","noteNumber":79,"velocity":64,"realTime":12976,"sortKey":342},{"deltaTime":16,"channel":1,"type":"channel","noteNumber":81,"velocity":120,"subtype":"noteOn","realTime":12992,"sortKey":343},{"deltaTime":80,"channel":1,"type":"channel","subtype":"noteOff","noteNumber":81,"velocity":64,"realTime":13072,"sortKey":344},{"deltaTime":16,"channel":1,"type":"channel","noteNumber":79,"velocity":111,"subtype":"noteOn","realTime":13088,"sortKey":345},{"deltaTime":24,"channel":1,"type":"channel","subtype":"noteOff","noteNumber":79,"velocity":64,"realTime":13112,"sortKey":346},{"deltaTime":8,"channel":1,"type":"channel","noteNumber":81,"velocity":112,"subtype":"noteOn","realTime":13120,"sortKey":347},{"deltaTime":48,"channel":1,"type":"channel","subtype":"noteOff","noteNumber":81,"velocity":64,"realTime":13168,"sortKey":348},{"deltaTime":16,"channel":1,"type":"channel","noteNumber":79,"velocity":113,"subtype":"noteOn","realTime":13184,"sortKey":349},{"deltaTime":48,"channel":1,"type":"channel","subtype":"noteOff","noteNumber":79,"velocity":64,"realTime":13232,"sortKey":350},{"deltaTime":16,"channel":1,"type":"channel","noteNumber":73,"velocity":114,"subtype":"noteOn","realTime":13248,"sortKey":351},{"deltaTime":48,"channel":1,"type":"channel","subtype":"noteOff","noteNumber":73,"velocity":64,"realTime":13296,"sortKey":352},{"deltaTime":0,"type":"meta","subtype":"endOfTrack"}]]}