{"header":{"formatType":1,"trackCount":3,"ticksPerBeat":128},"tracks":[[{"deltaTime":0,"type":"meta","subtype":"timeSignature","numerator":4,"denominator":4,"metronome":24,"thirtyseconds":8,"realTime":0,"sortKey":2},{"deltaTime":0,"type":"meta","subtype":"setTempo","microsecondsPerBeat":555554,"realTime":0,"sortKey":1},{"deltaTime":0,"type":"meta","subtype":"endOfTrack"}],[{"deltaTime":null,"channel":9,"type":"channel","noteNumber":35,"velocity":113,"subtype":"noteOn","realTime":66561,"sortKey":1486},{"deltaTime":14,"channel":9,"type":"channel","subtype":"noteOff","noteNumber":49,"velocity":64,"realTime":66575,"sortKey":1487},{"deltaTime":2,"channel":9,"type":"channel","subtype":"noteOff","noteNumber":35,"velocity":64,"realTime":66577,"sortKey":1488},{"deltaTime":45,"channel":9,"type":"channel","noteNumber":51,"velocity":76,"subtype":"noteOn","realTime":66622,"sortKey":1489},{"deltaTime":2,"channel":9,"type":"channel","noteNumber":35,"velocity":106,"subtype":"noteOn","realTime":66624,"sortKey":1490},{"deltaTime":14,"channel":9,"type":"channel","subtype":"noteOff","noteNumber":51,"velocity":64,"realTime":66638,"sortKey":1491},{"deltaTime":2,"channel":9,"type":"channel","subtype":"noteOff","noteNumber":35,"velocity":64,"realTime":66640,"sortKey":1492},{"deltaTime":52,"channel":9,"type":"channel","noteNumber":38,"velocity":119,"subtype":"noteOn","realTime":66692,"sortKey":1493},{"deltaTime":0,"channel":9,"type":"channel","noteNumber":49,"velocity":127,"subtype":"noteOn","realTime":66692,"sortKey":1494},{"deltaTime":16,"channel":9,"type":"channel","subtype":"noteOff","noteNumber":38,"velocity":64,"realTime":66708,"sortKey":1495},{"deltaTime":0,"channel":9,"type":"channel","subtype":"noteOff","noteNumber":49,"velocity":64,"realTime":66708,"sortKey":1496},{"deltaTime":42,"channel":9,"type":"channel","noteNumber":51,"velocity":80,"subtype":"noteOn","realTime":66750,"sortKey":1497},{"deltaTime":16,"channel":9,"type":"channel","subtype":"noteOff","noteNumber":51,"velocity":64,"realTime":66766,"sortKey":1498},{"deltaTime":25,"channel":9,"type":"channel","noteNumber":38,"velocity":105,"subtype":"noteOn","realTime":66791,"sortKey":1499},{"deltaTime":16,"channel":9,"type":"channel","subtype":"noteOff","noteNumber":38,"velocity":64,"realTime":66807,"sortKey":1500},{"deltaTime":8,"channel":9,"type":"channel","noteNumber":51,"velocity":117,"subtype":"noteOn","realTime":66815,"sortKey":1501},{"deltaTime":2,"channel":9,"type":"channel","noteNumber":35,"velocity":103,"subtype":"noteOn","realTime":66817,"sortKey":1502},{"deltaTime":14,"channel":9,"type":"channel","subtype":"noteOff","noteNumber":51,"velocity":64,"realTime":66831,"sortKey":1503},{"deltaTime":2,"channel":9,"type":"channel","subtype":"noteOff","noteNumber":35,"velocity":64,"realTime":66833,"sortKey":1504},{"deltaTime":50,"channel":9,"type":"channel","noteNumber":51,"velocity":83,"subtype":"noteOn","realTime":66883,"sortKey":1505},{"deltaTime":0,"channel":9,"type":"channel","noteNumber":35,"velocity":105,"subtype":"noteOn","realTime":66883,"sortKey":1506},{"deltaTime":16,"channel":9,"type":"channel","subtype":"noteOff","noteNumber":51,"velocity":64,"realTime":66899,"sortKey":1507},{"deltaTime":0,"channel":9,"type":"channel","subtype":"noteOff","noteNumber":35,"velocity":64,"realTime":66899,"sortKey":1508},{"deltaTime":47,"channel":9,"type":"channel","noteNumber":38,"velocity":125,"subtype":"noteOn","realTime":66946,"sortKey":1509},{"deltaTime":1,"channel":9,"type":"channel","noteNumber":49,"velocity":127,"subtype":"noteOn","realTime":66947,"sortKey":1510},{"deltaTime":15,"channel":9,"type":"channel","subtype":"noteOff","noteNumber":38,"velocity":64,"realTime":66962,"sortKey":1511},{"deltaTime":1,"channel":9,"type":"channel","subtype":"noteOff","noteNumber":49,"velocity":64,"realTime":66963,"sortKey":1512},{"deltaTime":42,"channel":9,"type":"channel","noteNumber":51,"velocity":81,"subtype":"noteOn","realTime":67005,"sortKey":1513},{"deltaTime":16,"channel":9,"type":"channel","subtype":"noteOff","noteNumber":51,"velocity":64,"realTime":67021,"sortKey":1514},{"deltaTime":24,"channel":9,"type":"channel","noteNumber":38,"velocity":108,"subtype":"noteOn","realTime":67045,"sortKey":1515},{"deltaTime":16,"channel":9,"type":"channel","subtype":"noteOff","noteNumber":38,"velocity":64,"realTime":67061,"sortKey":1516},{"deltaTime":13,"channel":9,"type":"channel","noteNumber":48,"velocity":124,"subtype":"noteOn","realTime":67074,"sortKey":1517},{"deltaTime":16,"channel":9,"type":"channel","subtype":"noteOff","noteNumber":48,"velocity":64,"realTime":67090,"sortKey":1518},{"deltaTime":5,"channel":9,"type":"channel","noteNumber":48,"velocity":114,"subtype":"noteOn","realTime":67095,"sortKey":1519},{"deltaTime":16,"channel":9,"type":"channel","subtype":"noteOff","noteNumber":48,"velocity":64,"realTime":67111,"sortKey":1520},{"deltaTime":5,"channel":9,"type":"channel","noteNumber":35,"velocity":113,"subtype":"noteOn","realTime":67116,"sortKey":1521},{"deltaTime":16,"channel":9,"type":"channel","subtype":"noteOff","noteNumber":35,"velocity":64,"realTime":67132,"sortKey":1522},{"deltaTime":3,"channel":9,"type":"channel","noteNumber":45,"velocity":117,"subtype":"noteOn","realTime":67135,"sortKey":1523},{"deltaTime":16,"channel":9,"type":"channel","subtype":"noteOff","noteNumber":45,"velocity":64,"realTime":67151,"sortKey":1524},{"deltaTime":5,"channel":9,"type":"channel","noteNumber":45,"velocity":110,"subtype":"noteOn","realTime":67156,"sortKey":1525},{"deltaTime":16,"channel":9,"type":"channel","subtype":"noteOff","noteNumber":45,"velocity":64,"realTime":67172,"sortKey":1526},{"deltaTime":6,"channel":9,"type":"channel","noteNumber":35,"velocity":108,"subtype":"noteOn","realTime":67178,"sortKey":1527},{"deltaTime":16,"channel":9,"type":"channel","subtype":"noteOff","noteNumber":35,"velocity":64,"realTime":67194,"sortKey":1528},{"deltaTime":5,"channel":9,"type":"channel","noteNumber":43,"velocity":121,"subtype":"noteOn","realTime":67199,"sortKey":1529},{"deltaTime":16,"channel":9,"type":"channel","subtype":"noteOff","noteNumber":43,"velocity":64,"realTime":67215,"sortKey":1530},{"deltaTime":7,"channel":9,"type":"channel","noteNumber":43,"velocity":115,"subtype":"noteOn","realTime":67222,"sortKey":1531},{"deltaTime":16,"channel":9,"type":"channel","subtype":"noteOff","noteNumber":43,"velocity":64,"realTime":67238,"sortKey":1532},{"deltaTime":5,"channel":9,"type":"channel","noteNumber":35,"velocity":115,"subtype":"noteOn","realTime":67243,"sortKey":1533},{"deltaTime":16,"channel":9,"type":"channel","subtype":"noteOff","noteNumber":35,"velocity":64,"realTime":67259,"sortKey":1534},{"deltaTime":5,"channel":9,"type":"channel","noteNumber":45,"velocity":122,"subtype":"noteOn","realTime":67264,"sortKey":1535},{"deltaTime":16,"channel":9,"type":"channel","subtype":"noteOff","noteNumber":45,"velocity":64,"realTime":67280,"sortKey":1536},{"deltaTime":6,"channel":9,"type":"channel","noteNumber":45,"velocity":116,"subtype":"noteOn","realTime":67286,"sortKey":1537},{"deltaTime":16,"channel":9,"type":"channel","subtype":"noteOff","noteNumber":45,"velocity":64,"realTime":67302,"sortKey":1538},{"deltaTime":6,"channel":9,"type":"channel","noteNumber":35,"velocity":122,"subtype":"noteOn","realTime":67308,"sortKey":1539},{"deltaTime":16,"channel":9,"type":"channel","subtype":"noteOff","noteNumber":35,"velocity":64,"realTime":67324,"sortKey":1540},{"deltaTime":5,"channel":9,"type":"channel","noteNumber":38,"velocity":117,"subtype":"noteOn","realTime":67329,"sortKey":1541},{"deltaTime":8,"channel":9,"type":"channel","subtype":"noteOff","noteNumber":38,"velocity":64,"realTime":67337,"sortKey":1542},{"deltaTime":0,"channel":9,"type":"channel","noteNumber":38,"velocity":127,"subtype":"noteOn","realTime":67337,"sortKey":1543},{"deltaTime":16,"channel":9,"type":"channel","subtype":"noteOff","noteNumber":38,"velocity":64,"realTime":67353,"sortKey":1544},{"deltaTime":105,"channel":9,"type":"channel","noteNumber":44,"velocity":118,"subtype":"noteOn","realTime":67458,"sortKey":1545},{"deltaTime":16,"channel":9,"type":"channel","subtype":"noteOff","noteNumber":44,"velocity":64,"realTime":67474,"sortKey":1546},{"deltaTime":112,"channel":9,"type":"channel","noteNumber":44,"velocity":105,"subtype":"noteOn","realTime":67586,"sortKey":1547},{"deltaTime":16,"channel":9,"type":"channel","subtype":"noteOff","noteNumber":44,"velocity":64,"realTime":67602,"sortKey":1548},{"deltaTime":111,"channel":9,"type":"channel","noteNumber":44,"velocity":111,"subtype":"noteOn","realTime":67713,"sortKey":1549},{"deltaTime":16,"channel":9,"type":"channel","subtype":"noteOff","noteNumber":44,"velocity":64,"realTime":67729,"sortKey":1550},{"deltaTime":112,"channel":9,"type":"channel","noteNumber":38,"velocity":125,"subtype":"noteOn","realTime":67841,"sortKey":1551},{"deltaTime":16,"channel":9,"type":"channel","subtype":"noteOff","noteNumber":38,"velocity":64,"realTime":67857,"sortKey":1552},{"deltaTime":16,"channel":9,"type":"channel","noteNumber":38,"velocity":117,"subtype":"noteOn","realTime":67873,"sortKey":1553},{"deltaTime":16,"channel":9,"type":"channel","subtype":"noteOff","noteNumber":38,"velocity":64,"realTime":67889,"sortKey":1554},{"deltaTime":46,"channel":9,"type":"channel","noteNumber":45,"velocity":118,"subtype":"noteOn","realTime":67935,"sortKey":1555},{"deltaTime":16,"channel":9,"type":"channel","subtype":"noteOff","noteNumber":45,"velocity":64,"realTime":67951,"sortKey":1556},{"deltaTime":15,"channel":9,"type":"channel","noteNumber":45,"velocity":125,"subtype":"noteOn","realTime":67966,"sortKey":1557},{"deltaTime":16,"channel":9,"type":"channel","subtype":"noteOff","noteNumber":45,"velocity":64,"realTime":67982,"sortKey":1558},{"deltaTime":51,"channel":9,"type":"channel","noteNumber":38,"velocity":119,"subtype":"noteOn","realTime":68033,"sortKey":1559},{"deltaTime":16,"channel":9,"type":"channel","subtype":"noteOff","noteNumber":38,"velocity":64,"realTime":68049,"sortKey":1560},{"deltaTime":16,"channel":9,"type":"channel","noteNumber":38,"velocity":127,"subtype":"noteOn","realTime":68065,"sortKey":1561},{"deltaTime":16,"channel":9,"type":"channel","subtype":"noteOff","noteNumber":38,"velocity":64,"realTime":68081,"sortKey":1562},{"deltaTime":50,"channel":9,"type":"channel","noteNumber":45,"velocity":120,"subtype":"noteOn","realTime":68131,"sortKey":1563},{"deltaTime":16,"channel":9,"type":"channel","subtype":"noteOff","noteNumber":45,"velocity":64,"realTime":68147,"sortKey":1564},{"deltaTime":11,"channel":9,"type":"channel","noteNumber":45,"velocity":125,"subtype":"noteOn","realTime":68158,"sortKey":1565},{"deltaTime":16,"channel":9,"type":"channel","subtype":"noteOff","noteNumber":45,"velocity":64,"realTime":68174,"sortKey":1566},{"deltaTime":51,"channel":9,"type":"channel","noteNumber":48,"velocity":127,"subtype":"noteOn","realTime":68225,"sortKey":1567},{"deltaTime":16,"channel":9,"type":"channel","subtype":"noteOff","noteNumber":48,"velocity":64,"realTime":68241,"sortKey":1568},{"deltaTime":5,"channel":9,"type":"channel","noteNumber":48,"velocity":114,"subtype":"noteOn","realTime":68246,"sortKey":1569},{"deltaTime":16,"channel":9,"type":"channel","subtype":"noteOff","noteNumber":48,"velocity":64,"realTime":68262,"sortKey":1570},{"deltaTime":4,"channel":9,"type":"channel","noteNumber":45,"velocity":125,"subtype":"noteOn","realTime":68266,"sortKey":1571},{"deltaTime":16,"channel":9,"type":"channel","subtype":"noteOff","noteNumber":45,"velocity":64,"realTime":68282,"sortKey":1572},{"deltaTime":5,"channel":9,"type":"channel","noteNumber":45,"velocity":116,"subtype":"noteOn","realTime":68287,"sortKey":1573},{"deltaTime":16,"channel":9,"type":"channel","subtype":"noteOff","noteNumber":45,"velocity":64,"realTime":68303,"sortKey":1574},{"deltaTime":7,"channel":9,"type":"channel","noteNumber":43,"velocity":127,"subtype":"noteOn","realTime":68310,"sortKey":1575},{"deltaTime":16,"channel":9,"type":"channel","subtype":"noteOff","noteNumber":43,"velocity":64,"realTime":68326,"sortKey":1576},{"deltaTime":5,"channel":9,"type":"channel","noteNumber":43,"velocity":116,"subtype":"noteOn","realTime":68331,"sortKey":1577},{"deltaTime":16,"channel":9,"type":"channel","subtype":"noteOff","noteNumber":43,"velocity":64,"realTime":68347,"sortKey":1578},{"deltaTime":5,"channel":9,"type":"channel","noteNumber":49,"velocity":127,"subtype":"noteOn","realTime":68352,"sortKey":1579},{"deltaTime":443,"channel":9,"type":"channel","subtype":"noteOff","noteNumber":49,"velocity":64,"realTime":68795,"sortKey":1580},{"deltaTime":0,"type":"meta","subtype":"endOfTrack"}],[{"deltaTime":null,"channel":1,"type":"channel","noteNumber":76,"velocity":114,"subtype":"noteOn","realTime":66560,"sortKey":2069},{"deltaTime":48,"channel":1,"type":"channel","subtype":"noteOff","noteNumber":76,"velocity":64,"realTime":66608,"sortKey":2070},{"deltaTime":16,"channel":1,"type":"channel","noteNumber":76,"velocity":114,"subtype":"noteOn","realTime":66624,"sortKey":2071},{"deltaTime":48,"channel":1,"type":"channel","subtype":"noteOff","noteNumber":76,"velocity":64,"realTime":66672,"sortKey":2072},{"deltaTime":16,"channel":1,"type":"channel","noteNumber":76,"velocity":113,"subtype":"noteOn","realTime":66688,"sortKey":2073},{"deltaTime":48,"channel":1,"type":"channel","subtype":"noteOff","noteNumber":76,"velocity":64,"realTime":66736,"sortKey":2074},{"deltaTime":16,"channel":1,"type":"channel","noteNumber":76,"velocity":109,"subtype":"noteOn","realTime":66752,"sortKey":2075},{"deltaTime":48,"channel":1,"type":"channel","subtype":"noteOff","noteNumber":76,"velocity":64,"realTime":66800,"sortKey":2076},{"deltaTime":16,"channel":1,"type":"channel","noteNumber":76,"velocity":105,"subtype":"noteOn","realTime":66816,"sortKey":2077},{"deltaTime":48,"channel":1,"type":"channel","subtype":"noteOff","noteNumber":76,"velocity":64,"realTime":66864,"sortKey":2078},{"deltaTime":16,"channel":1,"type":"channel","noteNumber":76,"velocity":112,"subtype":"noteOn","realTime":66880,"sortKey":2079},{"deltaTime":48,"channel":1,"type":"channel","subtype":"noteOff","noteNumber":76,"velocity":64,"realTime":66928,"sortKey":2080},{"deltaTime":16,"channel":1,"type":"channel","noteNumber":76,"velocity":111,"subtype":"noteOn","realTime":66944,"sortKey":2081},{"deltaTime":48,"channel":1,"type":"channel","subtype":"noteOff","noteNumber":76,"velocity":64,"realTime":66992,"sortKey":2082},{"deltaTime":16,"channel":1,"type":"channel","noteNumber":75,"velocity":117,"subtype":"noteOn","realTime":67008,"sortKey":2083},{"deltaTime":48,"channel":1,"type":"channel","subtype":"noteOff","noteNumber":75,"velocity":64,"realTime":67056,"sortKey":2084},{"deltaTime":16,"channel":1,"type":"channel","noteNumber":74,"velocity":114,"subtype":"noteOn","realTime":67072,"sortKey":2085},{"deltaTime":112,"channel":1,"type":"channel","subtype":"noteOff","noteNumber":74,"velocity":64,"realTime":67184,"sortKey":2086},{"deltaTime":464,"channel":1,"type":"channel","noteNumber":81,"velocity":119,"subtype":"noteOn","realTime":67648,"sortKey":2087},{"deltaTime":24,"channel":1,"type":"channel","subtype":"noteOff","noteNumber":81,"velocity":64,"realTime":67672,"sortKey":2088},{"deltaTime":8,"channel":1,"type":"channel","noteNumber":79,"velocity":116,"subtype":"noteOn","realTime":67680,"sortKey":2089},{"deltaTime":24,"channel":1,"type":"channel","subtype":"noteOff","noteNumber":79,"velocity":64,"realTime":67704,"sortKey":2090},{"deltaTime":8,"channel":1,"type":"channel","noteNumber":81,"velocity":105,"subtype":"noteOn","realTime":67712,"sortKey":2091},{"deltaTime":24,"channel":1,"type":"channel","subtype":"noteOff","noteNumber":81,"velocity":64,"realTime":67736,"sortKey":2092},{"deltaTime":8,"channel":1,"type":"channel","noteNumber":79,"velocity":114,"subtype":"noteOn","realTime":67744,"sortKey":2093},{"deltaTime":24,"channel":1,"type":"channel","subtype":"noteOff","noteNumber":79,"velocity":64,"realTime":67768,"sortKey":2094},{"deltaTime":8,"channel":1,"type":"channel","noteNumber":76,"velocity":107,"subtype":"noteOn","realTime":67776,"sortKey":2095},{"deltaTime":48,"channel":1,"type":"channel","subtype":"noteOff","noteNumber":76,"velocity":64,"realTime":67824,"sortKey":2096},{"deltaTime":16,"channel":1,"type":"channel","noteNumber":79,"velocity":118,"subtype":"noteOn","realTime":67840,"sortKey":2097},{"deltaTime":48,"channel":1,"type":"channel","subtype":"noteOff","noteNumber":79,"velocity":64,"realTime":67888,"sortKey":2098},{"deltaTime":16,"channel":1,"type":"channel","noteNumber":81,"velocity":113,"subtype":"noteOn","realTime":67904,"sortKey":2099},{"deltaTime":24,"channel":1,"type":"channel","subtype":"noteOff","noteNumber":81,"velocity":64,"realTime":67928,"sortKey":2100},{"deltaTime":8,"channel":1,"type":"channel","noteNumber":67,"velocity":115,"subtype":"noteOn","realTime":67936,"sortKey":2101},{"deltaTime":24,"channel":1,"type":"channel","subtype":"noteOff","noteNumber":67,"velocity":64,"realTime":67960,"sortKey":2102},{"deltaTime":8,"channel":1,"type":"channel","noteNumber":74,"velocity":106,"subtype":"noteOn","realTime":67968,"sortKey":2103},{"deltaTime":48,"channel":1,"type":"channel","subtype":"noteOff","noteNumber":74,"velocity":64,"realTime":68016,"sortKey":2104},{"deltaTime":16,"channel":1,"type":"channel","noteNumber":72,"velocity":111,"subtype":"noteOn","realTime":68032,"sortKey":2105},{"deltaTime":48,"channel":1,"type":"channel","subtype":"noteOff","noteNumber":72,"velocity":64,"realTime":68080,"sortKey":2106},{"deltaTime":272,"channel":1,"type":"channel","noteNumber":69,"velocity":111,"subtype":"noteOn","realTime":68352,"sortKey":2107},{"deltaTime":368,"channel":1,"type":"channel","subtype":"noteOff","noteNumber":69,"velocity":64,"realTime":68720,"sortKey":2108},{"deltaTime":0,"type":"meta","subtype":"endOfTrack"}]]}