{"header":{"formatType":1,"trackCount":3,"ticksPerBeat":128},"tracks":[[{"deltaTime":0,"type":"meta","subtype":"timeSignature","numerator":4,"denominator":4,"metronome":24,"thirtyseconds":8,"realTime":0,"sortKey":2},{"deltaTime":0,"type":"meta","subtype":"setTempo","microsecondsPerBeat":555554,"realTime":0,"sortKey":1},{"deltaTime":0,"type":"meta","subtype":"endOfTrack"}],[{"deltaTime":0,"channel":9,"type":"channel","noteNumber":44,"velocity":127,"subtype":"noteOn","realTime":0,"sortKey":1},{"deltaTime":16,"channel":9,"type":"channel","subtype":"noteOff","noteNumber":44,"velocity":64,"realTime":16,"sortKey":2},{"deltaTime":111,"channel":9,"type":"channel","noteNumber":44,"velocity":125,"subtype":"noteOn","realTime":127,"sortKey":3},{"deltaTime":16,"channel":9,"type":"channel","subtype":"noteOff","noteNumber":44,"velocity":64,"realTime":143,"sortKey":4},{"deltaTime":113,"channel":9,"type":"channel","noteNumber":44,"velocity":127,"subtype":"noteOn","realTime":256,"sortKey":5},{"deltaTime":16,"channel":9,"type":"channel","subtype":"noteOff","noteNumber":44,"velocity":64,"realTime":272,"sortKey":6},{"deltaTime":111,"channel":9,"type":"channel","noteNumber":44,"velocity":125,"subtype":"noteOn","realTime":383,"sortKey":7},{"deltaTime":16,"channel":9,"type":"channel","subtype":"noteOff","noteNumber":44,"velocity":64,"realTime":399,"sortKey":8},{"deltaTime":113,"channel":9,"type":"channel","noteNumber":44,"velocity":127,"subtype":"noteOn","realTime":512,"sortKey":9},{"deltaTime":16,"channel":9,"type":"channel","subtype":"noteOff","noteNumber":44,"velocity":64,"realTime":528,"sortKey":10},{"deltaTime":111,"channel":9,"type":"channel","noteNumber":44,"velocity":125,"subtype":"noteOn","realTime":639,"sortKey":11},{"deltaTime":16,"channel":9,"type":"channel","subtype":"noteOff","noteNumber":44,"velocity":64,"realTime":655,"sortKey":12},{"deltaTime":83,"channel":9,"type":"channel","noteNumber":38,"velocity":48,"subtype":"noteOn","realTime":738,"sortKey":13},{"deltaTime":14,"channel":9,"type":"channel","noteNumber":38,"velocity":40,"subtype":"noteOn","realTime":752,"sortKey":14},{"deltaTime":2,"channel":9,"type":"channel","subtype":"noteOff","noteNumber":38,"velocity":64,"realTime":754,"sortKey":15},{"deltaTime":14,"channel":9,"type":"channel","subtype":"noteOff","noteNumber":38,"velocity":64,"realTime":768,"sortKey":16},{"deltaTime":2,"channel":9,"type":"channel","noteNumber":38,"velocity":121,"subtype":"noteOn","realTime":770,"sortKey":17},{"deltaTime":16,"channel":9,"type":"channel","subtype":"noteOff","noteNumber":38,"velocity":64,"realTime":786,"sortKey":18},{"deltaTime":48,"channel":9,"type":"channel","noteNumber":38,"velocity":117,"subtype":"noteOn","realTime":834,"sortKey":19},{"deltaTime":16,"channel":9,"type":"channel","subtype":"noteOff","noteNumber":38,"velocity":64,"realTime":850,"sortKey":20},{"deltaTime":19,"channel":9,"type":"channel","noteNumber":38,"velocity":125,"subtype":"noteOn","realTime":869,"sortKey":21},{"deltaTime":16,"channel":9,"type":"channel","subtype":"noteOff","noteNumber":38,"velocity":64,"realTime":885,"sortKey":22},{"deltaTime":49,"channel":9,"type":"channel","noteNumber":38,"velocity":54,"subtype":"noteOn","realTime":934,"sortKey":23},{"deltaTime":16,"channel":9,"type":"channel","subtype":"noteOff","noteNumber":38,"velocity":64,"realTime":950,"sortKey":24},{"deltaTime":11,"channel":9,"type":"channel","noteNumber":38,"velocity":119,"subtype":"noteOn","realTime":961,"sortKey":25},{"deltaTime":16,"channel":9,"type":"channel","subtype":"noteOff","noteNumber":38,"velocity":64,"realTime":977,"sortKey":26},{"deltaTime":17,"channel":9,"type":"channel","noteNumber":38,"velocity":126,"subtype":"noteOn","realTime":994,"sortKey":27},{"deltaTime":16,"channel":9,"type":"channel","subtype":"noteOff","noteNumber":38,"velocity":64,"realTime":1010,"sortKey":28},{"deltaTime":14,"channel":9,"type":"channel","noteNumber":35,"velocity":112,"subtype":"noteOn","realTime":1024,"sortKey":29},{"deltaTime":0,"channel":9,"type":"channel","noteNumber":49,"velocity":125,"subtype":"noteOn","realTime":1024,"sortKey":30},{"deltaTime":16,"channel":9,"type":"channel","subtype":"noteOff","noteNumber":35,"velocity":64,"realTime":1040,"sortKey":31},{"deltaTime":0,"channel":9,"type":"channel","subtype":"noteOff","noteNumber":49,"velocity":64,"realTime":1040,"sortKey":32},{"deltaTime":54,"channel":9,"type":"channel","noteNumber":35,"velocity":101,"subtype":"noteOn","realTime":1094,"sortKey":33},{"deltaTime":2,"channel":9,"type":"channel","noteNumber":42,"velocity":55,"subtype":"noteOn","realTime":1096,"sortKey":34},{"deltaTime":14,"channel":9,"type":"channel","subtype":"noteOff","noteNumber":35,"velocity":64,"realTime":1110,"sortKey":35},{"deltaTime":2,"channel":9,"type":"channel","subtype":"noteOff","noteNumber":42,"velocity":64,"realTime":1112,"sortKey":36},{"deltaTime":42,"channel":9,"type":"channel","noteNumber":38,"velocity":116,"subtype":"noteOn","realTime":1154,"sortKey":37},{"deltaTime":1,"channel":9,"type":"channel","noteNumber":42,"velocity":89,"subtype":"noteOn","realTime":1155,"sortKey":38},{"deltaTime":15,"channel":9,"type":"channel","subtype":"noteOff","noteNumber":38,"velocity":64,"realTime":1170,"sortKey":39},{"deltaTime":1,"channel":9,"type":"channel","subtype":"noteOff","noteNumber":42,"velocity":64,"realTime":1171,"sortKey":40},{"deltaTime":49,"channel":9,"type":"channel","noteNumber":42,"velocity":49,"subtype":"noteOn","realTime":1220,"sortKey":41},{"deltaTime":16,"channel":9,"type":"channel","subtype":"noteOff","noteNumber":42,"velocity":64,"realTime":1236,"sortKey":42},{"deltaTime":20,"channel":9,"type":"channel","noteNumber":38,"velocity":102,"subtype":"noteOn","realTime":1256,"sortKey":43},{"deltaTime":16,"channel":9,"type":"channel","subtype":"noteOff","noteNumber":38,"velocity":64,"realTime":1272,"sortKey":44},{"deltaTime":10,"channel":9,"type":"channel","noteNumber":35,"velocity":106,"subtype":"noteOn","realTime":1282,"sortKey":45},{"deltaTime":2,"channel":9,"type":"channel","noteNumber":42,"velocity":83,"subtype":"noteOn","realTime":1284,"sortKey":46},{"deltaTime":14,"channel":9,"type":"channel","subtype":"noteOff","noteNumber":35,"velocity":64,"realTime":1298,"sortKey":47},{"deltaTime":2,"channel":9,"type":"channel","subtype":"noteOff","noteNumber":42,"velocity":64,"realTime":1300,"sortKey":48},{"deltaTime":49,"channel":9,"type":"channel","noteNumber":35,"velocity":104,"subtype":"noteOn","realTime":1349,"sortKey":49},{"deltaTime":1,"channel":9,"type":"channel","noteNumber":42,"velocity":55,"subtype":"noteOn","realTime":1350,"sortKey":50},{"deltaTime":15,"channel":9,"type":"channel","subtype":"noteOff","noteNumber":35,"velocity":64,"realTime":1365,"sortKey":51},{"deltaTime":1,"channel":9,"type":"channel","subtype":"noteOff","noteNumber":42,"velocity":64,"realTime":1366,"sortKey":52},{"deltaTime":45,"channel":9,"type":"channel","noteNumber":38,"velocity":118,"subtype":"noteOn","realTime":1411,"sortKey":53},{"deltaTime":2,"channel":9,"type":"channel","noteNumber":42,"velocity":89,"subtype":"noteOn","realTime":1413,"sortKey":54},{"deltaTime":14,"channel":9,"type":"channel","subtype":"noteOff","noteNumber":38,"velocity":64,"realTime":1427,"sortKey":55},{"deltaTime":2,"channel":9,"type":"channel","subtype":"noteOff","noteNumber":42,"velocity":64,"realTime":1429,"sortKey":56},{"deltaTime":47,"channel":9,"type":"channel","noteNumber":42,"velocity":49,"subtype":"noteOn","realTime":1476,"sortKey":57},{"deltaTime":16,"channel":9,"type":"channel","subtype":"noteOff","noteNumber":42,"velocity":64,"realTime":1492,"sortKey":58},{"deltaTime":20,"channel":9,"type":"channel","noteNumber":38,"velocity":100,"subtype":"noteOn","realTime":1512,"sortKey":59},{"deltaTime":16,"channel":9,"type":"channel","subtype":"noteOff","noteNumber":38,"velocity":64,"realTime":1528,"sortKey":60},{"deltaTime":11,"channel":9,"type":"channel","noteNumber":35,"velocity":109,"subtype":"noteOn","realTime":1539,"sortKey":61},{"deltaTime":0,"channel":9,"type":"channel","noteNumber":42,"velocity":84,"subtype":"noteOn","realTime":1539,"sortKey":62},{"deltaTime":16,"channel":9,"type":"channel","subtype":"noteOff","noteNumber":35,"velocity":64,"realTime":1555,"sortKey":63},{"deltaTime":0,"channel":9,"type":"channel","subtype":"noteOff","noteNumber":42,"velocity":64,"realTime":1555,"sortKey":64},{"deltaTime":49,"channel":9,"type":"channel","noteNumber":35,"velocity":104,"subtype":"noteOn","realTime":1604,"sortKey":65},{"deltaTime":0,"channel":9,"type":"channel","noteNumber":42,"velocity":60,"subtype":"noteOn","realTime":1604,"sortKey":66},{"deltaTime":16,"channel":9,"type":"channel","subtype":"noteOff","noteNumber":35,"velocity":64,"realTime":1620,"sortKey":67},{"deltaTime":0,"channel":9,"type":"channel","subtype":"noteOff","noteNumber":42,"velocity":64,"realTime":1620,"sortKey":68},{"deltaTime":47,"channel":9,"type":"channel","noteNumber":38,"velocity":113,"subtype":"noteOn","realTime":1667,"sortKey":69},{"deltaTime":1,"channel":9,"type":"channel","noteNumber":42,"velocity":85,"subtype":"noteOn","realTime":1668,"sortKey":70},{"deltaTime":15,"channel":9,"type":"channel","subtype":"noteOff","noteNumber":38,"velocity":64,"realTime":1683,"sortKey":71},{"deltaTime":1,"channel":9,"type":"channel","subtype":"noteOff","noteNumber":42,"velocity":64,"realTime":1684,"sortKey":72},{"deltaTime":48,"channel":9,"type":"channel","noteNumber":42,"velocity":44,"subtype":"noteOn","realTime":1732,"sortKey":73},{"deltaTime":16,"channel":9,"type":"channel","subtype":"noteOff","noteNumber":42,"velocity":64,"realTime":1748,"sortKey":74},{"deltaTime":20,"channel":9,"type":"channel","noteNumber":38,"velocity":104,"subtype":"noteOn","realTime":1768,"sortKey":75},{"deltaTime":16,"channel":9,"type":"channel","subtype":"noteOff","noteNumber":38,"velocity":64,"realTime":1784,"sortKey":76},{"deltaTime":11,"channel":9,"type":"channel","noteNumber":42,"velocity":77,"subtype":"noteOn","realTime":1795,"sortKey":77},{"deltaTime":1,"channel":9,"type":"channel","noteNumber":35,"velocity":105,"subtype":"noteOn","realTime":1796,"sortKey":78},{"deltaTime":15,"channel":9,"type":"channel","subtype":"noteOff","noteNumber":42,"velocity":64,"realTime":1811,"sortKey":79},{"deltaTime":1,"channel":9,"type":"channel","subtype":"noteOff","noteNumber":35,"velocity":64,"realTime":1812,"sortKey":80},{"deltaTime":50,"channel":9,"type":"channel","noteNumber":35,"velocity":104,"subtype":"noteOn","realTime":1862,"sortKey":81},{"deltaTime":1,"channel":9,"type":"channel","noteNumber":42,"velocity":64,"subtype":"noteOn","realTime":1863,"sortKey":82},{"deltaTime":15,"channel":9,"type":"channel","subtype":"noteOff","noteNumber":35,"velocity":64,"realTime":1878,"sortKey":83},{"deltaTime":1,"channel":9,"type":"channel","subtype":"noteOff","noteNumber":42,"velocity":64,"realTime":1879,"sortKey":84},{"deltaTime":43,"channel":9,"type":"channel","noteNumber":38,"velocity":117,"subtype":"noteOn","realTime":1922,"sortKey":85},{"deltaTime":2,"channel":9,"type":"channel","noteNumber":42,"velocity":85,"subtype":"noteOn","realTime":1924,"sortKey":86},{"deltaTime":14,"channel":9,"type":"channel","subtype":"noteOff","noteNumber":38,"velocity":64,"realTime":1938,"sortKey":87},{"deltaTime":2,"channel":9,"type":"channel","subtype":"noteOff","noteNumber":42,"velocity":64,"realTime":1940,"sortKey":88},{"deltaTime":46,"channel":9,"type":"channel","noteNumber":42,"velocity":49,"subtype":"noteOn","realTime":1986,"sortKey":89},{"deltaTime":16,"channel":9,"type":"channel","subtype":"noteOff","noteNumber":42,"velocity":64,"realTime":2002,"sortKey":90},{"deltaTime":19,"channel":9,"type":"channel","noteNumber":38,"velocity":98,"subtype":"noteOn","realTime":2021,"sortKey":91},{"deltaTime":16,"channel":9,"type":"channel","subtype":"noteOff","noteNumber":38,"velocity":64,"realTime":2037,"sortKey":92},{"deltaTime":14,"channel":9,"type":"channel","noteNumber":35,"velocity":110,"subtype":"noteOn","realTime":2051,"sortKey":93},{"deltaTime":0,"channel":9,"type":"channel","noteNumber":42,"velocity":77,"subtype":"noteOn","realTime":2051,"sortKey":94},{"deltaTime":16,"channel":9,"type":"channel","subtype":"noteOff","noteNumber":35,"velocity":64,"realTime":2067,"sortKey":95},{"deltaTime":0,"channel":9,"type":"channel","subtype":"noteOff","noteNumber":42,"velocity":64,"realTime":2067,"sortKey":96},{"deltaTime":50,"channel":9,"type":"channel","noteNumber":35,"velocity":103,"subtype":"noteOn","realTime":2117,"sortKey":97},{"deltaTime":1,"channel":9,"type":"channel","noteNumber":42,"velocity":60,"subtype":"noteOn","realTime":2118,"sortKey":98},{"deltaTime":15,"channel":9,"type":"channel","subtype":"noteOff","noteNumber":35,"velocity":64,"realTime":2133,"sortKey":99},{"deltaTime":1,"channel":9,"type":"channel","subtype":"noteOff","noteNumber":42,"velocity":64,"realTime":2134,"sortKey":100},{"deltaTime":45,"channel":9,"type":"channel","noteNumber":38,"velocity":119,"subtype":"noteOn","realTime":2179,"sortKey":101},{"deltaTime":1,"channel":9,"type":"channel","noteNumber":42,"velocity":84,"subtype":"noteOn","realTime":2180,"sortKey":102},{"deltaTime":15,"channel":9,"type":"channel","subtype":"noteOff","noteNumber":38,"velocity":64,"realTime":2195,"sortKey":103},{"deltaTime":1,"channel":9,"type":"channel","subtype":"noteOff","noteNumber":42,"velocity":64,"realTime":2196,"sortKey":104},{"deltaTime":45,"channel":9,"type":"channel","noteNumber":42,"velocity":50,"subtype":"noteOn","realTime":2241,"sortKey":105},{"deltaTime":16,"channel":9,"type":"channel","subtype":"noteOff","noteNumber":42,"velocity":64,"realTime":2257,"sortKey":106},{"deltaTime":21,"channel":9,"type":"channel","noteNumber":38,"velocity":102,"subtype":"noteOn","realTime":2278,"sortKey":107},{"deltaTime":16,"channel":9,"type":"channel","subtype":"noteOff","noteNumber":38,"velocity":64,"realTime":2294,"sortKey":108},{"deltaTime":11,"channel":9,"type":"channel","noteNumber":35,"velocity":106,"subtype":"noteOn","realTime":2305,"sortKey":109},{"deltaTime":2,"channel":9,"type":"channel","noteNumber":42,"velocity":69,"subtype":"noteOn","realTime":2307,"sortKey":110},{"deltaTime":14,"channel":9,"type":"channel","subtype":"noteOff","noteNumber":35,"velocity":64,"realTime":2321,"sortKey":111},{"deltaTime":2,"channel":9,"type":"channel","subtype":"noteOff","noteNumber":42,"velocity":64,"realTime":2323,"sortKey":112},{"deltaTime":49,"channel":9,"type":"channel","noteNumber":35,"velocity":103,"subtype":"noteOn","realTime":2372,"sortKey":113},{"deltaTime":1,"channel":9,"type":"channel","noteNumber":42,"velocity":46,"subtype":"noteOn","realTime":2373,"sortKey":114},{"deltaTime":15,"channel":9,"type":"channel","subtype":"noteOff","noteNumber":35,"velocity":64,"realTime":2388,"sortKey":115},{"deltaTime":1,"channel":9,"type":"channel","subtype":"noteOff","noteNumber":42,"velocity":64,"realTime":2389,"sortKey":116},{"deltaTime":45,"channel":9,"type":"channel","noteNumber":38,"velocity":115,"subtype":"noteOn","realTime":2434,"sortKey":117},{"deltaTime":1,"channel":9,"type":"channel","noteNumber":42,"velocity":84,"subtype":"noteOn","realTime":2435,"sortKey":118},{"deltaTime":15,"channel":9,"type":"channel","subtype":"noteOff","noteNumber":38,"velocity":64,"realTime":2450,"sortKey":119},{"deltaTime":1,"channel":9,"type":"channel","subtype":"noteOff","noteNumber":42,"velocity":64,"realTime":2451,"sortKey":120},{"deltaTime":47,"channel":9,"type":"channel","noteNumber":42,"velocity":39,"subtype":"noteOn","realTime":2498,"sortKey":121},{"deltaTime":16,"channel":9,"type":"channel","subtype":"noteOff","noteNumber":42,"velocity":64,"realTime":2514,"sortKey":122},{"deltaTime":20,"channel":9,"type":"channel","noteNumber":38,"velocity":102,"subtype":"noteOn","realTime":2534,"sortKey":123},{"deltaTime":16,"channel":9,"type":"channel","subtype":"noteOff","noteNumber":38,"velocity":64,"realTime":2550,"sortKey":124},{"deltaTime":11,"channel":9,"type":"channel","noteNumber":35,"velocity":109,"subtype":"noteOn","realTime":2561,"sortKey":125},{"deltaTime":0,"channel":9,"type":"channel","noteNumber":42,"velocity":71,"subtype":"noteOn","realTime":2561,"sortKey":126},{"deltaTime":16,"channel":9,"type":"channel","subtype":"noteOff","noteNumber":35,"velocity":64,"realTime":2577,"sortKey":127},{"deltaTime":0,"channel":9,"type":"channel","subtype":"noteOff","noteNumber":42,"velocity":64,"realTime":2577,"sortKey":128},{"deltaTime":50,"channel":9,"type":"channel","noteNumber":35,"velocity":104,"subtype":"noteOn","realTime":2627,"sortKey":129},{"deltaTime":1,"channel":9,"type":"channel","noteNumber":42,"velocity":60,"subtype":"noteOn","realTime":2628,"sortKey":130},{"deltaTime":15,"channel":9,"type":"channel","subtype":"noteOff","noteNumber":35,"velocity":64,"realTime":2643,"sortKey":131},{"deltaTime":1,"channel":9,"type":"channel","subtype":"noteOff","noteNumber":42,"velocity":64,"realTime":2644,"sortKey":132},{"deltaTime":45,"channel":9,"type":"channel","noteNumber":38,"velocity":120,"subtype":"noteOn","realTime":2689,"sortKey":133},{"deltaTime":3,"channel":9,"type":"channel","noteNumber":42,"velocity":78,"subtype":"noteOn","realTime":2692,"sortKey":134},{"deltaTime":13,"channel":9,"type":"channel","subtype":"noteOff","noteNumber":38,"velocity":64,"realTime":2705,"sortKey":135},{"deltaTime":3,"channel":9,"type":"channel","subtype":"noteOff","noteNumber":42,"velocity":64,"realTime":2708,"sortKey":136},{"deltaTime":45,"channel":9,"type":"channel","noteNumber":42,"velocity":52,"subtype":"noteOn","realTime":2753,"sortKey":137},{"deltaTime":16,"channel":9,"type":"channel","subtype":"noteOff","noteNumber":42,"velocity":64,"realTime":2769,"sortKey":138},{"deltaTime":22,"channel":9,"type":"channel","noteNumber":38,"velocity":105,"subtype":"noteOn","realTime":2791,"sortKey":139},{"deltaTime":16,"channel":9,"type":"channel","subtype":"noteOff","noteNumber":38,"velocity":64,"realTime":2807,"sortKey":140},{"deltaTime":12,"channel":9,"type":"channel","noteNumber":35,"velocity":103,"subtype":"noteOn","realTime":2819,"sortKey":141},{"deltaTime":0,"channel":9,"type":"channel","noteNumber":42,"velocity":86,"subtype":"noteOn","realTime":2819,"sortKey":142},{"deltaTime":16,"channel":9,"type":"channel","subtype":"noteOff","noteNumber":35,"velocity":64,"realTime":2835,"sortKey":143},{"deltaTime":0,"channel":9,"type":"channel","subtype":"noteOff","noteNumber":42,"velocity":64,"realTime":2835,"sortKey":144},{"deltaTime":49,"channel":9,"type":"channel","noteNumber":35,"velocity":102,"subtype":"noteOn","realTime":2884,"sortKey":145},{"deltaTime":1,"channel":9,"type":"channel","noteNumber":42,"velocity":55,"subtype":"noteOn","realTime":2885,"sortKey":146},{"deltaTime":15,"channel":9,"type":"channel","subtype":"noteOff","noteNumber":35,"velocity":64,"realTime":2900,"sortKey":147},{"deltaTime":1,"channel":9,"type":"channel","subtype":"noteOff","noteNumber":42,"velocity":64,"realTime":2901,"sortKey":148},{"deltaTime":45,"channel":9,"type":"channel","noteNumber":38,"velocity":120,"subtype":"noteOn","realTime":2946,"sortKey":149},{"deltaTime":2,"channel":9,"type":"channel","noteNumber":42,"velocity":84,"subtype":"noteOn","realTime":2948,"sortKey":150},{"deltaTime":14,"channel":9,"type":"channel","subtype":"noteOff","noteNumber":38,"velocity":64,"realTime":2962,"sortKey":151},{"deltaTime":2,"channel":9,"type":"channel","subtype":"noteOff","noteNumber":42,"velocity":64,"realTime":2964,"sortKey":152},{"deltaTime":46,"channel":9,"type":"channel","noteNumber":42,"velocity":45,"subtype":"noteOn","realTime":3010,"sortKey":153},{"deltaTime":16,"channel":9,"type":"channel","subtype":"noteOff","noteNumber":42,"velocity":64,"realTime":3026,"sortKey":154},{"deltaTime":20,"channel":9,"type":"channel","noteNumber":38,"velocity":100,"subtype":"noteOn","realTime":3046,"sortKey":155},{"deltaTime":16,"channel":9,"type":"channel","subtype":"noteOff","noteNumber":38,"velocity":64,"realTime":3062,"sortKey":156},{"deltaTime":13,"channel":9,"type":"channel","noteNumber":35,"velocity":110,"subtype":"noteOn","realTime":3075,"sortKey":157},{"deltaTime":0,"channel":9,"type":"channel","noteNumber":42,"velocity":80,"subtype":"noteOn","realTime":3075,"sortKey":158},{"deltaTime":16,"channel":9,"type":"channel","subtype":"noteOff","noteNumber":35,"velocity":64,"realTime":3091,"sortKey":159},{"deltaTime":0,"channel":9,"type":"channel","subtype":"noteOff","noteNumber":42,"velocity":64,"realTime":3091,"sortKey":160},{"deltaTime":49,"channel":9,"type":"channel","noteNumber":35,"velocity":101,"subtype":"noteOn","realTime":3140,"sortKey":161},{"deltaTime":2,"channel":9,"type":"channel","noteNumber":42,"velocity":55,"subtype":"noteOn","realTime":3142,"sortKey":162},{"deltaTime":14,"channel":9,"type":"channel","subtype":"noteOff","noteNumber":35,"velocity":64,"realTime":3156,"sortKey":163},{"deltaTime":2,"channel":9,"type":"channel","subtype":"noteOff","noteNumber":42,"velocity":64,"realTime":3158,"sortKey":164},{"deltaTime":43,"channel":9,"type":"channel","noteNumber":38,"velocity":119,"subtype":"noteOn","realTime":3201,"sortKey":165},{"deltaTime":3,"channel":9,"type":"channel","noteNumber":42,"velocity":83,"subtype":"noteOn","realTime":3204,"sortKey":166},{"deltaTime":13,"channel":9,"type":"channel","subtype":"noteOff","noteNumber":38,"velocity":64,"realTime":3217,"sortKey":167},{"deltaTime":3,"channel":9,"type":"channel","subtype":"noteOff","noteNumber":42,"velocity":64,"realTime":3220,"sortKey":168},{"deltaTime":43,"channel":9,"type":"channel","noteNumber":42,"velocity":50,"subtype":"noteOn","realTime":3263,"sortKey":169},{"deltaTime":16,"channel":9,"type":"channel","subtype":"noteOff","noteNumber":42,"velocity":64,"realTime":3279,"sortKey":170},{"deltaTime":22,"channel":9,"type":"channel","noteNumber":38,"velocity":101,"subtype":"noteOn","realTime":3301,"sortKey":171},{"deltaTime":16,"channel":9,"type":"channel","subtype":"noteOff","noteNumber":38,"velocity":64,"realTime":3317,"sortKey":172},{"deltaTime":11,"channel":9,"type":"channel","noteNumber":35,"velocity":104,"subtype":"noteOn","realTime":3328,"sortKey":173},{"deltaTime":2,"channel":9,"type":"channel","noteNumber":42,"velocity":71,"subtype":"noteOn","realTime":3330,"sortKey":174},{"deltaTime":14,"channel":9,"type":"channel","subtype":"noteOff","noteNumber":35,"velocity":64,"realTime":3344,"sortKey":175},{"deltaTime":2,"channel":9,"type":"channel","subtype":"noteOff","noteNumber":42,"velocity":64,"realTime":3346,"sortKey":176},{"deltaTime":50,"channel":9,"type":"channel","noteNumber":35,"velocity":100,"subtype":"noteOn","realTime":3396,"sortKey":177},{"deltaTime":0,"channel":9,"type":"channel","noteNumber":42,"velocity":47,"subtype":"noteOn","realTime":3396,"sortKey":178},{"deltaTime":16,"channel":9,"type":"channel","subtype":"noteOff","noteNumber":35,"velocity":64,"realTime":3412,"sortKey":179},{"deltaTime":0,"channel":9,"type":"channel","subtype":"noteOff","noteNumber":42,"velocity":64,"realTime":3412,"sortKey":180},{"deltaTime":45,"channel":9,"type":"channel","noteNumber":38,"velocity":116,"subtype":"noteOn","realTime":3457,"sortKey":181},{"deltaTime":2,"channel":9,"type":"channel","noteNumber":42,"velocity":80,"subtype":"noteOn","realTime":3459,"sortKey":182},{"deltaTime":14,"channel":9,"type":"channel","subtype":"noteOff","noteNumber":38,"velocity":64,"realTime":3473,"sortKey":183},{"deltaTime":2,"channel":9,"type":"channel","subtype":"noteOff","noteNumber":42,"velocity":64,"realTime":3475,"sortKey":184},{"deltaTime":46,"channel":9,"type":"channel","noteNumber":42,"velocity":51,"subtype":"noteOn","realTime":3521,"sortKey":185},{"deltaTime":16,"channel":9,"type":"channel","subtype":"noteOff","noteNumber":42,"velocity":64,"realTime":3537,"sortKey":186},{"deltaTime":21,"channel":9,"type":"channel","noteNumber":38,"velocity":96,"subtype":"noteOn","realTime":3558,"sortKey":187},{"deltaTime":16,"channel":9,"type":"channel","subtype":"noteOff","noteNumber":38,"velocity":64,"realTime":3574,"sortKey":188},{"deltaTime":12,"channel":9,"type":"channel","noteNumber":35,"velocity":106,"subtype":"noteOn","realTime":3586,"sortKey":189},{"deltaTime":1,"channel":9,"type":"channel","noteNumber":42,"velocity":84,"subtype":"noteOn","realTime":3587,"sortKey":190},{"deltaTime":15,"channel":9,"type":"channel","subtype":"noteOff","noteNumber":35,"velocity":64,"realTime":3602,"sortKey":191},{"deltaTime":1,"channel":9,"type":"channel","subtype":"noteOff","noteNumber":42,"velocity":64,"realTime":3603,"sortKey":192},{"deltaTime":49,"channel":9,"type":"channel","noteNumber":35,"velocity":100,"subtype":"noteOn","realTime":3652,"sortKey":193},{"deltaTime":2,"channel":9,"type":"channel","noteNumber":42,"velocity":62,"subtype":"noteOn","realTime":3654,"sortKey":194},{"deltaTime":14,"channel":9,"type":"channel","subtype":"noteOff","noteNumber":35,"velocity":64,"realTime":3668,"sortKey":195},{"deltaTime":2,"channel":9,"type":"channel","subtype":"noteOff","noteNumber":42,"velocity":64,"realTime":3670,"sortKey":196},{"deltaTime":44,"channel":9,"type":"channel","noteNumber":38,"velocity":114,"subtype":"noteOn","realTime":3714,"sortKey":197},{"deltaTime":2,"channel":9,"type":"channel","noteNumber":42,"velocity":83,"subtype":"noteOn","realTime":3716,"sortKey":198},{"deltaTime":14,"channel":9,"type":"channel","subtype":"noteOff","noteNumber":38,"velocity":64,"realTime":3730,"sortKey":199},{"deltaTime":2,"channel":9,"type":"channel","subtype":"noteOff","noteNumber":42,"velocity":64,"realTime":3732,"sortKey":200},{"deltaTime":46,"channel":9,"type":"channel","noteNumber":42,"velocity":51,"subtype":"noteOn","realTime":3778,"sortKey":201},{"deltaTime":16,"channel":9,"type":"channel","subtype":"noteOff","noteNumber":42,"velocity":64,"realTime":3794,"sortKey":202},{"deltaTime":19,"channel":9,"type":"channel","noteNumber":38,"velocity":96,"subtype":"noteOn","realTime":3813,"sortKey":203},{"deltaTime":16,"channel":9,"type":"channel","subtype":"noteOff","noteNumber":38,"velocity":64,"realTime":3829,"sortKey":204},{"deltaTime":13,"channel":9,"type":"channel","noteNumber":35,"velocity":101,"subtype":"noteOn","realTime":3842,"sortKey":205},{"deltaTime":2,"channel":9,"type":"channel","noteNumber":42,"velocity":75,"subtype":"noteOn","realTime":3844,"sortKey":206},{"deltaTime":14,"channel":9,"type":"channel","subtype":"noteOff","noteNumber":35,"velocity":64,"realTime":3858,"sortKey":207},{"deltaTime":2,"channel":9,"type":"channel","subtype":"noteOff","noteNumber":42,"velocity":64,"realTime":3860,"sortKey":208},{"deltaTime":48,"channel":9,"type":"channel","noteNumber":35,"velocity":99,"subtype":"noteOn","realTime":3908,"sortKey":209},{"deltaTime":2,"channel":9,"type":"channel","noteNumber":42,"velocity":55,"subtype":"noteOn","realTime":3910,"sortKey":210},{"deltaTime":14,"channel":9,"type":"channel","subtype":"noteOff","noteNumber":35,"velocity":64,"realTime":3924,"sortKey":211},{"deltaTime":2,"channel":9,"type":"channel","subtype":"noteOff","noteNumber":42,"velocity":64,"realTime":3926,"sortKey":212},{"deltaTime":43,"channel":9,"type":"channel","noteNumber":38,"velocity":118,"subtype":"noteOn","realTime":3969,"sortKey":213},{"deltaTime":2,"channel":9,"type":"channel","noteNumber":42,"velocity":82,"subtype":"noteOn","realTime":3971,"sortKey":214},{"deltaTime":14,"channel":9,"type":"channel","subtype":"noteOff","noteNumber":38,"velocity":64,"realTime":3985,"sortKey":215},{"deltaTime":2,"channel":9,"type":"channel","subtype":"noteOff","noteNumber":42,"velocity":64,"realTime":3987,"sortKey":216},{"deltaTime":47,"channel":9,"type":"channel","noteNumber":42,"velocity":51,"subtype":"noteOn","realTime":4034,"sortKey":217},{"deltaTime":16,"channel":9,"type":"channel","subtype":"noteOff","noteNumber":42,"velocity":64,"realTime":4050,"sortKey":218},{"deltaTime":19,"channel":9,"type":"channel","noteNumber":38,"velocity":95,"subtype":"noteOn","realTime":4069,"sortKey":219},{"deltaTime":16,"channel":9,"type":"channel","subtype":"noteOff","noteNumber":38,"velocity":64,"realTime":4085,"sortKey":220},{"deltaTime":13,"channel":9,"type":"channel","noteNumber":35,"velocity":106,"subtype":"noteOn","realTime":4098,"sortKey":221},{"deltaTime":1,"channel":9,"type":"channel","noteNumber":42,"velocity":78,"subtype":"noteOn","realTime":4099,"sortKey":222},{"deltaTime":15,"channel":9,"type":"channel","subtype":"noteOff","noteNumber":35,"velocity":64,"realTime":4114,"sortKey":223},{"deltaTime":1,"channel":9,"type":"channel","subtype":"noteOff","noteNumber":42,"velocity":64,"realTime":4115,"sortKey":224},{"deltaTime":49,"channel":9,"type":"channel","noteNumber":35,"velocity":99,"subtype":"noteOn","realTime":4164,"sortKey":225},{"deltaTime":1,"channel":9,"type":"channel","noteNumber":42,"velocity":60,"subtype":"noteOn","realTime":4165,"sortKey":226},{"deltaTime":15,"channel":9,"type":"channel","subtype":"noteOff","noteNumber":35,"velocity":64,"realTime":4180,"sortKey":227},{"deltaTime":1,"channel":9,"type":"channel","subtype":"noteOff","noteNumber":42,"velocity":64,"realTime":4181,"sortKey":228},{"deltaTime":46,"channel":9,"type":"channel","noteNumber":38,"velocity":115,"subtype":"noteOn","realTime":4227,"sortKey":229},{"deltaTime":1,"channel":9,"type":"channel","noteNumber":42,"velocity":79,"subtype":"noteOn","realTime":4228,"sortKey":230},{"deltaTime":15,"channel":9,"type":"channel","subtype":"noteOff","noteNumber":38,"velocity":64,"realTime":4243,"sortKey":231},{"deltaTime":1,"channel":9,"type":"channel","subtype":"noteOff","noteNumber":42,"velocity":64,"realTime":4244,"sortKey":232},{"deltaTime":46,"channel":9,"type":"channel","noteNumber":42,"velocity":48,"subtype":"noteOn","realTime":4290,"sortKey":233},{"deltaTime":16,"channel":9,"type":"channel","subtype":"noteOff","noteNumber":42,"velocity":64,"realTime":4306,"sortKey":234},{"deltaTime":20,"channel":9,"type":"channel","noteNumber":38,"velocity":98,"subtype":"noteOn","realTime":4326,"sortKey":235},{"deltaTime":16,"channel":9,"type":"channel","subtype":"noteOff","noteNumber":38,"velocity":64,"realTime":4342,"sortKey":236},{"deltaTime":11,"channel":9,"type":"channel","noteNumber":35,"velocity":99,"subtype":"noteOn","realTime":4353,"sortKey":237},{"deltaTime":3,"channel":9,"type":"channel","noteNumber":42,"velocity":85,"subtype":"noteOn","realTime":4356,"sortKey":238},{"deltaTime":13,"channel":9,"type":"channel","subtype":"noteOff","noteNumber":35,"velocity":64,"realTime":4369,"sortKey":239},{"deltaTime":3,"channel":9,"type":"channel","subtype":"noteOff","noteNumber":42,"velocity":64,"realTime":4372,"sortKey":240},{"deltaTime":48,"channel":9,"type":"channel","noteNumber":35,"velocity":98,"subtype":"noteOn","realTime":4420,"sortKey":241},{"deltaTime":1,"channel":9,"type":"channel","noteNumber":42,"velocity":65,"subtype":"noteOn","realTime":4421,"sortKey":242},{"deltaTime":15,"channel":9,"type":"channel","subtype":"noteOff","noteNumber":35,"velocity":64,"realTime":4436,"sortKey":243},{"deltaTime":1,"channel":9,"type":"channel","subtype":"noteOff","noteNumber":42,"velocity":64,"realTime":4437,"sortKey":244},{"deltaTime":45,"channel":9,"type":"channel","noteNumber":38,"velocity":115,"subtype":"noteOn","realTime":4482,"sortKey":245},{"deltaTime":2,"channel":9,"type":"channel","noteNumber":42,"velocity":77,"subtype":"noteOn","realTime":4484,"sortKey":246},{"deltaTime":14,"channel":9,"type":"channel","subtype":"noteOff","noteNumber":38,"velocity":64,"realTime":4498,"sortKey":247},{"deltaTime":2,"channel":9,"type":"channel","subtype":"noteOff","noteNumber":42,"velocity":64,"realTime":4500,"sortKey":248},{"deltaTime":48,"channel":9,"type":"channel","noteNumber":42,"velocity":53,"subtype":"noteOn","realTime":4548,"sortKey":249},{"deltaTime":16,"channel":9,"type":"channel","subtype":"noteOff","noteNumber":42,"velocity":64,"realTime":4564,"sortKey":250},{"deltaTime":19,"channel":9,"type":"channel","noteNumber":38,"velocity":100,"subtype":"noteOn","realTime":4583,"sortKey":251},{"deltaTime":16,"channel":9,"type":"channel","subtype":"noteOff","noteNumber":38,"velocity":64,"realTime":4599,"sortKey":252},{"deltaTime":12,"channel":9,"type":"channel","noteNumber":35,"velocity":108,"subtype":"noteOn","realTime":4611,"sortKey":253},{"deltaTime":0,"channel":9,"type":"channel","noteNumber":42,"velocity":84,"subtype":"noteOn","realTime":4611,"sortKey":254},{"deltaTime":16,"channel":9,"type":"channel","subtype":"noteOff","noteNumber":35,"velocity":64,"realTime":4627,"sortKey":255},{"deltaTime":0,"channel":9,"type":"channel","subtype":"noteOff","noteNumber":42,"velocity":64,"realTime":4627,"sortKey":256},{"deltaTime":49,"channel":9,"type":"channel","noteNumber":35,"velocity":101,"subtype":"noteOn","realTime":4676,"sortKey":257},{"deltaTime":2,"channel":9,"type":"channel","noteNumber":42,"velocity":62,"subtype":"noteOn","realTime":4678,"sortKey":258},{"deltaTime":14,"channel":9,"type":"channel","subtype":"noteOff","noteNumber":35,"velocity":64,"realTime":4692,"sortKey":259},{"deltaTime":2,"channel":9,"type":"channel","subtype":"noteOff","noteNumber":42,"velocity":64,"realTime":4694,"sortKey":260},{"deltaTime":44,"channel":9,"type":"channel","noteNumber":38,"velocity":116,"subtype":"noteOn","realTime":4738,"sortKey":261},{"deltaTime":2,"channel":9,"type":"channel","noteNumber":42,"velocity":89,"subtype":"noteOn","realTime":4740,"sortKey":262},{"deltaTime":14,"channel":9,"type":"channel","subtype":"noteOff","noteNumber":38,"velocity":64,"realTime":4754,"sortKey":263},{"deltaTime":2,"channel":9,"type":"channel","subtype":"noteOff","noteNumber":42,"velocity":64,"realTime":4756,"sortKey":264},{"deltaTime":46,"channel":9,"type":"channel","noteNumber":42,"velocity":54,"subtype":"noteOn","realTime":4802,"sortKey":265},{"deltaTime":16,"channel":9,"type":"channel","subtype":"noteOff","noteNumber":42,"velocity":64,"realTime":4818,"sortKey":266},{"deltaTime":21,"channel":9,"type":"channel","noteNumber":38,"velocity":96,"subtype":"noteOn","realTime":4839,"sortKey":267},{"deltaTime":16,"channel":9,"type":"channel","subtype":"noteOff","noteNumber":38,"velocity":64,"realTime":4855,"sortKey":268},{"deltaTime":12,"channel":9,"type":"channel","noteNumber":35,"velocity":100,"subtype":"noteOn","realTime":4867,"sortKey":269},{"deltaTime":1,"channel":9,"type":"channel","noteNumber":42,"velocity":92,"subtype":"noteOn","realTime":4868,"sortKey":270},{"deltaTime":15,"channel":9,"type":"channel","subtype":"noteOff","noteNumber":35,"velocity":64,"realTime":4883,"sortKey":271},{"deltaTime":1,"channel":9,"type":"channel","subtype":"noteOff","noteNumber":42,"velocity":64,"realTime":4884,"sortKey":272},{"deltaTime":49,"channel":9,"type":"channel","noteNumber":35,"velocity":98,"subtype":"noteOn","realTime":4933,"sortKey":273},{"deltaTime":1,"channel":9,"type":"channel","noteNumber":42,"velocity":59,"subtype":"noteOn","realTime":4934,"sortKey":274},{"deltaTime":15,"channel":9,"type":"channel","subtype":"noteOff","noteNumber":35,"velocity":64,"realTime":4949,"sortKey":275},{"deltaTime":1,"channel":9,"type":"channel","subtype":"noteOff","noteNumber":42,"velocity":64,"realTime":4950,"sortKey":276},{"deltaTime":19,"channel":9,"type":"channel","noteNumber":38,"velocity":52,"subtype":"noteOn","realTime":4969,"sortKey":277},{"deltaTime":16,"channel":9,"type":"channel","subtype":"noteOff","noteNumber":38,"velocity":64,"realTime":4985,"sortKey":278},{"deltaTime":8,"channel":9,"type":"channel","noteNumber":38,"velocity":123,"subtype":"noteOn","realTime":4993,"sortKey":279},{"deltaTime":2,"channel":9,"type":"channel","noteNumber":42,"velocity":101,"subtype":"noteOn","realTime":4995,"sortKey":280},{"deltaTime":14,"channel":9,"type":"channel","subtype":"noteOff","noteNumber":38,"velocity":64,"realTime":5009,"sortKey":281},{"deltaTime":2,"channel":9,"type":"channel","subtype":"noteOff","noteNumber":42,"velocity":64,"realTime":5011,"sortKey":282},{"deltaTime":18,"channel":9,"type":"channel","noteNumber":38,"velocity":36,"subtype":"noteOn","realTime":5029,"sortKey":283},{"deltaTime":16,"channel":9,"type":"channel","subtype":"noteOff","noteNumber":38,"velocity":64,"realTime":5045,"sortKey":284},{"deltaTime":14,"channel":9,"type":"channel","noteNumber":38,"velocity":103,"subtype":"noteOn","realTime":5059,"sortKey":285},{"deltaTime":16,"channel":9,"type":"channel","subtype":"noteOff","noteNumber":38,"velocity":64,"realTime":5075,"sortKey":286},{"deltaTime":17,"channel":9,"type":"channel","noteNumber":38,"velocity":121,"subtype":"noteOn","realTime":5092,"sortKey":287},{"deltaTime":16,"channel":9,"type":"channel","subtype":"noteOff","noteNumber":38,"velocity":64,"realTime":5108,"sortKey":288},{"deltaTime":12,"channel":9,"type":"channel","noteNumber":35,"velocity":112,"subtype":"noteOn","realTime":5120,"sortKey":289},{"deltaTime":0,"channel":9,"type":"channel","noteNumber":49,"velocity":125,"subtype":"noteOn","realTime":5120,"sortKey":290},{"deltaTime":16,"channel":9,"type":"channel","subtype":"noteOff","noteNumber":35,"velocity":64,"realTime":5136,"sortKey":291},{"deltaTime":0,"channel":9,"type":"channel","subtype":"noteOff","noteNumber":49,"velocity":64,"realTime":5136,"sortKey":292},{"deltaTime":54,"channel":9,"type":"channel","noteNumber":35,"velocity":101,"subtype":"noteOn","realTime":5190,"sortKey":293},{"deltaTime":2,"channel":9,"type":"channel","noteNumber":42,"velocity":55,"subtype":"noteOn","realTime":5192,"sortKey":294},{"deltaTime":14,"channel":9,"type":"channel","subtype":"noteOff","noteNumber":35,"velocity":64,"realTime":5206,"sortKey":295},{"deltaTime":2,"channel":9,"type":"channel","subtype":"noteOff","noteNumber":42,"velocity":64,"realTime":5208,"sortKey":296},{"deltaTime":42,"channel":9,"type":"channel","noteNumber":38,"velocity":116,"subtype":"noteOn","realTime":5250,"sortKey":297},{"deltaTime":1,"channel":9,"type":"channel","noteNumber":42,"velocity":89,"subtype":"noteOn","realTime":5251,"sortKey":298},{"deltaTime":15,"channel":9,"type":"channel","subtype":"noteOff","noteNumber":38,"velocity":64,"realTime":5266,"sortKey":299},{"deltaTime":1,"channel":9,"type":"channel","subtype":"noteOff","noteNumber":42,"velocity":64,"realTime":5267,"sortKey":300},{"deltaTime":49,"channel":9,"type":"channel","noteNumber":42,"velocity":49,"subtype":"noteOn","realTime":5316,"sortKey":301},{"deltaTime":16,"channel":9,"type":"channel","subtype":"noteOff","noteNumber":42,"velocity":64,"realTime":5332,"sortKey":302},{"deltaTime":20,"channel":9,"type":"channel","noteNumber":38,"velocity":102,"subtype":"noteOn","realTime":5352,"sortKey":303},{"deltaTime":16,"channel":9,"type":"channel","subtype":"noteOff","noteNumber":38,"velocity":64,"realTime":5368,"sortKey":304},{"deltaTime":10,"channel":9,"type":"channel","noteNumber":35,"velocity":106,"subtype":"noteOn","realTime":5378,"sortKey":305},{"deltaTime":2,"channel":9,"type":"channel","noteNumber":42,"velocity":83,"subtype":"noteOn","realTime":5380,"sortKey":306},{"deltaTime":14,"channel":9,"type":"channel","subtype":"noteOff","noteNumber":35,"velocity":64,"realTime":5394,"sortKey":307},{"deltaTime":2,"channel":9,"type":"channel","subtype":"noteOff","noteNumber":42,"velocity":64,"realTime":5396,"sortKey":308},{"deltaTime":49,"channel":9,"type":"channel","noteNumber":35,"velocity":104,"subtype":"noteOn","realTime":5445,"sortKey":309},{"deltaTime":1,"channel":9,"type":"channel","noteNumber":42,"velocity":55,"subtype":"noteOn","realTime":5446,"sortKey":310},{"deltaTime":15,"channel":9,"type":"channel","subtype":"noteOff","noteNumber":35,"velocity":64,"realTime":5461,"sortKey":311},{"deltaTime":1,"channel":9,"type":"channel","subtype":"noteOff","noteNumber":42,"velocity":64,"realTime":5462,"sortKey":312},{"deltaTime":45,"channel":9,"type":"channel","noteNumber":38,"velocity":118,"subtype":"noteOn","realTime":5507,"sortKey":313},{"deltaTime":2,"channel":9,"type":"channel","noteNumber":42,"velocity":89,"subtype":"noteOn","realTime":5509,"sortKey":314},{"deltaTime":14,"channel":9,"type":"channel","subtype":"noteOff","noteNumber":38,"velocity":64,"realTime":5523,"sortKey":315},{"deltaTime":2,"channel":9,"type":"channel","subtype":"noteOff","noteNumber":42,"velocity":64,"realTime":5525,"sortKey":316},{"deltaTime":47,"channel":9,"type":"channel","noteNumber":42,"velocity":49,"subtype":"noteOn","realTime":5572,"sortKey":317},{"deltaTime":16,"channel":9,"type":"channel","subtype":"noteOff","noteNumber":42,"velocity":64,"realTime":5588,"sortKey":318},{"deltaTime":20,"channel":9,"type":"channel","noteNumber":38,"velocity":100,"subtype":"noteOn","realTime":5608,"sortKey":319},{"deltaTime":16,"channel":9,"type":"channel","subtype":"noteOff","noteNumber":38,"velocity":64,"realTime":5624,"sortKey":320},{"deltaTime":11,"channel":9,"type":"channel","noteNumber":35,"velocity":109,"subtype":"noteOn","realTime":5635,"sortKey":321},{"deltaTime":0,"channel":9,"type":"channel","noteNumber":42,"velocity":84,"subtype":"noteOn","realTime":5635,"sortKey":322},{"deltaTime":16,"channel":9,"type":"channel","subtype":"noteOff","noteNumber":35,"velocity":64,"realTime":5651,"sortKey":323},{"deltaTime":0,"channel":9,"type":"channel","subtype":"noteOff","noteNumber":42,"velocity":64,"realTime":5651,"sortKey":324},{"deltaTime":49,"channel":9,"type":"channel","noteNumber":35,"velocity":104,"subtype":"noteOn","realTime":5700,"sortKey":325},{"deltaTime":0,"channel":9,"type":"channel","noteNumber":42,"velocity":60,"subtype":"noteOn","realTime":5700,"sortKey":326},{"deltaTime":16,"channel":9,"type":"channel","subtype":"noteOff","noteNumber":35,"velocity":64,"realTime":5716,"sortKey":327},{"deltaTime":0,"channel":9,"type":"channel","subtype":"noteOff","noteNumber":42,"velocity":64,"realTime":5716,"sortKey":328},{"deltaTime":47,"channel":9,"type":"channel","noteNumber":38,"velocity":113,"subtype":"noteOn","realTime":5763,"sortKey":329},{"deltaTime":1,"channel":9,"type":"channel","noteNumber":42,"velocity":85,"subtype":"noteOn","realTime":5764,"sortKey":330},{"deltaTime":15,"channel":9,"type":"channel","subtype":"noteOff","noteNumber":38,"velocity":64,"realTime":5779,"sortKey":331},{"deltaTime":1,"channel":9,"type":"channel","subtype":"noteOff","noteNumber":42,"velocity":64,"realTime":5780,"sortKey":332},{"deltaTime":48,"channel":9,"type":"channel","noteNumber":42,"velocity":44,"subtype":"noteOn","realTime":5828,"sortKey":333},{"deltaTime":16,"channel":9,"type":"channel","subtype":"noteOff","noteNumber":42,"velocity":64,"realTime":5844,"sortKey":334},{"deltaTime":20,"channel":9,"type":"channel","noteNumber":38,"velocity":104,"subtype":"noteOn","realTime":5864,"sortKey":335},{"deltaTime":16,"channel":9,"type":"channel","subtype":"noteOff","noteNumber":38,"velocity":64,"realTime":5880,"sortKey":336},{"deltaTime":11,"channel":9,"type":"channel","noteNumber":42,"velocity":77,"subtype":"noteOn","realTime":5891,"sortKey":337},{"deltaTime":1,"channel":9,"type":"channel","noteNumber":35,"velocity":105,"subtype":"noteOn","realTime":5892,"sortKey":338},{"deltaTime":15,"channel":9,"type":"channel","subtype":"noteOff","noteNumber":42,"velocity":64,"realTime":5907,"sortKey":339},{"deltaTime":1,"channel":9,"type":"channel","subtype":"noteOff","noteNumber":35,"velocity":64,"realTime":5908,"sortKey":340},{"deltaTime":50,"channel":9,"type":"channel","noteNumber":35,"velocity":104,"subtype":"noteOn","realTime":5958,"sortKey":341},{"deltaTime":1,"channel":9,"type":"channel","noteNumber":42,"velocity":64,"subtype":"noteOn","realTime":5959,"sortKey":342},{"deltaTime":15,"channel":9,"type":"channel","subtype":"noteOff","noteNumber":35,"velocity":64,"realTime":5974,"sortKey":343},{"deltaTime":1,"channel":9,"type":"channel","subtype":"noteOff","noteNumber":42,"velocity":64,"realTime":5975,"sortKey":344},{"deltaTime":43,"channel":9,"type":"channel","noteNumber":38,"velocity":117,"subtype":"noteOn","realTime":6018,"sortKey":345},{"deltaTime":2,"channel":9,"type":"channel","noteNumber":42,"velocity":85,"subtype":"noteOn","realTime":6020,"sortKey":346},{"deltaTime":14,"channel":9,"type":"channel","subtype":"noteOff","noteNumber":38,"velocity":64,"realTime":6034,"sortKey":347},{"deltaTime":2,"channel":9,"type":"channel","subtype":"noteOff","noteNumber":42,"velocity":64,"realTime":6036,"sortKey":348},{"deltaTime":46,"channel":9,"type":"channel","noteNumber":42,"velocity":49,"subtype":"noteOn","realTime":6082,"sortKey":349},{"deltaTime":16,"channel":9,"type":"channel","subtype":"noteOff","noteNumber":42,"velocity":64,"realTime":6098,"sortKey":350},{"deltaTime":19,"channel":9,"type":"channel","noteNumber":38,"velocity":98,"subtype":"noteOn","realTime":6117,"sortKey":351},{"deltaTime":16,"channel":9,"type":"channel","subtype":"noteOff","noteNumber":38,"velocity":64,"realTime":6133,"sortKey":352},{"deltaTime":13,"channel":9,"type":"channel","noteNumber":35,"velocity":106,"subtype":"noteOn","realTime":6146,"sortKey":353},{"deltaTime":1,"channel":9,"type":"channel","noteNumber":42,"velocity":78,"subtype":"noteOn","realTime":6147,"sortKey":354},{"deltaTime":15,"channel":9,"type":"channel","subtype":"noteOff","noteNumber":35,"velocity":64,"realTime":6162,"sortKey":355},{"deltaTime":1,"channel":9,"type":"channel","subtype":"noteOff","noteNumber":42,"velocity":64,"realTime":6163,"sortKey":356},{"deltaTime":49,"channel":9,"type":"channel","noteNumber":35,"velocity":99,"subtype":"noteOn","realTime":6212,"sortKey":357},{"deltaTime":1,"channel":9,"type":"channel","noteNumber":42,"velocity":60,"subtype":"noteOn","realTime":6213,"sortKey":358},{"deltaTime":15,"channel":9,"type":"channel","subtype":"noteOff","noteNumber":35,"velocity":64,"realTime":6228,"sortKey":359},{"deltaTime":1,"channel":9,"type":"channel","subtype":"noteOff","noteNumber":42,"velocity":64,"realTime":6229,"sortKey":360},{"deltaTime":46,"channel":9,"type":"channel","noteNumber":38,"velocity":115,"subtype":"noteOn","realTime":6275,"sortKey":361},{"deltaTime":1,"channel":9,"type":"channel","noteNumber":42,"velocity":79,"subtype":"noteOn","realTime":6276,"sortKey":362},{"deltaTime":15,"channel":9,"type":"channel","subtype":"noteOff","noteNumber":38,"velocity":64,"realTime":6291,"sortKey":363},{"deltaTime":1,"channel":9,"type":"channel","subtype":"noteOff","noteNumber":42,"velocity":64,"realTime":6292,"sortKey":364},{"deltaTime":46,"channel":9,"type":"channel","noteNumber":42,"velocity":48,"subtype":"noteOn","realTime":6338,"sortKey":365},{"deltaTime":16,"channel":9,"type":"channel","subtype":"noteOff","noteNumber":42,"velocity":64,"realTime":6354,"sortKey":366},{"deltaTime":20,"channel":9,"type":"channel","noteNumber":38,"velocity":98,"subtype":"noteOn","realTime":6374,"sortKey":367},{"deltaTime":16,"channel":9,"type":"channel","subtype":"noteOff","noteNumber":38,"velocity":64,"realTime":6390,"sortKey":368},{"deltaTime":11,"channel":9,"type":"channel","noteNumber":35,"velocity":99,"subtype":"noteOn","realTime":6401,"sortKey":369},{"deltaTime":3,"channel":9,"type":"channel","noteNumber":42,"velocity":85,"subtype":"noteOn","realTime":6404,"sortKey":370},{"deltaTime":13,"channel":9,"type":"channel","subtype":"noteOff","noteNumber":35,"velocity":64,"realTime":6417,"sortKey":371},{"deltaTime":3,"channel":9,"type":"channel","subtype":"noteOff","noteNumber":42,"velocity":64,"realTime":6420,"sortKey":372},{"deltaTime":48,"channel":9,"type":"channel","noteNumber":35,"velocity":98,"subtype":"noteOn","realTime":6468,"sortKey":373},{"deltaTime":1,"channel":9,"type":"channel","noteNumber":42,"velocity":65,"subtype":"noteOn","realTime":6469,"sortKey":374},{"deltaTime":15,"channel":9,"type":"channel","subtype":"noteOff","noteNumber":35,"velocity":64,"realTime":6484,"sortKey":375},{"deltaTime":1,"channel":9,"type":"channel","subtype":"noteOff","noteNumber":42,"velocity":64,"realTime":6485,"sortKey":376},{"deltaTime":45,"channel":9,"type":"channel","noteNumber":38,"velocity":115,"subtype":"noteOn","realTime":6530,"sortKey":377},{"deltaTime":2,"channel":9,"type":"channel","noteNumber":42,"velocity":77,"subtype":"noteOn","realTime":6532,"sortKey":378},{"deltaTime":14,"channel":9,"type":"channel","subtype":"noteOff","noteNumber":38,"velocity":64,"realTime":6546,"sortKey":379},{"deltaTime":2,"channel":9,"type":"channel","subtype":"noteOff","noteNumber":42,"velocity":64,"realTime":6548,"sortKey":380},{"deltaTime":48,"channel":9,"type":"channel","noteNumber":42,"velocity":53,"subtype":"noteOn","realTime":6596,"sortKey":381},{"deltaTime":16,"channel":9,"type":"channel","subtype":"noteOff","noteNumber":42,"velocity":64,"realTime":6612,"sortKey":382},{"deltaTime":19,"channel":9,"type":"channel","noteNumber":38,"velocity":100,"subtype":"noteOn","realTime":6631,"sortKey":383},{"deltaTime":16,"channel":9,"type":"channel","subtype":"noteOff","noteNumber":38,"velocity":64,"realTime":6647,"sortKey":384},{"deltaTime":12,"channel":9,"type":"channel","noteNumber":35,"velocity":108,"subtype":"noteOn","realTime":6659,"sortKey":385},{"deltaTime":0,"channel":9,"type":"channel","noteNumber":42,"velocity":84,"subtype":"noteOn","realTime":6659,"sortKey":386},{"deltaTime":16,"channel":9,"type":"channel","subtype":"noteOff","noteNumber":35,"velocity":64,"realTime":6675,"sortKey":387},{"deltaTime":0,"channel":9,"type":"channel","subtype":"noteOff","noteNumber":42,"velocity":64,"realTime":6675,"sortKey":388},{"deltaTime":49,"channel":9,"type":"channel","noteNumber":35,"velocity":101,"subtype":"noteOn","realTime":6724,"sortKey":389},{"deltaTime":2,"channel":9,"type":"channel","noteNumber":42,"velocity":62,"subtype":"noteOn","realTime":6726,"sortKey":390},{"deltaTime":14,"channel":9,"type":"channel","subtype":"noteOff","noteNumber":35,"velocity":64,"realTime":6740,"sortKey":391},{"deltaTime":2,"channel":9,"type":"channel","subtype":"noteOff","noteNumber":42,"velocity":64,"realTime":6742,"sortKey":392},{"deltaTime":44,"channel":9,"type":"channel","noteNumber":38,"velocity":116,"subtype":"noteOn","realTime":6786,"sortKey":393},{"deltaTime":2,"channel":9,"type":"channel","noteNumber":42,"velocity":89,"subtype":"noteOn","realTime":6788,"sortKey":394},{"deltaTime":14,"channel":9,"type":"channel","subtype":"noteOff","noteNumber":38,"velocity":64,"realTime":6802,"sortKey":395},{"deltaTime":2,"channel":9,"type":"channel","subtype":"noteOff","noteNumber":42,"velocity":64,"realTime":6804,"sortKey":396},{"deltaTime":46,"channel":9,"type":"channel","noteNumber":42,"velocity":54,"subtype":"noteOn","realTime":6850,"sortKey":397},{"deltaTime":16,"channel":9,"type":"channel","subtype":"noteOff","noteNumber":42,"velocity":64,"realTime":6866,"sortKey":398},{"deltaTime":21,"channel":9,"type":"channel","noteNumber":38,"velocity":96,"subtype":"noteOn","realTime":6887,"sortKey":399},{"deltaTime":16,"channel":9,"type":"channel","subtype":"noteOff","noteNumber":38,"velocity":64,"realTime":6903,"sortKey":400},{"deltaTime":12,"channel":9,"type":"channel","noteNumber":35,"velocity":100,"subtype":"noteOn","realTime":6915,"sortKey":401},{"deltaTime":1,"channel":9,"type":"channel","noteNumber":42,"velocity":92,"subtype":"noteOn","realTime":6916,"sortKey":402},{"deltaTime":15,"channel":9,"type":"channel","subtype":"noteOff","noteNumber":35,"velocity":64,"realTime":6931,"sortKey":403},{"deltaTime":1,"channel":9,"type":"channel","subtype":"noteOff","noteNumber":42,"velocity":64,"realTime":6932,"sortKey":404},{"deltaTime":49,"channel":9,"type":"channel","noteNumber":35,"velocity":98,"subtype":"noteOn","realTime":6981,"sortKey":405},{"deltaTime":1,"channel":9,"type":"channel","noteNumber":42,"velocity":59,"subtype":"noteOn","realTime":6982,"sortKey":406},{"deltaTime":15,"channel":9,"type":"channel","subtype":"noteOff","noteNumber":35,"velocity":64,"realTime":6997,"sortKey":407},{"deltaTime":1,"channel":9,"type":"channel","subtype":"noteOff","noteNumber":42,"velocity":64,"realTime":6998,"sortKey":408},{"deltaTime":19,"channel":9,"type":"channel","noteNumber":38,"velocity":52,"subtype":"noteOn","realTime":7017,"sortKey":409},{"deltaTime":16,"channel":9,"type":"channel","subtype":"noteOff","noteNumber":38,"velocity":64,"realTime":7033,"sortKey":410},{"deltaTime":8,"channel":9,"type":"channel","noteNumber":38,"velocity":123,"subtype":"noteOn","realTime":7041,"sortKey":411},{"deltaTime":2,"channel":9,"type":"channel","noteNumber":42,"velocity":101,"subtype":"noteOn","realTime":7043,"sortKey":412},{"deltaTime":14,"channel":9,"type":"channel","subtype":"noteOff","noteNumber":38,"velocity":64,"realTime":7057,"sortKey":413},{"deltaTime":2,"channel":9,"type":"channel","subtype":"noteOff","noteNumber":42,"velocity":64,"realTime":7059,"sortKey":414},{"deltaTime":18,"channel":9,"type":"channel","noteNumber":38,"velocity":36,"subtype":"noteOn","realTime":7077,"sortKey":415},{"deltaTime":16,"channel":9,"type":"channel","subtype":"noteOff","noteNumber":38,"velocity":64,"realTime":7093,"sortKey":416},{"deltaTime":14,"channel":9,"type":"channel","noteNumber":38,"velocity":103,"subtype":"noteOn","realTime":7107,"sortKey":417},{"deltaTime":16,"channel":9,"type":"channel","subtype":"noteOff","noteNumber":38,"velocity":64,"realTime":7123,"sortKey":418},{"deltaTime":17,"channel":9,"type":"channel","noteNumber":38,"velocity":121,"subtype":"noteOn","realTime":7140,"sortKey":419},{"deltaTime":16,"channel":9,"type":"channel","subtype":"noteOff","noteNumber":38,"velocity":64,"realTime":7156,"sortKey":420},{"deltaTime":0,"type":"meta","subtype":"endOfTrack"}],[{"deltaTime":1024,"channel":1,"type":"channel","subtype":"controller","controllerType":10,"value":64,"realTime":1024,"sortKey":1},{"deltaTime":0,"channel":1,"type":"channel","noteNumber":69,"velocity":122,"subtype":"noteOn","realTime":1024,"sortKey":2},{"deltaTime":0,"channel":1,"type":"channel","subtype":"programChange","programNumber":33,"realTime":1024,"sortKey":3},{"deltaTime":48,"channel":1,"type":"channel","subtype":"noteOff","noteNumber":69,"velocity":64,"realTime":1072,"sortKey":4},{"deltaTime":16,"channel":1,"type":"channel","noteNumber":81,"velocity":114,"subtype":"noteOn","realTime":1088,"sortKey":5},{"deltaTime":48,"channel":1,"type":"channel","subtype":"noteOff","noteNumber":81,"velocity":64,"realTime":1136,"sortKey":6},{"deltaTime":80,"channel":1,"type":"channel","noteNumber":81,"velocity":114,"subtype":"noteOn","realTime":1216,"sortKey":7},{"deltaTime":112,"channel":1,"type":"channel","subtype":"noteOff","noteNumber":81,"velocity":64,"realTime":1328,"sortKey":8},{"deltaTime":16,"channel":1,"type":"channel","noteNumber":79,"velocity":109,"subtype":"noteOn","realTime":1344,"sortKey":9},{"deltaTime":48,"channel":1,"type":"channel","subtype":"noteOff","noteNumber":79,"velocity":64,"realTime":1392,"sortKey":10},{"deltaTime":48,"channel":1,"type":"channel","noteNumber":72,"velocity":114,"subtype":"noteOn","realTime":1440,"sortKey":11},{"deltaTime":24,"channel":1,"type":"channel","subtype":"noteOff","noteNumber":72,"velocity":64,"realTime":1464,"sortKey":12},{"deltaTime":8,"channel":1,"type":"channel","noteNumber":72,"velocity":112,"subtype":"noteOn","realTime":1472,"sortKey":13},{"deltaTime":48,"channel":1,"type":"channel","subtype":"noteOff","noteNumber":72,"velocity":64,"realTime":1520,"sortKey":14},{"deltaTime":16,"channel":1,"type":"channel","noteNumber":69,"velocity":122,"subtype":"noteOn","realTime":1536,"sortKey":15},{"deltaTime":48,"channel":1,"type":"channel","subtype":"noteOff","noteNumber":69,"velocity":64,"realTime":1584,"sortKey":16},{"deltaTime":16,"channel":1,"type":"channel","noteNumber":81,"velocity":110,"subtype":"noteOn","realTime":1600,"sortKey":17},{"deltaTime":48,"channel":1,"type":"channel","subtype":"noteOff","noteNumber":81,"velocity":64,"realTime":1648,"sortKey":18},{"deltaTime":80,"channel":1,"type":"channel","noteNumber":81,"velocity":113,"subtype":"noteOn","realTime":1728,"sortKey":19},{"deltaTime":112,"channel":1,"type":"channel","subtype":"noteOff","noteNumber":81,"velocity":64,"realTime":1840,"sortKey":20},{"deltaTime":16,"channel":1,"type":"channel","noteNumber":72,"velocity":110,"subtype":"noteOn","realTime":1856,"sortKey":21},{"deltaTime":48,"channel":1,"type":"channel","subtype":"noteOff","noteNumber":72,"velocity":64,"realTime":1904,"sortKey":22},{"deltaTime":80,"channel":1,"type":"channel","noteNumber":72,"velocity":112,"subtype":"noteOn","realTime":1984,"sortKey":23},{"deltaTime":48,"channel":1,"type":"channel","subtype":"noteOff","noteNumber":72,"velocity":64,"realTime":2032,"sortKey":24},{"deltaTime":80,"channel":1,"type":"channel","noteNumber":81,"velocity":114,"subtype":"noteOn","realTime":2112,"sortKey":25},{"deltaTime":48,"channel":1,"type":"channel","subtype":"noteOff","noteNumber":81,"velocity":64,"realTime":2160,"sortKey":26},{"deltaTime":80,"channel":1,"type":"channel","noteNumber":81,"velocity":113,"subtype":"noteOn","realTime":2240,"sortKey":27},{"deltaTime":112,"channel":1,"type":"channel","subtype":"noteOff","noteNumber":81,"velocity":64,"realTime":2352,"sortKey":28},{"deltaTime":16,"channel":1,"type":"channel","noteNumber":72,"velocity":109,"subtype":"noteOn","realTime":2368,"sortKey":29},{"deltaTime":48,"channel":1,"type":"channel","subtype":"noteOff","noteNumber":72,"velocity":64,"realTime":2416,"sortKey":30},{"deltaTime":80,"channel":1,"type":"channel","noteNumber":72,"velocity":111,"subtype":"noteOn","realTime":2496,"sortKey":31},{"deltaTime":48,"channel":1,"type":"channel","subtype":"noteOff","noteNumber":72,"velocity":64,"realTime":2544,"sortKey":32},{"deltaTime":16,"channel":1,"type":"channel","noteNumber":69,"velocity":115,"subtype":"noteOn","realTime":2560,"sortKey":33},{"deltaTime":48,"channel":1,"type":"channel","subtype":"noteOff","noteNumber":69,"velocity":64,"realTime":2608,"sortKey":34},{"deltaTime":16,"channel":1,"type":"channel","noteNumber":81,"velocity":115,"subtype":"noteOn","realTime":2624,"sortKey":35},{"deltaTime":48,"channel":1,"type":"channel","subtype":"noteOff","noteNumber":81,"velocity":64,"realTime":2672,"sortKey":36},{"deltaTime":16,"channel":1,"type":"channel","noteNumber":79,"velocity":113,"subtype":"noteOn","realTime":2688,"sortKey":37},{"deltaTime":48,"channel":1,"type":"channel","subtype":"noteOff","noteNumber":79,"velocity":64,"realTime":2736,"sortKey":38},{"deltaTime":16,"channel":1,"type":"channel","noteNumber":81,"velocity":106,"subtype":"noteOn","realTime":2752,"sortKey":39},{"deltaTime":48,"channel":1,"type":"channel","subtype":"noteOff","noteNumber":81,"velocity":64,"realTime":2800,"sortKey":40},{"deltaTime":80,"channel":1,"type":"channel","noteNumber":72,"velocity":107,"subtype":"noteOn","realTime":2880,"sortKey":41},{"deltaTime":48,"channel":1,"type":"channel","subtype":"noteOff","noteNumber":72,"velocity":64,"realTime":2928,"sortKey":42},{"deltaTime":80,"channel":1,"type":"channel","noteNumber":69,"velocity":121,"subtype":"noteOn","realTime":3008,"sortKey":43},{"deltaTime":48,"channel":1,"type":"channel","subtype":"noteOff","noteNumber":69,"velocity":64,"realTime":3056,"sortKey":44},{"deltaTime":16,"channel":1,"type":"channel","noteNumber":74,"velocity":115,"subtype":"noteOn","realTime":3072,"sortKey":45},{"deltaTime":48,"channel":1,"type":"channel","subtype":"noteOff","noteNumber":74,"velocity":64,"realTime":3120,"sortKey":46},{"deltaTime":16,"channel":1,"type":"channel","noteNumber":86,"velocity":120,"subtype":"noteOn","realTime":3136,"sortKey":47},{"deltaTime":48,"channel":1,"type":"channel","subtype":"noteOff","noteNumber":86,"velocity":64,"realTime":3184,"sortKey":48},{"deltaTime":80,"channel":1,"type":"channel","noteNumber":86,"velocity":107,"subtype":"noteOn","realTime":3264,"sortKey":49},{"deltaTime":80,"channel":1,"type":"channel","subtype":"noteOff","noteNumber":86,"velocity":64,"realTime":3344,"sortKey":50},{"deltaTime":8,"channel":1,"type":"channel","noteNumber":79,"velocity":104,"subtype":"noteOn","realTime":3352,"sortKey":51},{"deltaTime":24,"channel":1,"type":"channel","subtype":"noteOff","noteNumber":79,"velocity":64,"realTime":3376,"sortKey":52},{"deltaTime":16,"channel":1,"type":"channel","noteNumber":79,"velocity":115,"subtype":"noteOn","realTime":3392,"sortKey":53},{"deltaTime":48,"channel":1,"type":"channel","subtype":"noteOff","noteNumber":79,"velocity":64,"realTime":3440,"sortKey":54},{"deltaTime":16,"channel":1,"type":"channel","noteNumber":77,"velocity":117,"subtype":"noteOn","realTime":3456,"sortKey":55},{"deltaTime":48,"channel":1,"type":"channel","subtype":"noteOff","noteNumber":77,"velocity":64,"realTime":3504,"sortKey":56},{"deltaTime":16,"channel":1,"type":"channel","noteNumber":69,"velocity":124,"subtype":"noteOn","realTime":3520,"sortKey":57},{"deltaTime":48,"channel":1,"type":"channel","subtype":"noteOff","noteNumber":69,"velocity":64,"realTime":3568,"sortKey":58},{"deltaTime":16,"channel":1,"type":"channel","noteNumber":74,"velocity":114,"subtype":"noteOn","realTime":3584,"sortKey":59},{"deltaTime":48,"channel":1,"type":"channel","subtype":"noteOff","noteNumber":74,"velocity":64,"realTime":3632,"sortKey":60},{"deltaTime":16,"channel":1,"type":"channel","noteNumber":74,"velocity":120,"subtype":"noteOn","realTime":3648,"sortKey":61},{"deltaTime":48,"channel":1,"type":"channel","subtype":"noteOff","noteNumber":74,"velocity":64,"realTime":3696,"sortKey":62},{"deltaTime":16,"channel":1,"type":"channel","noteNumber":72,"velocity":114,"subtype":"noteOn","realTime":3712,"sortKey":63},{"deltaTime":48,"channel":1,"type":"channel","subtype":"noteOff","noteNumber":72,"velocity":64,"realTime":3760,"sortKey":64},{"deltaTime":16,"channel":1,"type":"channel","noteNumber":74,"velocity":111,"subtype":"noteOn","realTime":3776,"sortKey":65},{"deltaTime":48,"channel":1,"type":"channel","subtype":"noteOff","noteNumber":74,"velocity":64,"realTime":3824,"sortKey":66},{"deltaTime":16,"channel":1,"type":"channel","noteNumber":74,"velocity":114,"subtype":"noteOn","realTime":3840,"sortKey":67},{"deltaTime":48,"channel":1,"type":"channel","subtype":"noteOff","noteNumber":74,"velocity":64,"realTime":3888,"sortKey":68},{"deltaTime":16,"channel":1,"type":"channel","noteNumber":66,"velocity":114,"subtype":"noteOn","realTime":3904,"sortKey":69},{"deltaTime":48,"channel":1,"type":"channel","subtype":"noteOff","noteNumber":66,"velocity":64,"realTime":3952,"sortKey":70},{"deltaTime":16,"channel":1,"type":"channel","noteNumber":67,"velocity":116,"subtype":"noteOn","realTime":3968,"sortKey":71},{"deltaTime":48,"channel":1,"type":"channel","subtype":"noteOff","noteNumber":67,"velocity":64,"realTime":4016,"sortKey":72},{"deltaTime":16,"channel":1,"type":"channel","noteNumber":68,"velocity":114,"subtype":"noteOn","realTime":4032,"sortKey":73},{"deltaTime":48,"channel":1,"type":"channel","subtype":"noteOff","noteNumber":68,"velocity":64,"realTime":4080,"sortKey":74},{"deltaTime":16,"channel":1,"type":"channel","noteNumber":69,"velocity":124,"subtype":"noteOn","realTime":4096,"sortKey":75},{"deltaTime":48,"channel":1,"type":"channel","subtype":"noteOff","noteNumber":69,"velocity":64,"realTime":4144,"sortKey":76},{"deltaTime":16,"channel":1,"type":"channel","noteNumber":81,"velocity":109,"subtype":"noteOn","realTime":4160,"sortKey":77},{"deltaTime":48,"channel":1,"type":"channel","subtype":"noteOff","noteNumber":81,"velocity":64,"realTime":4208,"sortKey":78},{"deltaTime":80,"channel":1,"type":"channel","noteNumber":81,"velocity":113,"subtype":"noteOn","realTime":4288,"sortKey":79},{"deltaTime":240,"channel":1,"type":"channel","subtype":"noteOff","noteNumber":81,"velocity":64,"realTime":4528,"sortKey":80},{"deltaTime":16,"channel":1,"type":"channel","noteNumber":73,"velocity":114,"subtype":"noteOn","realTime":4544,"sortKey":81},{"deltaTime":48,"channel":1,"type":"channel","subtype":"noteOff","noteNumber":73,"velocity":64,"realTime":4592,"sortKey":82},{"deltaTime":16,"channel":1,"type":"channel","noteNumber":69,"velocity":114,"subtype":"noteOn","realTime":4608,"sortKey":83},{"deltaTime":48,"channel":1,"type":"channel","subtype":"noteOff","noteNumber":69,"velocity":64,"realTime":4656,"sortKey":84},{"deltaTime":16,"channel":1,"type":"channel","noteNumber":81,"velocity":109,"subtype":"noteOn","realTime":4672,"sortKey":85},{"deltaTime":48,"channel":1,"type":"channel","subtype":"noteOff","noteNumber":81,"velocity":64,"realTime":4720,"sortKey":86},{"deltaTime":16,"channel":1,"type":"channel","noteNumber":79,"velocity":120,"subtype":"noteOn","realTime":4736,"sortKey":87},{"deltaTime":48,"channel":1,"type":"channel","subtype":"noteOff","noteNumber":79,"velocity":64,"realTime":4784,"sortKey":88},{"deltaTime":16,"channel":1,"type":"channel","noteNumber":81,"velocity":114,"subtype":"noteOn","realTime":4800,"sortKey":89},{"deltaTime":112,"channel":1,"type":"channel","subtype":"noteOff","noteNumber":81,"velocity":64,"realTime":4912,"sortKey":90},{"deltaTime":16,"channel":1,"type":"channel","noteNumber":81,"velocity":115,"subtype":"noteOn","realTime":4928,"sortKey":91},{"deltaTime":48,"channel":1,"type":"channel","subtype":"noteOff","noteNumber":81,"velocity":64,"realTime":4976,"sortKey":92},{"deltaTime":16,"channel":1,"type":"channel","noteNumber":81,"velocity":110,"subtype":"noteOn","realTime":4992,"sortKey":93},{"deltaTime":24,"channel":1,"type":"channel","subtype":"noteOff","noteNumber":81,"velocity":64,"realTime":5016,"sortKey":94},{"deltaTime":8,"channel":1,"type":"channel","noteNumber":74,"velocity":107,"subtype":"noteOn","realTime":5024,"sortKey":95},{"deltaTime":24,"channel":1,"type":"channel","subtype":"noteOff","noteNumber":74,"velocity":64,"realTime":5048,"sortKey":96},{"deltaTime":8,"channel":1,"type":"channel","noteNumber":72,"velocity":113,"subtype":"noteOn","realTime":5056,"sortKey":97},{"deltaTime":48,"channel":1,"type":"channel","subtype":"noteOff","noteNumber":72,"velocity":64,"realTime":5104,"sortKey":98},{"deltaTime":16,"channel":1,"type":"channel","noteNumber":76,"velocity":116,"subtype":"noteOn","realTime":5120,"sortKey":99},{"deltaTime":48,"channel":1,"type":"channel","subtype":"noteOff","noteNumber":76,"velocity":64,"realTime":5168,"sortKey":100},{"deltaTime":16,"channel":1,"type":"channel","noteNumber":76,"velocity":114,"subtype":"noteOn","realTime":5184,"sortKey":101},{"deltaTime":24,"channel":1,"type":"channel","subtype":"noteOff","noteNumber":76,"velocity":64,"realTime":5208,"sortKey":102},{"deltaTime":8,"channel":1,"type":"channel","noteNumber":88,"velocity":113,"subtype":"noteOn","realTime":5216,"sortKey":103},{"deltaTime":24,"channel":1,"type":"channel","subtype":"noteOff","noteNumber":88,"velocity":64,"realTime":5240,"sortKey":104},{"deltaTime":40,"channel":1,"type":"channel","noteNumber":76,"velocity":115,"subtype":"noteOn","realTime":5280,"sortKey":105},{"deltaTime":24,"channel":1,"type":"channel","subtype":"noteOff","noteNumber":76,"velocity":64,"realTime":5304,"sortKey":106},{"deltaTime":8,"channel":1,"type":"channel","noteNumber":88,"velocity":114,"subtype":"noteOn","realTime":5312,"sortKey":107},{"deltaTime":24,"channel":1,"type":"channel","subtype":"noteOff","noteNumber":88,"velocity":64,"realTime":5336,"sortKey":108},{"deltaTime":8,"channel":1,"type":"channel","noteNumber":79,"velocity":111,"subtype":"noteOn","realTime":5344,"sortKey":109},{"deltaTime":24,"channel":1,"type":"channel","subtype":"noteOff","noteNumber":79,"velocity":64,"realTime":5368,"sortKey":110},{"deltaTime":8,"channel":1,"type":"channel","noteNumber":76,"velocity":106,"subtype":"noteOn","realTime":5376,"sortKey":111},{"deltaTime":48,"channel":1,"type":"channel","subtype":"noteOff","noteNumber":76,"velocity":64,"realTime":5424,"sortKey":112},{"deltaTime":16,"channel":1,"type":"channel","noteNumber":76,"velocity":118,"subtype":"noteOn","realTime":5440,"sortKey":113},{"deltaTime":24,"channel":1,"type":"channel","subtype":"noteOff","noteNumber":76,"velocity":64,"realTime":5464,"sortKey":114},{"deltaTime":8,"channel":1,"type":"channel","noteNumber":88,"velocity":113,"subtype":"noteOn","realTime":5472,"sortKey":115},{"deltaTime":24,"channel":1,"type":"channel","subtype":"noteOff","noteNumber":88,"velocity":64,"realTime":5496,"sortKey":116},{"deltaTime":8,"channel":1,"type":"channel","noteNumber":76,"velocity":108,"subtype":"noteOn","realTime":5504,"sortKey":117},{"deltaTime":48,"channel":1,"type":"channel","subtype":"noteOff","noteNumber":76,"velocity":64,"realTime":5552,"sortKey":118},{"deltaTime":16,"channel":1,"type":"channel","noteNumber":75,"velocity":116,"subtype":"noteOn","realTime":5568,"sortKey":119},{"deltaTime":48,"channel":1,"type":"channel","subtype":"noteOff","noteNumber":75,"velocity":64,"realTime":5616,"sortKey":120},{"deltaTime":16,"channel":1,"type":"channel","noteNumber":74,"velocity":113,"subtype":"noteOn","realTime":5632,"sortKey":121},{"deltaTime":112,"channel":1,"type":"channel","subtype":"noteOff","noteNumber":74,"velocity":64,"realTime":5744,"sortKey":122},{"deltaTime":80,"channel":1,"type":"channel","noteNumber":66,"velocity":105,"subtype":"noteOn","realTime":5824,"sortKey":123},{"deltaTime":48,"channel":1,"type":"channel","subtype":"noteOff","noteNumber":66,"velocity":64,"realTime":5872,"sortKey":124},{"deltaTime":16,"channel":1,"type":"channel","noteNumber":66,"velocity":112,"subtype":"noteOn","realTime":5888,"sortKey":125},{"deltaTime":48,"channel":1,"type":"channel","subtype":"noteOff","noteNumber":66,"velocity":64,"realTime":5936,"sortKey":126},{"deltaTime":16,"channel":1,"type":"channel","noteNumber":67,"velocity":116,"subtype":"noteOn","realTime":5952,"sortKey":127},{"deltaTime":112,"channel":1,"type":"channel","subtype":"noteOff","noteNumber":67,"velocity":64,"realTime":6064,"sortKey":128},{"deltaTime":16,"channel":1,"type":"channel","noteNumber":68,"velocity":115,"subtype":"noteOn","realTime":6080,"sortKey":129},{"deltaTime":48,"channel":1,"type":"channel","subtype":"noteOff","noteNumber":68,"velocity":64,"realTime":6128,"sortKey":130},{"deltaTime":16,"channel":1,"type":"channel","noteNumber":69,"velocity":118,"subtype":"noteOn","realTime":6144,"sortKey":131},{"deltaTime":48,"channel":1,"type":"channel","subtype":"noteOff","noteNumber":69,"velocity":64,"realTime":6192,"sortKey":132},{"deltaTime":16,"channel":1,"type":"channel","noteNumber":81,"velocity":116,"subtype":"noteOn","realTime":6208,"sortKey":133},{"deltaTime":48,"channel":1,"type":"channel","subtype":"noteOff","noteNumber":81,"velocity":64,"realTime":6256,"sortKey":134},{"deltaTime":16,"channel":1,"type":"channel","noteNumber":79,"velocity":114,"subtype":"noteOn","realTime":6272,"sortKey":135},{"deltaTime":48,"channel":1,"type":"channel","subtype":"noteOff","noteNumber":79,"velocity":64,"realTime":6320,"sortKey":136},{"deltaTime":16,"channel":1,"type":"channel","noteNumber":81,"velocity":124,"subtype":"noteOn","realTime":6336,"sortKey":137},{"deltaTime":80,"channel":1,"type":"channel","subtype":"noteOff","noteNumber":81,"velocity":64,"realTime":6416,"sortKey":138},{"deltaTime":16,"channel":1,"type":"channel","noteNumber":79,"velocity":114,"subtype":"noteOn","realTime":6432,"sortKey":139},{"deltaTime":24,"channel":1,"type":"channel","subtype":"noteOff","noteNumber":79,"velocity":64,"realTime":6456,"sortKey":140},{"deltaTime":8,"channel":1,"type":"channel","noteNumber":81,"velocity":114,"subtype":"noteOn","realTime":6464,"sortKey":141},{"deltaTime":48,"channel":1,"type":"channel","subtype":"noteOff","noteNumber":81,"velocity":64,"realTime":6512,"sortKey":142},{"deltaTime":16,"channel":1,"type":"channel","noteNumber":79,"velocity":115,"subtype":"noteOn","realTime":6528,"sortKey":143},{"deltaTime":48,"channel":1,"type":"channel","subtype":"noteOff","noteNumber":79,"velocity":64,"realTime":6576,"sortKey":144},{"deltaTime":16,"channel":1,"type":"channel","noteNumber":73,"velocity":125,"subtype":"noteOn","realTime":6592,"sortKey":145},{"deltaTime":48,"channel":1,"type":"channel","subtype":"noteOff","noteNumber":73,"velocity":64,"realTime":6640,"sortKey":146},{"deltaTime":16,"channel":1,"type":"channel","noteNumber":69,"velocity":120,"subtype":"noteOn","realTime":6656,"sortKey":147},{"deltaTime":48,"channel":1,"type":"channel","subtype":"noteOff","noteNumber":69,"velocity":64,"realTime":6704,"sortKey":148},{"deltaTime":16,"channel":1,"type":"channel","noteNumber":81,"velocity":111,"subtype":"noteOn","realTime":6720,"sortKey":149},{"deltaTime":48,"channel":1,"type":"channel","subtype":"noteOff","noteNumber":81,"velocity":64,"realTime":6768,"sortKey":150},{"deltaTime":16,"channel":1,"type":"channel","noteNumber":79,"velocity":113,"subtype":"noteOn","realTime":6784,"sortKey":151},{"deltaTime":48,"channel":1,"type":"channel","subtype":"noteOff","noteNumber":79,"velocity":64,"realTime":6832,"sortKey":152},{"deltaTime":16,"channel":1,"type":"channel","noteNumber":81,"velocity":121,"subtype":"noteOn","realTime":6848,"sortKey":153},{"deltaTime":80,"channel":1,"type":"channel","subtype":"noteOff","noteNumber":81,"velocity":64,"realTime":6928,"sortKey":154},{"deltaTime":16,"channel":1,"type":"channel","noteNumber":79,"velocity":112,"subtype":"noteOn","realTime":6944,"sortKey":155},{"deltaTime":24,"channel":1,"type":"channel","subtype":"noteOff","noteNumber":79,"velocity":64,"realTime":6968,"sortKey":156},{"deltaTime":8,"channel":1,"type":"channel","noteNumber":81,"velocity":109,"subtype":"noteOn","realTime":6976,"sortKey":157},{"deltaTime":48,"channel":1,"type":"channel","subtype":"noteOff","noteNumber":81,"velocity":64,"realTime":7024,"sortKey":158},{"deltaTime":16,"channel":1,"type":"channel","noteNumber":79,"velocity":115,"subtype":"noteOn","realTime":7040,"sortKey":159},{"deltaTime":48,"channel":1,"type":"channel","subtype":"noteOff","noteNumber":79,"velocity":64,"realTime":7088,"sortKey":160},{"deltaTime":16,"channel":1,"type":"channel","noteNumber":73,"velocity":110,"subtype":"noteOn","realTime":7104,"sortKey":161},{"deltaTime":48,"channel":1,"type":"channel","subtype":"noteOff","noteNumber":73,"velocity":64,"realTime":7152,"sortKey":162},{"deltaTime":0,"type":"meta","subtype":"endOfTrack"}]]}