{
	"header": {
		"formatType": 1,
		"trackCount": 4,
		"ticksPerBeat": 480
	},
	"tracks": [
		[
			{
				"deltaTime": 0,
				"type": "meta",
				"subtype": "trackName",
				"text": "Crossroads"
			},
			{
				"deltaTime": 0,
				"type": "meta",
				"subtype": "setTempo",
				"microsecondsPerBeat": 555554
			},
			{
				"deltaTime": 0,
				"type": "meta",
				"subtype": "timeSignature",
				"numerator": 4,
				"denominator": 4,
				"metronome": 24,
				"thirtyseconds": 8
			},
			{
				"deltaTime": 251520,
				"type": "meta",
				"subtype": "timeSignature",
				"numerator": 2,
				"denominator": 4,
				"metronome": 24,
				"thirtyseconds": 8
			},
			{
				"deltaTime": 960,
				"type": "meta",
				"subtype": "timeSignature",
				"numerator": 4,
				"denominator": 4,
				"metronome": 24,
				"thirtyseconds": 8
			},
			{
				"deltaTime": 0,
				"type": "meta",
				"subtype": "endOfTrack"
			}
		],
		[
			{
				"deltaTime": 0,
				"type": "meta",
				"subtype": "trackName",
				"text": "BASS"
			},
			{
				"deltaTime": 3840,
				"channel": 1,
				"type": "channel",
				"subtype": "controller",
				"controllerType": 10,
				"value": 64
			},
			{
				"deltaTime": 0,
				"channel": 1,
				"type": "channel",
				"noteNumber": 33,
				"velocity": 122,
				"subtype": "noteOn"
			},
			{
				"deltaTime": 0,
				"channel": 1,
				"type": "channel",
				"subtype": "programChange",
				"programNumber": 33
			},
			{
				"deltaTime": 180,
				"channel": 1,
				"type": "channel",
				"subtype": "noteOff",
				"noteNumber": 33,
				"velocity": 64
			},
			{
				"deltaTime": 60,
				"channel": 1,
				"type": "channel",
				"noteNumber": 45,
				"velocity": 114,
				"subtype": "noteOn"
			},
			{
				"deltaTime": 180,
				"channel": 1,
				"type": "channel",
				"subtype": "noteOff",
				"noteNumber": 45,
				"velocity": 64
			},
			{
				"deltaTime": 300,
				"channel": 1,
				"type": "channel",
				"noteNumber": 45,
				"velocity": 114,
				"subtype": "noteOn"
			},
			{
				"deltaTime": 420,
				"channel": 1,
				"type": "channel",
				"subtype": "noteOff",
				"noteNumber": 45,
				"velocity": 64
			},
			{
				"deltaTime": 60,
				"channel": 1,
				"type": "channel",
				"noteNumber": 43,
				"velocity": 109,
				"subtype": "noteOn"
			},
			{
				"deltaTime": 180,
				"channel": 1,
				"type": "channel",
				"subtype": "noteOff",
				"noteNumber": 43,
				"velocity": 64
			},
			{
				"deltaTime": 180,
				"channel": 1,
				"type": "channel",
				"noteNumber": 36,
				"velocity": 114,
				"subtype": "noteOn"
			},
			{
				"deltaTime": 90,
				"channel": 1,
				"type": "channel",
				"subtype": "noteOff",
				"noteNumber": 36,
				"velocity": 64
			},
			{
				"deltaTime": 30,
				"channel": 1,
				"type": "channel",
				"noteNumber": 36,
				"velocity": 112,
				"subtype": "noteOn"
			},
			{
				"deltaTime": 180,
				"channel": 1,
				"type": "channel",
				"subtype": "noteOff",
				"noteNumber": 36,
				"velocity": 64
			},
			{
				"deltaTime": 60,
				"channel": 1,
				"type": "channel",
				"noteNumber": 33,
				"velocity": 122,
				"subtype": "noteOn"
			},
			{
				"deltaTime": 180,
				"channel": 1,
				"type": "channel",
				"subtype": "noteOff",
				"noteNumber": 33,
				"velocity": 64
			},
			{
				"deltaTime": 60,
				"channel": 1,
				"type": "channel",
				"noteNumber": 45,
				"velocity": 110,
				"subtype": "noteOn"
			},
			{
				"deltaTime": 180,
				"channel": 1,
				"type": "channel",
				"subtype": "noteOff",
				"noteNumber": 45,
				"velocity": 64
			},
			{
				"deltaTime": 300,
				"channel": 1,
				"type": "channel",
				"noteNumber": 45,
				"velocity": 113,
				"subtype": "noteOn"
			},
			{
				"deltaTime": 420,
				"channel": 1,
				"type": "channel",
				"subtype": "noteOff",
				"noteNumber": 45,
				"velocity": 64
			},
			{
				"deltaTime": 60,
				"channel": 1,
				"type": "channel",
				"noteNumber": 36,
				"velocity": 110,
				"subtype": "noteOn"
			},
			{
				"deltaTime": 180,
				"channel": 1,
				"type": "channel",
				"subtype": "noteOff",
				"noteNumber": 36,
				"velocity": 64
			},
			{
				"deltaTime": 300,
				"channel": 1,
				"type": "channel",
				"noteNumber": 36,
				"velocity": 112,
				"subtype": "noteOn"
			},
			{
				"deltaTime": 180,
				"channel": 1,
				"type": "channel",
				"subtype": "noteOff",
				"noteNumber": 36,
				"velocity": 64
			},
			{
				"deltaTime": 300,
				"channel": 1,
				"type": "channel",
				"noteNumber": 45,
				"velocity": 114,
				"subtype": "noteOn"
			},
			{
				"deltaTime": 180,
				"channel": 1,
				"type": "channel",
				"subtype": "noteOff",
				"noteNumber": 45,
				"velocity": 64
			},
			{
				"deltaTime": 300,
				"channel": 1,
				"type": "channel",
				"noteNumber": 45,
				"velocity": 113,
				"subtype": "noteOn"
			},
			{
				"deltaTime": 420,
				"channel": 1,
				"type": "channel",
				"subtype": "noteOff",
				"noteNumber": 45,
				"velocity": 64
			},
			{
				"deltaTime": 60,
				"channel": 1,
				"type": "channel",
				"noteNumber": 36,
				"velocity": 109,
				"subtype": "noteOn"
			},
			{
				"deltaTime": 180,
				"channel": 1,
				"type": "channel",
				"subtype": "noteOff",
				"noteNumber": 36,
				"velocity": 64
			},
			{
				"deltaTime": 300,
				"channel": 1,
				"type": "channel",
				"noteNumber": 36,
				"velocity": 111,
				"subtype": "noteOn"
			},
			{
				"deltaTime": 180,
				"channel": 1,
				"type": "channel",
				"subtype": "noteOff",
				"noteNumber": 36,
				"velocity": 64
			},
			{
				"deltaTime": 60,
				"channel": 1,
				"type": "channel",
				"noteNumber": 33,
				"velocity": 115,
				"subtype": "noteOn"
			},
			{
				"deltaTime": 180,
				"channel": 1,
				"type": "channel",
				"subtype": "noteOff",
				"noteNumber": 33,
				"velocity": 64
			},
			{
				"deltaTime": 60,
				"channel": 1,
				"type": "channel",
				"noteNumber": 45,
				"velocity": 115,
				"subtype": "noteOn"
			},
			{
				"deltaTime": 180,
				"channel": 1,
				"type": "channel",
				"subtype": "noteOff",
				"noteNumber": 45,
				"velocity": 64
			},
			{
				"deltaTime": 60,
				"channel": 1,
				"type": "channel",
				"noteNumber": 43,
				"velocity": 113,
				"subtype": "noteOn"
			},
			{
				"deltaTime": 180,
				"channel": 1,
				"type": "channel",
				"subtype": "noteOff",
				"noteNumber": 43,
				"velocity": 64
			},
			{
				"deltaTime": 60,
				"channel": 1,
				"type": "channel",
				"noteNumber": 45,
				"velocity": 106,
				"subtype": "noteOn"
			},
			{
				"deltaTime": 180,
				"channel": 1,
				"type": "channel",
				"subtype": "noteOff",
				"noteNumber": 45,
				"velocity": 64
			},
			{
				"deltaTime": 300,
				"channel": 1,
				"type": "channel",
				"noteNumber": 36,
				"velocity": 107,
				"subtype": "noteOn"
			},
			{
				"deltaTime": 180,
				"channel": 1,
				"type": "channel",
				"subtype": "noteOff",
				"noteNumber": 36,
				"velocity": 64
			},
			{
				"deltaTime": 300,
				"channel": 1,
				"type": "channel",
				"noteNumber": 33,
				"velocity": 121,
				"subtype": "noteOn"
			},
			{
				"deltaTime": 180,
				"channel": 1,
				"type": "channel",
				"subtype": "noteOff",
				"noteNumber": 33,
				"velocity": 64
			},
			{
				"deltaTime": 60,
				"channel": 1,
				"type": "channel",
				"noteNumber": 38,
				"velocity": 115,
				"subtype": "noteOn"
			},
			{
				"deltaTime": 180,
				"channel": 1,
				"type": "channel",
				"subtype": "noteOff",
				"noteNumber": 38,
				"velocity": 64
			},
			{
				"deltaTime": 60,
				"channel": 1,
				"type": "channel",
				"noteNumber": 50,
				"velocity": 120,
				"subtype": "noteOn"
			},
			{
				"deltaTime": 180,
				"channel": 1,
				"type": "channel",
				"subtype": "noteOff",
				"noteNumber": 50,
				"velocity": 64
			},
			{
				"deltaTime": 300,
				"channel": 1,
				"type": "channel",
				"noteNumber": 50,
				"velocity": 107,
				"subtype": "noteOn"
			},
			{
				"deltaTime": 300,
				"channel": 1,
				"type": "channel",
				"subtype": "noteOff",
				"noteNumber": 50,
				"velocity": 64
			},
			{
				"deltaTime": 30,
				"channel": 1,
				"type": "channel",
				"noteNumber": 43,
				"velocity": 104,
				"subtype": "noteOn"
			},
			{
				"deltaTime": 90,
				"channel": 1,
				"type": "channel",
				"subtype": "noteOff",
				"noteNumber": 43,
				"velocity": 64
			},
			{
				"deltaTime": 60,
				"channel": 1,
				"type": "channel",
				"noteNumber": 43,
				"velocity": 115,
				"subtype": "noteOn"
			},
			{
				"deltaTime": 180,
				"channel": 1,
				"type": "channel",
				"subtype": "noteOff",
				"noteNumber": 43,
				"velocity": 64
			},
			{
				"deltaTime": 60,
				"channel": 1,
				"type": "channel",
				"noteNumber": 41,
				"velocity": 117,
				"subtype": "noteOn"
			},
			{
				"deltaTime": 180,
				"channel": 1,
				"type": "channel",
				"subtype": "noteOff",
				"noteNumber": 41,
				"velocity": 64
			},
			{
				"deltaTime": 60,
				"channel": 1,
				"type": "channel",
				"noteNumber": 33,
				"velocity": 124,
				"subtype": "noteOn"
			},
			{
				"deltaTime": 180,
				"channel": 1,
				"type": "channel",
				"subtype": "noteOff",
				"noteNumber": 33,
				"velocity": 64
			},
			{
				"deltaTime": 60,
				"channel": 1,
				"type": "channel",
				"noteNumber": 38,
				"velocity": 114,
				"subtype": "noteOn"
			},
			{
				"deltaTime": 180,
				"channel": 1,
				"type": "channel",
				"subtype": "noteOff",
				"noteNumber": 38,
				"velocity": 64
			},
			{
				"deltaTime": 60,
				"channel": 1,
				"type": "channel",
				"noteNumber": 38,
				"velocity": 120,
				"subtype": "noteOn"
			},
			{
				"deltaTime": 180,
				"channel": 1,
				"type": "channel",
				"subtype": "noteOff",
				"noteNumber": 38,
				"velocity": 64
			},
			{
				"deltaTime": 60,
				"channel": 1,
				"type": "channel",
				"noteNumber": 36,
				"velocity": 114,
				"subtype": "noteOn"
			},
			{
				"deltaTime": 180,
				"channel": 1,
				"type": "channel",
				"subtype": "noteOff",
				"noteNumber": 36,
				"velocity": 64
			},
			{
				"deltaTime": 60,
				"channel": 1,
				"type": "channel",
				"noteNumber": 38,
				"velocity": 111,
				"subtype": "noteOn"
			},
			{
				"deltaTime": 180,
				"channel": 1,
				"type": "channel",
				"subtype": "noteOff",
				"noteNumber": 38,
				"velocity": 64
			},
			{
				"deltaTime": 60,
				"channel": 1,
				"type": "channel",
				"noteNumber": 38,
				"velocity": 114,
				"subtype": "noteOn"
			},
			{
				"deltaTime": 180,
				"channel": 1,
				"type": "channel",
				"subtype": "noteOff",
				"noteNumber": 38,
				"velocity": 64
			},
			{
				"deltaTime": 60,
				"channel": 1,
				"type": "channel",
				"noteNumber": 30,
				"velocity": 114,
				"subtype": "noteOn"
			},
			{
				"deltaTime": 180,
				"channel": 1,
				"type": "channel",
				"subtype": "noteOff",
				"noteNumber": 30,
				"velocity": 64
			},
			{
				"deltaTime": 60,
				"channel": 1,
				"type": "channel",
				"noteNumber": 31,
				"velocity": 116,
				"subtype": "noteOn"
			},
			{
				"deltaTime": 180,
				"channel": 1,
				"type": "channel",
				"subtype": "noteOff",
				"noteNumber": 31,
				"velocity": 64
			},
			{
				"deltaTime": 60,
				"channel": 1,
				"type": "channel",
				"noteNumber": 32,
				"velocity": 114,
				"subtype": "noteOn"
			},
			{
				"deltaTime": 180,
				"channel": 1,
				"type": "channel",
				"subtype": "noteOff",
				"noteNumber": 32,
				"velocity": 64
			},
			{
				"deltaTime": 60,
				"channel": 1,
				"type": "channel",
				"noteNumber": 33,
				"velocity": 124,
				"subtype": "noteOn"
			},
			{
				"deltaTime": 180,
				"channel": 1,
				"type": "channel",
				"subtype": "noteOff",
				"noteNumber": 33,
				"velocity": 64
			},
			{
				"deltaTime": 60,
				"channel": 1,
				"type": "channel",
				"noteNumber": 45,
				"velocity": 109,
				"subtype": "noteOn"
			},
			{
				"deltaTime": 180,
				"channel": 1,
				"type": "channel",
				"subtype": "noteOff",
				"noteNumber": 45,
				"velocity": 64
			},
			{
				"deltaTime": 300,
				"channel": 1,
				"type": "channel",
				"noteNumber": 45,
				"velocity": 113,
				"subtype": "noteOn"
			},
			{
				"deltaTime": 900,
				"channel": 1,
				"type": "channel",
				"subtype": "noteOff",
				"noteNumber": 45,
				"velocity": 64
			},
			{
				"deltaTime": 60,
				"channel": 1,
				"type": "channel",
				"noteNumber": 37,
				"velocity": 114,
				"subtype": "noteOn"
			},
			{
				"deltaTime": 180,
				"channel": 1,
				"type": "channel",
				"subtype": "noteOff",
				"noteNumber": 37,
				"velocity": 64
			},
			{
				"deltaTime": 60,
				"channel": 1,
				"type": "channel",
				"noteNumber": 33,
				"velocity": 114,
				"subtype": "noteOn"
			},
			{
				"deltaTime": 180,
				"channel": 1,
				"type": "channel",
				"subtype": "noteOff",
				"noteNumber": 33,
				"velocity": 64
			},
			{
				"deltaTime": 60,
				"channel": 1,
				"type": "channel",
				"noteNumber": 45,
				"velocity": 109,
				"subtype": "noteOn"
			},
			{
				"deltaTime": 180,
				"channel": 1,
				"type": "channel",
				"subtype": "noteOff",
				"noteNumber": 45,
				"velocity": 64
			},
			{
				"deltaTime": 60,
				"channel": 1,
				"type": "channel",
				"noteNumber": 43,
				"velocity": 120,
				"subtype": "noteOn"
			},
			{
				"deltaTime": 180,
				"channel": 1,
				"type": "channel",
				"subtype": "noteOff",
				"noteNumber": 43,
				"velocity": 64
			},
			{
				"deltaTime": 60,
				"channel": 1,
				"type": "channel",
				"noteNumber": 45,
				"velocity": 114,
				"subtype": "noteOn"
			},
			{
				"deltaTime": 420,
				"channel": 1,
				"type": "channel",
				"subtype": "noteOff",
				"noteNumber": 45,
				"velocity": 64
			},
			{
				"deltaTime": 60,
				"channel": 1,
				"type": "channel",
				"noteNumber": 45,
				"velocity": 115,
				"subtype": "noteOn"
			},
			{
				"deltaTime": 180,
				"channel": 1,
				"type": "channel",
				"subtype": "noteOff",
				"noteNumber": 45,
				"velocity": 64
			},
			{
				"deltaTime": 60,
				"channel": 1,
				"type": "channel",
				"noteNumber": 45,
				"velocity": 110,
				"subtype": "noteOn"
			},
			{
				"deltaTime": 90,
				"channel": 1,
				"type": "channel",
				"subtype": "noteOff",
				"noteNumber": 45,
				"velocity": 64
			},
			{
				"deltaTime": 30,
				"channel": 1,
				"type": "channel",
				"noteNumber": 38,
				"velocity": 107,
				"subtype": "noteOn"
			},
			{
				"deltaTime": 90,
				"channel": 1,
				"type": "channel",
				"subtype": "noteOff",
				"noteNumber": 38,
				"velocity": 64
			},
			{
				"deltaTime": 30,
				"channel": 1,
				"type": "channel",
				"noteNumber": 36,
				"velocity": 113,
				"subtype": "noteOn"
			},
			{
				"deltaTime": 180,
				"channel": 1,
				"type": "channel",
				"subtype": "noteOff",
				"noteNumber": 36,
				"velocity": 64
			},
			{
				"deltaTime": 60,
				"channel": 1,
				"type": "channel",
				"noteNumber": 40,
				"velocity": 116,
				"subtype": "noteOn"
			},
			{
				"deltaTime": 180,
				"channel": 1,
				"type": "channel",
				"subtype": "noteOff",
				"noteNumber": 40,
				"velocity": 64
			},
			{
				"deltaTime": 60,
				"channel": 1,
				"type": "channel",
				"noteNumber": 40,
				"velocity": 114,
				"subtype": "noteOn"
			},
			{
				"deltaTime": 90,
				"channel": 1,
				"type": "channel",
				"subtype": "noteOff",
				"noteNumber": 40,
				"velocity": 64
			},
			{
				"deltaTime": 30,
				"channel": 1,
				"type": "channel",
				"noteNumber": 52,
				"velocity": 113,
				"subtype": "noteOn"
			},
			{
				"deltaTime": 90,
				"channel": 1,
				"type": "channel",
				"subtype": "noteOff",
				"noteNumber": 52,
				"velocity": 64
			},
			{
				"deltaTime": 150,
				"channel": 1,
				"type": "channel",
				"noteNumber": 40,
				"velocity": 115,
				"subtype": "noteOn"
			},
			{
				"deltaTime": 90,
				"channel": 1,
				"type": "channel",
				"subtype": "noteOff",
				"noteNumber": 40,
				"velocity": 64
			},
			{
				"deltaTime": 30,
				"channel": 1,
				"type": "channel",
				"noteNumber": 52,
				"velocity": 114,
				"subtype": "noteOn"
			},
			{
				"deltaTime": 90,
				"channel": 1,
				"type": "channel",
				"subtype": "noteOff",
				"noteNumber": 52,
				"velocity": 64
			},
			{
				"deltaTime": 30,
				"channel": 1,
				"type": "channel",
				"noteNumber": 43,
				"velocity": 111,
				"subtype": "noteOn"
			},
			{
				"deltaTime": 90,
				"channel": 1,
				"type": "channel",
				"subtype": "noteOff",
				"noteNumber": 43,
				"velocity": 64
			},
			{
				"deltaTime": 30,
				"channel": 1,
				"type": "channel",
				"noteNumber": 40,
				"velocity": 106,
				"subtype": "noteOn"
			},
			{
				"deltaTime": 180,
				"channel": 1,
				"type": "channel",
				"subtype": "noteOff",
				"noteNumber": 40,
				"velocity": 64
			},
			{
				"deltaTime": 60,
				"channel": 1,
				"type": "channel",
				"noteNumber": 40,
				"velocity": 118,
				"subtype": "noteOn"
			},
			{
				"deltaTime": 90,
				"channel": 1,
				"type": "channel",
				"subtype": "noteOff",
				"noteNumber": 40,
				"velocity": 64
			},
			{
				"deltaTime": 30,
				"channel": 1,
				"type": "channel",
				"noteNumber": 52,
				"velocity": 113,
				"subtype": "noteOn"
			},
			{
				"deltaTime": 90,
				"channel": 1,
				"type": "channel",
				"subtype": "noteOff",
				"noteNumber": 52,
				"velocity": 64
			},
			{
				"deltaTime": 30,
				"channel": 1,
				"type": "channel",
				"noteNumber": 40,
				"velocity": 108,
				"subtype": "noteOn"
			},
			{
				"deltaTime": 180,
				"channel": 1,
				"type": "channel",
				"subtype": "noteOff",
				"noteNumber": 40,
				"velocity": 64
			},
			{
				"deltaTime": 60,
				"channel": 1,
				"type": "channel",
				"noteNumber": 39,
				"velocity": 116,
				"subtype": "noteOn"
			},
			{
				"deltaTime": 180,
				"channel": 1,
				"type": "channel",
				"subtype": "noteOff",
				"noteNumber": 39,
				"velocity": 64
			},
			{
				"deltaTime": 60,
				"channel": 1,
				"type": "channel",
				"noteNumber": 38,
				"velocity": 113,
				"subtype": "noteOn"
			},
			{
				"deltaTime": 420,
				"channel": 1,
				"type": "channel",
				"subtype": "noteOff",
				"noteNumber": 38,
				"velocity": 64
			},
			{
				"deltaTime": 300,
				"channel": 1,
				"type": "channel",
				"noteNumber": 30,
				"velocity": 105,
				"subtype": "noteOn"
			},
			{
				"deltaTime": 180,
				"channel": 1,
				"type": "channel",
				"subtype": "noteOff",
				"noteNumber": 30,
				"velocity": 64
			},
			{
				"deltaTime": 60,
				"channel": 1,
				"type": "channel",
				"noteNumber": 30,
				"velocity": 112,
				"subtype": "noteOn"
			},
			{
				"deltaTime": 180,
				"channel": 1,
				"type": "channel",
				"subtype": "noteOff",
				"noteNumber": 30,
				"velocity": 64
			},
			{
				"deltaTime": 60,
				"channel": 1,
				"type": "channel",
				"noteNumber": 31,
				"velocity": 116,
				"subtype": "noteOn"
			},
			{
				"deltaTime": 420,
				"channel": 1,
				"type": "channel",
				"subtype": "noteOff",
				"noteNumber": 31,
				"velocity": 64
			},
			{
				"deltaTime": 60,
				"channel": 1,
				"type": "channel",
				"noteNumber": 32,
				"velocity": 115,
				"subtype": "noteOn"
			},
			{
				"deltaTime": 180,
				"channel": 1,
				"type": "channel",
				"subtype": "noteOff",
				"noteNumber": 32,
				"velocity": 64
			},
			{
				"deltaTime": 60,
				"channel": 1,
				"type": "channel",
				"noteNumber": 33,
				"velocity": 118,
				"subtype": "noteOn"
			},
			{
				"deltaTime": 180,
				"channel": 1,
				"type": "channel",
				"subtype": "noteOff",
				"noteNumber": 33,
				"velocity": 64
			},
			{
				"deltaTime": 60,
				"channel": 1,
				"type": "channel",
				"noteNumber": 45,
				"velocity": 116,
				"subtype": "noteOn"
			},
			{
				"deltaTime": 180,
				"channel": 1,
				"type": "channel",
				"subtype": "noteOff",
				"noteNumber": 45,
				"velocity": 64
			},
			{
				"deltaTime": 60,
				"channel": 1,
				"type": "channel",
				"noteNumber": 43,
				"velocity": 114,
				"subtype": "noteOn"
			},
			{
				"deltaTime": 180,
				"channel": 1,
				"type": "channel",
				"subtype": "noteOff",
				"noteNumber": 43,
				"velocity": 64
			},
			{
				"deltaTime": 60,
				"channel": 1,
				"type": "channel",
				"noteNumber": 45,
				"velocity": 124,
				"subtype": "noteOn"
			},
			{
				"deltaTime": 300,
				"channel": 1,
				"type": "channel",
				"subtype": "noteOff",
				"noteNumber": 45,
				"velocity": 64
			},
			{
				"deltaTime": 60,
				"channel": 1,
				"type": "channel",
				"noteNumber": 43,
				"velocity": 114,
				"subtype": "noteOn"
			},
			{
				"deltaTime": 90,
				"channel": 1,
				"type": "channel",
				"subtype": "noteOff",
				"noteNumber": 43,
				"velocity": 64
			},
			{
				"deltaTime": 30,
				"channel": 1,
				"type": "channel",
				"noteNumber": 45,
				"velocity": 114,
				"subtype": "noteOn"
			},
			{
				"deltaTime": 180,
				"channel": 1,
				"type": "channel",
				"subtype": "noteOff",
				"noteNumber": 45,
				"velocity": 64
			},
			{
				"deltaTime": 60,
				"channel": 1,
				"type": "channel",
				"noteNumber": 43,
				"velocity": 115,
				"subtype": "noteOn"
			},
			{
				"deltaTime": 180,
				"channel": 1,
				"type": "channel",
				"subtype": "noteOff",
				"noteNumber": 43,
				"velocity": 64
			},
			{
				"deltaTime": 60,
				"channel": 1,
				"type": "channel",
				"noteNumber": 37,
				"velocity": 125,
				"subtype": "noteOn"
			},
			{
				"deltaTime": 180,
				"channel": 1,
				"type": "channel",
				"subtype": "noteOff",
				"noteNumber": 37,
				"velocity": 64
			},
			{
				"deltaTime": 60,
				"channel": 1,
				"type": "channel",
				"noteNumber": 33,
				"velocity": 120,
				"subtype": "noteOn"
			},
			{
				"deltaTime": 180,
				"channel": 1,
				"type": "channel",
				"subtype": "noteOff",
				"noteNumber": 33,
				"velocity": 64
			},
			{
				"deltaTime": 60,
				"channel": 1,
				"type": "channel",
				"noteNumber": 45,
				"velocity": 111,
				"subtype": "noteOn"
			},
			{
				"deltaTime": 180,
				"channel": 1,
				"type": "channel",
				"subtype": "noteOff",
				"noteNumber": 45,
				"velocity": 64
			},
			{
				"deltaTime": 60,
				"channel": 1,
				"type": "channel",
				"noteNumber": 43,
				"velocity": 113,
				"subtype": "noteOn"
			},
			{
				"deltaTime": 180,
				"channel": 1,
				"type": "channel",
				"subtype": "noteOff",
				"noteNumber": 43,
				"velocity": 64
			},
			{
				"deltaTime": 60,
				"channel": 1,
				"type": "channel",
				"noteNumber": 45,
				"velocity": 121,
				"subtype": "noteOn"
			},
			{
				"deltaTime": 300,
				"channel": 1,
				"type": "channel",
				"subtype": "noteOff",
				"noteNumber": 45,
				"velocity": 64
			},
			{
				"deltaTime": 60,
				"channel": 1,
				"type": "channel",
				"noteNumber": 43,
				"velocity": 112,
				"subtype": "noteOn"
			},
			{
				"deltaTime": 90,
				"channel": 1,
				"type": "channel",
				"subtype": "noteOff",
				"noteNumber": 43,
				"velocity": 64
			},
			{
				"deltaTime": 30,
				"channel": 1,
				"type": "channel",
				"noteNumber": 45,
				"velocity": 109,
				"subtype": "noteOn"
			},
			{
				"deltaTime": 180,
				"channel": 1,
				"type": "channel",
				"subtype": "noteOff",
				"noteNumber": 45,
				"velocity": 64
			},
			{
				"deltaTime": 60,
				"channel": 1,
				"type": "channel",
				"noteNumber": 43,
				"velocity": 115,
				"subtype": "noteOn"
			},
			{
				"deltaTime": 180,
				"channel": 1,
				"type": "channel",
				"subtype": "noteOff",
				"noteNumber": 43,
				"velocity": 64
			},
			{
				"deltaTime": 60,
				"channel": 1,
				"type": "channel",
				"noteNumber": 37,
				"velocity": 110,
				"subtype": "noteOn"
			},
			{
				"deltaTime": 180,
				"channel": 1,
				"type": "channel",
				"subtype": "noteOff",
				"noteNumber": 37,
				"velocity": 64
			},
			{
				"deltaTime": 60,
				"channel": 1,
				"type": "channel",
				"noteNumber": 33,
				"velocity": 113,
				"subtype": "noteOn"
			},
			{
				"deltaTime": 180,
				"channel": 1,
				"type": "channel",
				"subtype": "noteOff",
				"noteNumber": 33,
				"velocity": 64
			},
			{
				"deltaTime": 60,
				"channel": 1,
				"type": "channel",
				"noteNumber": 45,
				"velocity": 113,
				"subtype": "noteOn"
			},
			{
				"deltaTime": 180,
				"channel": 1,
				"type": "channel",
				"subtype": "noteOff",
				"noteNumber": 45,
				"velocity": 64
			},
			{
				"deltaTime": 60,
				"channel": 1,
				"type": "channel",
				"noteNumber": 43,
				"velocity": 111,
				"subtype": "noteOn"
			},
			{
				"deltaTime": 180,
				"channel": 1,
				"type": "channel",
				"subtype": "noteOff",
				"noteNumber": 43,
				"velocity": 64
			},
			{
				"deltaTime": 60,
				"channel": 1,
				"type": "channel",
				"noteNumber": 45,
				"velocity": 115,
				"subtype": "noteOn"
			},
			{
				"deltaTime": 300,
				"channel": 1,
				"type": "channel",
				"subtype": "noteOff",
				"noteNumber": 45,
				"velocity": 64
			},
			{
				"deltaTime": 60,
				"channel": 1,
				"type": "channel",
				"noteNumber": 43,
				"velocity": 114,
				"subtype": "noteOn"
			},
			{
				"deltaTime": 90,
				"channel": 1,
				"type": "channel",
				"subtype": "noteOff",
				"noteNumber": 43,
				"velocity": 64
			},
			{
				"deltaTime": 30,
				"channel": 1,
				"type": "channel",
				"noteNumber": 45,
				"velocity": 114,
				"subtype": "noteOn"
			},
			{
				"deltaTime": 180,
				"channel": 1,
				"type": "channel",
				"subtype": "noteOff",
				"noteNumber": 45,
				"velocity": 64
			},
			{
				"deltaTime": 60,
				"channel": 1,
				"type": "channel",
				"noteNumber": 43,
				"velocity": 118,
				"subtype": "noteOn"
			},
			{
				"deltaTime": 180,
				"channel": 1,
				"type": "channel",
				"subtype": "noteOff",
				"noteNumber": 43,
				"velocity": 64
			},
			{
				"deltaTime": 60,
				"channel": 1,
				"type": "channel",
				"noteNumber": 36,
				"velocity": 113,
				"subtype": "noteOn"
			},
			{
				"deltaTime": 180,
				"channel": 1,
				"type": "channel",
				"subtype": "noteOff",
				"noteNumber": 36,
				"velocity": 64
			},
			{
				"deltaTime": 60,
				"channel": 1,
				"type": "channel",
				"noteNumber": 38,
				"velocity": 107,
				"subtype": "noteOn"
			},
			{
				"deltaTime": 180,
				"channel": 1,
				"type": "channel",
				"subtype": "noteOff",
				"noteNumber": 38,
				"velocity": 64
			},
			{
				"deltaTime": 60,
				"channel": 1,
				"type": "channel",
				"noteNumber": 50,
				"velocity": 117,
				"subtype": "noteOn"
			},
			{
				"deltaTime": 180,
				"channel": 1,
				"type": "channel",
				"subtype": "noteOff",
				"noteNumber": 50,
				"velocity": 64
			},
			{
				"deltaTime": 60,
				"channel": 1,
				"type": "channel",
				"noteNumber": 48,
				"velocity": 119,
				"subtype": "noteOn"
			},
			{
				"deltaTime": 180,
				"channel": 1,
				"type": "channel",
				"subtype": "noteOff",
				"noteNumber": 48,
				"velocity": 64
			},
			{
				"deltaTime": 60,
				"channel": 1,
				"type": "channel",
				"noteNumber": 50,
				"velocity": 115,
				"subtype": "noteOn"
			},
			{
				"deltaTime": 300,
				"channel": 1,
				"type": "channel",
				"subtype": "noteOff",
				"noteNumber": 50,
				"velocity": 64
			},
			{
				"deltaTime": 60,
				"channel": 1,
				"type": "channel",
				"noteNumber": 48,
				"velocity": 112,
				"subtype": "noteOn"
			},
			{
				"deltaTime": 90,
				"channel": 1,
				"type": "channel",
				"subtype": "noteOff",
				"noteNumber": 48,
				"velocity": 64
			},
			{
				"deltaTime": 30,
				"channel": 1,
				"type": "channel",
				"noteNumber": 50,
				"velocity": 108,
				"subtype": "noteOn"
			},
			{
				"deltaTime": 180,
				"channel": 1,
				"type": "channel",
				"subtype": "noteOff",
				"noteNumber": 50,
				"velocity": 64
			},
			{
				"deltaTime": 60,
				"channel": 1,
				"type": "channel",
				"noteNumber": 48,
				"velocity": 115,
				"subtype": "noteOn"
			},
			{
				"deltaTime": 180,
				"channel": 1,
				"type": "channel",
				"subtype": "noteOff",
				"noteNumber": 48,
				"velocity": 64
			},
			{
				"deltaTime": 60,
				"channel": 1,
				"type": "channel",
				"noteNumber": 43,
				"velocity": 115,
				"subtype": "noteOn"
			},
			{
				"deltaTime": 90,
				"channel": 1,
				"type": "channel",
				"subtype": "noteOff",
				"noteNumber": 43,
				"velocity": 64
			},
			{
				"deltaTime": 30,
				"channel": 1,
				"type": "channel",
				"noteNumber": 45,
				"velocity": 123,
				"subtype": "noteOn"
			},
			{
				"deltaTime": 90,
				"channel": 1,
				"type": "channel",
				"subtype": "noteOff",
				"noteNumber": 45,
				"velocity": 64
			},
			{
				"deltaTime": 30,
				"channel": 1,
				"type": "channel",
				"noteNumber": 33,
				"velocity": 114,
				"subtype": "noteOn"
			},
			{
				"deltaTime": 180,
				"channel": 1,
				"type": "channel",
				"subtype": "noteOff",
				"noteNumber": 33,
				"velocity": 64
			},
			{
				"deltaTime": 60,
				"channel": 1,
				"type": "channel",
				"noteNumber": 45,
				"velocity": 115,
				"subtype": "noteOn"
			},
			{
				"deltaTime": 180,
				"channel": 1,
				"type": "channel",
				"subtype": "noteOff",
				"noteNumber": 45,
				"velocity": 64
			},
			{
				"deltaTime": 60,
				"channel": 1,
				"type": "channel",
				"noteNumber": 43,
				"velocity": 107,
				"subtype": "noteOn"
			},
			{
				"deltaTime": 180,
				"channel": 1,
				"type": "channel",
				"subtype": "noteOff",
				"noteNumber": 43,
				"velocity": 64
			},
			{
				"deltaTime": 60,
				"channel": 1,
				"type": "channel",
				"noteNumber": 45,
				"velocity": 114,
				"subtype": "noteOn"
			},
			{
				"deltaTime": 300,
				"channel": 1,
				"type": "channel",
				"subtype": "noteOff",
				"noteNumber": 45,
				"velocity": 64
			},
			{
				"deltaTime": 60,
				"channel": 1,
				"type": "channel",
				"noteNumber": 43,
				"velocity": 124,
				"subtype": "noteOn"
			},
			{
				"deltaTime": 90,
				"channel": 1,
				"type": "channel",
				"subtype": "noteOff",
				"noteNumber": 43,
				"velocity": 64
			},
			{
				"deltaTime": 30,
				"channel": 1,
				"type": "channel",
				"noteNumber": 45,
				"velocity": 120,
				"subtype": "noteOn"
			},
			{
				"deltaTime": 180,
				"channel": 1,
				"type": "channel",
				"subtype": "noteOff",
				"noteNumber": 45,
				"velocity": 64
			},
			{
				"deltaTime": 60,
				"channel": 1,
				"type": "channel",
				"noteNumber": 43,
				"velocity": 105,
				"subtype": "noteOn"
			},
			{
				"deltaTime": 180,
				"channel": 1,
				"type": "channel",
				"subtype": "noteOff",
				"noteNumber": 43,
				"velocity": 64
			},
			{
				"deltaTime": 60,
				"channel": 1,
				"type": "channel",
				"noteNumber": 37,
				"velocity": 108,
				"subtype": "noteOn"
			},
			{
				"deltaTime": 180,
				"channel": 1,
				"type": "channel",
				"subtype": "noteOff",
				"noteNumber": 37,
				"velocity": 64
			},
			{
				"deltaTime": 60,
				"channel": 1,
				"type": "channel",
				"noteNumber": 33,
				"velocity": 108,
				"subtype": "noteOn"
			},
			{
				"deltaTime": 180,
				"channel": 1,
				"type": "channel",
				"subtype": "noteOff",
				"noteNumber": 33,
				"velocity": 64
			},
			{
				"deltaTime": 60,
				"channel": 1,
				"type": "channel",
				"noteNumber": 45,
				"velocity": 119,
				"subtype": "noteOn"
			},
			{
				"deltaTime": 180,
				"channel": 1,
				"type": "channel",
				"subtype": "noteOff",
				"noteNumber": 45,
				"velocity": 64
			},
			{
				"deltaTime": 60,
				"channel": 1,
				"type": "channel",
				"noteNumber": 43,
				"velocity": 113,
				"subtype": "noteOn"
			},
			{
				"deltaTime": 180,
				"channel": 1,
				"type": "channel",
				"subtype": "noteOff",
				"noteNumber": 43,
				"velocity": 64
			},
			{
				"deltaTime": 60,
				"channel": 1,
				"type": "channel",
				"noteNumber": 45,
				"velocity": 112,
				"subtype": "noteOn"
			},
			{
				"deltaTime": 300,
				"channel": 1,
				"type": "channel",
				"subtype": "noteOff",
				"noteNumber": 45,
				"velocity": 64
			},
			{
				"deltaTime": 60,
				"channel": 1,
				"type": "channel",
				"noteNumber": 43,
				"velocity": 105,
				"subtype": "noteOn"
			},
			{
				"deltaTime": 90,
				"channel": 1,
				"type": "channel",
				"subtype": "noteOff",
				"noteNumber": 43,
				"velocity": 64
			},
			{
				"deltaTime": 30,
				"channel": 1,
				"type": "channel",
				"noteNumber": 45,
				"velocity": 114,
				"subtype": "noteOn"
			},
			{
				"deltaTime": 180,
				"channel": 1,
				"type": "channel",
				"subtype": "noteOff",
				"noteNumber": 45,
				"velocity": 64
			},
			{
				"deltaTime": 60,
				"channel": 1,
				"type": "channel",
				"noteNumber": 43,
				"velocity": 121,
				"subtype": "noteOn"
			},
			{
				"deltaTime": 180,
				"channel": 1,
				"type": "channel",
				"subtype": "noteOff",
				"noteNumber": 43,
				"velocity": 64
			},
			{
				"deltaTime": 60,
				"channel": 1,
				"type": "channel",
				"noteNumber": 36,
				"velocity": 110,
				"subtype": "noteOn"
			},
			{
				"deltaTime": 180,
				"channel": 1,
				"type": "channel",
				"subtype": "noteOff",
				"noteNumber": 36,
				"velocity": 64
			},
			{
				"deltaTime": 60,
				"channel": 1,
				"type": "channel",
				"noteNumber": 38,
				"velocity": 121,
				"subtype": "noteOn"
			},
			{
				"deltaTime": 180,
				"channel": 1,
				"type": "channel",
				"subtype": "noteOff",
				"noteNumber": 38,
				"velocity": 64
			},
			{
				"deltaTime": 60,
				"channel": 1,
				"type": "channel",
				"noteNumber": 38,
				"velocity": 109,
				"subtype": "noteOn"
			},
			{
				"deltaTime": 180,
				"channel": 1,
				"type": "channel",
				"subtype": "noteOff",
				"noteNumber": 38,
				"velocity": 64
			},
			{
				"deltaTime": 60,
				"channel": 1,
				"type": "channel",
				"noteNumber": 38,
				"velocity": 124,
				"subtype": "noteOn"
			},
			{
				"deltaTime": 180,
				"channel": 1,
				"type": "channel",
				"subtype": "noteOff",
				"noteNumber": 38,
				"velocity": 64
			},
			{
				"deltaTime": 60,
				"channel": 1,
				"type": "channel",
				"noteNumber": 36,
				"velocity": 114,
				"subtype": "noteOn"
			},
			{
				"deltaTime": 180,
				"channel": 1,
				"type": "channel",
				"subtype": "noteOff",
				"noteNumber": 36,
				"velocity": 64
			},
			{
				"deltaTime": 60,
				"channel": 1,
				"type": "channel",
				"noteNumber": 38,
				"velocity": 115,
				"subtype": "noteOn"
			},
			{
				"deltaTime": 180,
				"channel": 1,
				"type": "channel",
				"subtype": "noteOff",
				"noteNumber": 38,
				"velocity": 64
			},
			{
				"deltaTime": 60,
				"channel": 1,
				"type": "channel",
				"noteNumber": 38,
				"velocity": 122,
				"subtype": "noteOn"
			},
			{
				"deltaTime": 180,
				"channel": 1,
				"type": "channel",
				"subtype": "noteOff",
				"noteNumber": 38,
				"velocity": 64
			},
			{
				"deltaTime": 300,
				"channel": 1,
				"type": "channel",
				"noteNumber": 36,
				"velocity": 116,
				"subtype": "noteOn"
			},
			{
				"deltaTime": 180,
				"channel": 1,
				"type": "channel",
				"subtype": "noteOff",
				"noteNumber": 36,
				"velocity": 64
			},
			{
				"deltaTime": 60,
				"channel": 1,
				"type": "channel",
				"noteNumber": 38,
				"velocity": 121,
				"subtype": "noteOn"
			},
			{
				"deltaTime": 180,
				"channel": 1,
				"type": "channel",
				"subtype": "noteOff",
				"noteNumber": 38,
				"velocity": 64
			},
			{
				"deltaTime": 60,
				"channel": 1,
				"type": "channel",
				"noteNumber": 38,
				"velocity": 107,
				"subtype": "noteOn"
			},
			{
				"deltaTime": 90,
				"channel": 1,
				"type": "channel",
				"subtype": "noteOff",
				"noteNumber": 38,
				"velocity": 64
			},
			{
				"deltaTime": 30,
				"channel": 1,
				"type": "channel",
				"noteNumber": 38,
				"velocity": 118,
				"subtype": "noteOn"
			},
			{
				"deltaTime": 90,
				"channel": 1,
				"type": "channel",
				"subtype": "noteOff",
				"noteNumber": 38,
				"velocity": 64
			},
			{
				"deltaTime": 30,
				"channel": 1,
				"type": "channel",
				"noteNumber": 38,
				"velocity": 112,
				"subtype": "noteOn"
			},
			{
				"deltaTime": 180,
				"channel": 1,
				"type": "channel",
				"subtype": "noteOff",
				"noteNumber": 38,
				"velocity": 64
			},
			{
				"deltaTime": 60,
				"channel": 1,
				"type": "channel",
				"noteNumber": 36,
				"velocity": 113,
				"subtype": "noteOn"
			},
			{
				"deltaTime": 180,
				"channel": 1,
				"type": "channel",
				"subtype": "noteOff",
				"noteNumber": 36,
				"velocity": 64
			},
			{
				"deltaTime": 60,
				"channel": 1,
				"type": "channel",
				"noteNumber": 38,
				"velocity": 119,
				"subtype": "noteOn"
			},
			{
				"deltaTime": 180,
				"channel": 1,
				"type": "channel",
				"subtype": "noteOff",
				"noteNumber": 38,
				"velocity": 64
			},
			{
				"deltaTime": 60,
				"channel": 1,
				"type": "channel",
				"noteNumber": 38,
				"velocity": 111,
				"subtype": "noteOn"
			},
			{
				"deltaTime": 180,
				"channel": 1,
				"type": "channel",
				"subtype": "noteOff",
				"noteNumber": 38,
				"velocity": 64
			},
			{
				"deltaTime": 300,
				"channel": 1,
				"type": "channel",
				"noteNumber": 36,
				"velocity": 112,
				"subtype": "noteOn"
			},
			{
				"deltaTime": 180,
				"channel": 1,
				"type": "channel",
				"subtype": "noteOff",
				"noteNumber": 36,
				"velocity": 64
			},
			{
				"deltaTime": 60,
				"channel": 1,
				"type": "channel",
				"noteNumber": 33,
				"velocity": 113,
				"subtype": "noteOn"
			},
			{
				"deltaTime": 180,
				"channel": 1,
				"type": "channel",
				"subtype": "noteOff",
				"noteNumber": 33,
				"velocity": 64
			},
			{
				"deltaTime": 60,
				"channel": 1,
				"type": "channel",
				"noteNumber": 45,
				"velocity": 117,
				"subtype": "noteOn"
			},
			{
				"deltaTime": 180,
				"channel": 1,
				"type": "channel",
				"subtype": "noteOff",
				"noteNumber": 45,
				"velocity": 64
			},
			{
				"deltaTime": 60,
				"channel": 1,
				"type": "channel",
				"noteNumber": 43,
				"velocity": 114,
				"subtype": "noteOn"
			},
			{
				"deltaTime": 180,
				"channel": 1,
				"type": "channel",
				"subtype": "noteOff",
				"noteNumber": 43,
				"velocity": 64
			},
			{
				"deltaTime": 60,
				"channel": 1,
				"type": "channel",
				"noteNumber": 45,
				"velocity": 120,
				"subtype": "noteOn"
			},
			{
				"deltaTime": 300,
				"channel": 1,
				"type": "channel",
				"subtype": "noteOff",
				"noteNumber": 45,
				"velocity": 64
			},
			{
				"deltaTime": 60,
				"channel": 1,
				"type": "channel",
				"noteNumber": 43,
				"velocity": 104,
				"subtype": "noteOn"
			},
			{
				"deltaTime": 90,
				"channel": 1,
				"type": "channel",
				"subtype": "noteOff",
				"noteNumber": 43,
				"velocity": 64
			},
			{
				"deltaTime": 30,
				"channel": 1,
				"type": "channel",
				"noteNumber": 45,
				"velocity": 115,
				"subtype": "noteOn"
			},
			{
				"deltaTime": 180,
				"channel": 1,
				"type": "channel",
				"subtype": "noteOff",
				"noteNumber": 45,
				"velocity": 64
			},
			{
				"deltaTime": 60,
				"channel": 1,
				"type": "channel",
				"noteNumber": 43,
				"velocity": 115,
				"subtype": "noteOn"
			},
			{
				"deltaTime": 180,
				"channel": 1,
				"type": "channel",
				"subtype": "noteOff",
				"noteNumber": 43,
				"velocity": 64
			},
			{
				"deltaTime": 60,
				"channel": 1,
				"type": "channel",
				"noteNumber": 37,
				"velocity": 114,
				"subtype": "noteOn"
			},
			{
				"deltaTime": 180,
				"channel": 1,
				"type": "channel",
				"subtype": "noteOff",
				"noteNumber": 37,
				"velocity": 64
			},
			{
				"deltaTime": 60,
				"channel": 1,
				"type": "channel",
				"noteNumber": 33,
				"velocity": 105,
				"subtype": "noteOn"
			},
			{
				"deltaTime": 180,
				"channel": 1,
				"type": "channel",
				"subtype": "noteOff",
				"noteNumber": 33,
				"velocity": 64
			},
			{
				"deltaTime": 60,
				"channel": 1,
				"type": "channel",
				"noteNumber": 45,
				"velocity": 110,
				"subtype": "noteOn"
			},
			{
				"deltaTime": 180,
				"channel": 1,
				"type": "channel",
				"subtype": "noteOff",
				"noteNumber": 45,
				"velocity": 64
			},
			{
				"deltaTime": 60,
				"channel": 1,
				"type": "channel",
				"noteNumber": 43,
				"velocity": 114,
				"subtype": "noteOn"
			},
			{
				"deltaTime": 180,
				"channel": 1,
				"type": "channel",
				"subtype": "noteOff",
				"noteNumber": 43,
				"velocity": 64
			},
			{
				"deltaTime": 60,
				"channel": 1,
				"type": "channel",
				"noteNumber": 45,
				"velocity": 124,
				"subtype": "noteOn"
			},
			{
				"deltaTime": 300,
				"channel": 1,
				"type": "channel",
				"subtype": "noteOff",
				"noteNumber": 45,
				"velocity": 64
			},
			{
				"deltaTime": 60,
				"channel": 1,
				"type": "channel",
				"noteNumber": 43,
				"velocity": 115,
				"subtype": "noteOn"
			},
			{
				"deltaTime": 90,
				"channel": 1,
				"type": "channel",
				"subtype": "noteOff",
				"noteNumber": 43,
				"velocity": 64
			},
			{
				"deltaTime": 30,
				"channel": 1,
				"type": "channel",
				"noteNumber": 45,
				"velocity": 117,
				"subtype": "noteOn"
			},
			{
				"deltaTime": 180,
				"channel": 1,
				"type": "channel",
				"subtype": "noteOff",
				"noteNumber": 45,
				"velocity": 64
			},
			{
				"deltaTime": 60,
				"channel": 1,
				"type": "channel",
				"noteNumber": 43,
				"velocity": 119,
				"subtype": "noteOn"
			},
			{
				"deltaTime": 90,
				"channel": 1,
				"type": "channel",
				"subtype": "noteOff",
				"noteNumber": 43,
				"velocity": 64
			},
			{
				"deltaTime": 30,
				"channel": 1,
				"type": "channel",
				"noteNumber": 38,
				"velocity": 123,
				"subtype": "noteOn"
			},
			{
				"deltaTime": 90,
				"channel": 1,
				"type": "channel",
				"subtype": "noteOff",
				"noteNumber": 38,
				"velocity": 64
			},
			{
				"deltaTime": 30,
				"channel": 1,
				"type": "channel",
				"noteNumber": 40,
				"velocity": 113,
				"subtype": "noteOn"
			},
			{
				"deltaTime": 180,
				"channel": 1,
				"type": "channel",
				"subtype": "noteOff",
				"noteNumber": 40,
				"velocity": 64
			},
			{
				"deltaTime": 60,
				"channel": 1,
				"type": "channel",
				"noteNumber": 40,
				"velocity": 114,
				"subtype": "noteOn"
			},
			{
				"deltaTime": 180,
				"channel": 1,
				"type": "channel",
				"subtype": "noteOff",
				"noteNumber": 40,
				"velocity": 64
			},
			{
				"deltaTime": 60,
				"channel": 1,
				"type": "channel",
				"noteNumber": 52,
				"velocity": 118,
				"subtype": "noteOn"
			},
			{
				"deltaTime": 420,
				"channel": 1,
				"type": "channel",
				"subtype": "noteOff",
				"noteNumber": 52,
				"velocity": 64
			},
			{
				"deltaTime": 60,
				"channel": 1,
				"type": "channel",
				"noteNumber": 40,
				"velocity": 114,
				"subtype": "noteOn"
			},
			{
				"deltaTime": 180,
				"channel": 1,
				"type": "channel",
				"subtype": "noteOff",
				"noteNumber": 40,
				"velocity": 64
			},
			{
				"deltaTime": 60,
				"channel": 1,
				"type": "channel",
				"noteNumber": 40,
				"velocity": 109,
				"subtype": "noteOn"
			},
			{
				"deltaTime": 180,
				"channel": 1,
				"type": "channel",
				"subtype": "noteOff",
				"noteNumber": 40,
				"velocity": 64
			},
			{
				"deltaTime": 60,
				"channel": 1,
				"type": "channel",
				"noteNumber": 40,
				"velocity": 109,
				"subtype": "noteOn"
			},
			{
				"deltaTime": 180,
				"channel": 1,
				"type": "channel",
				"subtype": "noteOff",
				"noteNumber": 40,
				"velocity": 64
			},
			{
				"deltaTime": 60,
				"channel": 1,
				"type": "channel",
				"noteNumber": 40,
				"velocity": 123,
				"subtype": "noteOn"
			},
			{
				"deltaTime": 180,
				"channel": 1,
				"type": "channel",
				"subtype": "noteOff",
				"noteNumber": 40,
				"velocity": 64
			},
			{
				"deltaTime": 60,
				"channel": 1,
				"type": "channel",
				"noteNumber": 41,
				"velocity": 117,
				"subtype": "noteOn"
			},
			{
				"deltaTime": 180,
				"channel": 1,
				"type": "channel",
				"subtype": "noteOff",
				"noteNumber": 41,
				"velocity": 64
			},
			{
				"deltaTime": 60,
				"channel": 1,
				"type": "channel",
				"noteNumber": 42,
				"velocity": 118,
				"subtype": "noteOn"
			},
			{
				"deltaTime": 180,
				"channel": 1,
				"type": "channel",
				"subtype": "noteOff",
				"noteNumber": 42,
				"velocity": 64
			},
			{
				"deltaTime": 60,
				"channel": 1,
				"type": "channel",
				"noteNumber": 54,
				"velocity": 110,
				"subtype": "noteOn"
			},
			{
				"deltaTime": 420,
				"channel": 1,
				"type": "channel",
				"subtype": "noteOff",
				"noteNumber": 54,
				"velocity": 64
			},
			{
				"deltaTime": 60,
				"channel": 1,
				"type": "channel",
				"noteNumber": 42,
				"velocity": 114,
				"subtype": "noteOn"
			},
			{
				"deltaTime": 180,
				"channel": 1,
				"type": "channel",
				"subtype": "noteOff",
				"noteNumber": 42,
				"velocity": 64
			},
			{
				"deltaTime": 60,
				"channel": 1,
				"type": "channel",
				"noteNumber": 40,
				"velocity": 107,
				"subtype": "noteOn"
			},
			{
				"deltaTime": 180,
				"channel": 1,
				"type": "channel",
				"subtype": "noteOff",
				"noteNumber": 40,
				"velocity": 64
			},
			{
				"deltaTime": 60,
				"channel": 1,
				"type": "channel",
				"noteNumber": 52,
				"velocity": 107,
				"subtype": "noteOn"
			},
			{
				"deltaTime": 180,
				"channel": 1,
				"type": "channel",
				"subtype": "noteOff",
				"noteNumber": 52,
				"velocity": 64
			},
			{
				"deltaTime": 60,
				"channel": 1,
				"type": "channel",
				"noteNumber": 38,
				"velocity": 120,
				"subtype": "noteOn"
			},
			{
				"deltaTime": 180,
				"channel": 1,
				"type": "channel",
				"subtype": "noteOff",
				"noteNumber": 38,
				"velocity": 64
			},
			{
				"deltaTime": 60,
				"channel": 1,
				"type": "channel",
				"noteNumber": 36,
				"velocity": 106,
				"subtype": "noteOn"
			},
			{
				"deltaTime": 180,
				"channel": 1,
				"type": "channel",
				"subtype": "noteOff",
				"noteNumber": 36,
				"velocity": 64
			},
			{
				"deltaTime": 60,
				"channel": 1,
				"type": "channel",
				"noteNumber": 33,
				"velocity": 114,
				"subtype": "noteOn"
			},
			{
				"deltaTime": 180,
				"channel": 1,
				"type": "channel",
				"subtype": "noteOff",
				"noteNumber": 33,
				"velocity": 64
			},
			{
				"deltaTime": 60,
				"channel": 1,
				"type": "channel",
				"noteNumber": 45,
				"velocity": 116,
				"subtype": "noteOn"
			},
			{
				"deltaTime": 180,
				"channel": 1,
				"type": "channel",
				"subtype": "noteOff",
				"noteNumber": 45,
				"velocity": 64
			},
			{
				"deltaTime": 60,
				"channel": 1,
				"type": "channel",
				"noteNumber": 43,
				"velocity": 113,
				"subtype": "noteOn"
			},
			{
				"deltaTime": 180,
				"channel": 1,
				"type": "channel",
				"subtype": "noteOff",
				"noteNumber": 43,
				"velocity": 64
			},
			{
				"deltaTime": 60,
				"channel": 1,
				"type": "channel",
				"noteNumber": 45,
				"velocity": 115,
				"subtype": "noteOn"
			},
			{
				"deltaTime": 300,
				"channel": 1,
				"type": "channel",
				"subtype": "noteOff",
				"noteNumber": 45,
				"velocity": 64
			},
			{
				"deltaTime": 60,
				"channel": 1,
				"type": "channel",
				"noteNumber": 43,
				"velocity": 114,
				"subtype": "noteOn"
			},
			{
				"deltaTime": 90,
				"channel": 1,
				"type": "channel",
				"subtype": "noteOff",
				"noteNumber": 43,
				"velocity": 64
			},
			{
				"deltaTime": 30,
				"channel": 1,
				"type": "channel",
				"noteNumber": 45,
				"velocity": 113,
				"subtype": "noteOn"
			},
			{
				"deltaTime": 180,
				"channel": 1,
				"type": "channel",
				"subtype": "noteOff",
				"noteNumber": 45,
				"velocity": 64
			},
			{
				"deltaTime": 60,
				"channel": 1,
				"type": "channel",
				"noteNumber": 43,
				"velocity": 122,
				"subtype": "noteOn"
			},
			{
				"deltaTime": 180,
				"channel": 1,
				"type": "channel",
				"subtype": "noteOff",
				"noteNumber": 43,
				"velocity": 64
			},
			{
				"deltaTime": 60,
				"channel": 1,
				"type": "channel",
				"noteNumber": 37,
				"velocity": 111,
				"subtype": "noteOn"
			},
			{
				"deltaTime": 180,
				"channel": 1,
				"type": "channel",
				"subtype": "noteOff",
				"noteNumber": 37,
				"velocity": 64
			},
			{
				"deltaTime": 60,
				"channel": 1,
				"type": "channel",
				"noteNumber": 33,
				"velocity": 108,
				"subtype": "noteOn"
			},
			{
				"deltaTime": 180,
				"channel": 1,
				"type": "channel",
				"subtype": "noteOff",
				"noteNumber": 33,
				"velocity": 64
			},
			{
				"deltaTime": 60,
				"channel": 1,
				"type": "channel",
				"noteNumber": 45,
				"velocity": 120,
				"subtype": "noteOn"
			},
			{
				"deltaTime": 180,
				"channel": 1,
				"type": "channel",
				"subtype": "noteOff",
				"noteNumber": 45,
				"velocity": 64
			},
			{
				"deltaTime": 60,
				"channel": 1,
				"type": "channel",
				"noteNumber": 43,
				"velocity": 112,
				"subtype": "noteOn"
			},
			{
				"deltaTime": 180,
				"channel": 1,
				"type": "channel",
				"subtype": "noteOff",
				"noteNumber": 43,
				"velocity": 64
			},
			{
				"deltaTime": 60,
				"channel": 1,
				"type": "channel",
				"noteNumber": 45,
				"velocity": 120,
				"subtype": "noteOn"
			},
			{
				"deltaTime": 300,
				"channel": 1,
				"type": "channel",
				"subtype": "noteOff",
				"noteNumber": 45,
				"velocity": 64
			},
			{
				"deltaTime": 60,
				"channel": 1,
				"type": "channel",
				"noteNumber": 43,
				"velocity": 111,
				"subtype": "noteOn"
			},
			{
				"deltaTime": 90,
				"channel": 1,
				"type": "channel",
				"subtype": "noteOff",
				"noteNumber": 43,
				"velocity": 64
			},
			{
				"deltaTime": 30,
				"channel": 1,
				"type": "channel",
				"noteNumber": 45,
				"velocity": 112,
				"subtype": "noteOn"
			},
			{
				"deltaTime": 180,
				"channel": 1,
				"type": "channel",
				"subtype": "noteOff",
				"noteNumber": 45,
				"velocity": 64
			},
			{
				"deltaTime": 60,
				"channel": 1,
				"type": "channel",
				"noteNumber": 43,
				"velocity": 113,
				"subtype": "noteOn"
			},
			{
				"deltaTime": 180,
				"channel": 1,
				"type": "channel",
				"subtype": "noteOff",
				"noteNumber": 43,
				"velocity": 64
			},
			{
				"deltaTime": 60,
				"channel": 1,
				"type": "channel",
				"noteNumber": 37,
				"velocity": 114,
				"subtype": "noteOn"
			},
			{
				"deltaTime": 180,
				"channel": 1,
				"type": "channel",
				"subtype": "noteOff",
				"noteNumber": 37,
				"velocity": 64
			},
			{
				"deltaTime": 60,
				"channel": 1,
				"type": "channel",
				"noteNumber": 33,
				"velocity": 115,
				"subtype": "noteOn"
			},
			{
				"deltaTime": 180,
				"channel": 1,
				"type": "channel",
				"subtype": "noteOff",
				"noteNumber": 33,
				"velocity": 64
			},
			{
				"deltaTime": 60,
				"channel": 1,
				"type": "channel",
				"noteNumber": 45,
				"velocity": 113,
				"subtype": "noteOn"
			},
			{
				"deltaTime": 180,
				"channel": 1,
				"type": "channel",
				"subtype": "noteOff",
				"noteNumber": 45,
				"velocity": 64
			},
			{
				"deltaTime": 60,
				"channel": 1,
				"type": "channel",
				"noteNumber": 43,
				"velocity": 120,
				"subtype": "noteOn"
			},
			{
				"deltaTime": 180,
				"channel": 1,
				"type": "channel",
				"subtype": "noteOff",
				"noteNumber": 43,
				"velocity": 64
			},
			{
				"deltaTime": 60,
				"channel": 1,
				"type": "channel",
				"noteNumber": 45,
				"velocity": 123,
				"subtype": "noteOn"
			},
			{
				"deltaTime": 300,
				"channel": 1,
				"type": "channel",
				"subtype": "noteOff",
				"noteNumber": 45,
				"velocity": 64
			},
			{
				"deltaTime": 60,
				"channel": 1,
				"type": "channel",
				"noteNumber": 43,
				"velocity": 120,
				"subtype": "noteOn"
			},
			{
				"deltaTime": 90,
				"channel": 1,
				"type": "channel",
				"subtype": "noteOff",
				"noteNumber": 43,
				"velocity": 64
			},
			{
				"deltaTime": 30,
				"channel": 1,
				"type": "channel",
				"noteNumber": 45,
				"velocity": 117,
				"subtype": "noteOn"
			},
			{
				"deltaTime": 180,
				"channel": 1,
				"type": "channel",
				"subtype": "noteOff",
				"noteNumber": 45,
				"velocity": 64
			},
			{
				"deltaTime": 60,
				"channel": 1,
				"type": "channel",
				"noteNumber": 43,
				"velocity": 113,
				"subtype": "noteOn"
			},
			{
				"deltaTime": 180,
				"channel": 1,
				"type": "channel",
				"subtype": "noteOff",
				"noteNumber": 43,
				"velocity": 64
			},
			{
				"deltaTime": 60,
				"channel": 1,
				"type": "channel",
				"noteNumber": 36,
				"velocity": 103,
				"subtype": "noteOn"
			},
			{
				"deltaTime": 180,
				"channel": 1,
				"type": "channel",
				"subtype": "noteOff",
				"noteNumber": 36,
				"velocity": 64
			},
			{
				"deltaTime": 60,
				"channel": 1,
				"type": "channel",
				"noteNumber": 38,
				"velocity": 107,
				"subtype": "noteOn"
			},
			{
				"deltaTime": 180,
				"channel": 1,
				"type": "channel",
				"subtype": "noteOff",
				"noteNumber": 38,
				"velocity": 64
			},
			{
				"deltaTime": 60,
				"channel": 1,
				"type": "channel",
				"noteNumber": 43,
				"velocity": 112,
				"subtype": "noteOn"
			},
			{
				"deltaTime": 180,
				"channel": 1,
				"type": "channel",
				"subtype": "noteOff",
				"noteNumber": 43,
				"velocity": 64
			},
			{
				"deltaTime": 60,
				"channel": 1,
				"type": "channel",
				"noteNumber": 38,
				"velocity": 115,
				"subtype": "noteOn"
			},
			{
				"deltaTime": 180,
				"channel": 1,
				"type": "channel",
				"subtype": "noteOff",
				"noteNumber": 38,
				"velocity": 64
			},
			{
				"deltaTime": 60,
				"channel": 1,
				"type": "channel",
				"noteNumber": 43,
				"velocity": 115,
				"subtype": "noteOn"
			},
			{
				"deltaTime": 90,
				"channel": 1,
				"type": "channel",
				"subtype": "noteOff",
				"noteNumber": 43,
				"velocity": 64
			},
			{
				"deltaTime": 30,
				"channel": 1,
				"type": "channel",
				"noteNumber": 38,
				"velocity": 106,
				"subtype": "noteOn"
			},
			{
				"deltaTime": 90,
				"channel": 1,
				"type": "channel",
				"subtype": "noteOff",
				"noteNumber": 38,
				"velocity": 64
			},
			{
				"deltaTime": 30,
				"channel": 1,
				"type": "channel",
				"noteNumber": 43,
				"velocity": 114,
				"subtype": "noteOn"
			},
			{
				"deltaTime": 180,
				"channel": 1,
				"type": "channel",
				"subtype": "noteOff",
				"noteNumber": 43,
				"velocity": 64
			},
			{
				"deltaTime": 60,
				"channel": 1,
				"type": "channel",
				"noteNumber": 45,
				"velocity": 118,
				"subtype": "noteOn"
			},
			{
				"deltaTime": 180,
				"channel": 1,
				"type": "channel",
				"subtype": "noteOff",
				"noteNumber": 45,
				"velocity": 64
			},
			{
				"deltaTime": 60,
				"channel": 1,
				"type": "channel",
				"noteNumber": 38,
				"velocity": 112,
				"subtype": "noteOn"
			},
			{
				"deltaTime": 180,
				"channel": 1,
				"type": "channel",
				"subtype": "noteOff",
				"noteNumber": 38,
				"velocity": 64
			},
			{
				"deltaTime": 60,
				"channel": 1,
				"type": "channel",
				"noteNumber": 36,
				"velocity": 117,
				"subtype": "noteOn"
			},
			{
				"deltaTime": 180,
				"channel": 1,
				"type": "channel",
				"subtype": "noteOff",
				"noteNumber": 36,
				"velocity": 64
			},
			{
				"deltaTime": 60,
				"channel": 1,
				"type": "channel",
				"noteNumber": 33,
				"velocity": 112,
				"subtype": "noteOn"
			},
			{
				"deltaTime": 180,
				"channel": 1,
				"type": "channel",
				"subtype": "noteOff",
				"noteNumber": 33,
				"velocity": 64
			},
			{
				"deltaTime": 60,
				"channel": 1,
				"type": "channel",
				"noteNumber": 45,
				"velocity": 111,
				"subtype": "noteOn"
			},
			{
				"deltaTime": 180,
				"channel": 1,
				"type": "channel",
				"subtype": "noteOff",
				"noteNumber": 45,
				"velocity": 64
			},
			{
				"deltaTime": 300,
				"channel": 1,
				"type": "channel",
				"noteNumber": 45,
				"velocity": 111,
				"subtype": "noteOn"
			},
			{
				"deltaTime": 180,
				"channel": 1,
				"type": "channel",
				"subtype": "noteOff",
				"noteNumber": 45,
				"velocity": 64
			},
			{
				"deltaTime": 300,
				"channel": 1,
				"type": "channel",
				"noteNumber": 36,
				"velocity": 114,
				"subtype": "noteOn"
			},
			{
				"deltaTime": 180,
				"channel": 1,
				"type": "channel",
				"subtype": "noteOff",
				"noteNumber": 36,
				"velocity": 64
			},
			{
				"deltaTime": 300,
				"channel": 1,
				"type": "channel",
				"noteNumber": 36,
				"velocity": 103,
				"subtype": "noteOn"
			},
			{
				"deltaTime": 90,
				"channel": 1,
				"type": "channel",
				"subtype": "noteOff",
				"noteNumber": 36,
				"velocity": 64
			},
			{
				"deltaTime": 30,
				"channel": 1,
				"type": "channel",
				"noteNumber": 33,
				"velocity": 111,
				"subtype": "noteOn"
			},
			{
				"deltaTime": 90,
				"channel": 1,
				"type": "channel",
				"subtype": "noteOff",
				"noteNumber": 33,
				"velocity": 64
			},
			{
				"deltaTime": 30,
				"channel": 1,
				"type": "channel",
				"noteNumber": 45,
				"velocity": 117,
				"subtype": "noteOn"
			},
			{
				"deltaTime": 180,
				"channel": 1,
				"type": "channel",
				"subtype": "noteOff",
				"noteNumber": 45,
				"velocity": 64
			},
			{
				"deltaTime": 60,
				"channel": 1,
				"type": "channel",
				"noteNumber": 45,
				"velocity": 113,
				"subtype": "noteOn"
			},
			{
				"deltaTime": 180,
				"channel": 1,
				"type": "channel",
				"subtype": "noteOff",
				"noteNumber": 45,
				"velocity": 64
			},
			{
				"deltaTime": 60,
				"channel": 1,
				"type": "channel",
				"noteNumber": 44,
				"velocity": 111,
				"subtype": "noteOn"
			},
			{
				"deltaTime": 180,
				"channel": 1,
				"type": "channel",
				"subtype": "noteOff",
				"noteNumber": 44,
				"velocity": 64
			},
			{
				"deltaTime": 60,
				"channel": 1,
				"type": "channel",
				"noteNumber": 45,
				"velocity": 117,
				"subtype": "noteOn"
			},
			{
				"deltaTime": 180,
				"channel": 1,
				"type": "channel",
				"subtype": "noteOff",
				"noteNumber": 45,
				"velocity": 64
			},
			{
				"deltaTime": 300,
				"channel": 1,
				"type": "channel",
				"noteNumber": 43,
				"velocity": 113,
				"subtype": "noteOn"
			},
			{
				"deltaTime": 420,
				"channel": 1,
				"type": "channel",
				"subtype": "noteOff",
				"noteNumber": 43,
				"velocity": 64
			},
			{
				"deltaTime": 60,
				"channel": 1,
				"type": "channel",
				"noteNumber": 38,
				"velocity": 118,
				"subtype": "noteOn"
			},
			{
				"deltaTime": 90,
				"channel": 1,
				"type": "channel",
				"subtype": "noteOff",
				"noteNumber": 38,
				"velocity": 64
			},
			{
				"deltaTime": 30,
				"channel": 1,
				"type": "channel",
				"noteNumber": 38,
				"velocity": 104,
				"subtype": "noteOn"
			},
			{
				"deltaTime": 90,
				"channel": 1,
				"type": "channel",
				"subtype": "noteOff",
				"noteNumber": 38,
				"velocity": 64
			},
			{
				"deltaTime": 30,
				"channel": 1,
				"type": "channel",
				"noteNumber": 38,
				"velocity": 118,
				"subtype": "noteOn"
			},
			{
				"deltaTime": 180,
				"channel": 1,
				"type": "channel",
				"subtype": "noteOff",
				"noteNumber": 38,
				"velocity": 64
			},
			{
				"deltaTime": 60,
				"channel": 1,
				"type": "channel",
				"noteNumber": 50,
				"velocity": 106,
				"subtype": "noteOn"
			},
			{
				"deltaTime": 180,
				"channel": 1,
				"type": "channel",
				"subtype": "noteOff",
				"noteNumber": 50,
				"velocity": 64
			},
			{
				"deltaTime": 60,
				"channel": 1,
				"type": "channel",
				"noteNumber": 48,
				"velocity": 107,
				"subtype": "noteOn"
			},
			{
				"deltaTime": 180,
				"channel": 1,
				"type": "channel",
				"subtype": "noteOff",
				"noteNumber": 48,
				"velocity": 64
			},
			{
				"deltaTime": 60,
				"channel": 1,
				"type": "channel",
				"noteNumber": 50,
				"velocity": 121,
				"subtype": "noteOn"
			},
			{
				"deltaTime": 300,
				"channel": 1,
				"type": "channel",
				"subtype": "noteOff",
				"noteNumber": 50,
				"velocity": 64
			},
			{
				"deltaTime": 60,
				"channel": 1,
				"type": "channel",
				"noteNumber": 48,
				"velocity": 114,
				"subtype": "noteOn"
			},
			{
				"deltaTime": 90,
				"channel": 1,
				"type": "channel",
				"subtype": "noteOff",
				"noteNumber": 48,
				"velocity": 64
			},
			{
				"deltaTime": 30,
				"channel": 1,
				"type": "channel",
				"noteNumber": 50,
				"velocity": 114,
				"subtype": "noteOn"
			},
			{
				"deltaTime": 180,
				"channel": 1,
				"type": "channel",
				"subtype": "noteOff",
				"noteNumber": 50,
				"velocity": 64
			},
			{
				"deltaTime": 60,
				"channel": 1,
				"type": "channel",
				"noteNumber": 48,
				"velocity": 114,
				"subtype": "noteOn"
			},
			{
				"deltaTime": 180,
				"channel": 1,
				"type": "channel",
				"subtype": "noteOff",
				"noteNumber": 48,
				"velocity": 64
			},
			{
				"deltaTime": 60,
				"channel": 1,
				"type": "channel",
				"noteNumber": 42,
				"velocity": 107,
				"subtype": "noteOn"
			},
			{
				"deltaTime": 180,
				"channel": 1,
				"type": "channel",
				"subtype": "noteOff",
				"noteNumber": 42,
				"velocity": 64
			},
			{
				"deltaTime": 60,
				"channel": 1,
				"type": "channel",
				"noteNumber": 38,
				"velocity": 117,
				"subtype": "noteOn"
			},
			{
				"deltaTime": 180,
				"channel": 1,
				"type": "channel",
				"subtype": "noteOff",
				"noteNumber": 38,
				"velocity": 64
			},
			{
				"deltaTime": 60,
				"channel": 1,
				"type": "channel",
				"noteNumber": 50,
				"velocity": 122,
				"subtype": "noteOn"
			},
			{
				"deltaTime": 180,
				"channel": 1,
				"type": "channel",
				"subtype": "noteOff",
				"noteNumber": 50,
				"velocity": 64
			},
			{
				"deltaTime": 60,
				"channel": 1,
				"type": "channel",
				"noteNumber": 48,
				"velocity": 107,
				"subtype": "noteOn"
			},
			{
				"deltaTime": 180,
				"channel": 1,
				"type": "channel",
				"subtype": "noteOff",
				"noteNumber": 48,
				"velocity": 64
			},
			{
				"deltaTime": 60,
				"channel": 1,
				"type": "channel",
				"noteNumber": 50,
				"velocity": 107,
				"subtype": "noteOn"
			},
			{
				"deltaTime": 240,
				"channel": 1,
				"type": "channel",
				"noteNumber": 38,
				"velocity": 115,
				"subtype": "noteOn"
			},
			{
				"deltaTime": 180,
				"channel": 1,
				"type": "channel",
				"subtype": "noteOff",
				"noteNumber": 50,
				"velocity": 64
			},
			{
				"deltaTime": 0,
				"channel": 1,
				"type": "channel",
				"subtype": "noteOff",
				"noteNumber": 38,
				"velocity": 64
			},
			{
				"deltaTime": 60,
				"channel": 1,
				"type": "channel",
				"noteNumber": 48,
				"velocity": 114,
				"subtype": "noteOn"
			},
			{
				"deltaTime": 420,
				"channel": 1,
				"type": "channel",
				"subtype": "noteOff",
				"noteNumber": 48,
				"velocity": 64
			},
			{
				"deltaTime": 60,
				"channel": 1,
				"type": "channel",
				"noteNumber": 52,
				"velocity": 114,
				"subtype": "noteOn"
			},
			{
				"deltaTime": 180,
				"channel": 1,
				"type": "channel",
				"subtype": "noteOff",
				"noteNumber": 52,
				"velocity": 64
			},
			{
				"deltaTime": 60,
				"channel": 1,
				"type": "channel",
				"noteNumber": 33,
				"velocity": 103,
				"subtype": "noteOn"
			},
			{
				"deltaTime": 180,
				"channel": 1,
				"type": "channel",
				"subtype": "noteOff",
				"noteNumber": 33,
				"velocity": 64
			},
			{
				"deltaTime": 60,
				"channel": 1,
				"type": "channel",
				"noteNumber": 45,
				"velocity": 109,
				"subtype": "noteOn"
			},
			{
				"deltaTime": 180,
				"channel": 1,
				"type": "channel",
				"subtype": "noteOff",
				"noteNumber": 45,
				"velocity": 64
			},
			{
				"deltaTime": 60,
				"channel": 1,
				"type": "channel",
				"noteNumber": 43,
				"velocity": 118,
				"subtype": "noteOn"
			},
			{
				"deltaTime": 180,
				"channel": 1,
				"type": "channel",
				"subtype": "noteOff",
				"noteNumber": 43,
				"velocity": 64
			},
			{
				"deltaTime": 60,
				"channel": 1,
				"type": "channel",
				"noteNumber": 45,
				"velocity": 118,
				"subtype": "noteOn"
			},
			{
				"deltaTime": 300,
				"channel": 1,
				"type": "channel",
				"subtype": "noteOff",
				"noteNumber": 45,
				"velocity": 64
			},
			{
				"deltaTime": 60,
				"channel": 1,
				"type": "channel",
				"noteNumber": 43,
				"velocity": 114,
				"subtype": "noteOn"
			},
			{
				"deltaTime": 90,
				"channel": 1,
				"type": "channel",
				"subtype": "noteOff",
				"noteNumber": 43,
				"velocity": 64
			},
			{
				"deltaTime": 30,
				"channel": 1,
				"type": "channel",
				"noteNumber": 45,
				"velocity": 108,
				"subtype": "noteOn"
			},
			{
				"deltaTime": 180,
				"channel": 1,
				"type": "channel",
				"subtype": "noteOff",
				"noteNumber": 45,
				"velocity": 64
			},
			{
				"deltaTime": 60,
				"channel": 1,
				"type": "channel",
				"noteNumber": 43,
				"velocity": 111,
				"subtype": "noteOn"
			},
			{
				"deltaTime": 180,
				"channel": 1,
				"type": "channel",
				"subtype": "noteOff",
				"noteNumber": 43,
				"velocity": 64
			},
			{
				"deltaTime": 60,
				"channel": 1,
				"type": "channel",
				"noteNumber": 37,
				"velocity": 114,
				"subtype": "noteOn"
			},
			{
				"deltaTime": 180,
				"channel": 1,
				"type": "channel",
				"subtype": "noteOff",
				"noteNumber": 37,
				"velocity": 64
			},
			{
				"deltaTime": 60,
				"channel": 1,
				"type": "channel",
				"noteNumber": 33,
				"velocity": 112,
				"subtype": "noteOn"
			},
			{
				"deltaTime": 180,
				"channel": 1,
				"type": "channel",
				"subtype": "noteOff",
				"noteNumber": 33,
				"velocity": 64
			},
			{
				"deltaTime": 60,
				"channel": 1,
				"type": "channel",
				"noteNumber": 45,
				"velocity": 105,
				"subtype": "noteOn"
			},
			{
				"deltaTime": 180,
				"channel": 1,
				"type": "channel",
				"subtype": "noteOff",
				"noteNumber": 45,
				"velocity": 64
			},
			{
				"deltaTime": 300,
				"channel": 1,
				"type": "channel",
				"noteNumber": 45,
				"velocity": 117,
				"subtype": "noteOn"
			},
			{
				"deltaTime": 300,
				"channel": 1,
				"type": "channel",
				"subtype": "noteOff",
				"noteNumber": 45,
				"velocity": 64
			},
			{
				"deltaTime": 60,
				"channel": 1,
				"type": "channel",
				"noteNumber": 38,
				"velocity": 114,
				"subtype": "noteOn"
			},
			{
				"deltaTime": 90,
				"channel": 1,
				"type": "channel",
				"subtype": "noteOff",
				"noteNumber": 38,
				"velocity": 64
			},
			{
				"deltaTime": 30,
				"channel": 1,
				"type": "channel",
				"noteNumber": 43,
				"velocity": 110,
				"subtype": "noteOn"
			},
			{
				"deltaTime": 300,
				"channel": 1,
				"type": "channel",
				"subtype": "noteOff",
				"noteNumber": 43,
				"velocity": 64
			},
			{
				"deltaTime": 180,
				"channel": 1,
				"type": "channel",
				"noteNumber": 40,
				"velocity": 114,
				"subtype": "noteOn"
			},
			{
				"deltaTime": 90,
				"channel": 1,
				"type": "channel",
				"subtype": "noteOff",
				"noteNumber": 40,
				"velocity": 64
			},
			{
				"deltaTime": 30,
				"channel": 1,
				"type": "channel",
				"noteNumber": 38,
				"velocity": 115,
				"subtype": "noteOn"
			},
			{
				"deltaTime": 90,
				"channel": 1,
				"type": "channel",
				"subtype": "noteOff",
				"noteNumber": 38,
				"velocity": 64
			},
			{
				"deltaTime": 30,
				"channel": 1,
				"type": "channel",
				"noteNumber": 40,
				"velocity": 115,
				"subtype": "noteOn"
			},
			{
				"deltaTime": 180,
				"channel": 1,
				"type": "channel",
				"subtype": "noteOff",
				"noteNumber": 40,
				"velocity": 64
			},
			{
				"deltaTime": 60,
				"channel": 1,
				"type": "channel",
				"noteNumber": 52,
				"velocity": 114,
				"subtype": "noteOn"
			},
			{
				"deltaTime": 180,
				"channel": 1,
				"type": "channel",
				"subtype": "noteOff",
				"noteNumber": 52,
				"velocity": 64
			},
			{
				"deltaTime": 60,
				"channel": 1,
				"type": "channel",
				"noteNumber": 40,
				"velocity": 111,
				"subtype": "noteOn"
			},
			{
				"deltaTime": 180,
				"channel": 1,
				"type": "channel",
				"subtype": "noteOff",
				"noteNumber": 40,
				"velocity": 64
			},
			{
				"deltaTime": 60,
				"channel": 1,
				"type": "channel",
				"noteNumber": 40,
				"velocity": 116,
				"subtype": "noteOn"
			},
			{
				"deltaTime": 180,
				"channel": 1,
				"type": "channel",
				"subtype": "noteOff",
				"noteNumber": 40,
				"velocity": 64
			},
			{
				"deltaTime": 60,
				"channel": 1,
				"type": "channel",
				"noteNumber": 40,
				"velocity": 106,
				"subtype": "noteOn"
			},
			{
				"deltaTime": 180,
				"channel": 1,
				"type": "channel",
				"subtype": "noteOff",
				"noteNumber": 40,
				"velocity": 64
			},
			{
				"deltaTime": 60,
				"channel": 1,
				"type": "channel",
				"noteNumber": 40,
				"velocity": 114,
				"subtype": "noteOn"
			},
			{
				"deltaTime": 180,
				"channel": 1,
				"type": "channel",
				"subtype": "noteOff",
				"noteNumber": 40,
				"velocity": 64
			},
			{
				"deltaTime": 60,
				"channel": 1,
				"type": "channel",
				"noteNumber": 40,
				"velocity": 112,
				"subtype": "noteOn"
			},
			{
				"deltaTime": 180,
				"channel": 1,
				"type": "channel",
				"subtype": "noteOff",
				"noteNumber": 40,
				"velocity": 64
			},
			{
				"deltaTime": 60,
				"channel": 1,
				"type": "channel",
				"noteNumber": 41,
				"velocity": 117,
				"subtype": "noteOn"
			},
			{
				"deltaTime": 180,
				"channel": 1,
				"type": "channel",
				"subtype": "noteOff",
				"noteNumber": 41,
				"velocity": 64
			},
			{
				"deltaTime": 60,
				"channel": 1,
				"type": "channel",
				"noteNumber": 42,
				"velocity": 111,
				"subtype": "noteOn"
			},
			{
				"deltaTime": 180,
				"channel": 1,
				"type": "channel",
				"subtype": "noteOff",
				"noteNumber": 42,
				"velocity": 64
			},
			{
				"deltaTime": 60,
				"channel": 1,
				"type": "channel",
				"noteNumber": 42,
				"velocity": 123,
				"subtype": "noteOn"
			},
			{
				"deltaTime": 180,
				"channel": 1,
				"type": "channel",
				"subtype": "noteOff",
				"noteNumber": 42,
				"velocity": 64
			},
			{
				"deltaTime": 60,
				"channel": 1,
				"type": "channel",
				"noteNumber": 42,
				"velocity": 115,
				"subtype": "noteOn"
			},
			{
				"deltaTime": 180,
				"channel": 1,
				"type": "channel",
				"subtype": "noteOff",
				"noteNumber": 42,
				"velocity": 64
			},
			{
				"deltaTime": 60,
				"channel": 1,
				"type": "channel",
				"noteNumber": 42,
				"velocity": 110,
				"subtype": "noteOn"
			},
			{
				"deltaTime": 180,
				"channel": 1,
				"type": "channel",
				"subtype": "noteOff",
				"noteNumber": 42,
				"velocity": 64
			},
			{
				"deltaTime": 60,
				"channel": 1,
				"type": "channel",
				"noteNumber": 38,
				"velocity": 122,
				"subtype": "noteOn"
			},
			{
				"deltaTime": 180,
				"channel": 1,
				"type": "channel",
				"subtype": "noteOff",
				"noteNumber": 38,
				"velocity": 64
			},
			{
				"deltaTime": 60,
				"channel": 1,
				"type": "channel",
				"noteNumber": 38,
				"velocity": 114,
				"subtype": "noteOn"
			},
			{
				"deltaTime": 180,
				"channel": 1,
				"type": "channel",
				"subtype": "noteOff",
				"noteNumber": 38,
				"velocity": 64
			},
			{
				"deltaTime": 60,
				"channel": 1,
				"type": "channel",
				"noteNumber": 36,
				"velocity": 120,
				"subtype": "noteOn"
			},
			{
				"deltaTime": 180,
				"channel": 1,
				"type": "channel",
				"subtype": "noteOff",
				"noteNumber": 36,
				"velocity": 64
			},
			{
				"deltaTime": 60,
				"channel": 1,
				"type": "channel",
				"noteNumber": 37,
				"velocity": 114,
				"subtype": "noteOn"
			},
			{
				"deltaTime": 180,
				"channel": 1,
				"type": "channel",
				"subtype": "noteOff",
				"noteNumber": 37,
				"velocity": 64
			},
			{
				"deltaTime": 60,
				"channel": 1,
				"type": "channel",
				"noteNumber": 33,
				"velocity": 107,
				"subtype": "noteOn"
			},
			{
				"deltaTime": 180,
				"channel": 1,
				"type": "channel",
				"subtype": "noteOff",
				"noteNumber": 33,
				"velocity": 64
			},
			{
				"deltaTime": 60,
				"channel": 1,
				"type": "channel",
				"noteNumber": 45,
				"velocity": 114,
				"subtype": "noteOn"
			},
			{
				"deltaTime": 180,
				"channel": 1,
				"type": "channel",
				"subtype": "noteOff",
				"noteNumber": 45,
				"velocity": 64
			},
			{
				"deltaTime": 60,
				"channel": 1,
				"type": "channel",
				"noteNumber": 43,
				"velocity": 114,
				"subtype": "noteOn"
			},
			{
				"deltaTime": 180,
				"channel": 1,
				"type": "channel",
				"subtype": "noteOff",
				"noteNumber": 43,
				"velocity": 64
			},
			{
				"deltaTime": 60,
				"channel": 1,
				"type": "channel",
				"noteNumber": 45,
				"velocity": 106,
				"subtype": "noteOn"
			},
			{
				"deltaTime": 420,
				"channel": 1,
				"type": "channel",
				"subtype": "noteOff",
				"noteNumber": 45,
				"velocity": 64
			},
			{
				"deltaTime": 60,
				"channel": 1,
				"type": "channel",
				"noteNumber": 38,
				"velocity": 116,
				"subtype": "noteOn"
			},
			{
				"deltaTime": 180,
				"channel": 1,
				"type": "channel",
				"subtype": "noteOff",
				"noteNumber": 38,
				"velocity": 64
			},
			{
				"deltaTime": 60,
				"channel": 1,
				"type": "channel",
				"noteNumber": 36,
				"velocity": 114,
				"subtype": "noteOn"
			},
			{
				"deltaTime": 180,
				"channel": 1,
				"type": "channel",
				"subtype": "noteOff",
				"noteNumber": 36,
				"velocity": 64
			},
			{
				"deltaTime": 60,
				"channel": 1,
				"type": "channel",
				"noteNumber": 36,
				"velocity": 110,
				"subtype": "noteOn"
			},
			{
				"deltaTime": 180,
				"channel": 1,
				"type": "channel",
				"subtype": "noteOff",
				"noteNumber": 36,
				"velocity": 64
			},
			{
				"deltaTime": 60,
				"channel": 1,
				"type": "channel",
				"noteNumber": 33,
				"velocity": 116,
				"subtype": "noteOn"
			},
			{
				"deltaTime": 180,
				"channel": 1,
				"type": "channel",
				"subtype": "noteOff",
				"noteNumber": 33,
				"velocity": 64
			},
			{
				"deltaTime": 60,
				"channel": 1,
				"type": "channel",
				"noteNumber": 45,
				"velocity": 114,
				"subtype": "noteOn"
			},
			{
				"deltaTime": 180,
				"channel": 1,
				"type": "channel",
				"subtype": "noteOff",
				"noteNumber": 45,
				"velocity": 64
			},
			{
				"deltaTime": 300,
				"channel": 1,
				"type": "channel",
				"noteNumber": 45,
				"velocity": 114,
				"subtype": "noteOn"
			},
			{
				"deltaTime": 180,
				"channel": 1,
				"type": "channel",
				"subtype": "noteOff",
				"noteNumber": 45,
				"velocity": 64
			},
			{
				"deltaTime": 300,
				"channel": 1,
				"type": "channel",
				"noteNumber": 36,
				"velocity": 118,
				"subtype": "noteOn"
			},
			{
				"deltaTime": 180,
				"channel": 1,
				"type": "channel",
				"subtype": "noteOff",
				"noteNumber": 36,
				"velocity": 64
			},
			{
				"deltaTime": 60,
				"channel": 1,
				"type": "channel",
				"noteNumber": 36,
				"velocity": 115,
				"subtype": "noteOn"
			},
			{
				"deltaTime": 180,
				"channel": 1,
				"type": "channel",
				"subtype": "noteOff",
				"noteNumber": 36,
				"velocity": 64
			},
			{
				"deltaTime": 60,
				"channel": 1,
				"type": "channel",
				"noteNumber": 36,
				"velocity": 114,
				"subtype": "noteOn"
			},
			{
				"deltaTime": 180,
				"channel": 1,
				"type": "channel",
				"subtype": "noteOff",
				"noteNumber": 36,
				"velocity": 64
			},
			{
				"deltaTime": 60,
				"channel": 1,
				"type": "channel",
				"noteNumber": 33,
				"velocity": 110,
				"subtype": "noteOn"
			},
			{
				"deltaTime": 180,
				"channel": 1,
				"type": "channel",
				"subtype": "noteOff",
				"noteNumber": 33,
				"velocity": 64
			},
			{
				"deltaTime": 60,
				"channel": 1,
				"type": "channel",
				"noteNumber": 57,
				"velocity": 104,
				"subtype": "noteOn"
			},
			{
				"deltaTime": 180,
				"channel": 1,
				"type": "channel",
				"subtype": "noteOff",
				"noteNumber": 57,
				"velocity": 64
			},
			{
				"deltaTime": 60,
				"channel": 1,
				"type": "channel",
				"noteNumber": 55,
				"velocity": 115,
				"subtype": "noteOn"
			},
			{
				"deltaTime": 180,
				"channel": 1,
				"type": "channel",
				"subtype": "noteOff",
				"noteNumber": 55,
				"velocity": 64
			},
			{
				"deltaTime": 60,
				"channel": 1,
				"type": "channel",
				"noteNumber": 57,
				"velocity": 124,
				"subtype": "noteOn"
			},
			{
				"deltaTime": 180,
				"channel": 1,
				"type": "channel",
				"subtype": "noteOff",
				"noteNumber": 57,
				"velocity": 64
			},
			{
				"deltaTime": 60,
				"channel": 1,
				"type": "channel",
				"noteNumber": 57,
				"velocity": 112,
				"subtype": "noteOn"
			},
			{
				"deltaTime": 180,
				"channel": 1,
				"type": "channel",
				"subtype": "noteOff",
				"noteNumber": 57,
				"velocity": 64
			},
			{
				"deltaTime": 60,
				"channel": 1,
				"type": "channel",
				"noteNumber": 33,
				"velocity": 117,
				"subtype": "noteOn"
			},
			{
				"deltaTime": 180,
				"channel": 1,
				"type": "channel",
				"subtype": "noteOff",
				"noteNumber": 33,
				"velocity": 64
			},
			{
				"deltaTime": 60,
				"channel": 1,
				"type": "channel",
				"noteNumber": 36,
				"velocity": 111,
				"subtype": "noteOn"
			},
			{
				"deltaTime": 180,
				"channel": 1,
				"type": "channel",
				"subtype": "noteOff",
				"noteNumber": 36,
				"velocity": 64
			},
			{
				"deltaTime": 60,
				"channel": 1,
				"type": "channel",
				"noteNumber": 38,
				"velocity": 111,
				"subtype": "noteOn"
			},
			{
				"deltaTime": 180,
				"channel": 1,
				"type": "channel",
				"subtype": "noteOff",
				"noteNumber": 38,
				"velocity": 64
			},
			{
				"deltaTime": 60,
				"channel": 1,
				"type": "channel",
				"noteNumber": 38,
				"velocity": 114,
				"subtype": "noteOn"
			},
			{
				"deltaTime": 180,
				"channel": 1,
				"type": "channel",
				"subtype": "noteOff",
				"noteNumber": 38,
				"velocity": 64
			},
			{
				"deltaTime": 60,
				"channel": 1,
				"type": "channel",
				"noteNumber": 38,
				"velocity": 115,
				"subtype": "noteOn"
			},
			{
				"deltaTime": 180,
				"channel": 1,
				"type": "channel",
				"subtype": "noteOff",
				"noteNumber": 38,
				"velocity": 64
			},
			{
				"deltaTime": 60,
				"channel": 1,
				"type": "channel",
				"noteNumber": 36,
				"velocity": 117,
				"subtype": "noteOn"
			},
			{
				"deltaTime": 180,
				"channel": 1,
				"type": "channel",
				"subtype": "noteOff",
				"noteNumber": 36,
				"velocity": 64
			},
			{
				"deltaTime": 60,
				"channel": 1,
				"type": "channel",
				"noteNumber": 38,
				"velocity": 114,
				"subtype": "noteOn"
			},
			{
				"deltaTime": 180,
				"channel": 1,
				"type": "channel",
				"subtype": "noteOff",
				"noteNumber": 38,
				"velocity": 64
			},
			{
				"deltaTime": 60,
				"channel": 1,
				"type": "channel",
				"noteNumber": 39,
				"velocity": 106,
				"subtype": "noteOn"
			},
			{
				"deltaTime": 180,
				"channel": 1,
				"type": "channel",
				"subtype": "noteOff",
				"noteNumber": 39,
				"velocity": 64
			},
			{
				"deltaTime": 60,
				"channel": 1,
				"type": "channel",
				"noteNumber": 38,
				"velocity": 115,
				"subtype": "noteOn"
			},
			{
				"deltaTime": 180,
				"channel": 1,
				"type": "channel",
				"subtype": "noteOff",
				"noteNumber": 38,
				"velocity": 64
			},
			{
				"deltaTime": 60,
				"channel": 1,
				"type": "channel",
				"noteNumber": 36,
				"velocity": 122,
				"subtype": "noteOn"
			},
			{
				"deltaTime": 180,
				"channel": 1,
				"type": "channel",
				"subtype": "noteOff",
				"noteNumber": 36,
				"velocity": 64
			},
			{
				"deltaTime": 60,
				"channel": 1,
				"type": "channel",
				"noteNumber": 33,
				"velocity": 114,
				"subtype": "noteOn"
			},
			{
				"deltaTime": 180,
				"channel": 1,
				"type": "channel",
				"subtype": "noteOff",
				"noteNumber": 33,
				"velocity": 64
			},
			{
				"deltaTime": 60,
				"channel": 1,
				"type": "channel",
				"noteNumber": 33,
				"velocity": 114,
				"subtype": "noteOn"
			},
			{
				"deltaTime": 180,
				"channel": 1,
				"type": "channel",
				"subtype": "noteOff",
				"noteNumber": 33,
				"velocity": 64
			},
			{
				"deltaTime": 60,
				"channel": 1,
				"type": "channel",
				"noteNumber": 45,
				"velocity": 114,
				"subtype": "noteOn"
			},
			{
				"deltaTime": 180,
				"channel": 1,
				"type": "channel",
				"subtype": "noteOff",
				"noteNumber": 45,
				"velocity": 64
			},
			{
				"deltaTime": 60,
				"channel": 1,
				"type": "channel",
				"noteNumber": 43,
				"velocity": 119,
				"subtype": "noteOn"
			},
			{
				"deltaTime": 180,
				"channel": 1,
				"type": "channel",
				"subtype": "noteOff",
				"noteNumber": 43,
				"velocity": 64
			},
			{
				"deltaTime": 60,
				"channel": 1,
				"type": "channel",
				"noteNumber": 45,
				"velocity": 115,
				"subtype": "noteOn"
			},
			{
				"deltaTime": 180,
				"channel": 1,
				"type": "channel",
				"subtype": "noteOff",
				"noteNumber": 45,
				"velocity": 64
			},
			{
				"deltaTime": 60,
				"channel": 1,
				"type": "channel",
				"noteNumber": 45,
				"velocity": 114,
				"subtype": "noteOn"
			},
			{
				"deltaTime": 180,
				"channel": 1,
				"type": "channel",
				"subtype": "noteOff",
				"noteNumber": 45,
				"velocity": 64
			},
			{
				"deltaTime": 60,
				"channel": 1,
				"type": "channel",
				"noteNumber": 36,
				"velocity": 114,
				"subtype": "noteOn"
			},
			{
				"deltaTime": 180,
				"channel": 1,
				"type": "channel",
				"subtype": "noteOff",
				"noteNumber": 36,
				"velocity": 64
			},
			{
				"deltaTime": 60,
				"channel": 1,
				"type": "channel",
				"noteNumber": 36,
				"velocity": 112,
				"subtype": "noteOn"
			},
			{
				"deltaTime": 180,
				"channel": 1,
				"type": "channel",
				"subtype": "noteOff",
				"noteNumber": 36,
				"velocity": 64
			},
			{
				"deltaTime": 60,
				"channel": 1,
				"type": "channel",
				"noteNumber": 33,
				"velocity": 114,
				"subtype": "noteOn"
			},
			{
				"deltaTime": 180,
				"channel": 1,
				"type": "channel",
				"subtype": "noteOff",
				"noteNumber": 33,
				"velocity": 64
			},
			{
				"deltaTime": 60,
				"channel": 1,
				"type": "channel",
				"noteNumber": 33,
				"velocity": 114,
				"subtype": "noteOn"
			},
			{
				"deltaTime": 180,
				"channel": 1,
				"type": "channel",
				"subtype": "noteOff",
				"noteNumber": 33,
				"velocity": 64
			},
			{
				"deltaTime": 60,
				"channel": 1,
				"type": "channel",
				"noteNumber": 45,
				"velocity": 108,
				"subtype": "noteOn"
			},
			{
				"deltaTime": 180,
				"channel": 1,
				"type": "channel",
				"subtype": "noteOff",
				"noteNumber": 45,
				"velocity": 64
			},
			{
				"deltaTime": 60,
				"channel": 1,
				"type": "channel",
				"noteNumber": 43,
				"velocity": 109,
				"subtype": "noteOn"
			},
			{
				"deltaTime": 180,
				"channel": 1,
				"type": "channel",
				"subtype": "noteOff",
				"noteNumber": 43,
				"velocity": 64
			},
			{
				"deltaTime": 60,
				"channel": 1,
				"type": "channel",
				"noteNumber": 45,
				"velocity": 111,
				"subtype": "noteOn"
			},
			{
				"deltaTime": 420,
				"channel": 1,
				"type": "channel",
				"subtype": "noteOff",
				"noteNumber": 45,
				"velocity": 64
			},
			{
				"deltaTime": 60,
				"channel": 1,
				"type": "channel",
				"noteNumber": 38,
				"velocity": 116,
				"subtype": "noteOn"
			},
			{
				"deltaTime": 90,
				"channel": 1,
				"type": "channel",
				"subtype": "noteOff",
				"noteNumber": 38,
				"velocity": 64
			},
			{
				"deltaTime": 30,
				"channel": 1,
				"type": "channel",
				"noteNumber": 36,
				"velocity": 124,
				"subtype": "noteOn"
			},
			{
				"deltaTime": 90,
				"channel": 1,
				"type": "channel",
				"subtype": "noteOff",
				"noteNumber": 36,
				"velocity": 64
			},
			{
				"deltaTime": 30,
				"channel": 1,
				"type": "channel",
				"noteNumber": 36,
				"velocity": 111,
				"subtype": "noteOn"
			},
			{
				"deltaTime": 180,
				"channel": 1,
				"type": "channel",
				"subtype": "noteOff",
				"noteNumber": 36,
				"velocity": 64
			},
			{
				"deltaTime": 60,
				"channel": 1,
				"type": "channel",
				"noteNumber": 38,
				"velocity": 113,
				"subtype": "noteOn"
			},
			{
				"deltaTime": 180,
				"channel": 1,
				"type": "channel",
				"subtype": "noteOff",
				"noteNumber": 38,
				"velocity": 64
			},
			{
				"deltaTime": 60,
				"channel": 1,
				"type": "channel",
				"noteNumber": 38,
				"velocity": 108,
				"subtype": "noteOn"
			},
			{
				"deltaTime": 180,
				"channel": 1,
				"type": "channel",
				"subtype": "noteOff",
				"noteNumber": 38,
				"velocity": 64
			},
			{
				"deltaTime": 60,
				"channel": 1,
				"type": "channel",
				"noteNumber": 50,
				"velocity": 111,
				"subtype": "noteOn"
			},
			{
				"deltaTime": 180,
				"channel": 1,
				"type": "channel",
				"subtype": "noteOff",
				"noteNumber": 50,
				"velocity": 64
			},
			{
				"deltaTime": 60,
				"channel": 1,
				"type": "channel",
				"noteNumber": 48,
				"velocity": 112,
				"subtype": "noteOn"
			},
			{
				"deltaTime": 180,
				"channel": 1,
				"type": "channel",
				"subtype": "noteOff",
				"noteNumber": 48,
				"velocity": 64
			},
			{
				"deltaTime": 60,
				"channel": 1,
				"type": "channel",
				"noteNumber": 50,
				"velocity": 113,
				"subtype": "noteOn"
			},
			{
				"deltaTime": 180,
				"channel": 1,
				"type": "channel",
				"subtype": "noteOff",
				"noteNumber": 50,
				"velocity": 64
			},
			{
				"deltaTime": 60,
				"channel": 1,
				"type": "channel",
				"noteNumber": 55,
				"velocity": 123,
				"subtype": "noteOn"
			},
			{
				"deltaTime": 180,
				"channel": 1,
				"type": "channel",
				"subtype": "noteOff",
				"noteNumber": 55,
				"velocity": 64
			},
			{
				"deltaTime": 60,
				"channel": 1,
				"type": "channel",
				"noteNumber": 48,
				"velocity": 114,
				"subtype": "noteOn"
			},
			{
				"deltaTime": 180,
				"channel": 1,
				"type": "channel",
				"subtype": "noteOff",
				"noteNumber": 48,
				"velocity": 64
			},
			{
				"deltaTime": 60,
				"channel": 1,
				"type": "channel",
				"noteNumber": 48,
				"velocity": 109,
				"subtype": "noteOn"
			},
			{
				"deltaTime": 180,
				"channel": 1,
				"type": "channel",
				"subtype": "noteOff",
				"noteNumber": 48,
				"velocity": 64
			},
			{
				"deltaTime": 60,
				"channel": 1,
				"type": "channel",
				"noteNumber": 50,
				"velocity": 124,
				"subtype": "noteOn"
			},
			{
				"deltaTime": 180,
				"channel": 1,
				"type": "channel",
				"subtype": "noteOff",
				"noteNumber": 50,
				"velocity": 64
			},
			{
				"deltaTime": 60,
				"channel": 1,
				"type": "channel",
				"noteNumber": 38,
				"velocity": 113,
				"subtype": "noteOn"
			},
			{
				"deltaTime": 180,
				"channel": 1,
				"type": "channel",
				"subtype": "noteOff",
				"noteNumber": 38,
				"velocity": 64
			},
			{
				"deltaTime": 60,
				"channel": 1,
				"type": "channel",
				"noteNumber": 50,
				"velocity": 114,
				"subtype": "noteOn"
			},
			{
				"deltaTime": 180,
				"channel": 1,
				"type": "channel",
				"subtype": "noteOff",
				"noteNumber": 50,
				"velocity": 64
			},
			{
				"deltaTime": 60,
				"channel": 1,
				"type": "channel",
				"noteNumber": 48,
				"velocity": 103,
				"subtype": "noteOn"
			},
			{
				"deltaTime": 180,
				"channel": 1,
				"type": "channel",
				"subtype": "noteOff",
				"noteNumber": 48,
				"velocity": 64
			},
			{
				"deltaTime": 60,
				"channel": 1,
				"type": "channel",
				"noteNumber": 50,
				"velocity": 114,
				"subtype": "noteOn"
			},
			{
				"deltaTime": 180,
				"channel": 1,
				"type": "channel",
				"subtype": "noteOff",
				"noteNumber": 50,
				"velocity": 64
			},
			{
				"deltaTime": 60,
				"channel": 1,
				"type": "channel",
				"noteNumber": 55,
				"velocity": 104,
				"subtype": "noteOn"
			},
			{
				"deltaTime": 180,
				"channel": 1,
				"type": "channel",
				"subtype": "noteOff",
				"noteNumber": 55,
				"velocity": 64
			},
			{
				"deltaTime": 60,
				"channel": 1,
				"type": "channel",
				"noteNumber": 48,
				"velocity": 111,
				"subtype": "noteOn"
			},
			{
				"deltaTime": 180,
				"channel": 1,
				"type": "channel",
				"subtype": "noteOff",
				"noteNumber": 48,
				"velocity": 64
			},
			{
				"deltaTime": 60,
				"channel": 1,
				"type": "channel",
				"noteNumber": 48,
				"velocity": 121,
				"subtype": "noteOn"
			},
			{
				"deltaTime": 180,
				"channel": 1,
				"type": "channel",
				"subtype": "noteOff",
				"noteNumber": 48,
				"velocity": 64
			},
			{
				"deltaTime": 60,
				"channel": 1,
				"type": "channel",
				"noteNumber": 45,
				"velocity": 114,
				"subtype": "noteOn"
			},
			{
				"deltaTime": 180,
				"channel": 1,
				"type": "channel",
				"subtype": "noteOff",
				"noteNumber": 45,
				"velocity": 64
			},
			{
				"deltaTime": 60,
				"channel": 1,
				"type": "channel",
				"noteNumber": 33,
				"velocity": 114,
				"subtype": "noteOn"
			},
			{
				"deltaTime": 180,
				"channel": 1,
				"type": "channel",
				"subtype": "noteOff",
				"noteNumber": 33,
				"velocity": 64
			},
			{
				"deltaTime": 60,
				"channel": 1,
				"type": "channel",
				"noteNumber": 45,
				"velocity": 110,
				"subtype": "noteOn"
			},
			{
				"deltaTime": 180,
				"channel": 1,
				"type": "channel",
				"subtype": "noteOff",
				"noteNumber": 45,
				"velocity": 64
			},
			{
				"deltaTime": 60,
				"channel": 1,
				"type": "channel",
				"noteNumber": 43,
				"velocity": 110,
				"subtype": "noteOn"
			},
			{
				"deltaTime": 180,
				"channel": 1,
				"type": "channel",
				"subtype": "noteOff",
				"noteNumber": 43,
				"velocity": 64
			},
			{
				"deltaTime": 60,
				"channel": 1,
				"type": "channel",
				"noteNumber": 45,
				"velocity": 114,
				"subtype": "noteOn"
			},
			{
				"deltaTime": 420,
				"channel": 1,
				"type": "channel",
				"subtype": "noteOff",
				"noteNumber": 45,
				"velocity": 64
			},
			{
				"deltaTime": 60,
				"channel": 1,
				"type": "channel",
				"noteNumber": 36,
				"velocity": 114,
				"subtype": "noteOn"
			},
			{
				"deltaTime": 180,
				"channel": 1,
				"type": "channel",
				"subtype": "noteOff",
				"noteNumber": 36,
				"velocity": 64
			},
			{
				"deltaTime": 60,
				"channel": 1,
				"type": "channel",
				"noteNumber": 36,
				"velocity": 117,
				"subtype": "noteOn"
			},
			{
				"deltaTime": 180,
				"channel": 1,
				"type": "channel",
				"subtype": "noteOff",
				"noteNumber": 36,
				"velocity": 64
			},
			{
				"deltaTime": 60,
				"channel": 1,
				"type": "channel",
				"noteNumber": 33,
				"velocity": 112,
				"subtype": "noteOn"
			},
			{
				"deltaTime": 420,
				"channel": 1,
				"type": "channel",
				"subtype": "noteOff",
				"noteNumber": 33,
				"velocity": 64
			},
			{
				"deltaTime": 60,
				"channel": 1,
				"type": "channel",
				"noteNumber": 45,
				"velocity": 104,
				"subtype": "noteOn"
			},
			{
				"deltaTime": 180,
				"channel": 1,
				"type": "channel",
				"subtype": "noteOff",
				"noteNumber": 45,
				"velocity": 64
			},
			{
				"deltaTime": 60,
				"channel": 1,
				"type": "channel",
				"noteNumber": 43,
				"velocity": 114,
				"subtype": "noteOn"
			},
			{
				"deltaTime": 180,
				"channel": 1,
				"type": "channel",
				"subtype": "noteOff",
				"noteNumber": 43,
				"velocity": 64
			},
			{
				"deltaTime": 60,
				"channel": 1,
				"type": "channel",
				"noteNumber": 45,
				"velocity": 110,
				"subtype": "noteOn"
			},
			{
				"deltaTime": 300,
				"channel": 1,
				"type": "channel",
				"subtype": "noteOff",
				"noteNumber": 45,
				"velocity": 64
			},
			{
				"deltaTime": 60,
				"channel": 1,
				"type": "channel",
				"noteNumber": 38,
				"velocity": 123,
				"subtype": "noteOn"
			},
			{
				"deltaTime": 90,
				"channel": 1,
				"type": "channel",
				"subtype": "noteOff",
				"noteNumber": 38,
				"velocity": 64
			},
			{
				"deltaTime": 30,
				"channel": 1,
				"type": "channel",
				"noteNumber": 38,
				"velocity": 123,
				"subtype": "noteOn"
			},
			{
				"deltaTime": 180,
				"channel": 1,
				"type": "channel",
				"subtype": "noteOff",
				"noteNumber": 38,
				"velocity": 64
			},
			{
				"deltaTime": 60,
				"channel": 1,
				"type": "channel",
				"noteNumber": 38,
				"velocity": 106,
				"subtype": "noteOn"
			},
			{
				"deltaTime": 180,
				"channel": 1,
				"type": "channel",
				"subtype": "noteOff",
				"noteNumber": 38,
				"velocity": 64
			},
			{
				"deltaTime": 60,
				"channel": 1,
				"type": "channel",
				"noteNumber": 40,
				"velocity": 108,
				"subtype": "noteOn"
			},
			{
				"deltaTime": 90,
				"channel": 1,
				"type": "channel",
				"subtype": "noteOff",
				"noteNumber": 40,
				"velocity": 64
			},
			{
				"deltaTime": 30,
				"channel": 1,
				"type": "channel",
				"noteNumber": 40,
				"velocity": 111,
				"subtype": "noteOn"
			},
			{
				"deltaTime": 90,
				"channel": 1,
				"type": "channel",
				"subtype": "noteOff",
				"noteNumber": 40,
				"velocity": 64
			},
			{
				"deltaTime": 30,
				"channel": 1,
				"type": "channel",
				"noteNumber": 40,
				"velocity": 115,
				"subtype": "noteOn"
			},
			{
				"deltaTime": 180,
				"channel": 1,
				"type": "channel",
				"subtype": "noteOff",
				"noteNumber": 40,
				"velocity": 64
			},
			{
				"deltaTime": 60,
				"channel": 1,
				"type": "channel",
				"noteNumber": 52,
				"velocity": 111,
				"subtype": "noteOn"
			},
			{
				"deltaTime": 90,
				"channel": 1,
				"type": "channel",
				"subtype": "noteOff",
				"noteNumber": 52,
				"velocity": 64
			},
			{
				"deltaTime": 30,
				"channel": 1,
				"type": "channel",
				"noteNumber": 50,
				"velocity": 115,
				"subtype": "noteOn"
			},
			{
				"deltaTime": 90,
				"channel": 1,
				"type": "channel",
				"subtype": "noteOff",
				"noteNumber": 50,
				"velocity": 64
			},
			{
				"deltaTime": 30,
				"channel": 1,
				"type": "channel",
				"noteNumber": 52,
				"velocity": 119,
				"subtype": "noteOn"
			},
			{
				"deltaTime": 90,
				"channel": 1,
				"type": "channel",
				"subtype": "noteOff",
				"noteNumber": 52,
				"velocity": 64
			},
			{
				"deltaTime": 30,
				"channel": 1,
				"type": "channel",
				"noteNumber": 50,
				"velocity": 114,
				"subtype": "noteOn"
			},
			{
				"deltaTime": 90,
				"channel": 1,
				"type": "channel",
				"subtype": "noteOff",
				"noteNumber": 50,
				"velocity": 64
			},
			{
				"deltaTime": 30,
				"channel": 1,
				"type": "channel",
				"noteNumber": 47,
				"velocity": 121,
				"subtype": "noteOn"
			},
			{
				"deltaTime": 180,
				"channel": 1,
				"type": "channel",
				"subtype": "noteOff",
				"noteNumber": 47,
				"velocity": 64
			},
			{
				"deltaTime": 60,
				"channel": 1,
				"type": "channel",
				"noteNumber": 45,
				"velocity": 114,
				"subtype": "noteOn"
			},
			{
				"deltaTime": 180,
				"channel": 1,
				"type": "channel",
				"subtype": "noteOff",
				"noteNumber": 45,
				"velocity": 64
			},
			{
				"deltaTime": 60,
				"channel": 1,
				"type": "channel",
				"noteNumber": 43,
				"velocity": 115,
				"subtype": "noteOn"
			},
			{
				"deltaTime": 180,
				"channel": 1,
				"type": "channel",
				"subtype": "noteOff",
				"noteNumber": 43,
				"velocity": 64
			},
			{
				"deltaTime": 60,
				"channel": 1,
				"type": "channel",
				"noteNumber": 40,
				"velocity": 114,
				"subtype": "noteOn"
			},
			{
				"deltaTime": 180,
				"channel": 1,
				"type": "channel",
				"subtype": "noteOff",
				"noteNumber": 40,
				"velocity": 64
			},
			{
				"deltaTime": 60,
				"channel": 1,
				"type": "channel",
				"noteNumber": 39,
				"velocity": 113,
				"subtype": "noteOn"
			},
			{
				"deltaTime": 180,
				"channel": 1,
				"type": "channel",
				"subtype": "noteOff",
				"noteNumber": 39,
				"velocity": 64
			},
			{
				"deltaTime": 60,
				"channel": 1,
				"type": "channel",
				"noteNumber": 38,
				"velocity": 114,
				"subtype": "noteOn"
			},
			{
				"deltaTime": 180,
				"channel": 1,
				"type": "channel",
				"subtype": "noteOff",
				"noteNumber": 38,
				"velocity": 64
			},
			{
				"deltaTime": 60,
				"channel": 1,
				"type": "channel",
				"noteNumber": 50,
				"velocity": 107,
				"subtype": "noteOn"
			},
			{
				"deltaTime": 90,
				"channel": 1,
				"type": "channel",
				"subtype": "noteOff",
				"noteNumber": 50,
				"velocity": 64
			},
			{
				"deltaTime": 30,
				"channel": 1,
				"type": "channel",
				"noteNumber": 48,
				"velocity": 109,
				"subtype": "noteOn"
			},
			{
				"deltaTime": 90,
				"channel": 1,
				"type": "channel",
				"subtype": "noteOff",
				"noteNumber": 48,
				"velocity": 64
			},
			{
				"deltaTime": 30,
				"channel": 1,
				"type": "channel",
				"noteNumber": 50,
				"velocity": 113,
				"subtype": "noteOn"
			},
			{
				"deltaTime": 90,
				"channel": 1,
				"type": "channel",
				"subtype": "noteOff",
				"noteNumber": 50,
				"velocity": 64
			},
			{
				"deltaTime": 30,
				"channel": 1,
				"type": "channel",
				"noteNumber": 48,
				"velocity": 122,
				"subtype": "noteOn"
			},
			{
				"deltaTime": 90,
				"channel": 1,
				"type": "channel",
				"subtype": "noteOff",
				"noteNumber": 48,
				"velocity": 64
			},
			{
				"deltaTime": 30,
				"channel": 1,
				"type": "channel",
				"noteNumber": 45,
				"velocity": 114,
				"subtype": "noteOn"
			},
			{
				"deltaTime": 180,
				"channel": 1,
				"type": "channel",
				"subtype": "noteOff",
				"noteNumber": 45,
				"velocity": 64
			},
			{
				"deltaTime": 60,
				"channel": 1,
				"type": "channel",
				"noteNumber": 43,
				"velocity": 115,
				"subtype": "noteOn"
			},
			{
				"deltaTime": 180,
				"channel": 1,
				"type": "channel",
				"subtype": "noteOff",
				"noteNumber": 43,
				"velocity": 64
			},
			{
				"deltaTime": 60,
				"channel": 1,
				"type": "channel",
				"noteNumber": 45,
				"velocity": 115,
				"subtype": "noteOn"
			},
			{
				"deltaTime": 90,
				"channel": 1,
				"type": "channel",
				"subtype": "noteOff",
				"noteNumber": 45,
				"velocity": 64
			},
			{
				"deltaTime": 30,
				"channel": 1,
				"type": "channel",
				"noteNumber": 38,
				"velocity": 113,
				"subtype": "noteOn"
			},
			{
				"deltaTime": 90,
				"channel": 1,
				"type": "channel",
				"subtype": "noteOff",
				"noteNumber": 38,
				"velocity": 64
			},
			{
				"deltaTime": 30,
				"channel": 1,
				"type": "channel",
				"noteNumber": 38,
				"velocity": 113,
				"subtype": "noteOn"
			},
			{
				"deltaTime": 180,
				"channel": 1,
				"type": "channel",
				"subtype": "noteOff",
				"noteNumber": 38,
				"velocity": 64
			},
			{
				"deltaTime": 60,
				"channel": 1,
				"type": "channel",
				"noteNumber": 36,
				"velocity": 116,
				"subtype": "noteOn"
			},
			{
				"deltaTime": 180,
				"channel": 1,
				"type": "channel",
				"subtype": "noteOff",
				"noteNumber": 36,
				"velocity": 64
			},
			{
				"deltaTime": 60,
				"channel": 1,
				"type": "channel",
				"noteNumber": 33,
				"velocity": 120,
				"subtype": "noteOn"
			},
			{
				"deltaTime": 180,
				"channel": 1,
				"type": "channel",
				"subtype": "noteOff",
				"noteNumber": 33,
				"velocity": 64
			},
			{
				"deltaTime": 60,
				"channel": 1,
				"type": "channel",
				"noteNumber": 45,
				"velocity": 124,
				"subtype": "noteOn"
			},
			{
				"deltaTime": 180,
				"channel": 1,
				"type": "channel",
				"subtype": "noteOff",
				"noteNumber": 45,
				"velocity": 64
			},
			{
				"deltaTime": 60,
				"channel": 1,
				"type": "channel",
				"noteNumber": 43,
				"velocity": 114,
				"subtype": "noteOn"
			},
			{
				"deltaTime": 180,
				"channel": 1,
				"type": "channel",
				"subtype": "noteOff",
				"noteNumber": 43,
				"velocity": 64
			},
			{
				"deltaTime": 60,
				"channel": 1,
				"type": "channel",
				"noteNumber": 45,
				"velocity": 118,
				"subtype": "noteOn"
			},
			{
				"deltaTime": 300,
				"channel": 1,
				"type": "channel",
				"subtype": "noteOff",
				"noteNumber": 45,
				"velocity": 64
			},
			{
				"deltaTime": 60,
				"channel": 1,
				"type": "channel",
				"noteNumber": 38,
				"velocity": 115,
				"subtype": "noteOn"
			},
			{
				"deltaTime": 90,
				"channel": 1,
				"type": "channel",
				"subtype": "noteOff",
				"noteNumber": 38,
				"velocity": 64
			},
			{
				"deltaTime": 30,
				"channel": 1,
				"type": "channel",
				"noteNumber": 36,
				"velocity": 108,
				"subtype": "noteOn"
			},
			{
				"deltaTime": 180,
				"channel": 1,
				"type": "channel",
				"subtype": "noteOff",
				"noteNumber": 36,
				"velocity": 64
			},
			{
				"deltaTime": 60,
				"channel": 1,
				"type": "channel",
				"noteNumber": 36,
				"velocity": 119,
				"subtype": "noteOn"
			},
			{
				"deltaTime": 180,
				"channel": 1,
				"type": "channel",
				"subtype": "noteOff",
				"noteNumber": 36,
				"velocity": 64
			},
			{
				"deltaTime": 60,
				"channel": 1,
				"type": "channel",
				"noteNumber": 36,
				"velocity": 115,
				"subtype": "noteOn"
			},
			{
				"deltaTime": 180,
				"channel": 1,
				"type": "channel",
				"subtype": "noteOff",
				"noteNumber": 36,
				"velocity": 64
			},
			{
				"deltaTime": 60,
				"channel": 1,
				"type": "channel",
				"noteNumber": 33,
				"velocity": 114,
				"subtype": "noteOn"
			},
			{
				"deltaTime": 900,
				"channel": 1,
				"type": "channel",
				"subtype": "noteOff",
				"noteNumber": 33,
				"velocity": 64
			},
			{
				"deltaTime": 60,
				"channel": 1,
				"type": "channel",
				"noteNumber": 28,
				"velocity": 118,
				"subtype": "noteOn"
			},
			{
				"deltaTime": 180,
				"channel": 1,
				"type": "channel",
				"subtype": "noteOff",
				"noteNumber": 28,
				"velocity": 64
			},
			{
				"deltaTime": 60,
				"channel": 1,
				"type": "channel",
				"noteNumber": 28,
				"velocity": 122,
				"subtype": "noteOn"
			},
			{
				"deltaTime": 180,
				"channel": 1,
				"type": "channel",
				"subtype": "noteOff",
				"noteNumber": 28,
				"velocity": 64
			},
			{
				"deltaTime": 60,
				"channel": 1,
				"type": "channel",
				"noteNumber": 28,
				"velocity": 115,
				"subtype": "noteOn"
			},
			{
				"deltaTime": 180,
				"channel": 1,
				"type": "channel",
				"subtype": "noteOff",
				"noteNumber": 28,
				"velocity": 64
			},
			{
				"deltaTime": 60,
				"channel": 1,
				"type": "channel",
				"noteNumber": 28,
				"velocity": 111,
				"subtype": "noteOn"
			},
			{
				"deltaTime": 180,
				"channel": 1,
				"type": "channel",
				"subtype": "noteOff",
				"noteNumber": 28,
				"velocity": 64
			},
			{
				"deltaTime": 60,
				"channel": 1,
				"type": "channel",
				"noteNumber": 57,
				"velocity": 111,
				"subtype": "noteOn"
			},
			{
				"deltaTime": 420,
				"channel": 1,
				"type": "channel",
				"subtype": "noteOff",
				"noteNumber": 57,
				"velocity": 64
			},
			{
				"deltaTime": 60,
				"channel": 1,
				"type": "channel",
				"noteNumber": 45,
				"velocity": 114,
				"subtype": "noteOn"
			},
			{
				"deltaTime": 420,
				"channel": 1,
				"type": "channel",
				"subtype": "noteOff",
				"noteNumber": 45,
				"velocity": 64
			},
			{
				"deltaTime": 60,
				"channel": 1,
				"type": "channel",
				"noteNumber": 33,
				"velocity": 117,
				"subtype": "noteOn"
			},
			{
				"deltaTime": 180,
				"channel": 1,
				"type": "channel",
				"subtype": "noteOff",
				"noteNumber": 33,
				"velocity": 64
			},
			{
				"deltaTime": 60,
				"channel": 1,
				"type": "channel",
				"noteNumber": 45,
				"velocity": 114,
				"subtype": "noteOn"
			},
			{
				"deltaTime": 180,
				"channel": 1,
				"type": "channel",
				"subtype": "noteOff",
				"noteNumber": 45,
				"velocity": 64
			},
			{
				"deltaTime": 60,
				"channel": 1,
				"type": "channel",
				"noteNumber": 36,
				"velocity": 107,
				"subtype": "noteOn"
			},
			{
				"deltaTime": 180,
				"channel": 1,
				"type": "channel",
				"subtype": "noteOff",
				"noteNumber": 36,
				"velocity": 64
			},
			{
				"deltaTime": 60,
				"channel": 1,
				"type": "channel",
				"noteNumber": 38,
				"velocity": 114,
				"subtype": "noteOn"
			},
			{
				"deltaTime": 420,
				"channel": 1,
				"type": "channel",
				"subtype": "noteOff",
				"noteNumber": 38,
				"velocity": 64
			},
			{
				"deltaTime": 60,
				"channel": 1,
				"type": "channel",
				"noteNumber": 50,
				"velocity": 116,
				"subtype": "noteOn"
			},
			{
				"deltaTime": 180,
				"channel": 1,
				"type": "channel",
				"subtype": "noteOff",
				"noteNumber": 50,
				"velocity": 64
			},
			{
				"deltaTime": 60,
				"channel": 1,
				"type": "channel",
				"noteNumber": 48,
				"velocity": 114,
				"subtype": "noteOn"
			},
			{
				"deltaTime": 180,
				"channel": 1,
				"type": "channel",
				"subtype": "noteOff",
				"noteNumber": 48,
				"velocity": 64
			},
			{
				"deltaTime": 60,
				"channel": 1,
				"type": "channel",
				"noteNumber": 45,
				"velocity": 114,
				"subtype": "noteOn"
			},
			{
				"deltaTime": 180,
				"channel": 1,
				"type": "channel",
				"subtype": "noteOff",
				"noteNumber": 45,
				"velocity": 64
			},
			{
				"deltaTime": 60,
				"channel": 1,
				"type": "channel",
				"noteNumber": 45,
				"velocity": 117,
				"subtype": "noteOn"
			},
			{
				"deltaTime": 90,
				"channel": 1,
				"type": "channel",
				"subtype": "noteOff",
				"noteNumber": 45,
				"velocity": 64
			},
			{
				"deltaTime": 30,
				"channel": 1,
				"type": "channel",
				"noteNumber": 50,
				"velocity": 114,
				"subtype": "noteOn"
			},
			{
				"deltaTime": 90,
				"channel": 1,
				"type": "channel",
				"subtype": "noteOff",
				"noteNumber": 50,
				"velocity": 64
			},
			{
				"deltaTime": 30,
				"channel": 1,
				"type": "channel",
				"noteNumber": 42,
				"velocity": 114,
				"subtype": "noteOn"
			},
			{
				"deltaTime": 180,
				"channel": 1,
				"type": "channel",
				"subtype": "noteOff",
				"noteNumber": 42,
				"velocity": 64
			},
			{
				"deltaTime": 60,
				"channel": 1,
				"type": "channel",
				"noteNumber": 44,
				"velocity": 112,
				"subtype": "noteOn"
			},
			{
				"deltaTime": 180,
				"channel": 1,
				"type": "channel",
				"subtype": "noteOff",
				"noteNumber": 44,
				"velocity": 64
			},
			{
				"deltaTime": 60,
				"channel": 1,
				"type": "channel",
				"noteNumber": 61,
				"velocity": 105,
				"subtype": "noteOn"
			},
			{
				"deltaTime": 180,
				"channel": 1,
				"type": "channel",
				"subtype": "noteOff",
				"noteNumber": 61,
				"velocity": 64
			},
			{
				"deltaTime": 60,
				"channel": 1,
				"type": "channel",
				"noteNumber": 45,
				"velocity": 104,
				"subtype": "noteOn"
			},
			{
				"deltaTime": 180,
				"channel": 1,
				"type": "channel",
				"subtype": "noteOff",
				"noteNumber": 45,
				"velocity": 64
			},
			{
				"deltaTime": 60,
				"channel": 1,
				"type": "channel",
				"noteNumber": 43,
				"velocity": 114,
				"subtype": "noteOn"
			},
			{
				"deltaTime": 180,
				"channel": 1,
				"type": "channel",
				"subtype": "noteOff",
				"noteNumber": 43,
				"velocity": 64
			},
			{
				"deltaTime": 60,
				"channel": 1,
				"type": "channel",
				"noteNumber": 45,
				"velocity": 115,
				"subtype": "noteOn"
			},
			{
				"deltaTime": 180,
				"channel": 1,
				"type": "channel",
				"subtype": "noteOff",
				"noteNumber": 45,
				"velocity": 64
			},
			{
				"deltaTime": 60,
				"channel": 1,
				"type": "channel",
				"noteNumber": 45,
				"velocity": 107,
				"subtype": "noteOn"
			},
			{
				"deltaTime": 90,
				"channel": 1,
				"type": "channel",
				"subtype": "noteOff",
				"noteNumber": 45,
				"velocity": 64
			},
			{
				"deltaTime": 30,
				"channel": 1,
				"type": "channel",
				"noteNumber": 43,
				"velocity": 113,
				"subtype": "noteOn"
			},
			{
				"deltaTime": 90,
				"channel": 1,
				"type": "channel",
				"subtype": "noteOff",
				"noteNumber": 43,
				"velocity": 64
			},
			{
				"deltaTime": 30,
				"channel": 1,
				"type": "channel",
				"noteNumber": 38,
				"velocity": 117,
				"subtype": "noteOn"
			},
			{
				"deltaTime": 180,
				"channel": 1,
				"type": "channel",
				"subtype": "noteOff",
				"noteNumber": 38,
				"velocity": 64
			},
			{
				"deltaTime": 60,
				"channel": 1,
				"type": "channel",
				"noteNumber": 40,
				"velocity": 119,
				"subtype": "noteOn"
			},
			{
				"deltaTime": 180,
				"channel": 1,
				"type": "channel",
				"subtype": "noteOff",
				"noteNumber": 40,
				"velocity": 64
			},
			{
				"deltaTime": 60,
				"channel": 1,
				"type": "channel",
				"noteNumber": 43,
				"velocity": 109,
				"subtype": "noteOn"
			},
			{
				"deltaTime": 180,
				"channel": 1,
				"type": "channel",
				"subtype": "noteOff",
				"noteNumber": 43,
				"velocity": 64
			},
			{
				"deltaTime": 60,
				"channel": 1,
				"type": "channel",
				"noteNumber": 45,
				"velocity": 111,
				"subtype": "noteOn"
			},
			{
				"deltaTime": 180,
				"channel": 1,
				"type": "channel",
				"subtype": "noteOff",
				"noteNumber": 45,
				"velocity": 64
			},
			{
				"deltaTime": 60,
				"channel": 1,
				"type": "channel",
				"noteNumber": 33,
				"velocity": 114,
				"subtype": "noteOn"
			},
			{
				"deltaTime": 180,
				"channel": 1,
				"type": "channel",
				"subtype": "noteOff",
				"noteNumber": 33,
				"velocity": 64
			},
			{
				"deltaTime": 60,
				"channel": 1,
				"type": "channel",
				"noteNumber": 45,
				"velocity": 112,
				"subtype": "noteOn"
			},
			{
				"deltaTime": 180,
				"channel": 1,
				"type": "channel",
				"subtype": "noteOff",
				"noteNumber": 45,
				"velocity": 64
			},
			{
				"deltaTime": 60,
				"channel": 1,
				"type": "channel",
				"noteNumber": 43,
				"velocity": 114,
				"subtype": "noteOn"
			},
			{
				"deltaTime": 180,
				"channel": 1,
				"type": "channel",
				"subtype": "noteOff",
				"noteNumber": 43,
				"velocity": 64
			},
			{
				"deltaTime": 60,
				"channel": 1,
				"type": "channel",
				"noteNumber": 45,
				"velocity": 114,
				"subtype": "noteOn"
			},
			{
				"deltaTime": 180,
				"channel": 1,
				"type": "channel",
				"subtype": "noteOff",
				"noteNumber": 45,
				"velocity": 64
			},
			{
				"deltaTime": 60,
				"channel": 1,
				"type": "channel",
				"noteNumber": 38,
				"velocity": 124,
				"subtype": "noteOn"
			},
			{
				"deltaTime": 180,
				"channel": 1,
				"type": "channel",
				"subtype": "noteOff",
				"noteNumber": 38,
				"velocity": 64
			},
			{
				"deltaTime": 60,
				"channel": 1,
				"type": "channel",
				"noteNumber": 36,
				"velocity": 114,
				"subtype": "noteOn"
			},
			{
				"deltaTime": 180,
				"channel": 1,
				"type": "channel",
				"subtype": "noteOff",
				"noteNumber": 36,
				"velocity": 64
			},
			{
				"deltaTime": 60,
				"channel": 1,
				"type": "channel",
				"noteNumber": 37,
				"velocity": 110,
				"subtype": "noteOn"
			},
			{
				"deltaTime": 180,
				"channel": 1,
				"type": "channel",
				"subtype": "noteOff",
				"noteNumber": 37,
				"velocity": 64
			},
			{
				"deltaTime": 60,
				"channel": 1,
				"type": "channel",
				"noteNumber": 38,
				"velocity": 115,
				"subtype": "noteOn"
			},
			{
				"deltaTime": 180,
				"channel": 1,
				"type": "channel",
				"subtype": "noteOff",
				"noteNumber": 38,
				"velocity": 64
			},
			{
				"deltaTime": 60,
				"channel": 1,
				"type": "channel",
				"noteNumber": 38,
				"velocity": 109,
				"subtype": "noteOn"
			},
			{
				"deltaTime": 180,
				"channel": 1,
				"type": "channel",
				"subtype": "noteOff",
				"noteNumber": 38,
				"velocity": 64
			},
			{
				"deltaTime": 60,
				"channel": 1,
				"type": "channel",
				"noteNumber": 30,
				"velocity": 116,
				"subtype": "noteOn"
			},
			{
				"deltaTime": 420,
				"channel": 1,
				"type": "channel",
				"subtype": "noteOff",
				"noteNumber": 30,
				"velocity": 64
			},
			{
				"deltaTime": 60,
				"channel": 1,
				"type": "channel",
				"noteNumber": 31,
				"velocity": 123,
				"subtype": "noteOn"
			},
			{
				"deltaTime": 420,
				"channel": 1,
				"type": "channel",
				"subtype": "noteOff",
				"noteNumber": 31,
				"velocity": 64
			},
			{
				"deltaTime": 60,
				"channel": 1,
				"type": "channel",
				"noteNumber": 32,
				"velocity": 111,
				"subtype": "noteOn"
			},
			{
				"deltaTime": 420,
				"channel": 1,
				"type": "channel",
				"subtype": "noteOff",
				"noteNumber": 32,
				"velocity": 64
			},
			{
				"deltaTime": 60,
				"channel": 1,
				"type": "channel",
				"noteNumber": 33,
				"velocity": 119,
				"subtype": "noteOn"
			},
			{
				"deltaTime": 180,
				"channel": 1,
				"type": "channel",
				"subtype": "noteOff",
				"noteNumber": 33,
				"velocity": 64
			},
			{
				"deltaTime": 60,
				"channel": 1,
				"type": "channel",
				"noteNumber": 38,
				"velocity": 114,
				"subtype": "noteOn"
			},
			{
				"deltaTime": 180,
				"channel": 1,
				"type": "channel",
				"subtype": "noteOff",
				"noteNumber": 38,
				"velocity": 64
			},
			{
				"deltaTime": 60,
				"channel": 1,
				"type": "channel",
				"noteNumber": 38,
				"velocity": 108,
				"subtype": "noteOn"
			},
			{
				"deltaTime": 180,
				"channel": 1,
				"type": "channel",
				"subtype": "noteOff",
				"noteNumber": 38,
				"velocity": 64
			},
			{
				"deltaTime": 60,
				"channel": 1,
				"type": "channel",
				"noteNumber": 39,
				"velocity": 114,
				"subtype": "noteOn"
			},
			{
				"deltaTime": 180,
				"channel": 1,
				"type": "channel",
				"subtype": "noteOff",
				"noteNumber": 39,
				"velocity": 64
			},
			{
				"deltaTime": 60,
				"channel": 1,
				"type": "channel",
				"noteNumber": 39,
				"velocity": 124,
				"subtype": "noteOn"
			},
			{
				"deltaTime": 180,
				"channel": 1,
				"type": "channel",
				"subtype": "noteOff",
				"noteNumber": 39,
				"velocity": 64
			},
			{
				"deltaTime": 60,
				"channel": 1,
				"type": "channel",
				"noteNumber": 40,
				"velocity": 113,
				"subtype": "noteOn"
			},
			{
				"deltaTime": 180,
				"channel": 1,
				"type": "channel",
				"subtype": "noteOff",
				"noteNumber": 40,
				"velocity": 64
			},
			{
				"deltaTime": 60,
				"channel": 1,
				"type": "channel",
				"noteNumber": 40,
				"velocity": 120,
				"subtype": "noteOn"
			},
			{
				"deltaTime": 180,
				"channel": 1,
				"type": "channel",
				"subtype": "noteOff",
				"noteNumber": 40,
				"velocity": 64
			},
			{
				"deltaTime": 60,
				"channel": 1,
				"type": "channel",
				"noteNumber": 43,
				"velocity": 118,
				"subtype": "noteOn"
			},
			{
				"deltaTime": 180,
				"channel": 1,
				"type": "channel",
				"subtype": "noteOff",
				"noteNumber": 43,
				"velocity": 64
			},
			{
				"deltaTime": 60,
				"channel": 1,
				"type": "channel",
				"noteNumber": 44,
				"velocity": 116,
				"subtype": "noteOn"
			},
			{
				"deltaTime": 180,
				"channel": 1,
				"type": "channel",
				"subtype": "noteOff",
				"noteNumber": 44,
				"velocity": 64
			},
			{
				"deltaTime": 60,
				"channel": 1,
				"type": "channel",
				"noteNumber": 45,
				"velocity": 124,
				"subtype": "noteOn"
			},
			{
				"deltaTime": 180,
				"channel": 1,
				"type": "channel",
				"subtype": "noteOff",
				"noteNumber": 45,
				"velocity": 64
			},
			{
				"deltaTime": 60,
				"channel": 1,
				"type": "channel",
				"noteNumber": 33,
				"velocity": 105,
				"subtype": "noteOn"
			},
			{
				"deltaTime": 180,
				"channel": 1,
				"type": "channel",
				"subtype": "noteOff",
				"noteNumber": 33,
				"velocity": 64
			},
			{
				"deltaTime": 60,
				"channel": 1,
				"type": "channel",
				"noteNumber": 37,
				"velocity": 116,
				"subtype": "noteOn"
			},
			{
				"deltaTime": 180,
				"channel": 1,
				"type": "channel",
				"subtype": "noteOff",
				"noteNumber": 37,
				"velocity": 64
			},
			{
				"deltaTime": 60,
				"channel": 1,
				"type": "channel",
				"noteNumber": 37,
				"velocity": 110,
				"subtype": "noteOn"
			},
			{
				"deltaTime": 180,
				"channel": 1,
				"type": "channel",
				"subtype": "noteOff",
				"noteNumber": 37,
				"velocity": 64
			},
			{
				"deltaTime": 60,
				"channel": 1,
				"type": "channel",
				"noteNumber": 38,
				"velocity": 114,
				"subtype": "noteOn"
			},
			{
				"deltaTime": 180,
				"channel": 1,
				"type": "channel",
				"subtype": "noteOff",
				"noteNumber": 38,
				"velocity": 64
			},
			{
				"deltaTime": 60,
				"channel": 1,
				"type": "channel",
				"noteNumber": 39,
				"velocity": 114,
				"subtype": "noteOn"
			},
			{
				"deltaTime": 180,
				"channel": 1,
				"type": "channel",
				"subtype": "noteOff",
				"noteNumber": 39,
				"velocity": 64
			},
			{
				"deltaTime": 60,
				"channel": 1,
				"type": "channel",
				"noteNumber": 40,
				"velocity": 113,
				"subtype": "noteOn"
			},
			{
				"deltaTime": 180,
				"channel": 1,
				"type": "channel",
				"subtype": "noteOff",
				"noteNumber": 40,
				"velocity": 64
			},
			{
				"deltaTime": 60,
				"channel": 1,
				"type": "channel",
				"noteNumber": 43,
				"velocity": 114,
				"subtype": "noteOn"
			},
			{
				"deltaTime": 180,
				"channel": 1,
				"type": "channel",
				"subtype": "noteOff",
				"noteNumber": 43,
				"velocity": 64
			},
			{
				"deltaTime": 60,
				"channel": 1,
				"type": "channel",
				"noteNumber": 45,
				"velocity": 107,
				"subtype": "noteOn"
			},
			{
				"deltaTime": 180,
				"channel": 1,
				"type": "channel",
				"subtype": "noteOff",
				"noteNumber": 45,
				"velocity": 64
			},
			{
				"deltaTime": 60,
				"channel": 1,
				"type": "channel",
				"noteNumber": 37,
				"velocity": 123,
				"subtype": "noteOn"
			},
			{
				"deltaTime": 180,
				"channel": 1,
				"type": "channel",
				"subtype": "noteOff",
				"noteNumber": 37,
				"velocity": 64
			},
			{
				"deltaTime": 60,
				"channel": 1,
				"type": "channel",
				"noteNumber": 37,
				"velocity": 114,
				"subtype": "noteOn"
			},
			{
				"deltaTime": 90,
				"channel": 1,
				"type": "channel",
				"subtype": "noteOff",
				"noteNumber": 37,
				"velocity": 64
			},
			{
				"deltaTime": 30,
				"channel": 1,
				"type": "channel",
				"noteNumber": 37,
				"velocity": 123,
				"subtype": "noteOn"
			},
			{
				"deltaTime": 90,
				"channel": 1,
				"type": "channel",
				"subtype": "noteOff",
				"noteNumber": 37,
				"velocity": 64
			},
			{
				"deltaTime": 30,
				"channel": 1,
				"type": "channel",
				"noteNumber": 38,
				"velocity": 114,
				"subtype": "noteOn"
			},
			{
				"deltaTime": 420,
				"channel": 1,
				"type": "channel",
				"subtype": "noteOff",
				"noteNumber": 38,
				"velocity": 64
			},
			{
				"deltaTime": 60,
				"channel": 1,
				"type": "channel",
				"noteNumber": 39,
				"velocity": 108,
				"subtype": "noteOn"
			},
			{
				"deltaTime": 180,
				"channel": 1,
				"type": "channel",
				"subtype": "noteOff",
				"noteNumber": 39,
				"velocity": 64
			},
			{
				"deltaTime": 60,
				"channel": 1,
				"type": "channel",
				"noteNumber": 39,
				"velocity": 124,
				"subtype": "noteOn"
			},
			{
				"deltaTime": 180,
				"channel": 1,
				"type": "channel",
				"subtype": "noteOff",
				"noteNumber": 39,
				"velocity": 64
			},
			{
				"deltaTime": 60,
				"channel": 1,
				"type": "channel",
				"noteNumber": 40,
				"velocity": 109,
				"subtype": "noteOn"
			},
			{
				"deltaTime": 180,
				"channel": 1,
				"type": "channel",
				"subtype": "noteOff",
				"noteNumber": 40,
				"velocity": 64
			},
			{
				"deltaTime": 60,
				"channel": 1,
				"type": "channel",
				"noteNumber": 40,
				"velocity": 108,
				"subtype": "noteOn"
			},
			{
				"deltaTime": 420,
				"channel": 1,
				"type": "channel",
				"subtype": "noteOff",
				"noteNumber": 40,
				"velocity": 64
			},
			{
				"deltaTime": 60,
				"channel": 1,
				"type": "channel",
				"noteNumber": 28,
				"velocity": 115,
				"subtype": "noteOn"
			},
			{
				"deltaTime": 420,
				"channel": 1,
				"type": "channel",
				"subtype": "noteOff",
				"noteNumber": 28,
				"velocity": 64
			},
			{
				"deltaTime": 60,
				"channel": 1,
				"type": "channel",
				"noteNumber": 28,
				"velocity": 115,
				"subtype": "noteOn"
			},
			{
				"deltaTime": 180,
				"channel": 1,
				"type": "channel",
				"subtype": "noteOff",
				"noteNumber": 28,
				"velocity": 64
			},
			{
				"deltaTime": 60,
				"channel": 1,
				"type": "channel",
				"noteNumber": 28,
				"velocity": 114,
				"subtype": "noteOn"
			},
			{
				"deltaTime": 180,
				"channel": 1,
				"type": "channel",
				"subtype": "noteOff",
				"noteNumber": 28,
				"velocity": 64
			},
			{
				"deltaTime": 60,
				"channel": 1,
				"type": "channel",
				"noteNumber": 28,
				"velocity": 104,
				"subtype": "noteOn"
			},
			{
				"deltaTime": 180,
				"channel": 1,
				"type": "channel",
				"subtype": "noteOff",
				"noteNumber": 28,
				"velocity": 64
			},
			{
				"deltaTime": 60,
				"channel": 1,
				"type": "channel",
				"noteNumber": 39,
				"velocity": 115,
				"subtype": "noteOn"
			},
			{
				"deltaTime": 180,
				"channel": 1,
				"type": "channel",
				"subtype": "noteOff",
				"noteNumber": 39,
				"velocity": 64
			},
			{
				"deltaTime": 60,
				"channel": 1,
				"type": "channel",
				"noteNumber": 38,
				"velocity": 115,
				"subtype": "noteOn"
			},
			{
				"deltaTime": 180,
				"channel": 1,
				"type": "channel",
				"subtype": "noteOff",
				"noteNumber": 38,
				"velocity": 64
			},
			{
				"deltaTime": 60,
				"channel": 1,
				"type": "channel",
				"noteNumber": 38,
				"velocity": 110,
				"subtype": "noteOn"
			},
			{
				"deltaTime": 180,
				"channel": 1,
				"type": "channel",
				"subtype": "noteOff",
				"noteNumber": 38,
				"velocity": 64
			},
			{
				"deltaTime": 60,
				"channel": 1,
				"type": "channel",
				"noteNumber": 42,
				"velocity": 120,
				"subtype": "noteOn"
			},
			{
				"deltaTime": 420,
				"channel": 1,
				"type": "channel",
				"subtype": "noteOff",
				"noteNumber": 42,
				"velocity": 64
			},
			{
				"deltaTime": 60,
				"channel": 1,
				"type": "channel",
				"noteNumber": 43,
				"velocity": 117,
				"subtype": "noteOn"
			},
			{
				"deltaTime": 420,
				"channel": 1,
				"type": "channel",
				"subtype": "noteOff",
				"noteNumber": 43,
				"velocity": 64
			},
			{
				"deltaTime": 60,
				"channel": 1,
				"type": "channel",
				"noteNumber": 44,
				"velocity": 109,
				"subtype": "noteOn"
			},
			{
				"deltaTime": 180,
				"channel": 1,
				"type": "channel",
				"subtype": "noteOff",
				"noteNumber": 44,
				"velocity": 64
			},
			{
				"deltaTime": 60,
				"channel": 1,
				"type": "channel",
				"noteNumber": 44,
				"velocity": 115,
				"subtype": "noteOn"
			},
			{
				"deltaTime": 180,
				"channel": 1,
				"type": "channel",
				"subtype": "noteOff",
				"noteNumber": 44,
				"velocity": 64
			},
			{
				"deltaTime": 60,
				"channel": 1,
				"type": "channel",
				"noteNumber": 45,
				"velocity": 120,
				"subtype": "noteOn"
			},
			{
				"deltaTime": 180,
				"channel": 1,
				"type": "channel",
				"subtype": "noteOff",
				"noteNumber": 45,
				"velocity": 64
			},
			{
				"deltaTime": 60,
				"channel": 1,
				"type": "channel",
				"noteNumber": 45,
				"velocity": 114,
				"subtype": "noteOn"
			},
			{
				"deltaTime": 90,
				"channel": 1,
				"type": "channel",
				"subtype": "noteOff",
				"noteNumber": 45,
				"velocity": 64
			},
			{
				"deltaTime": 30,
				"channel": 1,
				"type": "channel",
				"noteNumber": 43,
				"velocity": 115,
				"subtype": "noteOn"
			},
			{
				"deltaTime": 90,
				"channel": 1,
				"type": "channel",
				"subtype": "noteOff",
				"noteNumber": 43,
				"velocity": 64
			},
			{
				"deltaTime": 30,
				"channel": 1,
				"type": "channel",
				"noteNumber": 45,
				"velocity": 112,
				"subtype": "noteOn"
			},
			{
				"deltaTime": 90,
				"channel": 1,
				"type": "channel",
				"subtype": "noteOff",
				"noteNumber": 45,
				"velocity": 64
			},
			{
				"deltaTime": 30,
				"channel": 1,
				"type": "channel",
				"noteNumber": 43,
				"velocity": 114,
				"subtype": "noteOn"
			},
			{
				"deltaTime": 90,
				"channel": 1,
				"type": "channel",
				"subtype": "noteOff",
				"noteNumber": 43,
				"velocity": 64
			},
			{
				"deltaTime": 30,
				"channel": 1,
				"type": "channel",
				"noteNumber": 40,
				"velocity": 103,
				"subtype": "noteOn"
			},
			{
				"deltaTime": 180,
				"channel": 1,
				"type": "channel",
				"subtype": "noteOff",
				"noteNumber": 40,
				"velocity": 64
			},
			{
				"deltaTime": 60,
				"channel": 1,
				"type": "channel",
				"noteNumber": 38,
				"velocity": 115,
				"subtype": "noteOn"
			},
			{
				"deltaTime": 90,
				"channel": 1,
				"type": "channel",
				"subtype": "noteOff",
				"noteNumber": 38,
				"velocity": 64
			},
			{
				"deltaTime": 30,
				"channel": 1,
				"type": "channel",
				"noteNumber": 36,
				"velocity": 116,
				"subtype": "noteOn"
			},
			{
				"deltaTime": 90,
				"channel": 1,
				"type": "channel",
				"subtype": "noteOff",
				"noteNumber": 36,
				"velocity": 64
			},
			{
				"deltaTime": 30,
				"channel": 1,
				"type": "channel",
				"noteNumber": 33,
				"velocity": 118,
				"subtype": "noteOn"
			},
			{
				"deltaTime": 90,
				"channel": 1,
				"type": "channel",
				"subtype": "noteOff",
				"noteNumber": 33,
				"velocity": 64
			},
			{
				"deltaTime": 30,
				"channel": 1,
				"type": "channel",
				"noteNumber": 33,
				"velocity": 123,
				"subtype": "noteOn"
			},
			{
				"deltaTime": 90,
				"channel": 1,
				"type": "channel",
				"subtype": "noteOff",
				"noteNumber": 33,
				"velocity": 64
			},
			{
				"deltaTime": 30,
				"channel": 1,
				"type": "channel",
				"noteNumber": 36,
				"velocity": 103,
				"subtype": "noteOn"
			},
			{
				"deltaTime": 180,
				"channel": 1,
				"type": "channel",
				"subtype": "noteOff",
				"noteNumber": 36,
				"velocity": 64
			},
			{
				"deltaTime": 60,
				"channel": 1,
				"type": "channel",
				"noteNumber": 36,
				"velocity": 105,
				"subtype": "noteOn"
			},
			{
				"deltaTime": 90,
				"channel": 1,
				"type": "channel",
				"subtype": "noteOff",
				"noteNumber": 36,
				"velocity": 64
			},
			{
				"deltaTime": 30,
				"channel": 1,
				"type": "channel",
				"noteNumber": 33,
				"velocity": 114,
				"subtype": "noteOn"
			},
			{
				"deltaTime": 90,
				"channel": 1,
				"type": "channel",
				"subtype": "noteOff",
				"noteNumber": 33,
				"velocity": 64
			},
			{
				"deltaTime": 30,
				"channel": 1,
				"type": "channel",
				"noteNumber": 33,
				"velocity": 113,
				"subtype": "noteOn"
			},
			{
				"deltaTime": 90,
				"channel": 1,
				"type": "channel",
				"subtype": "noteOff",
				"noteNumber": 33,
				"velocity": 64
			},
			{
				"deltaTime": 30,
				"channel": 1,
				"type": "channel",
				"noteNumber": 32,
				"velocity": 113,
				"subtype": "noteOn"
			},
			{
				"deltaTime": 90,
				"channel": 1,
				"type": "channel",
				"subtype": "noteOff",
				"noteNumber": 32,
				"velocity": 64
			},
			{
				"deltaTime": 30,
				"channel": 1,
				"type": "channel",
				"noteNumber": 31,
				"velocity": 114,
				"subtype": "noteOn"
			},
			{
				"deltaTime": 180,
				"channel": 1,
				"type": "channel",
				"subtype": "noteOff",
				"noteNumber": 31,
				"velocity": 64
			},
			{
				"deltaTime": 60,
				"channel": 1,
				"type": "channel",
				"noteNumber": 28,
				"velocity": 107,
				"subtype": "noteOn"
			},
			{
				"deltaTime": 180,
				"channel": 1,
				"type": "channel",
				"subtype": "noteOff",
				"noteNumber": 28,
				"velocity": 64
			},
			{
				"deltaTime": 60,
				"channel": 1,
				"type": "channel",
				"noteNumber": 28,
				"velocity": 115,
				"subtype": "noteOn"
			},
			{
				"deltaTime": 180,
				"channel": 1,
				"type": "channel",
				"subtype": "noteOff",
				"noteNumber": 28,
				"velocity": 64
			},
			{
				"deltaTime": 60,
				"channel": 1,
				"type": "channel",
				"noteNumber": 28,
				"velocity": 118,
				"subtype": "noteOn"
			},
			{
				"deltaTime": 180,
				"channel": 1,
				"type": "channel",
				"subtype": "noteOff",
				"noteNumber": 28,
				"velocity": 64
			},
			{
				"deltaTime": 60,
				"channel": 1,
				"type": "channel",
				"noteNumber": 30,
				"velocity": 117,
				"subtype": "noteOn"
			},
			{
				"deltaTime": 180,
				"channel": 1,
				"type": "channel",
				"subtype": "noteOff",
				"noteNumber": 30,
				"velocity": 64
			},
			{
				"deltaTime": 60,
				"channel": 1,
				"type": "channel",
				"noteNumber": 31,
				"velocity": 105,
				"subtype": "noteOn"
			},
			{
				"deltaTime": 180,
				"channel": 1,
				"type": "channel",
				"subtype": "noteOff",
				"noteNumber": 31,
				"velocity": 64
			},
			{
				"deltaTime": 60,
				"channel": 1,
				"type": "channel",
				"noteNumber": 32,
				"velocity": 114,
				"subtype": "noteOn"
			},
			{
				"deltaTime": 180,
				"channel": 1,
				"type": "channel",
				"subtype": "noteOff",
				"noteNumber": 32,
				"velocity": 64
			},
			{
				"deltaTime": 60,
				"channel": 1,
				"type": "channel",
				"noteNumber": 33,
				"velocity": 111,
				"subtype": "noteOn"
			},
			{
				"deltaTime": 180,
				"channel": 1,
				"type": "channel",
				"subtype": "noteOff",
				"noteNumber": 33,
				"velocity": 64
			},
			{
				"deltaTime": 60,
				"channel": 1,
				"type": "channel",
				"noteNumber": 45,
				"velocity": 112,
				"subtype": "noteOn"
			},
			{
				"deltaTime": 180,
				"channel": 1,
				"type": "channel",
				"subtype": "noteOff",
				"noteNumber": 45,
				"velocity": 64
			},
			{
				"deltaTime": 60,
				"channel": 1,
				"type": "channel",
				"noteNumber": 43,
				"velocity": 120,
				"subtype": "noteOn"
			},
			{
				"deltaTime": 180,
				"channel": 1,
				"type": "channel",
				"subtype": "noteOff",
				"noteNumber": 43,
				"velocity": 64
			},
			{
				"deltaTime": 60,
				"channel": 1,
				"type": "channel",
				"noteNumber": 51,
				"velocity": 113,
				"subtype": "noteOn"
			},
			{
				"deltaTime": 420,
				"channel": 1,
				"type": "channel",
				"subtype": "noteOff",
				"noteNumber": 51,
				"velocity": 64
			},
			{
				"deltaTime": 60,
				"channel": 1,
				"type": "channel",
				"noteNumber": 50,
				"velocity": 123,
				"subtype": "noteOn"
			},
			{
				"deltaTime": 180,
				"channel": 1,
				"type": "channel",
				"subtype": "noteOff",
				"noteNumber": 50,
				"velocity": 64
			},
			{
				"deltaTime": 60,
				"channel": 1,
				"type": "channel",
				"noteNumber": 48,
				"velocity": 114,
				"subtype": "noteOn"
			},
			{
				"deltaTime": 180,
				"channel": 1,
				"type": "channel",
				"subtype": "noteOff",
				"noteNumber": 48,
				"velocity": 64
			},
			{
				"deltaTime": 60,
				"channel": 1,
				"type": "channel",
				"noteNumber": 45,
				"velocity": 114,
				"subtype": "noteOn"
			},
			{
				"deltaTime": 180,
				"channel": 1,
				"type": "channel",
				"subtype": "noteOff",
				"noteNumber": 45,
				"velocity": 64
			},
			{
				"deltaTime": 60,
				"channel": 1,
				"type": "channel",
				"noteNumber": 45,
				"velocity": 107,
				"subtype": "noteOn"
			},
			{
				"deltaTime": 90,
				"channel": 1,
				"type": "channel",
				"subtype": "noteOff",
				"noteNumber": 45,
				"velocity": 64
			},
			{
				"deltaTime": 30,
				"channel": 1,
				"type": "channel",
				"noteNumber": 38,
				"velocity": 110,
				"subtype": "noteOn"
			},
			{
				"deltaTime": 90,
				"channel": 1,
				"type": "channel",
				"subtype": "noteOff",
				"noteNumber": 38,
				"velocity": 64
			},
			{
				"deltaTime": 30,
				"channel": 1,
				"type": "channel",
				"noteNumber": 45,
				"velocity": 114,
				"subtype": "noteOn"
			},
			{
				"deltaTime": 180,
				"channel": 1,
				"type": "channel",
				"subtype": "noteOff",
				"noteNumber": 45,
				"velocity": 64
			},
			{
				"deltaTime": 60,
				"channel": 1,
				"type": "channel",
				"noteNumber": 43,
				"velocity": 118,
				"subtype": "noteOn"
			},
			{
				"deltaTime": 180,
				"channel": 1,
				"type": "channel",
				"subtype": "noteOff",
				"noteNumber": 43,
				"velocity": 64
			},
			{
				"deltaTime": 60,
				"channel": 1,
				"type": "channel",
				"noteNumber": 52,
				"velocity": 119,
				"subtype": "noteOn"
			},
			{
				"deltaTime": 420,
				"channel": 1,
				"type": "channel",
				"subtype": "noteOff",
				"noteNumber": 52,
				"velocity": 64
			},
			{
				"deltaTime": 60,
				"channel": 1,
				"type": "channel",
				"noteNumber": 50,
				"velocity": 124,
				"subtype": "noteOn"
			},
			{
				"deltaTime": 180,
				"channel": 1,
				"type": "channel",
				"subtype": "noteOff",
				"noteNumber": 50,
				"velocity": 64
			},
			{
				"deltaTime": 60,
				"channel": 1,
				"type": "channel",
				"noteNumber": 48,
				"velocity": 114,
				"subtype": "noteOn"
			},
			{
				"deltaTime": 180,
				"channel": 1,
				"type": "channel",
				"subtype": "noteOff",
				"noteNumber": 48,
				"velocity": 64
			},
			{
				"deltaTime": 60,
				"channel": 1,
				"type": "channel",
				"noteNumber": 45,
				"velocity": 118,
				"subtype": "noteOn"
			},
			{
				"deltaTime": 420,
				"channel": 1,
				"type": "channel",
				"subtype": "noteOff",
				"noteNumber": 45,
				"velocity": 64
			},
			{
				"deltaTime": 60,
				"channel": 1,
				"type": "channel",
				"noteNumber": 45,
				"velocity": 125,
				"subtype": "noteOn"
			},
			{
				"deltaTime": 180,
				"channel": 1,
				"type": "channel",
				"subtype": "noteOff",
				"noteNumber": 45,
				"velocity": 64
			},
			{
				"deltaTime": 60,
				"channel": 1,
				"type": "channel",
				"noteNumber": 43,
				"velocity": 114,
				"subtype": "noteOn"
			},
			{
				"deltaTime": 180,
				"channel": 1,
				"type": "channel",
				"subtype": "noteOff",
				"noteNumber": 43,
				"velocity": 64
			},
			{
				"deltaTime": 60,
				"channel": 1,
				"type": "channel",
				"noteNumber": 52,
				"velocity": 104,
				"subtype": "noteOn"
			},
			{
				"deltaTime": 420,
				"channel": 1,
				"type": "channel",
				"subtype": "noteOff",
				"noteNumber": 52,
				"velocity": 64
			},
			{
				"deltaTime": 60,
				"channel": 1,
				"type": "channel",
				"noteNumber": 50,
				"velocity": 119,
				"subtype": "noteOn"
			},
			{
				"deltaTime": 90,
				"channel": 1,
				"type": "channel",
				"subtype": "noteOff",
				"noteNumber": 50,
				"velocity": 64
			},
			{
				"deltaTime": 30,
				"channel": 1,
				"type": "channel",
				"noteNumber": 50,
				"velocity": 114,
				"subtype": "noteOn"
			},
			{
				"deltaTime": 90,
				"channel": 1,
				"type": "channel",
				"subtype": "noteOff",
				"noteNumber": 50,
				"velocity": 64
			},
			{
				"deltaTime": 30,
				"channel": 1,
				"type": "channel",
				"noteNumber": 48,
				"velocity": 119,
				"subtype": "noteOn"
			},
			{
				"deltaTime": 180,
				"channel": 1,
				"type": "channel",
				"subtype": "noteOff",
				"noteNumber": 48,
				"velocity": 64
			},
			{
				"deltaTime": 60,
				"channel": 1,
				"type": "channel",
				"noteNumber": 45,
				"velocity": 114,
				"subtype": "noteOn"
			},
			{
				"deltaTime": 180,
				"channel": 1,
				"type": "channel",
				"subtype": "noteOff",
				"noteNumber": 45,
				"velocity": 64
			},
			{
				"deltaTime": 60,
				"channel": 1,
				"type": "channel",
				"noteNumber": 45,
				"velocity": 120,
				"subtype": "noteOn"
			},
			{
				"deltaTime": 180,
				"channel": 1,
				"type": "channel",
				"subtype": "noteOff",
				"noteNumber": 45,
				"velocity": 64
			},
			{
				"deltaTime": 60,
				"channel": 1,
				"type": "channel",
				"noteNumber": 45,
				"velocity": 114,
				"subtype": "noteOn"
			},
			{
				"deltaTime": 90,
				"channel": 1,
				"type": "channel",
				"subtype": "noteOff",
				"noteNumber": 45,
				"velocity": 64
			},
			{
				"deltaTime": 30,
				"channel": 1,
				"type": "channel",
				"noteNumber": 43,
				"velocity": 115,
				"subtype": "noteOn"
			},
			{
				"deltaTime": 90,
				"channel": 1,
				"type": "channel",
				"subtype": "noteOff",
				"noteNumber": 43,
				"velocity": 64
			},
			{
				"deltaTime": 30,
				"channel": 1,
				"type": "channel",
				"noteNumber": 45,
				"velocity": 109,
				"subtype": "noteOn"
			},
			{
				"deltaTime": 90,
				"channel": 1,
				"type": "channel",
				"subtype": "noteOff",
				"noteNumber": 45,
				"velocity": 64
			},
			{
				"deltaTime": 30,
				"channel": 1,
				"type": "channel",
				"noteNumber": 43,
				"velocity": 125,
				"subtype": "noteOn"
			},
			{
				"deltaTime": 90,
				"channel": 1,
				"type": "channel",
				"subtype": "noteOff",
				"noteNumber": 43,
				"velocity": 64
			},
			{
				"deltaTime": 30,
				"channel": 1,
				"type": "channel",
				"noteNumber": 40,
				"velocity": 114,
				"subtype": "noteOn"
			},
			{
				"deltaTime": 180,
				"channel": 1,
				"type": "channel",
				"subtype": "noteOff",
				"noteNumber": 40,
				"velocity": 64
			},
			{
				"deltaTime": 60,
				"channel": 1,
				"type": "channel",
				"noteNumber": 38,
				"velocity": 124,
				"subtype": "noteOn"
			},
			{
				"deltaTime": 180,
				"channel": 1,
				"type": "channel",
				"subtype": "noteOff",
				"noteNumber": 38,
				"velocity": 64
			},
			{
				"deltaTime": 60,
				"channel": 1,
				"type": "channel",
				"noteNumber": 36,
				"velocity": 114,
				"subtype": "noteOn"
			},
			{
				"deltaTime": 90,
				"channel": 1,
				"type": "channel",
				"subtype": "noteOff",
				"noteNumber": 36,
				"velocity": 64
			},
			{
				"deltaTime": 30,
				"channel": 1,
				"type": "channel",
				"noteNumber": 33,
				"velocity": 105,
				"subtype": "noteOn"
			},
			{
				"deltaTime": 90,
				"channel": 1,
				"type": "channel",
				"subtype": "noteOff",
				"noteNumber": 33,
				"velocity": 64
			},
			{
				"deltaTime": 30,
				"channel": 1,
				"type": "channel",
				"noteNumber": 36,
				"velocity": 114,
				"subtype": "noteOn"
			},
			{
				"deltaTime": 180,
				"channel": 1,
				"type": "channel",
				"subtype": "noteOff",
				"noteNumber": 36,
				"velocity": 64
			},
			{
				"deltaTime": 60,
				"channel": 1,
				"type": "channel",
				"noteNumber": 37,
				"velocity": 105,
				"subtype": "noteOn"
			},
			{
				"deltaTime": 180,
				"channel": 1,
				"type": "channel",
				"subtype": "noteOff",
				"noteNumber": 37,
				"velocity": 64
			},
			{
				"deltaTime": 60,
				"channel": 1,
				"type": "channel",
				"noteNumber": 38,
				"velocity": 115,
				"subtype": "noteOn"
			},
			{
				"deltaTime": 180,
				"channel": 1,
				"type": "channel",
				"subtype": "noteOff",
				"noteNumber": 38,
				"velocity": 64
			},
			{
				"deltaTime": 60,
				"channel": 1,
				"type": "channel",
				"noteNumber": 50,
				"velocity": 113,
				"subtype": "noteOn"
			},
			{
				"deltaTime": 90,
				"channel": 1,
				"type": "channel",
				"subtype": "noteOff",
				"noteNumber": 50,
				"velocity": 64
			},
			{
				"deltaTime": 30,
				"channel": 1,
				"type": "channel",
				"noteNumber": 50,
				"velocity": 108,
				"subtype": "noteOn"
			},
			{
				"deltaTime": 90,
				"channel": 1,
				"type": "channel",
				"subtype": "noteOff",
				"noteNumber": 50,
				"velocity": 64
			},
			{
				"deltaTime": 150,
				"channel": 1,
				"type": "channel",
				"noteNumber": 50,
				"velocity": 113,
				"subtype": "noteOn"
			},
			{
				"deltaTime": 90,
				"channel": 1,
				"type": "channel",
				"subtype": "noteOff",
				"noteNumber": 50,
				"velocity": 64
			},
			{
				"deltaTime": 30,
				"channel": 1,
				"type": "channel",
				"noteNumber": 50,
				"velocity": 119,
				"subtype": "noteOn"
			},
			{
				"deltaTime": 90,
				"channel": 1,
				"type": "channel",
				"subtype": "noteOff",
				"noteNumber": 50,
				"velocity": 64
			},
			{
				"deltaTime": 150,
				"channel": 1,
				"type": "channel",
				"noteNumber": 50,
				"velocity": 121,
				"subtype": "noteOn"
			},
			{
				"deltaTime": 90,
				"channel": 1,
				"type": "channel",
				"subtype": "noteOff",
				"noteNumber": 50,
				"velocity": 64
			},
			{
				"deltaTime": 30,
				"channel": 1,
				"type": "channel",
				"noteNumber": 50,
				"velocity": 114,
				"subtype": "noteOn"
			},
			{
				"deltaTime": 90,
				"channel": 1,
				"type": "channel",
				"subtype": "noteOff",
				"noteNumber": 50,
				"velocity": 64
			},
			{
				"deltaTime": 150,
				"channel": 1,
				"type": "channel",
				"noteNumber": 50,
				"velocity": 115,
				"subtype": "noteOn"
			},
			{
				"deltaTime": 90,
				"channel": 1,
				"type": "channel",
				"subtype": "noteOff",
				"noteNumber": 50,
				"velocity": 64
			},
			{
				"deltaTime": 30,
				"channel": 1,
				"type": "channel",
				"noteNumber": 50,
				"velocity": 110,
				"subtype": "noteOn"
			},
			{
				"deltaTime": 90,
				"channel": 1,
				"type": "channel",
				"subtype": "noteOff",
				"noteNumber": 50,
				"velocity": 64
			},
			{
				"deltaTime": 150,
				"channel": 1,
				"type": "channel",
				"noteNumber": 50,
				"velocity": 113,
				"subtype": "noteOn"
			},
			{
				"deltaTime": 90,
				"channel": 1,
				"type": "channel",
				"subtype": "noteOff",
				"noteNumber": 50,
				"velocity": 64
			},
			{
				"deltaTime": 30,
				"channel": 1,
				"type": "channel",
				"noteNumber": 50,
				"velocity": 110,
				"subtype": "noteOn"
			},
			{
				"deltaTime": 90,
				"channel": 1,
				"type": "channel",
				"subtype": "noteOff",
				"noteNumber": 50,
				"velocity": 64
			},
			{
				"deltaTime": 150,
				"channel": 1,
				"type": "channel",
				"noteNumber": 50,
				"velocity": 121,
				"subtype": "noteOn"
			},
			{
				"deltaTime": 90,
				"channel": 1,
				"type": "channel",
				"subtype": "noteOff",
				"noteNumber": 50,
				"velocity": 64
			},
			{
				"deltaTime": 30,
				"channel": 1,
				"type": "channel",
				"noteNumber": 50,
				"velocity": 106,
				"subtype": "noteOn"
			},
			{
				"deltaTime": 90,
				"channel": 1,
				"type": "channel",
				"subtype": "noteOff",
				"noteNumber": 50,
				"velocity": 64
			},
			{
				"deltaTime": 150,
				"channel": 1,
				"type": "channel",
				"noteNumber": 50,
				"velocity": 113,
				"subtype": "noteOn"
			},
			{
				"deltaTime": 90,
				"channel": 1,
				"type": "channel",
				"subtype": "noteOff",
				"noteNumber": 50,
				"velocity": 64
			},
			{
				"deltaTime": 30,
				"channel": 1,
				"type": "channel",
				"noteNumber": 50,
				"velocity": 116,
				"subtype": "noteOn"
			},
			{
				"deltaTime": 90,
				"channel": 1,
				"type": "channel",
				"subtype": "noteOff",
				"noteNumber": 50,
				"velocity": 64
			},
			{
				"deltaTime": 150,
				"channel": 1,
				"type": "channel",
				"noteNumber": 50,
				"velocity": 114,
				"subtype": "noteOn"
			},
			{
				"deltaTime": 90,
				"channel": 1,
				"type": "channel",
				"subtype": "noteOff",
				"noteNumber": 50,
				"velocity": 64
			},
			{
				"deltaTime": 30,
				"channel": 1,
				"type": "channel",
				"noteNumber": 50,
				"velocity": 115,
				"subtype": "noteOn"
			},
			{
				"deltaTime": 90,
				"channel": 1,
				"type": "channel",
				"subtype": "noteOff",
				"noteNumber": 50,
				"velocity": 64
			},
			{
				"deltaTime": 150,
				"channel": 1,
				"type": "channel",
				"noteNumber": 50,
				"velocity": 114,
				"subtype": "noteOn"
			},
			{
				"deltaTime": 90,
				"channel": 1,
				"type": "channel",
				"subtype": "noteOff",
				"noteNumber": 50,
				"velocity": 64
			},
			{
				"deltaTime": 30,
				"channel": 1,
				"type": "channel",
				"noteNumber": 50,
				"velocity": 106,
				"subtype": "noteOn"
			},
			{
				"deltaTime": 90,
				"channel": 1,
				"type": "channel",
				"subtype": "noteOff",
				"noteNumber": 50,
				"velocity": 64
			},
			{
				"deltaTime": 150,
				"channel": 1,
				"type": "channel",
				"noteNumber": 50,
				"velocity": 117,
				"subtype": "noteOn"
			},
			{
				"deltaTime": 90,
				"channel": 1,
				"type": "channel",
				"subtype": "noteOff",
				"noteNumber": 50,
				"velocity": 64
			},
			{
				"deltaTime": 30,
				"channel": 1,
				"type": "channel",
				"noteNumber": 51,
				"velocity": 115,
				"subtype": "noteOn"
			},
			{
				"deltaTime": 180,
				"channel": 1,
				"type": "channel",
				"subtype": "noteOff",
				"noteNumber": 51,
				"velocity": 64
			},
			{
				"deltaTime": 60,
				"channel": 1,
				"type": "channel",
				"noteNumber": 52,
				"velocity": 105,
				"subtype": "noteOn"
			},
			{
				"deltaTime": 180,
				"channel": 1,
				"type": "channel",
				"subtype": "noteOff",
				"noteNumber": 52,
				"velocity": 64
			},
			{
				"deltaTime": 60,
				"channel": 1,
				"type": "channel",
				"noteNumber": 51,
				"velocity": 110,
				"subtype": "noteOn"
			},
			{
				"deltaTime": 180,
				"channel": 1,
				"type": "channel",
				"subtype": "noteOff",
				"noteNumber": 51,
				"velocity": 64
			},
			{
				"deltaTime": 60,
				"channel": 1,
				"type": "channel",
				"noteNumber": 50,
				"velocity": 118,
				"subtype": "noteOn"
			},
			{
				"deltaTime": 180,
				"channel": 1,
				"type": "channel",
				"subtype": "noteOff",
				"noteNumber": 50,
				"velocity": 64
			},
			{
				"deltaTime": 60,
				"channel": 1,
				"type": "channel",
				"noteNumber": 48,
				"velocity": 124,
				"subtype": "noteOn"
			},
			{
				"deltaTime": 180,
				"channel": 1,
				"type": "channel",
				"subtype": "noteOff",
				"noteNumber": 48,
				"velocity": 64
			},
			{
				"deltaTime": 60,
				"channel": 1,
				"type": "channel",
				"noteNumber": 45,
				"velocity": 115,
				"subtype": "noteOn"
			},
			{
				"deltaTime": 90,
				"channel": 1,
				"type": "channel",
				"subtype": "noteOff",
				"noteNumber": 45,
				"velocity": 64
			},
			{
				"deltaTime": 150,
				"channel": 1,
				"type": "channel",
				"noteNumber": 43,
				"velocity": 121,
				"subtype": "noteOn"
			},
			{
				"deltaTime": 90,
				"channel": 1,
				"type": "channel",
				"subtype": "noteOff",
				"noteNumber": 43,
				"velocity": 64
			},
			{
				"deltaTime": 30,
				"channel": 1,
				"type": "channel",
				"noteNumber": 45,
				"velocity": 118,
				"subtype": "noteOn"
			},
			{
				"deltaTime": 90,
				"channel": 1,
				"type": "channel",
				"subtype": "noteOff",
				"noteNumber": 45,
				"velocity": 64
			},
			{
				"deltaTime": 150,
				"channel": 1,
				"type": "channel",
				"noteNumber": 43,
				"velocity": 115,
				"subtype": "noteOn"
			},
			{
				"deltaTime": 90,
				"channel": 1,
				"type": "channel",
				"subtype": "noteOff",
				"noteNumber": 43,
				"velocity": 64
			},
			{
				"deltaTime": 30,
				"channel": 1,
				"type": "channel",
				"noteNumber": 40,
				"velocity": 119,
				"subtype": "noteOn"
			},
			{
				"deltaTime": 180,
				"channel": 1,
				"type": "channel",
				"subtype": "noteOff",
				"noteNumber": 40,
				"velocity": 64
			},
			{
				"deltaTime": 60,
				"channel": 1,
				"type": "channel",
				"noteNumber": 38,
				"velocity": 114,
				"subtype": "noteOn"
			},
			{
				"deltaTime": 180,
				"channel": 1,
				"type": "channel",
				"subtype": "noteOff",
				"noteNumber": 38,
				"velocity": 64
			},
			{
				"deltaTime": 60,
				"channel": 1,
				"type": "channel",
				"noteNumber": 37,
				"velocity": 113,
				"subtype": "noteOn"
			},
			{
				"deltaTime": 180,
				"channel": 1,
				"type": "channel",
				"subtype": "noteOff",
				"noteNumber": 37,
				"velocity": 64
			},
			{
				"deltaTime": 60,
				"channel": 1,
				"type": "channel",
				"noteNumber": 33,
				"velocity": 113,
				"subtype": "noteOn"
			},
			{
				"deltaTime": 180,
				"channel": 1,
				"type": "channel",
				"subtype": "noteOff",
				"noteNumber": 33,
				"velocity": 64
			},
			{
				"deltaTime": 60,
				"channel": 1,
				"type": "channel",
				"noteNumber": 31,
				"velocity": 112,
				"subtype": "noteOn"
			},
			{
				"deltaTime": 180,
				"channel": 1,
				"type": "channel",
				"subtype": "noteOff",
				"noteNumber": 31,
				"velocity": 64
			},
			{
				"deltaTime": 60,
				"channel": 1,
				"type": "channel",
				"noteNumber": 33,
				"velocity": 104,
				"subtype": "noteOn"
			},
			{
				"deltaTime": 180,
				"channel": 1,
				"type": "channel",
				"subtype": "noteOff",
				"noteNumber": 33,
				"velocity": 64
			},
			{
				"deltaTime": 60,
				"channel": 1,
				"type": "channel",
				"noteNumber": 38,
				"velocity": 113,
				"subtype": "noteOn"
			},
			{
				"deltaTime": 90,
				"channel": 1,
				"type": "channel",
				"subtype": "noteOff",
				"noteNumber": 38,
				"velocity": 64
			},
			{
				"deltaTime": 30,
				"channel": 1,
				"type": "channel",
				"noteNumber": 38,
				"velocity": 123,
				"subtype": "noteOn"
			},
			{
				"deltaTime": 90,
				"channel": 1,
				"type": "channel",
				"subtype": "noteOff",
				"noteNumber": 38,
				"velocity": 64
			},
			{
				"deltaTime": 30,
				"channel": 1,
				"type": "channel",
				"noteNumber": 36,
				"velocity": 110,
				"subtype": "noteOn"
			},
			{
				"deltaTime": 90,
				"channel": 1,
				"type": "channel",
				"subtype": "noteOff",
				"noteNumber": 36,
				"velocity": 64
			},
			{
				"deltaTime": 30,
				"channel": 1,
				"type": "channel",
				"noteNumber": 33,
				"velocity": 113,
				"subtype": "noteOn"
			},
			{
				"deltaTime": 90,
				"channel": 1,
				"type": "channel",
				"subtype": "noteOff",
				"noteNumber": 33,
				"velocity": 64
			},
			{
				"deltaTime": 30,
				"channel": 1,
				"type": "channel",
				"noteNumber": 38,
				"velocity": 114,
				"subtype": "noteOn"
			},
			{
				"deltaTime": 180,
				"channel": 1,
				"type": "channel",
				"subtype": "noteOff",
				"noteNumber": 38,
				"velocity": 64
			},
			{
				"deltaTime": 60,
				"channel": 1,
				"type": "channel",
				"noteNumber": 40,
				"velocity": 114,
				"subtype": "noteOn"
			},
			{
				"deltaTime": 180,
				"channel": 1,
				"type": "channel",
				"subtype": "noteOff",
				"noteNumber": 40,
				"velocity": 64
			},
			{
				"deltaTime": 60,
				"channel": 1,
				"type": "channel",
				"noteNumber": 52,
				"velocity": 109,
				"subtype": "noteOn"
			},
			{
				"deltaTime": 180,
				"channel": 1,
				"type": "channel",
				"subtype": "noteOff",
				"noteNumber": 52,
				"velocity": 64
			},
			{
				"deltaTime": 60,
				"channel": 1,
				"type": "channel",
				"noteNumber": 40,
				"velocity": 110,
				"subtype": "noteOn"
			},
			{
				"deltaTime": 180,
				"channel": 1,
				"type": "channel",
				"subtype": "noteOff",
				"noteNumber": 40,
				"velocity": 64
			},
			{
				"deltaTime": 60,
				"channel": 1,
				"type": "channel",
				"noteNumber": 52,
				"velocity": 120,
				"subtype": "noteOn"
			},
			{
				"deltaTime": 180,
				"channel": 1,
				"type": "channel",
				"subtype": "noteOff",
				"noteNumber": 52,
				"velocity": 64
			},
			{
				"deltaTime": 60,
				"channel": 1,
				"type": "channel",
				"noteNumber": 40,
				"velocity": 111,
				"subtype": "noteOn"
			},
			{
				"deltaTime": 180,
				"channel": 1,
				"type": "channel",
				"subtype": "noteOff",
				"noteNumber": 40,
				"velocity": 64
			},
			{
				"deltaTime": 60,
				"channel": 1,
				"type": "channel",
				"noteNumber": 40,
				"velocity": 121,
				"subtype": "noteOn"
			},
			{
				"deltaTime": 180,
				"channel": 1,
				"type": "channel",
				"subtype": "noteOff",
				"noteNumber": 40,
				"velocity": 64
			},
			{
				"deltaTime": 60,
				"channel": 1,
				"type": "channel",
				"noteNumber": 41,
				"velocity": 114,
				"subtype": "noteOn"
			},
			{
				"deltaTime": 180,
				"channel": 1,
				"type": "channel",
				"subtype": "noteOff",
				"noteNumber": 41,
				"velocity": 64
			},
			{
				"deltaTime": 60,
				"channel": 1,
				"type": "channel",
				"noteNumber": 42,
				"velocity": 119,
				"subtype": "noteOn"
			},
			{
				"deltaTime": 180,
				"channel": 1,
				"type": "channel",
				"subtype": "noteOff",
				"noteNumber": 42,
				"velocity": 64
			},
			{
				"deltaTime": 60,
				"channel": 1,
				"type": "channel",
				"noteNumber": 42,
				"velocity": 114,
				"subtype": "noteOn"
			},
			{
				"deltaTime": 180,
				"channel": 1,
				"type": "channel",
				"subtype": "noteOff",
				"noteNumber": 42,
				"velocity": 64
			},
			{
				"deltaTime": 60,
				"channel": 1,
				"type": "channel",
				"noteNumber": 54,
				"velocity": 114,
				"subtype": "noteOn"
			},
			{
				"deltaTime": 180,
				"channel": 1,
				"type": "channel",
				"subtype": "noteOff",
				"noteNumber": 54,
				"velocity": 64
			},
			{
				"deltaTime": 60,
				"channel": 1,
				"type": "channel",
				"noteNumber": 42,
				"velocity": 104,
				"subtype": "noteOn"
			},
			{
				"deltaTime": 180,
				"channel": 1,
				"type": "channel",
				"subtype": "noteOff",
				"noteNumber": 42,
				"velocity": 64
			},
			{
				"deltaTime": 60,
				"channel": 1,
				"type": "channel",
				"noteNumber": 54,
				"velocity": 120,
				"subtype": "noteOn"
			},
			{
				"deltaTime": 420,
				"channel": 1,
				"type": "channel",
				"subtype": "noteOff",
				"noteNumber": 54,
				"velocity": 64
			},
			{
				"deltaTime": 60,
				"channel": 1,
				"type": "channel",
				"noteNumber": 38,
				"velocity": 114,
				"subtype": "noteOn"
			},
			{
				"deltaTime": 180,
				"channel": 1,
				"type": "channel",
				"subtype": "noteOff",
				"noteNumber": 38,
				"velocity": 64
			},
			{
				"deltaTime": 60,
				"channel": 1,
				"type": "channel",
				"noteNumber": 36,
				"velocity": 121,
				"subtype": "noteOn"
			},
			{
				"deltaTime": 180,
				"channel": 1,
				"type": "channel",
				"subtype": "noteOff",
				"noteNumber": 36,
				"velocity": 64
			},
			{
				"deltaTime": 60,
				"channel": 1,
				"type": "channel",
				"noteNumber": 33,
				"velocity": 117,
				"subtype": "noteOn"
			},
			{
				"deltaTime": 180,
				"channel": 1,
				"type": "channel",
				"subtype": "noteOff",
				"noteNumber": 33,
				"velocity": 64
			},
			{
				"deltaTime": 60,
				"channel": 1,
				"type": "channel",
				"noteNumber": 33,
				"velocity": 108,
				"subtype": "noteOn"
			},
			{
				"deltaTime": 180,
				"channel": 1,
				"type": "channel",
				"subtype": "noteOff",
				"noteNumber": 33,
				"velocity": 64
			},
			{
				"deltaTime": 60,
				"channel": 1,
				"type": "channel",
				"noteNumber": 45,
				"velocity": 114,
				"subtype": "noteOn"
			},
			{
				"deltaTime": 180,
				"channel": 1,
				"type": "channel",
				"subtype": "noteOff",
				"noteNumber": 45,
				"velocity": 64
			},
			{
				"deltaTime": 60,
				"channel": 1,
				"type": "channel",
				"noteNumber": 43,
				"velocity": 124,
				"subtype": "noteOn"
			},
			{
				"deltaTime": 180,
				"channel": 1,
				"type": "channel",
				"subtype": "noteOff",
				"noteNumber": 43,
				"velocity": 64
			},
			{
				"deltaTime": 60,
				"channel": 1,
				"type": "channel",
				"noteNumber": 45,
				"velocity": 115,
				"subtype": "noteOn"
			},
			{
				"deltaTime": 180,
				"channel": 1,
				"type": "channel",
				"subtype": "noteOff",
				"noteNumber": 45,
				"velocity": 64
			},
			{
				"deltaTime": 60,
				"channel": 1,
				"type": "channel",
				"noteNumber": 45,
				"velocity": 121,
				"subtype": "noteOn"
			},
			{
				"deltaTime": 90,
				"channel": 1,
				"type": "channel",
				"subtype": "noteOff",
				"noteNumber": 45,
				"velocity": 64
			},
			{
				"deltaTime": 30,
				"channel": 1,
				"type": "channel",
				"noteNumber": 43,
				"velocity": 117,
				"subtype": "noteOn"
			},
			{
				"deltaTime": 90,
				"channel": 1,
				"type": "channel",
				"subtype": "noteOff",
				"noteNumber": 43,
				"velocity": 64
			},
			{
				"deltaTime": 30,
				"channel": 1,
				"type": "channel",
				"noteNumber": 36,
				"velocity": 109,
				"subtype": "noteOn"
			},
			{
				"deltaTime": 180,
				"channel": 1,
				"type": "channel",
				"subtype": "noteOff",
				"noteNumber": 36,
				"velocity": 64
			},
			{
				"deltaTime": 60,
				"channel": 1,
				"type": "channel",
				"noteNumber": 37,
				"velocity": 114,
				"subtype": "noteOn"
			},
			{
				"deltaTime": 180,
				"channel": 1,
				"type": "channel",
				"subtype": "noteOff",
				"noteNumber": 37,
				"velocity": 64
			},
			{
				"deltaTime": 60,
				"channel": 1,
				"type": "channel",
				"noteNumber": 33,
				"velocity": 111,
				"subtype": "noteOn"
			},
			{
				"deltaTime": 180,
				"channel": 1,
				"type": "channel",
				"subtype": "noteOff",
				"noteNumber": 33,
				"velocity": 64
			},
			{
				"deltaTime": 60,
				"channel": 1,
				"type": "channel",
				"noteNumber": 33,
				"velocity": 114,
				"subtype": "noteOn"
			},
			{
				"deltaTime": 180,
				"channel": 1,
				"type": "channel",
				"subtype": "noteOff",
				"noteNumber": 33,
				"velocity": 64
			},
			{
				"deltaTime": 60,
				"channel": 1,
				"type": "channel",
				"noteNumber": 45,
				"velocity": 117,
				"subtype": "noteOn"
			},
			{
				"deltaTime": 180,
				"channel": 1,
				"type": "channel",
				"subtype": "noteOff",
				"noteNumber": 45,
				"velocity": 64
			},
			{
				"deltaTime": 60,
				"channel": 1,
				"type": "channel",
				"noteNumber": 43,
				"velocity": 112,
				"subtype": "noteOn"
			},
			{
				"deltaTime": 180,
				"channel": 1,
				"type": "channel",
				"subtype": "noteOff",
				"noteNumber": 43,
				"velocity": 64
			},
			{
				"deltaTime": 60,
				"channel": 1,
				"type": "channel",
				"noteNumber": 45,
				"velocity": 116,
				"subtype": "noteOn"
			},
			{
				"deltaTime": 300,
				"channel": 1,
				"type": "channel",
				"subtype": "noteOff",
				"noteNumber": 45,
				"velocity": 64
			},
			{
				"deltaTime": 60,
				"channel": 1,
				"type": "channel",
				"noteNumber": 38,
				"velocity": 115,
				"subtype": "noteOn"
			},
			{
				"deltaTime": 90,
				"channel": 1,
				"type": "channel",
				"subtype": "noteOff",
				"noteNumber": 38,
				"velocity": 64
			},
			{
				"deltaTime": 30,
				"channel": 1,
				"type": "channel",
				"noteNumber": 36,
				"velocity": 119,
				"subtype": "noteOn"
			},
			{
				"deltaTime": 180,
				"channel": 1,
				"type": "channel",
				"subtype": "noteOff",
				"noteNumber": 36,
				"velocity": 64
			},
			{
				"deltaTime": 60,
				"channel": 1,
				"type": "channel",
				"noteNumber": 36,
				"velocity": 105,
				"subtype": "noteOn"
			},
			{
				"deltaTime": 180,
				"channel": 1,
				"type": "channel",
				"subtype": "noteOff",
				"noteNumber": 36,
				"velocity": 64
			},
			{
				"deltaTime": 60,
				"channel": 1,
				"type": "channel",
				"noteNumber": 34,
				"velocity": 108,
				"subtype": "noteOn"
			},
			{
				"deltaTime": 180,
				"channel": 1,
				"type": "channel",
				"subtype": "noteOff",
				"noteNumber": 34,
				"velocity": 64
			},
			{
				"deltaTime": 60,
				"channel": 1,
				"type": "channel",
				"noteNumber": 33,
				"velocity": 104,
				"subtype": "noteOn"
			},
			{
				"deltaTime": 180,
				"channel": 1,
				"type": "channel",
				"subtype": "noteOff",
				"noteNumber": 33,
				"velocity": 64
			},
			{
				"deltaTime": 60,
				"channel": 1,
				"type": "channel",
				"noteNumber": 45,
				"velocity": 114,
				"subtype": "noteOn"
			},
			{
				"deltaTime": 180,
				"channel": 1,
				"type": "channel",
				"subtype": "noteOff",
				"noteNumber": 45,
				"velocity": 64
			},
			{
				"deltaTime": 60,
				"channel": 1,
				"type": "channel",
				"noteNumber": 43,
				"velocity": 114,
				"subtype": "noteOn"
			},
			{
				"deltaTime": 180,
				"channel": 1,
				"type": "channel",
				"subtype": "noteOff",
				"noteNumber": 43,
				"velocity": 64
			},
			{
				"deltaTime": 60,
				"channel": 1,
				"type": "channel",
				"noteNumber": 45,
				"velocity": 115,
				"subtype": "noteOn"
			},
			{
				"deltaTime": 180,
				"channel": 1,
				"type": "channel",
				"subtype": "noteOff",
				"noteNumber": 45,
				"velocity": 64
			},
			{
				"deltaTime": 540,
				"channel": 1,
				"type": "channel",
				"noteNumber": 36,
				"velocity": 117,
				"subtype": "noteOn"
			},
			{
				"deltaTime": 180,
				"channel": 1,
				"type": "channel",
				"subtype": "noteOff",
				"noteNumber": 36,
				"velocity": 64
			},
			{
				"deltaTime": 60,
				"channel": 1,
				"type": "channel",
				"noteNumber": 38,
				"velocity": 111,
				"subtype": "noteOn"
			},
			{
				"deltaTime": 180,
				"channel": 1,
				"type": "channel",
				"subtype": "noteOff",
				"noteNumber": 38,
				"velocity": 64
			},
			{
				"deltaTime": 60,
				"channel": 1,
				"type": "channel",
				"noteNumber": 38,
				"velocity": 114,
				"subtype": "noteOn"
			},
			{
				"deltaTime": 180,
				"channel": 1,
				"type": "channel",
				"subtype": "noteOff",
				"noteNumber": 38,
				"velocity": 64
			},
			{
				"deltaTime": 60,
				"channel": 1,
				"type": "channel",
				"noteNumber": 50,
				"velocity": 116,
				"subtype": "noteOn"
			},
			{
				"deltaTime": 180,
				"channel": 1,
				"type": "channel",
				"subtype": "noteOff",
				"noteNumber": 50,
				"velocity": 64
			},
			{
				"deltaTime": 60,
				"channel": 1,
				"type": "channel",
				"noteNumber": 48,
				"velocity": 122,
				"subtype": "noteOn"
			},
			{
				"deltaTime": 180,
				"channel": 1,
				"type": "channel",
				"subtype": "noteOff",
				"noteNumber": 48,
				"velocity": 64
			},
			{
				"deltaTime": 60,
				"channel": 1,
				"type": "channel",
				"noteNumber": 50,
				"velocity": 114,
				"subtype": "noteOn"
			},
			{
				"deltaTime": 180,
				"channel": 1,
				"type": "channel",
				"subtype": "noteOff",
				"noteNumber": 50,
				"velocity": 64
			},
			{
				"deltaTime": 60,
				"channel": 1,
				"type": "channel",
				"noteNumber": 50,
				"velocity": 112,
				"subtype": "noteOn"
			},
			{
				"deltaTime": 90,
				"channel": 1,
				"type": "channel",
				"subtype": "noteOff",
				"noteNumber": 50,
				"velocity": 64
			},
			{
				"deltaTime": 30,
				"channel": 1,
				"type": "channel",
				"noteNumber": 43,
				"velocity": 114,
				"subtype": "noteOn"
			},
			{
				"deltaTime": 90,
				"channel": 1,
				"type": "channel",
				"subtype": "noteOff",
				"noteNumber": 43,
				"velocity": 64
			},
			{
				"deltaTime": 30,
				"channel": 1,
				"type": "channel",
				"noteNumber": 41,
				"velocity": 114,
				"subtype": "noteOn"
			},
			{
				"deltaTime": 180,
				"channel": 1,
				"type": "channel",
				"subtype": "noteOff",
				"noteNumber": 41,
				"velocity": 64
			},
			{
				"deltaTime": 60,
				"channel": 1,
				"type": "channel",
				"noteNumber": 41,
				"velocity": 112,
				"subtype": "noteOn"
			},
			{
				"deltaTime": 90,
				"channel": 1,
				"type": "channel",
				"subtype": "noteOff",
				"noteNumber": 41,
				"velocity": 64
			},
			{
				"deltaTime": 30,
				"channel": 1,
				"type": "channel",
				"noteNumber": 36,
				"velocity": 112,
				"subtype": "noteOn"
			},
			{
				"deltaTime": 90,
				"channel": 1,
				"type": "channel",
				"subtype": "noteOff",
				"noteNumber": 36,
				"velocity": 64
			},
			{
				"deltaTime": 30,
				"channel": 1,
				"type": "channel",
				"noteNumber": 33,
				"velocity": 115,
				"subtype": "noteOn"
			},
			{
				"deltaTime": 180,
				"channel": 1,
				"type": "channel",
				"subtype": "noteOff",
				"noteNumber": 33,
				"velocity": 64
			},
			{
				"deltaTime": 60,
				"channel": 1,
				"type": "channel",
				"noteNumber": 33,
				"velocity": 107,
				"subtype": "noteOn"
			},
			{
				"deltaTime": 180,
				"channel": 1,
				"type": "channel",
				"subtype": "noteOff",
				"noteNumber": 33,
				"velocity": 64
			},
			{
				"deltaTime": 60,
				"channel": 1,
				"type": "channel",
				"noteNumber": 45,
				"velocity": 114,
				"subtype": "noteOn"
			},
			{
				"deltaTime": 180,
				"channel": 1,
				"type": "channel",
				"subtype": "noteOff",
				"noteNumber": 45,
				"velocity": 64
			},
			{
				"deltaTime": 60,
				"channel": 1,
				"type": "channel",
				"noteNumber": 43,
				"velocity": 113,
				"subtype": "noteOn"
			},
			{
				"deltaTime": 180,
				"channel": 1,
				"type": "channel",
				"subtype": "noteOff",
				"noteNumber": 43,
				"velocity": 64
			},
			{
				"deltaTime": 60,
				"channel": 1,
				"type": "channel",
				"noteNumber": 45,
				"velocity": 107,
				"subtype": "noteOn"
			},
			{
				"deltaTime": 300,
				"channel": 1,
				"type": "channel",
				"subtype": "noteOff",
				"noteNumber": 45,
				"velocity": 64
			},
			{
				"deltaTime": 60,
				"channel": 1,
				"type": "channel",
				"noteNumber": 43,
				"velocity": 109,
				"subtype": "noteOn"
			},
			{
				"deltaTime": 90,
				"channel": 1,
				"type": "channel",
				"subtype": "noteOff",
				"noteNumber": 43,
				"velocity": 64
			},
			{
				"deltaTime": 30,
				"channel": 1,
				"type": "channel",
				"noteNumber": 45,
				"velocity": 119,
				"subtype": "noteOn"
			},
			{
				"deltaTime": 180,
				"channel": 1,
				"type": "channel",
				"subtype": "noteOff",
				"noteNumber": 45,
				"velocity": 64
			},
			{
				"deltaTime": 60,
				"channel": 1,
				"type": "channel",
				"noteNumber": 43,
				"velocity": 114,
				"subtype": "noteOn"
			},
			{
				"deltaTime": 180,
				"channel": 1,
				"type": "channel",
				"subtype": "noteOff",
				"noteNumber": 43,
				"velocity": 64
			},
			{
				"deltaTime": 60,
				"channel": 1,
				"type": "channel",
				"noteNumber": 37,
				"velocity": 114,
				"subtype": "noteOn"
			},
			{
				"deltaTime": 180,
				"channel": 1,
				"type": "channel",
				"subtype": "noteOff",
				"noteNumber": 37,
				"velocity": 64
			},
			{
				"deltaTime": 60,
				"channel": 1,
				"type": "channel",
				"noteNumber": 33,
				"velocity": 115,
				"subtype": "noteOn"
			},
			{
				"deltaTime": 180,
				"channel": 1,
				"type": "channel",
				"subtype": "noteOff",
				"noteNumber": 33,
				"velocity": 64
			},
			{
				"deltaTime": 60,
				"channel": 1,
				"type": "channel",
				"noteNumber": 45,
				"velocity": 114,
				"subtype": "noteOn"
			},
			{
				"deltaTime": 180,
				"channel": 1,
				"type": "channel",
				"subtype": "noteOff",
				"noteNumber": 45,
				"velocity": 64
			},
			{
				"deltaTime": 60,
				"channel": 1,
				"type": "channel",
				"noteNumber": 43,
				"velocity": 113,
				"subtype": "noteOn"
			},
			{
				"deltaTime": 180,
				"channel": 1,
				"type": "channel",
				"subtype": "noteOff",
				"noteNumber": 43,
				"velocity": 64
			},
			{
				"deltaTime": 60,
				"channel": 1,
				"type": "channel",
				"noteNumber": 45,
				"velocity": 114,
				"subtype": "noteOn"
			},
			{
				"deltaTime": 300,
				"channel": 1,
				"type": "channel",
				"subtype": "noteOff",
				"noteNumber": 45,
				"velocity": 64
			},
			{
				"deltaTime": 60,
				"channel": 1,
				"type": "channel",
				"noteNumber": 43,
				"velocity": 114,
				"subtype": "noteOn"
			},
			{
				"deltaTime": 90,
				"channel": 1,
				"type": "channel",
				"subtype": "noteOff",
				"noteNumber": 43,
				"velocity": 64
			},
			{
				"deltaTime": 30,
				"channel": 1,
				"type": "channel",
				"noteNumber": 45,
				"velocity": 112,
				"subtype": "noteOn"
			},
			{
				"deltaTime": 180,
				"channel": 1,
				"type": "channel",
				"subtype": "noteOff",
				"noteNumber": 45,
				"velocity": 64
			},
			{
				"deltaTime": 60,
				"channel": 1,
				"type": "channel",
				"noteNumber": 43,
				"velocity": 109,
				"subtype": "noteOn"
			},
			{
				"deltaTime": 180,
				"channel": 1,
				"type": "channel",
				"subtype": "noteOff",
				"noteNumber": 43,
				"velocity": 64
			},
			{
				"deltaTime": 60,
				"channel": 1,
				"type": "channel",
				"noteNumber": 36,
				"velocity": 111,
				"subtype": "noteOn"
			},
			{
				"deltaTime": 180,
				"channel": 1,
				"type": "channel",
				"subtype": "noteOff",
				"noteNumber": 36,
				"velocity": 64
			},
			{
				"deltaTime": 60,
				"channel": 1,
				"type": "channel",
				"noteNumber": 38,
				"velocity": 112,
				"subtype": "noteOn"
			},
			{
				"deltaTime": 180,
				"channel": 1,
				"type": "channel",
				"subtype": "noteOff",
				"noteNumber": 38,
				"velocity": 64
			},
			{
				"deltaTime": 60,
				"channel": 1,
				"type": "channel",
				"noteNumber": 50,
				"velocity": 104,
				"subtype": "noteOn"
			},
			{
				"deltaTime": 180,
				"channel": 1,
				"type": "channel",
				"subtype": "noteOff",
				"noteNumber": 50,
				"velocity": 64
			},
			{
				"deltaTime": 60,
				"channel": 1,
				"type": "channel",
				"noteNumber": 48,
				"velocity": 116,
				"subtype": "noteOn"
			},
			{
				"deltaTime": 180,
				"channel": 1,
				"type": "channel",
				"subtype": "noteOff",
				"noteNumber": 48,
				"velocity": 64
			},
			{
				"deltaTime": 60,
				"channel": 1,
				"type": "channel",
				"noteNumber": 50,
				"velocity": 107,
				"subtype": "noteOn"
			},
			{
				"deltaTime": 300,
				"channel": 1,
				"type": "channel",
				"subtype": "noteOff",
				"noteNumber": 50,
				"velocity": 64
			},
			{
				"deltaTime": 60,
				"channel": 1,
				"type": "channel",
				"noteNumber": 43,
				"velocity": 114,
				"subtype": "noteOn"
			},
			{
				"deltaTime": 90,
				"channel": 1,
				"type": "channel",
				"subtype": "noteOff",
				"noteNumber": 43,
				"velocity": 64
			},
			{
				"deltaTime": 30,
				"channel": 1,
				"type": "channel",
				"noteNumber": 41,
				"velocity": 110,
				"subtype": "noteOn"
			},
			{
				"deltaTime": 180,
				"channel": 1,
				"type": "channel",
				"subtype": "noteOff",
				"noteNumber": 41,
				"velocity": 64
			},
			{
				"deltaTime": 60,
				"channel": 1,
				"type": "channel",
				"noteNumber": 41,
				"velocity": 114,
				"subtype": "noteOn"
			},
			{
				"deltaTime": 90,
				"channel": 1,
				"type": "channel",
				"subtype": "noteOff",
				"noteNumber": 41,
				"velocity": 64
			},
			{
				"deltaTime": 30,
				"channel": 1,
				"type": "channel",
				"noteNumber": 38,
				"velocity": 117,
				"subtype": "noteOn"
			},
			{
				"deltaTime": 90,
				"channel": 1,
				"type": "channel",
				"subtype": "noteOff",
				"noteNumber": 38,
				"velocity": 64
			},
			{
				"deltaTime": 30,
				"channel": 1,
				"type": "channel",
				"noteNumber": 38,
				"velocity": 115,
				"subtype": "noteOn"
			},
			{
				"deltaTime": 180,
				"channel": 1,
				"type": "channel",
				"subtype": "noteOff",
				"noteNumber": 38,
				"velocity": 64
			},
			{
				"deltaTime": 60,
				"channel": 1,
				"type": "channel",
				"noteNumber": 38,
				"velocity": 111,
				"subtype": "noteOn"
			},
			{
				"deltaTime": 90,
				"channel": 1,
				"type": "channel",
				"subtype": "noteOff",
				"noteNumber": 38,
				"velocity": 64
			},
			{
				"deltaTime": 30,
				"channel": 1,
				"type": "channel",
				"noteNumber": 33,
				"velocity": 120,
				"subtype": "noteOn"
			},
			{
				"deltaTime": 90,
				"channel": 1,
				"type": "channel",
				"subtype": "noteOff",
				"noteNumber": 33,
				"velocity": 64
			},
			{
				"deltaTime": 30,
				"channel": 1,
				"type": "channel",
				"noteNumber": 50,
				"velocity": 115,
				"subtype": "noteOn"
			},
			{
				"deltaTime": 180,
				"channel": 1,
				"type": "channel",
				"subtype": "noteOff",
				"noteNumber": 50,
				"velocity": 64
			},
			{
				"deltaTime": 60,
				"channel": 1,
				"type": "channel",
				"noteNumber": 48,
				"velocity": 114,
				"subtype": "noteOn"
			},
			{
				"deltaTime": 180,
				"channel": 1,
				"type": "channel",
				"subtype": "noteOff",
				"noteNumber": 48,
				"velocity": 64
			},
			{
				"deltaTime": 60,
				"channel": 1,
				"type": "channel",
				"noteNumber": 50,
				"velocity": 109,
				"subtype": "noteOn"
			},
			{
				"deltaTime": 300,
				"channel": 1,
				"type": "channel",
				"subtype": "noteOff",
				"noteNumber": 50,
				"velocity": 64
			},
			{
				"deltaTime": 60,
				"channel": 1,
				"type": "channel",
				"noteNumber": 43,
				"velocity": 114,
				"subtype": "noteOn"
			},
			{
				"deltaTime": 90,
				"channel": 1,
				"type": "channel",
				"subtype": "noteOff",
				"noteNumber": 43,
				"velocity": 64
			},
			{
				"deltaTime": 30,
				"channel": 1,
				"type": "channel",
				"noteNumber": 36,
				"velocity": 110,
				"subtype": "noteOn"
			},
			{
				"deltaTime": 180,
				"channel": 1,
				"type": "channel",
				"subtype": "noteOff",
				"noteNumber": 36,
				"velocity": 64
			},
			{
				"deltaTime": 60,
				"channel": 1,
				"type": "channel",
				"noteNumber": 37,
				"velocity": 123,
				"subtype": "noteOn"
			},
			{
				"deltaTime": 180,
				"channel": 1,
				"type": "channel",
				"subtype": "noteOff",
				"noteNumber": 37,
				"velocity": 64
			},
			{
				"deltaTime": 60,
				"channel": 1,
				"type": "channel",
				"noteNumber": 33,
				"velocity": 111,
				"subtype": "noteOn"
			},
			{
				"deltaTime": 180,
				"channel": 1,
				"type": "channel",
				"subtype": "noteOff",
				"noteNumber": 33,
				"velocity": 64
			},
			{
				"deltaTime": 60,
				"channel": 1,
				"type": "channel",
				"noteNumber": 33,
				"velocity": 104,
				"subtype": "noteOn"
			},
			{
				"deltaTime": 180,
				"channel": 1,
				"type": "channel",
				"subtype": "noteOff",
				"noteNumber": 33,
				"velocity": 64
			},
			{
				"deltaTime": 60,
				"channel": 1,
				"type": "channel",
				"noteNumber": 45,
				"velocity": 114,
				"subtype": "noteOn"
			},
			{
				"deltaTime": 180,
				"channel": 1,
				"type": "channel",
				"subtype": "noteOff",
				"noteNumber": 45,
				"velocity": 64
			},
			{
				"deltaTime": 60,
				"channel": 1,
				"type": "channel",
				"noteNumber": 43,
				"velocity": 105,
				"subtype": "noteOn"
			},
			{
				"deltaTime": 180,
				"channel": 1,
				"type": "channel",
				"subtype": "noteOff",
				"noteNumber": 43,
				"velocity": 64
			},
			{
				"deltaTime": 60,
				"channel": 1,
				"type": "channel",
				"noteNumber": 45,
				"velocity": 114,
				"subtype": "noteOn"
			},
			{
				"deltaTime": 300,
				"channel": 1,
				"type": "channel",
				"subtype": "noteOff",
				"noteNumber": 45,
				"velocity": 64
			},
			{
				"deltaTime": 60,
				"channel": 1,
				"type": "channel",
				"noteNumber": 43,
				"velocity": 121,
				"subtype": "noteOn"
			},
			{
				"deltaTime": 90,
				"channel": 1,
				"type": "channel",
				"subtype": "noteOff",
				"noteNumber": 43,
				"velocity": 64
			},
			{
				"deltaTime": 30,
				"channel": 1,
				"type": "channel",
				"noteNumber": 45,
				"velocity": 104,
				"subtype": "noteOn"
			},
			{
				"deltaTime": 180,
				"channel": 1,
				"type": "channel",
				"subtype": "noteOff",
				"noteNumber": 45,
				"velocity": 64
			},
			{
				"deltaTime": 60,
				"channel": 1,
				"type": "channel",
				"noteNumber": 43,
				"velocity": 116,
				"subtype": "noteOn"
			},
			{
				"deltaTime": 180,
				"channel": 1,
				"type": "channel",
				"subtype": "noteOff",
				"noteNumber": 43,
				"velocity": 64
			},
			{
				"deltaTime": 60,
				"channel": 1,
				"type": "channel",
				"noteNumber": 37,
				"velocity": 124,
				"subtype": "noteOn"
			},
			{
				"deltaTime": 180,
				"channel": 1,
				"type": "channel",
				"subtype": "noteOff",
				"noteNumber": 37,
				"velocity": 64
			},
			{
				"deltaTime": 60,
				"channel": 1,
				"type": "channel",
				"noteNumber": 33,
				"velocity": 119,
				"subtype": "noteOn"
			},
			{
				"deltaTime": 180,
				"channel": 1,
				"type": "channel",
				"subtype": "noteOff",
				"noteNumber": 33,
				"velocity": 64
			},
			{
				"deltaTime": 60,
				"channel": 1,
				"type": "channel",
				"noteNumber": 45,
				"velocity": 107,
				"subtype": "noteOn"
			},
			{
				"deltaTime": 180,
				"channel": 1,
				"type": "channel",
				"subtype": "noteOff",
				"noteNumber": 45,
				"velocity": 64
			},
			{
				"deltaTime": 60,
				"channel": 1,
				"type": "channel",
				"noteNumber": 43,
				"velocity": 111,
				"subtype": "noteOn"
			},
			{
				"deltaTime": 180,
				"channel": 1,
				"type": "channel",
				"subtype": "noteOff",
				"noteNumber": 43,
				"velocity": 64
			},
			{
				"deltaTime": 60,
				"channel": 1,
				"type": "channel",
				"noteNumber": 45,
				"velocity": 121,
				"subtype": "noteOn"
			},
			{
				"deltaTime": 300,
				"channel": 1,
				"type": "channel",
				"subtype": "noteOff",
				"noteNumber": 45,
				"velocity": 64
			},
			{
				"deltaTime": 60,
				"channel": 1,
				"type": "channel",
				"noteNumber": 43,
				"velocity": 117,
				"subtype": "noteOn"
			},
			{
				"deltaTime": 90,
				"channel": 1,
				"type": "channel",
				"subtype": "noteOff",
				"noteNumber": 43,
				"velocity": 64
			},
			{
				"deltaTime": 30,
				"channel": 1,
				"type": "channel",
				"noteNumber": 45,
				"velocity": 122,
				"subtype": "noteOn"
			},
			{
				"deltaTime": 180,
				"channel": 1,
				"type": "channel",
				"subtype": "noteOff",
				"noteNumber": 45,
				"velocity": 64
			},
			{
				"deltaTime": 60,
				"channel": 1,
				"type": "channel",
				"noteNumber": 43,
				"velocity": 114,
				"subtype": "noteOn"
			},
			{
				"deltaTime": 180,
				"channel": 1,
				"type": "channel",
				"subtype": "noteOff",
				"noteNumber": 43,
				"velocity": 64
			},
			{
				"deltaTime": 60,
				"channel": 1,
				"type": "channel",
				"noteNumber": 40,
				"velocity": 108,
				"subtype": "noteOn"
			},
			{
				"deltaTime": 90,
				"channel": 1,
				"type": "channel",
				"subtype": "noteOff",
				"noteNumber": 40,
				"velocity": 64
			},
			{
				"deltaTime": 30,
				"channel": 1,
				"type": "channel",
				"noteNumber": 38,
				"velocity": 106,
				"subtype": "noteOn"
			},
			{
				"deltaTime": 90,
				"channel": 1,
				"type": "channel",
				"subtype": "noteOff",
				"noteNumber": 38,
				"velocity": 64
			},
			{
				"deltaTime": 30,
				"channel": 1,
				"type": "channel",
				"noteNumber": 40,
				"velocity": 115,
				"subtype": "noteOn"
			},
			{
				"deltaTime": 180,
				"channel": 1,
				"type": "channel",
				"subtype": "noteOff",
				"noteNumber": 40,
				"velocity": 64
			},
			{
				"deltaTime": 60,
				"channel": 1,
				"type": "channel",
				"noteNumber": 52,
				"velocity": 120,
				"subtype": "noteOn"
			},
			{
				"deltaTime": 180,
				"channel": 1,
				"type": "channel",
				"subtype": "noteOff",
				"noteNumber": 52,
				"velocity": 64
			},
			{
				"deltaTime": 60,
				"channel": 1,
				"type": "channel",
				"noteNumber": 40,
				"velocity": 114,
				"subtype": "noteOn"
			},
			{
				"deltaTime": 180,
				"channel": 1,
				"type": "channel",
				"subtype": "noteOff",
				"noteNumber": 40,
				"velocity": 64
			},
			{
				"deltaTime": 60,
				"channel": 1,
				"type": "channel",
				"noteNumber": 52,
				"velocity": 114,
				"subtype": "noteOn"
			},
			{
				"deltaTime": 180,
				"channel": 1,
				"type": "channel",
				"subtype": "noteOff",
				"noteNumber": 52,
				"velocity": 64
			},
			{
				"deltaTime": 60,
				"channel": 1,
				"type": "channel",
				"noteNumber": 40,
				"velocity": 114,
				"subtype": "noteOn"
			},
			{
				"deltaTime": 180,
				"channel": 1,
				"type": "channel",
				"subtype": "noteOff",
				"noteNumber": 40,
				"velocity": 64
			},
			{
				"deltaTime": 60,
				"channel": 1,
				"type": "channel",
				"noteNumber": 40,
				"velocity": 116,
				"subtype": "noteOn"
			},
			{
				"deltaTime": 180,
				"channel": 1,
				"type": "channel",
				"subtype": "noteOff",
				"noteNumber": 40,
				"velocity": 64
			},
			{
				"deltaTime": 60,
				"channel": 1,
				"type": "channel",
				"noteNumber": 52,
				"velocity": 115,
				"subtype": "noteOn"
			},
			{
				"deltaTime": 180,
				"channel": 1,
				"type": "channel",
				"subtype": "noteOff",
				"noteNumber": 52,
				"velocity": 64
			},
			{
				"deltaTime": 60,
				"channel": 1,
				"type": "channel",
				"noteNumber": 39,
				"velocity": 122,
				"subtype": "noteOn"
			},
			{
				"deltaTime": 180,
				"channel": 1,
				"type": "channel",
				"subtype": "noteOff",
				"noteNumber": 39,
				"velocity": 64
			},
			{
				"deltaTime": 60,
				"channel": 1,
				"type": "channel",
				"noteNumber": 38,
				"velocity": 123,
				"subtype": "noteOn"
			},
			{
				"deltaTime": 180,
				"channel": 1,
				"type": "channel",
				"subtype": "noteOff",
				"noteNumber": 38,
				"velocity": 64
			},
			{
				"deltaTime": 60,
				"channel": 1,
				"type": "channel",
				"noteNumber": 50,
				"velocity": 120,
				"subtype": "noteOn"
			},
			{
				"deltaTime": 420,
				"channel": 1,
				"type": "channel",
				"subtype": "noteOff",
				"noteNumber": 50,
				"velocity": 64
			},
			{
				"deltaTime": 60,
				"channel": 1,
				"type": "channel",
				"noteNumber": 50,
				"velocity": 114,
				"subtype": "noteOn"
			},
			{
				"deltaTime": 180,
				"channel": 1,
				"type": "channel",
				"subtype": "noteOff",
				"noteNumber": 50,
				"velocity": 64
			},
			{
				"deltaTime": 60,
				"channel": 1,
				"type": "channel",
				"noteNumber": 38,
				"velocity": 123,
				"subtype": "noteOn"
			},
			{
				"deltaTime": 180,
				"channel": 1,
				"type": "channel",
				"subtype": "noteOff",
				"noteNumber": 38,
				"velocity": 64
			},
			{
				"deltaTime": 60,
				"channel": 1,
				"type": "channel",
				"noteNumber": 38,
				"velocity": 113,
				"subtype": "noteOn"
			},
			{
				"deltaTime": 180,
				"channel": 1,
				"type": "channel",
				"subtype": "noteOff",
				"noteNumber": 38,
				"velocity": 64
			},
			{
				"deltaTime": 60,
				"channel": 1,
				"type": "channel",
				"noteNumber": 36,
				"velocity": 124,
				"subtype": "noteOn"
			},
			{
				"deltaTime": 180,
				"channel": 1,
				"type": "channel",
				"subtype": "noteOff",
				"noteNumber": 36,
				"velocity": 64
			},
			{
				"deltaTime": 60,
				"channel": 1,
				"type": "channel",
				"noteNumber": 33,
				"velocity": 117,
				"subtype": "noteOn"
			},
			{
				"deltaTime": 180,
				"channel": 1,
				"type": "channel",
				"subtype": "noteOff",
				"noteNumber": 33,
				"velocity": 64
			},
			{
				"deltaTime": 60,
				"channel": 1,
				"type": "channel",
				"noteNumber": 33,
				"velocity": 116,
				"subtype": "noteOn"
			},
			{
				"deltaTime": 180,
				"channel": 1,
				"type": "channel",
				"subtype": "noteOff",
				"noteNumber": 33,
				"velocity": 64
			},
			{
				"deltaTime": 60,
				"channel": 1,
				"type": "channel",
				"noteNumber": 45,
				"velocity": 115,
				"subtype": "noteOn"
			},
			{
				"deltaTime": 180,
				"channel": 1,
				"type": "channel",
				"subtype": "noteOff",
				"noteNumber": 45,
				"velocity": 64
			},
			{
				"deltaTime": 60,
				"channel": 1,
				"type": "channel",
				"noteNumber": 43,
				"velocity": 114,
				"subtype": "noteOn"
			},
			{
				"deltaTime": 180,
				"channel": 1,
				"type": "channel",
				"subtype": "noteOff",
				"noteNumber": 43,
				"velocity": 64
			},
			{
				"deltaTime": 60,
				"channel": 1,
				"type": "channel",
				"noteNumber": 45,
				"velocity": 113,
				"subtype": "noteOn"
			},
			{
				"deltaTime": 300,
				"channel": 1,
				"type": "channel",
				"subtype": "noteOff",
				"noteNumber": 45,
				"velocity": 64
			},
			{
				"deltaTime": 60,
				"channel": 1,
				"type": "channel",
				"noteNumber": 43,
				"velocity": 122,
				"subtype": "noteOn"
			},
			{
				"deltaTime": 90,
				"channel": 1,
				"type": "channel",
				"subtype": "noteOff",
				"noteNumber": 43,
				"velocity": 64
			},
			{
				"deltaTime": 30,
				"channel": 1,
				"type": "channel",
				"noteNumber": 45,
				"velocity": 124,
				"subtype": "noteOn"
			},
			{
				"deltaTime": 180,
				"channel": 1,
				"type": "channel",
				"subtype": "noteOff",
				"noteNumber": 45,
				"velocity": 64
			},
			{
				"deltaTime": 60,
				"channel": 1,
				"type": "channel",
				"noteNumber": 43,
				"velocity": 104,
				"subtype": "noteOn"
			},
			{
				"deltaTime": 180,
				"channel": 1,
				"type": "channel",
				"subtype": "noteOff",
				"noteNumber": 43,
				"velocity": 64
			},
			{
				"deltaTime": 60,
				"channel": 1,
				"type": "channel",
				"noteNumber": 37,
				"velocity": 118,
				"subtype": "noteOn"
			},
			{
				"deltaTime": 180,
				"channel": 1,
				"type": "channel",
				"subtype": "noteOff",
				"noteNumber": 37,
				"velocity": 64
			},
			{
				"deltaTime": 60,
				"channel": 1,
				"type": "channel",
				"noteNumber": 33,
				"velocity": 113,
				"subtype": "noteOn"
			},
			{
				"deltaTime": 180,
				"channel": 1,
				"type": "channel",
				"subtype": "noteOff",
				"noteNumber": 33,
				"velocity": 64
			},
			{
				"deltaTime": 60,
				"channel": 1,
				"type": "channel",
				"noteNumber": 45,
				"velocity": 106,
				"subtype": "noteOn"
			},
			{
				"deltaTime": 180,
				"channel": 1,
				"type": "channel",
				"subtype": "noteOff",
				"noteNumber": 45,
				"velocity": 64
			},
			{
				"deltaTime": 60,
				"channel": 1,
				"type": "channel",
				"noteNumber": 43,
				"velocity": 111,
				"subtype": "noteOn"
			},
			{
				"deltaTime": 180,
				"channel": 1,
				"type": "channel",
				"subtype": "noteOff",
				"noteNumber": 43,
				"velocity": 64
			},
			{
				"deltaTime": 60,
				"channel": 1,
				"type": "channel",
				"noteNumber": 45,
				"velocity": 110,
				"subtype": "noteOn"
			},
			{
				"deltaTime": 300,
				"channel": 1,
				"type": "channel",
				"subtype": "noteOff",
				"noteNumber": 45,
				"velocity": 64
			},
			{
				"deltaTime": 60,
				"channel": 1,
				"type": "channel",
				"noteNumber": 43,
				"velocity": 114,
				"subtype": "noteOn"
			},
			{
				"deltaTime": 90,
				"channel": 1,
				"type": "channel",
				"subtype": "noteOff",
				"noteNumber": 43,
				"velocity": 64
			},
			{
				"deltaTime": 30,
				"channel": 1,
				"type": "channel",
				"noteNumber": 45,
				"velocity": 110,
				"subtype": "noteOn"
			},
			{
				"deltaTime": 180,
				"channel": 1,
				"type": "channel",
				"subtype": "noteOff",
				"noteNumber": 45,
				"velocity": 64
			},
			{
				"deltaTime": 60,
				"channel": 1,
				"type": "channel",
				"noteNumber": 43,
				"velocity": 110,
				"subtype": "noteOn"
			},
			{
				"deltaTime": 180,
				"channel": 1,
				"type": "channel",
				"subtype": "noteOff",
				"noteNumber": 43,
				"velocity": 64
			},
			{
				"deltaTime": 60,
				"channel": 1,
				"type": "channel",
				"noteNumber": 36,
				"velocity": 115,
				"subtype": "noteOn"
			},
			{
				"deltaTime": 90,
				"channel": 1,
				"type": "channel",
				"subtype": "noteOff",
				"noteNumber": 36,
				"velocity": 64
			},
			{
				"deltaTime": 30,
				"channel": 1,
				"type": "channel",
				"noteNumber": 33,
				"velocity": 115,
				"subtype": "noteOn"
			},
			{
				"deltaTime": 90,
				"channel": 1,
				"type": "channel",
				"subtype": "noteOff",
				"noteNumber": 33,
				"velocity": 64
			},
			{
				"deltaTime": 30,
				"channel": 1,
				"type": "channel",
				"noteNumber": 33,
				"velocity": 119,
				"subtype": "noteOn"
			},
			{
				"deltaTime": 180,
				"channel": 1,
				"type": "channel",
				"subtype": "noteOff",
				"noteNumber": 33,
				"velocity": 64
			},
			{
				"deltaTime": 60,
				"channel": 1,
				"type": "channel",
				"noteNumber": 57,
				"velocity": 116,
				"subtype": "noteOn"
			},
			{
				"deltaTime": 90,
				"channel": 1,
				"type": "channel",
				"subtype": "noteOff",
				"noteNumber": 57,
				"velocity": 64
			},
			{
				"deltaTime": 30,
				"channel": 1,
				"type": "channel",
				"noteNumber": 57,
				"velocity": 110,
				"subtype": "noteOn"
			},
			{
				"deltaTime": 90,
				"channel": 1,
				"type": "channel",
				"subtype": "noteOff",
				"noteNumber": 57,
				"velocity": 64
			},
			{
				"deltaTime": 30,
				"channel": 1,
				"type": "channel",
				"noteNumber": 57,
				"velocity": 115,
				"subtype": "noteOn"
			},
			{
				"deltaTime": 90,
				"channel": 1,
				"type": "channel",
				"subtype": "noteOff",
				"noteNumber": 57,
				"velocity": 64
			},
			{
				"deltaTime": 30,
				"channel": 1,
				"type": "channel",
				"noteNumber": 57,
				"velocity": 112,
				"subtype": "noteOn"
			},
			{
				"deltaTime": 90,
				"channel": 1,
				"type": "channel",
				"subtype": "noteOff",
				"noteNumber": 57,
				"velocity": 64
			},
			{
				"deltaTime": 30,
				"channel": 1,
				"type": "channel",
				"noteNumber": 57,
				"velocity": 116,
				"subtype": "noteOn"
			},
			{
				"deltaTime": 180,
				"channel": 1,
				"type": "channel",
				"subtype": "noteOff",
				"noteNumber": 57,
				"velocity": 64
			},
			{
				"deltaTime": 60,
				"channel": 1,
				"type": "channel",
				"noteNumber": 57,
				"velocity": 112,
				"subtype": "noteOn"
			},
			{
				"deltaTime": 90,
				"channel": 1,
				"type": "channel",
				"subtype": "noteOff",
				"noteNumber": 57,
				"velocity": 64
			},
			{
				"deltaTime": 30,
				"channel": 1,
				"type": "channel",
				"noteNumber": 55,
				"velocity": 116,
				"subtype": "noteOn"
			},
			{
				"deltaTime": 90,
				"channel": 1,
				"type": "channel",
				"subtype": "noteOff",
				"noteNumber": 55,
				"velocity": 64
			},
			{
				"deltaTime": 30,
				"channel": 1,
				"type": "channel",
				"noteNumber": 52,
				"velocity": 119,
				"subtype": "noteOn"
			},
			{
				"deltaTime": 180,
				"channel": 1,
				"type": "channel",
				"subtype": "noteOff",
				"noteNumber": 52,
				"velocity": 64
			},
			{
				"deltaTime": 60,
				"channel": 1,
				"type": "channel",
				"noteNumber": 50,
				"velocity": 107,
				"subtype": "noteOn"
			},
			{
				"deltaTime": 180,
				"channel": 1,
				"type": "channel",
				"subtype": "noteOff",
				"noteNumber": 50,
				"velocity": 64
			},
			{
				"deltaTime": 60,
				"channel": 1,
				"type": "channel",
				"noteNumber": 48,
				"velocity": 111,
				"subtype": "noteOn"
			},
			{
				"deltaTime": 180,
				"channel": 1,
				"type": "channel",
				"subtype": "noteOff",
				"noteNumber": 48,
				"velocity": 64
			},
			{
				"deltaTime": 60,
				"channel": 1,
				"type": "channel",
				"noteNumber": 45,
				"velocity": 114,
				"subtype": "noteOn"
			},
			{
				"deltaTime": 180,
				"channel": 1,
				"type": "channel",
				"subtype": "noteOff",
				"noteNumber": 45,
				"velocity": 64
			},
			{
				"deltaTime": 60,
				"channel": 1,
				"type": "channel",
				"noteNumber": 57,
				"velocity": 114,
				"subtype": "noteOn"
			},
			{
				"deltaTime": 90,
				"channel": 1,
				"type": "channel",
				"subtype": "noteOff",
				"noteNumber": 57,
				"velocity": 64
			},
			{
				"deltaTime": 30,
				"channel": 1,
				"type": "channel",
				"noteNumber": 57,
				"velocity": 114,
				"subtype": "noteOn"
			},
			{
				"deltaTime": 90,
				"channel": 1,
				"type": "channel",
				"subtype": "noteOff",
				"noteNumber": 57,
				"velocity": 64
			},
			{
				"deltaTime": 150,
				"channel": 1,
				"type": "channel",
				"noteNumber": 57,
				"velocity": 108,
				"subtype": "noteOn"
			},
			{
				"deltaTime": 90,
				"channel": 1,
				"type": "channel",
				"subtype": "noteOff",
				"noteNumber": 57,
				"velocity": 64
			},
			{
				"deltaTime": 30,
				"channel": 1,
				"type": "channel",
				"noteNumber": 57,
				"velocity": 114,
				"subtype": "noteOn"
			},
			{
				"deltaTime": 180,
				"channel": 1,
				"type": "channel",
				"subtype": "noteOff",
				"noteNumber": 57,
				"velocity": 64
			},
			{
				"deltaTime": 60,
				"channel": 1,
				"type": "channel",
				"noteNumber": 57,
				"velocity": 109,
				"subtype": "noteOn"
			},
			{
				"deltaTime": 90,
				"channel": 1,
				"type": "channel",
				"subtype": "noteOff",
				"noteNumber": 57,
				"velocity": 64
			},
			{
				"deltaTime": 30,
				"channel": 1,
				"type": "channel",
				"noteNumber": 55,
				"velocity": 115,
				"subtype": "noteOn"
			},
			{
				"deltaTime": 90,
				"channel": 1,
				"type": "channel",
				"subtype": "noteOff",
				"noteNumber": 55,
				"velocity": 64
			},
			{
				"deltaTime": 30,
				"channel": 1,
				"type": "channel",
				"noteNumber": 52,
				"velocity": 121,
				"subtype": "noteOn"
			},
			{
				"deltaTime": 180,
				"channel": 1,
				"type": "channel",
				"subtype": "noteOff",
				"noteNumber": 52,
				"velocity": 64
			},
			{
				"deltaTime": 60,
				"channel": 1,
				"type": "channel",
				"noteNumber": 50,
				"velocity": 113,
				"subtype": "noteOn"
			},
			{
				"deltaTime": 180,
				"channel": 1,
				"type": "channel",
				"subtype": "noteOff",
				"noteNumber": 50,
				"velocity": 64
			},
			{
				"deltaTime": 60,
				"channel": 1,
				"type": "channel",
				"noteNumber": 48,
				"velocity": 116,
				"subtype": "noteOn"
			},
			{
				"deltaTime": 180,
				"channel": 1,
				"type": "channel",
				"subtype": "noteOff",
				"noteNumber": 48,
				"velocity": 64
			},
			{
				"deltaTime": 300,
				"channel": 1,
				"type": "channel",
				"noteNumber": 45,
				"velocity": 113,
				"subtype": "noteOn"
			},
			{
				"deltaTime": 90,
				"channel": 1,
				"type": "channel",
				"subtype": "noteOff",
				"noteNumber": 45,
				"velocity": 64
			},
			{
				"deltaTime": 30,
				"channel": 1,
				"type": "channel",
				"noteNumber": 45,
				"velocity": 114,
				"subtype": "noteOn"
			},
			{
				"deltaTime": 90,
				"channel": 1,
				"type": "channel",
				"subtype": "noteOff",
				"noteNumber": 45,
				"velocity": 64
			},
			{
				"deltaTime": 150,
				"channel": 1,
				"type": "channel",
				"noteNumber": 45,
				"velocity": 120,
				"subtype": "noteOn"
			},
			{
				"deltaTime": 90,
				"channel": 1,
				"type": "channel",
				"subtype": "noteOff",
				"noteNumber": 45,
				"velocity": 64
			},
			{
				"deltaTime": 30,
				"channel": 1,
				"type": "channel",
				"noteNumber": 45,
				"velocity": 113,
				"subtype": "noteOn"
			},
			{
				"deltaTime": 180,
				"channel": 1,
				"type": "channel",
				"subtype": "noteOff",
				"noteNumber": 45,
				"velocity": 64
			},
			{
				"deltaTime": 60,
				"channel": 1,
				"type": "channel",
				"noteNumber": 45,
				"velocity": 121,
				"subtype": "noteOn"
			},
			{
				"deltaTime": 90,
				"channel": 1,
				"type": "channel",
				"subtype": "noteOff",
				"noteNumber": 45,
				"velocity": 64
			},
			{
				"deltaTime": 30,
				"channel": 1,
				"type": "channel",
				"noteNumber": 43,
				"velocity": 116,
				"subtype": "noteOn"
			},
			{
				"deltaTime": 90,
				"channel": 1,
				"type": "channel",
				"subtype": "noteOff",
				"noteNumber": 43,
				"velocity": 64
			},
			{
				"deltaTime": 30,
				"channel": 1,
				"type": "channel",
				"noteNumber": 40,
				"velocity": 117,
				"subtype": "noteOn"
			},
			{
				"deltaTime": 90,
				"channel": 1,
				"type": "channel",
				"subtype": "noteOff",
				"noteNumber": 40,
				"velocity": 64
			},
			{
				"deltaTime": 30,
				"channel": 1,
				"type": "channel",
				"noteNumber": 38,
				"velocity": 120,
				"subtype": "noteOn"
			},
			{
				"deltaTime": 90,
				"channel": 1,
				"type": "channel",
				"subtype": "noteOff",
				"noteNumber": 38,
				"velocity": 64
			},
			{
				"deltaTime": 30,
				"channel": 1,
				"type": "channel",
				"noteNumber": 36,
				"velocity": 114,
				"subtype": "noteOn"
			},
			{
				"deltaTime": 180,
				"channel": 1,
				"type": "channel",
				"subtype": "noteOff",
				"noteNumber": 36,
				"velocity": 64
			},
			{
				"deltaTime": 60,
				"channel": 1,
				"type": "channel",
				"noteNumber": 33,
				"velocity": 119,
				"subtype": "noteOn"
			},
			{
				"deltaTime": 180,
				"channel": 1,
				"type": "channel",
				"subtype": "noteOff",
				"noteNumber": 33,
				"velocity": 64
			},
			{
				"deltaTime": 60,
				"channel": 1,
				"type": "channel",
				"noteNumber": 36,
				"velocity": 116,
				"subtype": "noteOn"
			},
			{
				"deltaTime": 180,
				"channel": 1,
				"type": "channel",
				"subtype": "noteOff",
				"noteNumber": 36,
				"velocity": 64
			},
			{
				"deltaTime": 60,
				"channel": 1,
				"type": "channel",
				"noteNumber": 37,
				"velocity": 114,
				"subtype": "noteOn"
			},
			{
				"deltaTime": 90,
				"channel": 1,
				"type": "channel",
				"subtype": "noteOff",
				"noteNumber": 37,
				"velocity": 64
			},
			{
				"deltaTime": 30,
				"channel": 1,
				"type": "channel",
				"noteNumber": 38,
				"velocity": 114,
				"subtype": "noteOn"
			},
			{
				"deltaTime": 90,
				"channel": 1,
				"type": "channel",
				"subtype": "noteOff",
				"noteNumber": 38,
				"velocity": 64
			},
			{
				"deltaTime": 150,
				"channel": 1,
				"type": "channel",
				"noteNumber": 40,
				"velocity": 103,
				"subtype": "noteOn"
			},
			{
				"deltaTime": 90,
				"channel": 1,
				"type": "channel",
				"subtype": "noteOff",
				"noteNumber": 40,
				"velocity": 64
			},
			{
				"deltaTime": 30,
				"channel": 1,
				"type": "channel",
				"noteNumber": 43,
				"velocity": 117,
				"subtype": "noteOn"
			},
			{
				"deltaTime": 180,
				"channel": 1,
				"type": "channel",
				"subtype": "noteOff",
				"noteNumber": 43,
				"velocity": 64
			},
			{
				"deltaTime": 60,
				"channel": 1,
				"type": "channel",
				"noteNumber": 45,
				"velocity": 110,
				"subtype": "noteOn"
			},
			{
				"deltaTime": 180,
				"channel": 1,
				"type": "channel",
				"subtype": "noteOff",
				"noteNumber": 45,
				"velocity": 64
			},
			{
				"deltaTime": 60,
				"channel": 1,
				"type": "channel",
				"noteNumber": 45,
				"velocity": 115,
				"subtype": "noteOn"
			},
			{
				"deltaTime": 90,
				"channel": 1,
				"type": "channel",
				"subtype": "noteOff",
				"noteNumber": 45,
				"velocity": 64
			},
			{
				"deltaTime": 30,
				"channel": 1,
				"type": "channel",
				"noteNumber": 45,
				"velocity": 114,
				"subtype": "noteOn"
			},
			{
				"deltaTime": 90,
				"channel": 1,
				"type": "channel",
				"subtype": "noteOff",
				"noteNumber": 45,
				"velocity": 64
			},
			{
				"deltaTime": 30,
				"channel": 1,
				"type": "channel",
				"noteNumber": 45,
				"velocity": 117,
				"subtype": "noteOn"
			},
			{
				"deltaTime": 90,
				"channel": 1,
				"type": "channel",
				"subtype": "noteOff",
				"noteNumber": 45,
				"velocity": 64
			},
			{
				"deltaTime": 30,
				"channel": 1,
				"type": "channel",
				"noteNumber": 45,
				"velocity": 118,
				"subtype": "noteOn"
			},
			{
				"deltaTime": 90,
				"channel": 1,
				"type": "channel",
				"subtype": "noteOff",
				"noteNumber": 45,
				"velocity": 64
			},
			{
				"deltaTime": 30,
				"channel": 1,
				"type": "channel",
				"noteNumber": 48,
				"velocity": 114,
				"subtype": "noteOn"
			},
			{
				"deltaTime": 180,
				"channel": 1,
				"type": "channel",
				"subtype": "noteOff",
				"noteNumber": 48,
				"velocity": 64
			},
			{
				"deltaTime": 60,
				"channel": 1,
				"type": "channel",
				"noteNumber": 50,
				"velocity": 114,
				"subtype": "noteOn"
			},
			{
				"deltaTime": 180,
				"channel": 1,
				"type": "channel",
				"subtype": "noteOff",
				"noteNumber": 50,
				"velocity": 64
			},
			{
				"deltaTime": 60,
				"channel": 1,
				"type": "channel",
				"noteNumber": 50,
				"velocity": 119,
				"subtype": "noteOn"
			},
			{
				"deltaTime": 90,
				"channel": 1,
				"type": "channel",
				"subtype": "noteOff",
				"noteNumber": 50,
				"velocity": 64
			},
			{
				"deltaTime": 30,
				"channel": 1,
				"type": "channel",
				"noteNumber": 43,
				"velocity": 120,
				"subtype": "noteOn"
			},
			{
				"deltaTime": 90,
				"channel": 1,
				"type": "channel",
				"subtype": "noteOff",
				"noteNumber": 43,
				"velocity": 64
			},
			{
				"deltaTime": 30,
				"channel": 1,
				"type": "channel",
				"noteNumber": 48,
				"velocity": 105,
				"subtype": "noteOn"
			},
			{
				"deltaTime": 180,
				"channel": 1,
				"type": "channel",
				"subtype": "noteOff",
				"noteNumber": 48,
				"velocity": 64
			},
			{
				"deltaTime": 60,
				"channel": 1,
				"type": "channel",
				"noteNumber": 50,
				"velocity": 123,
				"subtype": "noteOn"
			},
			{
				"deltaTime": 180,
				"channel": 1,
				"type": "channel",
				"subtype": "noteOff",
				"noteNumber": 50,
				"velocity": 64
			},
			{
				"deltaTime": 60,
				"channel": 1,
				"type": "channel",
				"noteNumber": 50,
				"velocity": 103,
				"subtype": "noteOn"
			},
			{
				"deltaTime": 90,
				"channel": 1,
				"type": "channel",
				"subtype": "noteOff",
				"noteNumber": 50,
				"velocity": 64
			},
			{
				"deltaTime": 30,
				"channel": 1,
				"type": "channel",
				"noteNumber": 43,
				"velocity": 104,
				"subtype": "noteOn"
			},
			{
				"deltaTime": 90,
				"channel": 1,
				"type": "channel",
				"subtype": "noteOff",
				"noteNumber": 43,
				"velocity": 64
			},
			{
				"deltaTime": 30,
				"channel": 1,
				"type": "channel",
				"noteNumber": 39,
				"velocity": 113,
				"subtype": "noteOn"
			},
			{
				"deltaTime": 180,
				"channel": 1,
				"type": "channel",
				"subtype": "noteOff",
				"noteNumber": 39,
				"velocity": 64
			},
			{
				"deltaTime": 60,
				"channel": 1,
				"type": "channel",
				"noteNumber": 43,
				"velocity": 111,
				"subtype": "noteOn"
			},
			{
				"deltaTime": 180,
				"channel": 1,
				"type": "channel",
				"subtype": "noteOff",
				"noteNumber": 43,
				"velocity": 64
			},
			{
				"deltaTime": 60,
				"channel": 1,
				"type": "channel",
				"noteNumber": 44,
				"velocity": 117,
				"subtype": "noteOn"
			},
			{
				"deltaTime": 180,
				"channel": 1,
				"type": "channel",
				"subtype": "noteOff",
				"noteNumber": 44,
				"velocity": 64
			},
			{
				"deltaTime": 60,
				"channel": 1,
				"type": "channel",
				"noteNumber": 45,
				"velocity": 107,
				"subtype": "noteOn"
			},
			{
				"deltaTime": 180,
				"channel": 1,
				"type": "channel",
				"subtype": "noteOff",
				"noteNumber": 45,
				"velocity": 64
			},
			{
				"deltaTime": 60,
				"channel": 1,
				"type": "channel",
				"noteNumber": 45,
				"velocity": 117,
				"subtype": "noteOn"
			},
			{
				"deltaTime": 180,
				"channel": 1,
				"type": "channel",
				"subtype": "noteOff",
				"noteNumber": 45,
				"velocity": 64
			},
			{
				"deltaTime": 60,
				"channel": 1,
				"type": "channel",
				"noteNumber": 50,
				"velocity": 116,
				"subtype": "noteOn"
			},
			{
				"deltaTime": 180,
				"channel": 1,
				"type": "channel",
				"subtype": "noteOff",
				"noteNumber": 50,
				"velocity": 64
			},
			{
				"deltaTime": 60,
				"channel": 1,
				"type": "channel",
				"noteNumber": 48,
				"velocity": 113,
				"subtype": "noteOn"
			},
			{
				"deltaTime": 180,
				"channel": 1,
				"type": "channel",
				"subtype": "noteOff",
				"noteNumber": 48,
				"velocity": 64
			},
			{
				"deltaTime": 300,
				"channel": 1,
				"type": "channel",
				"noteNumber": 48,
				"velocity": 105,
				"subtype": "noteOn"
			},
			{
				"deltaTime": 180,
				"channel": 1,
				"type": "channel",
				"subtype": "noteOff",
				"noteNumber": 48,
				"velocity": 64
			},
			{
				"deltaTime": 60,
				"channel": 1,
				"type": "channel",
				"noteNumber": 48,
				"velocity": 114,
				"subtype": "noteOn"
			},
			{
				"deltaTime": 180,
				"channel": 1,
				"type": "channel",
				"subtype": "noteOff",
				"noteNumber": 48,
				"velocity": 64
			},
			{
				"deltaTime": 60,
				"channel": 1,
				"type": "channel",
				"noteNumber": 50,
				"velocity": 122,
				"subtype": "noteOn"
			},
			{
				"deltaTime": 180,
				"channel": 1,
				"type": "channel",
				"subtype": "noteOff",
				"noteNumber": 50,
				"velocity": 64
			},
			{
				"deltaTime": 60,
				"channel": 1,
				"type": "channel",
				"noteNumber": 33,
				"velocity": 114,
				"subtype": "noteOn"
			},
			{
				"deltaTime": 180,
				"channel": 1,
				"type": "channel",
				"subtype": "noteOff",
				"noteNumber": 33,
				"velocity": 64
			},
			{
				"deltaTime": 60,
				"channel": 1,
				"type": "channel",
				"noteNumber": 43,
				"velocity": 114,
				"subtype": "noteOn"
			},
			{
				"deltaTime": 180,
				"channel": 1,
				"type": "channel",
				"subtype": "noteOff",
				"noteNumber": 43,
				"velocity": 64
			},
			{
				"deltaTime": 60,
				"channel": 1,
				"type": "channel",
				"noteNumber": 37,
				"velocity": 114,
				"subtype": "noteOn"
			},
			{
				"deltaTime": 180,
				"channel": 1,
				"type": "channel",
				"subtype": "noteOff",
				"noteNumber": 37,
				"velocity": 64
			},
			{
				"deltaTime": 60,
				"channel": 1,
				"type": "channel",
				"noteNumber": 45,
				"velocity": 115,
				"subtype": "noteOn"
			},
			{
				"deltaTime": 300,
				"channel": 1,
				"type": "channel",
				"subtype": "noteOff",
				"noteNumber": 45,
				"velocity": 64
			},
			{
				"deltaTime": 60,
				"channel": 1,
				"type": "channel",
				"noteNumber": 43,
				"velocity": 117,
				"subtype": "noteOn"
			},
			{
				"deltaTime": 90,
				"channel": 1,
				"type": "channel",
				"subtype": "noteOff",
				"noteNumber": 43,
				"velocity": 64
			},
			{
				"deltaTime": 30,
				"channel": 1,
				"type": "channel",
				"noteNumber": 45,
				"velocity": 116,
				"subtype": "noteOn"
			},
			{
				"deltaTime": 180,
				"channel": 1,
				"type": "channel",
				"subtype": "noteOff",
				"noteNumber": 45,
				"velocity": 64
			},
			{
				"deltaTime": 60,
				"channel": 1,
				"type": "channel",
				"noteNumber": 38,
				"velocity": 114,
				"subtype": "noteOn"
			},
			{
				"deltaTime": 180,
				"channel": 1,
				"type": "channel",
				"subtype": "noteOff",
				"noteNumber": 38,
				"velocity": 64
			},
			{
				"deltaTime": 60,
				"channel": 1,
				"type": "channel",
				"noteNumber": 36,
				"velocity": 120,
				"subtype": "noteOn"
			},
			{
				"deltaTime": 180,
				"channel": 1,
				"type": "channel",
				"subtype": "noteOff",
				"noteNumber": 36,
				"velocity": 64
			},
			{
				"deltaTime": 60,
				"channel": 1,
				"type": "channel",
				"noteNumber": 33,
				"velocity": 105,
				"subtype": "noteOn"
			},
			{
				"deltaTime": 180,
				"channel": 1,
				"type": "channel",
				"subtype": "noteOff",
				"noteNumber": 33,
				"velocity": 64
			},
			{
				"deltaTime": 60,
				"channel": 1,
				"type": "channel",
				"noteNumber": 45,
				"velocity": 109,
				"subtype": "noteOn"
			},
			{
				"deltaTime": 180,
				"channel": 1,
				"type": "channel",
				"subtype": "noteOff",
				"noteNumber": 45,
				"velocity": 64
			},
			{
				"deltaTime": 60,
				"channel": 1,
				"type": "channel",
				"noteNumber": 43,
				"velocity": 118,
				"subtype": "noteOn"
			},
			{
				"deltaTime": 180,
				"channel": 1,
				"type": "channel",
				"subtype": "noteOff",
				"noteNumber": 43,
				"velocity": 64
			},
			{
				"deltaTime": 60,
				"channel": 1,
				"type": "channel",
				"noteNumber": 45,
				"velocity": 114,
				"subtype": "noteOn"
			},
			{
				"deltaTime": 420,
				"channel": 1,
				"type": "channel",
				"subtype": "noteOff",
				"noteNumber": 45,
				"velocity": 64
			},
			{
				"deltaTime": 60,
				"channel": 1,
				"type": "channel",
				"noteNumber": 38,
				"velocity": 115,
				"subtype": "noteOn"
			},
			{
				"deltaTime": 180,
				"channel": 1,
				"type": "channel",
				"subtype": "noteOff",
				"noteNumber": 38,
				"velocity": 64
			},
			{
				"deltaTime": 60,
				"channel": 1,
				"type": "channel",
				"noteNumber": 39,
				"velocity": 116,
				"subtype": "noteOn"
			},
			{
				"deltaTime": 90,
				"channel": 1,
				"type": "channel",
				"subtype": "noteOff",
				"noteNumber": 39,
				"velocity": 64
			},
			{
				"deltaTime": 30,
				"channel": 1,
				"type": "channel",
				"noteNumber": 39,
				"velocity": 114,
				"subtype": "noteOn"
			},
			{
				"deltaTime": 90,
				"channel": 1,
				"type": "channel",
				"subtype": "noteOff",
				"noteNumber": 39,
				"velocity": 64
			},
			{
				"deltaTime": 30,
				"channel": 1,
				"type": "channel",
				"noteNumber": 40,
				"velocity": 107,
				"subtype": "noteOn"
			},
			{
				"deltaTime": 180,
				"channel": 1,
				"type": "channel",
				"subtype": "noteOff",
				"noteNumber": 40,
				"velocity": 64
			},
			{
				"deltaTime": 60,
				"channel": 1,
				"type": "channel",
				"noteNumber": 40,
				"velocity": 113,
				"subtype": "noteOn"
			},
			{
				"deltaTime": 180,
				"channel": 1,
				"type": "channel",
				"subtype": "noteOff",
				"noteNumber": 40,
				"velocity": 64
			},
			{
				"deltaTime": 60,
				"channel": 1,
				"type": "channel",
				"noteNumber": 40,
				"velocity": 113,
				"subtype": "noteOn"
			},
			{
				"deltaTime": 90,
				"channel": 1,
				"type": "channel",
				"subtype": "noteOff",
				"noteNumber": 40,
				"velocity": 64
			},
			{
				"deltaTime": 30,
				"channel": 1,
				"type": "channel",
				"noteNumber": 38,
				"velocity": 119,
				"subtype": "noteOn"
			},
			{
				"deltaTime": 90,
				"channel": 1,
				"type": "channel",
				"subtype": "noteOff",
				"noteNumber": 38,
				"velocity": 64
			},
			{
				"deltaTime": 30,
				"channel": 1,
				"type": "channel",
				"noteNumber": 40,
				"velocity": 114,
				"subtype": "noteOn"
			},
			{
				"deltaTime": 180,
				"channel": 1,
				"type": "channel",
				"subtype": "noteOff",
				"noteNumber": 40,
				"velocity": 64
			},
			{
				"deltaTime": 60,
				"channel": 1,
				"type": "channel",
				"noteNumber": 40,
				"velocity": 114,
				"subtype": "noteOn"
			},
			{
				"deltaTime": 90,
				"channel": 1,
				"type": "channel",
				"subtype": "noteOff",
				"noteNumber": 40,
				"velocity": 64
			},
			{
				"deltaTime": 30,
				"channel": 1,
				"type": "channel",
				"noteNumber": 38,
				"velocity": 114,
				"subtype": "noteOn"
			},
			{
				"deltaTime": 90,
				"channel": 1,
				"type": "channel",
				"subtype": "noteOff",
				"noteNumber": 38,
				"velocity": 64
			},
			{
				"deltaTime": 30,
				"channel": 1,
				"type": "channel",
				"noteNumber": 40,
				"velocity": 114,
				"subtype": "noteOn"
			},
			{
				"deltaTime": 180,
				"channel": 1,
				"type": "channel",
				"subtype": "noteOff",
				"noteNumber": 40,
				"velocity": 64
			},
			{
				"deltaTime": 60,
				"channel": 1,
				"type": "channel",
				"noteNumber": 40,
				"velocity": 110,
				"subtype": "noteOn"
			},
			{
				"deltaTime": 90,
				"channel": 1,
				"type": "channel",
				"subtype": "noteOff",
				"noteNumber": 40,
				"velocity": 64
			},
			{
				"deltaTime": 30,
				"channel": 1,
				"type": "channel",
				"noteNumber": 38,
				"velocity": 110,
				"subtype": "noteOn"
			},
			{
				"deltaTime": 90,
				"channel": 1,
				"type": "channel",
				"subtype": "noteOff",
				"noteNumber": 38,
				"velocity": 64
			},
			{
				"deltaTime": 30,
				"channel": 1,
				"type": "channel",
				"noteNumber": 40,
				"velocity": 104,
				"subtype": "noteOn"
			},
			{
				"deltaTime": 180,
				"channel": 1,
				"type": "channel",
				"subtype": "noteOff",
				"noteNumber": 40,
				"velocity": 64
			},
			{
				"deltaTime": 60,
				"channel": 1,
				"type": "channel",
				"noteNumber": 39,
				"velocity": 120,
				"subtype": "noteOn"
			},
			{
				"deltaTime": 180,
				"channel": 1,
				"type": "channel",
				"subtype": "noteOff",
				"noteNumber": 39,
				"velocity": 64
			},
			{
				"deltaTime": 60,
				"channel": 1,
				"type": "channel",
				"noteNumber": 38,
				"velocity": 104,
				"subtype": "noteOn"
			},
			{
				"deltaTime": 180,
				"channel": 1,
				"type": "channel",
				"subtype": "noteOff",
				"noteNumber": 38,
				"velocity": 64
			},
			{
				"deltaTime": 60,
				"channel": 1,
				"type": "channel",
				"noteNumber": 38,
				"velocity": 107,
				"subtype": "noteOn"
			},
			{
				"deltaTime": 180,
				"channel": 1,
				"type": "channel",
				"subtype": "noteOff",
				"noteNumber": 38,
				"velocity": 64
			},
			{
				"deltaTime": 60,
				"channel": 1,
				"type": "channel",
				"noteNumber": 38,
				"velocity": 116,
				"subtype": "noteOn"
			},
			{
				"deltaTime": 180,
				"channel": 1,
				"type": "channel",
				"subtype": "noteOff",
				"noteNumber": 38,
				"velocity": 64
			},
			{
				"deltaTime": 60,
				"channel": 1,
				"type": "channel",
				"noteNumber": 38,
				"velocity": 112,
				"subtype": "noteOn"
			},
			{
				"deltaTime": 180,
				"channel": 1,
				"type": "channel",
				"subtype": "noteOff",
				"noteNumber": 38,
				"velocity": 64
			},
			{
				"deltaTime": 60,
				"channel": 1,
				"type": "channel",
				"noteNumber": 38,
				"velocity": 114,
				"subtype": "noteOn"
			},
			{
				"deltaTime": 180,
				"channel": 1,
				"type": "channel",
				"subtype": "noteOff",
				"noteNumber": 38,
				"velocity": 64
			},
			{
				"deltaTime": 60,
				"channel": 1,
				"type": "channel",
				"noteNumber": 38,
				"velocity": 116,
				"subtype": "noteOn"
			},
			{
				"deltaTime": 180,
				"channel": 1,
				"type": "channel",
				"subtype": "noteOff",
				"noteNumber": 38,
				"velocity": 64
			},
			{
				"deltaTime": 60,
				"channel": 1,
				"type": "channel",
				"noteNumber": 36,
				"velocity": 113,
				"subtype": "noteOn"
			},
			{
				"deltaTime": 180,
				"channel": 1,
				"type": "channel",
				"subtype": "noteOff",
				"noteNumber": 36,
				"velocity": 64
			},
			{
				"deltaTime": 60,
				"channel": 1,
				"type": "channel",
				"noteNumber": 36,
				"velocity": 110,
				"subtype": "noteOn"
			},
			{
				"deltaTime": 180,
				"channel": 1,
				"type": "channel",
				"subtype": "noteOff",
				"noteNumber": 36,
				"velocity": 64
			},
			{
				"deltaTime": 60,
				"channel": 1,
				"type": "channel",
				"noteNumber": 33,
				"velocity": 114,
				"subtype": "noteOn"
			},
			{
				"deltaTime": 180,
				"channel": 1,
				"type": "channel",
				"subtype": "noteOff",
				"noteNumber": 33,
				"velocity": 64
			},
			{
				"deltaTime": 60,
				"channel": 1,
				"type": "channel",
				"noteNumber": 33,
				"velocity": 113,
				"subtype": "noteOn"
			},
			{
				"deltaTime": 180,
				"channel": 1,
				"type": "channel",
				"subtype": "noteOff",
				"noteNumber": 33,
				"velocity": 64
			},
			{
				"deltaTime": 60,
				"channel": 1,
				"type": "channel",
				"noteNumber": 37,
				"velocity": 122,
				"subtype": "noteOn"
			},
			{
				"deltaTime": 180,
				"channel": 1,
				"type": "channel",
				"subtype": "noteOff",
				"noteNumber": 37,
				"velocity": 64
			},
			{
				"deltaTime": 60,
				"channel": 1,
				"type": "channel",
				"noteNumber": 37,
				"velocity": 123,
				"subtype": "noteOn"
			},
			{
				"deltaTime": 180,
				"channel": 1,
				"type": "channel",
				"subtype": "noteOff",
				"noteNumber": 37,
				"velocity": 64
			},
			{
				"deltaTime": 60,
				"channel": 1,
				"type": "channel",
				"noteNumber": 38,
				"velocity": 118,
				"subtype": "noteOn"
			},
			{
				"deltaTime": 180,
				"channel": 1,
				"type": "channel",
				"subtype": "noteOff",
				"noteNumber": 38,
				"velocity": 64
			},
			{
				"deltaTime": 60,
				"channel": 1,
				"type": "channel",
				"noteNumber": 38,
				"velocity": 114,
				"subtype": "noteOn"
			},
			{
				"deltaTime": 180,
				"channel": 1,
				"type": "channel",
				"subtype": "noteOff",
				"noteNumber": 38,
				"velocity": 64
			},
			{
				"deltaTime": 60,
				"channel": 1,
				"type": "channel",
				"noteNumber": 39,
				"velocity": 117,
				"subtype": "noteOn"
			},
			{
				"deltaTime": 180,
				"channel": 1,
				"type": "channel",
				"subtype": "noteOff",
				"noteNumber": 39,
				"velocity": 64
			},
			{
				"deltaTime": 60,
				"channel": 1,
				"type": "channel",
				"noteNumber": 39,
				"velocity": 122,
				"subtype": "noteOn"
			},
			{
				"deltaTime": 180,
				"channel": 1,
				"type": "channel",
				"subtype": "noteOff",
				"noteNumber": 39,
				"velocity": 64
			},
			{
				"deltaTime": 60,
				"channel": 1,
				"type": "channel",
				"noteNumber": 40,
				"velocity": 119,
				"subtype": "noteOn"
			},
			{
				"deltaTime": 90,
				"channel": 1,
				"type": "channel",
				"subtype": "noteOff",
				"noteNumber": 40,
				"velocity": 64
			},
			{
				"deltaTime": 30,
				"channel": 1,
				"type": "channel",
				"noteNumber": 40,
				"velocity": 107,
				"subtype": "noteOn"
			},
			{
				"deltaTime": 90,
				"channel": 1,
				"type": "channel",
				"subtype": "noteOff",
				"noteNumber": 40,
				"velocity": 64
			},
			{
				"deltaTime": 30,
				"channel": 1,
				"type": "channel",
				"noteNumber": 40,
				"velocity": 114,
				"subtype": "noteOn"
			},
			{
				"deltaTime": 180,
				"channel": 1,
				"type": "channel",
				"subtype": "noteOff",
				"noteNumber": 40,
				"velocity": 64
			},
			{
				"deltaTime": 60,
				"channel": 1,
				"type": "channel",
				"noteNumber": 52,
				"velocity": 122,
				"subtype": "noteOn"
			},
			{
				"deltaTime": 180,
				"channel": 1,
				"type": "channel",
				"subtype": "noteOff",
				"noteNumber": 52,
				"velocity": 64
			},
			{
				"deltaTime": 60,
				"channel": 1,
				"type": "channel",
				"noteNumber": 40,
				"velocity": 113,
				"subtype": "noteOn"
			},
			{
				"deltaTime": 90,
				"channel": 1,
				"type": "channel",
				"subtype": "noteOff",
				"noteNumber": 40,
				"velocity": 64
			},
			{
				"deltaTime": 30,
				"channel": 1,
				"type": "channel",
				"noteNumber": 52,
				"velocity": 109,
				"subtype": "noteOn"
			},
			{
				"deltaTime": 300,
				"channel": 1,
				"type": "channel",
				"subtype": "noteOff",
				"noteNumber": 52,
				"velocity": 64
			},
			{
				"deltaTime": 60,
				"channel": 1,
				"type": "channel",
				"noteNumber": 40,
				"velocity": 116,
				"subtype": "noteOn"
			},
			{
				"deltaTime": 90,
				"channel": 1,
				"type": "channel",
				"subtype": "noteOff",
				"noteNumber": 40,
				"velocity": 64
			},
			{
				"deltaTime": 30,
				"channel": 1,
				"type": "channel",
				"noteNumber": 40,
				"velocity": 112,
				"subtype": "noteOn"
			},
			{
				"deltaTime": 90,
				"channel": 1,
				"type": "channel",
				"subtype": "noteOff",
				"noteNumber": 40,
				"velocity": 64
			},
			{
				"deltaTime": 30,
				"channel": 1,
				"type": "channel",
				"noteNumber": 38,
				"velocity": 110,
				"subtype": "noteOn"
			},
			{
				"deltaTime": 90,
				"channel": 1,
				"type": "channel",
				"subtype": "noteOff",
				"noteNumber": 38,
				"velocity": 64
			},
			{
				"deltaTime": 30,
				"channel": 1,
				"type": "channel",
				"noteNumber": 36,
				"velocity": 123,
				"subtype": "noteOn"
			},
			{
				"deltaTime": 90,
				"channel": 1,
				"type": "channel",
				"subtype": "noteOff",
				"noteNumber": 36,
				"velocity": 64
			},
			{
				"deltaTime": 30,
				"channel": 1,
				"type": "channel",
				"noteNumber": 31,
				"velocity": 110,
				"subtype": "noteOn"
			},
			{
				"deltaTime": 180,
				"channel": 1,
				"type": "channel",
				"subtype": "noteOff",
				"noteNumber": 31,
				"velocity": 64
			},
			{
				"deltaTime": 60,
				"channel": 1,
				"type": "channel",
				"noteNumber": 33,
				"velocity": 119,
				"subtype": "noteOn"
			},
			{
				"deltaTime": 180,
				"channel": 1,
				"type": "channel",
				"subtype": "noteOff",
				"noteNumber": 33,
				"velocity": 64
			},
			{
				"deltaTime": 60,
				"channel": 1,
				"type": "channel",
				"noteNumber": 45,
				"velocity": 119,
				"subtype": "noteOn"
			},
			{
				"deltaTime": 180,
				"channel": 1,
				"type": "channel",
				"subtype": "noteOff",
				"noteNumber": 45,
				"velocity": 64
			},
			{
				"deltaTime": 60,
				"channel": 1,
				"type": "channel",
				"noteNumber": 43,
				"velocity": 114,
				"subtype": "noteOn"
			},
			{
				"deltaTime": 180,
				"channel": 1,
				"type": "channel",
				"subtype": "noteOff",
				"noteNumber": 43,
				"velocity": 64
			},
			{
				"deltaTime": 60,
				"channel": 1,
				"type": "channel",
				"noteNumber": 45,
				"velocity": 103,
				"subtype": "noteOn"
			},
			{
				"deltaTime": 180,
				"channel": 1,
				"type": "channel",
				"subtype": "noteOff",
				"noteNumber": 45,
				"velocity": 64
			},
			{
				"deltaTime": 60,
				"channel": 1,
				"type": "channel",
				"noteNumber": 38,
				"velocity": 115,
				"subtype": "noteOn"
			},
			{
				"deltaTime": 180,
				"channel": 1,
				"type": "channel",
				"subtype": "noteOff",
				"noteNumber": 38,
				"velocity": 64
			},
			{
				"deltaTime": 60,
				"channel": 1,
				"type": "channel",
				"noteNumber": 38,
				"velocity": 113,
				"subtype": "noteOn"
			},
			{
				"deltaTime": 180,
				"channel": 1,
				"type": "channel",
				"subtype": "noteOff",
				"noteNumber": 38,
				"velocity": 64
			},
			{
				"deltaTime": 60,
				"channel": 1,
				"type": "channel",
				"noteNumber": 36,
				"velocity": 114,
				"subtype": "noteOn"
			},
			{
				"deltaTime": 180,
				"channel": 1,
				"type": "channel",
				"subtype": "noteOff",
				"noteNumber": 36,
				"velocity": 64
			},
			{
				"deltaTime": 60,
				"channel": 1,
				"type": "channel",
				"noteNumber": 33,
				"velocity": 104,
				"subtype": "noteOn"
			},
			{
				"deltaTime": 180,
				"channel": 1,
				"type": "channel",
				"subtype": "noteOff",
				"noteNumber": 33,
				"velocity": 64
			},
			{
				"deltaTime": 60,
				"channel": 1,
				"type": "channel",
				"noteNumber": 33,
				"velocity": 112,
				"subtype": "noteOn"
			},
			{
				"deltaTime": 180,
				"channel": 1,
				"type": "channel",
				"subtype": "noteOff",
				"noteNumber": 33,
				"velocity": 64
			},
			{
				"deltaTime": 60,
				"channel": 1,
				"type": "channel",
				"noteNumber": 45,
				"velocity": 119,
				"subtype": "noteOn"
			},
			{
				"deltaTime": 180,
				"channel": 1,
				"type": "channel",
				"subtype": "noteOff",
				"noteNumber": 45,
				"velocity": 64
			},
			{
				"deltaTime": 60,
				"channel": 1,
				"type": "channel",
				"noteNumber": 43,
				"velocity": 113,
				"subtype": "noteOn"
			},
			{
				"deltaTime": 180,
				"channel": 1,
				"type": "channel",
				"subtype": "noteOff",
				"noteNumber": 43,
				"velocity": 64
			},
			{
				"deltaTime": 60,
				"channel": 1,
				"type": "channel",
				"noteNumber": 45,
				"velocity": 115,
				"subtype": "noteOn"
			},
			{
				"deltaTime": 180,
				"channel": 1,
				"type": "channel",
				"subtype": "noteOff",
				"noteNumber": 45,
				"velocity": 64
			},
			{
				"deltaTime": 60,
				"channel": 1,
				"type": "channel",
				"noteNumber": 38,
				"velocity": 116,
				"subtype": "noteOn"
			},
			{
				"deltaTime": 2,
				"channel": 1,
				"type": "channel",
				"subtype": "noteOff",
				"noteNumber": 38,
				"velocity": 64
			},
			{
				"deltaTime": 118,
				"channel": 1,
				"type": "channel",
				"noteNumber": 38,
				"velocity": 112,
				"subtype": "noteOn"
			},
			{
				"deltaTime": 90,
				"channel": 1,
				"type": "channel",
				"subtype": "noteOff",
				"noteNumber": 38,
				"velocity": 64
			},
			{
				"deltaTime": 30,
				"channel": 1,
				"type": "channel",
				"noteNumber": 38,
				"velocity": 111,
				"subtype": "noteOn"
			},
			{
				"deltaTime": 180,
				"channel": 1,
				"type": "channel",
				"subtype": "noteOff",
				"noteNumber": 38,
				"velocity": 64
			},
			{
				"deltaTime": 60,
				"channel": 1,
				"type": "channel",
				"noteNumber": 36,
				"velocity": 119,
				"subtype": "noteOn"
			},
			{
				"deltaTime": 180,
				"channel": 1,
				"type": "channel",
				"subtype": "noteOff",
				"noteNumber": 36,
				"velocity": 64
			},
			{
				"deltaTime": 60,
				"channel": 1,
				"type": "channel",
				"noteNumber": 33,
				"velocity": 111,
				"subtype": "noteOn"
			},
			{
				"deltaTime": 180,
				"channel": 1,
				"type": "channel",
				"subtype": "noteOff",
				"noteNumber": 33,
				"velocity": 64
			},
			{
				"deltaTime": 60,
				"channel": 1,
				"type": "channel",
				"noteNumber": 33,
				"velocity": 116,
				"subtype": "noteOn"
			},
			{
				"deltaTime": 180,
				"channel": 1,
				"type": "channel",
				"subtype": "noteOff",
				"noteNumber": 33,
				"velocity": 64
			},
			{
				"deltaTime": 60,
				"channel": 1,
				"type": "channel",
				"noteNumber": 45,
				"velocity": 115,
				"subtype": "noteOn"
			},
			{
				"deltaTime": 180,
				"channel": 1,
				"type": "channel",
				"subtype": "noteOff",
				"noteNumber": 45,
				"velocity": 64
			},
			{
				"deltaTime": 60,
				"channel": 1,
				"type": "channel",
				"noteNumber": 43,
				"velocity": 114,
				"subtype": "noteOn"
			},
			{
				"deltaTime": 180,
				"channel": 1,
				"type": "channel",
				"subtype": "noteOff",
				"noteNumber": 43,
				"velocity": 64
			},
			{
				"deltaTime": 60,
				"channel": 1,
				"type": "channel",
				"noteNumber": 45,
				"velocity": 110,
				"subtype": "noteOn"
			},
			{
				"deltaTime": 180,
				"channel": 1,
				"type": "channel",
				"subtype": "noteOff",
				"noteNumber": 45,
				"velocity": 64
			},
			{
				"deltaTime": 60,
				"channel": 1,
				"type": "channel",
				"noteNumber": 38,
				"velocity": 106,
				"subtype": "noteOn"
			},
			{
				"deltaTime": 2,
				"channel": 1,
				"type": "channel",
				"subtype": "noteOff",
				"noteNumber": 38,
				"velocity": 64
			},
			{
				"deltaTime": 118,
				"channel": 1,
				"type": "channel",
				"noteNumber": 38,
				"velocity": 108,
				"subtype": "noteOn"
			},
			{
				"deltaTime": 90,
				"channel": 1,
				"type": "channel",
				"subtype": "noteOff",
				"noteNumber": 38,
				"velocity": 64
			},
			{
				"deltaTime": 30,
				"channel": 1,
				"type": "channel",
				"noteNumber": 38,
				"velocity": 122,
				"subtype": "noteOn"
			},
			{
				"deltaTime": 180,
				"channel": 1,
				"type": "channel",
				"subtype": "noteOff",
				"noteNumber": 38,
				"velocity": 64
			},
			{
				"deltaTime": 60,
				"channel": 1,
				"type": "channel",
				"noteNumber": 36,
				"velocity": 105,
				"subtype": "noteOn"
			},
			{
				"deltaTime": 180,
				"channel": 1,
				"type": "channel",
				"subtype": "noteOff",
				"noteNumber": 36,
				"velocity": 64
			},
			{
				"deltaTime": 60,
				"channel": 1,
				"type": "channel",
				"noteNumber": 33,
				"velocity": 113,
				"subtype": "noteOn"
			},
			{
				"deltaTime": 180,
				"channel": 1,
				"type": "channel",
				"subtype": "noteOff",
				"noteNumber": 33,
				"velocity": 64
			},
			{
				"deltaTime": 60,
				"channel": 1,
				"type": "channel",
				"noteNumber": 33,
				"velocity": 118,
				"subtype": "noteOn"
			},
			{
				"deltaTime": 180,
				"channel": 1,
				"type": "channel",
				"subtype": "noteOff",
				"noteNumber": 33,
				"velocity": 64
			},
			{
				"deltaTime": 60,
				"channel": 1,
				"type": "channel",
				"noteNumber": 45,
				"velocity": 114,
				"subtype": "noteOn"
			},
			{
				"deltaTime": 180,
				"channel": 1,
				"type": "channel",
				"subtype": "noteOff",
				"noteNumber": 45,
				"velocity": 64
			},
			{
				"deltaTime": 60,
				"channel": 1,
				"type": "channel",
				"noteNumber": 43,
				"velocity": 113,
				"subtype": "noteOn"
			},
			{
				"deltaTime": 180,
				"channel": 1,
				"type": "channel",
				"subtype": "noteOff",
				"noteNumber": 43,
				"velocity": 64
			},
			{
				"deltaTime": 60,
				"channel": 1,
				"type": "channel",
				"noteNumber": 45,
				"velocity": 114,
				"subtype": "noteOn"
			},
			{
				"deltaTime": 180,
				"channel": 1,
				"type": "channel",
				"subtype": "noteOff",
				"noteNumber": 45,
				"velocity": 64
			},
			{
				"deltaTime": 60,
				"channel": 1,
				"type": "channel",
				"noteNumber": 45,
				"velocity": 123,
				"subtype": "noteOn"
			},
			{
				"deltaTime": 120,
				"channel": 1,
				"type": "channel",
				"subtype": "noteOff",
				"noteNumber": 45,
				"velocity": 64
			},
			{
				"deltaTime": 0,
				"channel": 1,
				"type": "channel",
				"noteNumber": 38,
				"velocity": 122,
				"subtype": "noteOn"
			},
			{
				"deltaTime": 90,
				"channel": 1,
				"type": "channel",
				"subtype": "noteOff",
				"noteNumber": 38,
				"velocity": 64
			},
			{
				"deltaTime": 30,
				"channel": 1,
				"type": "channel",
				"noteNumber": 50,
				"velocity": 124,
				"subtype": "noteOn"
			},
			{
				"deltaTime": 180,
				"channel": 1,
				"type": "channel",
				"subtype": "noteOff",
				"noteNumber": 50,
				"velocity": 64
			},
			{
				"deltaTime": 60,
				"channel": 1,
				"type": "channel",
				"noteNumber": 48,
				"velocity": 108,
				"subtype": "noteOn"
			},
			{
				"deltaTime": 180,
				"channel": 1,
				"type": "channel",
				"subtype": "noteOff",
				"noteNumber": 48,
				"velocity": 64
			},
			{
				"deltaTime": 60,
				"channel": 1,
				"type": "channel",
				"noteNumber": 50,
				"velocity": 111,
				"subtype": "noteOn"
			},
			{
				"deltaTime": 180,
				"channel": 1,
				"type": "channel",
				"subtype": "noteOff",
				"noteNumber": 50,
				"velocity": 64
			},
			{
				"deltaTime": 60,
				"channel": 1,
				"type": "channel",
				"noteNumber": 38,
				"velocity": 113,
				"subtype": "noteOn"
			},
			{
				"deltaTime": 180,
				"channel": 1,
				"type": "channel",
				"subtype": "noteOff",
				"noteNumber": 38,
				"velocity": 64
			},
			{
				"deltaTime": 60,
				"channel": 1,
				"type": "channel",
				"noteNumber": 50,
				"velocity": 113,
				"subtype": "noteOn"
			},
			{
				"deltaTime": 180,
				"channel": 1,
				"type": "channel",
				"subtype": "noteOff",
				"noteNumber": 50,
				"velocity": 64
			},
			{
				"deltaTime": 60,
				"channel": 1,
				"type": "channel",
				"noteNumber": 48,
				"velocity": 108,
				"subtype": "noteOn"
			},
			{
				"deltaTime": 180,
				"channel": 1,
				"type": "channel",
				"subtype": "noteOff",
				"noteNumber": 48,
				"velocity": 64
			},
			{
				"deltaTime": 60,
				"channel": 1,
				"type": "channel",
				"noteNumber": 50,
				"velocity": 117,
				"subtype": "noteOn"
			},
			{
				"deltaTime": 300,
				"channel": 1,
				"type": "channel",
				"subtype": "noteOff",
				"noteNumber": 50,
				"velocity": 64
			},
			{
				"deltaTime": 60,
				"channel": 1,
				"type": "channel",
				"noteNumber": 48,
				"velocity": 106,
				"subtype": "noteOn"
			},
			{
				"deltaTime": 90,
				"channel": 1,
				"type": "channel",
				"subtype": "noteOff",
				"noteNumber": 48,
				"velocity": 64
			},
			{
				"deltaTime": 30,
				"channel": 1,
				"type": "channel",
				"noteNumber": 50,
				"velocity": 114,
				"subtype": "noteOn"
			},
			{
				"deltaTime": 180,
				"channel": 1,
				"type": "channel",
				"subtype": "noteOff",
				"noteNumber": 50,
				"velocity": 64
			},
			{
				"deltaTime": 60,
				"channel": 1,
				"type": "channel",
				"noteNumber": 48,
				"velocity": 117,
				"subtype": "noteOn"
			},
			{
				"deltaTime": 180,
				"channel": 1,
				"type": "channel",
				"subtype": "noteOff",
				"noteNumber": 48,
				"velocity": 64
			},
			{
				"deltaTime": 60,
				"channel": 1,
				"type": "channel",
				"noteNumber": 41,
				"velocity": 115,
				"subtype": "noteOn"
			},
			{
				"deltaTime": 180,
				"channel": 1,
				"type": "channel",
				"subtype": "noteOff",
				"noteNumber": 41,
				"velocity": 64
			},
			{
				"deltaTime": 60,
				"channel": 1,
				"type": "channel",
				"noteNumber": 38,
				"velocity": 111,
				"subtype": "noteOn"
			},
			{
				"deltaTime": 180,
				"channel": 1,
				"type": "channel",
				"subtype": "noteOff",
				"noteNumber": 38,
				"velocity": 64
			},
			{
				"deltaTime": 60,
				"channel": 1,
				"type": "channel",
				"noteNumber": 50,
				"velocity": 115,
				"subtype": "noteOn"
			},
			{
				"deltaTime": 180,
				"channel": 1,
				"type": "channel",
				"subtype": "noteOff",
				"noteNumber": 50,
				"velocity": 64
			},
			{
				"deltaTime": 60,
				"channel": 1,
				"type": "channel",
				"noteNumber": 48,
				"velocity": 114,
				"subtype": "noteOn"
			},
			{
				"deltaTime": 180,
				"channel": 1,
				"type": "channel",
				"subtype": "noteOff",
				"noteNumber": 48,
				"velocity": 64
			},
			{
				"deltaTime": 60,
				"channel": 1,
				"type": "channel",
				"noteNumber": 50,
				"velocity": 114,
				"subtype": "noteOn"
			},
			{
				"deltaTime": 180,
				"channel": 1,
				"type": "channel",
				"subtype": "noteOff",
				"noteNumber": 50,
				"velocity": 64
			},
			{
				"deltaTime": 300,
				"channel": 1,
				"type": "channel",
				"noteNumber": 52,
				"velocity": 114,
				"subtype": "noteOn"
			},
			{
				"deltaTime": 180,
				"channel": 1,
				"type": "channel",
				"subtype": "noteOff",
				"noteNumber": 52,
				"velocity": 64
			},
			{
				"deltaTime": 60,
				"channel": 1,
				"type": "channel",
				"noteNumber": 50,
				"velocity": 114,
				"subtype": "noteOn"
			},
			{
				"deltaTime": 180,
				"channel": 1,
				"type": "channel",
				"subtype": "noteOff",
				"noteNumber": 50,
				"velocity": 64
			},
			{
				"deltaTime": 60,
				"channel": 1,
				"type": "channel",
				"noteNumber": 48,
				"velocity": 115,
				"subtype": "noteOn"
			},
			{
				"deltaTime": 180,
				"channel": 1,
				"type": "channel",
				"subtype": "noteOff",
				"noteNumber": 48,
				"velocity": 64
			},
			{
				"deltaTime": 60,
				"channel": 1,
				"type": "channel",
				"noteNumber": 45,
				"velocity": 121,
				"subtype": "noteOn"
			},
			{
				"deltaTime": 180,
				"channel": 1,
				"type": "channel",
				"subtype": "noteOff",
				"noteNumber": 45,
				"velocity": 64
			},
			{
				"deltaTime": 60,
				"channel": 1,
				"type": "channel",
				"noteNumber": 45,
				"velocity": 114,
				"subtype": "noteOn"
			},
			{
				"deltaTime": 180,
				"channel": 1,
				"type": "channel",
				"subtype": "noteOff",
				"noteNumber": 45,
				"velocity": 64
			},
			{
				"deltaTime": 60,
				"channel": 1,
				"type": "channel",
				"noteNumber": 43,
				"velocity": 110,
				"subtype": "noteOn"
			},
			{
				"deltaTime": 180,
				"channel": 1,
				"type": "channel",
				"subtype": "noteOff",
				"noteNumber": 43,
				"velocity": 64
			},
			{
				"deltaTime": 60,
				"channel": 1,
				"type": "channel",
				"noteNumber": 45,
				"velocity": 114,
				"subtype": "noteOn"
			},
			{
				"deltaTime": 300,
				"channel": 1,
				"type": "channel",
				"subtype": "noteOff",
				"noteNumber": 45,
				"velocity": 64
			},
			{
				"deltaTime": 60,
				"channel": 1,
				"type": "channel",
				"noteNumber": 38,
				"velocity": 118,
				"subtype": "noteOn"
			},
			{
				"deltaTime": 90,
				"channel": 1,
				"type": "channel",
				"subtype": "noteOff",
				"noteNumber": 38,
				"velocity": 64
			},
			{
				"deltaTime": 30,
				"channel": 1,
				"type": "channel",
				"noteNumber": 36,
				"velocity": 113,
				"subtype": "noteOn"
			},
			{
				"deltaTime": 180,
				"channel": 1,
				"type": "channel",
				"subtype": "noteOff",
				"noteNumber": 36,
				"velocity": 64
			},
			{
				"deltaTime": 60,
				"channel": 1,
				"type": "channel",
				"noteNumber": 37,
				"velocity": 118,
				"subtype": "noteOn"
			},
			{
				"deltaTime": 180,
				"channel": 1,
				"type": "channel",
				"subtype": "noteOff",
				"noteNumber": 37,
				"velocity": 64
			},
			{
				"deltaTime": 60,
				"channel": 1,
				"type": "channel",
				"noteNumber": 33,
				"velocity": 110,
				"subtype": "noteOn"
			},
			{
				"deltaTime": 180,
				"channel": 1,
				"type": "channel",
				"subtype": "noteOff",
				"noteNumber": 33,
				"velocity": 64
			},
			{
				"deltaTime": 60,
				"channel": 1,
				"type": "channel",
				"noteNumber": 33,
				"velocity": 115,
				"subtype": "noteOn"
			},
			{
				"deltaTime": 180,
				"channel": 1,
				"type": "channel",
				"subtype": "noteOff",
				"noteNumber": 33,
				"velocity": 64
			},
			{
				"deltaTime": 60,
				"channel": 1,
				"type": "channel",
				"noteNumber": 33,
				"velocity": 122,
				"subtype": "noteOn"
			},
			{
				"deltaTime": 180,
				"channel": 1,
				"type": "channel",
				"subtype": "noteOff",
				"noteNumber": 33,
				"velocity": 64
			},
			{
				"deltaTime": 60,
				"channel": 1,
				"type": "channel",
				"noteNumber": 31,
				"velocity": 111,
				"subtype": "noteOn"
			},
			{
				"deltaTime": 180,
				"channel": 1,
				"type": "channel",
				"subtype": "noteOff",
				"noteNumber": 31,
				"velocity": 64
			},
			{
				"deltaTime": 60,
				"channel": 1,
				"type": "channel",
				"noteNumber": 33,
				"velocity": 104,
				"subtype": "noteOn"
			},
			{
				"deltaTime": 180,
				"channel": 1,
				"type": "channel",
				"subtype": "noteOff",
				"noteNumber": 33,
				"velocity": 64
			},
			{
				"deltaTime": 60,
				"channel": 1,
				"type": "channel",
				"noteNumber": 33,
				"velocity": 115,
				"subtype": "noteOn"
			},
			{
				"deltaTime": 180,
				"channel": 1,
				"type": "channel",
				"subtype": "noteOff",
				"noteNumber": 33,
				"velocity": 64
			},
			{
				"deltaTime": 60,
				"channel": 1,
				"type": "channel",
				"noteNumber": 33,
				"velocity": 117,
				"subtype": "noteOn"
			},
			{
				"deltaTime": 90,
				"channel": 1,
				"type": "channel",
				"subtype": "noteOff",
				"noteNumber": 33,
				"velocity": 64
			},
			{
				"deltaTime": 30,
				"channel": 1,
				"type": "channel",
				"noteNumber": 31,
				"velocity": 114,
				"subtype": "noteOn"
			},
			{
				"deltaTime": 90,
				"channel": 1,
				"type": "channel",
				"subtype": "noteOff",
				"noteNumber": 31,
				"velocity": 64
			},
			{
				"deltaTime": 30,
				"channel": 1,
				"type": "channel",
				"noteNumber": 36,
				"velocity": 105,
				"subtype": "noteOn"
			},
			{
				"deltaTime": 180,
				"channel": 1,
				"type": "channel",
				"subtype": "noteOff",
				"noteNumber": 36,
				"velocity": 64
			},
			{
				"deltaTime": 60,
				"channel": 1,
				"type": "channel",
				"noteNumber": 38,
				"velocity": 113,
				"subtype": "noteOn"
			},
			{
				"deltaTime": 180,
				"channel": 1,
				"type": "channel",
				"subtype": "noteOff",
				"noteNumber": 38,
				"velocity": 64
			},
			{
				"deltaTime": 60,
				"channel": 1,
				"type": "channel",
				"noteNumber": 40,
				"velocity": 111,
				"subtype": "noteOn"
			},
			{
				"deltaTime": 180,
				"channel": 1,
				"type": "channel",
				"subtype": "noteOff",
				"noteNumber": 40,
				"velocity": 64
			},
			{
				"deltaTime": 60,
				"channel": 1,
				"type": "channel",
				"noteNumber": 52,
				"velocity": 122,
				"subtype": "noteOn"
			},
			{
				"deltaTime": 180,
				"channel": 1,
				"type": "channel",
				"subtype": "noteOff",
				"noteNumber": 52,
				"velocity": 64
			},
			{
				"deltaTime": 60,
				"channel": 1,
				"type": "channel",
				"noteNumber": 40,
				"velocity": 113,
				"subtype": "noteOn"
			},
			{
				"deltaTime": 180,
				"channel": 1,
				"type": "channel",
				"subtype": "noteOff",
				"noteNumber": 40,
				"velocity": 64
			},
			{
				"deltaTime": 60,
				"channel": 1,
				"type": "channel",
				"noteNumber": 40,
				"velocity": 119,
				"subtype": "noteOn"
			},
			{
				"deltaTime": 180,
				"channel": 1,
				"type": "channel",
				"subtype": "noteOff",
				"noteNumber": 40,
				"velocity": 64
			},
			{
				"deltaTime": 60,
				"channel": 1,
				"type": "channel",
				"noteNumber": 39,
				"velocity": 107,
				"subtype": "noteOn"
			},
			{
				"deltaTime": 180,
				"channel": 1,
				"type": "channel",
				"subtype": "noteOff",
				"noteNumber": 39,
				"velocity": 64
			},
			{
				"deltaTime": 60,
				"channel": 1,
				"type": "channel",
				"noteNumber": 40,
				"velocity": 105,
				"subtype": "noteOn"
			},
			{
				"deltaTime": 180,
				"channel": 1,
				"type": "channel",
				"subtype": "noteOff",
				"noteNumber": 40,
				"velocity": 64
			},
			{
				"deltaTime": 60,
				"channel": 1,
				"type": "channel",
				"noteNumber": 52,
				"velocity": 119,
				"subtype": "noteOn"
			},
			{
				"deltaTime": 180,
				"channel": 1,
				"type": "channel",
				"subtype": "noteOff",
				"noteNumber": 52,
				"velocity": 64
			},
			{
				"deltaTime": 60,
				"channel": 1,
				"type": "channel",
				"noteNumber": 40,
				"velocity": 108,
				"subtype": "noteOn"
			},
			{
				"deltaTime": 180,
				"channel": 1,
				"type": "channel",
				"subtype": "noteOff",
				"noteNumber": 40,
				"velocity": 64
			},
			{
				"deltaTime": 60,
				"channel": 1,
				"type": "channel",
				"noteNumber": 37,
				"velocity": 119,
				"subtype": "noteOn"
			},
			{
				"deltaTime": 180,
				"channel": 1,
				"type": "channel",
				"subtype": "noteOff",
				"noteNumber": 37,
				"velocity": 64
			},
			{
				"deltaTime": 60,
				"channel": 1,
				"type": "channel",
				"noteNumber": 38,
				"velocity": 124,
				"subtype": "noteOn"
			},
			{
				"deltaTime": 180,
				"channel": 1,
				"type": "channel",
				"subtype": "noteOff",
				"noteNumber": 38,
				"velocity": 64
			},
			{
				"deltaTime": 60,
				"channel": 1,
				"type": "channel",
				"noteNumber": 38,
				"velocity": 112,
				"subtype": "noteOn"
			},
			{
				"deltaTime": 180,
				"channel": 1,
				"type": "channel",
				"subtype": "noteOff",
				"noteNumber": 38,
				"velocity": 64
			},
			{
				"deltaTime": 60,
				"channel": 1,
				"type": "channel",
				"noteNumber": 38,
				"velocity": 122,
				"subtype": "noteOn"
			},
			{
				"deltaTime": 180,
				"channel": 1,
				"type": "channel",
				"subtype": "noteOff",
				"noteNumber": 38,
				"velocity": 64
			},
			{
				"deltaTime": 60,
				"channel": 1,
				"type": "channel",
				"noteNumber": 37,
				"velocity": 122,
				"subtype": "noteOn"
			},
			{
				"deltaTime": 180,
				"channel": 1,
				"type": "channel",
				"subtype": "noteOff",
				"noteNumber": 37,
				"velocity": 64
			},
			{
				"deltaTime": 60,
				"channel": 1,
				"type": "channel",
				"noteNumber": 38,
				"velocity": 114,
				"subtype": "noteOn"
			},
			{
				"deltaTime": 180,
				"channel": 1,
				"type": "channel",
				"subtype": "noteOff",
				"noteNumber": 38,
				"velocity": 64
			},
			{
				"deltaTime": 60,
				"channel": 1,
				"type": "channel",
				"noteNumber": 38,
				"velocity": 115,
				"subtype": "noteOn"
			},
			{
				"deltaTime": 180,
				"channel": 1,
				"type": "channel",
				"subtype": "noteOff",
				"noteNumber": 38,
				"velocity": 64
			},
			{
				"deltaTime": 60,
				"channel": 1,
				"type": "channel",
				"noteNumber": 38,
				"velocity": 109,
				"subtype": "noteOn"
			},
			{
				"deltaTime": 180,
				"channel": 1,
				"type": "channel",
				"subtype": "noteOff",
				"noteNumber": 38,
				"velocity": 64
			},
			{
				"deltaTime": 60,
				"channel": 1,
				"type": "channel",
				"noteNumber": 33,
				"velocity": 103,
				"subtype": "noteOn"
			},
			{
				"deltaTime": 180,
				"channel": 1,
				"type": "channel",
				"subtype": "noteOff",
				"noteNumber": 33,
				"velocity": 64
			},
			{
				"deltaTime": 60,
				"channel": 1,
				"type": "channel",
				"noteNumber": 33,
				"velocity": 121,
				"subtype": "noteOn"
			},
			{
				"deltaTime": 180,
				"channel": 1,
				"type": "channel",
				"subtype": "noteOff",
				"noteNumber": 33,
				"velocity": 64
			},
			{
				"deltaTime": 60,
				"channel": 1,
				"type": "channel",
				"noteNumber": 33,
				"velocity": 117,
				"subtype": "noteOn"
			},
			{
				"deltaTime": 180,
				"channel": 1,
				"type": "channel",
				"subtype": "noteOff",
				"noteNumber": 33,
				"velocity": 64
			},
			{
				"deltaTime": 60,
				"channel": 1,
				"type": "channel",
				"noteNumber": 33,
				"velocity": 113,
				"subtype": "noteOn"
			},
			{
				"deltaTime": 90,
				"channel": 1,
				"type": "channel",
				"subtype": "noteOff",
				"noteNumber": 33,
				"velocity": 64
			},
			{
				"deltaTime": 30,
				"channel": 1,
				"type": "channel",
				"noteNumber": 33,
				"velocity": 117,
				"subtype": "noteOn"
			},
			{
				"deltaTime": 90,
				"channel": 1,
				"type": "channel",
				"subtype": "noteOff",
				"noteNumber": 33,
				"velocity": 64
			},
			{
				"deltaTime": 30,
				"channel": 1,
				"type": "channel",
				"noteNumber": 33,
				"velocity": 103,
				"subtype": "noteOn"
			},
			{
				"deltaTime": 180,
				"channel": 1,
				"type": "channel",
				"subtype": "noteOff",
				"noteNumber": 33,
				"velocity": 64
			},
			{
				"deltaTime": 60,
				"channel": 1,
				"type": "channel",
				"noteNumber": 28,
				"velocity": 104,
				"subtype": "noteOn"
			},
			{
				"deltaTime": 90,
				"channel": 1,
				"type": "channel",
				"subtype": "noteOff",
				"noteNumber": 28,
				"velocity": 64
			},
			{
				"deltaTime": 30,
				"channel": 1,
				"type": "channel",
				"noteNumber": 28,
				"velocity": 116,
				"subtype": "noteOn"
			},
			{
				"deltaTime": 90,
				"channel": 1,
				"type": "channel",
				"subtype": "noteOff",
				"noteNumber": 28,
				"velocity": 64
			},
			{
				"deltaTime": 30,
				"channel": 1,
				"type": "channel",
				"noteNumber": 31,
				"velocity": 108,
				"subtype": "noteOn"
			},
			{
				"deltaTime": 180,
				"channel": 1,
				"type": "channel",
				"subtype": "noteOff",
				"noteNumber": 31,
				"velocity": 64
			},
			{
				"deltaTime": 60,
				"channel": 1,
				"type": "channel",
				"noteNumber": 32,
				"velocity": 116,
				"subtype": "noteOn"
			},
			{
				"deltaTime": 180,
				"channel": 1,
				"type": "channel",
				"subtype": "noteOff",
				"noteNumber": 32,
				"velocity": 64
			},
			{
				"deltaTime": 60,
				"channel": 1,
				"type": "channel",
				"noteNumber": 33,
				"velocity": 107,
				"subtype": "noteOn"
			},
			{
				"deltaTime": 90,
				"channel": 1,
				"type": "channel",
				"subtype": "noteOff",
				"noteNumber": 33,
				"velocity": 64
			},
			{
				"deltaTime": 30,
				"channel": 1,
				"type": "channel",
				"noteNumber": 52,
				"velocity": 106,
				"subtype": "noteOn"
			},
			{
				"deltaTime": 90,
				"channel": 1,
				"type": "channel",
				"subtype": "noteOff",
				"noteNumber": 52,
				"velocity": 64
			},
			{
				"deltaTime": 270,
				"channel": 1,
				"type": "channel",
				"noteNumber": 52,
				"velocity": 107,
				"subtype": "noteOn"
			},
			{
				"deltaTime": 180,
				"channel": 1,
				"type": "channel",
				"subtype": "noteOff",
				"noteNumber": 52,
				"velocity": 64
			},
			{
				"deltaTime": 60,
				"channel": 1,
				"type": "channel",
				"noteNumber": 45,
				"velocity": 123,
				"subtype": "noteOn"
			},
			{
				"deltaTime": 2,
				"channel": 1,
				"type": "channel",
				"subtype": "noteOff",
				"noteNumber": 45,
				"velocity": 64
			},
			{
				"deltaTime": 118,
				"channel": 1,
				"type": "channel",
				"noteNumber": 45,
				"velocity": 116,
				"subtype": "noteOn"
			},
			{
				"deltaTime": 90,
				"channel": 1,
				"type": "channel",
				"subtype": "noteOff",
				"noteNumber": 45,
				"velocity": 64
			},
			{
				"deltaTime": 30,
				"channel": 1,
				"type": "channel",
				"noteNumber": 52,
				"velocity": 116,
				"subtype": "noteOn"
			},
			{
				"deltaTime": 180,
				"channel": 1,
				"type": "channel",
				"subtype": "noteOff",
				"noteNumber": 52,
				"velocity": 64
			},
			{
				"deltaTime": 60,
				"channel": 1,
				"type": "channel",
				"noteNumber": 52,
				"velocity": 114,
				"subtype": "noteOn"
			},
			{
				"deltaTime": 90,
				"channel": 1,
				"type": "channel",
				"subtype": "noteOff",
				"noteNumber": 52,
				"velocity": 64
			},
			{
				"deltaTime": 30,
				"channel": 1,
				"type": "channel",
				"noteNumber": 52,
				"velocity": 114,
				"subtype": "noteOn"
			},
			{
				"deltaTime": 90,
				"channel": 1,
				"type": "channel",
				"subtype": "noteOff",
				"noteNumber": 52,
				"velocity": 64
			},
			{
				"deltaTime": 30,
				"channel": 1,
				"type": "channel",
				"noteNumber": 52,
				"velocity": 115,
				"subtype": "noteOn"
			},
			{
				"deltaTime": 90,
				"channel": 1,
				"type": "channel",
				"subtype": "noteOff",
				"noteNumber": 52,
				"velocity": 64
			},
			{
				"deltaTime": 30,
				"channel": 1,
				"type": "channel",
				"noteNumber": 45,
				"velocity": 114,
				"subtype": "noteOn"
			},
			{
				"deltaTime": 90,
				"channel": 1,
				"type": "channel",
				"subtype": "noteOff",
				"noteNumber": 45,
				"velocity": 64
			},
			{
				"deltaTime": 30,
				"channel": 1,
				"type": "channel",
				"noteNumber": 43,
				"velocity": 117,
				"subtype": "noteOn"
			},
			{
				"deltaTime": 90,
				"channel": 1,
				"type": "channel",
				"subtype": "noteOff",
				"noteNumber": 43,
				"velocity": 64
			},
			{
				"deltaTime": 30,
				"channel": 1,
				"type": "channel",
				"noteNumber": 43,
				"velocity": 114,
				"subtype": "noteOn"
			},
			{
				"deltaTime": 90,
				"channel": 1,
				"type": "channel",
				"subtype": "noteOff",
				"noteNumber": 43,
				"velocity": 64
			},
			{
				"deltaTime": 30,
				"channel": 1,
				"type": "channel",
				"noteNumber": 33,
				"velocity": 118,
				"subtype": "noteOn"
			},
			{
				"deltaTime": 180,
				"channel": 1,
				"type": "channel",
				"subtype": "noteOff",
				"noteNumber": 33,
				"velocity": 64
			},
			{
				"deltaTime": 60,
				"channel": 1,
				"type": "channel",
				"noteNumber": 45,
				"velocity": 109,
				"subtype": "noteOn"
			},
			{
				"deltaTime": 180,
				"channel": 1,
				"type": "channel",
				"subtype": "noteOff",
				"noteNumber": 45,
				"velocity": 64
			},
			{
				"deltaTime": 60,
				"channel": 1,
				"type": "channel",
				"noteNumber": 43,
				"velocity": 122,
				"subtype": "noteOn"
			},
			{
				"deltaTime": 180,
				"channel": 1,
				"type": "channel",
				"subtype": "noteOff",
				"noteNumber": 43,
				"velocity": 64
			},
			{
				"deltaTime": 60,
				"channel": 1,
				"type": "channel",
				"noteNumber": 45,
				"velocity": 109,
				"subtype": "noteOn"
			},
			{
				"deltaTime": 300,
				"channel": 1,
				"type": "channel",
				"subtype": "noteOff",
				"noteNumber": 45,
				"velocity": 64
			},
			{
				"deltaTime": 60,
				"channel": 1,
				"type": "channel",
				"noteNumber": 38,
				"velocity": 124,
				"subtype": "noteOn"
			},
			{
				"deltaTime": 90,
				"channel": 1,
				"type": "channel",
				"subtype": "noteOff",
				"noteNumber": 38,
				"velocity": 64
			},
			{
				"deltaTime": 30,
				"channel": 1,
				"type": "channel",
				"noteNumber": 52,
				"velocity": 124,
				"subtype": "noteOn"
			},
			{
				"deltaTime": 180,
				"channel": 1,
				"type": "channel",
				"subtype": "noteOff",
				"noteNumber": 52,
				"velocity": 64
			},
			{
				"deltaTime": 60,
				"channel": 1,
				"type": "channel",
				"noteNumber": 50,
				"velocity": 120,
				"subtype": "noteOn"
			},
			{
				"deltaTime": 180,
				"channel": 1,
				"type": "channel",
				"subtype": "noteOff",
				"noteNumber": 50,
				"velocity": 64
			},
			{
				"deltaTime": 60,
				"channel": 1,
				"type": "channel",
				"noteNumber": 48,
				"velocity": 114,
				"subtype": "noteOn"
			},
			{
				"deltaTime": 420,
				"channel": 1,
				"type": "channel",
				"subtype": "noteOff",
				"noteNumber": 48,
				"velocity": 64
			},
			{
				"deltaTime": 60,
				"channel": 1,
				"type": "channel",
				"noteNumber": 45,
				"velocity": 118,
				"subtype": "noteOn"
			},
			{
				"deltaTime": 180,
				"channel": 1,
				"type": "channel",
				"subtype": "noteOff",
				"noteNumber": 45,
				"velocity": 64
			},
			{
				"deltaTime": 60,
				"channel": 1,
				"type": "channel",
				"noteNumber": 43,
				"velocity": 103,
				"subtype": "noteOn"
			},
			{
				"deltaTime": 180,
				"channel": 1,
				"type": "channel",
				"subtype": "noteOff",
				"noteNumber": 43,
				"velocity": 64
			},
			{
				"deltaTime": 60,
				"channel": 1,
				"type": "channel",
				"noteNumber": 45,
				"velocity": 114,
				"subtype": "noteOn"
			},
			{
				"deltaTime": 180,
				"channel": 1,
				"type": "channel",
				"subtype": "noteOff",
				"noteNumber": 45,
				"velocity": 64
			},
			{
				"deltaTime": 60,
				"channel": 1,
				"type": "channel",
				"noteNumber": 33,
				"velocity": 115,
				"subtype": "noteOn"
			},
			{
				"deltaTime": 180,
				"channel": 1,
				"type": "channel",
				"subtype": "noteOff",
				"noteNumber": 33,
				"velocity": 64
			},
			{
				"deltaTime": 60,
				"channel": 1,
				"type": "channel",
				"noteNumber": 52,
				"velocity": 112,
				"subtype": "noteOn"
			},
			{
				"deltaTime": 180,
				"channel": 1,
				"type": "channel",
				"subtype": "noteOff",
				"noteNumber": 52,
				"velocity": 64
			},
			{
				"deltaTime": 60,
				"channel": 1,
				"type": "channel",
				"noteNumber": 50,
				"velocity": 108,
				"subtype": "noteOn"
			},
			{
				"deltaTime": 180,
				"channel": 1,
				"type": "channel",
				"subtype": "noteOff",
				"noteNumber": 50,
				"velocity": 64
			},
			{
				"deltaTime": 60,
				"channel": 1,
				"type": "channel",
				"noteNumber": 48,
				"velocity": 114,
				"subtype": "noteOn"
			},
			{
				"deltaTime": 420,
				"channel": 1,
				"type": "channel",
				"subtype": "noteOff",
				"noteNumber": 48,
				"velocity": 64
			},
			{
				"deltaTime": 60,
				"channel": 1,
				"type": "channel",
				"noteNumber": 45,
				"velocity": 114,
				"subtype": "noteOn"
			},
			{
				"deltaTime": 180,
				"channel": 1,
				"type": "channel",
				"subtype": "noteOff",
				"noteNumber": 45,
				"velocity": 64
			},
			{
				"deltaTime": 60,
				"channel": 1,
				"type": "channel",
				"noteNumber": 43,
				"velocity": 107,
				"subtype": "noteOn"
			},
			{
				"deltaTime": 180,
				"channel": 1,
				"type": "channel",
				"subtype": "noteOff",
				"noteNumber": 43,
				"velocity": 64
			},
			{
				"deltaTime": 60,
				"channel": 1,
				"type": "channel",
				"noteNumber": 45,
				"velocity": 114,
				"subtype": "noteOn"
			},
			{
				"deltaTime": 180,
				"channel": 1,
				"type": "channel",
				"subtype": "noteOff",
				"noteNumber": 45,
				"velocity": 64
			},
			{
				"deltaTime": 60,
				"channel": 1,
				"type": "channel",
				"noteNumber": 45,
				"velocity": 122,
				"subtype": "noteOn"
			},
			{
				"deltaTime": 90,
				"channel": 1,
				"type": "channel",
				"subtype": "noteOff",
				"noteNumber": 45,
				"velocity": 64
			},
			{
				"deltaTime": 30,
				"channel": 1,
				"type": "channel",
				"noteNumber": 38,
				"velocity": 119,
				"subtype": "noteOn"
			},
			{
				"deltaTime": 90,
				"channel": 1,
				"type": "channel",
				"subtype": "noteOff",
				"noteNumber": 38,
				"velocity": 64
			},
			{
				"deltaTime": 30,
				"channel": 1,
				"type": "channel",
				"noteNumber": 52,
				"velocity": 114,
				"subtype": "noteOn"
			},
			{
				"deltaTime": 180,
				"channel": 1,
				"type": "channel",
				"subtype": "noteOff",
				"noteNumber": 52,
				"velocity": 64
			},
			{
				"deltaTime": 60,
				"channel": 1,
				"type": "channel",
				"noteNumber": 50,
				"velocity": 115,
				"subtype": "noteOn"
			},
			{
				"deltaTime": 180,
				"channel": 1,
				"type": "channel",
				"subtype": "noteOff",
				"noteNumber": 50,
				"velocity": 64
			},
			{
				"deltaTime": 60,
				"channel": 1,
				"type": "channel",
				"noteNumber": 48,
				"velocity": 115,
				"subtype": "noteOn"
			},
			{
				"deltaTime": 420,
				"channel": 1,
				"type": "channel",
				"subtype": "noteOff",
				"noteNumber": 48,
				"velocity": 64
			},
			{
				"deltaTime": 60,
				"channel": 1,
				"type": "channel",
				"noteNumber": 45,
				"velocity": 115,
				"subtype": "noteOn"
			},
			{
				"deltaTime": 180,
				"channel": 1,
				"type": "channel",
				"subtype": "noteOff",
				"noteNumber": 45,
				"velocity": 64
			},
			{
				"deltaTime": 60,
				"channel": 1,
				"type": "channel",
				"noteNumber": 43,
				"velocity": 110,
				"subtype": "noteOn"
			},
			{
				"deltaTime": 180,
				"channel": 1,
				"type": "channel",
				"subtype": "noteOff",
				"noteNumber": 43,
				"velocity": 64
			},
			{
				"deltaTime": 60,
				"channel": 1,
				"type": "channel",
				"noteNumber": 45,
				"velocity": 115,
				"subtype": "noteOn"
			},
			{
				"deltaTime": 90,
				"channel": 1,
				"type": "channel",
				"subtype": "noteOff",
				"noteNumber": 45,
				"velocity": 64
			},
			{
				"deltaTime": 30,
				"channel": 1,
				"type": "channel",
				"noteNumber": 45,
				"velocity": 119,
				"subtype": "noteOn"
			},
			{
				"deltaTime": 90,
				"channel": 1,
				"type": "channel",
				"subtype": "noteOff",
				"noteNumber": 45,
				"velocity": 64
			},
			{
				"deltaTime": 150,
				"channel": 1,
				"type": "channel",
				"noteNumber": 43,
				"velocity": 114,
				"subtype": "noteOn"
			},
			{
				"deltaTime": 90,
				"channel": 1,
				"type": "channel",
				"subtype": "noteOff",
				"noteNumber": 43,
				"velocity": 64
			},
			{
				"deltaTime": 30,
				"channel": 1,
				"type": "channel",
				"noteNumber": 40,
				"velocity": 122,
				"subtype": "noteOn"
			},
			{
				"deltaTime": 180,
				"channel": 1,
				"type": "channel",
				"subtype": "noteOff",
				"noteNumber": 40,
				"velocity": 64
			},
			{
				"deltaTime": 60,
				"channel": 1,
				"type": "channel",
				"noteNumber": 38,
				"velocity": 115,
				"subtype": "noteOn"
			},
			{
				"deltaTime": 90,
				"channel": 1,
				"type": "channel",
				"subtype": "noteOff",
				"noteNumber": 38,
				"velocity": 64
			},
			{
				"deltaTime": 30,
				"channel": 1,
				"type": "channel",
				"noteNumber": 36,
				"velocity": 121,
				"subtype": "noteOn"
			},
			{
				"deltaTime": 90,
				"channel": 1,
				"type": "channel",
				"subtype": "noteOff",
				"noteNumber": 36,
				"velocity": 64
			},
			{
				"deltaTime": 30,
				"channel": 1,
				"type": "channel",
				"noteNumber": 33,
				"velocity": 116,
				"subtype": "noteOn"
			},
			{
				"deltaTime": 180,
				"channel": 1,
				"type": "channel",
				"subtype": "noteOff",
				"noteNumber": 33,
				"velocity": 64
			},
			{
				"deltaTime": 60,
				"channel": 1,
				"type": "channel",
				"noteNumber": 38,
				"velocity": 113,
				"subtype": "noteOn"
			},
			{
				"deltaTime": 420,
				"channel": 1,
				"type": "channel",
				"subtype": "noteOff",
				"noteNumber": 38,
				"velocity": 64
			},
			{
				"deltaTime": 60,
				"channel": 1,
				"type": "channel",
				"noteNumber": 38,
				"velocity": 116,
				"subtype": "noteOn"
			},
			{
				"deltaTime": 180,
				"channel": 1,
				"type": "channel",
				"subtype": "noteOff",
				"noteNumber": 38,
				"velocity": 64
			},
			{
				"deltaTime": 60,
				"channel": 1,
				"type": "channel",
				"noteNumber": 42,
				"velocity": 116,
				"subtype": "noteOn"
			},
			{
				"deltaTime": 420,
				"channel": 1,
				"type": "channel",
				"subtype": "noteOff",
				"noteNumber": 42,
				"velocity": 64
			},
			{
				"deltaTime": 60,
				"channel": 1,
				"type": "channel",
				"noteNumber": 43,
				"velocity": 122,
				"subtype": "noteOn"
			},
			{
				"deltaTime": 180,
				"channel": 1,
				"type": "channel",
				"subtype": "noteOff",
				"noteNumber": 43,
				"velocity": 64
			},
			{
				"deltaTime": 60,
				"channel": 1,
				"type": "channel",
				"noteNumber": 44,
				"velocity": 117,
				"subtype": "noteOn"
			},
			{
				"deltaTime": 180,
				"channel": 1,
				"type": "channel",
				"subtype": "noteOff",
				"noteNumber": 44,
				"velocity": 64
			},
			{
				"deltaTime": 60,
				"channel": 1,
				"type": "channel",
				"noteNumber": 45,
				"velocity": 125,
				"subtype": "noteOn"
			},
			{
				"deltaTime": 180,
				"channel": 1,
				"type": "channel",
				"subtype": "noteOff",
				"noteNumber": 45,
				"velocity": 64
			},
			{
				"deltaTime": 60,
				"channel": 1,
				"type": "channel",
				"noteNumber": 38,
				"velocity": 107,
				"subtype": "noteOn"
			},
			{
				"deltaTime": 420,
				"channel": 1,
				"type": "channel",
				"subtype": "noteOff",
				"noteNumber": 38,
				"velocity": 64
			},
			{
				"deltaTime": 60,
				"channel": 1,
				"type": "channel",
				"noteNumber": 42,
				"velocity": 125,
				"subtype": "noteOn"
			},
			{
				"deltaTime": 420,
				"channel": 1,
				"type": "channel",
				"subtype": "noteOff",
				"noteNumber": 42,
				"velocity": 64
			},
			{
				"deltaTime": 60,
				"channel": 1,
				"type": "channel",
				"noteNumber": 43,
				"velocity": 110,
				"subtype": "noteOn"
			},
			{
				"deltaTime": 420,
				"channel": 1,
				"type": "channel",
				"subtype": "noteOff",
				"noteNumber": 43,
				"velocity": 64
			},
			{
				"deltaTime": 60,
				"channel": 1,
				"type": "channel",
				"noteNumber": 44,
				"velocity": 116,
				"subtype": "noteOn"
			},
			{
				"deltaTime": 420,
				"channel": 1,
				"type": "channel",
				"subtype": "noteOff",
				"noteNumber": 44,
				"velocity": 64
			},
			{
				"deltaTime": 60,
				"channel": 1,
				"type": "channel",
				"noteNumber": 45,
				"velocity": 120,
				"subtype": "noteOn"
			},
			{
				"deltaTime": 180,
				"channel": 1,
				"type": "channel",
				"subtype": "noteOff",
				"noteNumber": 45,
				"velocity": 64
			},
			{
				"deltaTime": 60,
				"channel": 1,
				"type": "channel",
				"noteNumber": 37,
				"velocity": 112,
				"subtype": "noteOn"
			},
			{
				"deltaTime": 180,
				"channel": 1,
				"type": "channel",
				"subtype": "noteOff",
				"noteNumber": 37,
				"velocity": 64
			},
			{
				"deltaTime": 60,
				"channel": 1,
				"type": "channel",
				"noteNumber": 38,
				"velocity": 119,
				"subtype": "noteOn"
			},
			{
				"deltaTime": 180,
				"channel": 1,
				"type": "channel",
				"subtype": "noteOff",
				"noteNumber": 38,
				"velocity": 64
			},
			{
				"deltaTime": 60,
				"channel": 1,
				"type": "channel",
				"noteNumber": 39,
				"velocity": 117,
				"subtype": "noteOn"
			},
			{
				"deltaTime": 90,
				"channel": 1,
				"type": "channel",
				"subtype": "noteOff",
				"noteNumber": 39,
				"velocity": 64
			},
			{
				"deltaTime": 30,
				"channel": 1,
				"type": "channel",
				"noteNumber": 39,
				"velocity": 119,
				"subtype": "noteOn"
			},
			{
				"deltaTime": 90,
				"channel": 1,
				"type": "channel",
				"subtype": "noteOff",
				"noteNumber": 39,
				"velocity": 64
			},
			{
				"deltaTime": 30,
				"channel": 1,
				"type": "channel",
				"noteNumber": 40,
				"velocity": 121,
				"subtype": "noteOn"
			},
			{
				"deltaTime": 180,
				"channel": 1,
				"type": "channel",
				"subtype": "noteOff",
				"noteNumber": 40,
				"velocity": 64
			},
			{
				"deltaTime": 60,
				"channel": 1,
				"type": "channel",
				"noteNumber": 43,
				"velocity": 115,
				"subtype": "noteOn"
			},
			{
				"deltaTime": 180,
				"channel": 1,
				"type": "channel",
				"subtype": "noteOff",
				"noteNumber": 43,
				"velocity": 64
			},
			{
				"deltaTime": 60,
				"channel": 1,
				"type": "channel",
				"noteNumber": 45,
				"velocity": 114,
				"subtype": "noteOn"
			},
			{
				"deltaTime": 180,
				"channel": 1,
				"type": "channel",
				"subtype": "noteOff",
				"noteNumber": 45,
				"velocity": 64
			},
			{
				"deltaTime": 60,
				"channel": 1,
				"type": "channel",
				"noteNumber": 33,
				"velocity": 125,
				"subtype": "noteOn"
			},
			{
				"deltaTime": 180,
				"channel": 1,
				"type": "channel",
				"subtype": "noteOff",
				"noteNumber": 33,
				"velocity": 64
			},
			{
				"deltaTime": 60,
				"channel": 1,
				"type": "channel",
				"noteNumber": 33,
				"velocity": 109,
				"subtype": "noteOn"
			},
			{
				"deltaTime": 180,
				"channel": 1,
				"type": "channel",
				"subtype": "noteOff",
				"noteNumber": 33,
				"velocity": 64
			},
			{
				"deltaTime": 60,
				"channel": 1,
				"type": "channel",
				"noteNumber": 37,
				"velocity": 114,
				"subtype": "noteOn"
			},
			{
				"deltaTime": 420,
				"channel": 1,
				"type": "channel",
				"subtype": "noteOff",
				"noteNumber": 37,
				"velocity": 64
			},
			{
				"deltaTime": 60,
				"channel": 1,
				"type": "channel",
				"noteNumber": 38,
				"velocity": 118,
				"subtype": "noteOn"
			},
			{
				"deltaTime": 420,
				"channel": 1,
				"type": "channel",
				"subtype": "noteOff",
				"noteNumber": 38,
				"velocity": 64
			},
			{
				"deltaTime": 60,
				"channel": 1,
				"type": "channel",
				"noteNumber": 39,
				"velocity": 113,
				"subtype": "noteOn"
			},
			{
				"deltaTime": 420,
				"channel": 1,
				"type": "channel",
				"subtype": "noteOff",
				"noteNumber": 39,
				"velocity": 64
			},
			{
				"deltaTime": 60,
				"channel": 1,
				"type": "channel",
				"noteNumber": 40,
				"velocity": 118,
				"subtype": "noteOn"
			},
			{
				"deltaTime": 180,
				"channel": 1,
				"type": "channel",
				"subtype": "noteOff",
				"noteNumber": 40,
				"velocity": 64
			},
			{
				"deltaTime": 60,
				"channel": 1,
				"type": "channel",
				"noteNumber": 40,
				"velocity": 115,
				"subtype": "noteOn"
			},
			{
				"deltaTime": 180,
				"channel": 1,
				"type": "channel",
				"subtype": "noteOff",
				"noteNumber": 40,
				"velocity": 64
			},
			{
				"deltaTime": 60,
				"channel": 1,
				"type": "channel",
				"noteNumber": 52,
				"velocity": 114,
				"subtype": "noteOn"
			},
			{
				"deltaTime": 180,
				"channel": 1,
				"type": "channel",
				"subtype": "noteOff",
				"noteNumber": 52,
				"velocity": 64
			},
			{
				"deltaTime": 60,
				"channel": 1,
				"type": "channel",
				"noteNumber": 54,
				"velocity": 116,
				"subtype": "noteOn"
			},
			{
				"deltaTime": 180,
				"channel": 1,
				"type": "channel",
				"subtype": "noteOff",
				"noteNumber": 54,
				"velocity": 64
			},
			{
				"deltaTime": 60,
				"channel": 1,
				"type": "channel",
				"noteNumber": 40,
				"velocity": 105,
				"subtype": "noteOn"
			},
			{
				"deltaTime": 2,
				"channel": 1,
				"type": "channel",
				"subtype": "noteOff",
				"noteNumber": 40,
				"velocity": 64
			},
			{
				"deltaTime": 118,
				"channel": 1,
				"type": "channel",
				"noteNumber": 40,
				"velocity": 121,
				"subtype": "noteOn"
			},
			{
				"deltaTime": 90,
				"channel": 1,
				"type": "channel",
				"subtype": "noteOff",
				"noteNumber": 40,
				"velocity": 64
			},
			{
				"deltaTime": 30,
				"channel": 1,
				"type": "channel",
				"noteNumber": 40,
				"velocity": 114,
				"subtype": "noteOn"
			},
			{
				"deltaTime": 180,
				"channel": 1,
				"type": "channel",
				"subtype": "noteOff",
				"noteNumber": 40,
				"velocity": 64
			},
			{
				"deltaTime": 60,
				"channel": 1,
				"type": "channel",
				"noteNumber": 52,
				"velocity": 115,
				"subtype": "noteOn"
			},
			{
				"deltaTime": 180,
				"channel": 1,
				"type": "channel",
				"subtype": "noteOff",
				"noteNumber": 52,
				"velocity": 64
			},
			{
				"deltaTime": 60,
				"channel": 1,
				"type": "channel",
				"noteNumber": 54,
				"velocity": 112,
				"subtype": "noteOn"
			},
			{
				"deltaTime": 180,
				"channel": 1,
				"type": "channel",
				"subtype": "noteOff",
				"noteNumber": 54,
				"velocity": 64
			},
			{
				"deltaTime": 60,
				"channel": 1,
				"type": "channel",
				"noteNumber": 40,
				"velocity": 111,
				"subtype": "noteOn"
			},
			{
				"deltaTime": 180,
				"channel": 1,
				"type": "channel",
				"subtype": "noteOff",
				"noteNumber": 40,
				"velocity": 64
			},
			{
				"deltaTime": 60,
				"channel": 1,
				"type": "channel",
				"noteNumber": 38,
				"velocity": 114,
				"subtype": "noteOn"
			},
			{
				"deltaTime": 180,
				"channel": 1,
				"type": "channel",
				"subtype": "noteOff",
				"noteNumber": 38,
				"velocity": 64
			},
			{
				"deltaTime": 60,
				"channel": 1,
				"type": "channel",
				"noteNumber": 50,
				"velocity": 110,
				"subtype": "noteOn"
			},
			{
				"deltaTime": 180,
				"channel": 1,
				"type": "channel",
				"subtype": "noteOff",
				"noteNumber": 50,
				"velocity": 64
			},
			{
				"deltaTime": 60,
				"channel": 1,
				"type": "channel",
				"noteNumber": 52,
				"velocity": 114,
				"subtype": "noteOn"
			},
			{
				"deltaTime": 180,
				"channel": 1,
				"type": "channel",
				"subtype": "noteOff",
				"noteNumber": 52,
				"velocity": 64
			},
			{
				"deltaTime": 60,
				"channel": 1,
				"type": "channel",
				"noteNumber": 50,
				"velocity": 110,
				"subtype": "noteOn"
			},
			{
				"deltaTime": 180,
				"channel": 1,
				"type": "channel",
				"subtype": "noteOff",
				"noteNumber": 50,
				"velocity": 64
			},
			{
				"deltaTime": 180,
				"channel": 1,
				"type": "channel",
				"noteNumber": 48,
				"velocity": 114,
				"subtype": "noteOn"
			},
			{
				"deltaTime": 570,
				"channel": 1,
				"type": "channel",
				"subtype": "noteOff",
				"noteNumber": 48,
				"velocity": 64
			},
			{
				"deltaTime": 30,
				"channel": 1,
				"type": "channel",
				"noteNumber": 43,
				"velocity": 115,
				"subtype": "noteOn"
			},
			{
				"deltaTime": 90,
				"channel": 1,
				"type": "channel",
				"subtype": "noteOff",
				"noteNumber": 43,
				"velocity": 64
			},
			{
				"deltaTime": 30,
				"channel": 1,
				"type": "channel",
				"noteNumber": 45,
				"velocity": 122,
				"subtype": "noteOn"
			},
			{
				"deltaTime": 90,
				"channel": 1,
				"type": "channel",
				"subtype": "noteOff",
				"noteNumber": 45,
				"velocity": 64
			},
			{
				"deltaTime": 30,
				"channel": 1,
				"type": "channel",
				"noteNumber": 45,
				"velocity": 125,
				"subtype": "noteOn"
			},
			{
				"deltaTime": 180,
				"channel": 1,
				"type": "channel",
				"subtype": "noteOff",
				"noteNumber": 45,
				"velocity": 64
			},
			{
				"deltaTime": 60,
				"channel": 1,
				"type": "channel",
				"noteNumber": 45,
				"velocity": 110,
				"subtype": "noteOn"
			},
			{
				"deltaTime": 180,
				"channel": 1,
				"type": "channel",
				"subtype": "noteOff",
				"noteNumber": 45,
				"velocity": 64
			},
			{
				"deltaTime": 60,
				"channel": 1,
				"type": "channel",
				"noteNumber": 43,
				"velocity": 110,
				"subtype": "noteOn"
			},
			{
				"deltaTime": 180,
				"channel": 1,
				"type": "channel",
				"subtype": "noteOff",
				"noteNumber": 43,
				"velocity": 64
			},
			{
				"deltaTime": 60,
				"channel": 1,
				"type": "channel",
				"noteNumber": 45,
				"velocity": 124,
				"subtype": "noteOn"
			},
			{
				"deltaTime": 300,
				"channel": 1,
				"type": "channel",
				"subtype": "noteOff",
				"noteNumber": 45,
				"velocity": 64
			},
			{
				"deltaTime": 60,
				"channel": 1,
				"type": "channel",
				"noteNumber": 43,
				"velocity": 118,
				"subtype": "noteOn"
			},
			{
				"deltaTime": 90,
				"channel": 1,
				"type": "channel",
				"subtype": "noteOff",
				"noteNumber": 43,
				"velocity": 64
			},
			{
				"deltaTime": 30,
				"channel": 1,
				"type": "channel",
				"noteNumber": 45,
				"velocity": 122,
				"subtype": "noteOn"
			},
			{
				"deltaTime": 180,
				"channel": 1,
				"type": "channel",
				"subtype": "noteOff",
				"noteNumber": 45,
				"velocity": 64
			},
			{
				"deltaTime": 60,
				"channel": 1,
				"type": "channel",
				"noteNumber": 43,
				"velocity": 119,
				"subtype": "noteOn"
			},
			{
				"deltaTime": 180,
				"channel": 1,
				"type": "channel",
				"subtype": "noteOff",
				"noteNumber": 43,
				"velocity": 64
			},
			{
				"deltaTime": 60,
				"channel": 1,
				"type": "channel",
				"noteNumber": 36,
				"velocity": 119,
				"subtype": "noteOn"
			},
			{
				"deltaTime": 180,
				"channel": 1,
				"type": "channel",
				"subtype": "noteOff",
				"noteNumber": 36,
				"velocity": 64
			},
			{
				"deltaTime": 60,
				"channel": 1,
				"type": "channel",
				"noteNumber": 33,
				"velocity": 122,
				"subtype": "noteOn"
			},
			{
				"deltaTime": 180,
				"channel": 1,
				"type": "channel",
				"subtype": "noteOff",
				"noteNumber": 33,
				"velocity": 64
			},
			{
				"deltaTime": 60,
				"channel": 1,
				"type": "channel",
				"noteNumber": 45,
				"velocity": 114,
				"subtype": "noteOn"
			},
			{
				"deltaTime": 180,
				"channel": 1,
				"type": "channel",
				"subtype": "noteOff",
				"noteNumber": 45,
				"velocity": 64
			},
			{
				"deltaTime": 60,
				"channel": 1,
				"type": "channel",
				"noteNumber": 43,
				"velocity": 116,
				"subtype": "noteOn"
			},
			{
				"deltaTime": 180,
				"channel": 1,
				"type": "channel",
				"subtype": "noteOff",
				"noteNumber": 43,
				"velocity": 64
			},
			{
				"deltaTime": 60,
				"channel": 1,
				"type": "channel",
				"noteNumber": 45,
				"velocity": 114,
				"subtype": "noteOn"
			},
			{
				"deltaTime": 300,
				"channel": 1,
				"type": "channel",
				"subtype": "noteOff",
				"noteNumber": 45,
				"velocity": 64
			},
			{
				"deltaTime": 60,
				"channel": 1,
				"type": "channel",
				"noteNumber": 38,
				"velocity": 111,
				"subtype": "noteOn"
			},
			{
				"deltaTime": 90,
				"channel": 1,
				"type": "channel",
				"subtype": "noteOff",
				"noteNumber": 38,
				"velocity": 64
			},
			{
				"deltaTime": 30,
				"channel": 1,
				"type": "channel",
				"noteNumber": 36,
				"velocity": 109,
				"subtype": "noteOn"
			},
			{
				"deltaTime": 180,
				"channel": 1,
				"type": "channel",
				"subtype": "noteOff",
				"noteNumber": 36,
				"velocity": 64
			},
			{
				"deltaTime": 60,
				"channel": 1,
				"type": "channel",
				"noteNumber": 36,
				"velocity": 114,
				"subtype": "noteOn"
			},
			{
				"deltaTime": 180,
				"channel": 1,
				"type": "channel",
				"subtype": "noteOff",
				"noteNumber": 36,
				"velocity": 64
			},
			{
				"deltaTime": 60,
				"channel": 1,
				"type": "channel",
				"noteNumber": 33,
				"velocity": 116,
				"subtype": "noteOn"
			},
			{
				"deltaTime": 180,
				"channel": 1,
				"type": "channel",
				"subtype": "noteOff",
				"noteNumber": 33,
				"velocity": 64
			},
			{
				"deltaTime": 60,
				"channel": 1,
				"type": "channel",
				"noteNumber": 33,
				"velocity": 108,
				"subtype": "noteOn"
			},
			{
				"deltaTime": 180,
				"channel": 1,
				"type": "channel",
				"subtype": "noteOff",
				"noteNumber": 33,
				"velocity": 64
			},
			{
				"deltaTime": 60,
				"channel": 1,
				"type": "channel",
				"noteNumber": 45,
				"velocity": 114,
				"subtype": "noteOn"
			},
			{
				"deltaTime": 180,
				"channel": 1,
				"type": "channel",
				"subtype": "noteOff",
				"noteNumber": 45,
				"velocity": 64
			},
			{
				"deltaTime": 60,
				"channel": 1,
				"type": "channel",
				"noteNumber": 43,
				"velocity": 113,
				"subtype": "noteOn"
			},
			{
				"deltaTime": 180,
				"channel": 1,
				"type": "channel",
				"subtype": "noteOff",
				"noteNumber": 43,
				"velocity": 64
			},
			{
				"deltaTime": 60,
				"channel": 1,
				"type": "channel",
				"noteNumber": 33,
				"velocity": 114,
				"subtype": "noteOn"
			},
			{
				"deltaTime": 180,
				"channel": 1,
				"type": "channel",
				"subtype": "noteOff",
				"noteNumber": 33,
				"velocity": 64
			},
			{
				"deltaTime": 60,
				"channel": 1,
				"type": "channel",
				"noteNumber": 45,
				"velocity": 115,
				"subtype": "noteOn"
			},
			{
				"deltaTime": 180,
				"channel": 1,
				"type": "channel",
				"subtype": "noteOff",
				"noteNumber": 45,
				"velocity": 64
			},
			{
				"deltaTime": 60,
				"channel": 1,
				"type": "channel",
				"noteNumber": 33,
				"velocity": 111,
				"subtype": "noteOn"
			},
			{
				"deltaTime": 180,
				"channel": 1,
				"type": "channel",
				"subtype": "noteOff",
				"noteNumber": 33,
				"velocity": 64
			},
			{
				"deltaTime": 60,
				"channel": 1,
				"type": "channel",
				"noteNumber": 45,
				"velocity": 114,
				"subtype": "noteOn"
			},
			{
				"deltaTime": 180,
				"channel": 1,
				"type": "channel",
				"subtype": "noteOff",
				"noteNumber": 45,
				"velocity": 64
			},
			{
				"deltaTime": 60,
				"channel": 1,
				"type": "channel",
				"noteNumber": 45,
				"velocity": 118,
				"subtype": "noteOn"
			},
			{
				"deltaTime": 90,
				"channel": 1,
				"type": "channel",
				"subtype": "noteOff",
				"noteNumber": 45,
				"velocity": 64
			},
			{
				"deltaTime": 30,
				"channel": 1,
				"type": "channel",
				"noteNumber": 38,
				"velocity": 112,
				"subtype": "noteOn"
			},
			{
				"deltaTime": 90,
				"channel": 1,
				"type": "channel",
				"subtype": "noteOff",
				"noteNumber": 38,
				"velocity": 64
			},
			{
				"deltaTime": 30,
				"channel": 1,
				"type": "channel",
				"noteNumber": 50,
				"velocity": 114,
				"subtype": "noteOn"
			},
			{
				"deltaTime": 180,
				"channel": 1,
				"type": "channel",
				"subtype": "noteOff",
				"noteNumber": 50,
				"velocity": 64
			},
			{
				"deltaTime": 60,
				"channel": 1,
				"type": "channel",
				"noteNumber": 50,
				"velocity": 112,
				"subtype": "noteOn"
			},
			{
				"deltaTime": 180,
				"channel": 1,
				"type": "channel",
				"subtype": "noteOff",
				"noteNumber": 50,
				"velocity": 64
			},
			{
				"deltaTime": 60,
				"channel": 1,
				"type": "channel",
				"noteNumber": 50,
				"velocity": 115,
				"subtype": "noteOn"
			},
			{
				"deltaTime": 180,
				"channel": 1,
				"type": "channel",
				"subtype": "noteOff",
				"noteNumber": 50,
				"velocity": 64
			},
			{
				"deltaTime": 60,
				"channel": 1,
				"type": "channel",
				"noteNumber": 50,
				"velocity": 114,
				"subtype": "noteOn"
			},
			{
				"deltaTime": 180,
				"channel": 1,
				"type": "channel",
				"subtype": "noteOff",
				"noteNumber": 50,
				"velocity": 64
			},
			{
				"deltaTime": 60,
				"channel": 1,
				"type": "channel",
				"noteNumber": 50,
				"velocity": 110,
				"subtype": "noteOn"
			},
			{
				"deltaTime": 180,
				"channel": 1,
				"type": "channel",
				"subtype": "noteOff",
				"noteNumber": 50,
				"velocity": 64
			},
			{
				"deltaTime": 60,
				"channel": 1,
				"type": "channel",
				"noteNumber": 50,
				"velocity": 124,
				"subtype": "noteOn"
			},
			{
				"deltaTime": 90,
				"channel": 1,
				"type": "channel",
				"subtype": "noteOff",
				"noteNumber": 50,
				"velocity": 64
			},
			{
				"deltaTime": 30,
				"channel": 1,
				"type": "channel",
				"noteNumber": 43,
				"velocity": 121,
				"subtype": "noteOn"
			},
			{
				"deltaTime": 90,
				"channel": 1,
				"type": "channel",
				"subtype": "noteOff",
				"noteNumber": 43,
				"velocity": 64
			},
			{
				"deltaTime": 30,
				"channel": 1,
				"type": "channel",
				"noteNumber": 48,
				"velocity": 113,
				"subtype": "noteOn"
			},
			{
				"deltaTime": 180,
				"channel": 1,
				"type": "channel",
				"subtype": "noteOff",
				"noteNumber": 48,
				"velocity": 64
			},
			{
				"deltaTime": 60,
				"channel": 1,
				"type": "channel",
				"noteNumber": 48,
				"velocity": 124,
				"subtype": "noteOn"
			},
			{
				"deltaTime": 90,
				"channel": 1,
				"type": "channel",
				"subtype": "noteOff",
				"noteNumber": 48,
				"velocity": 64
			},
			{
				"deltaTime": 30,
				"channel": 1,
				"type": "channel",
				"noteNumber": 45,
				"velocity": 116,
				"subtype": "noteOn"
			},
			{
				"deltaTime": 90,
				"channel": 1,
				"type": "channel",
				"subtype": "noteOff",
				"noteNumber": 45,
				"velocity": 64
			},
			{
				"deltaTime": 30,
				"channel": 1,
				"type": "channel",
				"noteNumber": 33,
				"velocity": 112,
				"subtype": "noteOn"
			},
			{
				"deltaTime": 180,
				"channel": 1,
				"type": "channel",
				"subtype": "noteOff",
				"noteNumber": 33,
				"velocity": 64
			},
			{
				"deltaTime": 60,
				"channel": 1,
				"type": "channel",
				"noteNumber": 45,
				"velocity": 105,
				"subtype": "noteOn"
			},
			{
				"deltaTime": 180,
				"channel": 1,
				"type": "channel",
				"subtype": "noteOff",
				"noteNumber": 45,
				"velocity": 64
			},
			{
				"deltaTime": 60,
				"channel": 1,
				"type": "channel",
				"noteNumber": 43,
				"velocity": 114,
				"subtype": "noteOn"
			},
			{
				"deltaTime": 180,
				"channel": 1,
				"type": "channel",
				"subtype": "noteOff",
				"noteNumber": 43,
				"velocity": 64
			},
			{
				"deltaTime": 60,
				"channel": 1,
				"type": "channel",
				"noteNumber": 45,
				"velocity": 114,
				"subtype": "noteOn"
			},
			{
				"deltaTime": 300,
				"channel": 1,
				"type": "channel",
				"subtype": "noteOff",
				"noteNumber": 45,
				"velocity": 64
			},
			{
				"deltaTime": 60,
				"channel": 1,
				"type": "channel",
				"noteNumber": 43,
				"velocity": 117,
				"subtype": "noteOn"
			},
			{
				"deltaTime": 90,
				"channel": 1,
				"type": "channel",
				"subtype": "noteOff",
				"noteNumber": 43,
				"velocity": 64
			},
			{
				"deltaTime": 30,
				"channel": 1,
				"type": "channel",
				"noteNumber": 45,
				"velocity": 111,
				"subtype": "noteOn"
			},
			{
				"deltaTime": 180,
				"channel": 1,
				"type": "channel",
				"subtype": "noteOff",
				"noteNumber": 45,
				"velocity": 64
			},
			{
				"deltaTime": 60,
				"channel": 1,
				"type": "channel",
				"noteNumber": 43,
				"velocity": 111,
				"subtype": "noteOn"
			},
			{
				"deltaTime": 180,
				"channel": 1,
				"type": "channel",
				"subtype": "noteOff",
				"noteNumber": 43,
				"velocity": 64
			},
			{
				"deltaTime": 60,
				"channel": 1,
				"type": "channel",
				"noteNumber": 37,
				"velocity": 113,
				"subtype": "noteOn"
			},
			{
				"deltaTime": 180,
				"channel": 1,
				"type": "channel",
				"subtype": "noteOff",
				"noteNumber": 37,
				"velocity": 64
			},
			{
				"deltaTime": 60,
				"channel": 1,
				"type": "channel",
				"noteNumber": 33,
				"velocity": 114,
				"subtype": "noteOn"
			},
			{
				"deltaTime": 180,
				"channel": 1,
				"type": "channel",
				"subtype": "noteOff",
				"noteNumber": 33,
				"velocity": 64
			},
			{
				"deltaTime": 60,
				"channel": 1,
				"type": "channel",
				"noteNumber": 45,
				"velocity": 118,
				"subtype": "noteOn"
			},
			{
				"deltaTime": 180,
				"channel": 1,
				"type": "channel",
				"subtype": "noteOff",
				"noteNumber": 45,
				"velocity": 64
			},
			{
				"deltaTime": 60,
				"channel": 1,
				"type": "channel",
				"noteNumber": 43,
				"velocity": 114,
				"subtype": "noteOn"
			},
			{
				"deltaTime": 180,
				"channel": 1,
				"type": "channel",
				"subtype": "noteOff",
				"noteNumber": 43,
				"velocity": 64
			},
			{
				"deltaTime": 60,
				"channel": 1,
				"type": "channel",
				"noteNumber": 45,
				"velocity": 114,
				"subtype": "noteOn"
			},
			{
				"deltaTime": 300,
				"channel": 1,
				"type": "channel",
				"subtype": "noteOff",
				"noteNumber": 45,
				"velocity": 64
			},
			{
				"deltaTime": 60,
				"channel": 1,
				"type": "channel",
				"noteNumber": 43,
				"velocity": 114,
				"subtype": "noteOn"
			},
			{
				"deltaTime": 90,
				"channel": 1,
				"type": "channel",
				"subtype": "noteOff",
				"noteNumber": 43,
				"velocity": 64
			},
			{
				"deltaTime": 30,
				"channel": 1,
				"type": "channel",
				"noteNumber": 45,
				"velocity": 121,
				"subtype": "noteOn"
			},
			{
				"deltaTime": 180,
				"channel": 1,
				"type": "channel",
				"subtype": "noteOff",
				"noteNumber": 45,
				"velocity": 64
			},
			{
				"deltaTime": 60,
				"channel": 1,
				"type": "channel",
				"noteNumber": 43,
				"velocity": 114,
				"subtype": "noteOn"
			},
			{
				"deltaTime": 180,
				"channel": 1,
				"type": "channel",
				"subtype": "noteOff",
				"noteNumber": 43,
				"velocity": 64
			},
			{
				"deltaTime": 60,
				"channel": 1,
				"type": "channel",
				"noteNumber": 36,
				"velocity": 118,
				"subtype": "noteOn"
			},
			{
				"deltaTime": 180,
				"channel": 1,
				"type": "channel",
				"subtype": "noteOff",
				"noteNumber": 36,
				"velocity": 64
			},
			{
				"deltaTime": 60,
				"channel": 1,
				"type": "channel",
				"noteNumber": 38,
				"velocity": 117,
				"subtype": "noteOn"
			},
			{
				"deltaTime": 180,
				"channel": 1,
				"type": "channel",
				"subtype": "noteOff",
				"noteNumber": 38,
				"velocity": 64
			},
			{
				"deltaTime": 60,
				"channel": 1,
				"type": "channel",
				"noteNumber": 50,
				"velocity": 118,
				"subtype": "noteOn"
			},
			{
				"deltaTime": 180,
				"channel": 1,
				"type": "channel",
				"subtype": "noteOff",
				"noteNumber": 50,
				"velocity": 64
			},
			{
				"deltaTime": 60,
				"channel": 1,
				"type": "channel",
				"noteNumber": 50,
				"velocity": 114,
				"subtype": "noteOn"
			},
			{
				"deltaTime": 180,
				"channel": 1,
				"type": "channel",
				"subtype": "noteOff",
				"noteNumber": 50,
				"velocity": 64
			},
			{
				"deltaTime": 60,
				"channel": 1,
				"type": "channel",
				"noteNumber": 50,
				"velocity": 104,
				"subtype": "noteOn"
			},
			{
				"deltaTime": 180,
				"channel": 1,
				"type": "channel",
				"subtype": "noteOff",
				"noteNumber": 50,
				"velocity": 64
			},
			{
				"deltaTime": 60,
				"channel": 1,
				"type": "channel",
				"noteNumber": 50,
				"velocity": 115,
				"subtype": "noteOn"
			},
			{
				"deltaTime": 180,
				"channel": 1,
				"type": "channel",
				"subtype": "noteOff",
				"noteNumber": 50,
				"velocity": 64
			},
			{
				"deltaTime": 60,
				"channel": 1,
				"type": "channel",
				"noteNumber": 50,
				"velocity": 112,
				"subtype": "noteOn"
			},
			{
				"deltaTime": 180,
				"channel": 1,
				"type": "channel",
				"subtype": "noteOff",
				"noteNumber": 50,
				"velocity": 64
			},
			{
				"deltaTime": 60,
				"channel": 1,
				"type": "channel",
				"noteNumber": 50,
				"velocity": 122,
				"subtype": "noteOn"
			},
			{
				"deltaTime": 180,
				"channel": 1,
				"type": "channel",
				"subtype": "noteOff",
				"noteNumber": 50,
				"velocity": 64
			},
			{
				"deltaTime": 60,
				"channel": 1,
				"type": "channel",
				"noteNumber": 50,
				"velocity": 114,
				"subtype": "noteOn"
			},
			{
				"deltaTime": 180,
				"channel": 1,
				"type": "channel",
				"subtype": "noteOff",
				"noteNumber": 50,
				"velocity": 64
			},
			{
				"deltaTime": 60,
				"channel": 1,
				"type": "channel",
				"noteNumber": 50,
				"velocity": 111,
				"subtype": "noteOn"
			},
			{
				"deltaTime": 180,
				"channel": 1,
				"type": "channel",
				"subtype": "noteOff",
				"noteNumber": 50,
				"velocity": 64
			},
			{
				"deltaTime": 60,
				"channel": 1,
				"type": "channel",
				"noteNumber": 50,
				"velocity": 108,
				"subtype": "noteOn"
			},
			{
				"deltaTime": 180,
				"channel": 1,
				"type": "channel",
				"subtype": "noteOff",
				"noteNumber": 50,
				"velocity": 64
			},
			{
				"deltaTime": 60,
				"channel": 1,
				"type": "channel",
				"noteNumber": 50,
				"velocity": 124,
				"subtype": "noteOn"
			},
			{
				"deltaTime": 180,
				"channel": 1,
				"type": "channel",
				"subtype": "noteOff",
				"noteNumber": 50,
				"velocity": 64
			},
			{
				"deltaTime": 60,
				"channel": 1,
				"type": "channel",
				"noteNumber": 50,
				"velocity": 115,
				"subtype": "noteOn"
			},
			{
				"deltaTime": 180,
				"channel": 1,
				"type": "channel",
				"subtype": "noteOff",
				"noteNumber": 50,
				"velocity": 64
			},
			{
				"deltaTime": 60,
				"channel": 1,
				"type": "channel",
				"noteNumber": 50,
				"velocity": 114,
				"subtype": "noteOn"
			},
			{
				"deltaTime": 180,
				"channel": 1,
				"type": "channel",
				"subtype": "noteOff",
				"noteNumber": 50,
				"velocity": 64
			},
			{
				"deltaTime": 60,
				"channel": 1,
				"type": "channel",
				"noteNumber": 50,
				"velocity": 114,
				"subtype": "noteOn"
			},
			{
				"deltaTime": 180,
				"channel": 1,
				"type": "channel",
				"subtype": "noteOff",
				"noteNumber": 50,
				"velocity": 64
			},
			{
				"deltaTime": 60,
				"channel": 1,
				"type": "channel",
				"noteNumber": 50,
				"velocity": 113,
				"subtype": "noteOn"
			},
			{
				"deltaTime": 180,
				"channel": 1,
				"type": "channel",
				"subtype": "noteOff",
				"noteNumber": 50,
				"velocity": 64
			},
			{
				"deltaTime": 60,
				"channel": 1,
				"type": "channel",
				"noteNumber": 48,
				"velocity": 113,
				"subtype": "noteOn"
			},
			{
				"deltaTime": 90,
				"channel": 1,
				"type": "channel",
				"subtype": "noteOff",
				"noteNumber": 48,
				"velocity": 64
			},
			{
				"deltaTime": 30,
				"channel": 1,
				"type": "channel",
				"noteNumber": 45,
				"velocity": 112,
				"subtype": "noteOn"
			},
			{
				"deltaTime": 90,
				"channel": 1,
				"type": "channel",
				"subtype": "noteOff",
				"noteNumber": 45,
				"velocity": 64
			},
			{
				"deltaTime": 30,
				"channel": 1,
				"type": "channel",
				"noteNumber": 33,
				"velocity": 104,
				"subtype": "noteOn"
			},
			{
				"deltaTime": 180,
				"channel": 1,
				"type": "channel",
				"subtype": "noteOff",
				"noteNumber": 33,
				"velocity": 64
			},
			{
				"deltaTime": 60,
				"channel": 1,
				"type": "channel",
				"noteNumber": 45,
				"velocity": 114,
				"subtype": "noteOn"
			},
			{
				"deltaTime": 180,
				"channel": 1,
				"type": "channel",
				"subtype": "noteOff",
				"noteNumber": 45,
				"velocity": 64
			},
			{
				"deltaTime": 60,
				"channel": 1,
				"type": "channel",
				"noteNumber": 43,
				"velocity": 104,
				"subtype": "noteOn"
			},
			{
				"deltaTime": 180,
				"channel": 1,
				"type": "channel",
				"subtype": "noteOff",
				"noteNumber": 43,
				"velocity": 64
			},
			{
				"deltaTime": 60,
				"channel": 1,
				"type": "channel",
				"noteNumber": 45,
				"velocity": 109,
				"subtype": "noteOn"
			},
			{
				"deltaTime": 300,
				"channel": 1,
				"type": "channel",
				"subtype": "noteOff",
				"noteNumber": 45,
				"velocity": 64
			},
			{
				"deltaTime": 60,
				"channel": 1,
				"type": "channel",
				"noteNumber": 43,
				"velocity": 122,
				"subtype": "noteOn"
			},
			{
				"deltaTime": 90,
				"channel": 1,
				"type": "channel",
				"subtype": "noteOff",
				"noteNumber": 43,
				"velocity": 64
			},
			{
				"deltaTime": 30,
				"channel": 1,
				"type": "channel",
				"noteNumber": 45,
				"velocity": 119,
				"subtype": "noteOn"
			},
			{
				"deltaTime": 180,
				"channel": 1,
				"type": "channel",
				"subtype": "noteOff",
				"noteNumber": 45,
				"velocity": 64
			},
			{
				"deltaTime": 60,
				"channel": 1,
				"type": "channel",
				"noteNumber": 43,
				"velocity": 119,
				"subtype": "noteOn"
			},
			{
				"deltaTime": 180,
				"channel": 1,
				"type": "channel",
				"subtype": "noteOff",
				"noteNumber": 43,
				"velocity": 64
			},
			{
				"deltaTime": 60,
				"channel": 1,
				"type": "channel",
				"noteNumber": 37,
				"velocity": 114,
				"subtype": "noteOn"
			},
			{
				"deltaTime": 180,
				"channel": 1,
				"type": "channel",
				"subtype": "noteOff",
				"noteNumber": 37,
				"velocity": 64
			},
			{
				"deltaTime": 60,
				"channel": 1,
				"type": "channel",
				"noteNumber": 33,
				"velocity": 111,
				"subtype": "noteOn"
			},
			{
				"deltaTime": 180,
				"channel": 1,
				"type": "channel",
				"subtype": "noteOff",
				"noteNumber": 33,
				"velocity": 64
			},
			{
				"deltaTime": 60,
				"channel": 1,
				"type": "channel",
				"noteNumber": 45,
				"velocity": 117,
				"subtype": "noteOn"
			},
			{
				"deltaTime": 180,
				"channel": 1,
				"type": "channel",
				"subtype": "noteOff",
				"noteNumber": 45,
				"velocity": 64
			},
			{
				"deltaTime": 60,
				"channel": 1,
				"type": "channel",
				"noteNumber": 43,
				"velocity": 109,
				"subtype": "noteOn"
			},
			{
				"deltaTime": 180,
				"channel": 1,
				"type": "channel",
				"subtype": "noteOff",
				"noteNumber": 43,
				"velocity": 64
			},
			{
				"deltaTime": 60,
				"channel": 1,
				"type": "channel",
				"noteNumber": 45,
				"velocity": 125,
				"subtype": "noteOn"
			},
			{
				"deltaTime": 300,
				"channel": 1,
				"type": "channel",
				"subtype": "noteOff",
				"noteNumber": 45,
				"velocity": 64
			},
			{
				"deltaTime": 60,
				"channel": 1,
				"type": "channel",
				"noteNumber": 43,
				"velocity": 109,
				"subtype": "noteOn"
			},
			{
				"deltaTime": 90,
				"channel": 1,
				"type": "channel",
				"subtype": "noteOff",
				"noteNumber": 43,
				"velocity": 64
			},
			{
				"deltaTime": 30,
				"channel": 1,
				"type": "channel",
				"noteNumber": 45,
				"velocity": 114,
				"subtype": "noteOn"
			},
			{
				"deltaTime": 180,
				"channel": 1,
				"type": "channel",
				"subtype": "noteOff",
				"noteNumber": 45,
				"velocity": 64
			},
			{
				"deltaTime": 60,
				"channel": 1,
				"type": "channel",
				"noteNumber": 43,
				"velocity": 120,
				"subtype": "noteOn"
			},
			{
				"deltaTime": 180,
				"channel": 1,
				"type": "channel",
				"subtype": "noteOff",
				"noteNumber": 43,
				"velocity": 64
			},
			{
				"deltaTime": 60,
				"channel": 1,
				"type": "channel",
				"noteNumber": 37,
				"velocity": 123,
				"subtype": "noteOn"
			},
			{
				"deltaTime": 180,
				"channel": 1,
				"type": "channel",
				"subtype": "noteOff",
				"noteNumber": 37,
				"velocity": 64
			},
			{
				"deltaTime": 60,
				"channel": 1,
				"type": "channel",
				"noteNumber": 40,
				"velocity": 114,
				"subtype": "noteOn"
			},
			{
				"deltaTime": 180,
				"channel": 1,
				"type": "channel",
				"subtype": "noteOff",
				"noteNumber": 40,
				"velocity": 64
			},
			{
				"deltaTime": 60,
				"channel": 1,
				"type": "channel",
				"noteNumber": 40,
				"velocity": 114,
				"subtype": "noteOn"
			},
			{
				"deltaTime": 180,
				"channel": 1,
				"type": "channel",
				"subtype": "noteOff",
				"noteNumber": 40,
				"velocity": 64
			},
			{
				"deltaTime": 60,
				"channel": 1,
				"type": "channel",
				"noteNumber": 40,
				"velocity": 113,
				"subtype": "noteOn"
			},
			{
				"deltaTime": 180,
				"channel": 1,
				"type": "channel",
				"subtype": "noteOff",
				"noteNumber": 40,
				"velocity": 64
			},
			{
				"deltaTime": 60,
				"channel": 1,
				"type": "channel",
				"noteNumber": 40,
				"velocity": 109,
				"subtype": "noteOn"
			},
			{
				"deltaTime": 180,
				"channel": 1,
				"type": "channel",
				"subtype": "noteOff",
				"noteNumber": 40,
				"velocity": 64
			},
			{
				"deltaTime": 60,
				"channel": 1,
				"type": "channel",
				"noteNumber": 40,
				"velocity": 105,
				"subtype": "noteOn"
			},
			{
				"deltaTime": 180,
				"channel": 1,
				"type": "channel",
				"subtype": "noteOff",
				"noteNumber": 40,
				"velocity": 64
			},
			{
				"deltaTime": 60,
				"channel": 1,
				"type": "channel",
				"noteNumber": 40,
				"velocity": 112,
				"subtype": "noteOn"
			},
			{
				"deltaTime": 180,
				"channel": 1,
				"type": "channel",
				"subtype": "noteOff",
				"noteNumber": 40,
				"velocity": 64
			},
			{
				"deltaTime": 60,
				"channel": 1,
				"type": "channel",
				"noteNumber": 40,
				"velocity": 111,
				"subtype": "noteOn"
			},
			{
				"deltaTime": 180,
				"channel": 1,
				"type": "channel",
				"subtype": "noteOff",
				"noteNumber": 40,
				"velocity": 64
			},
			{
				"deltaTime": 60,
				"channel": 1,
				"type": "channel",
				"noteNumber": 39,
				"velocity": 117,
				"subtype": "noteOn"
			},
			{
				"deltaTime": 180,
				"channel": 1,
				"type": "channel",
				"subtype": "noteOff",
				"noteNumber": 39,
				"velocity": 64
			},
			{
				"deltaTime": 60,
				"channel": 1,
				"type": "channel",
				"noteNumber": 38,
				"velocity": 114,
				"subtype": "noteOn"
			},
			{
				"deltaTime": 420,
				"channel": 1,
				"type": "channel",
				"subtype": "noteOff",
				"noteNumber": 38,
				"velocity": 64
			},
			{
				"deltaTime": 1740,
				"channel": 1,
				"type": "channel",
				"noteNumber": 45,
				"velocity": 119,
				"subtype": "noteOn"
			},
			{
				"deltaTime": 90,
				"channel": 1,
				"type": "channel",
				"subtype": "noteOff",
				"noteNumber": 45,
				"velocity": 64
			},
			{
				"deltaTime": 30,
				"channel": 1,
				"type": "channel",
				"noteNumber": 43,
				"velocity": 116,
				"subtype": "noteOn"
			},
			{
				"deltaTime": 90,
				"channel": 1,
				"type": "channel",
				"subtype": "noteOff",
				"noteNumber": 43,
				"velocity": 64
			},
			{
				"deltaTime": 30,
				"channel": 1,
				"type": "channel",
				"noteNumber": 45,
				"velocity": 105,
				"subtype": "noteOn"
			},
			{
				"deltaTime": 90,
				"channel": 1,
				"type": "channel",
				"subtype": "noteOff",
				"noteNumber": 45,
				"velocity": 64
			},
			{
				"deltaTime": 30,
				"channel": 1,
				"type": "channel",
				"noteNumber": 43,
				"velocity": 114,
				"subtype": "noteOn"
			},
			{
				"deltaTime": 90,
				"channel": 1,
				"type": "channel",
				"subtype": "noteOff",
				"noteNumber": 43,
				"velocity": 64
			},
			{
				"deltaTime": 30,
				"channel": 1,
				"type": "channel",
				"noteNumber": 40,
				"velocity": 107,
				"subtype": "noteOn"
			},
			{
				"deltaTime": 180,
				"channel": 1,
				"type": "channel",
				"subtype": "noteOff",
				"noteNumber": 40,
				"velocity": 64
			},
			{
				"deltaTime": 60,
				"channel": 1,
				"type": "channel",
				"noteNumber": 43,
				"velocity": 118,
				"subtype": "noteOn"
			},
			{
				"deltaTime": 180,
				"channel": 1,
				"type": "channel",
				"subtype": "noteOff",
				"noteNumber": 43,
				"velocity": 64
			},
			{
				"deltaTime": 60,
				"channel": 1,
				"type": "channel",
				"noteNumber": 45,
				"velocity": 113,
				"subtype": "noteOn"
			},
			{
				"deltaTime": 90,
				"channel": 1,
				"type": "channel",
				"subtype": "noteOff",
				"noteNumber": 45,
				"velocity": 64
			},
			{
				"deltaTime": 30,
				"channel": 1,
				"type": "channel",
				"noteNumber": 31,
				"velocity": 115,
				"subtype": "noteOn"
			},
			{
				"deltaTime": 90,
				"channel": 1,
				"type": "channel",
				"subtype": "noteOff",
				"noteNumber": 31,
				"velocity": 64
			},
			{
				"deltaTime": 30,
				"channel": 1,
				"type": "channel",
				"noteNumber": 38,
				"velocity": 106,
				"subtype": "noteOn"
			},
			{
				"deltaTime": 180,
				"channel": 1,
				"type": "channel",
				"subtype": "noteOff",
				"noteNumber": 38,
				"velocity": 64
			},
			{
				"deltaTime": 60,
				"channel": 1,
				"type": "channel",
				"noteNumber": 36,
				"velocity": 111,
				"subtype": "noteOn"
			},
			{
				"deltaTime": 180,
				"channel": 1,
				"type": "channel",
				"subtype": "noteOff",
				"noteNumber": 36,
				"velocity": 64
			},
			{
				"deltaTime": 1020,
				"channel": 1,
				"type": "channel",
				"noteNumber": 33,
				"velocity": 111,
				"subtype": "noteOn"
			},
			{
				"deltaTime": 1380,
				"channel": 1,
				"type": "channel",
				"subtype": "noteOff",
				"noteNumber": 33,
				"velocity": 64
			},
			{
				"deltaTime": 0,
				"type": "meta",
				"subtype": "endOfTrack"
			}
		],
		[
			{
				"deltaTime": 0,
				"type": "meta",
				"subtype": "trackName",
				"text": "MIDI Drums"
			},
			{
				"deltaTime": 0,
				"channel": 9,
				"type": "channel",
				"noteNumber": 44,
				"velocity": 127,
				"subtype": "noteOn"
			},
			{
				"deltaTime": 60,
				"channel": 9,
				"type": "channel",
				"subtype": "noteOff",
				"noteNumber": 44,
				"velocity": 64
			},
			{
				"deltaTime": 418,
				"channel": 9,
				"type": "channel",
				"noteNumber": 44,
				"velocity": 125,
				"subtype": "noteOn"
			},
			{
				"deltaTime": 60,
				"channel": 9,
				"type": "channel",
				"subtype": "noteOff",
				"noteNumber": 44,
				"velocity": 64
			},
			{
				"deltaTime": 422,
				"channel": 9,
				"type": "channel",
				"noteNumber": 44,
				"velocity": 127,
				"subtype": "noteOn"
			},
			{
				"deltaTime": 60,
				"channel": 9,
				"type": "channel",
				"subtype": "noteOff",
				"noteNumber": 44,
				"velocity": 64
			},
			{
				"deltaTime": 418,
				"channel": 9,
				"type": "channel",
				"noteNumber": 44,
				"velocity": 125,
				"subtype": "noteOn"
			},
			{
				"deltaTime": 60,
				"channel": 9,
				"type": "channel",
				"subtype": "noteOff",
				"noteNumber": 44,
				"velocity": 64
			},
			{
				"deltaTime": 422,
				"channel": 9,
				"type": "channel",
				"noteNumber": 44,
				"velocity": 127,
				"subtype": "noteOn"
			},
			{
				"deltaTime": 60,
				"channel": 9,
				"type": "channel",
				"subtype": "noteOff",
				"noteNumber": 44,
				"velocity": 64
			},
			{
				"deltaTime": 418,
				"channel": 9,
				"type": "channel",
				"noteNumber": 44,
				"velocity": 125,
				"subtype": "noteOn"
			},
			{
				"deltaTime": 60,
				"channel": 9,
				"type": "channel",
				"subtype": "noteOff",
				"noteNumber": 44,
				"velocity": 64
			},
			{
				"deltaTime": 310,
				"channel": 9,
				"type": "channel",
				"noteNumber": 38,
				"velocity": 48,
				"subtype": "noteOn"
			},
			{
				"deltaTime": 52,
				"channel": 9,
				"type": "channel",
				"noteNumber": 38,
				"velocity": 40,
				"subtype": "noteOn"
			},
			{
				"deltaTime": 8,
				"channel": 9,
				"type": "channel",
				"subtype": "noteOff",
				"noteNumber": 38,
				"velocity": 64
			},
			{
				"deltaTime": 52,
				"channel": 9,
				"type": "channel",
				"subtype": "noteOff",
				"noteNumber": 38,
				"velocity": 64
			},
			{
				"deltaTime": 6,
				"channel": 9,
				"type": "channel",
				"noteNumber": 38,
				"velocity": 121,
				"subtype": "noteOn"
			},
			{
				"deltaTime": 60,
				"channel": 9,
				"type": "channel",
				"subtype": "noteOff",
				"noteNumber": 38,
				"velocity": 64
			},
			{
				"deltaTime": 182,
				"channel": 9,
				"type": "channel",
				"noteNumber": 38,
				"velocity": 117,
				"subtype": "noteOn"
			},
			{
				"deltaTime": 60,
				"channel": 9,
				"type": "channel",
				"subtype": "noteOff",
				"noteNumber": 38,
				"velocity": 64
			},
			{
				"deltaTime": 72,
				"channel": 9,
				"type": "channel",
				"noteNumber": 38,
				"velocity": 125,
				"subtype": "noteOn"
			},
			{
				"deltaTime": 60,
				"channel": 9,
				"type": "channel",
				"subtype": "noteOff",
				"noteNumber": 38,
				"velocity": 64
			},
			{
				"deltaTime": 184,
				"channel": 9,
				"type": "channel",
				"noteNumber": 38,
				"velocity": 54,
				"subtype": "noteOn"
			},
			{
				"deltaTime": 60,
				"channel": 9,
				"type": "channel",
				"subtype": "noteOff",
				"noteNumber": 38,
				"velocity": 64
			},
			{
				"deltaTime": 40,
				"channel": 9,
				"type": "channel",
				"noteNumber": 38,
				"velocity": 119,
				"subtype": "noteOn"
			},
			{
				"deltaTime": 60,
				"channel": 9,
				"type": "channel",
				"subtype": "noteOff",
				"noteNumber": 38,
				"velocity": 64
			},
			{
				"deltaTime": 62,
				"channel": 9,
				"type": "channel",
				"noteNumber": 38,
				"velocity": 126,
				"subtype": "noteOn"
			},
			{
				"deltaTime": 60,
				"channel": 9,
				"type": "channel",
				"subtype": "noteOff",
				"noteNumber": 38,
				"velocity": 64
			},
			{
				"deltaTime": 54,
				"channel": 9,
				"type": "channel",
				"noteNumber": 36,
				"velocity": 112,
				"subtype": "noteOn"
			},
			{
				"deltaTime": 0,
				"channel": 9,
				"type": "channel",
				"noteNumber": 49,
				"velocity": 125,
				"subtype": "noteOn"
			},
			{
				"deltaTime": 60,
				"channel": 9,
				"type": "channel",
				"subtype": "noteOff",
				"noteNumber": 36,
				"velocity": 64
			},
			{
				"deltaTime": 0,
				"channel": 9,
				"type": "channel",
				"subtype": "noteOff",
				"noteNumber": 49,
				"velocity": 64
			},
			{
				"deltaTime": 202,
				"channel": 9,
				"type": "channel",
				"noteNumber": 36,
				"velocity": 101,
				"subtype": "noteOn"
			},
			{
				"deltaTime": 8,
				"channel": 9,
				"type": "channel",
				"noteNumber": 42,
				"velocity": 55,
				"subtype": "noteOn"
			},
			{
				"deltaTime": 52,
				"channel": 9,
				"type": "channel",
				"subtype": "noteOff",
				"noteNumber": 36,
				"velocity": 64
			},
			{
				"deltaTime": 8,
				"channel": 9,
				"type": "channel",
				"subtype": "noteOff",
				"noteNumber": 42,
				"velocity": 64
			},
			{
				"deltaTime": 156,
				"channel": 9,
				"type": "channel",
				"noteNumber": 38,
				"velocity": 116,
				"subtype": "noteOn"
			},
			{
				"deltaTime": 6,
				"channel": 9,
				"type": "channel",
				"noteNumber": 42,
				"velocity": 89,
				"subtype": "noteOn"
			},
			{
				"deltaTime": 54,
				"channel": 9,
				"type": "channel",
				"subtype": "noteOff",
				"noteNumber": 38,
				"velocity": 64
			},
			{
				"deltaTime": 6,
				"channel": 9,
				"type": "channel",
				"subtype": "noteOff",
				"noteNumber": 42,
				"velocity": 64
			},
			{
				"deltaTime": 182,
				"channel": 9,
				"type": "channel",
				"noteNumber": 42,
				"velocity": 49,
				"subtype": "noteOn"
			},
			{
				"deltaTime": 60,
				"channel": 9,
				"type": "channel",
				"subtype": "noteOff",
				"noteNumber": 42,
				"velocity": 64
			},
			{
				"deltaTime": 76,
				"channel": 9,
				"type": "channel",
				"noteNumber": 38,
				"velocity": 102,
				"subtype": "noteOn"
			},
			{
				"deltaTime": 60,
				"channel": 9,
				"type": "channel",
				"subtype": "noteOff",
				"noteNumber": 38,
				"velocity": 64
			},
			{
				"deltaTime": 36,
				"channel": 9,
				"type": "channel",
				"noteNumber": 36,
				"velocity": 106,
				"subtype": "noteOn"
			},
			{
				"deltaTime": 8,
				"channel": 9,
				"type": "channel",
				"noteNumber": 42,
				"velocity": 83,
				"subtype": "noteOn"
			},
			{
				"deltaTime": 52,
				"channel": 9,
				"type": "channel",
				"subtype": "noteOff",
				"noteNumber": 36,
				"velocity": 64
			},
			{
				"deltaTime": 8,
				"channel": 9,
				"type": "channel",
				"subtype": "noteOff",
				"noteNumber": 42,
				"velocity": 64
			},
			{
				"deltaTime": 186,
				"channel": 9,
				"type": "channel",
				"noteNumber": 36,
				"velocity": 104,
				"subtype": "noteOn"
			},
			{
				"deltaTime": 2,
				"channel": 9,
				"type": "channel",
				"noteNumber": 42,
				"velocity": 55,
				"subtype": "noteOn"
			},
			{
				"deltaTime": 58,
				"channel": 9,
				"type": "channel",
				"subtype": "noteOff",
				"noteNumber": 36,
				"velocity": 64
			},
			{
				"deltaTime": 2,
				"channel": 9,
				"type": "channel",
				"subtype": "noteOff",
				"noteNumber": 42,
				"velocity": 64
			},
			{
				"deltaTime": 170,
				"channel": 9,
				"type": "channel",
				"noteNumber": 38,
				"velocity": 118,
				"subtype": "noteOn"
			},
			{
				"deltaTime": 6,
				"channel": 9,
				"type": "channel",
				"noteNumber": 42,
				"velocity": 89,
				"subtype": "noteOn"
			},
			{
				"deltaTime": 54,
				"channel": 9,
				"type": "channel",
				"subtype": "noteOff",
				"noteNumber": 38,
				"velocity": 64
			},
			{
				"deltaTime": 6,
				"channel": 9,
				"type": "channel",
				"subtype": "noteOff",
				"noteNumber": 42,
				"velocity": 64
			},
			{
				"deltaTime": 178,
				"channel": 9,
				"type": "channel",
				"noteNumber": 42,
				"velocity": 49,
				"subtype": "noteOn"
			},
			{
				"deltaTime": 60,
				"channel": 9,
				"type": "channel",
				"subtype": "noteOff",
				"noteNumber": 42,
				"velocity": 64
			},
			{
				"deltaTime": 74,
				"channel": 9,
				"type": "channel",
				"noteNumber": 38,
				"velocity": 100,
				"subtype": "noteOn"
			},
			{
				"deltaTime": 60,
				"channel": 9,
				"type": "channel",
				"subtype": "noteOff",
				"noteNumber": 38,
				"velocity": 64
			},
			{
				"deltaTime": 40,
				"channel": 9,
				"type": "channel",
				"noteNumber": 36,
				"velocity": 109,
				"subtype": "noteOn"
			},
			{
				"deltaTime": 2,
				"channel": 9,
				"type": "channel",
				"noteNumber": 42,
				"velocity": 84,
				"subtype": "noteOn"
			},
			{
				"deltaTime": 58,
				"channel": 9,
				"type": "channel",
				"subtype": "noteOff",
				"noteNumber": 36,
				"velocity": 64
			},
			{
				"deltaTime": 2,
				"channel": 9,
				"type": "channel",
				"subtype": "noteOff",
				"noteNumber": 42,
				"velocity": 64
			},
			{
				"deltaTime": 182,
				"channel": 9,
				"type": "channel",
				"noteNumber": 36,
				"velocity": 104,
				"subtype": "noteOn"
			},
			{
				"deltaTime": 2,
				"channel": 9,
				"type": "channel",
				"noteNumber": 42,
				"velocity": 60,
				"subtype": "noteOn"
			},
			{
				"deltaTime": 58,
				"channel": 9,
				"type": "channel",
				"subtype": "noteOff",
				"noteNumber": 36,
				"velocity": 64
			},
			{
				"deltaTime": 2,
				"channel": 9,
				"type": "channel",
				"subtype": "noteOff",
				"noteNumber": 42,
				"velocity": 64
			},
			{
				"deltaTime": 176,
				"channel": 9,
				"type": "channel",
				"noteNumber": 38,
				"velocity": 113,
				"subtype": "noteOn"
			},
			{
				"deltaTime": 4,
				"channel": 9,
				"type": "channel",
				"noteNumber": 42,
				"velocity": 85,
				"subtype": "noteOn"
			},
			{
				"deltaTime": 56,
				"channel": 9,
				"type": "channel",
				"subtype": "noteOff",
				"noteNumber": 38,
				"velocity": 64
			},
			{
				"deltaTime": 4,
				"channel": 9,
				"type": "channel",
				"subtype": "noteOff",
				"noteNumber": 42,
				"velocity": 64
			},
			{
				"deltaTime": 180,
				"channel": 9,
				"type": "channel",
				"noteNumber": 42,
				"velocity": 44,
				"subtype": "noteOn"
			},
			{
				"deltaTime": 60,
				"channel": 9,
				"type": "channel",
				"subtype": "noteOff",
				"noteNumber": 42,
				"velocity": 64
			},
			{
				"deltaTime": 74,
				"channel": 9,
				"type": "channel",
				"noteNumber": 38,
				"velocity": 104,
				"subtype": "noteOn"
			},
			{
				"deltaTime": 60,
				"channel": 9,
				"type": "channel",
				"subtype": "noteOff",
				"noteNumber": 38,
				"velocity": 64
			},
			{
				"deltaTime": 42,
				"channel": 9,
				"type": "channel",
				"noteNumber": 42,
				"velocity": 77,
				"subtype": "noteOn"
			},
			{
				"deltaTime": 2,
				"channel": 9,
				"type": "channel",
				"noteNumber": 36,
				"velocity": 105,
				"subtype": "noteOn"
			},
			{
				"deltaTime": 58,
				"channel": 9,
				"type": "channel",
				"subtype": "noteOff",
				"noteNumber": 42,
				"velocity": 64
			},
			{
				"deltaTime": 2,
				"channel": 9,
				"type": "channel",
				"subtype": "noteOff",
				"noteNumber": 36,
				"velocity": 64
			},
			{
				"deltaTime": 190,
				"channel": 9,
				"type": "channel",
				"noteNumber": 36,
				"velocity": 104,
				"subtype": "noteOn"
			},
			{
				"deltaTime": 2,
				"channel": 9,
				"type": "channel",
				"noteNumber": 42,
				"velocity": 64,
				"subtype": "noteOn"
			},
			{
				"deltaTime": 58,
				"channel": 9,
				"type": "channel",
				"subtype": "noteOff",
				"noteNumber": 36,
				"velocity": 64
			},
			{
				"deltaTime": 2,
				"channel": 9,
				"type": "channel",
				"subtype": "noteOff",
				"noteNumber": 42,
				"velocity": 64
			},
			{
				"deltaTime": 162,
				"channel": 9,
				"type": "channel",
				"noteNumber": 38,
				"velocity": 117,
				"subtype": "noteOn"
			},
			{
				"deltaTime": 6,
				"channel": 9,
				"type": "channel",
				"noteNumber": 42,
				"velocity": 85,
				"subtype": "noteOn"
			},
			{
				"deltaTime": 54,
				"channel": 9,
				"type": "channel",
				"subtype": "noteOff",
				"noteNumber": 38,
				"velocity": 64
			},
			{
				"deltaTime": 6,
				"channel": 9,
				"type": "channel",
				"subtype": "noteOff",
				"noteNumber": 42,
				"velocity": 64
			},
			{
				"deltaTime": 174,
				"channel": 9,
				"type": "channel",
				"noteNumber": 42,
				"velocity": 49,
				"subtype": "noteOn"
			},
			{
				"deltaTime": 60,
				"channel": 9,
				"type": "channel",
				"subtype": "noteOff",
				"noteNumber": 42,
				"velocity": 64
			},
			{
				"deltaTime": 72,
				"channel": 9,
				"type": "channel",
				"noteNumber": 38,
				"velocity": 98,
				"subtype": "noteOn"
			},
			{
				"deltaTime": 60,
				"channel": 9,
				"type": "channel",
				"subtype": "noteOff",
				"noteNumber": 38,
				"velocity": 64
			},
			{
				"deltaTime": 52,
				"channel": 9,
				"type": "channel",
				"noteNumber": 36,
				"velocity": 110,
				"subtype": "noteOn"
			},
			{
				"deltaTime": 0,
				"channel": 9,
				"type": "channel",
				"noteNumber": 42,
				"velocity": 77,
				"subtype": "noteOn"
			},
			{
				"deltaTime": 60,
				"channel": 9,
				"type": "channel",
				"subtype": "noteOff",
				"noteNumber": 36,
				"velocity": 64
			},
			{
				"deltaTime": 0,
				"channel": 9,
				"type": "channel",
				"subtype": "noteOff",
				"noteNumber": 42,
				"velocity": 64
			},
			{
				"deltaTime": 188,
				"channel": 9,
				"type": "channel",
				"noteNumber": 36,
				"velocity": 103,
				"subtype": "noteOn"
			},
			{
				"deltaTime": 2,
				"channel": 9,
				"type": "channel",
				"noteNumber": 42,
				"velocity": 60,
				"subtype": "noteOn"
			},
			{
				"deltaTime": 58,
				"channel": 9,
				"type": "channel",
				"subtype": "noteOff",
				"noteNumber": 36,
				"velocity": 64
			},
			{
				"deltaTime": 2,
				"channel": 9,
				"type": "channel",
				"subtype": "noteOff",
				"noteNumber": 42,
				"velocity": 64
			},
			{
				"deltaTime": 168,
				"channel": 9,
				"type": "channel",
				"noteNumber": 38,
				"velocity": 119,
				"subtype": "noteOn"
			},
			{
				"deltaTime": 4,
				"channel": 9,
				"type": "channel",
				"noteNumber": 42,
				"velocity": 84,
				"subtype": "noteOn"
			},
			{
				"deltaTime": 56,
				"channel": 9,
				"type": "channel",
				"subtype": "noteOff",
				"noteNumber": 38,
				"velocity": 64
			},
			{
				"deltaTime": 4,
				"channel": 9,
				"type": "channel",
				"subtype": "noteOff",
				"noteNumber": 42,
				"velocity": 64
			},
			{
				"deltaTime": 168,
				"channel": 9,
				"type": "channel",
				"noteNumber": 42,
				"velocity": 50,
				"subtype": "noteOn"
			},
			{
				"deltaTime": 60,
				"channel": 9,
				"type": "channel",
				"subtype": "noteOff",
				"noteNumber": 42,
				"velocity": 64
			},
			{
				"deltaTime": 80,
				"channel": 9,
				"type": "channel",
				"noteNumber": 38,
				"velocity": 102,
				"subtype": "noteOn"
			},
			{
				"deltaTime": 60,
				"channel": 9,
				"type": "channel",
				"subtype": "noteOff",
				"noteNumber": 38,
				"velocity": 64
			},
			{
				"deltaTime": 42,
				"channel": 9,
				"type": "channel",
				"noteNumber": 36,
				"velocity": 106,
				"subtype": "noteOn"
			},
			{
				"deltaTime": 6,
				"channel": 9,
				"type": "channel",
				"noteNumber": 42,
				"velocity": 69,
				"subtype": "noteOn"
			},
			{
				"deltaTime": 54,
				"channel": 9,
				"type": "channel",
				"subtype": "noteOff",
				"noteNumber": 36,
				"velocity": 64
			},
			{
				"deltaTime": 6,
				"channel": 9,
				"type": "channel",
				"subtype": "noteOff",
				"noteNumber": 42,
				"velocity": 64
			},
			{
				"deltaTime": 184,
				"channel": 9,
				"type": "channel",
				"noteNumber": 36,
				"velocity": 103,
				"subtype": "noteOn"
			},
			{
				"deltaTime": 4,
				"channel": 9,
				"type": "channel",
				"noteNumber": 42,
				"velocity": 46,
				"subtype": "noteOn"
			},
			{
				"deltaTime": 56,
				"channel": 9,
				"type": "channel",
				"subtype": "noteOff",
				"noteNumber": 36,
				"velocity": 64
			},
			{
				"deltaTime": 4,
				"channel": 9,
				"type": "channel",
				"subtype": "noteOff",
				"noteNumber": 42,
				"velocity": 64
			},
			{
				"deltaTime": 168,
				"channel": 9,
				"type": "channel",
				"noteNumber": 38,
				"velocity": 115,
				"subtype": "noteOn"
			},
			{
				"deltaTime": 6,
				"channel": 9,
				"type": "channel",
				"noteNumber": 42,
				"velocity": 84,
				"subtype": "noteOn"
			},
			{
				"deltaTime": 54,
				"channel": 9,
				"type": "channel",
				"subtype": "noteOff",
				"noteNumber": 38,
				"velocity": 64
			},
			{
				"deltaTime": 6,
				"channel": 9,
				"type": "channel",
				"subtype": "noteOff",
				"noteNumber": 42,
				"velocity": 64
			},
			{
				"deltaTime": 174,
				"channel": 9,
				"type": "channel",
				"noteNumber": 42,
				"velocity": 39,
				"subtype": "noteOn"
			},
			{
				"deltaTime": 60,
				"channel": 9,
				"type": "channel",
				"subtype": "noteOff",
				"noteNumber": 42,
				"velocity": 64
			},
			{
				"deltaTime": 78,
				"channel": 9,
				"type": "channel",
				"noteNumber": 38,
				"velocity": 102,
				"subtype": "noteOn"
			},
			{
				"deltaTime": 60,
				"channel": 9,
				"type": "channel",
				"subtype": "noteOff",
				"noteNumber": 38,
				"velocity": 64
			},
			{
				"deltaTime": 38,
				"channel": 9,
				"type": "channel",
				"noteNumber": 36,
				"velocity": 109,
				"subtype": "noteOn"
			},
			{
				"deltaTime": 2,
				"channel": 9,
				"type": "channel",
				"noteNumber": 42,
				"velocity": 71,
				"subtype": "noteOn"
			},
			{
				"deltaTime": 58,
				"channel": 9,
				"type": "channel",
				"subtype": "noteOff",
				"noteNumber": 36,
				"velocity": 64
			},
			{
				"deltaTime": 2,
				"channel": 9,
				"type": "channel",
				"subtype": "noteOff",
				"noteNumber": 42,
				"velocity": 64
			},
			{
				"deltaTime": 188,
				"channel": 9,
				"type": "channel",
				"noteNumber": 36,
				"velocity": 104,
				"subtype": "noteOn"
			},
			{
				"deltaTime": 4,
				"channel": 9,
				"type": "channel",
				"noteNumber": 42,
				"velocity": 60,
				"subtype": "noteOn"
			},
			{
				"deltaTime": 56,
				"channel": 9,
				"type": "channel",
				"subtype": "noteOff",
				"noteNumber": 36,
				"velocity": 64
			},
			{
				"deltaTime": 4,
				"channel": 9,
				"type": "channel",
				"subtype": "noteOff",
				"noteNumber": 42,
				"velocity": 64
			},
			{
				"deltaTime": 168,
				"channel": 9,
				"type": "channel",
				"noteNumber": 38,
				"velocity": 120,
				"subtype": "noteOn"
			},
			{
				"deltaTime": 10,
				"channel": 9,
				"type": "channel",
				"noteNumber": 42,
				"velocity": 78,
				"subtype": "noteOn"
			},
			{
				"deltaTime": 50,
				"channel": 9,
				"type": "channel",
				"subtype": "noteOff",
				"noteNumber": 38,
				"velocity": 64
			},
			{
				"deltaTime": 10,
				"channel": 9,
				"type": "channel",
				"subtype": "noteOff",
				"noteNumber": 42,
				"velocity": 64
			},
			{
				"deltaTime": 168,
				"channel": 9,
				"type": "channel",
				"noteNumber": 42,
				"velocity": 52,
				"subtype": "noteOn"
			},
			{
				"deltaTime": 60,
				"channel": 9,
				"type": "channel",
				"subtype": "noteOff",
				"noteNumber": 42,
				"velocity": 64
			},
			{
				"deltaTime": 86,
				"channel": 9,
				"type": "channel",
				"noteNumber": 38,
				"velocity": 105,
				"subtype": "noteOn"
			},
			{
				"deltaTime": 60,
				"channel": 9,
				"type": "channel",
				"subtype": "noteOff",
				"noteNumber": 38,
				"velocity": 64
			},
			{
				"deltaTime": 42,
				"channel": 9,
				"type": "channel",
				"noteNumber": 36,
				"velocity": 103,
				"subtype": "noteOn"
			},
			{
				"deltaTime": 2,
				"channel": 9,
				"type": "channel",
				"noteNumber": 42,
				"velocity": 86,
				"subtype": "noteOn"
			},
			{
				"deltaTime": 58,
				"channel": 9,
				"type": "channel",
				"subtype": "noteOff",
				"noteNumber": 36,
				"velocity": 64
			},
			{
				"deltaTime": 2,
				"channel": 9,
				"type": "channel",
				"subtype": "noteOff",
				"noteNumber": 42,
				"velocity": 64
			},
			{
				"deltaTime": 184,
				"channel": 9,
				"type": "channel",
				"noteNumber": 36,
				"velocity": 102,
				"subtype": "noteOn"
			},
			{
				"deltaTime": 2,
				"channel": 9,
				"type": "channel",
				"noteNumber": 42,
				"velocity": 55,
				"subtype": "noteOn"
			},
			{
				"deltaTime": 58,
				"channel": 9,
				"type": "channel",
				"subtype": "noteOff",
				"noteNumber": 36,
				"velocity": 64
			},
			{
				"deltaTime": 2,
				"channel": 9,
				"type": "channel",
				"subtype": "noteOff",
				"noteNumber": 42,
				"velocity": 64
			},
			{
				"deltaTime": 170,
				"channel": 9,
				"type": "channel",
				"noteNumber": 38,
				"velocity": 120,
				"subtype": "noteOn"
			},
			{
				"deltaTime": 8,
				"channel": 9,
				"type": "channel",
				"noteNumber": 42,
				"velocity": 84,
				"subtype": "noteOn"
			},
			{
				"deltaTime": 52,
				"channel": 9,
				"type": "channel",
				"subtype": "noteOff",
				"noteNumber": 38,
				"velocity": 64
			},
			{
				"deltaTime": 8,
				"channel": 9,
				"type": "channel",
				"subtype": "noteOff",
				"noteNumber": 42,
				"velocity": 64
			},
			{
				"deltaTime": 170,
				"channel": 9,
				"type": "channel",
				"noteNumber": 42,
				"velocity": 45,
				"subtype": "noteOn"
			},
			{
				"deltaTime": 60,
				"channel": 9,
				"type": "channel",
				"subtype": "noteOff",
				"noteNumber": 42,
				"velocity": 64
			},
			{
				"deltaTime": 76,
				"channel": 9,
				"type": "channel",
				"noteNumber": 38,
				"velocity": 100,
				"subtype": "noteOn"
			},
			{
				"deltaTime": 60,
				"channel": 9,
				"type": "channel",
				"subtype": "noteOff",
				"noteNumber": 38,
				"velocity": 64
			},
			{
				"deltaTime": 48,
				"channel": 9,
				"type": "channel",
				"noteNumber": 36,
				"velocity": 110,
				"subtype": "noteOn"
			},
			{
				"deltaTime": 2,
				"channel": 9,
				"type": "channel",
				"noteNumber": 42,
				"velocity": 80,
				"subtype": "noteOn"
			},
			{
				"deltaTime": 58,
				"channel": 9,
				"type": "channel",
				"subtype": "noteOff",
				"noteNumber": 36,
				"velocity": 64
			},
			{
				"deltaTime": 2,
				"channel": 9,
				"type": "channel",
				"subtype": "noteOff",
				"noteNumber": 42,
				"velocity": 64
			},
			{
				"deltaTime": 182,
				"channel": 9,
				"type": "channel",
				"noteNumber": 36,
				"velocity": 101,
				"subtype": "noteOn"
			},
			{
				"deltaTime": 8,
				"channel": 9,
				"type": "channel",
				"noteNumber": 42,
				"velocity": 55,
				"subtype": "noteOn"
			},
			{
				"deltaTime": 52,
				"channel": 9,
				"type": "channel",
				"subtype": "noteOff",
				"noteNumber": 36,
				"velocity": 64
			},
			{
				"deltaTime": 8,
				"channel": 9,
				"type": "channel",
				"subtype": "noteOff",
				"noteNumber": 42,
				"velocity": 64
			},
			{
				"deltaTime": 162,
				"channel": 9,
				"type": "channel",
				"noteNumber": 38,
				"velocity": 119,
				"subtype": "noteOn"
			},
			{
				"deltaTime": 10,
				"channel": 9,
				"type": "channel",
				"noteNumber": 42,
				"velocity": 83,
				"subtype": "noteOn"
			},
			{
				"deltaTime": 50,
				"channel": 9,
				"type": "channel",
				"subtype": "noteOff",
				"noteNumber": 38,
				"velocity": 64
			},
			{
				"deltaTime": 10,
				"channel": 9,
				"type": "channel",
				"subtype": "noteOff",
				"noteNumber": 42,
				"velocity": 64
			},
			{
				"deltaTime": 164,
				"channel": 9,
				"type": "channel",
				"noteNumber": 42,
				"velocity": 50,
				"subtype": "noteOn"
			},
			{
				"deltaTime": 60,
				"channel": 9,
				"type": "channel",
				"subtype": "noteOff",
				"noteNumber": 42,
				"velocity": 64
			},
			{
				"deltaTime": 82,
				"channel": 9,
				"type": "channel",
				"noteNumber": 38,
				"velocity": 101,
				"subtype": "noteOn"
			},
			{
				"deltaTime": 60,
				"channel": 9,
				"type": "channel",
				"subtype": "noteOff",
				"noteNumber": 38,
				"velocity": 64
			},
			{
				"deltaTime": 40,
				"channel": 9,
				"type": "channel",
				"noteNumber": 36,
				"velocity": 104,
				"subtype": "noteOn"
			},
			{
				"deltaTime": 6,
				"channel": 9,
				"type": "channel",
				"noteNumber": 42,
				"velocity": 71,
				"subtype": "noteOn"
			},
			{
				"deltaTime": 54,
				"channel": 9,
				"type": "channel",
				"subtype": "noteOff",
				"noteNumber": 36,
				"velocity": 64
			},
			{
				"deltaTime": 6,
				"channel": 9,
				"type": "channel",
				"subtype": "noteOff",
				"noteNumber": 42,
				"velocity": 64
			},
			{
				"deltaTime": 188,
				"channel": 9,
				"type": "channel",
				"noteNumber": 36,
				"velocity": 100,
				"subtype": "noteOn"
			},
			{
				"deltaTime": 2,
				"channel": 9,
				"type": "channel",
				"noteNumber": 42,
				"velocity": 47,
				"subtype": "noteOn"
			},
			{
				"deltaTime": 58,
				"channel": 9,
				"type": "channel",
				"subtype": "noteOff",
				"noteNumber": 36,
				"velocity": 64
			},
			{
				"deltaTime": 2,
				"channel": 9,
				"type": "channel",
				"subtype": "noteOff",
				"noteNumber": 42,
				"velocity": 64
			},
			{
				"deltaTime": 168,
				"channel": 9,
				"type": "channel",
				"noteNumber": 38,
				"velocity": 116,
				"subtype": "noteOn"
			},
			{
				"deltaTime": 8,
				"channel": 9,
				"type": "channel",
				"noteNumber": 42,
				"velocity": 80,
				"subtype": "noteOn"
			},
			{
				"deltaTime": 52,
				"channel": 9,
				"type": "channel",
				"subtype": "noteOff",
				"noteNumber": 38,
				"velocity": 64
			},
			{
				"deltaTime": 8,
				"channel": 9,
				"type": "channel",
				"subtype": "noteOff",
				"noteNumber": 42,
				"velocity": 64
			},
			{
				"deltaTime": 170,
				"channel": 9,
				"type": "channel",
				"noteNumber": 42,
				"velocity": 51,
				"subtype": "noteOn"
			},
			{
				"deltaTime": 60,
				"channel": 9,
				"type": "channel",
				"subtype": "noteOff",
				"noteNumber": 42,
				"velocity": 64
			},
			{
				"deltaTime": 82,
				"channel": 9,
				"type": "channel",
				"noteNumber": 38,
				"velocity": 96,
				"subtype": "noteOn"
			},
			{
				"deltaTime": 60,
				"channel": 9,
				"type": "channel",
				"subtype": "noteOff",
				"noteNumber": 38,
				"velocity": 64
			},
			{
				"deltaTime": 44,
				"channel": 9,
				"type": "channel",
				"noteNumber": 36,
				"velocity": 106,
				"subtype": "noteOn"
			},
			{
				"deltaTime": 2,
				"channel": 9,
				"type": "channel",
				"noteNumber": 42,
				"velocity": 84,
				"subtype": "noteOn"
			},
			{
				"deltaTime": 58,
				"channel": 9,
				"type": "channel",
				"subtype": "noteOff",
				"noteNumber": 36,
				"velocity": 64
			},
			{
				"deltaTime": 2,
				"channel": 9,
				"type": "channel",
				"subtype": "noteOff",
				"noteNumber": 42,
				"velocity": 64
			},
			{
				"deltaTime": 184,
				"channel": 9,
				"type": "channel",
				"noteNumber": 36,
				"velocity": 100,
				"subtype": "noteOn"
			},
			{
				"deltaTime": 8,
				"channel": 9,
				"type": "channel",
				"noteNumber": 42,
				"velocity": 62,
				"subtype": "noteOn"
			},
			{
				"deltaTime": 52,
				"channel": 9,
				"type": "channel",
				"subtype": "noteOff",
				"noteNumber": 36,
				"velocity": 64
			},
			{
				"deltaTime": 8,
				"channel": 9,
				"type": "channel",
				"subtype": "noteOff",
				"noteNumber": 42,
				"velocity": 64
			},
			{
				"deltaTime": 166,
				"channel": 9,
				"type": "channel",
				"noteNumber": 38,
				"velocity": 114,
				"subtype": "noteOn"
			},
			{
				"deltaTime": 6,
				"channel": 9,
				"type": "channel",
				"noteNumber": 42,
				"velocity": 83,
				"subtype": "noteOn"
			},
			{
				"deltaTime": 54,
				"channel": 9,
				"type": "channel",
				"subtype": "noteOff",
				"noteNumber": 38,
				"velocity": 64
			},
			{
				"deltaTime": 6,
				"channel": 9,
				"type": "channel",
				"subtype": "noteOff",
				"noteNumber": 42,
				"velocity": 64
			},
			{
				"deltaTime": 172,
				"channel": 9,
				"type": "channel",
				"noteNumber": 42,
				"velocity": 51,
				"subtype": "noteOn"
			},
			{
				"deltaTime": 60,
				"channel": 9,
				"type": "channel",
				"subtype": "noteOff",
				"noteNumber": 42,
				"velocity": 64
			},
			{
				"deltaTime": 74,
				"channel": 9,
				"type": "channel",
				"noteNumber": 38,
				"velocity": 96,
				"subtype": "noteOn"
			},
			{
				"deltaTime": 60,
				"channel": 9,
				"type": "channel",
				"subtype": "noteOff",
				"noteNumber": 38,
				"velocity": 64
			},
			{
				"deltaTime": 46,
				"channel": 9,
				"type": "channel",
				"noteNumber": 36,
				"velocity": 101,
				"subtype": "noteOn"
			},
			{
				"deltaTime": 8,
				"channel": 9,
				"type": "channel",
				"noteNumber": 42,
				"velocity": 75,
				"subtype": "noteOn"
			},
			{
				"deltaTime": 52,
				"channel": 9,
				"type": "channel",
				"subtype": "noteOff",
				"noteNumber": 36,
				"velocity": 64
			},
			{
				"deltaTime": 8,
				"channel": 9,
				"type": "channel",
				"subtype": "noteOff",
				"noteNumber": 42,
				"velocity": 64
			},
			{
				"deltaTime": 180,
				"channel": 9,
				"type": "channel",
				"noteNumber": 36,
				"velocity": 99,
				"subtype": "noteOn"
			},
			{
				"deltaTime": 10,
				"channel": 9,
				"type": "channel",
				"noteNumber": 42,
				"velocity": 55,
				"subtype": "noteOn"
			},
			{
				"deltaTime": 50,
				"channel": 9,
				"type": "channel",
				"subtype": "noteOff",
				"noteNumber": 36,
				"velocity": 64
			},
			{
				"deltaTime": 10,
				"channel": 9,
				"type": "channel",
				"subtype": "noteOff",
				"noteNumber": 42,
				"velocity": 64
			},
			{
				"deltaTime": 158,
				"channel": 9,
				"type": "channel",
				"noteNumber": 38,
				"velocity": 118,
				"subtype": "noteOn"
			},
			{
				"deltaTime": 8,
				"channel": 9,
				"type": "channel",
				"noteNumber": 42,
				"velocity": 82,
				"subtype": "noteOn"
			},
			{
				"deltaTime": 52,
				"channel": 9,
				"type": "channel",
				"subtype": "noteOff",
				"noteNumber": 38,
				"velocity": 64
			},
			{
				"deltaTime": 8,
				"channel": 9,
				"type": "channel",
				"subtype": "noteOff",
				"noteNumber": 42,
				"velocity": 64
			},
			{
				"deltaTime": 176,
				"channel": 9,
				"type": "channel",
				"noteNumber": 42,
				"velocity": 51,
				"subtype": "noteOn"
			},
			{
				"deltaTime": 60,
				"channel": 9,
				"type": "channel",
				"subtype": "noteOff",
				"noteNumber": 42,
				"velocity": 64
			},
			{
				"deltaTime": 74,
				"channel": 9,
				"type": "channel",
				"noteNumber": 38,
				"velocity": 95,
				"subtype": "noteOn"
			},
			{
				"deltaTime": 60,
				"channel": 9,
				"type": "channel",
				"subtype": "noteOff",
				"noteNumber": 38,
				"velocity": 64
			},
			{
				"deltaTime": 48,
				"channel": 9,
				"type": "channel",
				"noteNumber": 36,
				"velocity": 106,
				"subtype": "noteOn"
			},
			{
				"deltaTime": 2,
				"channel": 9,
				"type": "channel",
				"noteNumber": 42,
				"velocity": 78,
				"subtype": "noteOn"
			},
			{
				"deltaTime": 58,
				"channel": 9,
				"type": "channel",
				"subtype": "noteOff",
				"noteNumber": 36,
				"velocity": 64
			},
			{
				"deltaTime": 2,
				"channel": 9,
				"type": "channel",
				"subtype": "noteOff",
				"noteNumber": 42,
				"velocity": 64
			},
			{
				"deltaTime": 184,
				"channel": 9,
				"type": "channel",
				"noteNumber": 36,
				"velocity": 99,
				"subtype": "noteOn"
			},
			{
				"deltaTime": 4,
				"channel": 9,
				"type": "channel",
				"noteNumber": 42,
				"velocity": 60,
				"subtype": "noteOn"
			},
			{
				"deltaTime": 56,
				"channel": 9,
				"type": "channel",
				"subtype": "noteOff",
				"noteNumber": 36,
				"velocity": 64
			},
			{
				"deltaTime": 4,
				"channel": 9,
				"type": "channel",
				"subtype": "noteOff",
				"noteNumber": 42,
				"velocity": 64
			},
			{
				"deltaTime": 172,
				"channel": 9,
				"type": "channel",
				"noteNumber": 38,
				"velocity": 115,
				"subtype": "noteOn"
			},
			{
				"deltaTime": 4,
				"channel": 9,
				"type": "channel",
				"noteNumber": 42,
				"velocity": 79,
				"subtype": "noteOn"
			},
			{
				"deltaTime": 56,
				"channel": 9,
				"type": "channel",
				"subtype": "noteOff",
				"noteNumber": 38,
				"velocity": 64
			},
			{
				"deltaTime": 4,
				"channel": 9,
				"type": "channel",
				"subtype": "noteOff",
				"noteNumber": 42,
				"velocity": 64
			},
			{
				"deltaTime": 172,
				"channel": 9,
				"type": "channel",
				"noteNumber": 42,
				"velocity": 48,
				"subtype": "noteOn"
			},
			{
				"deltaTime": 60,
				"channel": 9,
				"type": "channel",
				"subtype": "noteOff",
				"noteNumber": 42,
				"velocity": 64
			},
			{
				"deltaTime": 76,
				"channel": 9,
				"type": "channel",
				"noteNumber": 38,
				"velocity": 98,
				"subtype": "noteOn"
			},
			{
				"deltaTime": 60,
				"channel": 9,
				"type": "channel",
				"subtype": "noteOff",
				"noteNumber": 38,
				"velocity": 64
			},
			{
				"deltaTime": 42,
				"channel": 9,
				"type": "channel",
				"noteNumber": 36,
				"velocity": 99,
				"subtype": "noteOn"
			},
			{
				"deltaTime": 10,
				"channel": 9,
				"type": "channel",
				"noteNumber": 42,
				"velocity": 85,
				"subtype": "noteOn"
			},
			{
				"deltaTime": 50,
				"channel": 9,
				"type": "channel",
				"subtype": "noteOff",
				"noteNumber": 36,
				"velocity": 64
			},
			{
				"deltaTime": 10,
				"channel": 9,
				"type": "channel",
				"subtype": "noteOff",
				"noteNumber": 42,
				"velocity": 64
			},
			{
				"deltaTime": 180,
				"channel": 9,
				"type": "channel",
				"noteNumber": 36,
				"velocity": 98,
				"subtype": "noteOn"
			},
			{
				"deltaTime": 4,
				"channel": 9,
				"type": "channel",
				"noteNumber": 42,
				"velocity": 65,
				"subtype": "noteOn"
			},
			{
				"deltaTime": 56,
				"channel": 9,
				"type": "channel",
				"subtype": "noteOff",
				"noteNumber": 36,
				"velocity": 64
			},
			{
				"deltaTime": 4,
				"channel": 9,
				"type": "channel",
				"subtype": "noteOff",
				"noteNumber": 42,
				"velocity": 64
			},
			{
				"deltaTime": 168,
				"channel": 9,
				"type": "channel",
				"noteNumber": 38,
				"velocity": 115,
				"subtype": "noteOn"
			},
			{
				"deltaTime": 8,
				"channel": 9,
				"type": "channel",
				"noteNumber": 42,
				"velocity": 77,
				"subtype": "noteOn"
			},
			{
				"deltaTime": 52,
				"channel": 9,
				"type": "channel",
				"subtype": "noteOff",
				"noteNumber": 38,
				"velocity": 64
			},
			{
				"deltaTime": 8,
				"channel": 9,
				"type": "channel",
				"subtype": "noteOff",
				"noteNumber": 42,
				"velocity": 64
			},
			{
				"deltaTime": 180,
				"channel": 9,
				"type": "channel",
				"noteNumber": 42,
				"velocity": 53,
				"subtype": "noteOn"
			},
			{
				"deltaTime": 60,
				"channel": 9,
				"type": "channel",
				"subtype": "noteOff",
				"noteNumber": 42,
				"velocity": 64
			},
			{
				"deltaTime": 74,
				"channel": 9,
				"type": "channel",
				"noteNumber": 38,
				"velocity": 100,
				"subtype": "noteOn"
			},
			{
				"deltaTime": 60,
				"channel": 9,
				"type": "channel",
				"subtype": "noteOff",
				"noteNumber": 38,
				"velocity": 64
			},
			{
				"deltaTime": 42,
				"channel": 9,
				"type": "channel",
				"noteNumber": 36,
				"velocity": 108,
				"subtype": "noteOn"
			},
			{
				"deltaTime": 2,
				"channel": 9,
				"type": "channel",
				"noteNumber": 42,
				"velocity": 84,
				"subtype": "noteOn"
			},
			{
				"deltaTime": 58,
				"channel": 9,
				"type": "channel",
				"subtype": "noteOff",
				"noteNumber": 36,
				"velocity": 64
			},
			{
				"deltaTime": 2,
				"channel": 9,
				"type": "channel",
				"subtype": "noteOff",
				"noteNumber": 42,
				"velocity": 64
			},
			{
				"deltaTime": 184,
				"channel": 9,
				"type": "channel",
				"noteNumber": 36,
				"velocity": 101,
				"subtype": "noteOn"
			},
			{
				"deltaTime": 8,
				"channel": 9,
				"type": "channel",
				"noteNumber": 42,
				"velocity": 62,
				"subtype": "noteOn"
			},
			{
				"deltaTime": 52,
				"channel": 9,
				"type": "channel",
				"subtype": "noteOff",
				"noteNumber": 36,
				"velocity": 64
			},
			{
				"deltaTime": 8,
				"channel": 9,
				"type": "channel",
				"subtype": "noteOff",
				"noteNumber": 42,
				"velocity": 64
			},
			{
				"deltaTime": 162,
				"channel": 9,
				"type": "channel",
				"noteNumber": 38,
				"velocity": 116,
				"subtype": "noteOn"
			},
			{
				"deltaTime": 8,
				"channel": 9,
				"type": "channel",
				"noteNumber": 42,
				"velocity": 89,
				"subtype": "noteOn"
			},
			{
				"deltaTime": 52,
				"channel": 9,
				"type": "channel",
				"subtype": "noteOff",
				"noteNumber": 38,
				"velocity": 64
			},
			{
				"deltaTime": 8,
				"channel": 9,
				"type": "channel",
				"subtype": "noteOff",
				"noteNumber": 42,
				"velocity": 64
			},
			{
				"deltaTime": 174,
				"channel": 9,
				"type": "channel",
				"noteNumber": 42,
				"velocity": 54,
				"subtype": "noteOn"
			},
			{
				"deltaTime": 60,
				"channel": 9,
				"type": "channel",
				"subtype": "noteOff",
				"noteNumber": 42,
				"velocity": 64
			},
			{
				"deltaTime": 78,
				"channel": 9,
				"type": "channel",
				"noteNumber": 38,
				"velocity": 96,
				"subtype": "noteOn"
			},
			{
				"deltaTime": 60,
				"channel": 9,
				"type": "channel",
				"subtype": "noteOff",
				"noteNumber": 38,
				"velocity": 64
			},
			{
				"deltaTime": 44,
				"channel": 9,
				"type": "channel",
				"noteNumber": 36,
				"velocity": 100,
				"subtype": "noteOn"
			},
			{
				"deltaTime": 4,
				"channel": 9,
				"type": "channel",
				"noteNumber": 42,
				"velocity": 92,
				"subtype": "noteOn"
			},
			{
				"deltaTime": 56,
				"channel": 9,
				"type": "channel",
				"subtype": "noteOff",
				"noteNumber": 36,
				"velocity": 64
			},
			{
				"deltaTime": 4,
				"channel": 9,
				"type": "channel",
				"subtype": "noteOff",
				"noteNumber": 42,
				"velocity": 64
			},
			{
				"deltaTime": 184,
				"channel": 9,
				"type": "channel",
				"noteNumber": 36,
				"velocity": 98,
				"subtype": "noteOn"
			},
			{
				"deltaTime": 4,
				"channel": 9,
				"type": "channel",
				"noteNumber": 42,
				"velocity": 59,
				"subtype": "noteOn"
			},
			{
				"deltaTime": 56,
				"channel": 9,
				"type": "channel",
				"subtype": "noteOff",
				"noteNumber": 36,
				"velocity": 64
			},
			{
				"deltaTime": 4,
				"channel": 9,
				"type": "channel",
				"subtype": "noteOff",
				"noteNumber": 42,
				"velocity": 64
			},
			{
				"deltaTime": 70,
				"channel": 9,
				"type": "channel",
				"noteNumber": 38,
				"velocity": 52,
				"subtype": "noteOn"
			},
			{
				"deltaTime": 60,
				"channel": 9,
				"type": "channel",
				"subtype": "noteOff",
				"noteNumber": 38,
				"velocity": 64
			},
			{
				"deltaTime": 32,
				"channel": 9,
				"type": "channel",
				"noteNumber": 38,
				"velocity": 123,
				"subtype": "noteOn"
			},
			{
				"deltaTime": 6,
				"channel": 9,
				"type": "channel",
				"noteNumber": 42,
				"velocity": 101,
				"subtype": "noteOn"
			},
			{
				"deltaTime": 54,
				"channel": 9,
				"type": "channel",
				"subtype": "noteOff",
				"noteNumber": 38,
				"velocity": 64
			},
			{
				"deltaTime": 6,
				"channel": 9,
				"type": "channel",
				"subtype": "noteOff",
				"noteNumber": 42,
				"velocity": 64
			},
			{
				"deltaTime": 70,
				"channel": 9,
				"type": "channel",
				"noteNumber": 38,
				"velocity": 36,
				"subtype": "noteOn"
			},
			{
				"deltaTime": 60,
				"channel": 9,
				"type": "channel",
				"subtype": "noteOff",
				"noteNumber": 38,
				"velocity": 64
			},
			{
				"deltaTime": 50,
				"channel": 9,
				"type": "channel",
				"noteNumber": 38,
				"velocity": 103,
				"subtype": "noteOn"
			},
			{
				"deltaTime": 60,
				"channel": 9,
				"type": "channel",
				"subtype": "noteOff",
				"noteNumber": 38,
				"velocity": 64
			},
			{
				"deltaTime": 66,
				"channel": 9,
				"type": "channel",
				"noteNumber": 38,
				"velocity": 121,
				"subtype": "noteOn"
			},
			{
				"deltaTime": 60,
				"channel": 9,
				"type": "channel",
				"subtype": "noteOff",
				"noteNumber": 38,
				"velocity": 64
			},
			{
				"deltaTime": 44,
				"channel": 9,
				"type": "channel",
				"noteNumber": 36,
				"velocity": 112,
				"subtype": "noteOn"
			},
			{
				"deltaTime": 0,
				"channel": 9,
				"type": "channel",
				"noteNumber": 49,
				"velocity": 125,
				"subtype": "noteOn"
			},
			{
				"deltaTime": 60,
				"channel": 9,
				"type": "channel",
				"subtype": "noteOff",
				"noteNumber": 36,
				"velocity": 64
			},
			{
				"deltaTime": 0,
				"channel": 9,
				"type": "channel",
				"subtype": "noteOff",
				"noteNumber": 49,
				"velocity": 64
			},
			{
				"deltaTime": 202,
				"channel": 9,
				"type": "channel",
				"noteNumber": 36,
				"velocity": 101,
				"subtype": "noteOn"
			},
			{
				"deltaTime": 8,
				"channel": 9,
				"type": "channel",
				"noteNumber": 42,
				"velocity": 55,
				"subtype": "noteOn"
			},
			{
				"deltaTime": 52,
				"channel": 9,
				"type": "channel",
				"subtype": "noteOff",
				"noteNumber": 36,
				"velocity": 64
			},
			{
				"deltaTime": 8,
				"channel": 9,
				"type": "channel",
				"subtype": "noteOff",
				"noteNumber": 42,
				"velocity": 64
			},
			{
				"deltaTime": 156,
				"channel": 9,
				"type": "channel",
				"noteNumber": 38,
				"velocity": 116,
				"subtype": "noteOn"
			},
			{
				"deltaTime": 6,
				"channel": 9,
				"type": "channel",
				"noteNumber": 42,
				"velocity": 89,
				"subtype": "noteOn"
			},
			{
				"deltaTime": 54,
				"channel": 9,
				"type": "channel",
				"subtype": "noteOff",
				"noteNumber": 38,
				"velocity": 64
			},
			{
				"deltaTime": 6,
				"channel": 9,
				"type": "channel",
				"subtype": "noteOff",
				"noteNumber": 42,
				"velocity": 64
			},
			{
				"deltaTime": 182,
				"channel": 9,
				"type": "channel",
				"noteNumber": 42,
				"velocity": 49,
				"subtype": "noteOn"
			},
			{
				"deltaTime": 60,
				"channel": 9,
				"type": "channel",
				"subtype": "noteOff",
				"noteNumber": 42,
				"velocity": 64
			},
			{
				"deltaTime": 76,
				"channel": 9,
				"type": "channel",
				"noteNumber": 38,
				"velocity": 102,
				"subtype": "noteOn"
			},
			{
				"deltaTime": 60,
				"channel": 9,
				"type": "channel",
				"subtype": "noteOff",
				"noteNumber": 38,
				"velocity": 64
			},
			{
				"deltaTime": 36,
				"channel": 9,
				"type": "channel",
				"noteNumber": 36,
				"velocity": 106,
				"subtype": "noteOn"
			},
			{
				"deltaTime": 8,
				"channel": 9,
				"type": "channel",
				"noteNumber": 42,
				"velocity": 83,
				"subtype": "noteOn"
			},
			{
				"deltaTime": 52,
				"channel": 9,
				"type": "channel",
				"subtype": "noteOff",
				"noteNumber": 36,
				"velocity": 64
			},
			{
				"deltaTime": 8,
				"channel": 9,
				"type": "channel",
				"subtype": "noteOff",
				"noteNumber": 42,
				"velocity": 64
			},
			{
				"deltaTime": 186,
				"channel": 9,
				"type": "channel",
				"noteNumber": 36,
				"velocity": 104,
				"subtype": "noteOn"
			},
			{
				"deltaTime": 2,
				"channel": 9,
				"type": "channel",
				"noteNumber": 42,
				"velocity": 55,
				"subtype": "noteOn"
			},
			{
				"deltaTime": 58,
				"channel": 9,
				"type": "channel",
				"subtype": "noteOff",
				"noteNumber": 36,
				"velocity": 64
			},
			{
				"deltaTime": 2,
				"channel": 9,
				"type": "channel",
				"subtype": "noteOff",
				"noteNumber": 42,
				"velocity": 64
			},
			{
				"deltaTime": 170,
				"channel": 9,
				"type": "channel",
				"noteNumber": 38,
				"velocity": 118,
				"subtype": "noteOn"
			},
			{
				"deltaTime": 6,
				"channel": 9,
				"type": "channel",
				"noteNumber": 42,
				"velocity": 89,
				"subtype": "noteOn"
			},
			{
				"deltaTime": 54,
				"channel": 9,
				"type": "channel",
				"subtype": "noteOff",
				"noteNumber": 38,
				"velocity": 64
			},
			{
				"deltaTime": 6,
				"channel": 9,
				"type": "channel",
				"subtype": "noteOff",
				"noteNumber": 42,
				"velocity": 64
			},
			{
				"deltaTime": 178,
				"channel": 9,
				"type": "channel",
				"noteNumber": 42,
				"velocity": 49,
				"subtype": "noteOn"
			},
			{
				"deltaTime": 60,
				"channel": 9,
				"type": "channel",
				"subtype": "noteOff",
				"noteNumber": 42,
				"velocity": 64
			},
			{
				"deltaTime": 74,
				"channel": 9,
				"type": "channel",
				"noteNumber": 38,
				"velocity": 100,
				"subtype": "noteOn"
			},
			{
				"deltaTime": 60,
				"channel": 9,
				"type": "channel",
				"subtype": "noteOff",
				"noteNumber": 38,
				"velocity": 64
			},
			{
				"deltaTime": 40,
				"channel": 9,
				"type": "channel",
				"noteNumber": 36,
				"velocity": 109,
				"subtype": "noteOn"
			},
			{
				"deltaTime": 2,
				"channel": 9,
				"type": "channel",
				"noteNumber": 42,
				"velocity": 84,
				"subtype": "noteOn"
			},
			{
				"deltaTime": 58,
				"channel": 9,
				"type": "channel",
				"subtype": "noteOff",
				"noteNumber": 36,
				"velocity": 64
			},
			{
				"deltaTime": 2,
				"channel": 9,
				"type": "channel",
				"subtype": "noteOff",
				"noteNumber": 42,
				"velocity": 64
			},
			{
				"deltaTime": 182,
				"channel": 9,
				"type": "channel",
				"noteNumber": 36,
				"velocity": 104,
				"subtype": "noteOn"
			},
			{
				"deltaTime": 2,
				"channel": 9,
				"type": "channel",
				"noteNumber": 42,
				"velocity": 60,
				"subtype": "noteOn"
			},
			{
				"deltaTime": 58,
				"channel": 9,
				"type": "channel",
				"subtype": "noteOff",
				"noteNumber": 36,
				"velocity": 64
			},
			{
				"deltaTime": 2,
				"channel": 9,
				"type": "channel",
				"subtype": "noteOff",
				"noteNumber": 42,
				"velocity": 64
			},
			{
				"deltaTime": 176,
				"channel": 9,
				"type": "channel",
				"noteNumber": 38,
				"velocity": 113,
				"subtype": "noteOn"
			},
			{
				"deltaTime": 4,
				"channel": 9,
				"type": "channel",
				"noteNumber": 42,
				"velocity": 85,
				"subtype": "noteOn"
			},
			{
				"deltaTime": 56,
				"channel": 9,
				"type": "channel",
				"subtype": "noteOff",
				"noteNumber": 38,
				"velocity": 64
			},
			{
				"deltaTime": 4,
				"channel": 9,
				"type": "channel",
				"subtype": "noteOff",
				"noteNumber": 42,
				"velocity": 64
			},
			{
				"deltaTime": 180,
				"channel": 9,
				"type": "channel",
				"noteNumber": 42,
				"velocity": 44,
				"subtype": "noteOn"
			},
			{
				"deltaTime": 60,
				"channel": 9,
				"type": "channel",
				"subtype": "noteOff",
				"noteNumber": 42,
				"velocity": 64
			},
			{
				"deltaTime": 74,
				"channel": 9,
				"type": "channel",
				"noteNumber": 38,
				"velocity": 104,
				"subtype": "noteOn"
			},
			{
				"deltaTime": 60,
				"channel": 9,
				"type": "channel",
				"subtype": "noteOff",
				"noteNumber": 38,
				"velocity": 64
			},
			{
				"deltaTime": 42,
				"channel": 9,
				"type": "channel",
				"noteNumber": 42,
				"velocity": 77,
				"subtype": "noteOn"
			},
			{
				"deltaTime": 2,
				"channel": 9,
				"type": "channel",
				"noteNumber": 36,
				"velocity": 105,
				"subtype": "noteOn"
			},
			{
				"deltaTime": 58,
				"channel": 9,
				"type": "channel",
				"subtype": "noteOff",
				"noteNumber": 42,
				"velocity": 64
			},
			{
				"deltaTime": 2,
				"channel": 9,
				"type": "channel",
				"subtype": "noteOff",
				"noteNumber": 36,
				"velocity": 64
			},
			{
				"deltaTime": 190,
				"channel": 9,
				"type": "channel",
				"noteNumber": 36,
				"velocity": 104,
				"subtype": "noteOn"
			},
			{
				"deltaTime": 2,
				"channel": 9,
				"type": "channel",
				"noteNumber": 42,
				"velocity": 64,
				"subtype": "noteOn"
			},
			{
				"deltaTime": 58,
				"channel": 9,
				"type": "channel",
				"subtype": "noteOff",
				"noteNumber": 36,
				"velocity": 64
			},
			{
				"deltaTime": 2,
				"channel": 9,
				"type": "channel",
				"subtype": "noteOff",
				"noteNumber": 42,
				"velocity": 64
			},
			{
				"deltaTime": 162,
				"channel": 9,
				"type": "channel",
				"noteNumber": 38,
				"velocity": 117,
				"subtype": "noteOn"
			},
			{
				"deltaTime": 6,
				"channel": 9,
				"type": "channel",
				"noteNumber": 42,
				"velocity": 85,
				"subtype": "noteOn"
			},
			{
				"deltaTime": 54,
				"channel": 9,
				"type": "channel",
				"subtype": "noteOff",
				"noteNumber": 38,
				"velocity": 64
			},
			{
				"deltaTime": 6,
				"channel": 9,
				"type": "channel",
				"subtype": "noteOff",
				"noteNumber": 42,
				"velocity": 64
			},
			{
				"deltaTime": 174,
				"channel": 9,
				"type": "channel",
				"noteNumber": 42,
				"velocity": 49,
				"subtype": "noteOn"
			},
			{
				"deltaTime": 60,
				"channel": 9,
				"type": "channel",
				"subtype": "noteOff",
				"noteNumber": 42,
				"velocity": 64
			},
			{
				"deltaTime": 72,
				"channel": 9,
				"type": "channel",
				"noteNumber": 38,
				"velocity": 98,
				"subtype": "noteOn"
			},
			{
				"deltaTime": 60,
				"channel": 9,
				"type": "channel",
				"subtype": "noteOff",
				"noteNumber": 38,
				"velocity": 64
			},
			{
				"deltaTime": 48,
				"channel": 9,
				"type": "channel",
				"noteNumber": 36,
				"velocity": 106,
				"subtype": "noteOn"
			},
			{
				"deltaTime": 2,
				"channel": 9,
				"type": "channel",
				"noteNumber": 42,
				"velocity": 78,
				"subtype": "noteOn"
			},
			{
				"deltaTime": 58,
				"channel": 9,
				"type": "channel",
				"subtype": "noteOff",
				"noteNumber": 36,
				"velocity": 64
			},
			{
				"deltaTime": 2,
				"channel": 9,
				"type": "channel",
				"subtype": "noteOff",
				"noteNumber": 42,
				"velocity": 64
			},
			{
				"deltaTime": 184,
				"channel": 9,
				"type": "channel",
				"noteNumber": 36,
				"velocity": 99,
				"subtype": "noteOn"
			},
			{
				"deltaTime": 4,
				"channel": 9,
				"type": "channel",
				"noteNumber": 42,
				"velocity": 60,
				"subtype": "noteOn"
			},
			{
				"deltaTime": 56,
				"channel": 9,
				"type": "channel",
				"subtype": "noteOff",
				"noteNumber": 36,
				"velocity": 64
			},
			{
				"deltaTime": 4,
				"channel": 9,
				"type": "channel",
				"subtype": "noteOff",
				"noteNumber": 42,
				"velocity": 64
			},
			{
				"deltaTime": 172,
				"channel": 9,
				"type": "channel",
				"noteNumber": 38,
				"velocity": 115,
				"subtype": "noteOn"
			},
			{
				"deltaTime": 4,
				"channel": 9,
				"type": "channel",
				"noteNumber": 42,
				"velocity": 79,
				"subtype": "noteOn"
			},
			{
				"deltaTime": 56,
				"channel": 9,
				"type": "channel",
				"subtype": "noteOff",
				"noteNumber": 38,
				"velocity": 64
			},
			{
				"deltaTime": 4,
				"channel": 9,
				"type": "channel",
				"subtype": "noteOff",
				"noteNumber": 42,
				"velocity": 64
			},
			{
				"deltaTime": 172,
				"channel": 9,
				"type": "channel",
				"noteNumber": 42,
				"velocity": 48,
				"subtype": "noteOn"
			},
			{
				"deltaTime": 60,
				"channel": 9,
				"type": "channel",
				"subtype": "noteOff",
				"noteNumber": 42,
				"velocity": 64
			},
			{
				"deltaTime": 76,
				"channel": 9,
				"type": "channel",
				"noteNumber": 38,
				"velocity": 98,
				"subtype": "noteOn"
			},
			{
				"deltaTime": 60,
				"channel": 9,
				"type": "channel",
				"subtype": "noteOff",
				"noteNumber": 38,
				"velocity": 64
			},
			{
				"deltaTime": 42,
				"channel": 9,
				"type": "channel",
				"noteNumber": 36,
				"velocity": 99,
				"subtype": "noteOn"
			},
			{
				"deltaTime": 10,
				"channel": 9,
				"type": "channel",
				"noteNumber": 42,
				"velocity": 85,
				"subtype": "noteOn"
			},
			{
				"deltaTime": 50,
				"channel": 9,
				"type": "channel",
				"subtype": "noteOff",
				"noteNumber": 36,
				"velocity": 64
			},
			{
				"deltaTime": 10,
				"channel": 9,
				"type": "channel",
				"subtype": "noteOff",
				"noteNumber": 42,
				"velocity": 64
			},
			{
				"deltaTime": 180,
				"channel": 9,
				"type": "channel",
				"noteNumber": 36,
				"velocity": 98,
				"subtype": "noteOn"
			},
			{
				"deltaTime": 4,
				"channel": 9,
				"type": "channel",
				"noteNumber": 42,
				"velocity": 65,
				"subtype": "noteOn"
			},
			{
				"deltaTime": 56,
				"channel": 9,
				"type": "channel",
				"subtype": "noteOff",
				"noteNumber": 36,
				"velocity": 64
			},
			{
				"deltaTime": 4,
				"channel": 9,
				"type": "channel",
				"subtype": "noteOff",
				"noteNumber": 42,
				"velocity": 64
			},
			{
				"deltaTime": 168,
				"channel": 9,
				"type": "channel",
				"noteNumber": 38,
				"velocity": 115,
				"subtype": "noteOn"
			},
			{
				"deltaTime": 8,
				"channel": 9,
				"type": "channel",
				"noteNumber": 42,
				"velocity": 77,
				"subtype": "noteOn"
			},
			{
				"deltaTime": 52,
				"channel": 9,
				"type": "channel",
				"subtype": "noteOff",
				"noteNumber": 38,
				"velocity": 64
			},
			{
				"deltaTime": 8,
				"channel": 9,
				"type": "channel",
				"subtype": "noteOff",
				"noteNumber": 42,
				"velocity": 64
			},
			{
				"deltaTime": 180,
				"channel": 9,
				"type": "channel",
				"noteNumber": 42,
				"velocity": 53,
				"subtype": "noteOn"
			},
			{
				"deltaTime": 60,
				"channel": 9,
				"type": "channel",
				"subtype": "noteOff",
				"noteNumber": 42,
				"velocity": 64
			},
			{
				"deltaTime": 74,
				"channel": 9,
				"type": "channel",
				"noteNumber": 38,
				"velocity": 100,
				"subtype": "noteOn"
			},
			{
				"deltaTime": 60,
				"channel": 9,
				"type": "channel",
				"subtype": "noteOff",
				"noteNumber": 38,
				"velocity": 64
			},
			{
				"deltaTime": 42,
				"channel": 9,
				"type": "channel",
				"noteNumber": 36,
				"velocity": 108,
				"subtype": "noteOn"
			},
			{
				"deltaTime": 2,
				"channel": 9,
				"type": "channel",
				"noteNumber": 42,
				"velocity": 84,
				"subtype": "noteOn"
			},
			{
				"deltaTime": 58,
				"channel": 9,
				"type": "channel",
				"subtype": "noteOff",
				"noteNumber": 36,
				"velocity": 64
			},
			{
				"deltaTime": 2,
				"channel": 9,
				"type": "channel",
				"subtype": "noteOff",
				"noteNumber": 42,
				"velocity": 64
			},
			{
				"deltaTime": 184,
				"channel": 9,
				"type": "channel",
				"noteNumber": 36,
				"velocity": 101,
				"subtype": "noteOn"
			},
			{
				"deltaTime": 8,
				"channel": 9,
				"type": "channel",
				"noteNumber": 42,
				"velocity": 62,
				"subtype": "noteOn"
			},
			{
				"deltaTime": 52,
				"channel": 9,
				"type": "channel",
				"subtype": "noteOff",
				"noteNumber": 36,
				"velocity": 64
			},
			{
				"deltaTime": 8,
				"channel": 9,
				"type": "channel",
				"subtype": "noteOff",
				"noteNumber": 42,
				"velocity": 64
			},
			{
				"deltaTime": 162,
				"channel": 9,
				"type": "channel",
				"noteNumber": 38,
				"velocity": 116,
				"subtype": "noteOn"
			},
			{
				"deltaTime": 8,
				"channel": 9,
				"type": "channel",
				"noteNumber": 42,
				"velocity": 89,
				"subtype": "noteOn"
			},
			{
				"deltaTime": 52,
				"channel": 9,
				"type": "channel",
				"subtype": "noteOff",
				"noteNumber": 38,
				"velocity": 64
			},
			{
				"deltaTime": 8,
				"channel": 9,
				"type": "channel",
				"subtype": "noteOff",
				"noteNumber": 42,
				"velocity": 64
			},
			{
				"deltaTime": 174,
				"channel": 9,
				"type": "channel",
				"noteNumber": 42,
				"velocity": 54,
				"subtype": "noteOn"
			},
			{
				"deltaTime": 60,
				"channel": 9,
				"type": "channel",
				"subtype": "noteOff",
				"noteNumber": 42,
				"velocity": 64
			},
			{
				"deltaTime": 78,
				"channel": 9,
				"type": "channel",
				"noteNumber": 38,
				"velocity": 96,
				"subtype": "noteOn"
			},
			{
				"deltaTime": 60,
				"channel": 9,
				"type": "channel",
				"subtype": "noteOff",
				"noteNumber": 38,
				"velocity": 64
			},
			{
				"deltaTime": 44,
				"channel": 9,
				"type": "channel",
				"noteNumber": 36,
				"velocity": 100,
				"subtype": "noteOn"
			},
			{
				"deltaTime": 4,
				"channel": 9,
				"type": "channel",
				"noteNumber": 42,
				"velocity": 92,
				"subtype": "noteOn"
			},
			{
				"deltaTime": 56,
				"channel": 9,
				"type": "channel",
				"subtype": "noteOff",
				"noteNumber": 36,
				"velocity": 64
			},
			{
				"deltaTime": 4,
				"channel": 9,
				"type": "channel",
				"subtype": "noteOff",
				"noteNumber": 42,
				"velocity": 64
			},
			{
				"deltaTime": 184,
				"channel": 9,
				"type": "channel",
				"noteNumber": 36,
				"velocity": 98,
				"subtype": "noteOn"
			},
			{
				"deltaTime": 4,
				"channel": 9,
				"type": "channel",
				"noteNumber": 42,
				"velocity": 59,
				"subtype": "noteOn"
			},
			{
				"deltaTime": 56,
				"channel": 9,
				"type": "channel",
				"subtype": "noteOff",
				"noteNumber": 36,
				"velocity": 64
			},
			{
				"deltaTime": 4,
				"channel": 9,
				"type": "channel",
				"subtype": "noteOff",
				"noteNumber": 42,
				"velocity": 64
			},
			{
				"deltaTime": 70,
				"channel": 9,
				"type": "channel",
				"noteNumber": 38,
				"velocity": 52,
				"subtype": "noteOn"
			},
			{
				"deltaTime": 60,
				"channel": 9,
				"type": "channel",
				"subtype": "noteOff",
				"noteNumber": 38,
				"velocity": 64
			},
			{
				"deltaTime": 32,
				"channel": 9,
				"type": "channel",
				"noteNumber": 38,
				"velocity": 123,
				"subtype": "noteOn"
			},
			{
				"deltaTime": 6,
				"channel": 9,
				"type": "channel",
				"noteNumber": 42,
				"velocity": 101,
				"subtype": "noteOn"
			},
			{
				"deltaTime": 54,
				"channel": 9,
				"type": "channel",
				"subtype": "noteOff",
				"noteNumber": 38,
				"velocity": 64
			},
			{
				"deltaTime": 6,
				"channel": 9,
				"type": "channel",
				"subtype": "noteOff",
				"noteNumber": 42,
				"velocity": 64
			},
			{
				"deltaTime": 70,
				"channel": 9,
				"type": "channel",
				"noteNumber": 38,
				"velocity": 36,
				"subtype": "noteOn"
			},
			{
				"deltaTime": 60,
				"channel": 9,
				"type": "channel",
				"subtype": "noteOff",
				"noteNumber": 38,
				"velocity": 64
			},
			{
				"deltaTime": 50,
				"channel": 9,
				"type": "channel",
				"noteNumber": 38,
				"velocity": 103,
				"subtype": "noteOn"
			},
			{
				"deltaTime": 60,
				"channel": 9,
				"type": "channel",
				"subtype": "noteOff",
				"noteNumber": 38,
				"velocity": 64
			},
			{
				"deltaTime": 66,
				"channel": 9,
				"type": "channel",
				"noteNumber": 38,
				"velocity": 121,
				"subtype": "noteOn"
			},
			{
				"deltaTime": 60,
				"channel": 9,
				"type": "channel",
				"subtype": "noteOff",
				"noteNumber": 38,
				"velocity": 64
			},
			{
				"deltaTime": 44,
				"channel": 9,
				"type": "channel",
				"noteNumber": 36,
				"velocity": 114,
				"subtype": "noteOn"
			},
			{
				"deltaTime": 0,
				"channel": 9,
				"type": "channel",
				"noteNumber": 49,
				"velocity": 126,
				"subtype": "noteOn"
			},
			{
				"deltaTime": 60,
				"channel": 9,
				"type": "channel",
				"subtype": "noteOff",
				"noteNumber": 36,
				"velocity": 64
			},
			{
				"deltaTime": 0,
				"channel": 9,
				"type": "channel",
				"subtype": "noteOff",
				"noteNumber": 49,
				"velocity": 64
			},
			{
				"deltaTime": 202,
				"channel": 9,
				"type": "channel",
				"noteNumber": 42,
				"velocity": 55,
				"subtype": "noteOn"
			},
			{
				"deltaTime": 2,
				"channel": 9,
				"type": "channel",
				"noteNumber": 36,
				"velocity": 100,
				"subtype": "noteOn"
			},
			{
				"deltaTime": 58,
				"channel": 9,
				"type": "channel",
				"subtype": "noteOff",
				"noteNumber": 42,
				"velocity": 64
			},
			{
				"deltaTime": 2,
				"channel": 9,
				"type": "channel",
				"subtype": "noteOff",
				"noteNumber": 36,
				"velocity": 64
			},
			{
				"deltaTime": 170,
				"channel": 9,
				"type": "channel",
				"noteNumber": 38,
				"velocity": 115,
				"subtype": "noteOn"
			},
			{
				"deltaTime": 4,
				"channel": 9,
				"type": "channel",
				"noteNumber": 42,
				"velocity": 97,
				"subtype": "noteOn"
			},
			{
				"deltaTime": 56,
				"channel": 9,
				"type": "channel",
				"subtype": "noteOff",
				"noteNumber": 38,
				"velocity": 64
			},
			{
				"deltaTime": 4,
				"channel": 9,
				"type": "channel",
				"subtype": "noteOff",
				"noteNumber": 42,
				"velocity": 64
			},
			{
				"deltaTime": 182,
				"channel": 9,
				"type": "channel",
				"noteNumber": 42,
				"velocity": 46,
				"subtype": "noteOn"
			},
			{
				"deltaTime": 60,
				"channel": 9,
				"type": "channel",
				"subtype": "noteOff",
				"noteNumber": 42,
				"velocity": 64
			},
			{
				"deltaTime": 92,
				"channel": 9,
				"type": "channel",
				"noteNumber": 38,
				"velocity": 104,
				"subtype": "noteOn"
			},
			{
				"deltaTime": 60,
				"channel": 9,
				"type": "channel",
				"subtype": "noteOff",
				"noteNumber": 38,
				"velocity": 64
			},
			{
				"deltaTime": 24,
				"channel": 9,
				"type": "channel",
				"noteNumber": 42,
				"velocity": 81,
				"subtype": "noteOn"
			},
			{
				"deltaTime": 4,
				"channel": 9,
				"type": "channel",
				"noteNumber": 36,
				"velocity": 100,
				"subtype": "noteOn"
			},
			{
				"deltaTime": 56,
				"channel": 9,
				"type": "channel",
				"subtype": "noteOff",
				"noteNumber": 42,
				"velocity": 64
			},
			{
				"deltaTime": 4,
				"channel": 9,
				"type": "channel",
				"subtype": "noteOff",
				"noteNumber": 36,
				"velocity": 64
			},
			{
				"deltaTime": 188,
				"channel": 9,
				"type": "channel",
				"noteNumber": 42,
				"velocity": 55,
				"subtype": "noteOn"
			},
			{
				"deltaTime": 6,
				"channel": 9,
				"type": "channel",
				"noteNumber": 36,
				"velocity": 99,
				"subtype": "noteOn"
			},
			{
				"deltaTime": 54,
				"channel": 9,
				"type": "channel",
				"subtype": "noteOff",
				"noteNumber": 42,
				"velocity": 64
			},
			{
				"deltaTime": 6,
				"channel": 9,
				"type": "channel",
				"subtype": "noteOff",
				"noteNumber": 36,
				"velocity": 64
			},
			{
				"deltaTime": 160,
				"channel": 9,
				"type": "channel",
				"noteNumber": 38,
				"velocity": 113,
				"subtype": "noteOn"
			},
			{
				"deltaTime": 6,
				"channel": 9,
				"type": "channel",
				"noteNumber": 42,
				"velocity": 87,
				"subtype": "noteOn"
			},
			{
				"deltaTime": 54,
				"channel": 9,
				"type": "channel",
				"subtype": "noteOff",
				"noteNumber": 38,
				"velocity": 64
			},
			{
				"deltaTime": 6,
				"channel": 9,
				"type": "channel",
				"subtype": "noteOff",
				"noteNumber": 42,
				"velocity": 64
			},
			{
				"deltaTime": 178,
				"channel": 9,
				"type": "channel",
				"noteNumber": 42,
				"velocity": 54,
				"subtype": "noteOn"
			},
			{
				"deltaTime": 60,
				"channel": 9,
				"type": "channel",
				"subtype": "noteOff",
				"noteNumber": 42,
				"velocity": 64
			},
			{
				"deltaTime": 88,
				"channel": 9,
				"type": "channel",
				"noteNumber": 38,
				"velocity": 99,
				"subtype": "noteOn"
			},
			{
				"deltaTime": 60,
				"channel": 9,
				"type": "channel",
				"subtype": "noteOff",
				"noteNumber": 38,
				"velocity": 64
			},
			{
				"deltaTime": 28,
				"channel": 9,
				"type": "channel",
				"noteNumber": 36,
				"velocity": 110,
				"subtype": "noteOn"
			},
			{
				"deltaTime": 2,
				"channel": 9,
				"type": "channel",
				"noteNumber": 42,
				"velocity": 77,
				"subtype": "noteOn"
			},
			{
				"deltaTime": 58,
				"channel": 9,
				"type": "channel",
				"subtype": "noteOff",
				"noteNumber": 36,
				"velocity": 64
			},
			{
				"deltaTime": 2,
				"channel": 9,
				"type": "channel",
				"subtype": "noteOff",
				"noteNumber": 42,
				"velocity": 64
			},
			{
				"deltaTime": 190,
				"channel": 9,
				"type": "channel",
				"noteNumber": 42,
				"velocity": 56,
				"subtype": "noteOn"
			},
			{
				"deltaTime": 4,
				"channel": 9,
				"type": "channel",
				"noteNumber": 36,
				"velocity": 102,
				"subtype": "noteOn"
			},
			{
				"deltaTime": 56,
				"channel": 9,
				"type": "channel",
				"subtype": "noteOff",
				"noteNumber": 42,
				"velocity": 64
			},
			{
				"deltaTime": 4,
				"channel": 9,
				"type": "channel",
				"subtype": "noteOff",
				"noteNumber": 36,
				"velocity": 64
			},
			{
				"deltaTime": 162,
				"channel": 9,
				"type": "channel",
				"noteNumber": 38,
				"velocity": 118,
				"subtype": "noteOn"
			},
			{
				"deltaTime": 6,
				"channel": 9,
				"type": "channel",
				"noteNumber": 42,
				"velocity": 89,
				"subtype": "noteOn"
			},
			{
				"deltaTime": 54,
				"channel": 9,
				"type": "channel",
				"subtype": "noteOff",
				"noteNumber": 38,
				"velocity": 64
			},
			{
				"deltaTime": 6,
				"channel": 9,
				"type": "channel",
				"subtype": "noteOff",
				"noteNumber": 42,
				"velocity": 64
			},
			{
				"deltaTime": 176,
				"channel": 9,
				"type": "channel",
				"noteNumber": 42,
				"velocity": 54,
				"subtype": "noteOn"
			},
			{
				"deltaTime": 60,
				"channel": 9,
				"type": "channel",
				"subtype": "noteOff",
				"noteNumber": 42,
				"velocity": 64
			},
			{
				"deltaTime": 76,
				"channel": 9,
				"type": "channel",
				"noteNumber": 38,
				"velocity": 101,
				"subtype": "noteOn"
			},
			{
				"deltaTime": 60,
				"channel": 9,
				"type": "channel",
				"subtype": "noteOff",
				"noteNumber": 38,
				"velocity": 64
			},
			{
				"deltaTime": 44,
				"channel": 9,
				"type": "channel",
				"noteNumber": 42,
				"velocity": 84,
				"subtype": "noteOn"
			},
			{
				"deltaTime": 4,
				"channel": 9,
				"type": "channel",
				"noteNumber": 36,
				"velocity": 102,
				"subtype": "noteOn"
			},
			{
				"deltaTime": 56,
				"channel": 9,
				"type": "channel",
				"subtype": "noteOff",
				"noteNumber": 42,
				"velocity": 64
			},
			{
				"deltaTime": 4,
				"channel": 9,
				"type": "channel",
				"subtype": "noteOff",
				"noteNumber": 36,
				"velocity": 64
			},
			{
				"deltaTime": 184,
				"channel": 9,
				"type": "channel",
				"noteNumber": 36,
				"velocity": 100,
				"subtype": "noteOn"
			},
			{
				"deltaTime": 2,
				"channel": 9,
				"type": "channel",
				"noteNumber": 42,
				"velocity": 45,
				"subtype": "noteOn"
			},
			{
				"deltaTime": 58,
				"channel": 9,
				"type": "channel",
				"subtype": "noteOff",
				"noteNumber": 36,
				"velocity": 64
			},
			{
				"deltaTime": 2,
				"channel": 9,
				"type": "channel",
				"subtype": "noteOff",
				"noteNumber": 42,
				"velocity": 64
			},
			{
				"deltaTime": 166,
				"channel": 9,
				"type": "channel",
				"noteNumber": 38,
				"velocity": 112,
				"subtype": "noteOn"
			},
			{
				"deltaTime": 6,
				"channel": 9,
				"type": "channel",
				"noteNumber": 42,
				"velocity": 103,
				"subtype": "noteOn"
			},
			{
				"deltaTime": 54,
				"channel": 9,
				"type": "channel",
				"subtype": "noteOff",
				"noteNumber": 38,
				"velocity": 64
			},
			{
				"deltaTime": 6,
				"channel": 9,
				"type": "channel",
				"subtype": "noteOff",
				"noteNumber": 42,
				"velocity": 64
			},
			{
				"deltaTime": 180,
				"channel": 9,
				"type": "channel",
				"noteNumber": 42,
				"velocity": 41,
				"subtype": "noteOn"
			},
			{
				"deltaTime": 60,
				"channel": 9,
				"type": "channel",
				"subtype": "noteOff",
				"noteNumber": 42,
				"velocity": 64
			},
			{
				"deltaTime": 66,
				"channel": 9,
				"type": "channel",
				"noteNumber": 38,
				"velocity": 102,
				"subtype": "noteOn"
			},
			{
				"deltaTime": 60,
				"channel": 9,
				"type": "channel",
				"subtype": "noteOff",
				"noteNumber": 38,
				"velocity": 64
			},
			{
				"deltaTime": 46,
				"channel": 9,
				"type": "channel",
				"noteNumber": 36,
				"velocity": 112,
				"subtype": "noteOn"
			},
			{
				"deltaTime": 4,
				"channel": 9,
				"type": "channel",
				"noteNumber": 42,
				"velocity": 79,
				"subtype": "noteOn"
			},
			{
				"deltaTime": 56,
				"channel": 9,
				"type": "channel",
				"subtype": "noteOff",
				"noteNumber": 36,
				"velocity": 64
			},
			{
				"deltaTime": 4,
				"channel": 9,
				"type": "channel",
				"subtype": "noteOff",
				"noteNumber": 42,
				"velocity": 64
			},
			{
				"deltaTime": 186,
				"channel": 9,
				"type": "channel",
				"noteNumber": 42,
				"velocity": 57,
				"subtype": "noteOn"
			},
			{
				"deltaTime": 2,
				"channel": 9,
				"type": "channel",
				"noteNumber": 36,
				"velocity": 100,
				"subtype": "noteOn"
			},
			{
				"deltaTime": 58,
				"channel": 9,
				"type": "channel",
				"subtype": "noteOff",
				"noteNumber": 42,
				"velocity": 64
			},
			{
				"deltaTime": 2,
				"channel": 9,
				"type": "channel",
				"subtype": "noteOff",
				"noteNumber": 36,
				"velocity": 64
			},
			{
				"deltaTime": 166,
				"channel": 9,
				"type": "channel",
				"noteNumber": 38,
				"velocity": 117,
				"subtype": "noteOn"
			},
			{
				"deltaTime": 6,
				"channel": 9,
				"type": "channel",
				"noteNumber": 42,
				"velocity": 95,
				"subtype": "noteOn"
			},
			{
				"deltaTime": 54,
				"channel": 9,
				"type": "channel",
				"subtype": "noteOff",
				"noteNumber": 38,
				"velocity": 64
			},
			{
				"deltaTime": 6,
				"channel": 9,
				"type": "channel",
				"subtype": "noteOff",
				"noteNumber": 42,
				"velocity": 64
			},
			{
				"deltaTime": 178,
				"channel": 9,
				"type": "channel",
				"noteNumber": 42,
				"velocity": 51,
				"subtype": "noteOn"
			},
			{
				"deltaTime": 60,
				"channel": 9,
				"type": "channel",
				"subtype": "noteOff",
				"noteNumber": 42,
				"velocity": 64
			},
			{
				"deltaTime": 78,
				"channel": 9,
				"type": "channel",
				"noteNumber": 38,
				"velocity": 103,
				"subtype": "noteOn"
			},
			{
				"deltaTime": 60,
				"channel": 9,
				"type": "channel",
				"subtype": "noteOff",
				"noteNumber": 38,
				"velocity": 64
			},
			{
				"deltaTime": 44,
				"channel": 9,
				"type": "channel",
				"noteNumber": 36,
				"velocity": 104,
				"subtype": "noteOn"
			},
			{
				"deltaTime": 6,
				"channel": 9,
				"type": "channel",
				"noteNumber": 42,
				"velocity": 79,
				"subtype": "noteOn"
			},
			{
				"deltaTime": 54,
				"channel": 9,
				"type": "channel",
				"subtype": "noteOff",
				"noteNumber": 36,
				"velocity": 64
			},
			{
				"deltaTime": 6,
				"channel": 9,
				"type": "channel",
				"subtype": "noteOff",
				"noteNumber": 42,
				"velocity": 64
			},
			{
				"deltaTime": 180,
				"channel": 9,
				"type": "channel",
				"noteNumber": 36,
				"velocity": 101,
				"subtype": "noteOn"
			},
			{
				"deltaTime": 2,
				"channel": 9,
				"type": "channel",
				"noteNumber": 42,
				"velocity": 60,
				"subtype": "noteOn"
			},
			{
				"deltaTime": 58,
				"channel": 9,
				"type": "channel",
				"subtype": "noteOff",
				"noteNumber": 36,
				"velocity": 64
			},
			{
				"deltaTime": 2,
				"channel": 9,
				"type": "channel",
				"subtype": "noteOff",
				"noteNumber": 42,
				"velocity": 64
			},
			{
				"deltaTime": 172,
				"channel": 9,
				"type": "channel",
				"noteNumber": 38,
				"velocity": 116,
				"subtype": "noteOn"
			},
			{
				"deltaTime": 8,
				"channel": 9,
				"type": "channel",
				"noteNumber": 42,
				"velocity": 87,
				"subtype": "noteOn"
			},
			{
				"deltaTime": 52,
				"channel": 9,
				"type": "channel",
				"subtype": "noteOff",
				"noteNumber": 38,
				"velocity": 64
			},
			{
				"deltaTime": 8,
				"channel": 9,
				"type": "channel",
				"subtype": "noteOff",
				"noteNumber": 42,
				"velocity": 64
			},
			{
				"deltaTime": 176,
				"channel": 9,
				"type": "channel",
				"noteNumber": 42,
				"velocity": 48,
				"subtype": "noteOn"
			},
			{
				"deltaTime": 60,
				"channel": 9,
				"type": "channel",
				"subtype": "noteOff",
				"noteNumber": 42,
				"velocity": 64
			},
			{
				"deltaTime": 80,
				"channel": 9,
				"type": "channel",
				"noteNumber": 38,
				"velocity": 93,
				"subtype": "noteOn"
			},
			{
				"deltaTime": 60,
				"channel": 9,
				"type": "channel",
				"subtype": "noteOff",
				"noteNumber": 38,
				"velocity": 64
			},
			{
				"deltaTime": 38,
				"channel": 9,
				"type": "channel",
				"noteNumber": 36,
				"velocity": 108,
				"subtype": "noteOn"
			},
			{
				"deltaTime": 2,
				"channel": 9,
				"type": "channel",
				"noteNumber": 42,
				"velocity": 85,
				"subtype": "noteOn"
			},
			{
				"deltaTime": 58,
				"channel": 9,
				"type": "channel",
				"subtype": "noteOff",
				"noteNumber": 36,
				"velocity": 64
			},
			{
				"deltaTime": 2,
				"channel": 9,
				"type": "channel",
				"subtype": "noteOff",
				"noteNumber": 42,
				"velocity": 64
			},
			{
				"deltaTime": 190,
				"channel": 9,
				"type": "channel",
				"noteNumber": 42,
				"velocity": 49,
				"subtype": "noteOn"
			},
			{
				"deltaTime": 2,
				"channel": 9,
				"type": "channel",
				"noteNumber": 36,
				"velocity": 98,
				"subtype": "noteOn"
			},
			{
				"deltaTime": 58,
				"channel": 9,
				"type": "channel",
				"subtype": "noteOff",
				"noteNumber": 42,
				"velocity": 64
			},
			{
				"deltaTime": 2,
				"channel": 9,
				"type": "channel",
				"subtype": "noteOff",
				"noteNumber": 36,
				"velocity": 64
			},
			{
				"deltaTime": 160,
				"channel": 9,
				"type": "channel",
				"noteNumber": 38,
				"velocity": 113,
				"subtype": "noteOn"
			},
			{
				"deltaTime": 6,
				"channel": 9,
				"type": "channel",
				"noteNumber": 42,
				"velocity": 91,
				"subtype": "noteOn"
			},
			{
				"deltaTime": 54,
				"channel": 9,
				"type": "channel",
				"subtype": "noteOff",
				"noteNumber": 38,
				"velocity": 64
			},
			{
				"deltaTime": 6,
				"channel": 9,
				"type": "channel",
				"subtype": "noteOff",
				"noteNumber": 42,
				"velocity": 64
			},
			{
				"deltaTime": 174,
				"channel": 9,
				"type": "channel",
				"noteNumber": 42,
				"velocity": 49,
				"subtype": "noteOn"
			},
			{
				"deltaTime": 60,
				"channel": 9,
				"type": "channel",
				"subtype": "noteOff",
				"noteNumber": 42,
				"velocity": 64
			},
			{
				"deltaTime": 92,
				"channel": 9,
				"type": "channel",
				"noteNumber": 38,
				"velocity": 98,
				"subtype": "noteOn"
			},
			{
				"deltaTime": 60,
				"channel": 9,
				"type": "channel",
				"subtype": "noteOff",
				"noteNumber": 38,
				"velocity": 64
			},
			{
				"deltaTime": 32,
				"channel": 9,
				"type": "channel",
				"noteNumber": 42,
				"velocity": 74,
				"subtype": "noteOn"
			},
			{
				"deltaTime": 2,
				"channel": 9,
				"type": "channel",
				"noteNumber": 36,
				"velocity": 101,
				"subtype": "noteOn"
			},
			{
				"deltaTime": 58,
				"channel": 9,
				"type": "channel",
				"subtype": "noteOff",
				"noteNumber": 42,
				"velocity": 64
			},
			{
				"deltaTime": 2,
				"channel": 9,
				"type": "channel",
				"subtype": "noteOff",
				"noteNumber": 36,
				"velocity": 64
			},
			{
				"deltaTime": 180,
				"channel": 9,
				"type": "channel",
				"noteNumber": 36,
				"velocity": 100,
				"subtype": "noteOn"
			},
			{
				"deltaTime": 6,
				"channel": 9,
				"type": "channel",
				"noteNumber": 42,
				"velocity": 59,
				"subtype": "noteOn"
			},
			{
				"deltaTime": 54,
				"channel": 9,
				"type": "channel",
				"subtype": "noteOff",
				"noteNumber": 36,
				"velocity": 64
			},
			{
				"deltaTime": 6,
				"channel": 9,
				"type": "channel",
				"subtype": "noteOff",
				"noteNumber": 42,
				"velocity": 64
			},
			{
				"deltaTime": 172,
				"channel": 9,
				"type": "channel",
				"noteNumber": 38,
				"velocity": 119,
				"subtype": "noteOn"
			},
			{
				"deltaTime": 4,
				"channel": 9,
				"type": "channel",
				"noteNumber": 42,
				"velocity": 86,
				"subtype": "noteOn"
			},
			{
				"deltaTime": 56,
				"channel": 9,
				"type": "channel",
				"subtype": "noteOff",
				"noteNumber": 38,
				"velocity": 64
			},
			{
				"deltaTime": 4,
				"channel": 9,
				"type": "channel",
				"subtype": "noteOff",
				"noteNumber": 42,
				"velocity": 64
			},
			{
				"deltaTime": 174,
				"channel": 9,
				"type": "channel",
				"noteNumber": 42,
				"velocity": 52,
				"subtype": "noteOn"
			},
			{
				"deltaTime": 60,
				"channel": 9,
				"type": "channel",
				"subtype": "noteOff",
				"noteNumber": 42,
				"velocity": 64
			},
			{
				"deltaTime": 80,
				"channel": 9,
				"type": "channel",
				"noteNumber": 38,
				"velocity": 97,
				"subtype": "noteOn"
			},
			{
				"deltaTime": 60,
				"channel": 9,
				"type": "channel",
				"subtype": "noteOff",
				"noteNumber": 38,
				"velocity": 64
			},
			{
				"deltaTime": 42,
				"channel": 9,
				"type": "channel",
				"noteNumber": 36,
				"velocity": 109,
				"subtype": "noteOn"
			},
			{
				"deltaTime": 4,
				"channel": 9,
				"type": "channel",
				"noteNumber": 42,
				"velocity": 77,
				"subtype": "noteOn"
			},
			{
				"deltaTime": 56,
				"channel": 9,
				"type": "channel",
				"subtype": "noteOff",
				"noteNumber": 36,
				"velocity": 64
			},
			{
				"deltaTime": 4,
				"channel": 9,
				"type": "channel",
				"subtype": "noteOff",
				"noteNumber": 42,
				"velocity": 64
			},
			{
				"deltaTime": 186,
				"channel": 9,
				"type": "channel",
				"noteNumber": 36,
				"velocity": 99,
				"subtype": "noteOn"
			},
			{
				"deltaTime": 6,
				"channel": 9,
				"type": "channel",
				"noteNumber": 42,
				"velocity": 53,
				"subtype": "noteOn"
			},
			{
				"deltaTime": 54,
				"channel": 9,
				"type": "channel",
				"subtype": "noteOff",
				"noteNumber": 36,
				"velocity": 64
			},
			{
				"deltaTime": 6,
				"channel": 9,
				"type": "channel",
				"subtype": "noteOff",
				"noteNumber": 42,
				"velocity": 64
			},
			{
				"deltaTime": 172,
				"channel": 9,
				"type": "channel",
				"noteNumber": 38,
				"velocity": 115,
				"subtype": "noteOn"
			},
			{
				"deltaTime": 2,
				"channel": 9,
				"type": "channel",
				"noteNumber": 42,
				"velocity": 88,
				"subtype": "noteOn"
			},
			{
				"deltaTime": 58,
				"channel": 9,
				"type": "channel",
				"subtype": "noteOff",
				"noteNumber": 38,
				"velocity": 64
			},
			{
				"deltaTime": 2,
				"channel": 9,
				"type": "channel",
				"subtype": "noteOff",
				"noteNumber": 42,
				"velocity": 64
			},
			{
				"deltaTime": 186,
				"channel": 9,
				"type": "channel",
				"noteNumber": 42,
				"velocity": 45,
				"subtype": "noteOn"
			},
			{
				"deltaTime": 60,
				"channel": 9,
				"type": "channel",
				"subtype": "noteOff",
				"noteNumber": 42,
				"velocity": 64
			},
			{
				"deltaTime": 82,
				"channel": 9,
				"type": "channel",
				"noteNumber": 38,
				"velocity": 97,
				"subtype": "noteOn"
			},
			{
				"deltaTime": 60,
				"channel": 9,
				"type": "channel",
				"subtype": "noteOff",
				"noteNumber": 38,
				"velocity": 64
			},
			{
				"deltaTime": 28,
				"channel": 9,
				"type": "channel",
				"noteNumber": 42,
				"velocity": 73,
				"subtype": "noteOn"
			},
			{
				"deltaTime": 6,
				"channel": 9,
				"type": "channel",
				"noteNumber": 36,
				"velocity": 106,
				"subtype": "noteOn"
			},
			{
				"deltaTime": 54,
				"channel": 9,
				"type": "channel",
				"subtype": "noteOff",
				"noteNumber": 42,
				"velocity": 64
			},
			{
				"deltaTime": 6,
				"channel": 9,
				"type": "channel",
				"subtype": "noteOff",
				"noteNumber": 36,
				"velocity": 64
			},
			{
				"deltaTime": 188,
				"channel": 9,
				"type": "channel",
				"noteNumber": 42,
				"velocity": 53,
				"subtype": "noteOn"
			},
			{
				"deltaTime": 6,
				"channel": 9,
				"type": "channel",
				"noteNumber": 36,
				"velocity": 100,
				"subtype": "noteOn"
			},
			{
				"deltaTime": 54,
				"channel": 9,
				"type": "channel",
				"subtype": "noteOff",
				"noteNumber": 42,
				"velocity": 64
			},
			{
				"deltaTime": 6,
				"channel": 9,
				"type": "channel",
				"subtype": "noteOff",
				"noteNumber": 36,
				"velocity": 64
			},
			{
				"deltaTime": 158,
				"channel": 9,
				"type": "channel",
				"noteNumber": 38,
				"velocity": 118,
				"subtype": "noteOn"
			},
			{
				"deltaTime": 4,
				"channel": 9,
				"type": "channel",
				"noteNumber": 42,
				"velocity": 86,
				"subtype": "noteOn"
			},
			{
				"deltaTime": 56,
				"channel": 9,
				"type": "channel",
				"subtype": "noteOff",
				"noteNumber": 38,
				"velocity": 64
			},
			{
				"deltaTime": 4,
				"channel": 9,
				"type": "channel",
				"subtype": "noteOff",
				"noteNumber": 42,
				"velocity": 64
			},
			{
				"deltaTime": 174,
				"channel": 9,
				"type": "channel",
				"noteNumber": 42,
				"velocity": 51,
				"subtype": "noteOn"
			},
			{
				"deltaTime": 60,
				"channel": 9,
				"type": "channel",
				"subtype": "noteOff",
				"noteNumber": 42,
				"velocity": 64
			},
			{
				"deltaTime": 82,
				"channel": 9,
				"type": "channel",
				"noteNumber": 38,
				"velocity": 100,
				"subtype": "noteOn"
			},
			{
				"deltaTime": 60,
				"channel": 9,
				"type": "channel",
				"subtype": "noteOff",
				"noteNumber": 38,
				"velocity": 64
			},
			{
				"deltaTime": 34,
				"channel": 9,
				"type": "channel",
				"noteNumber": 36,
				"velocity": 111,
				"subtype": "noteOn"
			},
			{
				"deltaTime": 8,
				"channel": 9,
				"type": "channel",
				"noteNumber": 42,
				"velocity": 73,
				"subtype": "noteOn"
			},
			{
				"deltaTime": 52,
				"channel": 9,
				"type": "channel",
				"subtype": "noteOff",
				"noteNumber": 36,
				"velocity": 64
			},
			{
				"deltaTime": 8,
				"channel": 9,
				"type": "channel",
				"subtype": "noteOff",
				"noteNumber": 42,
				"velocity": 64
			},
			{
				"deltaTime": 184,
				"channel": 9,
				"type": "channel",
				"noteNumber": 36,
				"velocity": 106,
				"subtype": "noteOn"
			},
			{
				"deltaTime": 0,
				"channel": 9,
				"type": "channel",
				"noteNumber": 42,
				"velocity": 60,
				"subtype": "noteOn"
			},
			{
				"deltaTime": 60,
				"channel": 9,
				"type": "channel",
				"subtype": "noteOff",
				"noteNumber": 36,
				"velocity": 64
			},
			{
				"deltaTime": 0,
				"channel": 9,
				"type": "channel",
				"subtype": "noteOff",
				"noteNumber": 42,
				"velocity": 64
			},
			{
				"deltaTime": 170,
				"channel": 9,
				"type": "channel",
				"noteNumber": 38,
				"velocity": 112,
				"subtype": "noteOn"
			},
			{
				"deltaTime": 4,
				"channel": 9,
				"type": "channel",
				"noteNumber": 42,
				"velocity": 86,
				"subtype": "noteOn"
			},
			{
				"deltaTime": 56,
				"channel": 9,
				"type": "channel",
				"subtype": "noteOff",
				"noteNumber": 38,
				"velocity": 64
			},
			{
				"deltaTime": 4,
				"channel": 9,
				"type": "channel",
				"subtype": "noteOff",
				"noteNumber": 42,
				"velocity": 64
			},
			{
				"deltaTime": 172,
				"channel": 9,
				"type": "channel",
				"noteNumber": 42,
				"velocity": 48,
				"subtype": "noteOn"
			},
			{
				"deltaTime": 60,
				"channel": 9,
				"type": "channel",
				"subtype": "noteOff",
				"noteNumber": 42,
				"velocity": 64
			},
			{
				"deltaTime": 78,
				"channel": 9,
				"type": "channel",
				"noteNumber": 38,
				"velocity": 104,
				"subtype": "noteOn"
			},
			{
				"deltaTime": 60,
				"channel": 9,
				"type": "channel",
				"subtype": "noteOff",
				"noteNumber": 38,
				"velocity": 64
			},
			{
				"deltaTime": 50,
				"channel": 9,
				"type": "channel",
				"noteNumber": 36,
				"velocity": 101,
				"subtype": "noteOn"
			},
			{
				"deltaTime": 2,
				"channel": 9,
				"type": "channel",
				"noteNumber": 42,
				"velocity": 84,
				"subtype": "noteOn"
			},
			{
				"deltaTime": 58,
				"channel": 9,
				"type": "channel",
				"subtype": "noteOff",
				"noteNumber": 36,
				"velocity": 64
			},
			{
				"deltaTime": 2,
				"channel": 9,
				"type": "channel",
				"subtype": "noteOff",
				"noteNumber": 42,
				"velocity": 64
			},
			{
				"deltaTime": 190,
				"channel": 9,
				"type": "channel",
				"noteNumber": 36,
				"velocity": 102,
				"subtype": "noteOn"
			},
			{
				"deltaTime": 2,
				"channel": 9,
				"type": "channel",
				"noteNumber": 42,
				"velocity": 44,
				"subtype": "noteOn"
			},
			{
				"deltaTime": 58,
				"channel": 9,
				"type": "channel",
				"subtype": "noteOff",
				"noteNumber": 36,
				"velocity": 64
			},
			{
				"deltaTime": 2,
				"channel": 9,
				"type": "channel",
				"subtype": "noteOff",
				"noteNumber": 42,
				"velocity": 64
			},
			{
				"deltaTime": 166,
				"channel": 9,
				"type": "channel",
				"noteNumber": 38,
				"velocity": 113,
				"subtype": "noteOn"
			},
			{
				"deltaTime": 2,
				"channel": 9,
				"type": "channel",
				"noteNumber": 42,
				"velocity": 79,
				"subtype": "noteOn"
			},
			{
				"deltaTime": 58,
				"channel": 9,
				"type": "channel",
				"subtype": "noteOff",
				"noteNumber": 38,
				"velocity": 64
			},
			{
				"deltaTime": 2,
				"channel": 9,
				"type": "channel",
				"subtype": "noteOff",
				"noteNumber": 42,
				"velocity": 64
			},
			{
				"deltaTime": 172,
				"channel": 9,
				"type": "channel",
				"noteNumber": 42,
				"velocity": 48,
				"subtype": "noteOn"
			},
			{
				"deltaTime": 60,
				"channel": 9,
				"type": "channel",
				"subtype": "noteOff",
				"noteNumber": 42,
				"velocity": 64
			},
			{
				"deltaTime": 86,
				"channel": 9,
				"type": "channel",
				"noteNumber": 38,
				"velocity": 100,
				"subtype": "noteOn"
			},
			{
				"deltaTime": 60,
				"channel": 9,
				"type": "channel",
				"subtype": "noteOff",
				"noteNumber": 38,
				"velocity": 64
			},
			{
				"deltaTime": 36,
				"channel": 9,
				"type": "channel",
				"noteNumber": 42,
				"velocity": 73,
				"subtype": "noteOn"
			},
			{
				"deltaTime": 2,
				"channel": 9,
				"type": "channel",
				"noteNumber": 36,
				"velocity": 110,
				"subtype": "noteOn"
			},
			{
				"deltaTime": 58,
				"channel": 9,
				"type": "channel",
				"subtype": "noteOff",
				"noteNumber": 42,
				"velocity": 64
			},
			{
				"deltaTime": 2,
				"channel": 9,
				"type": "channel",
				"subtype": "noteOff",
				"noteNumber": 36,
				"velocity": 64
			},
			{
				"deltaTime": 190,
				"channel": 9,
				"type": "channel",
				"noteNumber": 36,
				"velocity": 103,
				"subtype": "noteOn"
			},
			{
				"deltaTime": 2,
				"channel": 9,
				"type": "channel",
				"noteNumber": 42,
				"velocity": 51,
				"subtype": "noteOn"
			},
			{
				"deltaTime": 58,
				"channel": 9,
				"type": "channel",
				"subtype": "noteOff",
				"noteNumber": 36,
				"velocity": 64
			},
			{
				"deltaTime": 2,
				"channel": 9,
				"type": "channel",
				"subtype": "noteOff",
				"noteNumber": 42,
				"velocity": 64
			},
			{
				"deltaTime": 168,
				"channel": 9,
				"type": "channel",
				"noteNumber": 38,
				"velocity": 119,
				"subtype": "noteOn"
			},
			{
				"deltaTime": 4,
				"channel": 9,
				"type": "channel",
				"noteNumber": 42,
				"velocity": 85,
				"subtype": "noteOn"
			},
			{
				"deltaTime": 56,
				"channel": 9,
				"type": "channel",
				"subtype": "noteOff",
				"noteNumber": 38,
				"velocity": 64
			},
			{
				"deltaTime": 4,
				"channel": 9,
				"type": "channel",
				"subtype": "noteOff",
				"noteNumber": 42,
				"velocity": 64
			},
			{
				"deltaTime": 178,
				"channel": 9,
				"type": "channel",
				"noteNumber": 42,
				"velocity": 53,
				"subtype": "noteOn"
			},
			{
				"deltaTime": 60,
				"channel": 9,
				"type": "channel",
				"subtype": "noteOff",
				"noteNumber": 42,
				"velocity": 64
			},
			{
				"deltaTime": 82,
				"channel": 9,
				"type": "channel",
				"noteNumber": 38,
				"velocity": 94,
				"subtype": "noteOn"
			},
			{
				"deltaTime": 60,
				"channel": 9,
				"type": "channel",
				"subtype": "noteOff",
				"noteNumber": 38,
				"velocity": 64
			},
			{
				"deltaTime": 36,
				"channel": 9,
				"type": "channel",
				"noteNumber": 42,
				"velocity": 69,
				"subtype": "noteOn"
			},
			{
				"deltaTime": 2,
				"channel": 9,
				"type": "channel",
				"noteNumber": 36,
				"velocity": 102,
				"subtype": "noteOn"
			},
			{
				"deltaTime": 58,
				"channel": 9,
				"type": "channel",
				"subtype": "noteOff",
				"noteNumber": 42,
				"velocity": 64
			},
			{
				"deltaTime": 2,
				"channel": 9,
				"type": "channel",
				"subtype": "noteOff",
				"noteNumber": 36,
				"velocity": 64
			},
			{
				"deltaTime": 186,
				"channel": 9,
				"type": "channel",
				"noteNumber": 36,
				"velocity": 98,
				"subtype": "noteOn"
			},
			{
				"deltaTime": 4,
				"channel": 9,
				"type": "channel",
				"noteNumber": 42,
				"velocity": 55,
				"subtype": "noteOn"
			},
			{
				"deltaTime": 56,
				"channel": 9,
				"type": "channel",
				"subtype": "noteOff",
				"noteNumber": 36,
				"velocity": 64
			},
			{
				"deltaTime": 4,
				"channel": 9,
				"type": "channel",
				"subtype": "noteOff",
				"noteNumber": 42,
				"velocity": 64
			},
			{
				"deltaTime": 170,
				"channel": 9,
				"type": "channel",
				"noteNumber": 38,
				"velocity": 114,
				"subtype": "noteOn"
			},
			{
				"deltaTime": 6,
				"channel": 9,
				"type": "channel",
				"noteNumber": 42,
				"velocity": 85,
				"subtype": "noteOn"
			},
			{
				"deltaTime": 54,
				"channel": 9,
				"type": "channel",
				"subtype": "noteOff",
				"noteNumber": 38,
				"velocity": 64
			},
			{
				"deltaTime": 6,
				"channel": 9,
				"type": "channel",
				"subtype": "noteOff",
				"noteNumber": 42,
				"velocity": 64
			},
			{
				"deltaTime": 174,
				"channel": 9,
				"type": "channel",
				"noteNumber": 42,
				"velocity": 48,
				"subtype": "noteOn"
			},
			{
				"deltaTime": 60,
				"channel": 9,
				"type": "channel",
				"subtype": "noteOff",
				"noteNumber": 42,
				"velocity": 64
			},
			{
				"deltaTime": 74,
				"channel": 9,
				"type": "channel",
				"noteNumber": 38,
				"velocity": 93,
				"subtype": "noteOn"
			},
			{
				"deltaTime": 60,
				"channel": 9,
				"type": "channel",
				"subtype": "noteOff",
				"noteNumber": 38,
				"velocity": 64
			},
			{
				"deltaTime": 34,
				"channel": 9,
				"type": "channel",
				"noteNumber": 36,
				"velocity": 112,
				"subtype": "noteOn"
			},
			{
				"deltaTime": 4,
				"channel": 9,
				"type": "channel",
				"noteNumber": 42,
				"velocity": 64,
				"subtype": "noteOn"
			},
			{
				"deltaTime": 56,
				"channel": 9,
				"type": "channel",
				"subtype": "noteOff",
				"noteNumber": 36,
				"velocity": 64
			},
			{
				"deltaTime": 4,
				"channel": 9,
				"type": "channel",
				"subtype": "noteOff",
				"noteNumber": 42,
				"velocity": 64
			},
			{
				"deltaTime": 186,
				"channel": 9,
				"type": "channel",
				"noteNumber": 36,
				"velocity": 110,
				"subtype": "noteOn"
			},
			{
				"deltaTime": 6,
				"channel": 9,
				"type": "channel",
				"noteNumber": 42,
				"velocity": 59,
				"subtype": "noteOn"
			},
			{
				"deltaTime": 54,
				"channel": 9,
				"type": "channel",
				"subtype": "noteOff",
				"noteNumber": 36,
				"velocity": 64
			},
			{
				"deltaTime": 6,
				"channel": 9,
				"type": "channel",
				"subtype": "noteOff",
				"noteNumber": 42,
				"velocity": 64
			},
			{
				"deltaTime": 170,
				"channel": 9,
				"type": "channel",
				"noteNumber": 38,
				"velocity": 119,
				"subtype": "noteOn"
			},
			{
				"deltaTime": 8,
				"channel": 9,
				"type": "channel",
				"noteNumber": 42,
				"velocity": 84,
				"subtype": "noteOn"
			},
			{
				"deltaTime": 52,
				"channel": 9,
				"type": "channel",
				"subtype": "noteOff",
				"noteNumber": 38,
				"velocity": 64
			},
			{
				"deltaTime": 8,
				"channel": 9,
				"type": "channel",
				"subtype": "noteOff",
				"noteNumber": 42,
				"velocity": 64
			},
			{
				"deltaTime": 180,
				"channel": 9,
				"type": "channel",
				"noteNumber": 42,
				"velocity": 61,
				"subtype": "noteOn"
			},
			{
				"deltaTime": 60,
				"channel": 9,
				"type": "channel",
				"subtype": "noteOff",
				"noteNumber": 42,
				"velocity": 64
			},
			{
				"deltaTime": 66,
				"channel": 9,
				"type": "channel",
				"noteNumber": 38,
				"velocity": 109,
				"subtype": "noteOn"
			},
			{
				"deltaTime": 60,
				"channel": 9,
				"type": "channel",
				"subtype": "noteOff",
				"noteNumber": 38,
				"velocity": 64
			},
			{
				"deltaTime": 44,
				"channel": 9,
				"type": "channel",
				"noteNumber": 36,
				"velocity": 114,
				"subtype": "noteOn"
			},
			{
				"deltaTime": 8,
				"channel": 9,
				"type": "channel",
				"noteNumber": 46,
				"velocity": 122,
				"subtype": "noteOn"
			},
			{
				"deltaTime": 52,
				"channel": 9,
				"type": "channel",
				"subtype": "noteOff",
				"noteNumber": 36,
				"velocity": 64
			},
			{
				"deltaTime": 8,
				"channel": 9,
				"type": "channel",
				"subtype": "noteOff",
				"noteNumber": 46,
				"velocity": 64
			},
			{
				"deltaTime": 176,
				"channel": 9,
				"type": "channel",
				"noteNumber": 48,
				"velocity": 127,
				"subtype": "noteOn"
			},
			{
				"deltaTime": 60,
				"channel": 9,
				"type": "channel",
				"subtype": "noteOff",
				"noteNumber": 48,
				"velocity": 64
			},
			{
				"deltaTime": 60,
				"channel": 9,
				"type": "channel",
				"noteNumber": 38,
				"velocity": 46,
				"subtype": "noteOn"
			},
			{
				"deltaTime": 60,
				"channel": 9,
				"type": "channel",
				"subtype": "noteOff",
				"noteNumber": 38,
				"velocity": 64
			},
			{
				"deltaTime": 52,
				"channel": 9,
				"type": "channel",
				"noteNumber": 38,
				"velocity": 115,
				"subtype": "noteOn"
			},
			{
				"deltaTime": 60,
				"channel": 9,
				"type": "channel",
				"subtype": "noteOff",
				"noteNumber": 38,
				"velocity": 64
			},
			{
				"deltaTime": 70,
				"channel": 9,
				"type": "channel",
				"noteNumber": 38,
				"velocity": 125,
				"subtype": "noteOn"
			},
			{
				"deltaTime": 60,
				"channel": 9,
				"type": "channel",
				"subtype": "noteOff",
				"noteNumber": 38,
				"velocity": 64
			},
			{
				"deltaTime": 52,
				"channel": 9,
				"type": "channel",
				"noteNumber": 45,
				"velocity": 125,
				"subtype": "noteOn"
			},
			{
				"deltaTime": 60,
				"channel": 9,
				"type": "channel",
				"subtype": "noteOff",
				"noteNumber": 45,
				"velocity": 64
			},
			{
				"deltaTime": 78,
				"channel": 9,
				"type": "channel",
				"noteNumber": 43,
				"velocity": 121,
				"subtype": "noteOn"
			},
			{
				"deltaTime": 60,
				"channel": 9,
				"type": "channel",
				"subtype": "noteOff",
				"noteNumber": 43,
				"velocity": 64
			},
			{
				"deltaTime": 48,
				"channel": 9,
				"type": "channel",
				"noteNumber": 36,
				"velocity": 109,
				"subtype": "noteOn"
			},
			{
				"deltaTime": 4,
				"channel": 9,
				"type": "channel",
				"noteNumber": 42,
				"velocity": 77,
				"subtype": "noteOn"
			},
			{
				"deltaTime": 56,
				"channel": 9,
				"type": "channel",
				"subtype": "noteOff",
				"noteNumber": 36,
				"velocity": 64
			},
			{
				"deltaTime": 4,
				"channel": 9,
				"type": "channel",
				"subtype": "noteOff",
				"noteNumber": 42,
				"velocity": 64
			},
			{
				"deltaTime": 186,
				"channel": 9,
				"type": "channel",
				"noteNumber": 36,
				"velocity": 99,
				"subtype": "noteOn"
			},
			{
				"deltaTime": 6,
				"channel": 9,
				"type": "channel",
				"noteNumber": 42,
				"velocity": 53,
				"subtype": "noteOn"
			},
			{
				"deltaTime": 54,
				"channel": 9,
				"type": "channel",
				"subtype": "noteOff",
				"noteNumber": 36,
				"velocity": 64
			},
			{
				"deltaTime": 6,
				"channel": 9,
				"type": "channel",
				"subtype": "noteOff",
				"noteNumber": 42,
				"velocity": 64
			},
			{
				"deltaTime": 172,
				"channel": 9,
				"type": "channel",
				"noteNumber": 38,
				"velocity": 115,
				"subtype": "noteOn"
			},
			{
				"deltaTime": 2,
				"channel": 9,
				"type": "channel",
				"noteNumber": 42,
				"velocity": 88,
				"subtype": "noteOn"
			},
			{
				"deltaTime": 58,
				"channel": 9,
				"type": "channel",
				"subtype": "noteOff",
				"noteNumber": 38,
				"velocity": 64
			},
			{
				"deltaTime": 2,
				"channel": 9,
				"type": "channel",
				"subtype": "noteOff",
				"noteNumber": 42,
				"velocity": 64
			},
			{
				"deltaTime": 186,
				"channel": 9,
				"type": "channel",
				"noteNumber": 42,
				"velocity": 45,
				"subtype": "noteOn"
			},
			{
				"deltaTime": 60,
				"channel": 9,
				"type": "channel",
				"subtype": "noteOff",
				"noteNumber": 42,
				"velocity": 64
			},
			{
				"deltaTime": 82,
				"channel": 9,
				"type": "channel",
				"noteNumber": 38,
				"velocity": 97,
				"subtype": "noteOn"
			},
			{
				"deltaTime": 60,
				"channel": 9,
				"type": "channel",
				"subtype": "noteOff",
				"noteNumber": 38,
				"velocity": 64
			},
			{
				"deltaTime": 28,
				"channel": 9,
				"type": "channel",
				"noteNumber": 42,
				"velocity": 73,
				"subtype": "noteOn"
			},
			{
				"deltaTime": 6,
				"channel": 9,
				"type": "channel",
				"noteNumber": 36,
				"velocity": 106,
				"subtype": "noteOn"
			},
			{
				"deltaTime": 54,
				"channel": 9,
				"type": "channel",
				"subtype": "noteOff",
				"noteNumber": 42,
				"velocity": 64
			},
			{
				"deltaTime": 6,
				"channel": 9,
				"type": "channel",
				"subtype": "noteOff",
				"noteNumber": 36,
				"velocity": 64
			},
			{
				"deltaTime": 188,
				"channel": 9,
				"type": "channel",
				"noteNumber": 42,
				"velocity": 53,
				"subtype": "noteOn"
			},
			{
				"deltaTime": 6,
				"channel": 9,
				"type": "channel",
				"noteNumber": 36,
				"velocity": 100,
				"subtype": "noteOn"
			},
			{
				"deltaTime": 54,
				"channel": 9,
				"type": "channel",
				"subtype": "noteOff",
				"noteNumber": 42,
				"velocity": 64
			},
			{
				"deltaTime": 6,
				"channel": 9,
				"type": "channel",
				"subtype": "noteOff",
				"noteNumber": 36,
				"velocity": 64
			},
			{
				"deltaTime": 158,
				"channel": 9,
				"type": "channel",
				"noteNumber": 38,
				"velocity": 118,
				"subtype": "noteOn"
			},
			{
				"deltaTime": 4,
				"channel": 9,
				"type": "channel",
				"noteNumber": 42,
				"velocity": 86,
				"subtype": "noteOn"
			},
			{
				"deltaTime": 56,
				"channel": 9,
				"type": "channel",
				"subtype": "noteOff",
				"noteNumber": 38,
				"velocity": 64
			},
			{
				"deltaTime": 4,
				"channel": 9,
				"type": "channel",
				"subtype": "noteOff",
				"noteNumber": 42,
				"velocity": 64
			},
			{
				"deltaTime": 174,
				"channel": 9,
				"type": "channel",
				"noteNumber": 42,
				"velocity": 51,
				"subtype": "noteOn"
			},
			{
				"deltaTime": 60,
				"channel": 9,
				"type": "channel",
				"subtype": "noteOff",
				"noteNumber": 42,
				"velocity": 64
			},
			{
				"deltaTime": 82,
				"channel": 9,
				"type": "channel",
				"noteNumber": 38,
				"velocity": 100,
				"subtype": "noteOn"
			},
			{
				"deltaTime": 60,
				"channel": 9,
				"type": "channel",
				"subtype": "noteOff",
				"noteNumber": 38,
				"velocity": 64
			},
			{
				"deltaTime": 34,
				"channel": 9,
				"type": "channel",
				"noteNumber": 36,
				"velocity": 111,
				"subtype": "noteOn"
			},
			{
				"deltaTime": 8,
				"channel": 9,
				"type": "channel",
				"noteNumber": 42,
				"velocity": 73,
				"subtype": "noteOn"
			},
			{
				"deltaTime": 52,
				"channel": 9,
				"type": "channel",
				"subtype": "noteOff",
				"noteNumber": 36,
				"velocity": 64
			},
			{
				"deltaTime": 8,
				"channel": 9,
				"type": "channel",
				"subtype": "noteOff",
				"noteNumber": 42,
				"velocity": 64
			},
			{
				"deltaTime": 184,
				"channel": 9,
				"type": "channel",
				"noteNumber": 36,
				"velocity": 106,
				"subtype": "noteOn"
			},
			{
				"deltaTime": 0,
				"channel": 9,
				"type": "channel",
				"noteNumber": 42,
				"velocity": 60,
				"subtype": "noteOn"
			},
			{
				"deltaTime": 60,
				"channel": 9,
				"type": "channel",
				"subtype": "noteOff",
				"noteNumber": 36,
				"velocity": 64
			},
			{
				"deltaTime": 0,
				"channel": 9,
				"type": "channel",
				"subtype": "noteOff",
				"noteNumber": 42,
				"velocity": 64
			},
			{
				"deltaTime": 170,
				"channel": 9,
				"type": "channel",
				"noteNumber": 38,
				"velocity": 112,
				"subtype": "noteOn"
			},
			{
				"deltaTime": 4,
				"channel": 9,
				"type": "channel",
				"noteNumber": 42,
				"velocity": 86,
				"subtype": "noteOn"
			},
			{
				"deltaTime": 56,
				"channel": 9,
				"type": "channel",
				"subtype": "noteOff",
				"noteNumber": 38,
				"velocity": 64
			},
			{
				"deltaTime": 4,
				"channel": 9,
				"type": "channel",
				"subtype": "noteOff",
				"noteNumber": 42,
				"velocity": 64
			},
			{
				"deltaTime": 172,
				"channel": 9,
				"type": "channel",
				"noteNumber": 42,
				"velocity": 48,
				"subtype": "noteOn"
			},
			{
				"deltaTime": 60,
				"channel": 9,
				"type": "channel",
				"subtype": "noteOff",
				"noteNumber": 42,
				"velocity": 64
			},
			{
				"deltaTime": 78,
				"channel": 9,
				"type": "channel",
				"noteNumber": 38,
				"velocity": 104,
				"subtype": "noteOn"
			},
			{
				"deltaTime": 60,
				"channel": 9,
				"type": "channel",
				"subtype": "noteOff",
				"noteNumber": 38,
				"velocity": 64
			},
			{
				"deltaTime": 50,
				"channel": 9,
				"type": "channel",
				"noteNumber": 36,
				"velocity": 101,
				"subtype": "noteOn"
			},
			{
				"deltaTime": 2,
				"channel": 9,
				"type": "channel",
				"noteNumber": 42,
				"velocity": 84,
				"subtype": "noteOn"
			},
			{
				"deltaTime": 58,
				"channel": 9,
				"type": "channel",
				"subtype": "noteOff",
				"noteNumber": 36,
				"velocity": 64
			},
			{
				"deltaTime": 2,
				"channel": 9,
				"type": "channel",
				"subtype": "noteOff",
				"noteNumber": 42,
				"velocity": 64
			},
			{
				"deltaTime": 190,
				"channel": 9,
				"type": "channel",
				"noteNumber": 36,
				"velocity": 102,
				"subtype": "noteOn"
			},
			{
				"deltaTime": 2,
				"channel": 9,
				"type": "channel",
				"noteNumber": 42,
				"velocity": 44,
				"subtype": "noteOn"
			},
			{
				"deltaTime": 58,
				"channel": 9,
				"type": "channel",
				"subtype": "noteOff",
				"noteNumber": 36,
				"velocity": 64
			},
			{
				"deltaTime": 2,
				"channel": 9,
				"type": "channel",
				"subtype": "noteOff",
				"noteNumber": 42,
				"velocity": 64
			},
			{
				"deltaTime": 166,
				"channel": 9,
				"type": "channel",
				"noteNumber": 38,
				"velocity": 113,
				"subtype": "noteOn"
			},
			{
				"deltaTime": 2,
				"channel": 9,
				"type": "channel",
				"noteNumber": 42,
				"velocity": 79,
				"subtype": "noteOn"
			},
			{
				"deltaTime": 58,
				"channel": 9,
				"type": "channel",
				"subtype": "noteOff",
				"noteNumber": 38,
				"velocity": 64
			},
			{
				"deltaTime": 2,
				"channel": 9,
				"type": "channel",
				"subtype": "noteOff",
				"noteNumber": 42,
				"velocity": 64
			},
			{
				"deltaTime": 172,
				"channel": 9,
				"type": "channel",
				"noteNumber": 42,
				"velocity": 48,
				"subtype": "noteOn"
			},
			{
				"deltaTime": 60,
				"channel": 9,
				"type": "channel",
				"subtype": "noteOff",
				"noteNumber": 42,
				"velocity": 64
			},
			{
				"deltaTime": 86,
				"channel": 9,
				"type": "channel",
				"noteNumber": 38,
				"velocity": 100,
				"subtype": "noteOn"
			},
			{
				"deltaTime": 60,
				"channel": 9,
				"type": "channel",
				"subtype": "noteOff",
				"noteNumber": 38,
				"velocity": 64
			},
			{
				"deltaTime": 36,
				"channel": 9,
				"type": "channel",
				"noteNumber": 42,
				"velocity": 73,
				"subtype": "noteOn"
			},
			{
				"deltaTime": 2,
				"channel": 9,
				"type": "channel",
				"noteNumber": 36,
				"velocity": 110,
				"subtype": "noteOn"
			},
			{
				"deltaTime": 58,
				"channel": 9,
				"type": "channel",
				"subtype": "noteOff",
				"noteNumber": 42,
				"velocity": 64
			},
			{
				"deltaTime": 2,
				"channel": 9,
				"type": "channel",
				"subtype": "noteOff",
				"noteNumber": 36,
				"velocity": 64
			},
			{
				"deltaTime": 190,
				"channel": 9,
				"type": "channel",
				"noteNumber": 36,
				"velocity": 103,
				"subtype": "noteOn"
			},
			{
				"deltaTime": 2,
				"channel": 9,
				"type": "channel",
				"noteNumber": 42,
				"velocity": 51,
				"subtype": "noteOn"
			},
			{
				"deltaTime": 58,
				"channel": 9,
				"type": "channel",
				"subtype": "noteOff",
				"noteNumber": 36,
				"velocity": 64
			},
			{
				"deltaTime": 2,
				"channel": 9,
				"type": "channel",
				"subtype": "noteOff",
				"noteNumber": 42,
				"velocity": 64
			},
			{
				"deltaTime": 168,
				"channel": 9,
				"type": "channel",
				"noteNumber": 38,
				"velocity": 119,
				"subtype": "noteOn"
			},
			{
				"deltaTime": 4,
				"channel": 9,
				"type": "channel",
				"noteNumber": 42,
				"velocity": 85,
				"subtype": "noteOn"
			},
			{
				"deltaTime": 56,
				"channel": 9,
				"type": "channel",
				"subtype": "noteOff",
				"noteNumber": 38,
				"velocity": 64
			},
			{
				"deltaTime": 4,
				"channel": 9,
				"type": "channel",
				"subtype": "noteOff",
				"noteNumber": 42,
				"velocity": 64
			},
			{
				"deltaTime": 178,
				"channel": 9,
				"type": "channel",
				"noteNumber": 42,
				"velocity": 53,
				"subtype": "noteOn"
			},
			{
				"deltaTime": 60,
				"channel": 9,
				"type": "channel",
				"subtype": "noteOff",
				"noteNumber": 42,
				"velocity": 64
			},
			{
				"deltaTime": 82,
				"channel": 9,
				"type": "channel",
				"noteNumber": 38,
				"velocity": 94,
				"subtype": "noteOn"
			},
			{
				"deltaTime": 60,
				"channel": 9,
				"type": "channel",
				"subtype": "noteOff",
				"noteNumber": 38,
				"velocity": 64
			},
			{
				"deltaTime": 36,
				"channel": 9,
				"type": "channel",
				"noteNumber": 42,
				"velocity": 69,
				"subtype": "noteOn"
			},
			{
				"deltaTime": 2,
				"channel": 9,
				"type": "channel",
				"noteNumber": 36,
				"velocity": 102,
				"subtype": "noteOn"
			},
			{
				"deltaTime": 58,
				"channel": 9,
				"type": "channel",
				"subtype": "noteOff",
				"noteNumber": 42,
				"velocity": 64
			},
			{
				"deltaTime": 2,
				"channel": 9,
				"type": "channel",
				"subtype": "noteOff",
				"noteNumber": 36,
				"velocity": 64
			},
			{
				"deltaTime": 186,
				"channel": 9,
				"type": "channel",
				"noteNumber": 36,
				"velocity": 98,
				"subtype": "noteOn"
			},
			{
				"deltaTime": 4,
				"channel": 9,
				"type": "channel",
				"noteNumber": 42,
				"velocity": 55,
				"subtype": "noteOn"
			},
			{
				"deltaTime": 56,
				"channel": 9,
				"type": "channel",
				"subtype": "noteOff",
				"noteNumber": 36,
				"velocity": 64
			},
			{
				"deltaTime": 4,
				"channel": 9,
				"type": "channel",
				"subtype": "noteOff",
				"noteNumber": 42,
				"velocity": 64
			},
			{
				"deltaTime": 170,
				"channel": 9,
				"type": "channel",
				"noteNumber": 38,
				"velocity": 114,
				"subtype": "noteOn"
			},
			{
				"deltaTime": 6,
				"channel": 9,
				"type": "channel",
				"noteNumber": 42,
				"velocity": 85,
				"subtype": "noteOn"
			},
			{
				"deltaTime": 54,
				"channel": 9,
				"type": "channel",
				"subtype": "noteOff",
				"noteNumber": 38,
				"velocity": 64
			},
			{
				"deltaTime": 6,
				"channel": 9,
				"type": "channel",
				"subtype": "noteOff",
				"noteNumber": 42,
				"velocity": 64
			},
			{
				"deltaTime": 174,
				"channel": 9,
				"type": "channel",
				"noteNumber": 42,
				"velocity": 48,
				"subtype": "noteOn"
			},
			{
				"deltaTime": 60,
				"channel": 9,
				"type": "channel",
				"subtype": "noteOff",
				"noteNumber": 42,
				"velocity": 64
			},
			{
				"deltaTime": 74,
				"channel": 9,
				"type": "channel",
				"noteNumber": 38,
				"velocity": 93,
				"subtype": "noteOn"
			},
			{
				"deltaTime": 60,
				"channel": 9,
				"type": "channel",
				"subtype": "noteOff",
				"noteNumber": 38,
				"velocity": 64
			},
			{
				"deltaTime": 34,
				"channel": 9,
				"type": "channel",
				"noteNumber": 36,
				"velocity": 112,
				"subtype": "noteOn"
			},
			{
				"deltaTime": 4,
				"channel": 9,
				"type": "channel",
				"noteNumber": 42,
				"velocity": 64,
				"subtype": "noteOn"
			},
			{
				"deltaTime": 56,
				"channel": 9,
				"type": "channel",
				"subtype": "noteOff",
				"noteNumber": 36,
				"velocity": 64
			},
			{
				"deltaTime": 4,
				"channel": 9,
				"type": "channel",
				"subtype": "noteOff",
				"noteNumber": 42,
				"velocity": 64
			},
			{
				"deltaTime": 186,
				"channel": 9,
				"type": "channel",
				"noteNumber": 36,
				"velocity": 110,
				"subtype": "noteOn"
			},
			{
				"deltaTime": 6,
				"channel": 9,
				"type": "channel",
				"noteNumber": 42,
				"velocity": 59,
				"subtype": "noteOn"
			},
			{
				"deltaTime": 54,
				"channel": 9,
				"type": "channel",
				"subtype": "noteOff",
				"noteNumber": 36,
				"velocity": 64
			},
			{
				"deltaTime": 6,
				"channel": 9,
				"type": "channel",
				"subtype": "noteOff",
				"noteNumber": 42,
				"velocity": 64
			},
			{
				"deltaTime": 170,
				"channel": 9,
				"type": "channel",
				"noteNumber": 38,
				"velocity": 119,
				"subtype": "noteOn"
			},
			{
				"deltaTime": 8,
				"channel": 9,
				"type": "channel",
				"noteNumber": 42,
				"velocity": 84,
				"subtype": "noteOn"
			},
			{
				"deltaTime": 52,
				"channel": 9,
				"type": "channel",
				"subtype": "noteOff",
				"noteNumber": 38,
				"velocity": 64
			},
			{
				"deltaTime": 8,
				"channel": 9,
				"type": "channel",
				"subtype": "noteOff",
				"noteNumber": 42,
				"velocity": 64
			},
			{
				"deltaTime": 180,
				"channel": 9,
				"type": "channel",
				"noteNumber": 42,
				"velocity": 61,
				"subtype": "noteOn"
			},
			{
				"deltaTime": 60,
				"channel": 9,
				"type": "channel",
				"subtype": "noteOff",
				"noteNumber": 42,
				"velocity": 64
			},
			{
				"deltaTime": 66,
				"channel": 9,
				"type": "channel",
				"noteNumber": 38,
				"velocity": 109,
				"subtype": "noteOn"
			},
			{
				"deltaTime": 60,
				"channel": 9,
				"type": "channel",
				"subtype": "noteOff",
				"noteNumber": 38,
				"velocity": 64
			},
			{
				"deltaTime": 44,
				"channel": 9,
				"type": "channel",
				"noteNumber": 36,
				"velocity": 114,
				"subtype": "noteOn"
			},
			{
				"deltaTime": 8,
				"channel": 9,
				"type": "channel",
				"noteNumber": 46,
				"velocity": 122,
				"subtype": "noteOn"
			},
			{
				"deltaTime": 52,
				"channel": 9,
				"type": "channel",
				"subtype": "noteOff",
				"noteNumber": 36,
				"velocity": 64
			},
			{
				"deltaTime": 8,
				"channel": 9,
				"type": "channel",
				"subtype": "noteOff",
				"noteNumber": 46,
				"velocity": 64
			},
			{
				"deltaTime": 176,
				"channel": 9,
				"type": "channel",
				"noteNumber": 48,
				"velocity": 127,
				"subtype": "noteOn"
			},
			{
				"deltaTime": 60,
				"channel": 9,
				"type": "channel",
				"subtype": "noteOff",
				"noteNumber": 48,
				"velocity": 64
			},
			{
				"deltaTime": 60,
				"channel": 9,
				"type": "channel",
				"noteNumber": 38,
				"velocity": 46,
				"subtype": "noteOn"
			},
			{
				"deltaTime": 60,
				"channel": 9,
				"type": "channel",
				"subtype": "noteOff",
				"noteNumber": 38,
				"velocity": 64
			},
			{
				"deltaTime": 52,
				"channel": 9,
				"type": "channel",
				"noteNumber": 38,
				"velocity": 115,
				"subtype": "noteOn"
			},
			{
				"deltaTime": 60,
				"channel": 9,
				"type": "channel",
				"subtype": "noteOff",
				"noteNumber": 38,
				"velocity": 64
			},
			{
				"deltaTime": 70,
				"channel": 9,
				"type": "channel",
				"noteNumber": 38,
				"velocity": 125,
				"subtype": "noteOn"
			},
			{
				"deltaTime": 60,
				"channel": 9,
				"type": "channel",
				"subtype": "noteOff",
				"noteNumber": 38,
				"velocity": 64
			},
			{
				"deltaTime": 52,
				"channel": 9,
				"type": "channel",
				"noteNumber": 45,
				"velocity": 125,
				"subtype": "noteOn"
			},
			{
				"deltaTime": 60,
				"channel": 9,
				"type": "channel",
				"subtype": "noteOff",
				"noteNumber": 45,
				"velocity": 64
			},
			{
				"deltaTime": 78,
				"channel": 9,
				"type": "channel",
				"noteNumber": 43,
				"velocity": 121,
				"subtype": "noteOn"
			},
			{
				"deltaTime": 60,
				"channel": 9,
				"type": "channel",
				"subtype": "noteOff",
				"noteNumber": 43,
				"velocity": 64
			},
			{
				"deltaTime": 36,
				"channel": 9,
				"type": "channel",
				"noteNumber": 36,
				"velocity": 114,
				"subtype": "noteOn"
			},
			{
				"deltaTime": 0,
				"channel": 9,
				"type": "channel",
				"noteNumber": 49,
				"velocity": 126,
				"subtype": "noteOn"
			},
			{
				"deltaTime": 60,
				"channel": 9,
				"type": "channel",
				"subtype": "noteOff",
				"noteNumber": 36,
				"velocity": 64
			},
			{
				"deltaTime": 0,
				"channel": 9,
				"type": "channel",
				"subtype": "noteOff",
				"noteNumber": 49,
				"velocity": 64
			},
			{
				"deltaTime": 202,
				"channel": 9,
				"type": "channel",
				"noteNumber": 42,
				"velocity": 55,
				"subtype": "noteOn"
			},
			{
				"deltaTime": 2,
				"channel": 9,
				"type": "channel",
				"noteNumber": 36,
				"velocity": 100,
				"subtype": "noteOn"
			},
			{
				"deltaTime": 58,
				"channel": 9,
				"type": "channel",
				"subtype": "noteOff",
				"noteNumber": 42,
				"velocity": 64
			},
			{
				"deltaTime": 2,
				"channel": 9,
				"type": "channel",
				"subtype": "noteOff",
				"noteNumber": 36,
				"velocity": 64
			},
			{
				"deltaTime": 170,
				"channel": 9,
				"type": "channel",
				"noteNumber": 38,
				"velocity": 115,
				"subtype": "noteOn"
			},
			{
				"deltaTime": 4,
				"channel": 9,
				"type": "channel",
				"noteNumber": 42,
				"velocity": 97,
				"subtype": "noteOn"
			},
			{
				"deltaTime": 56,
				"channel": 9,
				"type": "channel",
				"subtype": "noteOff",
				"noteNumber": 38,
				"velocity": 64
			},
			{
				"deltaTime": 4,
				"channel": 9,
				"type": "channel",
				"subtype": "noteOff",
				"noteNumber": 42,
				"velocity": 64
			},
			{
				"deltaTime": 182,
				"channel": 9,
				"type": "channel",
				"noteNumber": 42,
				"velocity": 46,
				"subtype": "noteOn"
			},
			{
				"deltaTime": 60,
				"channel": 9,
				"type": "channel",
				"subtype": "noteOff",
				"noteNumber": 42,
				"velocity": 64
			},
			{
				"deltaTime": 92,
				"channel": 9,
				"type": "channel",
				"noteNumber": 38,
				"velocity": 104,
				"subtype": "noteOn"
			},
			{
				"deltaTime": 60,
				"channel": 9,
				"type": "channel",
				"subtype": "noteOff",
				"noteNumber": 38,
				"velocity": 64
			},
			{
				"deltaTime": 24,
				"channel": 9,
				"type": "channel",
				"noteNumber": 42,
				"velocity": 81,
				"subtype": "noteOn"
			},
			{
				"deltaTime": 4,
				"channel": 9,
				"type": "channel",
				"noteNumber": 36,
				"velocity": 100,
				"subtype": "noteOn"
			},
			{
				"deltaTime": 56,
				"channel": 9,
				"type": "channel",
				"subtype": "noteOff",
				"noteNumber": 42,
				"velocity": 64
			},
			{
				"deltaTime": 4,
				"channel": 9,
				"type": "channel",
				"subtype": "noteOff",
				"noteNumber": 36,
				"velocity": 64
			},
			{
				"deltaTime": 188,
				"channel": 9,
				"type": "channel",
				"noteNumber": 42,
				"velocity": 55,
				"subtype": "noteOn"
			},
			{
				"deltaTime": 6,
				"channel": 9,
				"type": "channel",
				"noteNumber": 36,
				"velocity": 99,
				"subtype": "noteOn"
			},
			{
				"deltaTime": 54,
				"channel": 9,
				"type": "channel",
				"subtype": "noteOff",
				"noteNumber": 42,
				"velocity": 64
			},
			{
				"deltaTime": 6,
				"channel": 9,
				"type": "channel",
				"subtype": "noteOff",
				"noteNumber": 36,
				"velocity": 64
			},
			{
				"deltaTime": 160,
				"channel": 9,
				"type": "channel",
				"noteNumber": 38,
				"velocity": 113,
				"subtype": "noteOn"
			},
			{
				"deltaTime": 6,
				"channel": 9,
				"type": "channel",
				"noteNumber": 42,
				"velocity": 87,
				"subtype": "noteOn"
			},
			{
				"deltaTime": 54,
				"channel": 9,
				"type": "channel",
				"subtype": "noteOff",
				"noteNumber": 38,
				"velocity": 64
			},
			{
				"deltaTime": 6,
				"channel": 9,
				"type": "channel",
				"subtype": "noteOff",
				"noteNumber": 42,
				"velocity": 64
			},
			{
				"deltaTime": 178,
				"channel": 9,
				"type": "channel",
				"noteNumber": 42,
				"velocity": 54,
				"subtype": "noteOn"
			},
			{
				"deltaTime": 60,
				"channel": 9,
				"type": "channel",
				"subtype": "noteOff",
				"noteNumber": 42,
				"velocity": 64
			},
			{
				"deltaTime": 88,
				"channel": 9,
				"type": "channel",
				"noteNumber": 38,
				"velocity": 99,
				"subtype": "noteOn"
			},
			{
				"deltaTime": 60,
				"channel": 9,
				"type": "channel",
				"subtype": "noteOff",
				"noteNumber": 38,
				"velocity": 64
			},
			{
				"deltaTime": 28,
				"channel": 9,
				"type": "channel",
				"noteNumber": 36,
				"velocity": 110,
				"subtype": "noteOn"
			},
			{
				"deltaTime": 2,
				"channel": 9,
				"type": "channel",
				"noteNumber": 42,
				"velocity": 77,
				"subtype": "noteOn"
			},
			{
				"deltaTime": 58,
				"channel": 9,
				"type": "channel",
				"subtype": "noteOff",
				"noteNumber": 36,
				"velocity": 64
			},
			{
				"deltaTime": 2,
				"channel": 9,
				"type": "channel",
				"subtype": "noteOff",
				"noteNumber": 42,
				"velocity": 64
			},
			{
				"deltaTime": 190,
				"channel": 9,
				"type": "channel",
				"noteNumber": 42,
				"velocity": 56,
				"subtype": "noteOn"
			},
			{
				"deltaTime": 4,
				"channel": 9,
				"type": "channel",
				"noteNumber": 36,
				"velocity": 102,
				"subtype": "noteOn"
			},
			{
				"deltaTime": 56,
				"channel": 9,
				"type": "channel",
				"subtype": "noteOff",
				"noteNumber": 42,
				"velocity": 64
			},
			{
				"deltaTime": 4,
				"channel": 9,
				"type": "channel",
				"subtype": "noteOff",
				"noteNumber": 36,
				"velocity": 64
			},
			{
				"deltaTime": 162,
				"channel": 9,
				"type": "channel",
				"noteNumber": 38,
				"velocity": 118,
				"subtype": "noteOn"
			},
			{
				"deltaTime": 6,
				"channel": 9,
				"type": "channel",
				"noteNumber": 42,
				"velocity": 89,
				"subtype": "noteOn"
			},
			{
				"deltaTime": 54,
				"channel": 9,
				"type": "channel",
				"subtype": "noteOff",
				"noteNumber": 38,
				"velocity": 64
			},
			{
				"deltaTime": 6,
				"channel": 9,
				"type": "channel",
				"subtype": "noteOff",
				"noteNumber": 42,
				"velocity": 64
			},
			{
				"deltaTime": 176,
				"channel": 9,
				"type": "channel",
				"noteNumber": 42,
				"velocity": 54,
				"subtype": "noteOn"
			},
			{
				"deltaTime": 60,
				"channel": 9,
				"type": "channel",
				"subtype": "noteOff",
				"noteNumber": 42,
				"velocity": 64
			},
			{
				"deltaTime": 76,
				"channel": 9,
				"type": "channel",
				"noteNumber": 38,
				"velocity": 101,
				"subtype": "noteOn"
			},
			{
				"deltaTime": 60,
				"channel": 9,
				"type": "channel",
				"subtype": "noteOff",
				"noteNumber": 38,
				"velocity": 64
			},
			{
				"deltaTime": 44,
				"channel": 9,
				"type": "channel",
				"noteNumber": 42,
				"velocity": 84,
				"subtype": "noteOn"
			},
			{
				"deltaTime": 4,
				"channel": 9,
				"type": "channel",
				"noteNumber": 36,
				"velocity": 102,
				"subtype": "noteOn"
			},
			{
				"deltaTime": 56,
				"channel": 9,
				"type": "channel",
				"subtype": "noteOff",
				"noteNumber": 42,
				"velocity": 64
			},
			{
				"deltaTime": 4,
				"channel": 9,
				"type": "channel",
				"subtype": "noteOff",
				"noteNumber": 36,
				"velocity": 64
			},
			{
				"deltaTime": 184,
				"channel": 9,
				"type": "channel",
				"noteNumber": 36,
				"velocity": 100,
				"subtype": "noteOn"
			},
			{
				"deltaTime": 2,
				"channel": 9,
				"type": "channel",
				"noteNumber": 42,
				"velocity": 45,
				"subtype": "noteOn"
			},
			{
				"deltaTime": 58,
				"channel": 9,
				"type": "channel",
				"subtype": "noteOff",
				"noteNumber": 36,
				"velocity": 64
			},
			{
				"deltaTime": 2,
				"channel": 9,
				"type": "channel",
				"subtype": "noteOff",
				"noteNumber": 42,
				"velocity": 64
			},
			{
				"deltaTime": 166,
				"channel": 9,
				"type": "channel",
				"noteNumber": 38,
				"velocity": 112,
				"subtype": "noteOn"
			},
			{
				"deltaTime": 6,
				"channel": 9,
				"type": "channel",
				"noteNumber": 42,
				"velocity": 103,
				"subtype": "noteOn"
			},
			{
				"deltaTime": 54,
				"channel": 9,
				"type": "channel",
				"subtype": "noteOff",
				"noteNumber": 38,
				"velocity": 64
			},
			{
				"deltaTime": 6,
				"channel": 9,
				"type": "channel",
				"subtype": "noteOff",
				"noteNumber": 42,
				"velocity": 64
			},
			{
				"deltaTime": 180,
				"channel": 9,
				"type": "channel",
				"noteNumber": 42,
				"velocity": 41,
				"subtype": "noteOn"
			},
			{
				"deltaTime": 60,
				"channel": 9,
				"type": "channel",
				"subtype": "noteOff",
				"noteNumber": 42,
				"velocity": 64
			},
			{
				"deltaTime": 66,
				"channel": 9,
				"type": "channel",
				"noteNumber": 38,
				"velocity": 102,
				"subtype": "noteOn"
			},
			{
				"deltaTime": 60,
				"channel": 9,
				"type": "channel",
				"subtype": "noteOff",
				"noteNumber": 38,
				"velocity": 64
			},
			{
				"deltaTime": 46,
				"channel": 9,
				"type": "channel",
				"noteNumber": 36,
				"velocity": 112,
				"subtype": "noteOn"
			},
			{
				"deltaTime": 4,
				"channel": 9,
				"type": "channel",
				"noteNumber": 42,
				"velocity": 79,
				"subtype": "noteOn"
			},
			{
				"deltaTime": 56,
				"channel": 9,
				"type": "channel",
				"subtype": "noteOff",
				"noteNumber": 36,
				"velocity": 64
			},
			{
				"deltaTime": 4,
				"channel": 9,
				"type": "channel",
				"subtype": "noteOff",
				"noteNumber": 42,
				"velocity": 64
			},
			{
				"deltaTime": 186,
				"channel": 9,
				"type": "channel",
				"noteNumber": 42,
				"velocity": 57,
				"subtype": "noteOn"
			},
			{
				"deltaTime": 2,
				"channel": 9,
				"type": "channel",
				"noteNumber": 36,
				"velocity": 100,
				"subtype": "noteOn"
			},
			{
				"deltaTime": 58,
				"channel": 9,
				"type": "channel",
				"subtype": "noteOff",
				"noteNumber": 42,
				"velocity": 64
			},
			{
				"deltaTime": 2,
				"channel": 9,
				"type": "channel",
				"subtype": "noteOff",
				"noteNumber": 36,
				"velocity": 64
			},
			{
				"deltaTime": 166,
				"channel": 9,
				"type": "channel",
				"noteNumber": 38,
				"velocity": 117,
				"subtype": "noteOn"
			},
			{
				"deltaTime": 6,
				"channel": 9,
				"type": "channel",
				"noteNumber": 42,
				"velocity": 95,
				"subtype": "noteOn"
			},
			{
				"deltaTime": 54,
				"channel": 9,
				"type": "channel",
				"subtype": "noteOff",
				"noteNumber": 38,
				"velocity": 64
			},
			{
				"deltaTime": 6,
				"channel": 9,
				"type": "channel",
				"subtype": "noteOff",
				"noteNumber": 42,
				"velocity": 64
			},
			{
				"deltaTime": 178,
				"channel": 9,
				"type": "channel",
				"noteNumber": 42,
				"velocity": 51,
				"subtype": "noteOn"
			},
			{
				"deltaTime": 60,
				"channel": 9,
				"type": "channel",
				"subtype": "noteOff",
				"noteNumber": 42,
				"velocity": 64
			},
			{
				"deltaTime": 78,
				"channel": 9,
				"type": "channel",
				"noteNumber": 38,
				"velocity": 103,
				"subtype": "noteOn"
			},
			{
				"deltaTime": 60,
				"channel": 9,
				"type": "channel",
				"subtype": "noteOff",
				"noteNumber": 38,
				"velocity": 64
			},
			{
				"deltaTime": 44,
				"channel": 9,
				"type": "channel",
				"noteNumber": 36,
				"velocity": 104,
				"subtype": "noteOn"
			},
			{
				"deltaTime": 6,
				"channel": 9,
				"type": "channel",
				"noteNumber": 42,
				"velocity": 79,
				"subtype": "noteOn"
			},
			{
				"deltaTime": 54,
				"channel": 9,
				"type": "channel",
				"subtype": "noteOff",
				"noteNumber": 36,
				"velocity": 64
			},
			{
				"deltaTime": 6,
				"channel": 9,
				"type": "channel",
				"subtype": "noteOff",
				"noteNumber": 42,
				"velocity": 64
			},
			{
				"deltaTime": 180,
				"channel": 9,
				"type": "channel",
				"noteNumber": 36,
				"velocity": 101,
				"subtype": "noteOn"
			},
			{
				"deltaTime": 2,
				"channel": 9,
				"type": "channel",
				"noteNumber": 42,
				"velocity": 60,
				"subtype": "noteOn"
			},
			{
				"deltaTime": 58,
				"channel": 9,
				"type": "channel",
				"subtype": "noteOff",
				"noteNumber": 36,
				"velocity": 64
			},
			{
				"deltaTime": 2,
				"channel": 9,
				"type": "channel",
				"subtype": "noteOff",
				"noteNumber": 42,
				"velocity": 64
			},
			{
				"deltaTime": 172,
				"channel": 9,
				"type": "channel",
				"noteNumber": 38,
				"velocity": 116,
				"subtype": "noteOn"
			},
			{
				"deltaTime": 8,
				"channel": 9,
				"type": "channel",
				"noteNumber": 42,
				"velocity": 87,
				"subtype": "noteOn"
			},
			{
				"deltaTime": 52,
				"channel": 9,
				"type": "channel",
				"subtype": "noteOff",
				"noteNumber": 38,
				"velocity": 64
			},
			{
				"deltaTime": 8,
				"channel": 9,
				"type": "channel",
				"subtype": "noteOff",
				"noteNumber": 42,
				"velocity": 64
			},
			{
				"deltaTime": 176,
				"channel": 9,
				"type": "channel",
				"noteNumber": 42,
				"velocity": 48,
				"subtype": "noteOn"
			},
			{
				"deltaTime": 60,
				"channel": 9,
				"type": "channel",
				"subtype": "noteOff",
				"noteNumber": 42,
				"velocity": 64
			},
			{
				"deltaTime": 80,
				"channel": 9,
				"type": "channel",
				"noteNumber": 38,
				"velocity": 93,
				"subtype": "noteOn"
			},
			{
				"deltaTime": 60,
				"channel": 9,
				"type": "channel",
				"subtype": "noteOff",
				"noteNumber": 38,
				"velocity": 64
			},
			{
				"deltaTime": 38,
				"channel": 9,
				"type": "channel",
				"noteNumber": 36,
				"velocity": 108,
				"subtype": "noteOn"
			},
			{
				"deltaTime": 2,
				"channel": 9,
				"type": "channel",
				"noteNumber": 42,
				"velocity": 85,
				"subtype": "noteOn"
			},
			{
				"deltaTime": 58,
				"channel": 9,
				"type": "channel",
				"subtype": "noteOff",
				"noteNumber": 36,
				"velocity": 64
			},
			{
				"deltaTime": 2,
				"channel": 9,
				"type": "channel",
				"subtype": "noteOff",
				"noteNumber": 42,
				"velocity": 64
			},
			{
				"deltaTime": 190,
				"channel": 9,
				"type": "channel",
				"noteNumber": 42,
				"velocity": 49,
				"subtype": "noteOn"
			},
			{
				"deltaTime": 2,
				"channel": 9,
				"type": "channel",
				"noteNumber": 36,
				"velocity": 98,
				"subtype": "noteOn"
			},
			{
				"deltaTime": 58,
				"channel": 9,
				"type": "channel",
				"subtype": "noteOff",
				"noteNumber": 42,
				"velocity": 64
			},
			{
				"deltaTime": 2,
				"channel": 9,
				"type": "channel",
				"subtype": "noteOff",
				"noteNumber": 36,
				"velocity": 64
			},
			{
				"deltaTime": 160,
				"channel": 9,
				"type": "channel",
				"noteNumber": 38,
				"velocity": 113,
				"subtype": "noteOn"
			},
			{
				"deltaTime": 6,
				"channel": 9,
				"type": "channel",
				"noteNumber": 42,
				"velocity": 91,
				"subtype": "noteOn"
			},
			{
				"deltaTime": 54,
				"channel": 9,
				"type": "channel",
				"subtype": "noteOff",
				"noteNumber": 38,
				"velocity": 64
			},
			{
				"deltaTime": 6,
				"channel": 9,
				"type": "channel",
				"subtype": "noteOff",
				"noteNumber": 42,
				"velocity": 64
			},
			{
				"deltaTime": 174,
				"channel": 9,
				"type": "channel",
				"noteNumber": 42,
				"velocity": 49,
				"subtype": "noteOn"
			},
			{
				"deltaTime": 60,
				"channel": 9,
				"type": "channel",
				"subtype": "noteOff",
				"noteNumber": 42,
				"velocity": 64
			},
			{
				"deltaTime": 92,
				"channel": 9,
				"type": "channel",
				"noteNumber": 38,
				"velocity": 98,
				"subtype": "noteOn"
			},
			{
				"deltaTime": 60,
				"channel": 9,
				"type": "channel",
				"subtype": "noteOff",
				"noteNumber": 38,
				"velocity": 64
			},
			{
				"deltaTime": 32,
				"channel": 9,
				"type": "channel",
				"noteNumber": 42,
				"velocity": 74,
				"subtype": "noteOn"
			},
			{
				"deltaTime": 2,
				"channel": 9,
				"type": "channel",
				"noteNumber": 36,
				"velocity": 101,
				"subtype": "noteOn"
			},
			{
				"deltaTime": 58,
				"channel": 9,
				"type": "channel",
				"subtype": "noteOff",
				"noteNumber": 42,
				"velocity": 64
			},
			{
				"deltaTime": 2,
				"channel": 9,
				"type": "channel",
				"subtype": "noteOff",
				"noteNumber": 36,
				"velocity": 64
			},
			{
				"deltaTime": 180,
				"channel": 9,
				"type": "channel",
				"noteNumber": 36,
				"velocity": 100,
				"subtype": "noteOn"
			},
			{
				"deltaTime": 6,
				"channel": 9,
				"type": "channel",
				"noteNumber": 42,
				"velocity": 59,
				"subtype": "noteOn"
			},
			{
				"deltaTime": 54,
				"channel": 9,
				"type": "channel",
				"subtype": "noteOff",
				"noteNumber": 36,
				"velocity": 64
			},
			{
				"deltaTime": 6,
				"channel": 9,
				"type": "channel",
				"subtype": "noteOff",
				"noteNumber": 42,
				"velocity": 64
			},
			{
				"deltaTime": 172,
				"channel": 9,
				"type": "channel",
				"noteNumber": 38,
				"velocity": 119,
				"subtype": "noteOn"
			},
			{
				"deltaTime": 4,
				"channel": 9,
				"type": "channel",
				"noteNumber": 42,
				"velocity": 86,
				"subtype": "noteOn"
			},
			{
				"deltaTime": 56,
				"channel": 9,
				"type": "channel",
				"subtype": "noteOff",
				"noteNumber": 38,
				"velocity": 64
			},
			{
				"deltaTime": 4,
				"channel": 9,
				"type": "channel",
				"subtype": "noteOff",
				"noteNumber": 42,
				"velocity": 64
			},
			{
				"deltaTime": 174,
				"channel": 9,
				"type": "channel",
				"noteNumber": 42,
				"velocity": 52,
				"subtype": "noteOn"
			},
			{
				"deltaTime": 60,
				"channel": 9,
				"type": "channel",
				"subtype": "noteOff",
				"noteNumber": 42,
				"velocity": 64
			},
			{
				"deltaTime": 80,
				"channel": 9,
				"type": "channel",
				"noteNumber": 38,
				"velocity": 97,
				"subtype": "noteOn"
			},
			{
				"deltaTime": 60,
				"channel": 9,
				"type": "channel",
				"subtype": "noteOff",
				"noteNumber": 38,
				"velocity": 64
			},
			{
				"deltaTime": 42,
				"channel": 9,
				"type": "channel",
				"noteNumber": 36,
				"velocity": 109,
				"subtype": "noteOn"
			},
			{
				"deltaTime": 4,
				"channel": 9,
				"type": "channel",
				"noteNumber": 42,
				"velocity": 77,
				"subtype": "noteOn"
			},
			{
				"deltaTime": 56,
				"channel": 9,
				"type": "channel",
				"subtype": "noteOff",
				"noteNumber": 36,
				"velocity": 64
			},
			{
				"deltaTime": 4,
				"channel": 9,
				"type": "channel",
				"subtype": "noteOff",
				"noteNumber": 42,
				"velocity": 64
			},
			{
				"deltaTime": 186,
				"channel": 9,
				"type": "channel",
				"noteNumber": 36,
				"velocity": 99,
				"subtype": "noteOn"
			},
			{
				"deltaTime": 6,
				"channel": 9,
				"type": "channel",
				"noteNumber": 42,
				"velocity": 53,
				"subtype": "noteOn"
			},
			{
				"deltaTime": 54,
				"channel": 9,
				"type": "channel",
				"subtype": "noteOff",
				"noteNumber": 36,
				"velocity": 64
			},
			{
				"deltaTime": 6,
				"channel": 9,
				"type": "channel",
				"subtype": "noteOff",
				"noteNumber": 42,
				"velocity": 64
			},
			{
				"deltaTime": 172,
				"channel": 9,
				"type": "channel",
				"noteNumber": 38,
				"velocity": 115,
				"subtype": "noteOn"
			},
			{
				"deltaTime": 2,
				"channel": 9,
				"type": "channel",
				"noteNumber": 42,
				"velocity": 88,
				"subtype": "noteOn"
			},
			{
				"deltaTime": 58,
				"channel": 9,
				"type": "channel",
				"subtype": "noteOff",
				"noteNumber": 38,
				"velocity": 64
			},
			{
				"deltaTime": 2,
				"channel": 9,
				"type": "channel",
				"subtype": "noteOff",
				"noteNumber": 42,
				"velocity": 64
			},
			{
				"deltaTime": 186,
				"channel": 9,
				"type": "channel",
				"noteNumber": 42,
				"velocity": 45,
				"subtype": "noteOn"
			},
			{
				"deltaTime": 60,
				"channel": 9,
				"type": "channel",
				"subtype": "noteOff",
				"noteNumber": 42,
				"velocity": 64
			},
			{
				"deltaTime": 82,
				"channel": 9,
				"type": "channel",
				"noteNumber": 38,
				"velocity": 97,
				"subtype": "noteOn"
			},
			{
				"deltaTime": 60,
				"channel": 9,
				"type": "channel",
				"subtype": "noteOff",
				"noteNumber": 38,
				"velocity": 64
			},
			{
				"deltaTime": 28,
				"channel": 9,
				"type": "channel",
				"noteNumber": 42,
				"velocity": 73,
				"subtype": "noteOn"
			},
			{
				"deltaTime": 6,
				"channel": 9,
				"type": "channel",
				"noteNumber": 36,
				"velocity": 106,
				"subtype": "noteOn"
			},
			{
				"deltaTime": 54,
				"channel": 9,
				"type": "channel",
				"subtype": "noteOff",
				"noteNumber": 42,
				"velocity": 64
			},
			{
				"deltaTime": 6,
				"channel": 9,
				"type": "channel",
				"subtype": "noteOff",
				"noteNumber": 36,
				"velocity": 64
			},
			{
				"deltaTime": 188,
				"channel": 9,
				"type": "channel",
				"noteNumber": 42,
				"velocity": 53,
				"subtype": "noteOn"
			},
			{
				"deltaTime": 6,
				"channel": 9,
				"type": "channel",
				"noteNumber": 36,
				"velocity": 100,
				"subtype": "noteOn"
			},
			{
				"deltaTime": 54,
				"channel": 9,
				"type": "channel",
				"subtype": "noteOff",
				"noteNumber": 42,
				"velocity": 64
			},
			{
				"deltaTime": 6,
				"channel": 9,
				"type": "channel",
				"subtype": "noteOff",
				"noteNumber": 36,
				"velocity": 64
			},
			{
				"deltaTime": 158,
				"channel": 9,
				"type": "channel",
				"noteNumber": 38,
				"velocity": 118,
				"subtype": "noteOn"
			},
			{
				"deltaTime": 4,
				"channel": 9,
				"type": "channel",
				"noteNumber": 42,
				"velocity": 86,
				"subtype": "noteOn"
			},
			{
				"deltaTime": 56,
				"channel": 9,
				"type": "channel",
				"subtype": "noteOff",
				"noteNumber": 38,
				"velocity": 64
			},
			{
				"deltaTime": 4,
				"channel": 9,
				"type": "channel",
				"subtype": "noteOff",
				"noteNumber": 42,
				"velocity": 64
			},
			{
				"deltaTime": 174,
				"channel": 9,
				"type": "channel",
				"noteNumber": 42,
				"velocity": 51,
				"subtype": "noteOn"
			},
			{
				"deltaTime": 60,
				"channel": 9,
				"type": "channel",
				"subtype": "noteOff",
				"noteNumber": 42,
				"velocity": 64
			},
			{
				"deltaTime": 82,
				"channel": 9,
				"type": "channel",
				"noteNumber": 38,
				"velocity": 100,
				"subtype": "noteOn"
			},
			{
				"deltaTime": 60,
				"channel": 9,
				"type": "channel",
				"subtype": "noteOff",
				"noteNumber": 38,
				"velocity": 64
			},
			{
				"deltaTime": 34,
				"channel": 9,
				"type": "channel",
				"noteNumber": 36,
				"velocity": 111,
				"subtype": "noteOn"
			},
			{
				"deltaTime": 8,
				"channel": 9,
				"type": "channel",
				"noteNumber": 42,
				"velocity": 73,
				"subtype": "noteOn"
			},
			{
				"deltaTime": 52,
				"channel": 9,
				"type": "channel",
				"subtype": "noteOff",
				"noteNumber": 36,
				"velocity": 64
			},
			{
				"deltaTime": 8,
				"channel": 9,
				"type": "channel",
				"subtype": "noteOff",
				"noteNumber": 42,
				"velocity": 64
			},
			{
				"deltaTime": 184,
				"channel": 9,
				"type": "channel",
				"noteNumber": 36,
				"velocity": 106,
				"subtype": "noteOn"
			},
			{
				"deltaTime": 0,
				"channel": 9,
				"type": "channel",
				"noteNumber": 42,
				"velocity": 60,
				"subtype": "noteOn"
			},
			{
				"deltaTime": 60,
				"channel": 9,
				"type": "channel",
				"subtype": "noteOff",
				"noteNumber": 36,
				"velocity": 64
			},
			{
				"deltaTime": 0,
				"channel": 9,
				"type": "channel",
				"subtype": "noteOff",
				"noteNumber": 42,
				"velocity": 64
			},
			{
				"deltaTime": 170,
				"channel": 9,
				"type": "channel",
				"noteNumber": 38,
				"velocity": 112,
				"subtype": "noteOn"
			},
			{
				"deltaTime": 4,
				"channel": 9,
				"type": "channel",
				"noteNumber": 42,
				"velocity": 86,
				"subtype": "noteOn"
			},
			{
				"deltaTime": 56,
				"channel": 9,
				"type": "channel",
				"subtype": "noteOff",
				"noteNumber": 38,
				"velocity": 64
			},
			{
				"deltaTime": 4,
				"channel": 9,
				"type": "channel",
				"subtype": "noteOff",
				"noteNumber": 42,
				"velocity": 64
			},
			{
				"deltaTime": 172,
				"channel": 9,
				"type": "channel",
				"noteNumber": 42,
				"velocity": 48,
				"subtype": "noteOn"
			},
			{
				"deltaTime": 60,
				"channel": 9,
				"type": "channel",
				"subtype": "noteOff",
				"noteNumber": 42,
				"velocity": 64
			},
			{
				"deltaTime": 78,
				"channel": 9,
				"type": "channel",
				"noteNumber": 38,
				"velocity": 104,
				"subtype": "noteOn"
			},
			{
				"deltaTime": 60,
				"channel": 9,
				"type": "channel",
				"subtype": "noteOff",
				"noteNumber": 38,
				"velocity": 64
			},
			{
				"deltaTime": 50,
				"channel": 9,
				"type": "channel",
				"noteNumber": 36,
				"velocity": 101,
				"subtype": "noteOn"
			},
			{
				"deltaTime": 2,
				"channel": 9,
				"type": "channel",
				"noteNumber": 42,
				"velocity": 84,
				"subtype": "noteOn"
			},
			{
				"deltaTime": 58,
				"channel": 9,
				"type": "channel",
				"subtype": "noteOff",
				"noteNumber": 36,
				"velocity": 64
			},
			{
				"deltaTime": 2,
				"channel": 9,
				"type": "channel",
				"subtype": "noteOff",
				"noteNumber": 42,
				"velocity": 64
			},
			{
				"deltaTime": 190,
				"channel": 9,
				"type": "channel",
				"noteNumber": 36,
				"velocity": 102,
				"subtype": "noteOn"
			},
			{
				"deltaTime": 2,
				"channel": 9,
				"type": "channel",
				"noteNumber": 42,
				"velocity": 44,
				"subtype": "noteOn"
			},
			{
				"deltaTime": 58,
				"channel": 9,
				"type": "channel",
				"subtype": "noteOff",
				"noteNumber": 36,
				"velocity": 64
			},
			{
				"deltaTime": 2,
				"channel": 9,
				"type": "channel",
				"subtype": "noteOff",
				"noteNumber": 42,
				"velocity": 64
			},
			{
				"deltaTime": 166,
				"channel": 9,
				"type": "channel",
				"noteNumber": 38,
				"velocity": 113,
				"subtype": "noteOn"
			},
			{
				"deltaTime": 2,
				"channel": 9,
				"type": "channel",
				"noteNumber": 42,
				"velocity": 79,
				"subtype": "noteOn"
			},
			{
				"deltaTime": 58,
				"channel": 9,
				"type": "channel",
				"subtype": "noteOff",
				"noteNumber": 38,
				"velocity": 64
			},
			{
				"deltaTime": 2,
				"channel": 9,
				"type": "channel",
				"subtype": "noteOff",
				"noteNumber": 42,
				"velocity": 64
			},
			{
				"deltaTime": 172,
				"channel": 9,
				"type": "channel",
				"noteNumber": 42,
				"velocity": 48,
				"subtype": "noteOn"
			},
			{
				"deltaTime": 60,
				"channel": 9,
				"type": "channel",
				"subtype": "noteOff",
				"noteNumber": 42,
				"velocity": 64
			},
			{
				"deltaTime": 86,
				"channel": 9,
				"type": "channel",
				"noteNumber": 38,
				"velocity": 100,
				"subtype": "noteOn"
			},
			{
				"deltaTime": 60,
				"channel": 9,
				"type": "channel",
				"subtype": "noteOff",
				"noteNumber": 38,
				"velocity": 64
			},
			{
				"deltaTime": 36,
				"channel": 9,
				"type": "channel",
				"noteNumber": 42,
				"velocity": 73,
				"subtype": "noteOn"
			},
			{
				"deltaTime": 2,
				"channel": 9,
				"type": "channel",
				"noteNumber": 36,
				"velocity": 110,
				"subtype": "noteOn"
			},
			{
				"deltaTime": 58,
				"channel": 9,
				"type": "channel",
				"subtype": "noteOff",
				"noteNumber": 42,
				"velocity": 64
			},
			{
				"deltaTime": 2,
				"channel": 9,
				"type": "channel",
				"subtype": "noteOff",
				"noteNumber": 36,
				"velocity": 64
			},
			{
				"deltaTime": 190,
				"channel": 9,
				"type": "channel",
				"noteNumber": 36,
				"velocity": 103,
				"subtype": "noteOn"
			},
			{
				"deltaTime": 2,
				"channel": 9,
				"type": "channel",
				"noteNumber": 42,
				"velocity": 51,
				"subtype": "noteOn"
			},
			{
				"deltaTime": 58,
				"channel": 9,
				"type": "channel",
				"subtype": "noteOff",
				"noteNumber": 36,
				"velocity": 64
			},
			{
				"deltaTime": 2,
				"channel": 9,
				"type": "channel",
				"subtype": "noteOff",
				"noteNumber": 42,
				"velocity": 64
			},
			{
				"deltaTime": 168,
				"channel": 9,
				"type": "channel",
				"noteNumber": 38,
				"velocity": 119,
				"subtype": "noteOn"
			},
			{
				"deltaTime": 4,
				"channel": 9,
				"type": "channel",
				"noteNumber": 42,
				"velocity": 85,
				"subtype": "noteOn"
			},
			{
				"deltaTime": 56,
				"channel": 9,
				"type": "channel",
				"subtype": "noteOff",
				"noteNumber": 38,
				"velocity": 64
			},
			{
				"deltaTime": 4,
				"channel": 9,
				"type": "channel",
				"subtype": "noteOff",
				"noteNumber": 42,
				"velocity": 64
			},
			{
				"deltaTime": 178,
				"channel": 9,
				"type": "channel",
				"noteNumber": 42,
				"velocity": 53,
				"subtype": "noteOn"
			},
			{
				"deltaTime": 60,
				"channel": 9,
				"type": "channel",
				"subtype": "noteOff",
				"noteNumber": 42,
				"velocity": 64
			},
			{
				"deltaTime": 82,
				"channel": 9,
				"type": "channel",
				"noteNumber": 38,
				"velocity": 94,
				"subtype": "noteOn"
			},
			{
				"deltaTime": 60,
				"channel": 9,
				"type": "channel",
				"subtype": "noteOff",
				"noteNumber": 38,
				"velocity": 64
			},
			{
				"deltaTime": 36,
				"channel": 9,
				"type": "channel",
				"noteNumber": 42,
				"velocity": 69,
				"subtype": "noteOn"
			},
			{
				"deltaTime": 2,
				"channel": 9,
				"type": "channel",
				"noteNumber": 36,
				"velocity": 102,
				"subtype": "noteOn"
			},
			{
				"deltaTime": 58,
				"channel": 9,
				"type": "channel",
				"subtype": "noteOff",
				"noteNumber": 42,
				"velocity": 64
			},
			{
				"deltaTime": 2,
				"channel": 9,
				"type": "channel",
				"subtype": "noteOff",
				"noteNumber": 36,
				"velocity": 64
			},
			{
				"deltaTime": 186,
				"channel": 9,
				"type": "channel",
				"noteNumber": 36,
				"velocity": 98,
				"subtype": "noteOn"
			},
			{
				"deltaTime": 4,
				"channel": 9,
				"type": "channel",
				"noteNumber": 42,
				"velocity": 55,
				"subtype": "noteOn"
			},
			{
				"deltaTime": 56,
				"channel": 9,
				"type": "channel",
				"subtype": "noteOff",
				"noteNumber": 36,
				"velocity": 64
			},
			{
				"deltaTime": 4,
				"channel": 9,
				"type": "channel",
				"subtype": "noteOff",
				"noteNumber": 42,
				"velocity": 64
			},
			{
				"deltaTime": 170,
				"channel": 9,
				"type": "channel",
				"noteNumber": 38,
				"velocity": 114,
				"subtype": "noteOn"
			},
			{
				"deltaTime": 6,
				"channel": 9,
				"type": "channel",
				"noteNumber": 42,
				"velocity": 85,
				"subtype": "noteOn"
			},
			{
				"deltaTime": 54,
				"channel": 9,
				"type": "channel",
				"subtype": "noteOff",
				"noteNumber": 38,
				"velocity": 64
			},
			{
				"deltaTime": 6,
				"channel": 9,
				"type": "channel",
				"subtype": "noteOff",
				"noteNumber": 42,
				"velocity": 64
			},
			{
				"deltaTime": 174,
				"channel": 9,
				"type": "channel",
				"noteNumber": 42,
				"velocity": 48,
				"subtype": "noteOn"
			},
			{
				"deltaTime": 60,
				"channel": 9,
				"type": "channel",
				"subtype": "noteOff",
				"noteNumber": 42,
				"velocity": 64
			},
			{
				"deltaTime": 74,
				"channel": 9,
				"type": "channel",
				"noteNumber": 38,
				"velocity": 93,
				"subtype": "noteOn"
			},
			{
				"deltaTime": 60,
				"channel": 9,
				"type": "channel",
				"subtype": "noteOff",
				"noteNumber": 38,
				"velocity": 64
			},
			{
				"deltaTime": 36,
				"channel": 9,
				"type": "channel",
				"noteNumber": 42,
				"velocity": 81,
				"subtype": "noteOn"
			},
			{
				"deltaTime": 2,
				"channel": 9,
				"type": "channel",
				"noteNumber": 36,
				"velocity": 111,
				"subtype": "noteOn"
			},
			{
				"deltaTime": 58,
				"channel": 9,
				"type": "channel",
				"subtype": "noteOff",
				"noteNumber": 42,
				"velocity": 64
			},
			{
				"deltaTime": 2,
				"channel": 9,
				"type": "channel",
				"subtype": "noteOff",
				"noteNumber": 36,
				"velocity": 64
			},
			{
				"deltaTime": 190,
				"channel": 9,
				"type": "channel",
				"noteNumber": 36,
				"velocity": 100,
				"subtype": "noteOn"
			},
			{
				"deltaTime": 2,
				"channel": 9,
				"type": "channel",
				"noteNumber": 42,
				"velocity": 69,
				"subtype": "noteOn"
			},
			{
				"deltaTime": 58,
				"channel": 9,
				"type": "channel",
				"subtype": "noteOff",
				"noteNumber": 36,
				"velocity": 64
			},
			{
				"deltaTime": 2,
				"channel": 9,
				"type": "channel",
				"subtype": "noteOff",
				"noteNumber": 42,
				"velocity": 64
			},
			{
				"deltaTime": 168,
				"channel": 9,
				"type": "channel",
				"noteNumber": 38,
				"velocity": 116,
				"subtype": "noteOn"
			},
			{
				"deltaTime": 6,
				"channel": 9,
				"type": "channel",
				"noteNumber": 42,
				"velocity": 102,
				"subtype": "noteOn"
			},
			{
				"deltaTime": 54,
				"channel": 9,
				"type": "channel",
				"subtype": "noteOff",
				"noteNumber": 38,
				"velocity": 64
			},
			{
				"deltaTime": 6,
				"channel": 9,
				"type": "channel",
				"subtype": "noteOff",
				"noteNumber": 42,
				"velocity": 64
			},
			{
				"deltaTime": 172,
				"channel": 9,
				"type": "channel",
				"noteNumber": 42,
				"velocity": 54,
				"subtype": "noteOn"
			},
			{
				"deltaTime": 60,
				"channel": 9,
				"type": "channel",
				"subtype": "noteOff",
				"noteNumber": 42,
				"velocity": 64
			},
			{
				"deltaTime": 74,
				"channel": 9,
				"type": "channel",
				"noteNumber": 38,
				"velocity": 102,
				"subtype": "noteOn"
			},
			{
				"deltaTime": 60,
				"channel": 9,
				"type": "channel",
				"subtype": "noteOff",
				"noteNumber": 38,
				"velocity": 64
			},
			{
				"deltaTime": 48,
				"channel": 9,
				"type": "channel",
				"noteNumber": 36,
				"velocity": 106,
				"subtype": "noteOn"
			},
			{
				"deltaTime": 2,
				"channel": 9,
				"type": "channel",
				"noteNumber": 42,
				"velocity": 81,
				"subtype": "noteOn"
			},
			{
				"deltaTime": 58,
				"channel": 9,
				"type": "channel",
				"subtype": "noteOff",
				"noteNumber": 36,
				"velocity": 64
			},
			{
				"deltaTime": 2,
				"channel": 9,
				"type": "channel",
				"subtype": "noteOff",
				"noteNumber": 42,
				"velocity": 64
			},
			{
				"deltaTime": 186,
				"channel": 9,
				"type": "channel",
				"noteNumber": 38,
				"velocity": 108,
				"subtype": "noteOn"
			},
			{
				"deltaTime": 4,
				"channel": 9,
				"type": "channel",
				"noteNumber": 43,
				"velocity": 93,
				"subtype": "noteOn"
			},
			{
				"deltaTime": 56,
				"channel": 9,
				"type": "channel",
				"subtype": "noteOff",
				"noteNumber": 38,
				"velocity": 64
			},
			{
				"deltaTime": 4,
				"channel": 9,
				"type": "channel",
				"subtype": "noteOff",
				"noteNumber": 43,
				"velocity": 64
			},
			{
				"deltaTime": 168,
				"channel": 9,
				"type": "channel",
				"noteNumber": 38,
				"velocity": 118,
				"subtype": "noteOn"
			},
			{
				"deltaTime": 6,
				"channel": 9,
				"type": "channel",
				"noteNumber": 43,
				"velocity": 108,
				"subtype": "noteOn"
			},
			{
				"deltaTime": 54,
				"channel": 9,
				"type": "channel",
				"subtype": "noteOff",
				"noteNumber": 38,
				"velocity": 64
			},
			{
				"deltaTime": 6,
				"channel": 9,
				"type": "channel",
				"subtype": "noteOff",
				"noteNumber": 43,
				"velocity": 64
			},
			{
				"deltaTime": 178,
				"channel": 9,
				"type": "channel",
				"noteNumber": 43,
				"velocity": 117,
				"subtype": "noteOn"
			},
			{
				"deltaTime": 4,
				"channel": 9,
				"type": "channel",
				"noteNumber": 38,
				"velocity": 122,
				"subtype": "noteOn"
			},
			{
				"deltaTime": 56,
				"channel": 9,
				"type": "channel",
				"subtype": "noteOff",
				"noteNumber": 43,
				"velocity": 64
			},
			{
				"deltaTime": 4,
				"channel": 9,
				"type": "channel",
				"subtype": "noteOff",
				"noteNumber": 38,
				"velocity": 64
			},
			{
				"deltaTime": 176,
				"channel": 9,
				"type": "channel",
				"noteNumber": 36,
				"velocity": 111,
				"subtype": "noteOn"
			},
			{
				"deltaTime": 0,
				"channel": 9,
				"type": "channel",
				"noteNumber": 42,
				"velocity": 86,
				"subtype": "noteOn"
			},
			{
				"deltaTime": 60,
				"channel": 9,
				"type": "channel",
				"subtype": "noteOff",
				"noteNumber": 36,
				"velocity": 64
			},
			{
				"deltaTime": 0,
				"channel": 9,
				"type": "channel",
				"subtype": "noteOff",
				"noteNumber": 42,
				"velocity": 64
			},
			{
				"deltaTime": 200,
				"channel": 9,
				"type": "channel",
				"noteNumber": 36,
				"velocity": 100,
				"subtype": "noteOn"
			},
			{
				"deltaTime": 0,
				"channel": 9,
				"type": "channel",
				"noteNumber": 42,
				"velocity": 51,
				"subtype": "noteOn"
			},
			{
				"deltaTime": 60,
				"channel": 9,
				"type": "channel",
				"subtype": "noteOff",
				"noteNumber": 36,
				"velocity": 64
			},
			{
				"deltaTime": 0,
				"channel": 9,
				"type": "channel",
				"subtype": "noteOff",
				"noteNumber": 42,
				"velocity": 64
			},
			{
				"deltaTime": 166,
				"channel": 9,
				"type": "channel",
				"noteNumber": 38,
				"velocity": 121,
				"subtype": "noteOn"
			},
			{
				"deltaTime": 4,
				"channel": 9,
				"type": "channel",
				"noteNumber": 42,
				"velocity": 73,
				"subtype": "noteOn"
			},
			{
				"deltaTime": 56,
				"channel": 9,
				"type": "channel",
				"subtype": "noteOff",
				"noteNumber": 38,
				"velocity": 64
			},
			{
				"deltaTime": 4,
				"channel": 9,
				"type": "channel",
				"subtype": "noteOff",
				"noteNumber": 42,
				"velocity": 64
			},
			{
				"deltaTime": 174,
				"channel": 9,
				"type": "channel",
				"noteNumber": 42,
				"velocity": 50,
				"subtype": "noteOn"
			},
			{
				"deltaTime": 60,
				"channel": 9,
				"type": "channel",
				"subtype": "noteOff",
				"noteNumber": 42,
				"velocity": 64
			},
			{
				"deltaTime": 84,
				"channel": 9,
				"type": "channel",
				"noteNumber": 38,
				"velocity": 102,
				"subtype": "noteOn"
			},
			{
				"deltaTime": 60,
				"channel": 9,
				"type": "channel",
				"subtype": "noteOff",
				"noteNumber": 38,
				"velocity": 64
			},
			{
				"deltaTime": 32,
				"channel": 9,
				"type": "channel",
				"noteNumber": 42,
				"velocity": 75,
				"subtype": "noteOn"
			},
			{
				"deltaTime": 6,
				"channel": 9,
				"type": "channel",
				"noteNumber": 36,
				"velocity": 103,
				"subtype": "noteOn"
			},
			{
				"deltaTime": 54,
				"channel": 9,
				"type": "channel",
				"subtype": "noteOff",
				"noteNumber": 42,
				"velocity": 64
			},
			{
				"deltaTime": 6,
				"channel": 9,
				"type": "channel",
				"subtype": "noteOff",
				"noteNumber": 36,
				"velocity": 64
			},
			{
				"deltaTime": 192,
				"channel": 9,
				"type": "channel",
				"noteNumber": 36,
				"velocity": 99,
				"subtype": "noteOn"
			},
			{
				"deltaTime": 0,
				"channel": 9,
				"type": "channel",
				"noteNumber": 42,
				"velocity": 60,
				"subtype": "noteOn"
			},
			{
				"deltaTime": 60,
				"channel": 9,
				"type": "channel",
				"subtype": "noteOff",
				"noteNumber": 36,
				"velocity": 64
			},
			{
				"deltaTime": 0,
				"channel": 9,
				"type": "channel",
				"subtype": "noteOff",
				"noteNumber": 42,
				"velocity": 64
			},
			{
				"deltaTime": 164,
				"channel": 9,
				"type": "channel",
				"noteNumber": 38,
				"velocity": 118,
				"subtype": "noteOn"
			},
			{
				"deltaTime": 4,
				"channel": 9,
				"type": "channel",
				"noteNumber": 42,
				"velocity": 74,
				"subtype": "noteOn"
			},
			{
				"deltaTime": 56,
				"channel": 9,
				"type": "channel",
				"subtype": "noteOff",
				"noteNumber": 38,
				"velocity": 64
			},
			{
				"deltaTime": 4,
				"channel": 9,
				"type": "channel",
				"subtype": "noteOff",
				"noteNumber": 42,
				"velocity": 64
			},
			{
				"deltaTime": 176,
				"channel": 9,
				"type": "channel",
				"noteNumber": 42,
				"velocity": 55,
				"subtype": "noteOn"
			},
			{
				"deltaTime": 60,
				"channel": 9,
				"type": "channel",
				"subtype": "noteOff",
				"noteNumber": 42,
				"velocity": 64
			},
			{
				"deltaTime": 88,
				"channel": 9,
				"type": "channel",
				"noteNumber": 38,
				"velocity": 104,
				"subtype": "noteOn"
			},
			{
				"deltaTime": 60,
				"channel": 9,
				"type": "channel",
				"subtype": "noteOff",
				"noteNumber": 38,
				"velocity": 64
			},
			{
				"deltaTime": 28,
				"channel": 9,
				"type": "channel",
				"noteNumber": 36,
				"velocity": 105,
				"subtype": "noteOn"
			},
			{
				"deltaTime": 2,
				"channel": 9,
				"type": "channel",
				"noteNumber": 42,
				"velocity": 78,
				"subtype": "noteOn"
			},
			{
				"deltaTime": 58,
				"channel": 9,
				"type": "channel",
				"subtype": "noteOff",
				"noteNumber": 36,
				"velocity": 64
			},
			{
				"deltaTime": 2,
				"channel": 9,
				"type": "channel",
				"subtype": "noteOff",
				"noteNumber": 42,
				"velocity": 64
			},
			{
				"deltaTime": 194,
				"channel": 9,
				"type": "channel",
				"noteNumber": 42,
				"velocity": 54,
				"subtype": "noteOn"
			},
			{
				"deltaTime": 6,
				"channel": 9,
				"type": "channel",
				"noteNumber": 36,
				"velocity": 100,
				"subtype": "noteOn"
			},
			{
				"deltaTime": 54,
				"channel": 9,
				"type": "channel",
				"subtype": "noteOff",
				"noteNumber": 42,
				"velocity": 64
			},
			{
				"deltaTime": 6,
				"channel": 9,
				"type": "channel",
				"subtype": "noteOff",
				"noteNumber": 36,
				"velocity": 64
			},
			{
				"deltaTime": 162,
				"channel": 9,
				"type": "channel",
				"noteNumber": 38,
				"velocity": 104,
				"subtype": "noteOn"
			},
			{
				"deltaTime": 6,
				"channel": 9,
				"type": "channel",
				"noteNumber": 42,
				"velocity": 83,
				"subtype": "noteOn"
			},
			{
				"deltaTime": 54,
				"channel": 9,
				"type": "channel",
				"subtype": "noteOff",
				"noteNumber": 38,
				"velocity": 64
			},
			{
				"deltaTime": 6,
				"channel": 9,
				"type": "channel",
				"subtype": "noteOff",
				"noteNumber": 42,
				"velocity": 64
			},
			{
				"deltaTime": 168,
				"channel": 9,
				"type": "channel",
				"noteNumber": 42,
				"velocity": 51,
				"subtype": "noteOn"
			},
			{
				"deltaTime": 60,
				"channel": 9,
				"type": "channel",
				"subtype": "noteOff",
				"noteNumber": 42,
				"velocity": 64
			},
			{
				"deltaTime": 88,
				"channel": 9,
				"type": "channel",
				"noteNumber": 38,
				"velocity": 91,
				"subtype": "noteOn"
			},
			{
				"deltaTime": 60,
				"channel": 9,
				"type": "channel",
				"subtype": "noteOff",
				"noteNumber": 38,
				"velocity": 64
			},
			{
				"deltaTime": 38,
				"channel": 9,
				"type": "channel",
				"noteNumber": 42,
				"velocity": 77,
				"subtype": "noteOn"
			},
			{
				"deltaTime": 2,
				"channel": 9,
				"type": "channel",
				"noteNumber": 36,
				"velocity": 101,
				"subtype": "noteOn"
			},
			{
				"deltaTime": 58,
				"channel": 9,
				"type": "channel",
				"subtype": "noteOff",
				"noteNumber": 42,
				"velocity": 64
			},
			{
				"deltaTime": 2,
				"channel": 9,
				"type": "channel",
				"subtype": "noteOff",
				"noteNumber": 36,
				"velocity": 64
			},
			{
				"deltaTime": 192,
				"channel": 9,
				"type": "channel",
				"noteNumber": 42,
				"velocity": 64,
				"subtype": "noteOn"
			},
			{
				"deltaTime": 14,
				"channel": 9,
				"type": "channel",
				"noteNumber": 36,
				"velocity": 99,
				"subtype": "noteOn"
			},
			{
				"deltaTime": 46,
				"channel": 9,
				"type": "channel",
				"subtype": "noteOff",
				"noteNumber": 42,
				"velocity": 64
			},
			{
				"deltaTime": 14,
				"channel": 9,
				"type": "channel",
				"subtype": "noteOff",
				"noteNumber": 36,
				"velocity": 64
			},
			{
				"deltaTime": 156,
				"channel": 9,
				"type": "channel",
				"noteNumber": 38,
				"velocity": 117,
				"subtype": "noteOn"
			},
			{
				"deltaTime": 6,
				"channel": 9,
				"type": "channel",
				"noteNumber": 42,
				"velocity": 95,
				"subtype": "noteOn"
			},
			{
				"deltaTime": 54,
				"channel": 9,
				"type": "channel",
				"subtype": "noteOff",
				"noteNumber": 38,
				"velocity": 64
			},
			{
				"deltaTime": 6,
				"channel": 9,
				"type": "channel",
				"subtype": "noteOff",
				"noteNumber": 42,
				"velocity": 64
			},
			{
				"deltaTime": 170,
				"channel": 9,
				"type": "channel",
				"noteNumber": 42,
				"velocity": 51,
				"subtype": "noteOn"
			},
			{
				"deltaTime": 60,
				"channel": 9,
				"type": "channel",
				"subtype": "noteOff",
				"noteNumber": 42,
				"velocity": 64
			},
			{
				"deltaTime": 80,
				"channel": 9,
				"type": "channel",
				"noteNumber": 38,
				"velocity": 99,
				"subtype": "noteOn"
			},
			{
				"deltaTime": 60,
				"channel": 9,
				"type": "channel",
				"subtype": "noteOff",
				"noteNumber": 38,
				"velocity": 64
			},
			{
				"deltaTime": 38,
				"channel": 9,
				"type": "channel",
				"noteNumber": 36,
				"velocity": 108,
				"subtype": "noteOn"
			},
			{
				"deltaTime": 4,
				"channel": 9,
				"type": "channel",
				"noteNumber": 42,
				"velocity": 71,
				"subtype": "noteOn"
			},
			{
				"deltaTime": 56,
				"channel": 9,
				"type": "channel",
				"subtype": "noteOff",
				"noteNumber": 36,
				"velocity": 64
			},
			{
				"deltaTime": 4,
				"channel": 9,
				"type": "channel",
				"subtype": "noteOff",
				"noteNumber": 42,
				"velocity": 64
			},
			{
				"deltaTime": 188,
				"channel": 9,
				"type": "channel",
				"noteNumber": 42,
				"velocity": 54,
				"subtype": "noteOn"
			},
			{
				"deltaTime": 2,
				"channel": 9,
				"type": "channel",
				"noteNumber": 36,
				"velocity": 98,
				"subtype": "noteOn"
			},
			{
				"deltaTime": 58,
				"channel": 9,
				"type": "channel",
				"subtype": "noteOff",
				"noteNumber": 42,
				"velocity": 64
			},
			{
				"deltaTime": 2,
				"channel": 9,
				"type": "channel",
				"subtype": "noteOff",
				"noteNumber": 36,
				"velocity": 64
			},
			{
				"deltaTime": 170,
				"channel": 9,
				"type": "channel",
				"noteNumber": 38,
				"velocity": 119,
				"subtype": "noteOn"
			},
			{
				"deltaTime": 0,
				"channel": 9,
				"type": "channel",
				"noteNumber": 42,
				"velocity": 63,
				"subtype": "noteOn"
			},
			{
				"deltaTime": 60,
				"channel": 9,
				"type": "channel",
				"subtype": "noteOff",
				"noteNumber": 38,
				"velocity": 64
			},
			{
				"deltaTime": 0,
				"channel": 9,
				"type": "channel",
				"subtype": "noteOff",
				"noteNumber": 42,
				"velocity": 64
			},
			{
				"deltaTime": 172,
				"channel": 9,
				"type": "channel",
				"noteNumber": 42,
				"velocity": 54,
				"subtype": "noteOn"
			},
			{
				"deltaTime": 60,
				"channel": 9,
				"type": "channel",
				"subtype": "noteOff",
				"noteNumber": 42,
				"velocity": 64
			},
			{
				"deltaTime": 84,
				"channel": 9,
				"type": "channel",
				"noteNumber": 38,
				"velocity": 95,
				"subtype": "noteOn"
			},
			{
				"deltaTime": 60,
				"channel": 9,
				"type": "channel",
				"subtype": "noteOff",
				"noteNumber": 38,
				"velocity": 64
			},
			{
				"deltaTime": 40,
				"channel": 9,
				"type": "channel",
				"noteNumber": 36,
				"velocity": 104,
				"subtype": "noteOn"
			},
			{
				"deltaTime": 2,
				"channel": 9,
				"type": "channel",
				"noteNumber": 42,
				"velocity": 75,
				"subtype": "noteOn"
			},
			{
				"deltaTime": 58,
				"channel": 9,
				"type": "channel",
				"subtype": "noteOff",
				"noteNumber": 36,
				"velocity": 64
			},
			{
				"deltaTime": 2,
				"channel": 9,
				"type": "channel",
				"subtype": "noteOff",
				"noteNumber": 42,
				"velocity": 64
			},
			{
				"deltaTime": 186,
				"channel": 9,
				"type": "channel",
				"noteNumber": 42,
				"velocity": 61,
				"subtype": "noteOn"
			},
			{
				"deltaTime": 8,
				"channel": 9,
				"type": "channel",
				"noteNumber": 36,
				"velocity": 99,
				"subtype": "noteOn"
			},
			{
				"deltaTime": 52,
				"channel": 9,
				"type": "channel",
				"subtype": "noteOff",
				"noteNumber": 42,
				"velocity": 64
			},
			{
				"deltaTime": 8,
				"channel": 9,
				"type": "channel",
				"subtype": "noteOff",
				"noteNumber": 36,
				"velocity": 64
			},
			{
				"deltaTime": 162,
				"channel": 9,
				"type": "channel",
				"noteNumber": 38,
				"velocity": 114,
				"subtype": "noteOn"
			},
			{
				"deltaTime": 8,
				"channel": 9,
				"type": "channel",
				"noteNumber": 42,
				"velocity": 69,
				"subtype": "noteOn"
			},
			{
				"deltaTime": 52,
				"channel": 9,
				"type": "channel",
				"subtype": "noteOff",
				"noteNumber": 38,
				"velocity": 64
			},
			{
				"deltaTime": 8,
				"channel": 9,
				"type": "channel",
				"subtype": "noteOff",
				"noteNumber": 42,
				"velocity": 64
			},
			{
				"deltaTime": 170,
				"channel": 9,
				"type": "channel",
				"noteNumber": 42,
				"velocity": 50,
				"subtype": "noteOn"
			},
			{
				"deltaTime": 60,
				"channel": 9,
				"type": "channel",
				"subtype": "noteOff",
				"noteNumber": 42,
				"velocity": 64
			},
			{
				"deltaTime": 80,
				"channel": 9,
				"type": "channel",
				"noteNumber": 38,
				"velocity": 105,
				"subtype": "noteOn"
			},
			{
				"deltaTime": 60,
				"channel": 9,
				"type": "channel",
				"subtype": "noteOff",
				"noteNumber": 38,
				"velocity": 64
			},
			{
				"deltaTime": 36,
				"channel": 9,
				"type": "channel",
				"noteNumber": 36,
				"velocity": 112,
				"subtype": "noteOn"
			},
			{
				"deltaTime": 6,
				"channel": 9,
				"type": "channel",
				"noteNumber": 42,
				"velocity": 83,
				"subtype": "noteOn"
			},
			{
				"deltaTime": 54,
				"channel": 9,
				"type": "channel",
				"subtype": "noteOff",
				"noteNumber": 36,
				"velocity": 64
			},
			{
				"deltaTime": 6,
				"channel": 9,
				"type": "channel",
				"subtype": "noteOff",
				"noteNumber": 42,
				"velocity": 64
			},
			{
				"deltaTime": 180,
				"channel": 9,
				"type": "channel",
				"noteNumber": 36,
				"velocity": 104,
				"subtype": "noteOn"
			},
			{
				"deltaTime": 0,
				"channel": 9,
				"type": "channel",
				"noteNumber": 42,
				"velocity": 51,
				"subtype": "noteOn"
			},
			{
				"deltaTime": 60,
				"channel": 9,
				"type": "channel",
				"subtype": "noteOff",
				"noteNumber": 36,
				"velocity": 64
			},
			{
				"deltaTime": 0,
				"channel": 9,
				"type": "channel",
				"subtype": "noteOff",
				"noteNumber": 42,
				"velocity": 64
			},
			{
				"deltaTime": 176,
				"channel": 9,
				"type": "channel",
				"noteNumber": 38,
				"velocity": 120,
				"subtype": "noteOn"
			},
			{
				"deltaTime": 6,
				"channel": 9,
				"type": "channel",
				"noteNumber": 42,
				"velocity": 85,
				"subtype": "noteOn"
			},
			{
				"deltaTime": 54,
				"channel": 9,
				"type": "channel",
				"subtype": "noteOff",
				"noteNumber": 38,
				"velocity": 64
			},
			{
				"deltaTime": 6,
				"channel": 9,
				"type": "channel",
				"subtype": "noteOff",
				"noteNumber": 42,
				"velocity": 64
			},
			{
				"deltaTime": 182,
				"channel": 9,
				"type": "channel",
				"noteNumber": 42,
				"velocity": 50,
				"subtype": "noteOn"
			},
			{
				"deltaTime": 60,
				"channel": 9,
				"type": "channel",
				"subtype": "noteOff",
				"noteNumber": 42,
				"velocity": 64
			},
			{
				"deltaTime": 64,
				"channel": 9,
				"type": "channel",
				"noteNumber": 38,
				"velocity": 110,
				"subtype": "noteOn"
			},
			{
				"deltaTime": 60,
				"channel": 9,
				"type": "channel",
				"subtype": "noteOff",
				"noteNumber": 38,
				"velocity": 64
			},
			{
				"deltaTime": 50,
				"channel": 9,
				"type": "channel",
				"noteNumber": 36,
				"velocity": 96,
				"subtype": "noteOn"
			},
			{
				"deltaTime": 6,
				"channel": 9,
				"type": "channel",
				"noteNumber": 48,
				"velocity": 120,
				"subtype": "noteOn"
			},
			{
				"deltaTime": 54,
				"channel": 9,
				"type": "channel",
				"subtype": "noteOff",
				"noteNumber": 36,
				"velocity": 64
			},
			{
				"deltaTime": 6,
				"channel": 9,
				"type": "channel",
				"subtype": "noteOff",
				"noteNumber": 48,
				"velocity": 64
			},
			{
				"deltaTime": 28,
				"channel": 9,
				"type": "channel",
				"noteNumber": 38,
				"velocity": 71,
				"subtype": "noteOn"
			},
			{
				"deltaTime": 54,
				"channel": 9,
				"type": "channel",
				"noteNumber": 38,
				"velocity": 59,
				"subtype": "noteOn"
			},
			{
				"deltaTime": 6,
				"channel": 9,
				"type": "channel",
				"subtype": "noteOff",
				"noteNumber": 38,
				"velocity": 64
			},
			{
				"deltaTime": 54,
				"channel": 9,
				"type": "channel",
				"subtype": "noteOff",
				"noteNumber": 38,
				"velocity": 64
			},
			{
				"deltaTime": 22,
				"channel": 9,
				"type": "channel",
				"noteNumber": 36,
				"velocity": 83,
				"subtype": "noteOn"
			},
			{
				"deltaTime": 4,
				"channel": 9,
				"type": "channel",
				"noteNumber": 38,
				"velocity": 120,
				"subtype": "noteOn"
			},
			{
				"deltaTime": 56,
				"channel": 9,
				"type": "channel",
				"subtype": "noteOff",
				"noteNumber": 36,
				"velocity": 64
			},
			{
				"deltaTime": 4,
				"channel": 9,
				"type": "channel",
				"subtype": "noteOff",
				"noteNumber": 38,
				"velocity": 64
			},
			{
				"deltaTime": 66,
				"channel": 9,
				"type": "channel",
				"noteNumber": 38,
				"velocity": 125,
				"subtype": "noteOn"
			},
			{
				"deltaTime": 60,
				"channel": 9,
				"type": "channel",
				"subtype": "noteOff",
				"noteNumber": 38,
				"velocity": 64
			},
			{
				"deltaTime": 42,
				"channel": 9,
				"type": "channel",
				"noteNumber": 36,
				"velocity": 110,
				"subtype": "noteOn"
			},
			{
				"deltaTime": 60,
				"channel": 9,
				"type": "channel",
				"subtype": "noteOff",
				"noteNumber": 36,
				"velocity": 64
			},
			{
				"deltaTime": 80,
				"channel": 9,
				"type": "channel",
				"noteNumber": 38,
				"velocity": 122,
				"subtype": "noteOn"
			},
			{
				"deltaTime": 60,
				"channel": 9,
				"type": "channel",
				"subtype": "noteOff",
				"noteNumber": 38,
				"velocity": 64
			},
			{
				"deltaTime": 52,
				"channel": 9,
				"type": "channel",
				"noteNumber": 36,
				"velocity": 74,
				"subtype": "noteOn"
			},
			{
				"deltaTime": 2,
				"channel": 9,
				"type": "channel",
				"noteNumber": 43,
				"velocity": 125,
				"subtype": "noteOn"
			},
			{
				"deltaTime": 58,
				"channel": 9,
				"type": "channel",
				"subtype": "noteOff",
				"noteNumber": 36,
				"velocity": 64
			},
			{
				"deltaTime": 2,
				"channel": 9,
				"type": "channel",
				"subtype": "noteOff",
				"noteNumber": 43,
				"velocity": 64
			},
			{
				"deltaTime": 48,
				"channel": 9,
				"type": "channel",
				"noteNumber": 43,
				"velocity": 117,
				"subtype": "noteOn"
			},
			{
				"deltaTime": 60,
				"channel": 9,
				"type": "channel",
				"subtype": "noteOff",
				"noteNumber": 43,
				"velocity": 64
			},
			{
				"deltaTime": 161348,
				"channel": 9,
				"type": "channel",
				"noteNumber": 36,
				"velocity": 116,
				"subtype": "noteOn"
			},
			{
				"deltaTime": 0,
				"channel": 9,
				"type": "channel",
				"noteNumber": 57,
				"velocity": 127,
				"subtype": "noteOn"
			},
			{
				"deltaTime": 60,
				"channel": 9,
				"type": "channel",
				"subtype": "noteOff",
				"noteNumber": 36,
				"velocity": 64
			},
			{
				"deltaTime": 0,
				"channel": 9,
				"type": "channel",
				"subtype": "noteOff",
				"noteNumber": 57,
				"velocity": 64
			},
			{
				"deltaTime": 194,
				"channel": 9,
				"type": "channel",
				"noteNumber": 51,
				"velocity": 69,
				"subtype": "noteOn"
			},
			{
				"deltaTime": 8,
				"channel": 9,
				"type": "channel",
				"noteNumber": 36,
				"velocity": 107,
				"subtype": "noteOn"
			},
			{
				"deltaTime": 52,
				"channel": 9,
				"type": "channel",
				"subtype": "noteOff",
				"noteNumber": 51,
				"velocity": 64
			},
			{
				"deltaTime": 8,
				"channel": 9,
				"type": "channel",
				"subtype": "noteOff",
				"noteNumber": 36,
				"velocity": 64
			},
			{
				"deltaTime": 164,
				"channel": 9,
				"type": "channel",
				"noteNumber": 38,
				"velocity": 116,
				"subtype": "noteOn"
			},
			{
				"deltaTime": 6,
				"channel": 9,
				"type": "channel",
				"noteNumber": 51,
				"velocity": 83,
				"subtype": "noteOn"
			},
			{
				"deltaTime": 54,
				"channel": 9,
				"type": "channel",
				"subtype": "noteOff",
				"noteNumber": 38,
				"velocity": 64
			},
			{
				"deltaTime": 6,
				"channel": 9,
				"type": "channel",
				"subtype": "noteOff",
				"noteNumber": 51,
				"velocity": 64
			},
			{
				"deltaTime": 180,
				"channel": 9,
				"type": "channel",
				"noteNumber": 36,
				"velocity": 89,
				"subtype": "noteOn"
			},
			{
				"deltaTime": 2,
				"channel": 9,
				"type": "channel",
				"noteNumber": 51,
				"velocity": 60,
				"subtype": "noteOn"
			},
			{
				"deltaTime": 58,
				"channel": 9,
				"type": "channel",
				"subtype": "noteOff",
				"noteNumber": 36,
				"velocity": 64
			},
			{
				"deltaTime": 2,
				"channel": 9,
				"type": "channel",
				"subtype": "noteOff",
				"noteNumber": 51,
				"velocity": 64
			},
			{
				"deltaTime": 168,
				"channel": 9,
				"type": "channel",
				"noteNumber": 38,
				"velocity": 120,
				"subtype": "noteOn"
			},
			{
				"deltaTime": 8,
				"channel": 9,
				"type": "channel",
				"noteNumber": 51,
				"velocity": 87,
				"subtype": "noteOn"
			},
			{
				"deltaTime": 52,
				"channel": 9,
				"type": "channel",
				"subtype": "noteOff",
				"noteNumber": 38,
				"velocity": 64
			},
			{
				"deltaTime": 8,
				"channel": 9,
				"type": "channel",
				"subtype": "noteOff",
				"noteNumber": 51,
				"velocity": 64
			},
			{
				"deltaTime": 176,
				"channel": 9,
				"type": "channel",
				"noteNumber": 36,
				"velocity": 99,
				"subtype": "noteOn"
			},
			{
				"deltaTime": 8,
				"channel": 9,
				"type": "channel",
				"noteNumber": 51,
				"velocity": 67,
				"subtype": "noteOn"
			},
			{
				"deltaTime": 52,
				"channel": 9,
				"type": "channel",
				"subtype": "noteOff",
				"noteNumber": 36,
				"velocity": 64
			},
			{
				"deltaTime": 8,
				"channel": 9,
				"type": "channel",
				"subtype": "noteOff",
				"noteNumber": 51,
				"velocity": 64
			},
			{
				"deltaTime": 170,
				"channel": 9,
				"type": "channel",
				"noteNumber": 51,
				"velocity": 95,
				"subtype": "noteOn"
			},
			{
				"deltaTime": 2,
				"channel": 9,
				"type": "channel",
				"noteNumber": 38,
				"velocity": 113,
				"subtype": "noteOn"
			},
			{
				"deltaTime": 58,
				"channel": 9,
				"type": "channel",
				"subtype": "noteOff",
				"noteNumber": 51,
				"velocity": 64
			},
			{
				"deltaTime": 2,
				"channel": 9,
				"type": "channel",
				"subtype": "noteOff",
				"noteNumber": 38,
				"velocity": 64
			},
			{
				"deltaTime": 176,
				"channel": 9,
				"type": "channel",
				"noteNumber": 36,
				"velocity": 89,
				"subtype": "noteOn"
			},
			{
				"deltaTime": 6,
				"channel": 9,
				"type": "channel",
				"noteNumber": 51,
				"velocity": 61,
				"subtype": "noteOn"
			},
			{
				"deltaTime": 54,
				"channel": 9,
				"type": "channel",
				"subtype": "noteOff",
				"noteNumber": 36,
				"velocity": 64
			},
			{
				"deltaTime": 6,
				"channel": 9,
				"type": "channel",
				"subtype": "noteOff",
				"noteNumber": 51,
				"velocity": 64
			},
			{
				"deltaTime": 178,
				"channel": 9,
				"type": "channel",
				"noteNumber": 38,
				"velocity": 120,
				"subtype": "noteOn"
			},
			{
				"deltaTime": 0,
				"channel": 9,
				"type": "channel",
				"noteNumber": 51,
				"velocity": 97,
				"subtype": "noteOn"
			},
			{
				"deltaTime": 60,
				"channel": 9,
				"type": "channel",
				"subtype": "noteOff",
				"noteNumber": 38,
				"velocity": 64
			},
			{
				"deltaTime": 0,
				"channel": 9,
				"type": "channel",
				"subtype": "noteOff",
				"noteNumber": 51,
				"velocity": 64
			},
			{
				"deltaTime": 184,
				"channel": 9,
				"type": "channel",
				"noteNumber": 36,
				"velocity": 98,
				"subtype": "noteOn"
			},
			{
				"deltaTime": 6,
				"channel": 9,
				"type": "channel",
				"noteNumber": 51,
				"velocity": 59,
				"subtype": "noteOn"
			},
			{
				"deltaTime": 54,
				"channel": 9,
				"type": "channel",
				"subtype": "noteOff",
				"noteNumber": 36,
				"velocity": 64
			},
			{
				"deltaTime": 6,
				"channel": 9,
				"type": "channel",
				"subtype": "noteOff",
				"noteNumber": 51,
				"velocity": 64
			},
			{
				"deltaTime": 162,
				"channel": 9,
				"type": "channel",
				"noteNumber": 38,
				"velocity": 115,
				"subtype": "noteOn"
			},
			{
				"deltaTime": 8,
				"channel": 9,
				"type": "channel",
				"noteNumber": 51,
				"velocity": 101,
				"subtype": "noteOn"
			},
			{
				"deltaTime": 52,
				"channel": 9,
				"type": "channel",
				"subtype": "noteOff",
				"noteNumber": 38,
				"velocity": 64
			},
			{
				"deltaTime": 8,
				"channel": 9,
				"type": "channel",
				"subtype": "noteOff",
				"noteNumber": 51,
				"velocity": 64
			},
			{
				"deltaTime": 178,
				"channel": 9,
				"type": "channel",
				"noteNumber": 36,
				"velocity": 85,
				"subtype": "noteOn"
			},
			{
				"deltaTime": 6,
				"channel": 9,
				"type": "channel",
				"noteNumber": 51,
				"velocity": 58,
				"subtype": "noteOn"
			},
			{
				"deltaTime": 54,
				"channel": 9,
				"type": "channel",
				"subtype": "noteOff",
				"noteNumber": 36,
				"velocity": 64
			},
			{
				"deltaTime": 6,
				"channel": 9,
				"type": "channel",
				"subtype": "noteOff",
				"noteNumber": 51,
				"velocity": 64
			},
			{
				"deltaTime": 178,
				"channel": 9,
				"type": "channel",
				"noteNumber": 38,
				"velocity": 118,
				"subtype": "noteOn"
			},
			{
				"deltaTime": 6,
				"channel": 9,
				"type": "channel",
				"noteNumber": 51,
				"velocity": 95,
				"subtype": "noteOn"
			},
			{
				"deltaTime": 54,
				"channel": 9,
				"type": "channel",
				"subtype": "noteOff",
				"noteNumber": 38,
				"velocity": 64
			},
			{
				"deltaTime": 6,
				"channel": 9,
				"type": "channel",
				"subtype": "noteOff",
				"noteNumber": 51,
				"velocity": 64
			},
			{
				"deltaTime": 182,
				"channel": 9,
				"type": "channel",
				"noteNumber": 36,
				"velocity": 99,
				"subtype": "noteOn"
			},
			{
				"deltaTime": 0,
				"channel": 9,
				"type": "channel",
				"noteNumber": 51,
				"velocity": 56,
				"subtype": "noteOn"
			},
			{
				"deltaTime": 60,
				"channel": 9,
				"type": "channel",
				"subtype": "noteOff",
				"noteNumber": 36,
				"velocity": 64
			},
			{
				"deltaTime": 0,
				"channel": 9,
				"type": "channel",
				"subtype": "noteOff",
				"noteNumber": 51,
				"velocity": 64
			},
			{
				"deltaTime": 170,
				"channel": 9,
				"type": "channel",
				"noteNumber": 38,
				"velocity": 116,
				"subtype": "noteOn"
			},
			{
				"deltaTime": 10,
				"channel": 9,
				"type": "channel",
				"noteNumber": 51,
				"velocity": 104,
				"subtype": "noteOn"
			},
			{
				"deltaTime": 50,
				"channel": 9,
				"type": "channel",
				"subtype": "noteOff",
				"noteNumber": 38,
				"velocity": 64
			},
			{
				"deltaTime": 10,
				"channel": 9,
				"type": "channel",
				"subtype": "noteOff",
				"noteNumber": 51,
				"velocity": 64
			},
			{
				"deltaTime": 170,
				"channel": 9,
				"type": "channel",
				"noteNumber": 51,
				"velocity": 40,
				"subtype": "noteOn"
			},
			{
				"deltaTime": 2,
				"channel": 9,
				"type": "channel",
				"noteNumber": 36,
				"velocity": 94,
				"subtype": "noteOn"
			},
			{
				"deltaTime": 58,
				"channel": 9,
				"type": "channel",
				"subtype": "noteOff",
				"noteNumber": 51,
				"velocity": 64
			},
			{
				"deltaTime": 2,
				"channel": 9,
				"type": "channel",
				"subtype": "noteOff",
				"noteNumber": 36,
				"velocity": 64
			},
			{
				"deltaTime": 174,
				"channel": 9,
				"type": "channel",
				"noteNumber": 38,
				"velocity": 125,
				"subtype": "noteOn"
			},
			{
				"deltaTime": 6,
				"channel": 9,
				"type": "channel",
				"noteNumber": 49,
				"velocity": 127,
				"subtype": "noteOn"
			},
			{
				"deltaTime": 54,
				"channel": 9,
				"type": "channel",
				"subtype": "noteOff",
				"noteNumber": 38,
				"velocity": 64
			},
			{
				"deltaTime": 6,
				"channel": 9,
				"type": "channel",
				"subtype": "noteOff",
				"noteNumber": 49,
				"velocity": 64
			},
			{
				"deltaTime": 196,
				"channel": 9,
				"type": "channel",
				"noteNumber": 36,
				"velocity": 108,
				"subtype": "noteOn"
			},
			{
				"deltaTime": 0,
				"channel": 9,
				"type": "channel",
				"noteNumber": 51,
				"velocity": 70,
				"subtype": "noteOn"
			},
			{
				"deltaTime": 60,
				"channel": 9,
				"type": "channel",
				"subtype": "noteOff",
				"noteNumber": 36,
				"velocity": 64
			},
			{
				"deltaTime": 0,
				"channel": 9,
				"type": "channel",
				"subtype": "noteOff",
				"noteNumber": 51,
				"velocity": 64
			},
			{
				"deltaTime": 160,
				"channel": 9,
				"type": "channel",
				"noteNumber": 38,
				"velocity": 120,
				"subtype": "noteOn"
			},
			{
				"deltaTime": 4,
				"channel": 9,
				"type": "channel",
				"noteNumber": 51,
				"velocity": 92,
				"subtype": "noteOn"
			},
			{
				"deltaTime": 56,
				"channel": 9,
				"type": "channel",
				"subtype": "noteOff",
				"noteNumber": 38,
				"velocity": 64
			},
			{
				"deltaTime": 4,
				"channel": 9,
				"type": "channel",
				"subtype": "noteOff",
				"noteNumber": 51,
				"velocity": 64
			},
			{
				"deltaTime": 188,
				"channel": 9,
				"type": "channel",
				"noteNumber": 36,
				"velocity": 91,
				"subtype": "noteOn"
			},
			{
				"deltaTime": 0,
				"channel": 9,
				"type": "channel",
				"noteNumber": 51,
				"velocity": 69,
				"subtype": "noteOn"
			},
			{
				"deltaTime": 60,
				"channel": 9,
				"type": "channel",
				"subtype": "noteOff",
				"noteNumber": 36,
				"velocity": 64
			},
			{
				"deltaTime": 0,
				"channel": 9,
				"type": "channel",
				"subtype": "noteOff",
				"noteNumber": 51,
				"velocity": 64
			},
			{
				"deltaTime": 168,
				"channel": 9,
				"type": "channel",
				"noteNumber": 38,
				"velocity": 114,
				"subtype": "noteOn"
			},
			{
				"deltaTime": 8,
				"channel": 9,
				"type": "channel",
				"noteNumber": 51,
				"velocity": 90,
				"subtype": "noteOn"
			},
			{
				"deltaTime": 52,
				"channel": 9,
				"type": "channel",
				"subtype": "noteOff",
				"noteNumber": 38,
				"velocity": 64
			},
			{
				"deltaTime": 8,
				"channel": 9,
				"type": "channel",
				"subtype": "noteOff",
				"noteNumber": 51,
				"velocity": 64
			},
			{
				"deltaTime": 186,
				"channel": 9,
				"type": "channel",
				"noteNumber": 51,
				"velocity": 70,
				"subtype": "noteOn"
			},
			{
				"deltaTime": 4,
				"channel": 9,
				"type": "channel",
				"noteNumber": 36,
				"velocity": 108,
				"subtype": "noteOn"
			},
			{
				"deltaTime": 56,
				"channel": 9,
				"type": "channel",
				"subtype": "noteOff",
				"noteNumber": 51,
				"velocity": 64
			},
			{
				"deltaTime": 4,
				"channel": 9,
				"type": "channel",
				"subtype": "noteOff",
				"noteNumber": 36,
				"velocity": 64
			},
			{
				"deltaTime": 162,
				"channel": 9,
				"type": "channel",
				"noteNumber": 38,
				"velocity": 114,
				"subtype": "noteOn"
			},
			{
				"deltaTime": 12,
				"channel": 9,
				"type": "channel",
				"noteNumber": 51,
				"velocity": 102,
				"subtype": "noteOn"
			},
			{
				"deltaTime": 48,
				"channel": 9,
				"type": "channel",
				"subtype": "noteOff",
				"noteNumber": 38,
				"velocity": 64
			},
			{
				"deltaTime": 12,
				"channel": 9,
				"type": "channel",
				"subtype": "noteOff",
				"noteNumber": 51,
				"velocity": 64
			},
			{
				"deltaTime": 180,
				"channel": 9,
				"type": "channel",
				"noteNumber": 36,
				"velocity": 89,
				"subtype": "noteOn"
			},
			{
				"deltaTime": 2,
				"channel": 9,
				"type": "channel",
				"noteNumber": 51,
				"velocity": 69,
				"subtype": "noteOn"
			},
			{
				"deltaTime": 58,
				"channel": 9,
				"type": "channel",
				"subtype": "noteOff",
				"noteNumber": 36,
				"velocity": 64
			},
			{
				"deltaTime": 2,
				"channel": 9,
				"type": "channel",
				"subtype": "noteOff",
				"noteNumber": 51,
				"velocity": 64
			},
			{
				"deltaTime": 172,
				"channel": 9,
				"type": "channel",
				"noteNumber": 38,
				"velocity": 119,
				"subtype": "noteOn"
			},
			{
				"deltaTime": 8,
				"channel": 9,
				"type": "channel",
				"noteNumber": 51,
				"velocity": 106,
				"subtype": "noteOn"
			},
			{
				"deltaTime": 52,
				"channel": 9,
				"type": "channel",
				"subtype": "noteOff",
				"noteNumber": 38,
				"velocity": 64
			},
			{
				"deltaTime": 8,
				"channel": 9,
				"type": "channel",
				"subtype": "noteOff",
				"noteNumber": 51,
				"velocity": 64
			},
			{
				"deltaTime": 180,
				"channel": 9,
				"type": "channel",
				"noteNumber": 51,
				"velocity": 61,
				"subtype": "noteOn"
			},
			{
				"deltaTime": 4,
				"channel": 9,
				"type": "channel",
				"noteNumber": 36,
				"velocity": 104,
				"subtype": "noteOn"
			},
			{
				"deltaTime": 56,
				"channel": 9,
				"type": "channel",
				"subtype": "noteOff",
				"noteNumber": 51,
				"velocity": 64
			},
			{
				"deltaTime": 4,
				"channel": 9,
				"type": "channel",
				"subtype": "noteOff",
				"noteNumber": 36,
				"velocity": 64
			},
			{
				"deltaTime": 164,
				"channel": 9,
				"type": "channel",
				"noteNumber": 38,
				"velocity": 116,
				"subtype": "noteOn"
			},
			{
				"deltaTime": 8,
				"channel": 9,
				"type": "channel",
				"noteNumber": 51,
				"velocity": 127,
				"subtype": "noteOn"
			},
			{
				"deltaTime": 52,
				"channel": 9,
				"type": "channel",
				"subtype": "noteOff",
				"noteNumber": 38,
				"velocity": 64
			},
			{
				"deltaTime": 8,
				"channel": 9,
				"type": "channel",
				"subtype": "noteOff",
				"noteNumber": 51,
				"velocity": 64
			},
			{
				"deltaTime": 172,
				"channel": 9,
				"type": "channel",
				"noteNumber": 36,
				"velocity": 88,
				"subtype": "noteOn"
			},
			{
				"deltaTime": 8,
				"channel": 9,
				"type": "channel",
				"noteNumber": 51,
				"velocity": 79,
				"subtype": "noteOn"
			},
			{
				"deltaTime": 52,
				"channel": 9,
				"type": "channel",
				"subtype": "noteOff",
				"noteNumber": 36,
				"velocity": 64
			},
			{
				"deltaTime": 8,
				"channel": 9,
				"type": "channel",
				"subtype": "noteOff",
				"noteNumber": 51,
				"velocity": 64
			},
			{
				"deltaTime": 172,
				"channel": 9,
				"type": "channel",
				"noteNumber": 38,
				"velocity": 125,
				"subtype": "noteOn"
			},
			{
				"deltaTime": 4,
				"channel": 9,
				"type": "channel",
				"noteNumber": 57,
				"velocity": 123,
				"subtype": "noteOn"
			},
			{
				"deltaTime": 56,
				"channel": 9,
				"type": "channel",
				"subtype": "noteOff",
				"noteNumber": 38,
				"velocity": 64
			},
			{
				"deltaTime": 4,
				"channel": 9,
				"type": "channel",
				"subtype": "noteOff",
				"noteNumber": 57,
				"velocity": 64
			},
			{
				"deltaTime": 172,
				"channel": 9,
				"type": "channel",
				"noteNumber": 48,
				"velocity": 103,
				"subtype": "noteOn"
			},
			{
				"deltaTime": 4,
				"channel": 9,
				"type": "channel",
				"noteNumber": 36,
				"velocity": 98,
				"subtype": "noteOn"
			},
			{
				"deltaTime": 56,
				"channel": 9,
				"type": "channel",
				"subtype": "noteOff",
				"noteNumber": 48,
				"velocity": 64
			},
			{
				"deltaTime": 4,
				"channel": 9,
				"type": "channel",
				"subtype": "noteOff",
				"noteNumber": 36,
				"velocity": 64
			},
			{
				"deltaTime": 78,
				"channel": 9,
				"type": "channel",
				"noteNumber": 48,
				"velocity": 123,
				"subtype": "noteOn"
			},
			{
				"deltaTime": 60,
				"channel": 9,
				"type": "channel",
				"subtype": "noteOff",
				"noteNumber": 48,
				"velocity": 64
			},
			{
				"deltaTime": 42,
				"channel": 9,
				"type": "channel",
				"noteNumber": 36,
				"velocity": 88,
				"subtype": "noteOn"
			},
			{
				"deltaTime": 60,
				"channel": 9,
				"type": "channel",
				"subtype": "noteOff",
				"noteNumber": 36,
				"velocity": 64
			},
			{
				"deltaTime": 78,
				"channel": 9,
				"type": "channel",
				"noteNumber": 45,
				"velocity": 125,
				"subtype": "noteOn"
			},
			{
				"deltaTime": 60,
				"channel": 9,
				"type": "channel",
				"subtype": "noteOff",
				"noteNumber": 45,
				"velocity": 64
			},
			{
				"deltaTime": 42,
				"channel": 9,
				"type": "channel",
				"noteNumber": 43,
				"velocity": 122,
				"subtype": "noteOn"
			},
			{
				"deltaTime": 4,
				"channel": 9,
				"type": "channel",
				"noteNumber": 36,
				"velocity": 93,
				"subtype": "noteOn"
			},
			{
				"deltaTime": 56,
				"channel": 9,
				"type": "channel",
				"subtype": "noteOff",
				"noteNumber": 43,
				"velocity": 64
			},
			{
				"deltaTime": 4,
				"channel": 9,
				"type": "channel",
				"subtype": "noteOff",
				"noteNumber": 36,
				"velocity": 64
			},
			{
				"deltaTime": 168,
				"channel": 9,
				"type": "channel",
				"noteNumber": 38,
				"velocity": 119,
				"subtype": "noteOn"
			},
			{
				"deltaTime": 12,
				"channel": 9,
				"type": "channel",
				"noteNumber": 38,
				"velocity": 124,
				"subtype": "noteOn"
			},
			{
				"deltaTime": 6,
				"channel": 9,
				"type": "channel",
				"noteNumber": 49,
				"velocity": 115,
				"subtype": "noteOn"
			},
			{
				"deltaTime": 42,
				"channel": 9,
				"type": "channel",
				"subtype": "noteOff",
				"noteNumber": 38,
				"velocity": 64
			},
			{
				"deltaTime": 12,
				"channel": 9,
				"type": "channel",
				"subtype": "noteOff",
				"noteNumber": 38,
				"velocity": 64
			},
			{
				"deltaTime": 6,
				"channel": 9,
				"type": "channel",
				"subtype": "noteOff",
				"noteNumber": 49,
				"velocity": 64
			},
			{
				"deltaTime": 188,
				"channel": 9,
				"type": "channel",
				"noteNumber": 36,
				"velocity": 103,
				"subtype": "noteOn"
			},
			{
				"deltaTime": 2,
				"channel": 9,
				"type": "channel",
				"noteNumber": 51,
				"velocity": 74,
				"subtype": "noteOn"
			},
			{
				"deltaTime": 58,
				"channel": 9,
				"type": "channel",
				"subtype": "noteOff",
				"noteNumber": 36,
				"velocity": 64
			},
			{
				"deltaTime": 2,
				"channel": 9,
				"type": "channel",
				"subtype": "noteOff",
				"noteNumber": 51,
				"velocity": 64
			},
			{
				"deltaTime": 160,
				"channel": 9,
				"type": "channel",
				"noteNumber": 38,
				"velocity": 120,
				"subtype": "noteOn"
			},
			{
				"deltaTime": 6,
				"channel": 9,
				"type": "channel",
				"noteNumber": 51,
				"velocity": 92,
				"subtype": "noteOn"
			},
			{
				"deltaTime": 54,
				"channel": 9,
				"type": "channel",
				"subtype": "noteOff",
				"noteNumber": 38,
				"velocity": 64
			},
			{
				"deltaTime": 6,
				"channel": 9,
				"type": "channel",
				"subtype": "noteOff",
				"noteNumber": 51,
				"velocity": 64
			},
			{
				"deltaTime": 170,
				"channel": 9,
				"type": "channel",
				"noteNumber": 36,
				"velocity": 84,
				"subtype": "noteOn"
			},
			{
				"deltaTime": 6,
				"channel": 9,
				"type": "channel",
				"noteNumber": 51,
				"velocity": 66,
				"subtype": "noteOn"
			},
			{
				"deltaTime": 54,
				"channel": 9,
				"type": "channel",
				"subtype": "noteOff",
				"noteNumber": 36,
				"velocity": 64
			},
			{
				"deltaTime": 6,
				"channel": 9,
				"type": "channel",
				"subtype": "noteOff",
				"noteNumber": 51,
				"velocity": 64
			},
			{
				"deltaTime": 182,
				"channel": 9,
				"type": "channel",
				"noteNumber": 38,
				"velocity": 115,
				"subtype": "noteOn"
			},
			{
				"deltaTime": 2,
				"channel": 9,
				"type": "channel",
				"noteNumber": 51,
				"velocity": 113,
				"subtype": "noteOn"
			},
			{
				"deltaTime": 58,
				"channel": 9,
				"type": "channel",
				"subtype": "noteOff",
				"noteNumber": 38,
				"velocity": 64
			},
			{
				"deltaTime": 2,
				"channel": 9,
				"type": "channel",
				"subtype": "noteOff",
				"noteNumber": 51,
				"velocity": 64
			},
			{
				"deltaTime": 170,
				"channel": 9,
				"type": "channel",
				"noteNumber": 36,
				"velocity": 96,
				"subtype": "noteOn"
			},
			{
				"deltaTime": 4,
				"channel": 9,
				"type": "channel",
				"noteNumber": 51,
				"velocity": 79,
				"subtype": "noteOn"
			},
			{
				"deltaTime": 56,
				"channel": 9,
				"type": "channel",
				"subtype": "noteOff",
				"noteNumber": 36,
				"velocity": 64
			},
			{
				"deltaTime": 4,
				"channel": 9,
				"type": "channel",
				"subtype": "noteOff",
				"noteNumber": 51,
				"velocity": 64
			},
			{
				"deltaTime": 178,
				"channel": 9,
				"type": "channel",
				"noteNumber": 38,
				"velocity": 121,
				"subtype": "noteOn"
			},
			{
				"deltaTime": 6,
				"channel": 9,
				"type": "channel",
				"noteNumber": 51,
				"velocity": 105,
				"subtype": "noteOn"
			},
			{
				"deltaTime": 54,
				"channel": 9,
				"type": "channel",
				"subtype": "noteOff",
				"noteNumber": 38,
				"velocity": 64
			},
			{
				"deltaTime": 6,
				"channel": 9,
				"type": "channel",
				"subtype": "noteOff",
				"noteNumber": 51,
				"velocity": 64
			},
			{
				"deltaTime": 174,
				"channel": 9,
				"type": "channel",
				"noteNumber": 36,
				"velocity": 96,
				"subtype": "noteOn"
			},
			{
				"deltaTime": 0,
				"channel": 9,
				"type": "channel",
				"noteNumber": 51,
				"velocity": 57,
				"subtype": "noteOn"
			},
			{
				"deltaTime": 60,
				"channel": 9,
				"type": "channel",
				"subtype": "noteOff",
				"noteNumber": 36,
				"velocity": 64
			},
			{
				"deltaTime": 0,
				"channel": 9,
				"type": "channel",
				"subtype": "noteOff",
				"noteNumber": 51,
				"velocity": 64
			},
			{
				"deltaTime": 180,
				"channel": 9,
				"type": "channel",
				"noteNumber": 57,
				"velocity": 125,
				"subtype": "noteOn"
			},
			{
				"deltaTime": 4,
				"channel": 9,
				"type": "channel",
				"noteNumber": 36,
				"velocity": 116,
				"subtype": "noteOn"
			},
			{
				"deltaTime": 56,
				"channel": 9,
				"type": "channel",
				"subtype": "noteOff",
				"noteNumber": 57,
				"velocity": 64
			},
			{
				"deltaTime": 4,
				"channel": 9,
				"type": "channel",
				"subtype": "noteOff",
				"noteNumber": 36,
				"velocity": 64
			},
			{
				"deltaTime": 14,
				"channel": 9,
				"type": "channel",
				"noteNumber": 38,
				"velocity": 74,
				"subtype": "noteOn"
			},
			{
				"deltaTime": 60,
				"channel": 9,
				"type": "channel",
				"subtype": "noteOff",
				"noteNumber": 38,
				"velocity": 64
			},
			{
				"deltaTime": 18,
				"channel": 9,
				"type": "channel",
				"noteNumber": 38,
				"velocity": 65,
				"subtype": "noteOn"
			},
			{
				"deltaTime": 60,
				"channel": 9,
				"type": "channel",
				"subtype": "noteOff",
				"noteNumber": 38,
				"velocity": 64
			},
			{
				"deltaTime": 16,
				"channel": 9,
				"type": "channel",
				"noteNumber": 38,
				"velocity": 118,
				"subtype": "noteOn"
			},
			{
				"deltaTime": 60,
				"channel": 9,
				"type": "channel",
				"subtype": "noteOff",
				"noteNumber": 38,
				"velocity": 64
			},
			{
				"deltaTime": 24,
				"channel": 9,
				"type": "channel",
				"noteNumber": 38,
				"velocity": 50,
				"subtype": "noteOn"
			},
			{
				"deltaTime": 60,
				"channel": 9,
				"type": "channel",
				"subtype": "noteOff",
				"noteNumber": 38,
				"velocity": 64
			},
			{
				"deltaTime": 18,
				"channel": 9,
				"type": "channel",
				"noteNumber": 38,
				"velocity": 72,
				"subtype": "noteOn"
			},
			{
				"deltaTime": 60,
				"channel": 9,
				"type": "channel",
				"subtype": "noteOff",
				"noteNumber": 38,
				"velocity": 64
			},
			{
				"deltaTime": 20,
				"channel": 9,
				"type": "channel",
				"noteNumber": 49,
				"velocity": 118,
				"subtype": "noteOn"
			},
			{
				"deltaTime": 2,
				"channel": 9,
				"type": "channel",
				"noteNumber": 36,
				"velocity": 111,
				"subtype": "noteOn"
			},
			{
				"deltaTime": 58,
				"channel": 9,
				"type": "channel",
				"subtype": "noteOff",
				"noteNumber": 49,
				"velocity": 64
			},
			{
				"deltaTime": 2,
				"channel": 9,
				"type": "channel",
				"subtype": "noteOff",
				"noteNumber": 36,
				"velocity": 64
			},
			{
				"deltaTime": 24,
				"channel": 9,
				"type": "channel",
				"noteNumber": 38,
				"velocity": 68,
				"subtype": "noteOn"
			},
			{
				"deltaTime": 60,
				"channel": 9,
				"type": "channel",
				"subtype": "noteOff",
				"noteNumber": 38,
				"velocity": 64
			},
			{
				"deltaTime": 18,
				"channel": 9,
				"type": "channel",
				"noteNumber": 38,
				"velocity": 120,
				"subtype": "noteOn"
			},
			{
				"deltaTime": 60,
				"channel": 9,
				"type": "channel",
				"subtype": "noteOff",
				"noteNumber": 38,
				"velocity": 64
			},
			{
				"deltaTime": 14,
				"channel": 9,
				"type": "channel",
				"noteNumber": 38,
				"velocity": 125,
				"subtype": "noteOn"
			},
			{
				"deltaTime": 60,
				"channel": 9,
				"type": "channel",
				"subtype": "noteOff",
				"noteNumber": 38,
				"velocity": 64
			},
			{
				"deltaTime": 26,
				"channel": 9,
				"type": "channel",
				"noteNumber": 38,
				"velocity": 57,
				"subtype": "noteOn"
			},
			{
				"deltaTime": 60,
				"channel": 9,
				"type": "channel",
				"subtype": "noteOff",
				"noteNumber": 38,
				"velocity": 64
			},
			{
				"deltaTime": 20,
				"channel": 9,
				"type": "channel",
				"noteNumber": 38,
				"velocity": 71,
				"subtype": "noteOn"
			},
			{
				"deltaTime": 60,
				"channel": 9,
				"type": "channel",
				"subtype": "noteOff",
				"noteNumber": 38,
				"velocity": 64
			},
			{
				"deltaTime": 20,
				"channel": 9,
				"type": "channel",
				"noteNumber": 36,
				"velocity": 111,
				"subtype": "noteOn"
			},
			{
				"deltaTime": 4,
				"channel": 9,
				"type": "channel",
				"noteNumber": 57,
				"velocity": 126,
				"subtype": "noteOn"
			},
			{
				"deltaTime": 56,
				"channel": 9,
				"type": "channel",
				"subtype": "noteOff",
				"noteNumber": 36,
				"velocity": 64
			},
			{
				"deltaTime": 4,
				"channel": 9,
				"type": "channel",
				"subtype": "noteOff",
				"noteNumber": 57,
				"velocity": 64
			},
			{
				"deltaTime": 14,
				"channel": 9,
				"type": "channel",
				"noteNumber": 38,
				"velocity": 51,
				"subtype": "noteOn"
			},
			{
				"deltaTime": 60,
				"channel": 9,
				"type": "channel",
				"subtype": "noteOff",
				"noteNumber": 38,
				"velocity": 64
			},
			{
				"deltaTime": 20,
				"channel": 9,
				"type": "channel",
				"noteNumber": 38,
				"velocity": 64,
				"subtype": "noteOn"
			},
			{
				"deltaTime": 60,
				"channel": 9,
				"type": "channel",
				"subtype": "noteOff",
				"noteNumber": 38,
				"velocity": 64
			},
			{
				"deltaTime": 22,
				"channel": 9,
				"type": "channel",
				"noteNumber": 36,
				"velocity": 110,
				"subtype": "noteOn"
			},
			{
				"deltaTime": 4,
				"channel": 9,
				"type": "channel",
				"noteNumber": 49,
				"velocity": 107,
				"subtype": "noteOn"
			},
			{
				"deltaTime": 56,
				"channel": 9,
				"type": "channel",
				"subtype": "noteOff",
				"noteNumber": 36,
				"velocity": 64
			},
			{
				"deltaTime": 4,
				"channel": 9,
				"type": "channel",
				"subtype": "noteOff",
				"noteNumber": 49,
				"velocity": 64
			},
			{
				"deltaTime": 16,
				"channel": 9,
				"type": "channel",
				"noteNumber": 48,
				"velocity": 64,
				"subtype": "noteOn"
			},
			{
				"deltaTime": 60,
				"channel": 9,
				"type": "channel",
				"subtype": "noteOff",
				"noteNumber": 48,
				"velocity": 64
			},
			{
				"deltaTime": 20,
				"channel": 9,
				"type": "channel",
				"noteNumber": 48,
				"velocity": 125,
				"subtype": "noteOn"
			},
			{
				"deltaTime": 60,
				"channel": 9,
				"type": "channel",
				"subtype": "noteOff",
				"noteNumber": 48,
				"velocity": 64
			},
			{
				"deltaTime": 24,
				"channel": 9,
				"type": "channel",
				"noteNumber": 36,
				"velocity": 113,
				"subtype": "noteOn"
			},
			{
				"deltaTime": 0,
				"channel": 9,
				"type": "channel",
				"noteNumber": 57,
				"velocity": 122,
				"subtype": "noteOn"
			},
			{
				"deltaTime": 60,
				"channel": 9,
				"type": "channel",
				"subtype": "noteOff",
				"noteNumber": 36,
				"velocity": 64
			},
			{
				"deltaTime": 0,
				"channel": 9,
				"type": "channel",
				"subtype": "noteOff",
				"noteNumber": 57,
				"velocity": 64
			},
			{
				"deltaTime": 16,
				"channel": 9,
				"type": "channel",
				"noteNumber": 45,
				"velocity": 58,
				"subtype": "noteOn"
			},
			{
				"deltaTime": 60,
				"channel": 9,
				"type": "channel",
				"subtype": "noteOff",
				"noteNumber": 45,
				"velocity": 64
			},
			{
				"deltaTime": 18,
				"channel": 9,
				"type": "channel",
				"noteNumber": 45,
				"velocity": 121,
				"subtype": "noteOn"
			},
			{
				"deltaTime": 60,
				"channel": 9,
				"type": "channel",
				"subtype": "noteOff",
				"noteNumber": 45,
				"velocity": 64
			},
			{
				"deltaTime": 28,
				"channel": 9,
				"type": "channel",
				"noteNumber": 36,
				"velocity": 109,
				"subtype": "noteOn"
			},
			{
				"deltaTime": 0,
				"channel": 9,
				"type": "channel",
				"noteNumber": 49,
				"velocity": 112,
				"subtype": "noteOn"
			},
			{
				"deltaTime": 60,
				"channel": 9,
				"type": "channel",
				"subtype": "noteOff",
				"noteNumber": 36,
				"velocity": 64
			},
			{
				"deltaTime": 0,
				"channel": 9,
				"type": "channel",
				"subtype": "noteOff",
				"noteNumber": 49,
				"velocity": 64
			},
			{
				"deltaTime": 16,
				"channel": 9,
				"type": "channel",
				"noteNumber": 43,
				"velocity": 80,
				"subtype": "noteOn"
			},
			{
				"deltaTime": 60,
				"channel": 9,
				"type": "channel",
				"subtype": "noteOff",
				"noteNumber": 43,
				"velocity": 64
			},
			{
				"deltaTime": 20,
				"channel": 9,
				"type": "channel",
				"noteNumber": 43,
				"velocity": 125,
				"subtype": "noteOn"
			},
			{
				"deltaTime": 60,
				"channel": 9,
				"type": "channel",
				"subtype": "noteOff",
				"noteNumber": 43,
				"velocity": 64
			},
			{
				"deltaTime": 16,
				"channel": 9,
				"type": "channel",
				"noteNumber": 36,
				"velocity": 116,
				"subtype": "noteOn"
			},
			{
				"deltaTime": 0,
				"channel": 9,
				"type": "channel",
				"noteNumber": 57,
				"velocity": 127,
				"subtype": "noteOn"
			},
			{
				"deltaTime": 60,
				"channel": 9,
				"type": "channel",
				"subtype": "noteOff",
				"noteNumber": 36,
				"velocity": 64
			},
			{
				"deltaTime": 0,
				"channel": 9,
				"type": "channel",
				"subtype": "noteOff",
				"noteNumber": 57,
				"velocity": 64
			},
			{
				"deltaTime": 190,
				"channel": 9,
				"type": "channel",
				"noteNumber": 51,
				"velocity": 77,
				"subtype": "noteOn"
			},
			{
				"deltaTime": 2,
				"channel": 9,
				"type": "channel",
				"noteNumber": 36,
				"velocity": 107,
				"subtype": "noteOn"
			},
			{
				"deltaTime": 58,
				"channel": 9,
				"type": "channel",
				"subtype": "noteOff",
				"noteNumber": 51,
				"velocity": 64
			},
			{
				"deltaTime": 2,
				"channel": 9,
				"type": "channel",
				"subtype": "noteOff",
				"noteNumber": 36,
				"velocity": 64
			},
			{
				"deltaTime": 174,
				"channel": 9,
				"type": "channel",
				"noteNumber": 38,
				"velocity": 114,
				"subtype": "noteOn"
			},
			{
				"deltaTime": 0,
				"channel": 9,
				"type": "channel",
				"noteNumber": 51,
				"velocity": 114,
				"subtype": "noteOn"
			},
			{
				"deltaTime": 60,
				"channel": 9,
				"type": "channel",
				"subtype": "noteOff",
				"noteNumber": 38,
				"velocity": 64
			},
			{
				"deltaTime": 0,
				"channel": 9,
				"type": "channel",
				"subtype": "noteOff",
				"noteNumber": 51,
				"velocity": 64
			},
			{
				"deltaTime": 166,
				"channel": 9,
				"type": "channel",
				"noteNumber": 51,
				"velocity": 76,
				"subtype": "noteOn"
			},
			{
				"deltaTime": 60,
				"channel": 9,
				"type": "channel",
				"subtype": "noteOff",
				"noteNumber": 51,
				"velocity": 64
			},
			{
				"deltaTime": 90,
				"channel": 9,
				"type": "channel",
				"noteNumber": 38,
				"velocity": 105,
				"subtype": "noteOn"
			},
			{
				"deltaTime": 60,
				"channel": 9,
				"type": "channel",
				"subtype": "noteOff",
				"noteNumber": 38,
				"velocity": 64
			},
			{
				"deltaTime": 42,
				"channel": 9,
				"type": "channel",
				"noteNumber": 36,
				"velocity": 115,
				"subtype": "noteOn"
			},
			{
				"deltaTime": 0,
				"channel": 9,
				"type": "channel",
				"noteNumber": 51,
				"velocity": 79,
				"subtype": "noteOn"
			},
			{
				"deltaTime": 60,
				"channel": 9,
				"type": "channel",
				"subtype": "noteOff",
				"noteNumber": 36,
				"velocity": 64
			},
			{
				"deltaTime": 0,
				"channel": 9,
				"type": "channel",
				"subtype": "noteOff",
				"noteNumber": 51,
				"velocity": 64
			},
			{
				"deltaTime": 184,
				"channel": 9,
				"type": "channel",
				"noteNumber": 36,
				"velocity": 110,
				"subtype": "noteOn"
			},
			{
				"deltaTime": 2,
				"channel": 9,
				"type": "channel",
				"noteNumber": 51,
				"velocity": 80,
				"subtype": "noteOn"
			},
			{
				"deltaTime": 58,
				"channel": 9,
				"type": "channel",
				"subtype": "noteOff",
				"noteNumber": 36,
				"velocity": 64
			},
			{
				"deltaTime": 2,
				"channel": 9,
				"type": "channel",
				"subtype": "noteOff",
				"noteNumber": 51,
				"velocity": 64
			},
			{
				"deltaTime": 164,
				"channel": 9,
				"type": "channel",
				"noteNumber": 38,
				"velocity": 118,
				"subtype": "noteOn"
			},
			{
				"deltaTime": 4,
				"channel": 9,
				"type": "channel",
				"noteNumber": 51,
				"velocity": 118,
				"subtype": "noteOn"
			},
			{
				"deltaTime": 56,
				"channel": 9,
				"type": "channel",
				"subtype": "noteOff",
				"noteNumber": 38,
				"velocity": 64
			},
			{
				"deltaTime": 4,
				"channel": 9,
				"type": "channel",
				"subtype": "noteOff",
				"noteNumber": 51,
				"velocity": 64
			},
			{
				"deltaTime": 168,
				"channel": 9,
				"type": "channel",
				"noteNumber": 51,
				"velocity": 78,
				"subtype": "noteOn"
			},
			{
				"deltaTime": 60,
				"channel": 9,
				"type": "channel",
				"subtype": "noteOff",
				"noteNumber": 51,
				"velocity": 64
			},
			{
				"deltaTime": 98,
				"channel": 9,
				"type": "channel",
				"noteNumber": 38,
				"velocity": 111,
				"subtype": "noteOn"
			},
			{
				"deltaTime": 60,
				"channel": 9,
				"type": "channel",
				"subtype": "noteOff",
				"noteNumber": 38,
				"velocity": 64
			},
			{
				"deltaTime": 40,
				"channel": 9,
				"type": "channel",
				"noteNumber": 36,
				"velocity": 115,
				"subtype": "noteOn"
			},
			{
				"deltaTime": 4,
				"channel": 9,
				"type": "channel",
				"noteNumber": 51,
				"velocity": 78,
				"subtype": "noteOn"
			},
			{
				"deltaTime": 56,
				"channel": 9,
				"type": "channel",
				"subtype": "noteOff",
				"noteNumber": 36,
				"velocity": 64
			},
			{
				"deltaTime": 4,
				"channel": 9,
				"type": "channel",
				"subtype": "noteOff",
				"noteNumber": 51,
				"velocity": 64
			},
			{
				"deltaTime": 176,
				"channel": 9,
				"type": "channel",
				"noteNumber": 51,
				"velocity": 83,
				"subtype": "noteOn"
			},
			{
				"deltaTime": 2,
				"channel": 9,
				"type": "channel",
				"noteNumber": 36,
				"velocity": 112,
				"subtype": "noteOn"
			},
			{
				"deltaTime": 58,
				"channel": 9,
				"type": "channel",
				"subtype": "noteOff",
				"noteNumber": 51,
				"velocity": 64
			},
			{
				"deltaTime": 2,
				"channel": 9,
				"type": "channel",
				"subtype": "noteOff",
				"noteNumber": 36,
				"velocity": 64
			},
			{
				"deltaTime": 180,
				"channel": 9,
				"type": "channel",
				"noteNumber": 51,
				"velocity": 110,
				"subtype": "noteOn"
			},
			{
				"deltaTime": 2,
				"channel": 9,
				"type": "channel",
				"noteNumber": 38,
				"velocity": 115,
				"subtype": "noteOn"
			},
			{
				"deltaTime": 58,
				"channel": 9,
				"type": "channel",
				"subtype": "noteOff",
				"noteNumber": 51,
				"velocity": 64
			},
			{
				"deltaTime": 2,
				"channel": 9,
				"type": "channel",
				"subtype": "noteOff",
				"noteNumber": 38,
				"velocity": 64
			},
			{
				"deltaTime": 166,
				"channel": 9,
				"type": "channel",
				"noteNumber": 51,
				"velocity": 78,
				"subtype": "noteOn"
			},
			{
				"deltaTime": 60,
				"channel": 9,
				"type": "channel",
				"subtype": "noteOff",
				"noteNumber": 51,
				"velocity": 64
			},
			{
				"deltaTime": 92,
				"channel": 9,
				"type": "channel",
				"noteNumber": 38,
				"velocity": 104,
				"subtype": "noteOn"
			},
			{
				"deltaTime": 60,
				"channel": 9,
				"type": "channel",
				"subtype": "noteOff",
				"noteNumber": 38,
				"velocity": 64
			},
			{
				"deltaTime": 32,
				"channel": 9,
				"type": "channel",
				"noteNumber": 51,
				"velocity": 85,
				"subtype": "noteOn"
			},
			{
				"deltaTime": 6,
				"channel": 9,
				"type": "channel",
				"noteNumber": 36,
				"velocity": 109,
				"subtype": "noteOn"
			},
			{
				"deltaTime": 54,
				"channel": 9,
				"type": "channel",
				"subtype": "noteOff",
				"noteNumber": 51,
				"velocity": 64
			},
			{
				"deltaTime": 6,
				"channel": 9,
				"type": "channel",
				"subtype": "noteOff",
				"noteNumber": 36,
				"velocity": 64
			},
			{
				"deltaTime": 182,
				"channel": 9,
				"type": "channel",
				"noteNumber": 51,
				"velocity": 78,
				"subtype": "noteOn"
			},
			{
				"deltaTime": 2,
				"channel": 9,
				"type": "channel",
				"noteNumber": 36,
				"velocity": 106,
				"subtype": "noteOn"
			},
			{
				"deltaTime": 58,
				"channel": 9,
				"type": "channel",
				"subtype": "noteOff",
				"noteNumber": 51,
				"velocity": 64
			},
			{
				"deltaTime": 2,
				"channel": 9,
				"type": "channel",
				"subtype": "noteOff",
				"noteNumber": 36,
				"velocity": 64
			},
			{
				"deltaTime": 178,
				"channel": 9,
				"type": "channel",
				"noteNumber": 38,
				"velocity": 119,
				"subtype": "noteOn"
			},
			{
				"deltaTime": 2,
				"channel": 9,
				"type": "channel",
				"noteNumber": 51,
				"velocity": 121,
				"subtype": "noteOn"
			},
			{
				"deltaTime": 58,
				"channel": 9,
				"type": "channel",
				"subtype": "noteOff",
				"noteNumber": 38,
				"velocity": 64
			},
			{
				"deltaTime": 2,
				"channel": 9,
				"type": "channel",
				"subtype": "noteOff",
				"noteNumber": 51,
				"velocity": 64
			},
			{
				"deltaTime": 154,
				"channel": 9,
				"type": "channel",
				"noteNumber": 51,
				"velocity": 77,
				"subtype": "noteOn"
			},
			{
				"deltaTime": 60,
				"channel": 9,
				"type": "channel",
				"subtype": "noteOff",
				"noteNumber": 51,
				"velocity": 64
			},
			{
				"deltaTime": 96,
				"channel": 9,
				"type": "channel",
				"noteNumber": 38,
				"velocity": 102,
				"subtype": "noteOn"
			},
			{
				"deltaTime": 60,
				"channel": 9,
				"type": "channel",
				"subtype": "noteOff",
				"noteNumber": 38,
				"velocity": 64
			},
			{
				"deltaTime": 40,
				"channel": 9,
				"type": "channel",
				"noteNumber": 49,
				"velocity": 127,
				"subtype": "noteOn"
			},
			{
				"deltaTime": 4,
				"channel": 9,
				"type": "channel",
				"noteNumber": 36,
				"velocity": 113,
				"subtype": "noteOn"
			},
			{
				"deltaTime": 56,
				"channel": 9,
				"type": "channel",
				"subtype": "noteOff",
				"noteNumber": 49,
				"velocity": 64
			},
			{
				"deltaTime": 4,
				"channel": 9,
				"type": "channel",
				"subtype": "noteOff",
				"noteNumber": 36,
				"velocity": 64
			},
			{
				"deltaTime": 172,
				"channel": 9,
				"type": "channel",
				"noteNumber": 51,
				"velocity": 76,
				"subtype": "noteOn"
			},
			{
				"deltaTime": 6,
				"channel": 9,
				"type": "channel",
				"noteNumber": 36,
				"velocity": 106,
				"subtype": "noteOn"
			},
			{
				"deltaTime": 54,
				"channel": 9,
				"type": "channel",
				"subtype": "noteOff",
				"noteNumber": 51,
				"velocity": 64
			},
			{
				"deltaTime": 6,
				"channel": 9,
				"type": "channel",
				"subtype": "noteOff",
				"noteNumber": 36,
				"velocity": 64
			},
			{
				"deltaTime": 194,
				"channel": 9,
				"type": "channel",
				"noteNumber": 38,
				"velocity": 119,
				"subtype": "noteOn"
			},
			{
				"deltaTime": 2,
				"channel": 9,
				"type": "channel",
				"noteNumber": 57,
				"velocity": 127,
				"subtype": "noteOn"
			},
			{
				"deltaTime": 58,
				"channel": 9,
				"type": "channel",
				"subtype": "noteOff",
				"noteNumber": 38,
				"velocity": 64
			},
			{
				"deltaTime": 2,
				"channel": 9,
				"type": "channel",
				"subtype": "noteOff",
				"noteNumber": 57,
				"velocity": 64
			},
			{
				"deltaTime": 156,
				"channel": 9,
				"type": "channel",
				"noteNumber": 51,
				"velocity": 80,
				"subtype": "noteOn"
			},
			{
				"deltaTime": 60,
				"channel": 9,
				"type": "channel",
				"subtype": "noteOff",
				"noteNumber": 51,
				"velocity": 64
			},
			{
				"deltaTime": 94,
				"channel": 9,
				"type": "channel",
				"noteNumber": 38,
				"velocity": 105,
				"subtype": "noteOn"
			},
			{
				"deltaTime": 60,
				"channel": 9,
				"type": "channel",
				"subtype": "noteOff",
				"noteNumber": 38,
				"velocity": 64
			},
			{
				"deltaTime": 30,
				"channel": 9,
				"type": "channel",
				"noteNumber": 51,
				"velocity": 117,
				"subtype": "noteOn"
			},
			{
				"deltaTime": 6,
				"channel": 9,
				"type": "channel",
				"noteNumber": 36,
				"velocity": 103,
				"subtype": "noteOn"
			},
			{
				"deltaTime": 54,
				"channel": 9,
				"type": "channel",
				"subtype": "noteOff",
				"noteNumber": 51,
				"velocity": 64
			},
			{
				"deltaTime": 6,
				"channel": 9,
				"type": "channel",
				"subtype": "noteOff",
				"noteNumber": 36,
				"velocity": 64
			},
			{
				"deltaTime": 188,
				"channel": 9,
				"type": "channel",
				"noteNumber": 51,
				"velocity": 83,
				"subtype": "noteOn"
			},
			{
				"deltaTime": 2,
				"channel": 9,
				"type": "channel",
				"noteNumber": 36,
				"velocity": 105,
				"subtype": "noteOn"
			},
			{
				"deltaTime": 58,
				"channel": 9,
				"type": "channel",
				"subtype": "noteOff",
				"noteNumber": 51,
				"velocity": 64
			},
			{
				"deltaTime": 2,
				"channel": 9,
				"type": "channel",
				"subtype": "noteOff",
				"noteNumber": 36,
				"velocity": 64
			},
			{
				"deltaTime": 176,
				"channel": 9,
				"type": "channel",
				"noteNumber": 38,
				"velocity": 125,
				"subtype": "noteOn"
			},
			{
				"deltaTime": 2,
				"channel": 9,
				"type": "channel",
				"noteNumber": 49,
				"velocity": 127,
				"subtype": "noteOn"
			},
			{
				"deltaTime": 58,
				"channel": 9,
				"type": "channel",
				"subtype": "noteOff",
				"noteNumber": 38,
				"velocity": 64
			},
			{
				"deltaTime": 2,
				"channel": 9,
				"type": "channel",
				"subtype": "noteOff",
				"noteNumber": 49,
				"velocity": 64
			},
			{
				"deltaTime": 158,
				"channel": 9,
				"type": "channel",
				"noteNumber": 51,
				"velocity": 81,
				"subtype": "noteOn"
			},
			{
				"deltaTime": 60,
				"channel": 9,
				"type": "channel",
				"subtype": "noteOff",
				"noteNumber": 51,
				"velocity": 64
			},
			{
				"deltaTime": 90,
				"channel": 9,
				"type": "channel",
				"noteNumber": 38,
				"velocity": 108,
				"subtype": "noteOn"
			},
			{
				"deltaTime": 60,
				"channel": 9,
				"type": "channel",
				"subtype": "noteOff",
				"noteNumber": 38,
				"velocity": 64
			},
			{
				"deltaTime": 48,
				"channel": 9,
				"type": "channel",
				"noteNumber": 48,
				"velocity": 124,
				"subtype": "noteOn"
			},
			{
				"deltaTime": 60,
				"channel": 9,
				"type": "channel",
				"subtype": "noteOff",
				"noteNumber": 48,
				"velocity": 64
			},
			{
				"deltaTime": 20,
				"channel": 9,
				"type": "channel",
				"noteNumber": 48,
				"velocity": 114,
				"subtype": "noteOn"
			},
			{
				"deltaTime": 60,
				"channel": 9,
				"type": "channel",
				"subtype": "noteOff",
				"noteNumber": 48,
				"velocity": 64
			},
			{
				"deltaTime": 18,
				"channel": 9,
				"type": "channel",
				"noteNumber": 36,
				"velocity": 113,
				"subtype": "noteOn"
			},
			{
				"deltaTime": 60,
				"channel": 9,
				"type": "channel",
				"subtype": "noteOff",
				"noteNumber": 36,
				"velocity": 64
			},
			{
				"deltaTime": 14,
				"channel": 9,
				"type": "channel",
				"noteNumber": 45,
				"velocity": 117,
				"subtype": "noteOn"
			},
			{
				"deltaTime": 60,
				"channel": 9,
				"type": "channel",
				"subtype": "noteOff",
				"noteNumber": 45,
				"velocity": 64
			},
			{
				"deltaTime": 18,
				"channel": 9,
				"type": "channel",
				"noteNumber": 45,
				"velocity": 110,
				"subtype": "noteOn"
			},
			{
				"deltaTime": 60,
				"channel": 9,
				"type": "channel",
				"subtype": "noteOff",
				"noteNumber": 45,
				"velocity": 64
			},
			{
				"deltaTime": 22,
				"channel": 9,
				"type": "channel",
				"noteNumber": 36,
				"velocity": 108,
				"subtype": "noteOn"
			},
			{
				"deltaTime": 60,
				"channel": 9,
				"type": "channel",
				"subtype": "noteOff",
				"noteNumber": 36,
				"velocity": 64
			},
			{
				"deltaTime": 18,
				"channel": 9,
				"type": "channel",
				"noteNumber": 43,
				"velocity": 121,
				"subtype": "noteOn"
			},
			{
				"deltaTime": 60,
				"channel": 9,
				"type": "channel",
				"subtype": "noteOff",
				"noteNumber": 43,
				"velocity": 64
			},
			{
				"deltaTime": 26,
				"channel": 9,
				"type": "channel",
				"noteNumber": 43,
				"velocity": 115,
				"subtype": "noteOn"
			},
			{
				"deltaTime": 60,
				"channel": 9,
				"type": "channel",
				"subtype": "noteOff",
				"noteNumber": 43,
				"velocity": 64
			},
			{
				"deltaTime": 20,
				"channel": 9,
				"type": "channel",
				"noteNumber": 36,
				"velocity": 115,
				"subtype": "noteOn"
			},
			{
				"deltaTime": 60,
				"channel": 9,
				"type": "channel",
				"subtype": "noteOff",
				"noteNumber": 36,
				"velocity": 64
			},
			{
				"deltaTime": 18,
				"channel": 9,
				"type": "channel",
				"noteNumber": 45,
				"velocity": 122,
				"subtype": "noteOn"
			},
			{
				"deltaTime": 60,
				"channel": 9,
				"type": "channel",
				"subtype": "noteOff",
				"noteNumber": 45,
				"velocity": 64
			},
			{
				"deltaTime": 22,
				"channel": 9,
				"type": "channel",
				"noteNumber": 45,
				"velocity": 116,
				"subtype": "noteOn"
			},
			{
				"deltaTime": 60,
				"channel": 9,
				"type": "channel",
				"subtype": "noteOff",
				"noteNumber": 45,
				"velocity": 64
			},
			{
				"deltaTime": 22,
				"channel": 9,
				"type": "channel",
				"noteNumber": 36,
				"velocity": 122,
				"subtype": "noteOn"
			},
			{
				"deltaTime": 60,
				"channel": 9,
				"type": "channel",
				"subtype": "noteOff",
				"noteNumber": 36,
				"velocity": 64
			},
			{
				"deltaTime": 18,
				"channel": 9,
				"type": "channel",
				"noteNumber": 38,
				"velocity": 117,
				"subtype": "noteOn"
			},
			{
				"deltaTime": 30,
				"channel": 9,
				"type": "channel",
				"subtype": "noteOff",
				"noteNumber": 38,
				"velocity": 64
			},
			{
				"deltaTime": 0,
				"channel": 9,
				"type": "channel",
				"noteNumber": 38,
				"velocity": 127,
				"subtype": "noteOn"
			},
			{
				"deltaTime": 60,
				"channel": 9,
				"type": "channel",
				"subtype": "noteOff",
				"noteNumber": 38,
				"velocity": 64
			},
			{
				"deltaTime": 394,
				"channel": 9,
				"type": "channel",
				"noteNumber": 44,
				"velocity": 118,
				"subtype": "noteOn"
			},
			{
				"deltaTime": 60,
				"channel": 9,
				"type": "channel",
				"subtype": "noteOff",
				"noteNumber": 44,
				"velocity": 64
			},
			{
				"deltaTime": 422,
				"channel": 9,
				"type": "channel",
				"noteNumber": 44,
				"velocity": 105,
				"subtype": "noteOn"
			},
			{
				"deltaTime": 60,
				"channel": 9,
				"type": "channel",
				"subtype": "noteOff",
				"noteNumber": 44,
				"velocity": 64
			},
			{
				"deltaTime": 416,
				"channel": 9,
				"type": "channel",
				"noteNumber": 44,
				"velocity": 111,
				"subtype": "noteOn"
			},
			{
				"deltaTime": 60,
				"channel": 9,
				"type": "channel",
				"subtype": "noteOff",
				"noteNumber": 44,
				"velocity": 64
			},
			{
				"deltaTime": 420,
				"channel": 9,
				"type": "channel",
				"noteNumber": 38,
				"velocity": 125,
				"subtype": "noteOn"
			},
			{
				"deltaTime": 60,
				"channel": 9,
				"type": "channel",
				"subtype": "noteOff",
				"noteNumber": 38,
				"velocity": 64
			},
			{
				"deltaTime": 60,
				"channel": 9,
				"type": "channel",
				"noteNumber": 38,
				"velocity": 117,
				"subtype": "noteOn"
			},
			{
				"deltaTime": 60,
				"channel": 9,
				"type": "channel",
				"subtype": "noteOff",
				"noteNumber": 38,
				"velocity": 64
			},
			{
				"deltaTime": 174,
				"channel": 9,
				"type": "channel",
				"noteNumber": 45,
				"velocity": 118,
				"subtype": "noteOn"
			},
			{
				"deltaTime": 60,
				"channel": 9,
				"type": "channel",
				"subtype": "noteOff",
				"noteNumber": 45,
				"velocity": 64
			},
			{
				"deltaTime": 56,
				"channel": 9,
				"type": "channel",
				"noteNumber": 45,
				"velocity": 125,
				"subtype": "noteOn"
			},
			{
				"deltaTime": 60,
				"channel": 9,
				"type": "channel",
				"subtype": "noteOff",
				"noteNumber": 45,
				"velocity": 64
			},
			{
				"deltaTime": 188,
				"channel": 9,
				"type": "channel",
				"noteNumber": 38,
				"velocity": 119,
				"subtype": "noteOn"
			},
			{
				"deltaTime": 60,
				"channel": 9,
				"type": "channel",
				"subtype": "noteOff",
				"noteNumber": 38,
				"velocity": 64
			},
			{
				"deltaTime": 62,
				"channel": 9,
				"type": "channel",
				"noteNumber": 38,
				"velocity": 127,
				"subtype": "noteOn"
			},
			{
				"deltaTime": 60,
				"channel": 9,
				"type": "channel",
				"subtype": "noteOff",
				"noteNumber": 38,
				"velocity": 64
			},
			{
				"deltaTime": 186,
				"channel": 9,
				"type": "channel",
				"noteNumber": 45,
				"velocity": 120,
				"subtype": "noteOn"
			},
			{
				"deltaTime": 60,
				"channel": 9,
				"type": "channel",
				"subtype": "noteOff",
				"noteNumber": 45,
				"velocity": 64
			},
			{
				"deltaTime": 44,
				"channel": 9,
				"type": "channel",
				"noteNumber": 45,
				"velocity": 125,
				"subtype": "noteOn"
			},
			{
				"deltaTime": 60,
				"channel": 9,
				"type": "channel",
				"subtype": "noteOff",
				"noteNumber": 45,
				"velocity": 64
			},
			{
				"deltaTime": 190,
				"channel": 9,
				"type": "channel",
				"noteNumber": 50,
				"velocity": 127,
				"subtype": "noteOn"
			},
			{
				"deltaTime": 60,
				"channel": 9,
				"type": "channel",
				"subtype": "noteOff",
				"noteNumber": 50,
				"velocity": 64
			},
			{
				"deltaTime": 18,
				"channel": 9,
				"type": "channel",
				"noteNumber": 50,
				"velocity": 114,
				"subtype": "noteOn"
			},
			{
				"deltaTime": 60,
				"channel": 9,
				"type": "channel",
				"subtype": "noteOff",
				"noteNumber": 50,
				"velocity": 64
			},
			{
				"deltaTime": 16,
				"channel": 9,
				"type": "channel",
				"noteNumber": 45,
				"velocity": 125,
				"subtype": "noteOn"
			},
			{
				"deltaTime": 60,
				"channel": 9,
				"type": "channel",
				"subtype": "noteOff",
				"noteNumber": 45,
				"velocity": 64
			},
			{
				"deltaTime": 20,
				"channel": 9,
				"type": "channel",
				"noteNumber": 45,
				"velocity": 116,
				"subtype": "noteOn"
			},
			{
				"deltaTime": 60,
				"channel": 9,
				"type": "channel",
				"subtype": "noteOff",
				"noteNumber": 45,
				"velocity": 64
			},
			{
				"deltaTime": 24,
				"channel": 9,
				"type": "channel",
				"noteNumber": 43,
				"velocity": 127,
				"subtype": "noteOn"
			},
			{
				"deltaTime": 60,
				"channel": 9,
				"type": "channel",
				"subtype": "noteOff",
				"noteNumber": 43,
				"velocity": 64
			},
			{
				"deltaTime": 20,
				"channel": 9,
				"type": "channel",
				"noteNumber": 43,
				"velocity": 116,
				"subtype": "noteOn"
			},
			{
				"deltaTime": 60,
				"channel": 9,
				"type": "channel",
				"subtype": "noteOff",
				"noteNumber": 43,
				"velocity": 64
			},
			{
				"deltaTime": 18,
				"channel": 9,
				"type": "channel",
				"noteNumber": 49,
				"velocity": 127,
				"subtype": "noteOn"
			},
			{
				"deltaTime": 1660,
				"channel": 9,
				"type": "channel",
				"subtype": "noteOff",
				"noteNumber": 49,
				"velocity": 64
			},
			{
				"deltaTime": 0,
				"type": "meta",
				"subtype": "endOfTrack"
			}
		],
		[
			{
				"deltaTime": 0,
				"type": "meta",
				"subtype": "trackName",
				"text": "Markers"
			},
			{
				"deltaTime": 0,
				"type": "meta",
				"subtype": "marker",
				"text": "Intro"
			},
			{
				"deltaTime": 26880,
				"type": "meta",
				"subtype": "marker",
				"text": "Verse1"
			},
			{
				"deltaTime": 23040,
				"type": "meta",
				"subtype": "marker",
				"text": "Verse2"
			},
			{
				"deltaTime": 23040,
				"type": "meta",
				"subtype": "marker",
				"text": ""
			},
			{
				"deltaTime": 176640,
				"type": "meta",
				"subtype": "marker",
				"text": "Outro"
			},
			{
				"deltaTime": 8640,
				"type": "meta",
				"subtype": "marker",
				"text": ""
			},
			{
				"deltaTime": 0,
				"type": "meta",
				"subtype": "endOfTrack"
			}
		]
	]
}