{
	"header": {
		"formatType": 1,
		"trackCount": 3,
		"ticksPerBeat": 128
	},
	"tracks": [
		[
			{
				"deltaTime": 0,
				"type": "meta",
				"subtype": "timeSignature",
				"numerator": 4,
				"denominator": 4,
				"metronome": 24,
				"thirtyseconds": 8,
				"realTime": 0,
				"sortKey": 2
			},
			{
				"deltaTime": 0,
				"type": "meta",
				"subtype": "setTempo",
				"microsecondsPerBeat": 555554,
				"realTime": 0,
				"sortKey": 1
			},
			{
				"deltaTime": 0,
				"type": "meta",
				"subtype": "endOfTrack"
			}
		],
		[
			{
				"deltaTime": null,
				"channel": 9,
				"type": "channel",
				"noteNumber": 35,
				"velocity": 114,
				"subtype": "noteOn",
				"realTime": 13312,
				"sortKey": 805
			},
			{
				"deltaTime": 0,
				"channel": 9,
				"type": "channel",
				"noteNumber": 49,
				"velocity": 126,
				"subtype": "noteOn",
				"realTime": 13312,
				"sortKey": 806
			},
			{
				"deltaTime": 16,
				"channel": 9,
				"type": "channel",
				"subtype": "noteOff",
				"noteNumber": 35,
				"velocity": 64,
				"realTime": 13328,
				"sortKey": 807
			},
			{
				"deltaTime": 0,
				"channel": 9,
				"type": "channel",
				"subtype": "noteOff",
				"noteNumber": 49,
				"velocity": 64,
				"realTime": 13328,
				"sortKey": 808
			},
			{
				"deltaTime": 54,
				"channel": 9,
				"type": "channel",
				"noteNumber": 42,
				"velocity": 55,
				"subtype": "noteOn",
				"realTime": 13382,
				"sortKey": 809
			},
			{
				"deltaTime": 0,
				"channel": 9,
				"type": "channel",
				"noteNumber": 35,
				"velocity": 100,
				"subtype": "noteOn",
				"realTime": 13382,
				"sortKey": 810
			},
			{
				"deltaTime": 16,
				"channel": 9,
				"type": "channel",
				"subtype": "noteOff",
				"noteNumber": 42,
				"velocity": 64,
				"realTime": 13398,
				"sortKey": 811
			},
			{
				"deltaTime": 0,
				"channel": 9,
				"type": "channel",
				"subtype": "noteOff",
				"noteNumber": 35,
				"velocity": 64,
				"realTime": 13398,
				"sortKey": 812
			},
			{
				"deltaTime": 46,
				"channel": 9,
				"type": "channel",
				"noteNumber": 38,
				"velocity": 115,
				"subtype": "noteOn",
				"realTime": 13444,
				"sortKey": 813
			},
			{
				"deltaTime": 1,
				"channel": 9,
				"type": "channel",
				"noteNumber": 42,
				"velocity": 97,
				"subtype": "noteOn",
				"realTime": 13445,
				"sortKey": 814
			},
			{
				"deltaTime": 15,
				"channel": 9,
				"type": "channel",
				"subtype": "noteOff",
				"noteNumber": 38,
				"velocity": 64,
				"realTime": 13460,
				"sortKey": 815
			},
			{
				"deltaTime": 1,
				"channel": 9,
				"type": "channel",
				"subtype": "noteOff",
				"noteNumber": 42,
				"velocity": 64,
				"realTime": 13461,
				"sortKey": 816
			},
			{
				"deltaTime": 48,
				"channel": 9,
				"type": "channel",
				"noteNumber": 42,
				"velocity": 46,
				"subtype": "noteOn",
				"realTime": 13509,
				"sortKey": 817
			},
			{
				"deltaTime": 16,
				"channel": 9,
				"type": "channel",
				"subtype": "noteOff",
				"noteNumber": 42,
				"velocity": 64,
				"realTime": 13525,
				"sortKey": 818
			},
			{
				"deltaTime": 25,
				"channel": 9,
				"type": "channel",
				"noteNumber": 38,
				"velocity": 104,
				"subtype": "noteOn",
				"realTime": 13550,
				"sortKey": 819
			},
			{
				"deltaTime": 16,
				"channel": 9,
				"type": "channel",
				"subtype": "noteOff",
				"noteNumber": 38,
				"velocity": 64,
				"realTime": 13566,
				"sortKey": 820
			},
			{
				"deltaTime": 6,
				"channel": 9,
				"type": "channel",
				"noteNumber": 42,
				"velocity": 81,
				"subtype": "noteOn",
				"realTime": 13572,
				"sortKey": 821
			},
			{
				"deltaTime": 1,
				"channel": 9,
				"type": "channel",
				"noteNumber": 35,
				"velocity": 100,
				"subtype": "noteOn",
				"realTime": 13573,
				"sortKey": 822
			},
			{
				"deltaTime": 15,
				"channel": 9,
				"type": "channel",
				"subtype": "noteOff",
				"noteNumber": 42,
				"velocity": 64,
				"realTime": 13588,
				"sortKey": 823
			},
			{
				"deltaTime": 1,
				"channel": 9,
				"type": "channel",
				"subtype": "noteOff",
				"noteNumber": 35,
				"velocity": 64,
				"realTime": 13589,
				"sortKey": 824
			},
			{
				"deltaTime": 50,
				"channel": 9,
				"type": "channel",
				"noteNumber": 42,
				"velocity": 55,
				"subtype": "noteOn",
				"realTime": 13639,
				"sortKey": 825
			},
			{
				"deltaTime": 2,
				"channel": 9,
				"type": "channel",
				"noteNumber": 35,
				"velocity": 99,
				"subtype": "noteOn",
				"realTime": 13641,
				"sortKey": 826
			},
			{
				"deltaTime": 14,
				"channel": 9,
				"type": "channel",
				"subtype": "noteOff",
				"noteNumber": 42,
				"velocity": 64,
				"realTime": 13655,
				"sortKey": 827
			},
			{
				"deltaTime": 2,
				"channel": 9,
				"type": "channel",
				"subtype": "noteOff",
				"noteNumber": 35,
				"velocity": 64,
				"realTime": 13657,
				"sortKey": 828
			},
			{
				"deltaTime": 43,
				"channel": 9,
				"type": "channel",
				"noteNumber": 38,
				"velocity": 113,
				"subtype": "noteOn",
				"realTime": 13700,
				"sortKey": 829
			},
			{
				"deltaTime": 1,
				"channel": 9,
				"type": "channel",
				"noteNumber": 42,
				"velocity": 87,
				"subtype": "noteOn",
				"realTime": 13701,
				"sortKey": 830
			},
			{
				"deltaTime": 15,
				"channel": 9,
				"type": "channel",
				"subtype": "noteOff",
				"noteNumber": 38,
				"velocity": 64,
				"realTime": 13716,
				"sortKey": 831
			},
			{
				"deltaTime": 1,
				"channel": 9,
				"type": "channel",
				"subtype": "noteOff",
				"noteNumber": 42,
				"velocity": 64,
				"realTime": 13717,
				"sortKey": 832
			},
			{
				"deltaTime": 48,
				"channel": 9,
				"type": "channel",
				"noteNumber": 42,
				"velocity": 54,
				"subtype": "noteOn",
				"realTime": 13765,
				"sortKey": 833
			},
			{
				"deltaTime": 16,
				"channel": 9,
				"type": "channel",
				"subtype": "noteOff",
				"noteNumber": 42,
				"velocity": 64,
				"realTime": 13781,
				"sortKey": 834
			},
			{
				"deltaTime": 23,
				"channel": 9,
				"type": "channel",
				"noteNumber": 38,
				"velocity": 99,
				"subtype": "noteOn",
				"realTime": 13804,
				"sortKey": 835
			},
			{
				"deltaTime": 16,
				"channel": 9,
				"type": "channel",
				"subtype": "noteOff",
				"noteNumber": 38,
				"velocity": 64,
				"realTime": 13820,
				"sortKey": 836
			},
			{
				"deltaTime": 8,
				"channel": 9,
				"type": "channel",
				"noteNumber": 35,
				"velocity": 110,
				"subtype": "noteOn",
				"realTime": 13828,
				"sortKey": 837
			},
			{
				"deltaTime": 0,
				"channel": 9,
				"type": "channel",
				"noteNumber": 42,
				"velocity": 77,
				"subtype": "noteOn",
				"realTime": 13828,
				"sortKey": 838
			},
			{
				"deltaTime": 16,
				"channel": 9,
				"type": "channel",
				"subtype": "noteOff",
				"noteNumber": 35,
				"velocity": 64,
				"realTime": 13844,
				"sortKey": 839
			},
			{
				"deltaTime": 0,
				"channel": 9,
				"type": "channel",
				"subtype": "noteOff",
				"noteNumber": 42,
				"velocity": 64,
				"realTime": 13844,
				"sortKey": 840
			},
			{
				"deltaTime": 51,
				"channel": 9,
				"type": "channel",
				"noteNumber": 42,
				"velocity": 56,
				"subtype": "noteOn",
				"realTime": 13895,
				"sortKey": 841
			},
			{
				"deltaTime": 1,
				"channel": 9,
				"type": "channel",
				"noteNumber": 35,
				"velocity": 102,
				"subtype": "noteOn",
				"realTime": 13896,
				"sortKey": 842
			},
			{
				"deltaTime": 15,
				"channel": 9,
				"type": "channel",
				"subtype": "noteOff",
				"noteNumber": 42,
				"velocity": 64,
				"realTime": 13911,
				"sortKey": 843
			},
			{
				"deltaTime": 1,
				"channel": 9,
				"type": "channel",
				"subtype": "noteOff",
				"noteNumber": 35,
				"velocity": 64,
				"realTime": 13912,
				"sortKey": 844
			},
			{
				"deltaTime": 43,
				"channel": 9,
				"type": "channel",
				"noteNumber": 38,
				"velocity": 118,
				"subtype": "noteOn",
				"realTime": 13955,
				"sortKey": 845
			},
			{
				"deltaTime": 2,
				"channel": 9,
				"type": "channel",
				"noteNumber": 42,
				"velocity": 89,
				"subtype": "noteOn",
				"realTime": 13957,
				"sortKey": 846
			},
			{
				"deltaTime": 14,
				"channel": 9,
				"type": "channel",
				"subtype": "noteOff",
				"noteNumber": 38,
				"velocity": 64,
				"realTime": 13971,
				"sortKey": 847
			},
			{
				"deltaTime": 2,
				"channel": 9,
				"type": "channel",
				"subtype": "noteOff",
				"noteNumber": 42,
				"velocity": 64,
				"realTime": 13973,
				"sortKey": 848
			},
			{
				"deltaTime": 47,
				"channel": 9,
				"type": "channel",
				"noteNumber": 42,
				"velocity": 54,
				"subtype": "noteOn",
				"realTime": 14020,
				"sortKey": 849
			},
			{
				"deltaTime": 16,
				"channel": 9,
				"type": "channel",
				"subtype": "noteOff",
				"noteNumber": 42,
				"velocity": 64,
				"realTime": 14036,
				"sortKey": 850
			},
			{
				"deltaTime": 20,
				"channel": 9,
				"type": "channel",
				"noteNumber": 38,
				"velocity": 101,
				"subtype": "noteOn",
				"realTime": 14056,
				"sortKey": 851
			},
			{
				"deltaTime": 16,
				"channel": 9,
				"type": "channel",
				"subtype": "noteOff",
				"noteNumber": 38,
				"velocity": 64,
				"realTime": 14072,
				"sortKey": 852
			},
			{
				"deltaTime": 12,
				"channel": 9,
				"type": "channel",
				"noteNumber": 42,
				"velocity": 84,
				"subtype": "noteOn",
				"realTime": 14084,
				"sortKey": 853
			},
			{
				"deltaTime": 1,
				"channel": 9,
				"type": "channel",
				"noteNumber": 35,
				"velocity": 102,
				"subtype": "noteOn",
				"realTime": 14085,
				"sortKey": 854
			},
			{
				"deltaTime": 15,
				"channel": 9,
				"type": "channel",
				"subtype": "noteOff",
				"noteNumber": 42,
				"velocity": 64,
				"realTime": 14100,
				"sortKey": 855
			},
			{
				"deltaTime": 1,
				"channel": 9,
				"type": "channel",
				"subtype": "noteOff",
				"noteNumber": 35,
				"velocity": 64,
				"realTime": 14101,
				"sortKey": 856
			},
			{
				"deltaTime": 49,
				"channel": 9,
				"type": "channel",
				"noteNumber": 35,
				"velocity": 100,
				"subtype": "noteOn",
				"realTime": 14150,
				"sortKey": 857
			},
			{
				"deltaTime": 0,
				"channel": 9,
				"type": "channel",
				"noteNumber": 42,
				"velocity": 45,
				"subtype": "noteOn",
				"realTime": 14150,
				"sortKey": 858
			},
			{
				"deltaTime": 16,
				"channel": 9,
				"type": "channel",
				"subtype": "noteOff",
				"noteNumber": 35,
				"velocity": 64,
				"realTime": 14166,
				"sortKey": 859
			},
			{
				"deltaTime": 0,
				"channel": 9,
				"type": "channel",
				"subtype": "noteOff",
				"noteNumber": 42,
				"velocity": 64,
				"realTime": 14166,
				"sortKey": 860
			},
			{
				"deltaTime": 45,
				"channel": 9,
				"type": "channel",
				"noteNumber": 38,
				"velocity": 112,
				"subtype": "noteOn",
				"realTime": 14211,
				"sortKey": 861
			},
			{
				"deltaTime": 1,
				"channel": 9,
				"type": "channel",
				"noteNumber": 42,
				"velocity": 103,
				"subtype": "noteOn",
				"realTime": 14212,
				"sortKey": 862
			},
			{
				"deltaTime": 15,
				"channel": 9,
				"type": "channel",
				"subtype": "noteOff",
				"noteNumber": 38,
				"velocity": 64,
				"realTime": 14227,
				"sortKey": 863
			},
			{
				"deltaTime": 1,
				"channel": 9,
				"type": "channel",
				"subtype": "noteOff",
				"noteNumber": 42,
				"velocity": 64,
				"realTime": 14228,
				"sortKey": 864
			},
			{
				"deltaTime": 48,
				"channel": 9,
				"type": "channel",
				"noteNumber": 42,
				"velocity": 41,
				"subtype": "noteOn",
				"realTime": 14276,
				"sortKey": 865
			},
			{
				"deltaTime": 16,
				"channel": 9,
				"type": "channel",
				"subtype": "noteOff",
				"noteNumber": 42,
				"velocity": 64,
				"realTime": 14292,
				"sortKey": 866
			},
			{
				"deltaTime": 18,
				"channel": 9,
				"type": "channel",
				"noteNumber": 38,
				"velocity": 102,
				"subtype": "noteOn",
				"realTime": 14310,
				"sortKey": 867
			},
			{
				"deltaTime": 16,
				"channel": 9,
				"type": "channel",
				"subtype": "noteOff",
				"noteNumber": 38,
				"velocity": 64,
				"realTime": 14326,
				"sortKey": 868
			},
			{
				"deltaTime": 12,
				"channel": 9,
				"type": "channel",
				"noteNumber": 35,
				"velocity": 112,
				"subtype": "noteOn",
				"realTime": 14338,
				"sortKey": 869
			},
			{
				"deltaTime": 1,
				"channel": 9,
				"type": "channel",
				"noteNumber": 42,
				"velocity": 79,
				"subtype": "noteOn",
				"realTime": 14339,
				"sortKey": 870
			},
			{
				"deltaTime": 15,
				"channel": 9,
				"type": "channel",
				"subtype": "noteOff",
				"noteNumber": 35,
				"velocity": 64,
				"realTime": 14354,
				"sortKey": 871
			},
			{
				"deltaTime": 1,
				"channel": 9,
				"type": "channel",
				"subtype": "noteOff",
				"noteNumber": 42,
				"velocity": 64,
				"realTime": 14355,
				"sortKey": 872
			},
			{
				"deltaTime": 50,
				"channel": 9,
				"type": "channel",
				"noteNumber": 42,
				"velocity": 57,
				"subtype": "noteOn",
				"realTime": 14405,
				"sortKey": 873
			},
			{
				"deltaTime": 0,
				"channel": 9,
				"type": "channel",
				"noteNumber": 35,
				"velocity": 100,
				"subtype": "noteOn",
				"realTime": 14405,
				"sortKey": 874
			},
			{
				"deltaTime": 16,
				"channel": 9,
				"type": "channel",
				"subtype": "noteOff",
				"noteNumber": 42,
				"velocity": 64,
				"realTime": 14421,
				"sortKey": 875
			},
			{
				"deltaTime": 0,
				"channel": 9,
				"type": "channel",
				"subtype": "noteOff",
				"noteNumber": 35,
				"velocity": 64,
				"realTime": 14421,
				"sortKey": 876
			},
			{
				"deltaTime": 45,
				"channel": 9,
				"type": "channel",
				"noteNumber": 38,
				"velocity": 117,
				"subtype": "noteOn",
				"realTime": 14466,
				"sortKey": 877
			},
			{
				"deltaTime": 1,
				"channel": 9,
				"type": "channel",
				"noteNumber": 42,
				"velocity": 95,
				"subtype": "noteOn",
				"realTime": 14467,
				"sortKey": 878
			},
			{
				"deltaTime": 15,
				"channel": 9,
				"type": "channel",
				"subtype": "noteOff",
				"noteNumber": 38,
				"velocity": 64,
				"realTime": 14482,
				"sortKey": 879
			},
			{
				"deltaTime": 1,
				"channel": 9,
				"type": "channel",
				"subtype": "noteOff",
				"noteNumber": 42,
				"velocity": 64,
				"realTime": 14483,
				"sortKey": 880
			},
			{
				"deltaTime": 48,
				"channel": 9,
				"type": "channel",
				"noteNumber": 42,
				"velocity": 51,
				"subtype": "noteOn",
				"realTime": 14531,
				"sortKey": 881
			},
			{
				"deltaTime": 16,
				"channel": 9,
				"type": "channel",
				"subtype": "noteOff",
				"noteNumber": 42,
				"velocity": 64,
				"realTime": 14547,
				"sortKey": 882
			},
			{
				"deltaTime": 20,
				"channel": 9,
				"type": "channel",
				"noteNumber": 38,
				"velocity": 103,
				"subtype": "noteOn",
				"realTime": 14567,
				"sortKey": 883
			},
			{
				"deltaTime": 16,
				"channel": 9,
				"type": "channel",
				"subtype": "noteOff",
				"noteNumber": 38,
				"velocity": 64,
				"realTime": 14583,
				"sortKey": 884
			},
			{
				"deltaTime": 12,
				"channel": 9,
				"type": "channel",
				"noteNumber": 35,
				"velocity": 104,
				"subtype": "noteOn",
				"realTime": 14595,
				"sortKey": 885
			},
			{
				"deltaTime": 2,
				"channel": 9,
				"type": "channel",
				"noteNumber": 42,
				"velocity": 79,
				"subtype": "noteOn",
				"realTime": 14597,
				"sortKey": 886
			},
			{
				"deltaTime": 14,
				"channel": 9,
				"type": "channel",
				"subtype": "noteOff",
				"noteNumber": 35,
				"velocity": 64,
				"realTime": 14611,
				"sortKey": 887
			},
			{
				"deltaTime": 2,
				"channel": 9,
				"type": "channel",
				"subtype": "noteOff",
				"noteNumber": 42,
				"velocity": 64,
				"realTime": 14613,
				"sortKey": 888
			},
			{
				"deltaTime": 48,
				"channel": 9,
				"type": "channel",
				"noteNumber": 35,
				"velocity": 101,
				"subtype": "noteOn",
				"realTime": 14661,
				"sortKey": 889
			},
			{
				"deltaTime": 0,
				"channel": 9,
				"type": "channel",
				"noteNumber": 42,
				"velocity": 60,
				"subtype": "noteOn",
				"realTime": 14661,
				"sortKey": 890
			},
			{
				"deltaTime": 16,
				"channel": 9,
				"type": "channel",
				"subtype": "noteOff",
				"noteNumber": 35,
				"velocity": 64,
				"realTime": 14677,
				"sortKey": 891
			},
			{
				"deltaTime": 0,
				"channel": 9,
				"type": "channel",
				"subtype": "noteOff",
				"noteNumber": 42,
				"velocity": 64,
				"realTime": 14677,
				"sortKey": 892
			},
			{
				"deltaTime": 46,
				"channel": 9,
				"type": "channel",
				"noteNumber": 38,
				"velocity": 116,
				"subtype": "noteOn",
				"realTime": 14723,
				"sortKey": 893
			},
			{
				"deltaTime": 2,
				"channel": 9,
				"type": "channel",
				"noteNumber": 42,
				"velocity": 87,
				"subtype": "noteOn",
				"realTime": 14725,
				"sortKey": 894
			},
			{
				"deltaTime": 14,
				"channel": 9,
				"type": "channel",
				"subtype": "noteOff",
				"noteNumber": 38,
				"velocity": 64,
				"realTime": 14739,
				"sortKey": 895
			},
			{
				"deltaTime": 2,
				"channel": 9,
				"type": "channel",
				"subtype": "noteOff",
				"noteNumber": 42,
				"velocity": 64,
				"realTime": 14741,
				"sortKey": 896
			},
			{
				"deltaTime": 47,
				"channel": 9,
				"type": "channel",
				"noteNumber": 42,
				"velocity": 48,
				"subtype": "noteOn",
				"realTime": 14788,
				"sortKey": 897
			},
			{
				"deltaTime": 16,
				"channel": 9,
				"type": "channel",
				"subtype": "noteOff",
				"noteNumber": 42,
				"velocity": 64,
				"realTime": 14804,
				"sortKey": 898
			},
			{
				"deltaTime": 22,
				"channel": 9,
				"type": "channel",
				"noteNumber": 38,
				"velocity": 93,
				"subtype": "noteOn",
				"realTime": 14826,
				"sortKey": 899
			},
			{
				"deltaTime": 16,
				"channel": 9,
				"type": "channel",
				"subtype": "noteOff",
				"noteNumber": 38,
				"velocity": 64,
				"realTime": 14842,
				"sortKey": 900
			},
			{
				"deltaTime": 10,
				"channel": 9,
				"type": "channel",
				"noteNumber": 35,
				"velocity": 108,
				"subtype": "noteOn",
				"realTime": 14852,
				"sortKey": 901
			},
			{
				"deltaTime": 0,
				"channel": 9,
				"type": "channel",
				"noteNumber": 42,
				"velocity": 85,
				"subtype": "noteOn",
				"realTime": 14852,
				"sortKey": 902
			},
			{
				"deltaTime": 16,
				"channel": 9,
				"type": "channel",
				"subtype": "noteOff",
				"noteNumber": 35,
				"velocity": 64,
				"realTime": 14868,
				"sortKey": 903
			},
			{
				"deltaTime": 0,
				"channel": 9,
				"type": "channel",
				"subtype": "noteOff",
				"noteNumber": 42,
				"velocity": 64,
				"realTime": 14868,
				"sortKey": 904
			},
			{
				"deltaTime": 51,
				"channel": 9,
				"type": "channel",
				"noteNumber": 42,
				"velocity": 49,
				"subtype": "noteOn",
				"realTime": 14919,
				"sortKey": 905
			},
			{
				"deltaTime": 0,
				"channel": 9,
				"type": "channel",
				"noteNumber": 35,
				"velocity": 98,
				"subtype": "noteOn",
				"realTime": 14919,
				"sortKey": 906
			},
			{
				"deltaTime": 16,
				"channel": 9,
				"type": "channel",
				"subtype": "noteOff",
				"noteNumber": 42,
				"velocity": 64,
				"realTime": 14935,
				"sortKey": 907
			},
			{
				"deltaTime": 0,
				"channel": 9,
				"type": "channel",
				"subtype": "noteOff",
				"noteNumber": 35,
				"velocity": 64,
				"realTime": 14935,
				"sortKey": 908
			},
			{
				"deltaTime": 43,
				"channel": 9,
				"type": "channel",
				"noteNumber": 38,
				"velocity": 113,
				"subtype": "noteOn",
				"realTime": 14978,
				"sortKey": 909
			},
			{
				"deltaTime": 2,
				"channel": 9,
				"type": "channel",
				"noteNumber": 42,
				"velocity": 91,
				"subtype": "noteOn",
				"realTime": 14980,
				"sortKey": 910
			},
			{
				"deltaTime": 14,
				"channel": 9,
				"type": "channel",
				"subtype": "noteOff",
				"noteNumber": 38,
				"velocity": 64,
				"realTime": 14994,
				"sortKey": 911
			},
			{
				"deltaTime": 2,
				"channel": 9,
				"type": "channel",
				"subtype": "noteOff",
				"noteNumber": 42,
				"velocity": 64,
				"realTime": 14996,
				"sortKey": 912
			},
			{
				"deltaTime": 46,
				"channel": 9,
				"type": "channel",
				"noteNumber": 42,
				"velocity": 49,
				"subtype": "noteOn",
				"realTime": 15042,
				"sortKey": 913
			},
			{
				"deltaTime": 16,
				"channel": 9,
				"type": "channel",
				"subtype": "noteOff",
				"noteNumber": 42,
				"velocity": 64,
				"realTime": 15058,
				"sortKey": 914
			},
			{
				"deltaTime": 25,
				"channel": 9,
				"type": "channel",
				"noteNumber": 38,
				"velocity": 98,
				"subtype": "noteOn",
				"realTime": 15083,
				"sortKey": 915
			},
			{
				"deltaTime": 16,
				"channel": 9,
				"type": "channel",
				"subtype": "noteOff",
				"noteNumber": 38,
				"velocity": 64,
				"realTime": 15099,
				"sortKey": 916
			},
			{
				"deltaTime": 8,
				"channel": 9,
				"type": "channel",
				"noteNumber": 42,
				"velocity": 74,
				"subtype": "noteOn",
				"realTime": 15107,
				"sortKey": 917
			},
			{
				"deltaTime": 1,
				"channel": 9,
				"type": "channel",
				"noteNumber": 35,
				"velocity": 101,
				"subtype": "noteOn",
				"realTime": 15108,
				"sortKey": 918
			},
			{
				"deltaTime": 15,
				"channel": 9,
				"type": "channel",
				"subtype": "noteOff",
				"noteNumber": 42,
				"velocity": 64,
				"realTime": 15123,
				"sortKey": 919
			},
			{
				"deltaTime": 1,
				"channel": 9,
				"type": "channel",
				"subtype": "noteOff",
				"noteNumber": 35,
				"velocity": 64,
				"realTime": 15124,
				"sortKey": 920
			},
			{
				"deltaTime": 48,
				"channel": 9,
				"type": "channel",
				"noteNumber": 35,
				"velocity": 100,
				"subtype": "noteOn",
				"realTime": 15172,
				"sortKey": 921
			},
			{
				"deltaTime": 1,
				"channel": 9,
				"type": "channel",
				"noteNumber": 42,
				"velocity": 59,
				"subtype": "noteOn",
				"realTime": 15173,
				"sortKey": 922
			},
			{
				"deltaTime": 15,
				"channel": 9,
				"type": "channel",
				"subtype": "noteOff",
				"noteNumber": 35,
				"velocity": 64,
				"realTime": 15188,
				"sortKey": 923
			},
			{
				"deltaTime": 1,
				"channel": 9,
				"type": "channel",
				"subtype": "noteOff",
				"noteNumber": 42,
				"velocity": 64,
				"realTime": 15189,
				"sortKey": 924
			},
			{
				"deltaTime": 46,
				"channel": 9,
				"type": "channel",
				"noteNumber": 38,
				"velocity": 119,
				"subtype": "noteOn",
				"realTime": 15235,
				"sortKey": 925
			},
			{
				"deltaTime": 1,
				"channel": 9,
				"type": "channel",
				"noteNumber": 42,
				"velocity": 86,
				"subtype": "noteOn",
				"realTime": 15236,
				"sortKey": 926
			},
			{
				"deltaTime": 15,
				"channel": 9,
				"type": "channel",
				"subtype": "noteOff",
				"noteNumber": 38,
				"velocity": 64,
				"realTime": 15251,
				"sortKey": 927
			},
			{
				"deltaTime": 1,
				"channel": 9,
				"type": "channel",
				"subtype": "noteOff",
				"noteNumber": 42,
				"velocity": 64,
				"realTime": 15252,
				"sortKey": 928
			},
			{
				"deltaTime": 47,
				"channel": 9,
				"type": "channel",
				"noteNumber": 42,
				"velocity": 52,
				"subtype": "noteOn",
				"realTime": 15299,
				"sortKey": 929
			},
			{
				"deltaTime": 16,
				"channel": 9,
				"type": "channel",
				"subtype": "noteOff",
				"noteNumber": 42,
				"velocity": 64,
				"realTime": 15315,
				"sortKey": 930
			},
			{
				"deltaTime": 21,
				"channel": 9,
				"type": "channel",
				"noteNumber": 38,
				"velocity": 97,
				"subtype": "noteOn",
				"realTime": 15336,
				"sortKey": 931
			},
			{
				"deltaTime": 16,
				"channel": 9,
				"type": "channel",
				"subtype": "noteOff",
				"noteNumber": 38,
				"velocity": 64,
				"realTime": 15352,
				"sortKey": 932
			},
			{
				"deltaTime": 11,
				"channel": 9,
				"type": "channel",
				"noteNumber": 35,
				"velocity": 109,
				"subtype": "noteOn",
				"realTime": 15363,
				"sortKey": 933
			},
			{
				"deltaTime": 1,
				"channel": 9,
				"type": "channel",
				"noteNumber": 42,
				"velocity": 77,
				"subtype": "noteOn",
				"realTime": 15364,
				"sortKey": 934
			},
			{
				"deltaTime": 15,
				"channel": 9,
				"type": "channel",
				"subtype": "noteOff",
				"noteNumber": 35,
				"velocity": 64,
				"realTime": 15379,
				"sortKey": 935
			},
			{
				"deltaTime": 1,
				"channel": 9,
				"type": "channel",
				"subtype": "noteOff",
				"noteNumber": 42,
				"velocity": 64,
				"realTime": 15380,
				"sortKey": 936
			},
			{
				"deltaTime": 50,
				"channel": 9,
				"type": "channel",
				"noteNumber": 35,
				"velocity": 99,
				"subtype": "noteOn",
				"realTime": 15430,
				"sortKey": 937
			},
			{
				"deltaTime": 1,
				"channel": 9,
				"type": "channel",
				"noteNumber": 42,
				"velocity": 53,
				"subtype": "noteOn",
				"realTime": 15431,
				"sortKey": 938
			},
			{
				"deltaTime": 15,
				"channel": 9,
				"type": "channel",
				"subtype": "noteOff",
				"noteNumber": 35,
				"velocity": 64,
				"realTime": 15446,
				"sortKey": 939
			},
			{
				"deltaTime": 1,
				"channel": 9,
				"type": "channel",
				"subtype": "noteOff",
				"noteNumber": 42,
				"velocity": 64,
				"realTime": 15447,
				"sortKey": 940
			},
			{
				"deltaTime": 46,
				"channel": 9,
				"type": "channel",
				"noteNumber": 38,
				"velocity": 115,
				"subtype": "noteOn",
				"realTime": 15493,
				"sortKey": 941
			},
			{
				"deltaTime": 1,
				"channel": 9,
				"type": "channel",
				"noteNumber": 42,
				"velocity": 88,
				"subtype": "noteOn",
				"realTime": 15494,
				"sortKey": 942
			},
			{
				"deltaTime": 15,
				"channel": 9,
				"type": "channel",
				"subtype": "noteOff",
				"noteNumber": 38,
				"velocity": 64,
				"realTime": 15509,
				"sortKey": 943
			},
			{
				"deltaTime": 1,
				"channel": 9,
				"type": "channel",
				"subtype": "noteOff",
				"noteNumber": 42,
				"velocity": 64,
				"realTime": 15510,
				"sortKey": 944
			},
			{
				"deltaTime": 49,
				"channel": 9,
				"type": "channel",
				"noteNumber": 42,
				"velocity": 45,
				"subtype": "noteOn",
				"realTime": 15559,
				"sortKey": 945
			},
			{
				"deltaTime": 16,
				"channel": 9,
				"type": "channel",
				"subtype": "noteOff",
				"noteNumber": 42,
				"velocity": 64,
				"realTime": 15575,
				"sortKey": 946
			},
			{
				"deltaTime": 22,
				"channel": 9,
				"type": "channel",
				"noteNumber": 38,
				"velocity": 97,
				"subtype": "noteOn",
				"realTime": 15597,
				"sortKey": 947
			},
			{
				"deltaTime": 16,
				"channel": 9,
				"type": "channel",
				"subtype": "noteOff",
				"noteNumber": 38,
				"velocity": 64,
				"realTime": 15613,
				"sortKey": 948
			},
			{
				"deltaTime": 8,
				"channel": 9,
				"type": "channel",
				"noteNumber": 42,
				"velocity": 73,
				"subtype": "noteOn",
				"realTime": 15621,
				"sortKey": 949
			},
			{
				"deltaTime": 1,
				"channel": 9,
				"type": "channel",
				"noteNumber": 35,
				"velocity": 106,
				"subtype": "noteOn",
				"realTime": 15622,
				"sortKey": 950
			},
			{
				"deltaTime": 15,
				"channel": 9,
				"type": "channel",
				"subtype": "noteOff",
				"noteNumber": 42,
				"velocity": 64,
				"realTime": 15637,
				"sortKey": 951
			},
			{
				"deltaTime": 1,
				"channel": 9,
				"type": "channel",
				"subtype": "noteOff",
				"noteNumber": 35,
				"velocity": 64,
				"realTime": 15638,
				"sortKey": 952
			},
			{
				"deltaTime": 51,
				"channel": 9,
				"type": "channel",
				"noteNumber": 42,
				"velocity": 53,
				"subtype": "noteOn",
				"realTime": 15689,
				"sortKey": 953
			},
			{
				"deltaTime": 1,
				"channel": 9,
				"type": "channel",
				"noteNumber": 35,
				"velocity": 100,
				"subtype": "noteOn",
				"realTime": 15690,
				"sortKey": 954
			},
			{
				"deltaTime": 15,
				"channel": 9,
				"type": "channel",
				"subtype": "noteOff",
				"noteNumber": 42,
				"velocity": 64,
				"realTime": 15705,
				"sortKey": 955
			},
			{
				"deltaTime": 1,
				"channel": 9,
				"type": "channel",
				"subtype": "noteOff",
				"noteNumber": 35,
				"velocity": 64,
				"realTime": 15706,
				"sortKey": 956
			},
			{
				"deltaTime": 42,
				"channel": 9,
				"type": "channel",
				"noteNumber": 38,
				"velocity": 118,
				"subtype": "noteOn",
				"realTime": 15748,
				"sortKey": 957
			},
			{
				"deltaTime": 1,
				"channel": 9,
				"type": "channel",
				"noteNumber": 42,
				"velocity": 86,
				"subtype": "noteOn",
				"realTime": 15749,
				"sortKey": 958
			},
			{
				"deltaTime": 15,
				"channel": 9,
				"type": "channel",
				"subtype": "noteOff",
				"noteNumber": 38,
				"velocity": 64,
				"realTime": 15764,
				"sortKey": 959
			},
			{
				"deltaTime": 1,
				"channel": 9,
				"type": "channel",
				"subtype": "noteOff",
				"noteNumber": 42,
				"velocity": 64,
				"realTime": 15765,
				"sortKey": 960
			},
			{
				"deltaTime": 47,
				"channel": 9,
				"type": "channel",
				"noteNumber": 42,
				"velocity": 51,
				"subtype": "noteOn",
				"realTime": 15812,
				"sortKey": 961
			},
			{
				"deltaTime": 16,
				"channel": 9,
				"type": "channel",
				"subtype": "noteOff",
				"noteNumber": 42,
				"velocity": 64,
				"realTime": 15828,
				"sortKey": 962
			},
			{
				"deltaTime": 22,
				"channel": 9,
				"type": "channel",
				"noteNumber": 38,
				"velocity": 100,
				"subtype": "noteOn",
				"realTime": 15850,
				"sortKey": 963
			},
			{
				"deltaTime": 16,
				"channel": 9,
				"type": "channel",
				"subtype": "noteOff",
				"noteNumber": 38,
				"velocity": 64,
				"realTime": 15866,
				"sortKey": 964
			},
			{
				"deltaTime": 9,
				"channel": 9,
				"type": "channel",
				"noteNumber": 35,
				"velocity": 111,
				"subtype": "noteOn",
				"realTime": 15875,
				"sortKey": 965
			},
			{
				"deltaTime": 2,
				"channel": 9,
				"type": "channel",
				"noteNumber": 42,
				"velocity": 73,
				"subtype": "noteOn",
				"realTime": 15877,
				"sortKey": 966
			},
			{
				"deltaTime": 14,
				"channel": 9,
				"type": "channel",
				"subtype": "noteOff",
				"noteNumber": 35,
				"velocity": 64,
				"realTime": 15891,
				"sortKey": 967
			},
			{
				"deltaTime": 2,
				"channel": 9,
				"type": "channel",
				"subtype": "noteOff",
				"noteNumber": 42,
				"velocity": 64,
				"realTime": 15893,
				"sortKey": 968
			},
			{
				"deltaTime": 49,
				"channel": 9,
				"type": "channel",
				"noteNumber": 35,
				"velocity": 106,
				"subtype": "noteOn",
				"realTime": 15942,
				"sortKey": 969
			},
			{
				"deltaTime": 0,
				"channel": 9,
				"type": "channel",
				"noteNumber": 42,
				"velocity": 60,
				"subtype": "noteOn",
				"realTime": 15942,
				"sortKey": 970
			},
			{
				"deltaTime": 16,
				"channel": 9,
				"type": "channel",
				"subtype": "noteOff",
				"noteNumber": 35,
				"velocity": 64,
				"realTime": 15958,
				"sortKey": 971
			},
			{
				"deltaTime": 0,
				"channel": 9,
				"type": "channel",
				"subtype": "noteOff",
				"noteNumber": 42,
				"velocity": 64,
				"realTime": 15958,
				"sortKey": 972
			},
			{
				"deltaTime": 45,
				"channel": 9,
				"type": "channel",
				"noteNumber": 38,
				"velocity": 112,
				"subtype": "noteOn",
				"realTime": 16003,
				"sortKey": 973
			},
			{
				"deltaTime": 1,
				"channel": 9,
				"type": "channel",
				"noteNumber": 42,
				"velocity": 86,
				"subtype": "noteOn",
				"realTime": 16004,
				"sortKey": 974
			},
			{
				"deltaTime": 15,
				"channel": 9,
				"type": "channel",
				"subtype": "noteOff",
				"noteNumber": 38,
				"velocity": 64,
				"realTime": 16019,
				"sortKey": 975
			},
			{
				"deltaTime": 1,
				"channel": 9,
				"type": "channel",
				"subtype": "noteOff",
				"noteNumber": 42,
				"velocity": 64,
				"realTime": 16020,
				"sortKey": 976
			},
			{
				"deltaTime": 46,
				"channel": 9,
				"type": "channel",
				"noteNumber": 42,
				"velocity": 48,
				"subtype": "noteOn",
				"realTime": 16066,
				"sortKey": 977
			},
			{
				"deltaTime": 16,
				"channel": 9,
				"type": "channel",
				"subtype": "noteOff",
				"noteNumber": 42,
				"velocity": 64,
				"realTime": 16082,
				"sortKey": 978
			},
			{
				"deltaTime": 21,
				"channel": 9,
				"type": "channel",
				"noteNumber": 38,
				"velocity": 104,
				"subtype": "noteOn",
				"realTime": 16103,
				"sortKey": 979
			},
			{
				"deltaTime": 16,
				"channel": 9,
				"type": "channel",
				"subtype": "noteOff",
				"noteNumber": 38,
				"velocity": 64,
				"realTime": 16119,
				"sortKey": 980
			},
			{
				"deltaTime": 13,
				"channel": 9,
				"type": "channel",
				"noteNumber": 35,
				"velocity": 101,
				"subtype": "noteOn",
				"realTime": 16132,
				"sortKey": 981
			},
			{
				"deltaTime": 1,
				"channel": 9,
				"type": "channel",
				"noteNumber": 42,
				"velocity": 84,
				"subtype": "noteOn",
				"realTime": 16133,
				"sortKey": 982
			},
			{
				"deltaTime": 15,
				"channel": 9,
				"type": "channel",
				"subtype": "noteOff",
				"noteNumber": 35,
				"velocity": 64,
				"realTime": 16148,
				"sortKey": 983
			},
			{
				"deltaTime": 1,
				"channel": 9,
				"type": "channel",
				"subtype": "noteOff",
				"noteNumber": 42,
				"velocity": 64,
				"realTime": 16149,
				"sortKey": 984
			},
			{
				"deltaTime": 50,
				"channel": 9,
				"type": "channel",
				"noteNumber": 35,
				"velocity": 102,
				"subtype": "noteOn",
				"realTime": 16199,
				"sortKey": 985
			},
			{
				"deltaTime": 1,
				"channel": 9,
				"type": "channel",
				"noteNumber": 42,
				"velocity": 44,
				"subtype": "noteOn",
				"realTime": 16200,
				"sortKey": 986
			},
			{
				"deltaTime": 15,
				"channel": 9,
				"type": "channel",
				"subtype": "noteOff",
				"noteNumber": 35,
				"velocity": 64,
				"realTime": 16215,
				"sortKey": 987
			},
			{
				"deltaTime": 1,
				"channel": 9,
				"type": "channel",
				"subtype": "noteOff",
				"noteNumber": 42,
				"velocity": 64,
				"realTime": 16216,
				"sortKey": 988
			},
			{
				"deltaTime": 44,
				"channel": 9,
				"type": "channel",
				"noteNumber": 38,
				"velocity": 113,
				"subtype": "noteOn",
				"realTime": 16260,
				"sortKey": 989
			},
			{
				"deltaTime": 1,
				"channel": 9,
				"type": "channel",
				"noteNumber": 42,
				"velocity": 79,
				"subtype": "noteOn",
				"realTime": 16261,
				"sortKey": 990
			},
			{
				"deltaTime": 15,
				"channel": 9,
				"type": "channel",
				"subtype": "noteOff",
				"noteNumber": 38,
				"velocity": 64,
				"realTime": 16276,
				"sortKey": 991
			},
			{
				"deltaTime": 1,
				"channel": 9,
				"type": "channel",
				"subtype": "noteOff",
				"noteNumber": 42,
				"velocity": 64,
				"realTime": 16277,
				"sortKey": 992
			},
			{
				"deltaTime": 46,
				"channel": 9,
				"type": "channel",
				"noteNumber": 42,
				"velocity": 48,
				"subtype": "noteOn",
				"realTime": 16323,
				"sortKey": 993
			},
			{
				"deltaTime": 16,
				"channel": 9,
				"type": "channel",
				"subtype": "noteOff",
				"noteNumber": 42,
				"velocity": 64,
				"realTime": 16339,
				"sortKey": 994
			},
			{
				"deltaTime": 23,
				"channel": 9,
				"type": "channel",
				"noteNumber": 38,
				"velocity": 100,
				"subtype": "noteOn",
				"realTime": 16362,
				"sortKey": 995
			},
			{
				"deltaTime": 16,
				"channel": 9,
				"type": "channel",
				"subtype": "noteOff",
				"noteNumber": 38,
				"velocity": 64,
				"realTime": 16378,
				"sortKey": 996
			},
			{
				"deltaTime": 9,
				"channel": 9,
				"type": "channel",
				"noteNumber": 42,
				"velocity": 73,
				"subtype": "noteOn",
				"realTime": 16387,
				"sortKey": 997
			},
			{
				"deltaTime": 1,
				"channel": 9,
				"type": "channel",
				"noteNumber": 35,
				"velocity": 110,
				"subtype": "noteOn",
				"realTime": 16388,
				"sortKey": 998
			},
			{
				"deltaTime": 15,
				"channel": 9,
				"type": "channel",
				"subtype": "noteOff",
				"noteNumber": 42,
				"velocity": 64,
				"realTime": 16403,
				"sortKey": 999
			},
			{
				"deltaTime": 1,
				"channel": 9,
				"type": "channel",
				"subtype": "noteOff",
				"noteNumber": 35,
				"velocity": 64,
				"realTime": 16404,
				"sortKey": 1000
			},
			{
				"deltaTime": 50,
				"channel": 9,
				"type": "channel",
				"noteNumber": 35,
				"velocity": 103,
				"subtype": "noteOn",
				"realTime": 16454,
				"sortKey": 1001
			},
			{
				"deltaTime": 1,
				"channel": 9,
				"type": "channel",
				"noteNumber": 42,
				"velocity": 51,
				"subtype": "noteOn",
				"realTime": 16455,
				"sortKey": 1002
			},
			{
				"deltaTime": 15,
				"channel": 9,
				"type": "channel",
				"subtype": "noteOff",
				"noteNumber": 35,
				"velocity": 64,
				"realTime": 16470,
				"sortKey": 1003
			},
			{
				"deltaTime": 1,
				"channel": 9,
				"type": "channel",
				"subtype": "noteOff",
				"noteNumber": 42,
				"velocity": 64,
				"realTime": 16471,
				"sortKey": 1004
			},
			{
				"deltaTime": 45,
				"channel": 9,
				"type": "channel",
				"noteNumber": 38,
				"velocity": 119,
				"subtype": "noteOn",
				"realTime": 16516,
				"sortKey": 1005
			},
			{
				"deltaTime": 1,
				"channel": 9,
				"type": "channel",
				"noteNumber": 42,
				"velocity": 85,
				"subtype": "noteOn",
				"realTime": 16517,
				"sortKey": 1006
			},
			{
				"deltaTime": 15,
				"channel": 9,
				"type": "channel",
				"subtype": "noteOff",
				"noteNumber": 38,
				"velocity": 64,
				"realTime": 16532,
				"sortKey": 1007
			},
			{
				"deltaTime": 1,
				"channel": 9,
				"type": "channel",
				"subtype": "noteOff",
				"noteNumber": 42,
				"velocity": 64,
				"realTime": 16533,
				"sortKey": 1008
			},
			{
				"deltaTime": 47,
				"channel": 9,
				"type": "channel",
				"noteNumber": 42,
				"velocity": 53,
				"subtype": "noteOn",
				"realTime": 16580,
				"sortKey": 1009
			},
			{
				"deltaTime": 16,
				"channel": 9,
				"type": "channel",
				"subtype": "noteOff",
				"noteNumber": 42,
				"velocity": 64,
				"realTime": 16596,
				"sortKey": 1010
			},
			{
				"deltaTime": 22,
				"channel": 9,
				"type": "channel",
				"noteNumber": 38,
				"velocity": 94,
				"subtype": "noteOn",
				"realTime": 16618,
				"sortKey": 1011
			},
			{
				"deltaTime": 16,
				"channel": 9,
				"type": "channel",
				"subtype": "noteOff",
				"noteNumber": 38,
				"velocity": 64,
				"realTime": 16634,
				"sortKey": 1012
			},
			{
				"deltaTime": 10,
				"channel": 9,
				"type": "channel",
				"noteNumber": 42,
				"velocity": 69,
				"subtype": "noteOn",
				"realTime": 16644,
				"sortKey": 1013
			},
			{
				"deltaTime": 0,
				"channel": 9,
				"type": "channel",
				"noteNumber": 35,
				"velocity": 102,
				"subtype": "noteOn",
				"realTime": 16644,
				"sortKey": 1014
			},
			{
				"deltaTime": 16,
				"channel": 9,
				"type": "channel",
				"subtype": "noteOff",
				"noteNumber": 42,
				"velocity": 64,
				"realTime": 16660,
				"sortKey": 1015
			},
			{
				"deltaTime": 0,
				"channel": 9,
				"type": "channel",
				"subtype": "noteOff",
				"noteNumber": 35,
				"velocity": 64,
				"realTime": 16660,
				"sortKey": 1016
			},
			{
				"deltaTime": 50,
				"channel": 9,
				"type": "channel",
				"noteNumber": 35,
				"velocity": 98,
				"subtype": "noteOn",
				"realTime": 16710,
				"sortKey": 1017
			},
			{
				"deltaTime": 1,
				"channel": 9,
				"type": "channel",
				"noteNumber": 42,
				"velocity": 55,
				"subtype": "noteOn",
				"realTime": 16711,
				"sortKey": 1018
			},
			{
				"deltaTime": 15,
				"channel": 9,
				"type": "channel",
				"subtype": "noteOff",
				"noteNumber": 35,
				"velocity": 64,
				"realTime": 16726,
				"sortKey": 1019
			},
			{
				"deltaTime": 1,
				"channel": 9,
				"type": "channel",
				"subtype": "noteOff",
				"noteNumber": 42,
				"velocity": 64,
				"realTime": 16727,
				"sortKey": 1020
			},
			{
				"deltaTime": 45,
				"channel": 9,
				"type": "channel",
				"noteNumber": 38,
				"velocity": 114,
				"subtype": "noteOn",
				"realTime": 16772,
				"sortKey": 1021
			},
			{
				"deltaTime": 2,
				"channel": 9,
				"type": "channel",
				"noteNumber": 42,
				"velocity": 85,
				"subtype": "noteOn",
				"realTime": 16774,
				"sortKey": 1022
			},
			{
				"deltaTime": 14,
				"channel": 9,
				"type": "channel",
				"subtype": "noteOff",
				"noteNumber": 38,
				"velocity": 64,
				"realTime": 16788,
				"sortKey": 1023
			},
			{
				"deltaTime": 2,
				"channel": 9,
				"type": "channel",
				"subtype": "noteOff",
				"noteNumber": 42,
				"velocity": 64,
				"realTime": 16790,
				"sortKey": 1024
			},
			{
				"deltaTime": 46,
				"channel": 9,
				"type": "channel",
				"noteNumber": 42,
				"velocity": 48,
				"subtype": "noteOn",
				"realTime": 16836,
				"sortKey": 1025
			},
			{
				"deltaTime": 16,
				"channel": 9,
				"type": "channel",
				"subtype": "noteOff",
				"noteNumber": 42,
				"velocity": 64,
				"realTime": 16852,
				"sortKey": 1026
			},
			{
				"deltaTime": 20,
				"channel": 9,
				"type": "channel",
				"noteNumber": 38,
				"velocity": 93,
				"subtype": "noteOn",
				"realTime": 16872,
				"sortKey": 1027
			},
			{
				"deltaTime": 16,
				"channel": 9,
				"type": "channel",
				"subtype": "noteOff",
				"noteNumber": 38,
				"velocity": 64,
				"realTime": 16888,
				"sortKey": 1028
			},
			{
				"deltaTime": 10,
				"channel": 9,
				"type": "channel",
				"noteNumber": 42,
				"velocity": 81,
				"subtype": "noteOn",
				"realTime": 16898,
				"sortKey": 1029
			},
			{
				"deltaTime": 0,
				"channel": 9,
				"type": "channel",
				"noteNumber": 35,
				"velocity": 111,
				"subtype": "noteOn",
				"realTime": 16898,
				"sortKey": 1030
			},
			{
				"deltaTime": 16,
				"channel": 9,
				"type": "channel",
				"subtype": "noteOff",
				"noteNumber": 42,
				"velocity": 64,
				"realTime": 16914,
				"sortKey": 1031
			},
			{
				"deltaTime": 0,
				"channel": 9,
				"type": "channel",
				"subtype": "noteOff",
				"noteNumber": 35,
				"velocity": 64,
				"realTime": 16914,
				"sortKey": 1032
			},
			{
				"deltaTime": 51,
				"channel": 9,
				"type": "channel",
				"noteNumber": 35,
				"velocity": 100,
				"subtype": "noteOn",
				"realTime": 16965,
				"sortKey": 1033
			},
			{
				"deltaTime": 0,
				"channel": 9,
				"type": "channel",
				"noteNumber": 42,
				"velocity": 69,
				"subtype": "noteOn",
				"realTime": 16965,
				"sortKey": 1034
			},
			{
				"deltaTime": 16,
				"channel": 9,
				"type": "channel",
				"subtype": "noteOff",
				"noteNumber": 35,
				"velocity": 64,
				"realTime": 16981,
				"sortKey": 1035
			},
			{
				"deltaTime": 0,
				"channel": 9,
				"type": "channel",
				"subtype": "noteOff",
				"noteNumber": 42,
				"velocity": 64,
				"realTime": 16981,
				"sortKey": 1036
			},
			{
				"deltaTime": 45,
				"channel": 9,
				"type": "channel",
				"noteNumber": 38,
				"velocity": 116,
				"subtype": "noteOn",
				"realTime": 17026,
				"sortKey": 1037
			},
			{
				"deltaTime": 2,
				"channel": 9,
				"type": "channel",
				"noteNumber": 42,
				"velocity": 102,
				"subtype": "noteOn",
				"realTime": 17028,
				"sortKey": 1038
			},
			{
				"deltaTime": 14,
				"channel": 9,
				"type": "channel",
				"subtype": "noteOff",
				"noteNumber": 38,
				"velocity": 64,
				"realTime": 17042,
				"sortKey": 1039
			},
			{
				"deltaTime": 2,
				"channel": 9,
				"type": "channel",
				"subtype": "noteOff",
				"noteNumber": 42,
				"velocity": 64,
				"realTime": 17044,
				"sortKey": 1040
			},
			{
				"deltaTime": 46,
				"channel": 9,
				"type": "channel",
				"noteNumber": 42,
				"velocity": 54,
				"subtype": "noteOn",
				"realTime": 17090,
				"sortKey": 1041
			},
			{
				"deltaTime": 16,
				"channel": 9,
				"type": "channel",
				"subtype": "noteOff",
				"noteNumber": 42,
				"velocity": 64,
				"realTime": 17106,
				"sortKey": 1042
			},
			{
				"deltaTime": 19,
				"channel": 9,
				"type": "channel",
				"noteNumber": 38,
				"velocity": 102,
				"subtype": "noteOn",
				"realTime": 17125,
				"sortKey": 1043
			},
			{
				"deltaTime": 16,
				"channel": 9,
				"type": "channel",
				"subtype": "noteOff",
				"noteNumber": 38,
				"velocity": 64,
				"realTime": 17141,
				"sortKey": 1044
			},
			{
				"deltaTime": 13,
				"channel": 9,
				"type": "channel",
				"noteNumber": 35,
				"velocity": 106,
				"subtype": "noteOn",
				"realTime": 17154,
				"sortKey": 1045
			},
			{
				"deltaTime": 1,
				"channel": 9,
				"type": "channel",
				"noteNumber": 42,
				"velocity": 81,
				"subtype": "noteOn",
				"realTime": 17155,
				"sortKey": 1046
			},
			{
				"deltaTime": 15,
				"channel": 9,
				"type": "channel",
				"subtype": "noteOff",
				"noteNumber": 35,
				"velocity": 64,
				"realTime": 17170,
				"sortKey": 1047
			},
			{
				"deltaTime": 1,
				"channel": 9,
				"type": "channel",
				"subtype": "noteOff",
				"noteNumber": 42,
				"velocity": 64,
				"realTime": 17171,
				"sortKey": 1048
			},
			{
				"deltaTime": 49,
				"channel": 9,
				"type": "channel",
				"noteNumber": 38,
				"velocity": 108,
				"subtype": "noteOn",
				"realTime": 17220,
				"sortKey": 1049
			},
			{
				"deltaTime": 1,
				"channel": 9,
				"type": "channel",
				"noteNumber": 43,
				"velocity": 93,
				"subtype": "noteOn",
				"realTime": 17221,
				"sortKey": 1050
			},
			{
				"deltaTime": 15,
				"channel": 9,
				"type": "channel",
				"subtype": "noteOff",
				"noteNumber": 38,
				"velocity": 64,
				"realTime": 17236,
				"sortKey": 1051
			},
			{
				"deltaTime": 1,
				"channel": 9,
				"type": "channel",
				"subtype": "noteOff",
				"noteNumber": 43,
				"velocity": 64,
				"realTime": 17237,
				"sortKey": 1052
			},
			{
				"deltaTime": 45,
				"channel": 9,
				"type": "channel",
				"noteNumber": 38,
				"velocity": 118,
				"subtype": "noteOn",
				"realTime": 17282,
				"sortKey": 1053
			},
			{
				"deltaTime": 2,
				"channel": 9,
				"type": "channel",
				"noteNumber": 43,
				"velocity": 108,
				"subtype": "noteOn",
				"realTime": 17284,
				"sortKey": 1054
			},
			{
				"deltaTime": 14,
				"channel": 9,
				"type": "channel",
				"subtype": "noteOff",
				"noteNumber": 38,
				"velocity": 64,
				"realTime": 17298,
				"sortKey": 1055
			},
			{
				"deltaTime": 2,
				"channel": 9,
				"type": "channel",
				"subtype": "noteOff",
				"noteNumber": 43,
				"velocity": 64,
				"realTime": 17300,
				"sortKey": 1056
			},
			{
				"deltaTime": 47,
				"channel": 9,
				"type": "channel",
				"noteNumber": 43,
				"velocity": 117,
				"subtype": "noteOn",
				"realTime": 17347,
				"sortKey": 1057
			},
			{
				"deltaTime": 1,
				"channel": 9,
				"type": "channel",
				"noteNumber": 38,
				"velocity": 122,
				"subtype": "noteOn",
				"realTime": 17348,
				"sortKey": 1058
			},
			{
				"deltaTime": 15,
				"channel": 9,
				"type": "channel",
				"subtype": "noteOff",
				"noteNumber": 43,
				"velocity": 64,
				"realTime": 17363,
				"sortKey": 1059
			},
			{
				"deltaTime": 1,
				"channel": 9,
				"type": "channel",
				"subtype": "noteOff",
				"noteNumber": 38,
				"velocity": 64,
				"realTime": 17364,
				"sortKey": 1060
			},
			{
				"deltaTime": 47,
				"channel": 9,
				"type": "channel",
				"noteNumber": 35,
				"velocity": 111,
				"subtype": "noteOn",
				"realTime": 17411,
				"sortKey": 1061
			},
			{
				"deltaTime": 0,
				"channel": 9,
				"type": "channel",
				"noteNumber": 42,
				"velocity": 86,
				"subtype": "noteOn",
				"realTime": 17411,
				"sortKey": 1062
			},
			{
				"deltaTime": 16,
				"channel": 9,
				"type": "channel",
				"subtype": "noteOff",
				"noteNumber": 35,
				"velocity": 64,
				"realTime": 17427,
				"sortKey": 1063
			},
			{
				"deltaTime": 0,
				"channel": 9,
				"type": "channel",
				"subtype": "noteOff",
				"noteNumber": 42,
				"velocity": 64,
				"realTime": 17427,
				"sortKey": 1064
			},
			{
				"deltaTime": 54,
				"channel": 9,
				"type": "channel",
				"noteNumber": 35,
				"velocity": 100,
				"subtype": "noteOn",
				"realTime": 17481,
				"sortKey": 1065
			},
			{
				"deltaTime": 0,
				"channel": 9,
				"type": "channel",
				"noteNumber": 42,
				"velocity": 51,
				"subtype": "noteOn",
				"realTime": 17481,
				"sortKey": 1066
			},
			{
				"deltaTime": 16,
				"channel": 9,
				"type": "channel",
				"subtype": "noteOff",
				"noteNumber": 35,
				"velocity": 64,
				"realTime": 17497,
				"sortKey": 1067
			},
			{
				"deltaTime": 0,
				"channel": 9,
				"type": "channel",
				"subtype": "noteOff",
				"noteNumber": 42,
				"velocity": 64,
				"realTime": 17497,
				"sortKey": 1068
			},
			{
				"deltaTime": 44,
				"channel": 9,
				"type": "channel",
				"noteNumber": 38,
				"velocity": 121,
				"subtype": "noteOn",
				"realTime": 17541,
				"sortKey": 1069
			},
			{
				"deltaTime": 1,
				"channel": 9,
				"type": "channel",
				"noteNumber": 42,
				"velocity": 73,
				"subtype": "noteOn",
				"realTime": 17542,
				"sortKey": 1070
			},
			{
				"deltaTime": 15,
				"channel": 9,
				"type": "channel",
				"subtype": "noteOff",
				"noteNumber": 38,
				"velocity": 64,
				"realTime": 17557,
				"sortKey": 1071
			},
			{
				"deltaTime": 1,
				"channel": 9,
				"type": "channel",
				"subtype": "noteOff",
				"noteNumber": 42,
				"velocity": 64,
				"realTime": 17558,
				"sortKey": 1072
			},
			{
				"deltaTime": 46,
				"channel": 9,
				"type": "channel",
				"noteNumber": 42,
				"velocity": 50,
				"subtype": "noteOn",
				"realTime": 17604,
				"sortKey": 1073
			},
			{
				"deltaTime": 16,
				"channel": 9,
				"type": "channel",
				"subtype": "noteOff",
				"noteNumber": 42,
				"velocity": 64,
				"realTime": 17620,
				"sortKey": 1074
			},
			{
				"deltaTime": 23,
				"channel": 9,
				"type": "channel",
				"noteNumber": 38,
				"velocity": 102,
				"subtype": "noteOn",
				"realTime": 17643,
				"sortKey": 1075
			},
			{
				"deltaTime": 16,
				"channel": 9,
				"type": "channel",
				"subtype": "noteOff",
				"noteNumber": 38,
				"velocity": 64,
				"realTime": 17659,
				"sortKey": 1076
			},
			{
				"deltaTime": 8,
				"channel": 9,
				"type": "channel",
				"noteNumber": 42,
				"velocity": 75,
				"subtype": "noteOn",
				"realTime": 17667,
				"sortKey": 1077
			},
			{
				"deltaTime": 2,
				"channel": 9,
				"type": "channel",
				"noteNumber": 35,
				"velocity": 103,
				"subtype": "noteOn",
				"realTime": 17669,
				"sortKey": 1078
			},
			{
				"deltaTime": 14,
				"channel": 9,
				"type": "channel",
				"subtype": "noteOff",
				"noteNumber": 42,
				"velocity": 64,
				"realTime": 17683,
				"sortKey": 1079
			},
			{
				"deltaTime": 2,
				"channel": 9,
				"type": "channel",
				"subtype": "noteOff",
				"noteNumber": 35,
				"velocity": 64,
				"realTime": 17685,
				"sortKey": 1080
			},
			{
				"deltaTime": 51,
				"channel": 9,
				"type": "channel",
				"noteNumber": 35,
				"velocity": 99,
				"subtype": "noteOn",
				"realTime": 17736,
				"sortKey": 1081
			},
			{
				"deltaTime": 0,
				"channel": 9,
				"type": "channel",
				"noteNumber": 42,
				"velocity": 60,
				"subtype": "noteOn",
				"realTime": 17736,
				"sortKey": 1082
			},
			{
				"deltaTime": 16,
				"channel": 9,
				"type": "channel",
				"subtype": "noteOff",
				"noteNumber": 35,
				"velocity": 64,
				"realTime": 17752,
				"sortKey": 1083
			},
			{
				"deltaTime": 0,
				"channel": 9,
				"type": "channel",
				"subtype": "noteOff",
				"noteNumber": 42,
				"velocity": 64,
				"realTime": 17752,
				"sortKey": 1084
			},
			{
				"deltaTime": 44,
				"channel": 9,
				"type": "channel",
				"noteNumber": 38,
				"velocity": 118,
				"subtype": "noteOn",
				"realTime": 17796,
				"sortKey": 1085
			},
			{
				"deltaTime": 1,
				"channel": 9,
				"type": "channel",
				"noteNumber": 42,
				"velocity": 74,
				"subtype": "noteOn",
				"realTime": 17797,
				"sortKey": 1086
			},
			{
				"deltaTime": 15,
				"channel": 9,
				"type": "channel",
				"subtype": "noteOff",
				"noteNumber": 38,
				"velocity": 64,
				"realTime": 17812,
				"sortKey": 1087
			},
			{
				"deltaTime": 1,
				"channel": 9,
				"type": "channel",
				"subtype": "noteOff",
				"noteNumber": 42,
				"velocity": 64,
				"realTime": 17813,
				"sortKey": 1088
			},
			{
				"deltaTime": 47,
				"channel": 9,
				"type": "channel",
				"noteNumber": 42,
				"velocity": 55,
				"subtype": "noteOn",
				"realTime": 17860,
				"sortKey": 1089
			},
			{
				"deltaTime": 16,
				"channel": 9,
				"type": "channel",
				"subtype": "noteOff",
				"noteNumber": 42,
				"velocity": 64,
				"realTime": 17876,
				"sortKey": 1090
			},
			{
				"deltaTime": 23,
				"channel": 9,
				"type": "channel",
				"noteNumber": 38,
				"velocity": 104,
				"subtype": "noteOn",
				"realTime": 17899,
				"sortKey": 1091
			},
			{
				"deltaTime": 16,
				"channel": 9,
				"type": "channel",
				"subtype": "noteOff",
				"noteNumber": 38,
				"velocity": 64,
				"realTime": 17915,
				"sortKey": 1092
			},
			{
				"deltaTime": 8,
				"channel": 9,
				"type": "channel",
				"noteNumber": 35,
				"velocity": 105,
				"subtype": "noteOn",
				"realTime": 17923,
				"sortKey": 1093
			},
			{
				"deltaTime": 0,
				"channel": 9,
				"type": "channel",
				"noteNumber": 42,
				"velocity": 78,
				"subtype": "noteOn",
				"realTime": 17923,
				"sortKey": 1094
			},
			{
				"deltaTime": 16,
				"channel": 9,
				"type": "channel",
				"subtype": "noteOff",
				"noteNumber": 35,
				"velocity": 64,
				"realTime": 17939,
				"sortKey": 1095
			},
			{
				"deltaTime": 0,
				"channel": 9,
				"type": "channel",
				"subtype": "noteOff",
				"noteNumber": 42,
				"velocity": 64,
				"realTime": 17939,
				"sortKey": 1096
			},
			{
				"deltaTime": 52,
				"channel": 9,
				"type": "channel",
				"noteNumber": 42,
				"velocity": 54,
				"subtype": "noteOn",
				"realTime": 17991,
				"sortKey": 1097
			},
			{
				"deltaTime": 2,
				"channel": 9,
				"type": "channel",
				"noteNumber": 35,
				"velocity": 100,
				"subtype": "noteOn",
				"realTime": 17993,
				"sortKey": 1098
			},
			{
				"deltaTime": 14,
				"channel": 9,
				"type": "channel",
				"subtype": "noteOff",
				"noteNumber": 42,
				"velocity": 64,
				"realTime": 18007,
				"sortKey": 1099
			},
			{
				"deltaTime": 2,
				"channel": 9,
				"type": "channel",
				"subtype": "noteOff",
				"noteNumber": 35,
				"velocity": 64,
				"realTime": 18009,
				"sortKey": 1100
			},
			{
				"deltaTime": 43,
				"channel": 9,
				"type": "channel",
				"noteNumber": 38,
				"velocity": 104,
				"subtype": "noteOn",
				"realTime": 18052,
				"sortKey": 1101
			},
			{
				"deltaTime": 1,
				"channel": 9,
				"type": "channel",
				"noteNumber": 42,
				"velocity": 83,
				"subtype": "noteOn",
				"realTime": 18053,
				"sortKey": 1102
			},
			{
				"deltaTime": 15,
				"channel": 9,
				"type": "channel",
				"subtype": "noteOff",
				"noteNumber": 38,
				"velocity": 64,
				"realTime": 18068,
				"sortKey": 1103
			},
			{
				"deltaTime": 1,
				"channel": 9,
				"type": "channel",
				"subtype": "noteOff",
				"noteNumber": 42,
				"velocity": 64,
				"realTime": 18069,
				"sortKey": 1104
			},
			{
				"deltaTime": 45,
				"channel": 9,
				"type": "channel",
				"noteNumber": 42,
				"velocity": 51,
				"subtype": "noteOn",
				"realTime": 18114,
				"sortKey": 1105
			},
			{
				"deltaTime": 16,
				"channel": 9,
				"type": "channel",
				"subtype": "noteOff",
				"noteNumber": 42,
				"velocity": 64,
				"realTime": 18130,
				"sortKey": 1106
			},
			{
				"deltaTime": 24,
				"channel": 9,
				"type": "channel",
				"noteNumber": 38,
				"velocity": 91,
				"subtype": "noteOn",
				"realTime": 18154,
				"sortKey": 1107
			},
			{
				"deltaTime": 16,
				"channel": 9,
				"type": "channel",
				"subtype": "noteOff",
				"noteNumber": 38,
				"velocity": 64,
				"realTime": 18170,
				"sortKey": 1108
			},
			{
				"deltaTime": 10,
				"channel": 9,
				"type": "channel",
				"noteNumber": 42,
				"velocity": 77,
				"subtype": "noteOn",
				"realTime": 18180,
				"sortKey": 1109
			},
			{
				"deltaTime": 0,
				"channel": 9,
				"type": "channel",
				"noteNumber": 35,
				"velocity": 101,
				"subtype": "noteOn",
				"realTime": 18180,
				"sortKey": 1110
			},
			{
				"deltaTime": 16,
				"channel": 9,
				"type": "channel",
				"subtype": "noteOff",
				"noteNumber": 42,
				"velocity": 64,
				"realTime": 18196,
				"sortKey": 1111
			},
			{
				"deltaTime": 0,
				"channel": 9,
				"type": "channel",
				"subtype": "noteOff",
				"noteNumber": 35,
				"velocity": 64,
				"realTime": 18196,
				"sortKey": 1112
			},
			{
				"deltaTime": 51,
				"channel": 9,
				"type": "channel",
				"noteNumber": 42,
				"velocity": 64,
				"subtype": "noteOn",
				"realTime": 18247,
				"sortKey": 1113
			},
			{
				"deltaTime": 4,
				"channel": 9,
				"type": "channel",
				"noteNumber": 35,
				"velocity": 99,
				"subtype": "noteOn",
				"realTime": 18251,
				"sortKey": 1114
			},
			{
				"deltaTime": 12,
				"channel": 9,
				"type": "channel",
				"subtype": "noteOff",
				"noteNumber": 42,
				"velocity": 64,
				"realTime": 18263,
				"sortKey": 1115
			},
			{
				"deltaTime": 4,
				"channel": 9,
				"type": "channel",
				"subtype": "noteOff",
				"noteNumber": 35,
				"velocity": 64,
				"realTime": 18267,
				"sortKey": 1116
			},
			{
				"deltaTime": 42,
				"channel": 9,
				"type": "channel",
				"noteNumber": 38,
				"velocity": 117,
				"subtype": "noteOn",
				"realTime": 18309,
				"sortKey": 1117
			},
			{
				"deltaTime": 1,
				"channel": 9,
				"type": "channel",
				"noteNumber": 42,
				"velocity": 95,
				"subtype": "noteOn",
				"realTime": 18310,
				"sortKey": 1118
			},
			{
				"deltaTime": 15,
				"channel": 9,
				"type": "channel",
				"subtype": "noteOff",
				"noteNumber": 38,
				"velocity": 64,
				"realTime": 18325,
				"sortKey": 1119
			},
			{
				"deltaTime": 1,
				"channel": 9,
				"type": "channel",
				"subtype": "noteOff",
				"noteNumber": 42,
				"velocity": 64,
				"realTime": 18326,
				"sortKey": 1120
			},
			{
				"deltaTime": 46,
				"channel": 9,
				"type": "channel",
				"noteNumber": 42,
				"velocity": 51,
				"subtype": "noteOn",
				"realTime": 18372,
				"sortKey": 1121
			},
			{
				"deltaTime": 16,
				"channel": 9,
				"type": "channel",
				"subtype": "noteOff",
				"noteNumber": 42,
				"velocity": 64,
				"realTime": 18388,
				"sortKey": 1122
			},
			{
				"deltaTime": 21,
				"channel": 9,
				"type": "channel",
				"noteNumber": 38,
				"velocity": 99,
				"subtype": "noteOn",
				"realTime": 18409,
				"sortKey": 1123
			},
			{
				"deltaTime": 16,
				"channel": 9,
				"type": "channel",
				"subtype": "noteOff",
				"noteNumber": 38,
				"velocity": 64,
				"realTime": 18425,
				"sortKey": 1124
			},
			{
				"deltaTime": 10,
				"channel": 9,
				"type": "channel",
				"noteNumber": 35,
				"velocity": 108,
				"subtype": "noteOn",
				"realTime": 18435,
				"sortKey": 1125
			},
			{
				"deltaTime": 1,
				"channel": 9,
				"type": "channel",
				"noteNumber": 42,
				"velocity": 71,
				"subtype": "noteOn",
				"realTime": 18436,
				"sortKey": 1126
			},
			{
				"deltaTime": 15,
				"channel": 9,
				"type": "channel",
				"subtype": "noteOff",
				"noteNumber": 35,
				"velocity": 64,
				"realTime": 18451,
				"sortKey": 1127
			},
			{
				"deltaTime": 1,
				"channel": 9,
				"type": "channel",
				"subtype": "noteOff",
				"noteNumber": 42,
				"velocity": 64,
				"realTime": 18452,
				"sortKey": 1128
			},
			{
				"deltaTime": 50,
				"channel": 9,
				"type": "channel",
				"noteNumber": 42,
				"velocity": 54,
				"subtype": "noteOn",
				"realTime": 18502,
				"sortKey": 1129
			},
			{
				"deltaTime": 1,
				"channel": 9,
				"type": "channel",
				"noteNumber": 35,
				"velocity": 98,
				"subtype": "noteOn",
				"realTime": 18503,
				"sortKey": 1130
			},
			{
				"deltaTime": 15,
				"channel": 9,
				"type": "channel",
				"subtype": "noteOff",
				"noteNumber": 42,
				"velocity": 64,
				"realTime": 18518,
				"sortKey": 1131
			},
			{
				"deltaTime": 1,
				"channel": 9,
				"type": "channel",
				"subtype": "noteOff",
				"noteNumber": 35,
				"velocity": 64,
				"realTime": 18519,
				"sortKey": 1132
			},
			{
				"deltaTime": 45,
				"channel": 9,
				"type": "channel",
				"noteNumber": 38,
				"velocity": 119,
				"subtype": "noteOn",
				"realTime": 18564,
				"sortKey": 1133
			},
			{
				"deltaTime": 0,
				"channel": 9,
				"type": "channel",
				"noteNumber": 42,
				"velocity": 63,
				"subtype": "noteOn",
				"realTime": 18564,
				"sortKey": 1134
			},
			{
				"deltaTime": 16,
				"channel": 9,
				"type": "channel",
				"subtype": "noteOff",
				"noteNumber": 38,
				"velocity": 64,
				"realTime": 18580,
				"sortKey": 1135
			},
			{
				"deltaTime": 0,
				"channel": 9,
				"type": "channel",
				"subtype": "noteOff",
				"noteNumber": 42,
				"velocity": 64,
				"realTime": 18580,
				"sortKey": 1136
			},
			{
				"deltaTime": 46,
				"channel": 9,
				"type": "channel",
				"noteNumber": 42,
				"velocity": 54,
				"subtype": "noteOn",
				"realTime": 18626,
				"sortKey": 1137
			},
			{
				"deltaTime": 16,
				"channel": 9,
				"type": "channel",
				"subtype": "noteOff",
				"noteNumber": 42,
				"velocity": 64,
				"realTime": 18642,
				"sortKey": 1138
			},
			{
				"deltaTime": 23,
				"channel": 9,
				"type": "channel",
				"noteNumber": 38,
				"velocity": 95,
				"subtype": "noteOn",
				"realTime": 18665,
				"sortKey": 1139
			},
			{
				"deltaTime": 16,
				"channel": 9,
				"type": "channel",
				"subtype": "noteOff",
				"noteNumber": 38,
				"velocity": 64,
				"realTime": 18681,
				"sortKey": 1140
			},
			{
				"deltaTime": 10,
				"channel": 9,
				"type": "channel",
				"noteNumber": 35,
				"velocity": 104,
				"subtype": "noteOn",
				"realTime": 18691,
				"sortKey": 1141
			},
			{
				"deltaTime": 1,
				"channel": 9,
				"type": "channel",
				"noteNumber": 42,
				"velocity": 75,
				"subtype": "noteOn",
				"realTime": 18692,
				"sortKey": 1142
			},
			{
				"deltaTime": 15,
				"channel": 9,
				"type": "channel",
				"subtype": "noteOff",
				"noteNumber": 35,
				"velocity": 64,
				"realTime": 18707,
				"sortKey": 1143
			},
			{
				"deltaTime": 1,
				"channel": 9,
				"type": "channel",
				"subtype": "noteOff",
				"noteNumber": 42,
				"velocity": 64,
				"realTime": 18708,
				"sortKey": 1144
			},
			{
				"deltaTime": 49,
				"channel": 9,
				"type": "channel",
				"noteNumber": 42,
				"velocity": 61,
				"subtype": "noteOn",
				"realTime": 18757,
				"sortKey": 1145
			},
			{
				"deltaTime": 2,
				"channel": 9,
				"type": "channel",
				"noteNumber": 35,
				"velocity": 99,
				"subtype": "noteOn",
				"realTime": 18759,
				"sortKey": 1146
			},
			{
				"deltaTime": 14,
				"channel": 9,
				"type": "channel",
				"subtype": "noteOff",
				"noteNumber": 42,
				"velocity": 64,
				"realTime": 18773,
				"sortKey": 1147
			},
			{
				"deltaTime": 2,
				"channel": 9,
				"type": "channel",
				"subtype": "noteOff",
				"noteNumber": 35,
				"velocity": 64,
				"realTime": 18775,
				"sortKey": 1148
			},
			{
				"deltaTime": 44,
				"channel": 9,
				"type": "channel",
				"noteNumber": 38,
				"velocity": 114,
				"subtype": "noteOn",
				"realTime": 18819,
				"sortKey": 1149
			},
			{
				"deltaTime": 2,
				"channel": 9,
				"type": "channel",
				"noteNumber": 42,
				"velocity": 69,
				"subtype": "noteOn",
				"realTime": 18821,
				"sortKey": 1150
			},
			{
				"deltaTime": 14,
				"channel": 9,
				"type": "channel",
				"subtype": "noteOff",
				"noteNumber": 38,
				"velocity": 64,
				"realTime": 18835,
				"sortKey": 1151
			},
			{
				"deltaTime": 2,
				"channel": 9,
				"type": "channel",
				"subtype": "noteOff",
				"noteNumber": 42,
				"velocity": 64,
				"realTime": 18837,
				"sortKey": 1152
			},
			{
				"deltaTime": 45,
				"channel": 9,
				"type": "channel",
				"noteNumber": 42,
				"velocity": 50,
				"subtype": "noteOn",
				"realTime": 18882,
				"sortKey": 1153
			},
			{
				"deltaTime": 16,
				"channel": 9,
				"type": "channel",
				"subtype": "noteOff",
				"noteNumber": 42,
				"velocity": 64,
				"realTime": 18898,
				"sortKey": 1154
			},
			{
				"deltaTime": 21,
				"channel": 9,
				"type": "channel",
				"noteNumber": 38,
				"velocity": 105,
				"subtype": "noteOn",
				"realTime": 18919,
				"sortKey": 1155
			},
			{
				"deltaTime": 16,
				"channel": 9,
				"type": "channel",
				"subtype": "noteOff",
				"noteNumber": 38,
				"velocity": 64,
				"realTime": 18935,
				"sortKey": 1156
			},
			{
				"deltaTime": 10,
				"channel": 9,
				"type": "channel",
				"noteNumber": 35,
				"velocity": 112,
				"subtype": "noteOn",
				"realTime": 18945,
				"sortKey": 1157
			},
			{
				"deltaTime": 2,
				"channel": 9,
				"type": "channel",
				"noteNumber": 42,
				"velocity": 83,
				"subtype": "noteOn",
				"realTime": 18947,
				"sortKey": 1158
			},
			{
				"deltaTime": 14,
				"channel": 9,
				"type": "channel",
				"subtype": "noteOff",
				"noteNumber": 35,
				"velocity": 64,
				"realTime": 18961,
				"sortKey": 1159
			},
			{
				"deltaTime": 2,
				"channel": 9,
				"type": "channel",
				"subtype": "noteOff",
				"noteNumber": 42,
				"velocity": 64,
				"realTime": 18963,
				"sortKey": 1160
			},
			{
				"deltaTime": 48,
				"channel": 9,
				"type": "channel",
				"noteNumber": 35,
				"velocity": 104,
				"subtype": "noteOn",
				"realTime": 19011,
				"sortKey": 1161
			},
			{
				"deltaTime": 0,
				"channel": 9,
				"type": "channel",
				"noteNumber": 42,
				"velocity": 51,
				"subtype": "noteOn",
				"realTime": 19011,
				"sortKey": 1162
			},
			{
				"deltaTime": 16,
				"channel": 9,
				"type": "channel",
				"subtype": "noteOff",
				"noteNumber": 35,
				"velocity": 64,
				"realTime": 19027,
				"sortKey": 1163
			},
			{
				"deltaTime": 0,
				"channel": 9,
				"type": "channel",
				"subtype": "noteOff",
				"noteNumber": 42,
				"velocity": 64,
				"realTime": 19027,
				"sortKey": 1164
			},
			{
				"deltaTime": 47,
				"channel": 9,
				"type": "channel",
				"noteNumber": 38,
				"velocity": 120,
				"subtype": "noteOn",
				"realTime": 19074,
				"sortKey": 1165
			},
			{
				"deltaTime": 1,
				"channel": 9,
				"type": "channel",
				"noteNumber": 42,
				"velocity": 85,
				"subtype": "noteOn",
				"realTime": 19075,
				"sortKey": 1166
			},
			{
				"deltaTime": 15,
				"channel": 9,
				"type": "channel",
				"subtype": "noteOff",
				"noteNumber": 38,
				"velocity": 64,
				"realTime": 19090,
				"sortKey": 1167
			},
			{
				"deltaTime": 1,
				"channel": 9,
				"type": "channel",
				"subtype": "noteOff",
				"noteNumber": 42,
				"velocity": 64,
				"realTime": 19091,
				"sortKey": 1168
			},
			{
				"deltaTime": 49,
				"channel": 9,
				"type": "channel",
				"noteNumber": 42,
				"velocity": 50,
				"subtype": "noteOn",
				"realTime": 19140,
				"sortKey": 1169
			},
			{
				"deltaTime": 16,
				"channel": 9,
				"type": "channel",
				"subtype": "noteOff",
				"noteNumber": 42,
				"velocity": 64,
				"realTime": 19156,
				"sortKey": 1170
			},
			{
				"deltaTime": 17,
				"channel": 9,
				"type": "channel",
				"noteNumber": 38,
				"velocity": 110,
				"subtype": "noteOn",
				"realTime": 19173,
				"sortKey": 1171
			},
			{
				"deltaTime": 16,
				"channel": 9,
				"type": "channel",
				"subtype": "noteOff",
				"noteNumber": 38,
				"velocity": 64,
				"realTime": 19189,
				"sortKey": 1172
			},
			{
				"deltaTime": 13,
				"channel": 9,
				"type": "channel",
				"noteNumber": 35,
				"velocity": 96,
				"subtype": "noteOn",
				"realTime": 19202,
				"sortKey": 1173
			},
			{
				"deltaTime": 2,
				"channel": 9,
				"type": "channel",
				"noteNumber": 48,
				"velocity": 120,
				"subtype": "noteOn",
				"realTime": 19204,
				"sortKey": 1174
			},
			{
				"deltaTime": 14,
				"channel": 9,
				"type": "channel",
				"subtype": "noteOff",
				"noteNumber": 35,
				"velocity": 64,
				"realTime": 19218,
				"sortKey": 1175
			},
			{
				"deltaTime": 2,
				"channel": 9,
				"type": "channel",
				"subtype": "noteOff",
				"noteNumber": 48,
				"velocity": 64,
				"realTime": 19220,
				"sortKey": 1176
			},
			{
				"deltaTime": 7,
				"channel": 9,
				"type": "channel",
				"noteNumber": 38,
				"velocity": 71,
				"subtype": "noteOn",
				"realTime": 19227,
				"sortKey": 1177
			},
			{
				"deltaTime": 15,
				"channel": 9,
				"type": "channel",
				"noteNumber": 38,
				"velocity": 59,
				"subtype": "noteOn",
				"realTime": 19242,
				"sortKey": 1178
			},
			{
				"deltaTime": 1,
				"channel": 9,
				"type": "channel",
				"subtype": "noteOff",
				"noteNumber": 38,
				"velocity": 64,
				"realTime": 19243,
				"sortKey": 1179
			},
			{
				"deltaTime": 15,
				"channel": 9,
				"type": "channel",
				"subtype": "noteOff",
				"noteNumber": 38,
				"velocity": 64,
				"realTime": 19258,
				"sortKey": 1180
			},
			{
				"deltaTime": 5,
				"channel": 9,
				"type": "channel",
				"noteNumber": 35,
				"velocity": 83,
				"subtype": "noteOn",
				"realTime": 19263,
				"sortKey": 1181
			},
			{
				"deltaTime": 2,
				"channel": 9,
				"type": "channel",
				"noteNumber": 38,
				"velocity": 120,
				"subtype": "noteOn",
				"realTime": 19265,
				"sortKey": 1182
			},
			{
				"deltaTime": 14,
				"channel": 9,
				"type": "channel",
				"subtype": "noteOff",
				"noteNumber": 35,
				"velocity": 64,
				"realTime": 19279,
				"sortKey": 1183
			},
			{
				"deltaTime": 2,
				"channel": 9,
				"type": "channel",
				"subtype": "noteOff",
				"noteNumber": 38,
				"velocity": 64,
				"realTime": 19281,
				"sortKey": 1184
			},
			{
				"deltaTime": 17,
				"channel": 9,
				"type": "channel",
				"noteNumber": 38,
				"velocity": 125,
				"subtype": "noteOn",
				"realTime": 19298,
				"sortKey": 1185
			},
			{
				"deltaTime": 16,
				"channel": 9,
				"type": "channel",
				"subtype": "noteOff",
				"noteNumber": 38,
				"velocity": 64,
				"realTime": 19314,
				"sortKey": 1186
			},
			{
				"deltaTime": 11,
				"channel": 9,
				"type": "channel",
				"noteNumber": 35,
				"velocity": 110,
				"subtype": "noteOn",
				"realTime": 19325,
				"sortKey": 1187
			},
			{
				"deltaTime": 16,
				"channel": 9,
				"type": "channel",
				"subtype": "noteOff",
				"noteNumber": 35,
				"velocity": 64,
				"realTime": 19341,
				"sortKey": 1188
			},
			{
				"deltaTime": 22,
				"channel": 9,
				"type": "channel",
				"noteNumber": 38,
				"velocity": 122,
				"subtype": "noteOn",
				"realTime": 19363,
				"sortKey": 1189
			},
			{
				"deltaTime": 16,
				"channel": 9,
				"type": "channel",
				"subtype": "noteOff",
				"noteNumber": 38,
				"velocity": 64,
				"realTime": 19379,
				"sortKey": 1190
			},
			{
				"deltaTime": 14,
				"channel": 9,
				"type": "channel",
				"noteNumber": 35,
				"velocity": 74,
				"subtype": "noteOn",
				"realTime": 19393,
				"sortKey": 1191
			},
			{
				"deltaTime": 0,
				"channel": 9,
				"type": "channel",
				"noteNumber": 43,
				"velocity": 125,
				"subtype": "noteOn",
				"realTime": 19393,
				"sortKey": 1192
			},
			{
				"deltaTime": 16,
				"channel": 9,
				"type": "channel",
				"subtype": "noteOff",
				"noteNumber": 35,
				"velocity": 64,
				"realTime": 19409,
				"sortKey": 1193
			},
			{
				"deltaTime": 0,
				"channel": 9,
				"type": "channel",
				"subtype": "noteOff",
				"noteNumber": 43,
				"velocity": 64,
				"realTime": 19409,
				"sortKey": 1194
			},
			{
				"deltaTime": 13,
				"channel": 9,
				"type": "channel",
				"noteNumber": 43,
				"velocity": 117,
				"subtype": "noteOn",
				"realTime": 19422,
				"sortKey": 1195
			},
			{
				"deltaTime": 16,
				"channel": 9,
				"type": "channel",
				"subtype": "noteOff",
				"noteNumber": 43,
				"velocity": 64,
				"realTime": 19438,
				"sortKey": 1196
			},
			{
				"deltaTime": 0,
				"type": "meta",
				"subtype": "endOfTrack"
			}
		],
		[
			{
				"deltaTime": null,
				"channel": 1,
				"type": "channel",
				"noteNumber": 69,
				"velocity": 115,
				"subtype": "noteOn",
				"realTime": 13312,
				"sortKey": 353
			},
			{
				"deltaTime": 48,
				"channel": 1,
				"type": "channel",
				"subtype": "noteOff",
				"noteNumber": 69,
				"velocity": 64,
				"realTime": 13360,
				"sortKey": 354
			},
			{
				"deltaTime": 16,
				"channel": 1,
				"type": "channel",
				"noteNumber": 81,
				"velocity": 113,
				"subtype": "noteOn",
				"realTime": 13376,
				"sortKey": 355
			},
			{
				"deltaTime": 48,
				"channel": 1,
				"type": "channel",
				"subtype": "noteOff",
				"noteNumber": 81,
				"velocity": 64,
				"realTime": 13424,
				"sortKey": 356
			},
			{
				"deltaTime": 16,
				"channel": 1,
				"type": "channel",
				"noteNumber": 79,
				"velocity": 120,
				"subtype": "noteOn",
				"realTime": 13440,
				"sortKey": 357
			},
			{
				"deltaTime": 48,
				"channel": 1,
				"type": "channel",
				"subtype": "noteOff",
				"noteNumber": 79,
				"velocity": 64,
				"realTime": 13488,
				"sortKey": 358
			},
			{
				"deltaTime": 16,
				"channel": 1,
				"type": "channel",
				"noteNumber": 81,
				"velocity": 123,
				"subtype": "noteOn",
				"realTime": 13504,
				"sortKey": 359
			},
			{
				"deltaTime": 80,
				"channel": 1,
				"type": "channel",
				"subtype": "noteOff",
				"noteNumber": 81,
				"velocity": 64,
				"realTime": 13584,
				"sortKey": 360
			},
			{
				"deltaTime": 16,
				"channel": 1,
				"type": "channel",
				"noteNumber": 79,
				"velocity": 120,
				"subtype": "noteOn",
				"realTime": 13600,
				"sortKey": 361
			},
			{
				"deltaTime": 24,
				"channel": 1,
				"type": "channel",
				"subtype": "noteOff",
				"noteNumber": 79,
				"velocity": 64,
				"realTime": 13624,
				"sortKey": 362
			},
			{
				"deltaTime": 8,
				"channel": 1,
				"type": "channel",
				"noteNumber": 81,
				"velocity": 117,
				"subtype": "noteOn",
				"realTime": 13632,
				"sortKey": 363
			},
			{
				"deltaTime": 48,
				"channel": 1,
				"type": "channel",
				"subtype": "noteOff",
				"noteNumber": 81,
				"velocity": 64,
				"realTime": 13680,
				"sortKey": 364
			},
			{
				"deltaTime": 16,
				"channel": 1,
				"type": "channel",
				"noteNumber": 79,
				"velocity": 113,
				"subtype": "noteOn",
				"realTime": 13696,
				"sortKey": 365
			},
			{
				"deltaTime": 48,
				"channel": 1,
				"type": "channel",
				"subtype": "noteOff",
				"noteNumber": 79,
				"velocity": 64,
				"realTime": 13744,
				"sortKey": 366
			},
			{
				"deltaTime": 16,
				"channel": 1,
				"type": "channel",
				"noteNumber": 72,
				"velocity": 103,
				"subtype": "noteOn",
				"realTime": 13760,
				"sortKey": 367
			},
			{
				"deltaTime": 48,
				"channel": 1,
				"type": "channel",
				"subtype": "noteOff",
				"noteNumber": 72,
				"velocity": 64,
				"realTime": 13808,
				"sortKey": 368
			},
			{
				"deltaTime": 16,
				"channel": 1,
				"type": "channel",
				"noteNumber": 74,
				"velocity": 107,
				"subtype": "noteOn",
				"realTime": 13824,
				"sortKey": 369
			},
			{
				"deltaTime": 48,
				"channel": 1,
				"type": "channel",
				"subtype": "noteOff",
				"noteNumber": 74,
				"velocity": 64,
				"realTime": 13872,
				"sortKey": 370
			},
			{
				"deltaTime": 16,
				"channel": 1,
				"type": "channel",
				"noteNumber": 79,
				"velocity": 112,
				"subtype": "noteOn",
				"realTime": 13888,
				"sortKey": 371
			},
			{
				"deltaTime": 48,
				"channel": 1,
				"type": "channel",
				"subtype": "noteOff",
				"noteNumber": 79,
				"velocity": 64,
				"realTime": 13936,
				"sortKey": 372
			},
			{
				"deltaTime": 16,
				"channel": 1,
				"type": "channel",
				"noteNumber": 74,
				"velocity": 115,
				"subtype": "noteOn",
				"realTime": 13952,
				"sortKey": 373
			},
			{
				"deltaTime": 48,
				"channel": 1,
				"type": "channel",
				"subtype": "noteOff",
				"noteNumber": 74,
				"velocity": 64,
				"realTime": 14000,
				"sortKey": 374
			},
			{
				"deltaTime": 16,
				"channel": 1,
				"type": "channel",
				"noteNumber": 79,
				"velocity": 115,
				"subtype": "noteOn",
				"realTime": 14016,
				"sortKey": 375
			},
			{
				"deltaTime": 24,
				"channel": 1,
				"type": "channel",
				"subtype": "noteOff",
				"noteNumber": 79,
				"velocity": 64,
				"realTime": 14040,
				"sortKey": 376
			},
			{
				"deltaTime": 8,
				"channel": 1,
				"type": "channel",
				"noteNumber": 74,
				"velocity": 106,
				"subtype": "noteOn",
				"realTime": 14048,
				"sortKey": 377
			},
			{
				"deltaTime": 24,
				"channel": 1,
				"type": "channel",
				"subtype": "noteOff",
				"noteNumber": 74,
				"velocity": 64,
				"realTime": 14072,
				"sortKey": 378
			},
			{
				"deltaTime": 8,
				"channel": 1,
				"type": "channel",
				"noteNumber": 79,
				"velocity": 114,
				"subtype": "noteOn",
				"realTime": 14080,
				"sortKey": 379
			},
			{
				"deltaTime": 48,
				"channel": 1,
				"type": "channel",
				"subtype": "noteOff",
				"noteNumber": 79,
				"velocity": 64,
				"realTime": 14128,
				"sortKey": 380
			},
			{
				"deltaTime": 16,
				"channel": 1,
				"type": "channel",
				"noteNumber": 81,
				"velocity": 118,
				"subtype": "noteOn",
				"realTime": 14144,
				"sortKey": 381
			},
			{
				"deltaTime": 48,
				"channel": 1,
				"type": "channel",
				"subtype": "noteOff",
				"noteNumber": 81,
				"velocity": 64,
				"realTime": 14192,
				"sortKey": 382
			},
			{
				"deltaTime": 16,
				"channel": 1,
				"type": "channel",
				"noteNumber": 74,
				"velocity": 112,
				"subtype": "noteOn",
				"realTime": 14208,
				"sortKey": 383
			},
			{
				"deltaTime": 48,
				"channel": 1,
				"type": "channel",
				"subtype": "noteOff",
				"noteNumber": 74,
				"velocity": 64,
				"realTime": 14256,
				"sortKey": 384
			},
			{
				"deltaTime": 16,
				"channel": 1,
				"type": "channel",
				"noteNumber": 72,
				"velocity": 117,
				"subtype": "noteOn",
				"realTime": 14272,
				"sortKey": 385
			},
			{
				"deltaTime": 48,
				"channel": 1,
				"type": "channel",
				"subtype": "noteOff",
				"noteNumber": 72,
				"velocity": 64,
				"realTime": 14320,
				"sortKey": 386
			},
			{
				"deltaTime": 16,
				"channel": 1,
				"type": "channel",
				"noteNumber": 69,
				"velocity": 112,
				"subtype": "noteOn",
				"realTime": 14336,
				"sortKey": 387
			},
			{
				"deltaTime": 48,
				"channel": 1,
				"type": "channel",
				"subtype": "noteOff",
				"noteNumber": 69,
				"velocity": 64,
				"realTime": 14384,
				"sortKey": 388
			},
			{
				"deltaTime": 16,
				"channel": 1,
				"type": "channel",
				"noteNumber": 81,
				"velocity": 111,
				"subtype": "noteOn",
				"realTime": 14400,
				"sortKey": 389
			},
			{
				"deltaTime": 48,
				"channel": 1,
				"type": "channel",
				"subtype": "noteOff",
				"noteNumber": 81,
				"velocity": 64,
				"realTime": 14448,
				"sortKey": 390
			},
			{
				"deltaTime": 80,
				"channel": 1,
				"type": "channel",
				"noteNumber": 81,
				"velocity": 111,
				"subtype": "noteOn",
				"realTime": 14528,
				"sortKey": 391
			},
			{
				"deltaTime": 48,
				"channel": 1,
				"type": "channel",
				"subtype": "noteOff",
				"noteNumber": 81,
				"velocity": 64,
				"realTime": 14576,
				"sortKey": 392
			},
			{
				"deltaTime": 80,
				"channel": 1,
				"type": "channel",
				"noteNumber": 72,
				"velocity": 114,
				"subtype": "noteOn",
				"realTime": 14656,
				"sortKey": 393
			},
			{
				"deltaTime": 48,
				"channel": 1,
				"type": "channel",
				"subtype": "noteOff",
				"noteNumber": 72,
				"velocity": 64,
				"realTime": 14704,
				"sortKey": 394
			},
			{
				"deltaTime": 80,
				"channel": 1,
				"type": "channel",
				"noteNumber": 72,
				"velocity": 103,
				"subtype": "noteOn",
				"realTime": 14784,
				"sortKey": 395
			},
			{
				"deltaTime": 24,
				"channel": 1,
				"type": "channel",
				"subtype": "noteOff",
				"noteNumber": 72,
				"velocity": 64,
				"realTime": 14808,
				"sortKey": 396
			},
			{
				"deltaTime": 8,
				"channel": 1,
				"type": "channel",
				"noteNumber": 69,
				"velocity": 111,
				"subtype": "noteOn",
				"realTime": 14816,
				"sortKey": 397
			},
			{
				"deltaTime": 24,
				"channel": 1,
				"type": "channel",
				"subtype": "noteOff",
				"noteNumber": 69,
				"velocity": 64,
				"realTime": 14840,
				"sortKey": 398
			},
			{
				"deltaTime": 8,
				"channel": 1,
				"type": "channel",
				"noteNumber": 81,
				"velocity": 117,
				"subtype": "noteOn",
				"realTime": 14848,
				"sortKey": 399
			},
			{
				"deltaTime": 48,
				"channel": 1,
				"type": "channel",
				"subtype": "noteOff",
				"noteNumber": 81,
				"velocity": 64,
				"realTime": 14896,
				"sortKey": 400
			},
			{
				"deltaTime": 16,
				"channel": 1,
				"type": "channel",
				"noteNumber": 81,
				"velocity": 113,
				"subtype": "noteOn",
				"realTime": 14912,
				"sortKey": 401
			},
			{
				"deltaTime": 48,
				"channel": 1,
				"type": "channel",
				"subtype": "noteOff",
				"noteNumber": 81,
				"velocity": 64,
				"realTime": 14960,
				"sortKey": 402
			},
			{
				"deltaTime": 16,
				"channel": 1,
				"type": "channel",
				"noteNumber": 80,
				"velocity": 111,
				"subtype": "noteOn",
				"realTime": 14976,
				"sortKey": 403
			},
			{
				"deltaTime": 48,
				"channel": 1,
				"type": "channel",
				"subtype": "noteOff",
				"noteNumber": 80,
				"velocity": 64,
				"realTime": 15024,
				"sortKey": 404
			},
			{
				"deltaTime": 16,
				"channel": 1,
				"type": "channel",
				"noteNumber": 81,
				"velocity": 117,
				"subtype": "noteOn",
				"realTime": 15040,
				"sortKey": 405
			},
			{
				"deltaTime": 48,
				"channel": 1,
				"type": "channel",
				"subtype": "noteOff",
				"noteNumber": 81,
				"velocity": 64,
				"realTime": 15088,
				"sortKey": 406
			},
			{
				"deltaTime": 80,
				"channel": 1,
				"type": "channel",
				"noteNumber": 79,
				"velocity": 113,
				"subtype": "noteOn",
				"realTime": 15168,
				"sortKey": 407
			},
			{
				"deltaTime": 112,
				"channel": 1,
				"type": "channel",
				"subtype": "noteOff",
				"noteNumber": 79,
				"velocity": 64,
				"realTime": 15280,
				"sortKey": 408
			},
			{
				"deltaTime": 16,
				"channel": 1,
				"type": "channel",
				"noteNumber": 74,
				"velocity": 118,
				"subtype": "noteOn",
				"realTime": 15296,
				"sortKey": 409
			},
			{
				"deltaTime": 24,
				"channel": 1,
				"type": "channel",
				"subtype": "noteOff",
				"noteNumber": 74,
				"velocity": 64,
				"realTime": 15320,
				"sortKey": 410
			},
			{
				"deltaTime": 8,
				"channel": 1,
				"type": "channel",
				"noteNumber": 74,
				"velocity": 104,
				"subtype": "noteOn",
				"realTime": 15328,
				"sortKey": 411
			},
			{
				"deltaTime": 24,
				"channel": 1,
				"type": "channel",
				"subtype": "noteOff",
				"noteNumber": 74,
				"velocity": 64,
				"realTime": 15352,
				"sortKey": 412
			},
			{
				"deltaTime": 8,
				"channel": 1,
				"type": "channel",
				"noteNumber": 74,
				"velocity": 118,
				"subtype": "noteOn",
				"realTime": 15360,
				"sortKey": 413
			},
			{
				"deltaTime": 48,
				"channel": 1,
				"type": "channel",
				"subtype": "noteOff",
				"noteNumber": 74,
				"velocity": 64,
				"realTime": 15408,
				"sortKey": 414
			},
			{
				"deltaTime": 16,
				"channel": 1,
				"type": "channel",
				"noteNumber": 86,
				"velocity": 106,
				"subtype": "noteOn",
				"realTime": 15424,
				"sortKey": 415
			},
			{
				"deltaTime": 48,
				"channel": 1,
				"type": "channel",
				"subtype": "noteOff",
				"noteNumber": 86,
				"velocity": 64,
				"realTime": 15472,
				"sortKey": 416
			},
			{
				"deltaTime": 16,
				"channel": 1,
				"type": "channel",
				"noteNumber": 84,
				"velocity": 107,
				"subtype": "noteOn",
				"realTime": 15488,
				"sortKey": 417
			},
			{
				"deltaTime": 48,
				"channel": 1,
				"type": "channel",
				"subtype": "noteOff",
				"noteNumber": 84,
				"velocity": 64,
				"realTime": 15536,
				"sortKey": 418
			},
			{
				"deltaTime": 16,
				"channel": 1,
				"type": "channel",
				"noteNumber": 86,
				"velocity": 121,
				"subtype": "noteOn",
				"realTime": 15552,
				"sortKey": 419
			},
			{
				"deltaTime": 80,
				"channel": 1,
				"type": "channel",
				"subtype": "noteOff",
				"noteNumber": 86,
				"velocity": 64,
				"realTime": 15632,
				"sortKey": 420
			},
			{
				"deltaTime": 16,
				"channel": 1,
				"type": "channel",
				"noteNumber": 84,
				"velocity": 114,
				"subtype": "noteOn",
				"realTime": 15648,
				"sortKey": 421
			},
			{
				"deltaTime": 24,
				"channel": 1,
				"type": "channel",
				"subtype": "noteOff",
				"noteNumber": 84,
				"velocity": 64,
				"realTime": 15672,
				"sortKey": 422
			},
			{
				"deltaTime": 8,
				"channel": 1,
				"type": "channel",
				"noteNumber": 86,
				"velocity": 114,
				"subtype": "noteOn",
				"realTime": 15680,
				"sortKey": 423
			},
			{
				"deltaTime": 48,
				"channel": 1,
				"type": "channel",
				"subtype": "noteOff",
				"noteNumber": 86,
				"velocity": 64,
				"realTime": 15728,
				"sortKey": 424
			},
			{
				"deltaTime": 16,
				"channel": 1,
				"type": "channel",
				"noteNumber": 84,
				"velocity": 114,
				"subtype": "noteOn",
				"realTime": 15744,
				"sortKey": 425
			},
			{
				"deltaTime": 48,
				"channel": 1,
				"type": "channel",
				"subtype": "noteOff",
				"noteNumber": 84,
				"velocity": 64,
				"realTime": 15792,
				"sortKey": 426
			},
			{
				"deltaTime": 16,
				"channel": 1,
				"type": "channel",
				"noteNumber": 78,
				"velocity": 107,
				"subtype": "noteOn",
				"realTime": 15808,
				"sortKey": 427
			},
			{
				"deltaTime": 48,
				"channel": 1,
				"type": "channel",
				"subtype": "noteOff",
				"noteNumber": 78,
				"velocity": 64,
				"realTime": 15856,
				"sortKey": 428
			},
			{
				"deltaTime": 16,
				"channel": 1,
				"type": "channel",
				"noteNumber": 74,
				"velocity": 117,
				"subtype": "noteOn",
				"realTime": 15872,
				"sortKey": 429
			},
			{
				"deltaTime": 48,
				"channel": 1,
				"type": "channel",
				"subtype": "noteOff",
				"noteNumber": 74,
				"velocity": 64,
				"realTime": 15920,
				"sortKey": 430
			},
			{
				"deltaTime": 16,
				"channel": 1,
				"type": "channel",
				"noteNumber": 86,
				"velocity": 122,
				"subtype": "noteOn",
				"realTime": 15936,
				"sortKey": 431
			},
			{
				"deltaTime": 48,
				"channel": 1,
				"type": "channel",
				"subtype": "noteOff",
				"noteNumber": 86,
				"velocity": 64,
				"realTime": 15984,
				"sortKey": 432
			},
			{
				"deltaTime": 16,
				"channel": 1,
				"type": "channel",
				"noteNumber": 84,
				"velocity": 107,
				"subtype": "noteOn",
				"realTime": 16000,
				"sortKey": 433
			},
			{
				"deltaTime": 48,
				"channel": 1,
				"type": "channel",
				"subtype": "noteOff",
				"noteNumber": 84,
				"velocity": 64,
				"realTime": 16048,
				"sortKey": 434
			},
			{
				"deltaTime": 16,
				"channel": 1,
				"type": "channel",
				"noteNumber": 86,
				"velocity": 107,
				"subtype": "noteOn",
				"realTime": 16064,
				"sortKey": 435
			},
			{
				"deltaTime": 64,
				"channel": 1,
				"type": "channel",
				"noteNumber": 74,
				"velocity": 115,
				"subtype": "noteOn",
				"realTime": 16128,
				"sortKey": 436
			},
			{
				"deltaTime": 48,
				"channel": 1,
				"type": "channel",
				"subtype": "noteOff",
				"noteNumber": 86,
				"velocity": 64,
				"realTime": 16176,
				"sortKey": 437
			},
			{
				"deltaTime": 0,
				"channel": 1,
				"type": "channel",
				"subtype": "noteOff",
				"noteNumber": 74,
				"velocity": 64,
				"realTime": 16176,
				"sortKey": 438
			},
			{
				"deltaTime": 16,
				"channel": 1,
				"type": "channel",
				"noteNumber": 84,
				"velocity": 114,
				"subtype": "noteOn",
				"realTime": 16192,
				"sortKey": 439
			},
			{
				"deltaTime": 112,
				"channel": 1,
				"type": "channel",
				"subtype": "noteOff",
				"noteNumber": 84,
				"velocity": 64,
				"realTime": 16304,
				"sortKey": 440
			},
			{
				"deltaTime": 16,
				"channel": 1,
				"type": "channel",
				"noteNumber": 88,
				"velocity": 114,
				"subtype": "noteOn",
				"realTime": 16320,
				"sortKey": 441
			},
			{
				"deltaTime": 48,
				"channel": 1,
				"type": "channel",
				"subtype": "noteOff",
				"noteNumber": 88,
				"velocity": 64,
				"realTime": 16368,
				"sortKey": 442
			},
			{
				"deltaTime": 16,
				"channel": 1,
				"type": "channel",
				"noteNumber": 69,
				"velocity": 103,
				"subtype": "noteOn",
				"realTime": 16384,
				"sortKey": 443
			},
			{
				"deltaTime": 48,
				"channel": 1,
				"type": "channel",
				"subtype": "noteOff",
				"noteNumber": 69,
				"velocity": 64,
				"realTime": 16432,
				"sortKey": 444
			},
			{
				"deltaTime": 16,
				"channel": 1,
				"type": "channel",
				"noteNumber": 81,
				"velocity": 109,
				"subtype": "noteOn",
				"realTime": 16448,
				"sortKey": 445
			},
			{
				"deltaTime": 48,
				"channel": 1,
				"type": "channel",
				"subtype": "noteOff",
				"noteNumber": 81,
				"velocity": 64,
				"realTime": 16496,
				"sortKey": 446
			},
			{
				"deltaTime": 16,
				"channel": 1,
				"type": "channel",
				"noteNumber": 79,
				"velocity": 118,
				"subtype": "noteOn",
				"realTime": 16512,
				"sortKey": 447
			},
			{
				"deltaTime": 48,
				"channel": 1,
				"type": "channel",
				"subtype": "noteOff",
				"noteNumber": 79,
				"velocity": 64,
				"realTime": 16560,
				"sortKey": 448
			},
			{
				"deltaTime": 16,
				"channel": 1,
				"type": "channel",
				"noteNumber": 81,
				"velocity": 118,
				"subtype": "noteOn",
				"realTime": 16576,
				"sortKey": 449
			},
			{
				"deltaTime": 80,
				"channel": 1,
				"type": "channel",
				"subtype": "noteOff",
				"noteNumber": 81,
				"velocity": 64,
				"realTime": 16656,
				"sortKey": 450
			},
			{
				"deltaTime": 16,
				"channel": 1,
				"type": "channel",
				"noteNumber": 79,
				"velocity": 114,
				"subtype": "noteOn",
				"realTime": 16672,
				"sortKey": 451
			},
			{
				"deltaTime": 24,
				"channel": 1,
				"type": "channel",
				"subtype": "noteOff",
				"noteNumber": 79,
				"velocity": 64,
				"realTime": 16696,
				"sortKey": 452
			},
			{
				"deltaTime": 8,
				"channel": 1,
				"type": "channel",
				"noteNumber": 81,
				"velocity": 108,
				"subtype": "noteOn",
				"realTime": 16704,
				"sortKey": 453
			},
			{
				"deltaTime": 48,
				"channel": 1,
				"type": "channel",
				"subtype": "noteOff",
				"noteNumber": 81,
				"velocity": 64,
				"realTime": 16752,
				"sortKey": 454
			},
			{
				"deltaTime": 16,
				"channel": 1,
				"type": "channel",
				"noteNumber": 79,
				"velocity": 111,
				"subtype": "noteOn",
				"realTime": 16768,
				"sortKey": 455
			},
			{
				"deltaTime": 48,
				"channel": 1,
				"type": "channel",
				"subtype": "noteOff",
				"noteNumber": 79,
				"velocity": 64,
				"realTime": 16816,
				"sortKey": 456
			},
			{
				"deltaTime": 16,
				"channel": 1,
				"type": "channel",
				"noteNumber": 73,
				"velocity": 114,
				"subtype": "noteOn",
				"realTime": 16832,
				"sortKey": 457
			},
			{
				"deltaTime": 48,
				"channel": 1,
				"type": "channel",
				"subtype": "noteOff",
				"noteNumber": 73,
				"velocity": 64,
				"realTime": 16880,
				"sortKey": 458
			},
			{
				"deltaTime": 16,
				"channel": 1,
				"type": "channel",
				"noteNumber": 69,
				"velocity": 112,
				"subtype": "noteOn",
				"realTime": 16896,
				"sortKey": 459
			},
			{
				"deltaTime": 48,
				"channel": 1,
				"type": "channel",
				"subtype": "noteOff",
				"noteNumber": 69,
				"velocity": 64,
				"realTime": 16944,
				"sortKey": 460
			},
			{
				"deltaTime": 16,
				"channel": 1,
				"type": "channel",
				"noteNumber": 81,
				"velocity": 105,
				"subtype": "noteOn",
				"realTime": 16960,
				"sortKey": 461
			},
			{
				"deltaTime": 48,
				"channel": 1,
				"type": "channel",
				"subtype": "noteOff",
				"noteNumber": 81,
				"velocity": 64,
				"realTime": 17008,
				"sortKey": 462
			},
			{
				"deltaTime": 80,
				"channel": 1,
				"type": "channel",
				"noteNumber": 81,
				"velocity": 117,
				"subtype": "noteOn",
				"realTime": 17088,
				"sortKey": 463
			},
			{
				"deltaTime": 80,
				"channel": 1,
				"type": "channel",
				"subtype": "noteOff",
				"noteNumber": 81,
				"velocity": 64,
				"realTime": 17168,
				"sortKey": 464
			},
			{
				"deltaTime": 16,
				"channel": 1,
				"type": "channel",
				"noteNumber": 74,
				"velocity": 114,
				"subtype": "noteOn",
				"realTime": 17184,
				"sortKey": 465
			},
			{
				"deltaTime": 24,
				"channel": 1,
				"type": "channel",
				"subtype": "noteOff",
				"noteNumber": 74,
				"velocity": 64,
				"realTime": 17208,
				"sortKey": 466
			},
			{
				"deltaTime": 8,
				"channel": 1,
				"type": "channel",
				"noteNumber": 79,
				"velocity": 110,
				"subtype": "noteOn",
				"realTime": 17216,
				"sortKey": 467
			},
			{
				"deltaTime": 80,
				"channel": 1,
				"type": "channel",
				"subtype": "noteOff",
				"noteNumber": 79,
				"velocity": 64,
				"realTime": 17296,
				"sortKey": 468
			},
			{
				"deltaTime": 48,
				"channel": 1,
				"type": "channel",
				"noteNumber": 76,
				"velocity": 114,
				"subtype": "noteOn",
				"realTime": 17344,
				"sortKey": 469
			},
			{
				"deltaTime": 24,
				"channel": 1,
				"type": "channel",
				"subtype": "noteOff",
				"noteNumber": 76,
				"velocity": 64,
				"realTime": 17368,
				"sortKey": 470
			},
			{
				"deltaTime": 8,
				"channel": 1,
				"type": "channel",
				"noteNumber": 74,
				"velocity": 115,
				"subtype": "noteOn",
				"realTime": 17376,
				"sortKey": 471
			},
			{
				"deltaTime": 24,
				"channel": 1,
				"type": "channel",
				"subtype": "noteOff",
				"noteNumber": 74,
				"velocity": 64,
				"realTime": 17400,
				"sortKey": 472
			},
			{
				"deltaTime": 8,
				"channel": 1,
				"type": "channel",
				"noteNumber": 76,
				"velocity": 115,
				"subtype": "noteOn",
				"realTime": 17408,
				"sortKey": 473
			},
			{
				"deltaTime": 48,
				"channel": 1,
				"type": "channel",
				"subtype": "noteOff",
				"noteNumber": 76,
				"velocity": 64,
				"realTime": 17456,
				"sortKey": 474
			},
			{
				"deltaTime": 16,
				"channel": 1,
				"type": "channel",
				"noteNumber": 88,
				"velocity": 114,
				"subtype": "noteOn",
				"realTime": 17472,
				"sortKey": 475
			},
			{
				"deltaTime": 48,
				"channel": 1,
				"type": "channel",
				"subtype": "noteOff",
				"noteNumber": 88,
				"velocity": 64,
				"realTime": 17520,
				"sortKey": 476
			},
			{
				"deltaTime": 16,
				"channel": 1,
				"type": "channel",
				"noteNumber": 76,
				"velocity": 111,
				"subtype": "noteOn",
				"realTime": 17536,
				"sortKey": 477
			},
			{
				"deltaTime": 48,
				"channel": 1,
				"type": "channel",
				"subtype": "noteOff",
				"noteNumber": 76,
				"velocity": 64,
				"realTime": 17584,
				"sortKey": 478
			},
			{
				"deltaTime": 16,
				"channel": 1,
				"type": "channel",
				"noteNumber": 76,
				"velocity": 116,
				"subtype": "noteOn",
				"realTime": 17600,
				"sortKey": 479
			},
			{
				"deltaTime": 48,
				"channel": 1,
				"type": "channel",
				"subtype": "noteOff",
				"noteNumber": 76,
				"velocity": 64,
				"realTime": 17648,
				"sortKey": 480
			},
			{
				"deltaTime": 16,
				"channel": 1,
				"type": "channel",
				"noteNumber": 76,
				"velocity": 106,
				"subtype": "noteOn",
				"realTime": 17664,
				"sortKey": 481
			},
			{
				"deltaTime": 48,
				"channel": 1,
				"type": "channel",
				"subtype": "noteOff",
				"noteNumber": 76,
				"velocity": 64,
				"realTime": 17712,
				"sortKey": 482
			},
			{
				"deltaTime": 16,
				"channel": 1,
				"type": "channel",
				"noteNumber": 76,
				"velocity": 114,
				"subtype": "noteOn",
				"realTime": 17728,
				"sortKey": 483
			},
			{
				"deltaTime": 48,
				"channel": 1,
				"type": "channel",
				"subtype": "noteOff",
				"noteNumber": 76,
				"velocity": 64,
				"realTime": 17776,
				"sortKey": 484
			},
			{
				"deltaTime": 16,
				"channel": 1,
				"type": "channel",
				"noteNumber": 76,
				"velocity": 112,
				"subtype": "noteOn",
				"realTime": 17792,
				"sortKey": 485
			},
			{
				"deltaTime": 48,
				"channel": 1,
				"type": "channel",
				"subtype": "noteOff",
				"noteNumber": 76,
				"velocity": 64,
				"realTime": 17840,
				"sortKey": 486
			},
			{
				"deltaTime": 16,
				"channel": 1,
				"type": "channel",
				"noteNumber": 77,
				"velocity": 117,
				"subtype": "noteOn",
				"realTime": 17856,
				"sortKey": 487
			},
			{
				"deltaTime": 48,
				"channel": 1,
				"type": "channel",
				"subtype": "noteOff",
				"noteNumber": 77,
				"velocity": 64,
				"realTime": 17904,
				"sortKey": 488
			},
			{
				"deltaTime": 16,
				"channel": 1,
				"type": "channel",
				"noteNumber": 78,
				"velocity": 111,
				"subtype": "noteOn",
				"realTime": 17920,
				"sortKey": 489
			},
			{
				"deltaTime": 48,
				"channel": 1,
				"type": "channel",
				"subtype": "noteOff",
				"noteNumber": 78,
				"velocity": 64,
				"realTime": 17968,
				"sortKey": 490
			},
			{
				"deltaTime": 16,
				"channel": 1,
				"type": "channel",
				"noteNumber": 78,
				"velocity": 123,
				"subtype": "noteOn",
				"realTime": 17984,
				"sortKey": 491
			},
			{
				"deltaTime": 48,
				"channel": 1,
				"type": "channel",
				"subtype": "noteOff",
				"noteNumber": 78,
				"velocity": 64,
				"realTime": 18032,
				"sortKey": 492
			},
			{
				"deltaTime": 16,
				"channel": 1,
				"type": "channel",
				"noteNumber": 78,
				"velocity": 115,
				"subtype": "noteOn",
				"realTime": 18048,
				"sortKey": 493
			},
			{
				"deltaTime": 48,
				"channel": 1,
				"type": "channel",
				"subtype": "noteOff",
				"noteNumber": 78,
				"velocity": 64,
				"realTime": 18096,
				"sortKey": 494
			},
			{
				"deltaTime": 16,
				"channel": 1,
				"type": "channel",
				"noteNumber": 78,
				"velocity": 110,
				"subtype": "noteOn",
				"realTime": 18112,
				"sortKey": 495
			},
			{
				"deltaTime": 48,
				"channel": 1,
				"type": "channel",
				"subtype": "noteOff",
				"noteNumber": 78,
				"velocity": 64,
				"realTime": 18160,
				"sortKey": 496
			},
			{
				"deltaTime": 16,
				"channel": 1,
				"type": "channel",
				"noteNumber": 74,
				"velocity": 122,
				"subtype": "noteOn",
				"realTime": 18176,
				"sortKey": 497
			},
			{
				"deltaTime": 48,
				"channel": 1,
				"type": "channel",
				"subtype": "noteOff",
				"noteNumber": 74,
				"velocity": 64,
				"realTime": 18224,
				"sortKey": 498
			},
			{
				"deltaTime": 16,
				"channel": 1,
				"type": "channel",
				"noteNumber": 74,
				"velocity": 114,
				"subtype": "noteOn",
				"realTime": 18240,
				"sortKey": 499
			},
			{
				"deltaTime": 48,
				"channel": 1,
				"type": "channel",
				"subtype": "noteOff",
				"noteNumber": 74,
				"velocity": 64,
				"realTime": 18288,
				"sortKey": 500
			},
			{
				"deltaTime": 16,
				"channel": 1,
				"type": "channel",
				"noteNumber": 72,
				"velocity": 120,
				"subtype": "noteOn",
				"realTime": 18304,
				"sortKey": 501
			},
			{
				"deltaTime": 48,
				"channel": 1,
				"type": "channel",
				"subtype": "noteOff",
				"noteNumber": 72,
				"velocity": 64,
				"realTime": 18352,
				"sortKey": 502
			},
			{
				"deltaTime": 16,
				"channel": 1,
				"type": "channel",
				"noteNumber": 73,
				"velocity": 114,
				"subtype": "noteOn",
				"realTime": 18368,
				"sortKey": 503
			},
			{
				"deltaTime": 48,
				"channel": 1,
				"type": "channel",
				"subtype": "noteOff",
				"noteNumber": 73,
				"velocity": 64,
				"realTime": 18416,
				"sortKey": 504
			},
			{
				"deltaTime": 16,
				"channel": 1,
				"type": "channel",
				"noteNumber": 69,
				"velocity": 107,
				"subtype": "noteOn",
				"realTime": 18432,
				"sortKey": 505
			},
			{
				"deltaTime": 48,
				"channel": 1,
				"type": "channel",
				"subtype": "noteOff",
				"noteNumber": 69,
				"velocity": 64,
				"realTime": 18480,
				"sortKey": 506
			},
			{
				"deltaTime": 16,
				"channel": 1,
				"type": "channel",
				"noteNumber": 81,
				"velocity": 114,
				"subtype": "noteOn",
				"realTime": 18496,
				"sortKey": 507
			},
			{
				"deltaTime": 48,
				"channel": 1,
				"type": "channel",
				"subtype": "noteOff",
				"noteNumber": 81,
				"velocity": 64,
				"realTime": 18544,
				"sortKey": 508
			},
			{
				"deltaTime": 16,
				"channel": 1,
				"type": "channel",
				"noteNumber": 79,
				"velocity": 114,
				"subtype": "noteOn",
				"realTime": 18560,
				"sortKey": 509
			},
			{
				"deltaTime": 48,
				"channel": 1,
				"type": "channel",
				"subtype": "noteOff",
				"noteNumber": 79,
				"velocity": 64,
				"realTime": 18608,
				"sortKey": 510
			},
			{
				"deltaTime": 16,
				"channel": 1,
				"type": "channel",
				"noteNumber": 81,
				"velocity": 106,
				"subtype": "noteOn",
				"realTime": 18624,
				"sortKey": 511
			},
			{
				"deltaTime": 112,
				"channel": 1,
				"type": "channel",
				"subtype": "noteOff",
				"noteNumber": 81,
				"velocity": 64,
				"realTime": 18736,
				"sortKey": 512
			},
			{
				"deltaTime": 16,
				"channel": 1,
				"type": "channel",
				"noteNumber": 74,
				"velocity": 116,
				"subtype": "noteOn",
				"realTime": 18752,
				"sortKey": 513
			},
			{
				"deltaTime": 48,
				"channel": 1,
				"type": "channel",
				"subtype": "noteOff",
				"noteNumber": 74,
				"velocity": 64,
				"realTime": 18800,
				"sortKey": 514
			},
			{
				"deltaTime": 16,
				"channel": 1,
				"type": "channel",
				"noteNumber": 72,
				"velocity": 114,
				"subtype": "noteOn",
				"realTime": 18816,
				"sortKey": 515
			},
			{
				"deltaTime": 48,
				"channel": 1,
				"type": "channel",
				"subtype": "noteOff",
				"noteNumber": 72,
				"velocity": 64,
				"realTime": 18864,
				"sortKey": 516
			},
			{
				"deltaTime": 16,
				"channel": 1,
				"type": "channel",
				"noteNumber": 72,
				"velocity": 110,
				"subtype": "noteOn",
				"realTime": 18880,
				"sortKey": 517
			},
			{
				"deltaTime": 48,
				"channel": 1,
				"type": "channel",
				"subtype": "noteOff",
				"noteNumber": 72,
				"velocity": 64,
				"realTime": 18928,
				"sortKey": 518
			},
			{
				"deltaTime": 16,
				"channel": 1,
				"type": "channel",
				"noteNumber": 69,
				"velocity": 116,
				"subtype": "noteOn",
				"realTime": 18944,
				"sortKey": 519
			},
			{
				"deltaTime": 48,
				"channel": 1,
				"type": "channel",
				"subtype": "noteOff",
				"noteNumber": 69,
				"velocity": 64,
				"realTime": 18992,
				"sortKey": 520
			},
			{
				"deltaTime": 16,
				"channel": 1,
				"type": "channel",
				"noteNumber": 81,
				"velocity": 114,
				"subtype": "noteOn",
				"realTime": 19008,
				"sortKey": 521
			},
			{
				"deltaTime": 48,
				"channel": 1,
				"type": "channel",
				"subtype": "noteOff",
				"noteNumber": 81,
				"velocity": 64,
				"realTime": 19056,
				"sortKey": 522
			},
			{
				"deltaTime": 80,
				"channel": 1,
				"type": "channel",
				"noteNumber": 81,
				"velocity": 114,
				"subtype": "noteOn",
				"realTime": 19136,
				"sortKey": 523
			},
			{
				"deltaTime": 48,
				"channel": 1,
				"type": "channel",
				"subtype": "noteOff",
				"noteNumber": 81,
				"velocity": 64,
				"realTime": 19184,
				"sortKey": 524
			},
			{
				"deltaTime": 80,
				"channel": 1,
				"type": "channel",
				"noteNumber": 72,
				"velocity": 118,
				"subtype": "noteOn",
				"realTime": 19264,
				"sortKey": 525
			},
			{
				"deltaTime": 48,
				"channel": 1,
				"type": "channel",
				"subtype": "noteOff",
				"noteNumber": 72,
				"velocity": 64,
				"realTime": 19312,
				"sortKey": 526
			},
			{
				"deltaTime": 16,
				"channel": 1,
				"type": "channel",
				"noteNumber": 72,
				"velocity": 115,
				"subtype": "noteOn",
				"realTime": 19328,
				"sortKey": 527
			},
			{
				"deltaTime": 48,
				"channel": 1,
				"type": "channel",
				"subtype": "noteOff",
				"noteNumber": 72,
				"velocity": 64,
				"realTime": 19376,
				"sortKey": 528
			},
			{
				"deltaTime": 16,
				"channel": 1,
				"type": "channel",
				"noteNumber": 72,
				"velocity": 114,
				"subtype": "noteOn",
				"realTime": 19392,
				"sortKey": 529
			},
			{
				"deltaTime": 48,
				"channel": 1,
				"type": "channel",
				"subtype": "noteOff",
				"noteNumber": 72,
				"velocity": 64,
				"realTime": 19440,
				"sortKey": 530
			},
			{
				"deltaTime": 0,
				"type": "meta",
				"subtype": "endOfTrack"
			}
		]
	]
}