{"header":{"formatType":1,"trackCount":3,"ticksPerBeat":128},"tracks":[[{"deltaTime":0,"type":"meta","subtype":"timeSignature","numerator":4,"denominator":4,"metronome":24,"thirtyseconds":8,"realTime":0,"sortKey":2},{"deltaTime":0,"type":"meta","subtype":"setTempo","microsecondsPerBeat":468750,"realTime":0,"sortKey":1},{"deltaTime":0,"type":"meta","subtype":"endOfTrack"}],[{"deltaTime":null,"channel":9,"type":"channel","noteNumber":42,"velocity":127,"subtype":"noteOn","realTime":512,"sortKey":9},{"deltaTime":32,"channel":9,"type":"channel","subtype":"noteOff","noteNumber":42,"velocity":64,"realTime":544,"sortKey":10},{"deltaTime":98,"channel":9,"type":"channel","noteNumber":42,"velocity":127,"subtype":"noteOn","realTime":642,"sortKey":11},{"deltaTime":33,"channel":9,"type":"channel","subtype":"noteOff","noteNumber":42,"velocity":64,"realTime":675,"sortKey":12},{"deltaTime":93,"channel":9,"type":"channel","noteNumber":38,"velocity":76,"subtype":"noteOn","realTime":768,"sortKey":13},{"deltaTime":0,"channel":9,"type":"channel","noteNumber":42,"velocity":127,"subtype":"noteOn","realTime":768,"sortKey":14},{"deltaTime":0,"channel":9,"type":"channel","noteNumber":43,"velocity":52,"subtype":"noteOn","realTime":768,"sortKey":15},{"deltaTime":0,"channel":9,"type":"channel","noteNumber":45,"velocity":56,"subtype":"noteOn","realTime":768,"sortKey":16},{"deltaTime":12,"channel":9,"type":"channel","subtype":"noteOff","noteNumber":43,"velocity":64,"realTime":780,"sortKey":17},{"deltaTime":0,"channel":9,"type":"channel","subtype":"noteOff","noteNumber":45,"velocity":64,"realTime":780,"sortKey":18},{"deltaTime":2,"channel":9,"type":"channel","subtype":"noteOff","noteNumber":38,"velocity":64,"realTime":782,"sortKey":19},{"deltaTime":12,"channel":9,"type":"channel","subtype":"noteOff","noteNumber":42,"velocity":64,"realTime":794,"sortKey":20},{"deltaTime":15,"channel":9,"type":"channel","noteNumber":38,"velocity":64,"subtype":"noteOn","realTime":809,"sortKey":21},{"deltaTime":0,"channel":9,"type":"channel","noteNumber":43,"velocity":57,"subtype":"noteOn","realTime":809,"sortKey":22},{"deltaTime":0,"channel":9,"type":"channel","noteNumber":45,"velocity":68,"subtype":"noteOn","realTime":809,"sortKey":23},{"deltaTime":14,"channel":9,"type":"channel","subtype":"noteOff","noteNumber":43,"velocity":64,"realTime":823,"sortKey":24},{"deltaTime":0,"channel":9,"type":"channel","subtype":"noteOff","noteNumber":45,"velocity":64,"realTime":823,"sortKey":25},{"deltaTime":3,"channel":9,"type":"channel","subtype":"noteOff","noteNumber":38,"velocity":64,"realTime":826,"sortKey":26},{"deltaTime":27,"channel":9,"type":"channel","noteNumber":38,"velocity":102,"subtype":"noteOn","realTime":853,"sortKey":27},{"deltaTime":0,"channel":9,"type":"channel","noteNumber":43,"velocity":93,"subtype":"noteOn","realTime":853,"sortKey":28},{"deltaTime":0,"channel":9,"type":"channel","noteNumber":45,"velocity":93,"subtype":"noteOn","realTime":853,"sortKey":29},{"deltaTime":16,"channel":9,"type":"channel","subtype":"noteOff","noteNumber":45,"velocity":64,"realTime":869,"sortKey":30},{"deltaTime":2,"channel":9,"type":"channel","subtype":"noteOff","noteNumber":43,"velocity":64,"realTime":871,"sortKey":31},{"deltaTime":2,"channel":9,"type":"channel","subtype":"noteOff","noteNumber":38,"velocity":64,"realTime":873,"sortKey":32},{"deltaTime":24,"channel":9,"type":"channel","noteNumber":38,"velocity":113,"subtype":"noteOn","realTime":897,"sortKey":33},{"deltaTime":0,"channel":9,"type":"channel","noteNumber":42,"velocity":127,"subtype":"noteOn","realTime":897,"sortKey":34},{"deltaTime":0,"channel":9,"type":"channel","noteNumber":43,"velocity":107,"subtype":"noteOn","realTime":897,"sortKey":35},{"deltaTime":0,"channel":9,"type":"channel","noteNumber":45,"velocity":107,"subtype":"noteOn","realTime":897,"sortKey":36},{"deltaTime":16,"channel":9,"type":"channel","subtype":"noteOff","noteNumber":43,"velocity":64,"realTime":913,"sortKey":37},{"deltaTime":1,"channel":9,"type":"channel","subtype":"noteOff","noteNumber":38,"velocity":64,"realTime":914,"sortKey":38},{"deltaTime":1,"channel":9,"type":"channel","subtype":"noteOff","noteNumber":45,"velocity":64,"realTime":915,"sortKey":39},{"deltaTime":2,"channel":9,"type":"channel","subtype":"noteOff","noteNumber":42,"velocity":64,"realTime":917,"sortKey":40},{"deltaTime":22,"channel":9,"type":"channel","noteNumber":38,"velocity":113,"subtype":"noteOn","realTime":939,"sortKey":41},{"deltaTime":0,"channel":9,"type":"channel","noteNumber":43,"velocity":107,"subtype":"noteOn","realTime":939,"sortKey":42},{"deltaTime":0,"channel":9,"type":"channel","noteNumber":45,"velocity":102,"subtype":"noteOn","realTime":939,"sortKey":43},{"deltaTime":17,"channel":9,"type":"channel","subtype":"noteOff","noteNumber":45,"velocity":64,"realTime":956,"sortKey":44},{"deltaTime":1,"channel":9,"type":"channel","subtype":"noteOff","noteNumber":38,"velocity":64,"realTime":957,"sortKey":45},{"deltaTime":0,"channel":9,"type":"channel","subtype":"noteOff","noteNumber":43,"velocity":64,"realTime":957,"sortKey":46},{"deltaTime":24,"channel":9,"type":"channel","noteNumber":38,"velocity":107,"subtype":"noteOn","realTime":981,"sortKey":47},{"deltaTime":0,"channel":9,"type":"channel","noteNumber":43,"velocity":113,"subtype":"noteOn","realTime":981,"sortKey":48},{"deltaTime":0,"channel":9,"type":"channel","noteNumber":45,"velocity":113,"subtype":"noteOn","realTime":981,"sortKey":49},{"deltaTime":34,"channel":9,"type":"channel","subtype":"noteOff","noteNumber":38,"velocity":64,"realTime":1015,"sortKey":50},{"deltaTime":2,"channel":9,"type":"channel","subtype":"noteOff","noteNumber":43,"velocity":64,"realTime":1017,"sortKey":51},{"deltaTime":0,"channel":9,"type":"channel","subtype":"noteOff","noteNumber":45,"velocity":64,"realTime":1017,"sortKey":52},{"deltaTime":0,"type":"meta","subtype":"endOfTrack"}],[{"deltaTime":0,"type":"meta","subtype":"endOfTrack"}]]}