{"header":{"formatType":1,"trackCount":3,"ticksPerBeat":128},"tracks":[[{"deltaTime":0,"type":"meta","subtype":"timeSignature","numerator":4,"denominator":4,"metronome":24,"thirtyseconds":8,"realTime":0,"sortKey":2},{"deltaTime":0,"type":"meta","subtype":"setTempo","microsecondsPerBeat":468750,"realTime":0,"sortKey":1},{"deltaTime":0,"type":"meta","subtype":"endOfTrack"}],[{"deltaTime":null,"channel":9,"type":"channel","noteNumber":35,"velocity":113,"subtype":"noteOn","realTime":13312,"sortKey":775},{"deltaTime":0,"channel":9,"type":"channel","noteNumber":42,"velocity":127,"subtype":"noteOn","realTime":13312,"sortKey":776},{"deltaTime":0,"channel":9,"type":"channel","noteNumber":49,"velocity":107,"subtype":"noteOn","realTime":13312,"sortKey":777},{"deltaTime":8,"channel":9,"type":"channel","subtype":"noteOff","noteNumber":49,"velocity":64,"realTime":13320,"sortKey":778},{"deltaTime":3,"channel":9,"type":"channel","subtype":"noteOff","noteNumber":42,"velocity":64,"realTime":13323,"sortKey":779},{"deltaTime":74,"channel":9,"type":"channel","noteNumber":42,"velocity":127,"subtype":"noteOn","realTime":13397,"sortKey":780},{"deltaTime":12,"channel":9,"type":"channel","subtype":"noteOff","noteNumber":42,"velocity":64,"realTime":13409,"sortKey":781},{"deltaTime":33,"channel":9,"type":"channel","noteNumber":38,"velocity":127,"subtype":"noteOn","realTime":13442,"sortKey":782},{"deltaTime":0,"channel":9,"type":"channel","noteNumber":42,"velocity":127,"subtype":"noteOn","realTime":13442,"sortKey":783},{"deltaTime":16,"channel":9,"type":"channel","subtype":"noteOff","noteNumber":42,"velocity":64,"realTime":13458,"sortKey":784},{"deltaTime":25,"channel":9,"type":"channel","subtype":"noteOff","noteNumber":35,"velocity":64,"realTime":13483,"sortKey":785},{"deltaTime":40,"channel":9,"type":"channel","noteNumber":35,"velocity":80,"subtype":"noteOn","realTime":13523,"sortKey":786},{"deltaTime":0,"channel":9,"type":"channel","noteNumber":42,"velocity":127,"subtype":"noteOn","realTime":13523,"sortKey":787},{"deltaTime":9,"channel":9,"type":"channel","subtype":"noteOff","noteNumber":42,"velocity":64,"realTime":13532,"sortKey":788},{"deltaTime":1,"channel":9,"type":"channel","subtype":"noteOff","noteNumber":38,"velocity":64,"realTime":13533,"sortKey":789},{"deltaTime":11,"channel":9,"type":"channel","subtype":"noteOff","noteNumber":35,"velocity":64,"realTime":13544,"sortKey":790},{"deltaTime":24,"channel":9,"type":"channel","noteNumber":35,"velocity":113,"subtype":"noteOn","realTime":13568,"sortKey":791},{"deltaTime":0,"channel":9,"type":"channel","noteNumber":42,"velocity":127,"subtype":"noteOn","realTime":13568,"sortKey":792},{"deltaTime":16,"channel":9,"type":"channel","subtype":"noteOff","noteNumber":42,"velocity":64,"realTime":13584,"sortKey":793},{"deltaTime":69,"channel":9,"type":"channel","noteNumber":42,"velocity":127,"subtype":"noteOn","realTime":13653,"sortKey":794},{"deltaTime":12,"channel":9,"type":"channel","subtype":"noteOff","noteNumber":42,"velocity":64,"realTime":13665,"sortKey":795},{"deltaTime":32,"channel":9,"type":"channel","noteNumber":38,"velocity":127,"subtype":"noteOn","realTime":13697,"sortKey":796},{"deltaTime":0,"channel":9,"type":"channel","noteNumber":42,"velocity":127,"subtype":"noteOn","realTime":13697,"sortKey":797},{"deltaTime":34,"channel":9,"type":"channel","subtype":"noteOff","noteNumber":42,"velocity":64,"realTime":13731,"sortKey":798},{"deltaTime":10,"channel":9,"type":"channel","subtype":"noteOff","noteNumber":35,"velocity":64,"realTime":13741,"sortKey":799},{"deltaTime":40,"channel":9,"type":"channel","noteNumber":35,"velocity":98,"subtype":"noteOn","realTime":13781,"sortKey":800},{"deltaTime":0,"channel":9,"type":"channel","noteNumber":46,"velocity":127,"subtype":"noteOn","realTime":13781,"sortKey":801},{"deltaTime":16,"channel":9,"type":"channel","subtype":"noteOff","noteNumber":35,"velocity":64,"realTime":13797,"sortKey":802},{"deltaTime":10,"channel":9,"type":"channel","subtype":"noteOff","noteNumber":38,"velocity":64,"realTime":13807,"sortKey":803},{"deltaTime":16,"channel":9,"type":"channel","subtype":"noteOff","noteNumber":46,"velocity":64,"realTime":13823,"sortKey":804},{"deltaTime":1,"channel":9,"type":"channel","noteNumber":35,"velocity":107,"subtype":"noteOn","realTime":13824,"sortKey":805},{"deltaTime":0,"channel":9,"type":"channel","noteNumber":42,"velocity":113,"subtype":"noteOn","realTime":13824,"sortKey":806},{"deltaTime":20,"channel":9,"type":"channel","subtype":"noteOff","noteNumber":42,"velocity":64,"realTime":13844,"sortKey":807},{"deltaTime":65,"channel":9,"type":"channel","noteNumber":42,"velocity":127,"subtype":"noteOn","realTime":13909,"sortKey":808},{"deltaTime":14,"channel":9,"type":"channel","subtype":"noteOff","noteNumber":42,"velocity":64,"realTime":13923,"sortKey":809},{"deltaTime":31,"channel":9,"type":"channel","noteNumber":38,"velocity":127,"subtype":"noteOn","realTime":13954,"sortKey":810},{"deltaTime":0,"channel":9,"type":"channel","noteNumber":42,"velocity":127,"subtype":"noteOn","realTime":13954,"sortKey":811},{"deltaTime":15,"channel":9,"type":"channel","subtype":"noteOff","noteNumber":42,"velocity":64,"realTime":13969,"sortKey":812},{"deltaTime":22,"channel":9,"type":"channel","subtype":"noteOff","noteNumber":35,"velocity":64,"realTime":13991,"sortKey":813},{"deltaTime":44,"channel":9,"type":"channel","noteNumber":35,"velocity":98,"subtype":"noteOn","realTime":14035,"sortKey":814},{"deltaTime":0,"channel":9,"type":"channel","noteNumber":42,"velocity":127,"subtype":"noteOn","realTime":14035,"sortKey":815},{"deltaTime":8,"channel":9,"type":"channel","subtype":"noteOff","noteNumber":38,"velocity":64,"realTime":14043,"sortKey":816},{"deltaTime":6,"channel":9,"type":"channel","subtype":"noteOff","noteNumber":42,"velocity":64,"realTime":14049,"sortKey":817},{"deltaTime":4,"channel":9,"type":"channel","subtype":"noteOff","noteNumber":35,"velocity":64,"realTime":14053,"sortKey":818},{"deltaTime":27,"channel":9,"type":"channel","noteNumber":35,"velocity":107,"subtype":"noteOn","realTime":14080,"sortKey":819},{"deltaTime":0,"channel":9,"type":"channel","noteNumber":42,"velocity":127,"subtype":"noteOn","realTime":14080,"sortKey":820},{"deltaTime":16,"channel":9,"type":"channel","subtype":"noteOff","noteNumber":42,"velocity":64,"realTime":14096,"sortKey":821},{"deltaTime":34,"channel":9,"type":"channel","subtype":"noteOff","noteNumber":35,"velocity":64,"realTime":14130,"sortKey":822},{"deltaTime":35,"channel":9,"type":"channel","noteNumber":35,"velocity":64,"subtype":"noteOn","realTime":14165,"sortKey":823},{"deltaTime":0,"channel":9,"type":"channel","noteNumber":42,"velocity":127,"subtype":"noteOn","realTime":14165,"sortKey":824},{"deltaTime":15,"channel":9,"type":"channel","subtype":"noteOff","noteNumber":42,"velocity":64,"realTime":14180,"sortKey":825},{"deltaTime":29,"channel":9,"type":"channel","noteNumber":38,"velocity":127,"subtype":"noteOn","realTime":14209,"sortKey":826},{"deltaTime":0,"channel":9,"type":"channel","noteNumber":42,"velocity":127,"subtype":"noteOn","realTime":14209,"sortKey":827},{"deltaTime":30,"channel":9,"type":"channel","subtype":"noteOff","noteNumber":42,"velocity":64,"realTime":14239,"sortKey":828},{"deltaTime":5,"channel":9,"type":"channel","subtype":"noteOff","noteNumber":35,"velocity":64,"realTime":14244,"sortKey":829},{"deltaTime":49,"channel":9,"type":"channel","noteNumber":35,"velocity":93,"subtype":"noteOn","realTime":14293,"sortKey":830},{"deltaTime":0,"channel":9,"type":"channel","noteNumber":46,"velocity":119,"subtype":"noteOn","realTime":14293,"sortKey":831},{"deltaTime":9,"channel":9,"type":"channel","subtype":"noteOff","noteNumber":38,"velocity":64,"realTime":14302,"sortKey":832},{"deltaTime":14,"channel":9,"type":"channel","subtype":"noteOff","noteNumber":35,"velocity":64,"realTime":14316,"sortKey":833},{"deltaTime":20,"channel":9,"type":"channel","subtype":"noteOff","noteNumber":46,"velocity":64,"realTime":14336,"sortKey":834},{"deltaTime":0,"channel":9,"type":"channel","noteNumber":35,"velocity":102,"subtype":"noteOn","realTime":14336,"sortKey":835},{"deltaTime":0,"channel":9,"type":"channel","noteNumber":42,"velocity":119,"subtype":"noteOn","realTime":14336,"sortKey":836},{"deltaTime":19,"channel":9,"type":"channel","subtype":"noteOff","noteNumber":42,"velocity":64,"realTime":14355,"sortKey":837},{"deltaTime":66,"channel":9,"type":"channel","noteNumber":42,"velocity":127,"subtype":"noteOn","realTime":14421,"sortKey":838},{"deltaTime":16,"channel":9,"type":"channel","subtype":"noteOff","noteNumber":42,"velocity":64,"realTime":14437,"sortKey":839},{"deltaTime":29,"channel":9,"type":"channel","noteNumber":38,"velocity":127,"subtype":"noteOn","realTime":14466,"sortKey":840},{"deltaTime":0,"channel":9,"type":"channel","noteNumber":42,"velocity":127,"subtype":"noteOn","realTime":14466,"sortKey":841},{"deltaTime":16,"channel":9,"type":"channel","subtype":"noteOff","noteNumber":42,"velocity":64,"realTime":14482,"sortKey":842},{"deltaTime":5,"channel":9,"type":"channel","subtype":"noteOff","noteNumber":35,"velocity":64,"realTime":14487,"sortKey":843},{"deltaTime":48,"channel":9,"type":"channel","subtype":"noteOff","noteNumber":38,"velocity":64,"realTime":14535,"sortKey":844},{"deltaTime":12,"channel":9,"type":"channel","noteNumber":35,"velocity":102,"subtype":"noteOn","realTime":14547,"sortKey":845},{"deltaTime":0,"channel":9,"type":"channel","noteNumber":42,"velocity":127,"subtype":"noteOn","realTime":14547,"sortKey":846},{"deltaTime":13,"channel":9,"type":"channel","subtype":"noteOff","noteNumber":42,"velocity":64,"realTime":14560,"sortKey":847},{"deltaTime":7,"channel":9,"type":"channel","subtype":"noteOff","noteNumber":35,"velocity":64,"realTime":14567,"sortKey":848},{"deltaTime":25,"channel":9,"type":"channel","noteNumber":35,"velocity":89,"subtype":"noteOn","realTime":14592,"sortKey":849},{"deltaTime":0,"channel":9,"type":"channel","noteNumber":42,"velocity":127,"subtype":"noteOn","realTime":14592,"sortKey":850},{"deltaTime":20,"channel":9,"type":"channel","subtype":"noteOff","noteNumber":42,"velocity":64,"realTime":14612,"sortKey":851},{"deltaTime":14,"channel":9,"type":"channel","subtype":"noteOff","noteNumber":35,"velocity":64,"realTime":14626,"sortKey":852},{"deltaTime":51,"channel":9,"type":"channel","noteNumber":35,"velocity":93,"subtype":"noteOn","realTime":14677,"sortKey":853},{"deltaTime":0,"channel":9,"type":"channel","noteNumber":42,"velocity":127,"subtype":"noteOn","realTime":14677,"sortKey":854},{"deltaTime":15,"channel":9,"type":"channel","subtype":"noteOff","noteNumber":42,"velocity":64,"realTime":14692,"sortKey":855},{"deltaTime":19,"channel":9,"type":"channel","subtype":"noteOff","noteNumber":35,"velocity":64,"realTime":14711,"sortKey":856},{"deltaTime":10,"channel":9,"type":"channel","noteNumber":38,"velocity":127,"subtype":"noteOn","realTime":14721,"sortKey":857},{"deltaTime":0,"channel":9,"type":"channel","noteNumber":42,"velocity":127,"subtype":"noteOn","realTime":14721,"sortKey":858},{"deltaTime":20,"channel":9,"type":"channel","subtype":"noteOff","noteNumber":42,"velocity":64,"realTime":14741,"sortKey":859},{"deltaTime":64,"channel":9,"type":"channel","noteNumber":35,"velocity":98,"subtype":"noteOn","realTime":14805,"sortKey":860},{"deltaTime":0,"channel":9,"type":"channel","noteNumber":42,"velocity":127,"subtype":"noteOn","realTime":14805,"sortKey":861},{"deltaTime":4,"channel":9,"type":"channel","subtype":"noteOff","noteNumber":38,"velocity":64,"realTime":14809,"sortKey":862},{"deltaTime":12,"channel":9,"type":"channel","subtype":"noteOff","noteNumber":42,"velocity":64,"realTime":14821,"sortKey":863},{"deltaTime":4,"channel":9,"type":"channel","subtype":"noteOff","noteNumber":35,"velocity":64,"realTime":14825,"sortKey":864},{"deltaTime":23,"channel":9,"type":"channel","noteNumber":35,"velocity":98,"subtype":"noteOn","realTime":14848,"sortKey":865},{"deltaTime":0,"channel":9,"type":"channel","noteNumber":42,"velocity":127,"subtype":"noteOn","realTime":14848,"sortKey":866},{"deltaTime":16,"channel":9,"type":"channel","subtype":"noteOff","noteNumber":42,"velocity":64,"realTime":14864,"sortKey":867},{"deltaTime":51,"channel":9,"type":"channel","subtype":"noteOff","noteNumber":35,"velocity":64,"realTime":14915,"sortKey":868},{"deltaTime":18,"channel":9,"type":"channel","noteNumber":42,"velocity":127,"subtype":"noteOn","realTime":14933,"sortKey":869},{"deltaTime":14,"channel":9,"type":"channel","subtype":"noteOff","noteNumber":42,"velocity":64,"realTime":14947,"sortKey":870},{"deltaTime":31,"channel":9,"type":"channel","noteNumber":38,"velocity":127,"subtype":"noteOn","realTime":14978,"sortKey":871},{"deltaTime":0,"channel":9,"type":"channel","noteNumber":42,"velocity":127,"subtype":"noteOn","realTime":14978,"sortKey":872},{"deltaTime":20,"channel":9,"type":"channel","subtype":"noteOff","noteNumber":42,"velocity":64,"realTime":14998,"sortKey":873},{"deltaTime":45,"channel":9,"type":"channel","subtype":"noteOff","noteNumber":38,"velocity":64,"realTime":15043,"sortKey":874},{"deltaTime":16,"channel":9,"type":"channel","noteNumber":35,"velocity":76,"subtype":"noteOn","realTime":15059,"sortKey":875},{"deltaTime":0,"channel":9,"type":"channel","noteNumber":42,"velocity":127,"subtype":"noteOn","realTime":15059,"sortKey":876},{"deltaTime":17,"channel":9,"type":"channel","subtype":"noteOff","noteNumber":42,"velocity":64,"realTime":15076,"sortKey":877},{"deltaTime":4,"channel":9,"type":"channel","subtype":"noteOff","noteNumber":35,"velocity":64,"realTime":15080,"sortKey":878},{"deltaTime":24,"channel":9,"type":"channel","noteNumber":35,"velocity":98,"subtype":"noteOn","realTime":15104,"sortKey":879},{"deltaTime":0,"channel":9,"type":"channel","noteNumber":42,"velocity":127,"subtype":"noteOn","realTime":15104,"sortKey":880},{"deltaTime":18,"channel":9,"type":"channel","subtype":"noteOff","noteNumber":42,"velocity":64,"realTime":15122,"sortKey":881},{"deltaTime":31,"channel":9,"type":"channel","subtype":"noteOff","noteNumber":35,"velocity":64,"realTime":15153,"sortKey":882},{"deltaTime":36,"channel":9,"type":"channel","noteNumber":35,"velocity":85,"subtype":"noteOn","realTime":15189,"sortKey":883},{"deltaTime":0,"channel":9,"type":"channel","noteNumber":42,"velocity":127,"subtype":"noteOn","realTime":15189,"sortKey":884},{"deltaTime":15,"channel":9,"type":"channel","subtype":"noteOff","noteNumber":42,"velocity":64,"realTime":15204,"sortKey":885},{"deltaTime":17,"channel":9,"type":"channel","subtype":"noteOff","noteNumber":35,"velocity":64,"realTime":15221,"sortKey":886},{"deltaTime":12,"channel":9,"type":"channel","noteNumber":38,"velocity":127,"subtype":"noteOn","realTime":15233,"sortKey":887},{"deltaTime":0,"channel":9,"type":"channel","noteNumber":42,"velocity":127,"subtype":"noteOn","realTime":15233,"sortKey":888},{"deltaTime":30,"channel":9,"type":"channel","subtype":"noteOff","noteNumber":42,"velocity":64,"realTime":15263,"sortKey":889},{"deltaTime":54,"channel":9,"type":"channel","noteNumber":35,"velocity":93,"subtype":"noteOn","realTime":15317,"sortKey":890},{"deltaTime":0,"channel":9,"type":"channel","noteNumber":46,"velocity":119,"subtype":"noteOn","realTime":15317,"sortKey":891},{"deltaTime":1,"channel":9,"type":"channel","subtype":"noteOff","noteNumber":38,"velocity":64,"realTime":15318,"sortKey":892},{"deltaTime":22,"channel":9,"type":"channel","subtype":"noteOff","noteNumber":35,"velocity":64,"realTime":15340,"sortKey":893},{"deltaTime":17,"channel":9,"type":"channel","subtype":"noteOff","noteNumber":46,"velocity":64,"realTime":15357,"sortKey":894},{"deltaTime":3,"channel":9,"type":"channel","noteNumber":35,"velocity":107,"subtype":"noteOn","realTime":15360,"sortKey":895},{"deltaTime":0,"channel":9,"type":"channel","noteNumber":42,"velocity":119,"subtype":"noteOn","realTime":15360,"sortKey":896},{"deltaTime":0,"channel":9,"type":"channel","noteNumber":49,"velocity":76,"subtype":"noteOn","realTime":15360,"sortKey":897},{"deltaTime":12,"channel":9,"type":"channel","subtype":"noteOff","noteNumber":49,"velocity":64,"realTime":15372,"sortKey":898},{"deltaTime":8,"channel":9,"type":"channel","subtype":"noteOff","noteNumber":42,"velocity":64,"realTime":15380,"sortKey":899},{"deltaTime":41,"channel":9,"type":"channel","subtype":"noteOff","noteNumber":35,"velocity":64,"realTime":15421,"sortKey":900},{"deltaTime":24,"channel":9,"type":"channel","noteNumber":42,"velocity":127,"subtype":"noteOn","realTime":15445,"sortKey":901},{"deltaTime":14,"channel":9,"type":"channel","subtype":"noteOff","noteNumber":42,"velocity":64,"realTime":15459,"sortKey":902},{"deltaTime":31,"channel":9,"type":"channel","noteNumber":38,"velocity":127,"subtype":"noteOn","realTime":15490,"sortKey":903},{"deltaTime":0,"channel":9,"type":"channel","noteNumber":42,"velocity":127,"subtype":"noteOn","realTime":15490,"sortKey":904},{"deltaTime":21,"channel":9,"type":"channel","subtype":"noteOff","noteNumber":42,"velocity":64,"realTime":15511,"sortKey":905},{"deltaTime":46,"channel":9,"type":"channel","subtype":"noteOff","noteNumber":38,"velocity":64,"realTime":15557,"sortKey":906},{"deltaTime":14,"channel":9,"type":"channel","noteNumber":35,"velocity":98,"subtype":"noteOn","realTime":15571,"sortKey":907},{"deltaTime":0,"channel":9,"type":"channel","noteNumber":42,"velocity":127,"subtype":"noteOn","realTime":15571,"sortKey":908},{"deltaTime":14,"channel":9,"type":"channel","subtype":"noteOff","noteNumber":42,"velocity":64,"realTime":15585,"sortKey":909},{"deltaTime":6,"channel":9,"type":"channel","subtype":"noteOff","noteNumber":35,"velocity":64,"realTime":15591,"sortKey":910},{"deltaTime":25,"channel":9,"type":"channel","noteNumber":35,"velocity":107,"subtype":"noteOn","realTime":15616,"sortKey":911},{"deltaTime":0,"channel":9,"type":"channel","noteNumber":42,"velocity":127,"subtype":"noteOn","realTime":15616,"sortKey":912},{"deltaTime":18,"channel":9,"type":"channel","subtype":"noteOff","noteNumber":42,"velocity":64,"realTime":15634,"sortKey":913},{"deltaTime":28,"channel":9,"type":"channel","subtype":"noteOff","noteNumber":35,"velocity":64,"realTime":15662,"sortKey":914},{"deltaTime":39,"channel":9,"type":"channel","noteNumber":42,"velocity":127,"subtype":"noteOn","realTime":15701,"sortKey":915},{"deltaTime":16,"channel":9,"type":"channel","subtype":"noteOff","noteNumber":42,"velocity":64,"realTime":15717,"sortKey":916},{"deltaTime":28,"channel":9,"type":"channel","noteNumber":38,"velocity":127,"subtype":"noteOn","realTime":15745,"sortKey":917},{"deltaTime":0,"channel":9,"type":"channel","noteNumber":42,"velocity":127,"subtype":"noteOn","realTime":15745,"sortKey":918},{"deltaTime":28,"channel":9,"type":"channel","subtype":"noteOff","noteNumber":42,"velocity":64,"realTime":15773,"sortKey":919},{"deltaTime":42,"channel":9,"type":"channel","subtype":"noteOff","noteNumber":38,"velocity":64,"realTime":15815,"sortKey":920},{"deltaTime":14,"channel":9,"type":"channel","noteNumber":35,"velocity":93,"subtype":"noteOn","realTime":15829,"sortKey":921},{"deltaTime":0,"channel":9,"type":"channel","noteNumber":46,"velocity":119,"subtype":"noteOn","realTime":15829,"sortKey":922},{"deltaTime":20,"channel":9,"type":"channel","subtype":"noteOff","noteNumber":35,"velocity":64,"realTime":15849,"sortKey":923},{"deltaTime":23,"channel":9,"type":"channel","subtype":"noteOff","noteNumber":46,"velocity":64,"realTime":15872,"sortKey":924},{"deltaTime":0,"channel":9,"type":"channel","noteNumber":35,"velocity":102,"subtype":"noteOn","realTime":15872,"sortKey":925},{"deltaTime":0,"channel":9,"type":"channel","noteNumber":42,"velocity":127,"subtype":"noteOn","realTime":15872,"sortKey":926},{"deltaTime":19,"channel":9,"type":"channel","subtype":"noteOff","noteNumber":42,"velocity":64,"realTime":15891,"sortKey":927},{"deltaTime":40,"channel":9,"type":"channel","subtype":"noteOff","noteNumber":35,"velocity":64,"realTime":15931,"sortKey":928},{"deltaTime":26,"channel":9,"type":"channel","noteNumber":42,"velocity":127,"subtype":"noteOn","realTime":15957,"sortKey":929},{"deltaTime":14,"channel":9,"type":"channel","subtype":"noteOff","noteNumber":42,"velocity":64,"realTime":15971,"sortKey":930},{"deltaTime":31,"channel":9,"type":"channel","noteNumber":38,"velocity":127,"subtype":"noteOn","realTime":16002,"sortKey":931},{"deltaTime":0,"channel":9,"type":"channel","noteNumber":42,"velocity":127,"subtype":"noteOn","realTime":16002,"sortKey":932},{"deltaTime":17,"channel":9,"type":"channel","subtype":"noteOff","noteNumber":42,"velocity":64,"realTime":16019,"sortKey":933},{"deltaTime":42,"channel":9,"type":"channel","subtype":"noteOff","noteNumber":38,"velocity":64,"realTime":16061,"sortKey":934},{"deltaTime":22,"channel":9,"type":"channel","noteNumber":35,"velocity":102,"subtype":"noteOn","realTime":16083,"sortKey":935},{"deltaTime":0,"channel":9,"type":"channel","noteNumber":42,"velocity":127,"subtype":"noteOn","realTime":16083,"sortKey":936},{"deltaTime":16,"channel":9,"type":"channel","subtype":"noteOff","noteNumber":42,"velocity":64,"realTime":16099,"sortKey":937},{"deltaTime":6,"channel":9,"type":"channel","subtype":"noteOff","noteNumber":35,"velocity":64,"realTime":16105,"sortKey":938},{"deltaTime":23,"channel":9,"type":"channel","noteNumber":35,"velocity":93,"subtype":"noteOn","realTime":16128,"sortKey":939},{"deltaTime":0,"channel":9,"type":"channel","noteNumber":42,"velocity":127,"subtype":"noteOn","realTime":16128,"sortKey":940},{"deltaTime":17,"channel":9,"type":"channel","subtype":"noteOff","noteNumber":42,"velocity":64,"realTime":16145,"sortKey":941},{"deltaTime":13,"channel":9,"type":"channel","subtype":"noteOff","noteNumber":35,"velocity":64,"realTime":16158,"sortKey":942},{"deltaTime":55,"channel":9,"type":"channel","noteNumber":35,"velocity":102,"subtype":"noteOn","realTime":16213,"sortKey":943},{"deltaTime":0,"channel":9,"type":"channel","noteNumber":42,"velocity":127,"subtype":"noteOn","realTime":16213,"sortKey":944},{"deltaTime":15,"channel":9,"type":"channel","subtype":"noteOff","noteNumber":42,"velocity":64,"realTime":16228,"sortKey":945},{"deltaTime":9,"channel":9,"type":"channel","subtype":"noteOff","noteNumber":35,"velocity":64,"realTime":16237,"sortKey":946},{"deltaTime":20,"channel":9,"type":"channel","noteNumber":38,"velocity":127,"subtype":"noteOn","realTime":16257,"sortKey":947},{"deltaTime":0,"channel":9,"type":"channel","noteNumber":42,"velocity":127,"subtype":"noteOn","realTime":16257,"sortKey":948},{"deltaTime":18,"channel":9,"type":"channel","subtype":"noteOff","noteNumber":42,"velocity":64,"realTime":16275,"sortKey":949},{"deltaTime":54,"channel":9,"type":"channel","subtype":"noteOff","noteNumber":38,"velocity":64,"realTime":16329,"sortKey":950},{"deltaTime":12,"channel":9,"type":"channel","noteNumber":35,"velocity":102,"subtype":"noteOn","realTime":16341,"sortKey":951},{"deltaTime":0,"channel":9,"type":"channel","noteNumber":42,"velocity":127,"subtype":"noteOn","realTime":16341,"sortKey":952},{"deltaTime":18,"channel":9,"type":"channel","subtype":"noteOff","noteNumber":42,"velocity":64,"realTime":16359,"sortKey":953},{"deltaTime":2,"channel":9,"type":"channel","subtype":"noteOff","noteNumber":35,"velocity":64,"realTime":16361,"sortKey":954},{"deltaTime":23,"channel":9,"type":"channel","noteNumber":35,"velocity":113,"subtype":"noteOn","realTime":16384,"sortKey":955},{"deltaTime":0,"channel":9,"type":"channel","noteNumber":42,"velocity":127,"subtype":"noteOn","realTime":16384,"sortKey":956},{"deltaTime":17,"channel":9,"type":"channel","subtype":"noteOff","noteNumber":42,"velocity":64,"realTime":16401,"sortKey":957},{"deltaTime":26,"channel":9,"type":"channel","subtype":"noteOff","noteNumber":35,"velocity":64,"realTime":16427,"sortKey":958},{"deltaTime":42,"channel":9,"type":"channel","noteNumber":42,"velocity":127,"subtype":"noteOn","realTime":16469,"sortKey":959},{"deltaTime":13,"channel":9,"type":"channel","subtype":"noteOff","noteNumber":42,"velocity":64,"realTime":16482,"sortKey":960},{"deltaTime":32,"channel":9,"type":"channel","noteNumber":38,"velocity":127,"subtype":"noteOn","realTime":16514,"sortKey":961},{"deltaTime":0,"channel":9,"type":"channel","noteNumber":42,"velocity":127,"subtype":"noteOn","realTime":16514,"sortKey":962},{"deltaTime":19,"channel":9,"type":"channel","subtype":"noteOff","noteNumber":42,"velocity":64,"realTime":16533,"sortKey":963},{"deltaTime":56,"channel":9,"type":"channel","subtype":"noteOff","noteNumber":38,"velocity":64,"realTime":16589,"sortKey":964},{"deltaTime":6,"channel":9,"type":"channel","noteNumber":35,"velocity":98,"subtype":"noteOn","realTime":16595,"sortKey":965},{"deltaTime":0,"channel":9,"type":"channel","noteNumber":42,"velocity":127,"subtype":"noteOn","realTime":16595,"sortKey":966},{"deltaTime":16,"channel":9,"type":"channel","subtype":"noteOff","noteNumber":42,"velocity":64,"realTime":16611,"sortKey":967},{"deltaTime":9,"channel":9,"type":"channel","subtype":"noteOff","noteNumber":35,"velocity":64,"realTime":16620,"sortKey":968},{"deltaTime":20,"channel":9,"type":"channel","noteNumber":35,"velocity":102,"subtype":"noteOn","realTime":16640,"sortKey":969},{"deltaTime":0,"channel":9,"type":"channel","noteNumber":42,"velocity":127,"subtype":"noteOn","realTime":16640,"sortKey":970},{"deltaTime":21,"channel":9,"type":"channel","subtype":"noteOff","noteNumber":42,"velocity":64,"realTime":16661,"sortKey":971},{"deltaTime":36,"channel":9,"type":"channel","subtype":"noteOff","noteNumber":35,"velocity":64,"realTime":16697,"sortKey":972},{"deltaTime":28,"channel":9,"type":"channel","noteNumber":42,"velocity":127,"subtype":"noteOn","realTime":16725,"sortKey":973},{"deltaTime":15,"channel":9,"type":"channel","subtype":"noteOff","noteNumber":42,"velocity":64,"realTime":16740,"sortKey":974},{"deltaTime":29,"channel":9,"type":"channel","noteNumber":38,"velocity":127,"subtype":"noteOn","realTime":16769,"sortKey":975},{"deltaTime":0,"channel":9,"type":"channel","noteNumber":42,"velocity":127,"subtype":"noteOn","realTime":16769,"sortKey":976},{"deltaTime":20,"channel":9,"type":"channel","subtype":"noteOff","noteNumber":42,"velocity":64,"realTime":16789,"sortKey":977},{"deltaTime":54,"channel":9,"type":"channel","subtype":"noteOff","noteNumber":38,"velocity":64,"realTime":16843,"sortKey":978},{"deltaTime":10,"channel":9,"type":"channel","noteNumber":35,"velocity":98,"subtype":"noteOn","realTime":16853,"sortKey":979},{"deltaTime":0,"channel":9,"type":"channel","noteNumber":42,"velocity":127,"subtype":"noteOn","realTime":16853,"sortKey":980},{"deltaTime":18,"channel":9,"type":"channel","subtype":"noteOff","noteNumber":42,"velocity":64,"realTime":16871,"sortKey":981},{"deltaTime":5,"channel":9,"type":"channel","subtype":"noteOff","noteNumber":35,"velocity":64,"realTime":16876,"sortKey":982},{"deltaTime":20,"channel":9,"type":"channel","noteNumber":35,"velocity":102,"subtype":"noteOn","realTime":16896,"sortKey":983},{"deltaTime":0,"channel":9,"type":"channel","noteNumber":42,"velocity":127,"subtype":"noteOn","realTime":16896,"sortKey":984},{"deltaTime":19,"channel":9,"type":"channel","subtype":"noteOff","noteNumber":42,"velocity":64,"realTime":16915,"sortKey":985},{"deltaTime":66,"channel":9,"type":"channel","noteNumber":42,"velocity":127,"subtype":"noteOn","realTime":16981,"sortKey":986},{"deltaTime":16,"channel":9,"type":"channel","subtype":"noteOff","noteNumber":42,"velocity":64,"realTime":16997,"sortKey":987},{"deltaTime":29,"channel":9,"type":"channel","noteNumber":38,"velocity":127,"subtype":"noteOn","realTime":17026,"sortKey":988},{"deltaTime":0,"channel":9,"type":"channel","noteNumber":42,"velocity":127,"subtype":"noteOn","realTime":17026,"sortKey":989},{"deltaTime":9,"channel":9,"type":"channel","subtype":"noteOff","noteNumber":35,"velocity":64,"realTime":17035,"sortKey":990},{"deltaTime":14,"channel":9,"type":"channel","subtype":"noteOff","noteNumber":42,"velocity":64,"realTime":17049,"sortKey":991},{"deltaTime":58,"channel":9,"type":"channel","noteNumber":35,"velocity":85,"subtype":"noteOn","realTime":17107,"sortKey":992},{"deltaTime":0,"channel":9,"type":"channel","noteNumber":42,"velocity":127,"subtype":"noteOn","realTime":17107,"sortKey":993},{"deltaTime":12,"channel":9,"type":"channel","subtype":"noteOff","noteNumber":35,"velocity":64,"realTime":17119,"sortKey":994},{"deltaTime":4,"channel":9,"type":"channel","subtype":"noteOff","noteNumber":42,"velocity":64,"realTime":17123,"sortKey":995},{"deltaTime":27,"channel":9,"type":"channel","subtype":"noteOff","noteNumber":38,"velocity":64,"realTime":17150,"sortKey":996},{"deltaTime":2,"channel":9,"type":"channel","noteNumber":35,"velocity":93,"subtype":"noteOn","realTime":17152,"sortKey":997},{"deltaTime":0,"channel":9,"type":"channel","noteNumber":42,"velocity":127,"subtype":"noteOn","realTime":17152,"sortKey":998},{"deltaTime":21,"channel":9,"type":"channel","subtype":"noteOff","noteNumber":42,"velocity":64,"realTime":17173,"sortKey":999},{"deltaTime":20,"channel":9,"type":"channel","noteNumber":38,"velocity":127,"subtype":"noteOn","realTime":17193,"sortKey":1000},{"deltaTime":11,"channel":9,"type":"channel","subtype":"noteOff","noteNumber":35,"velocity":64,"realTime":17204,"sortKey":1001},{"deltaTime":27,"channel":9,"type":"channel","subtype":"noteOff","noteNumber":38,"velocity":64,"realTime":17231,"sortKey":1002},{"deltaTime":6,"channel":9,"type":"channel","noteNumber":35,"velocity":76,"subtype":"noteOn","realTime":17237,"sortKey":1003},{"deltaTime":0,"channel":9,"type":"channel","noteNumber":42,"velocity":127,"subtype":"noteOn","realTime":17237,"sortKey":1004},{"deltaTime":16,"channel":9,"type":"channel","subtype":"noteOff","noteNumber":42,"velocity":64,"realTime":17253,"sortKey":1005},{"deltaTime":28,"channel":9,"type":"channel","noteNumber":38,"velocity":127,"subtype":"noteOn","realTime":17281,"sortKey":1006},{"deltaTime":0,"channel":9,"type":"channel","noteNumber":42,"velocity":127,"subtype":"noteOn","realTime":17281,"sortKey":1007},{"deltaTime":2,"channel":9,"type":"channel","subtype":"noteOff","noteNumber":35,"velocity":64,"realTime":17283,"sortKey":1008},{"deltaTime":27,"channel":9,"type":"channel","subtype":"noteOff","noteNumber":42,"velocity":64,"realTime":17310,"sortKey":1009},{"deltaTime":13,"channel":9,"type":"channel","noteNumber":35,"velocity":107,"subtype":"noteOn","realTime":17323,"sortKey":1010},{"deltaTime":19,"channel":9,"type":"channel","subtype":"noteOff","noteNumber":38,"velocity":64,"realTime":17342,"sortKey":1011},{"deltaTime":7,"channel":9,"type":"channel","subtype":"noteOff","noteNumber":35,"velocity":64,"realTime":17349,"sortKey":1012},{"deltaTime":16,"channel":9,"type":"channel","noteNumber":35,"velocity":107,"subtype":"noteOn","realTime":17365,"sortKey":1013},{"deltaTime":0,"channel":9,"type":"channel","noteNumber":46,"velocity":127,"subtype":"noteOn","realTime":17365,"sortKey":1014},{"deltaTime":24,"channel":9,"type":"channel","subtype":"noteOff","noteNumber":35,"velocity":64,"realTime":17389,"sortKey":1015},{"deltaTime":11,"channel":9,"type":"channel","subtype":"noteOff","noteNumber":46,"velocity":64,"realTime":17400,"sortKey":1016},{"deltaTime":0,"type":"meta","subtype":"endOfTrack"}],[{"deltaTime":null,"channel":1,"type":"channel","noteNumber":69,"velocity":76,"subtype":"noteOn","realTime":13312,"sortKey":387},{"deltaTime":41,"channel":1,"type":"channel","subtype":"noteOff","noteNumber":69,"velocity":64,"realTime":13353,"sortKey":388},{"deltaTime":44,"channel":1,"type":"channel","noteNumber":69,"velocity":107,"subtype":"noteOn","realTime":13397,"sortKey":389},{"deltaTime":43,"channel":1,"type":"channel","noteNumber":73,"velocity":107,"subtype":"noteOn","realTime":13440,"sortKey":390},{"deltaTime":7,"channel":1,"type":"channel","subtype":"noteOff","noteNumber":69,"velocity":64,"realTime":13447,"sortKey":391},{"deltaTime":32,"channel":1,"type":"channel","subtype":"noteOff","noteNumber":73,"velocity":64,"realTime":13479,"sortKey":392},{"deltaTime":46,"channel":1,"type":"channel","noteNumber":73,"velocity":89,"subtype":"noteOn","realTime":13525,"sortKey":393},{"deltaTime":43,"channel":1,"type":"channel","subtype":"noteOff","noteNumber":73,"velocity":64,"realTime":13568,"sortKey":394},{"deltaTime":0,"channel":1,"type":"channel","noteNumber":76,"velocity":89,"subtype":"noteOn","realTime":13568,"sortKey":395},{"deltaTime":33,"channel":1,"type":"channel","subtype":"noteOff","noteNumber":76,"velocity":64,"realTime":13601,"sortKey":396},{"deltaTime":52,"channel":1,"type":"channel","noteNumber":76,"velocity":80,"subtype":"noteOn","realTime":13653,"sortKey":397},{"deltaTime":43,"channel":1,"type":"channel","noteNumber":78,"velocity":80,"subtype":"noteOn","realTime":13696,"sortKey":398},{"deltaTime":4,"channel":1,"type":"channel","subtype":"noteOff","noteNumber":76,"velocity":64,"realTime":13700,"sortKey":399},{"deltaTime":35,"channel":1,"type":"channel","subtype":"noteOff","noteNumber":78,"velocity":64,"realTime":13735,"sortKey":400},{"deltaTime":4,"channel":1,"type":"channel","noteNumber":76,"velocity":85,"subtype":"noteOn","realTime":13739,"sortKey":401},{"deltaTime":33,"channel":1,"type":"channel","subtype":"noteOff","noteNumber":76,"velocity":64,"realTime":13772,"sortKey":402},{"deltaTime":9,"channel":1,"type":"channel","noteNumber":73,"velocity":93,"subtype":"noteOn","realTime":13781,"sortKey":403},{"deltaTime":35,"channel":1,"type":"channel","subtype":"noteOff","noteNumber":73,"velocity":64,"realTime":13816,"sortKey":404},{"deltaTime":8,"channel":1,"type":"channel","noteNumber":64,"velocity":107,"subtype":"noteOn","realTime":13824,"sortKey":405},{"deltaTime":40,"channel":1,"type":"channel","subtype":"noteOff","noteNumber":64,"velocity":64,"realTime":13864,"sortKey":406},{"deltaTime":45,"channel":1,"type":"channel","noteNumber":64,"velocity":93,"subtype":"noteOn","realTime":13909,"sortKey":407},{"deltaTime":43,"channel":1,"type":"channel","subtype":"noteOff","noteNumber":64,"velocity":64,"realTime":13952,"sortKey":408},{"deltaTime":0,"channel":1,"type":"channel","noteNumber":68,"velocity":107,"subtype":"noteOn","realTime":13952,"sortKey":409},{"deltaTime":33,"channel":1,"type":"channel","subtype":"noteOff","noteNumber":68,"velocity":64,"realTime":13985,"sortKey":410},{"deltaTime":52,"channel":1,"type":"channel","noteNumber":68,"velocity":98,"subtype":"noteOn","realTime":14037,"sortKey":411},{"deltaTime":42,"channel":1,"type":"channel","subtype":"noteOff","noteNumber":68,"velocity":64,"realTime":14079,"sortKey":412},{"deltaTime":1,"channel":1,"type":"channel","noteNumber":71,"velocity":98,"subtype":"noteOn","realTime":14080,"sortKey":413},{"deltaTime":36,"channel":1,"type":"channel","subtype":"noteOff","noteNumber":71,"velocity":64,"realTime":14116,"sortKey":414},{"deltaTime":49,"channel":1,"type":"channel","noteNumber":71,"velocity":93,"subtype":"noteOn","realTime":14165,"sortKey":415},{"deltaTime":43,"channel":1,"type":"channel","noteNumber":73,"velocity":93,"subtype":"noteOn","realTime":14208,"sortKey":416},{"deltaTime":7,"channel":1,"type":"channel","subtype":"noteOff","noteNumber":71,"velocity":64,"realTime":14215,"sortKey":417},{"deltaTime":78,"channel":1,"type":"channel","subtype":"noteOff","noteNumber":73,"velocity":64,"realTime":14293,"sortKey":418},{"deltaTime":0,"channel":1,"type":"channel","noteNumber":71,"velocity":93,"subtype":"noteOn","realTime":14293,"sortKey":419},{"deltaTime":40,"channel":1,"type":"channel","subtype":"noteOff","noteNumber":71,"velocity":64,"realTime":14333,"sortKey":420},{"deltaTime":3,"channel":1,"type":"channel","noteNumber":74,"velocity":107,"subtype":"noteOn","realTime":14336,"sortKey":421},{"deltaTime":44,"channel":1,"type":"channel","subtype":"noteOff","noteNumber":74,"velocity":64,"realTime":14380,"sortKey":422},{"deltaTime":41,"channel":1,"type":"channel","noteNumber":74,"velocity":107,"subtype":"noteOn","realTime":14421,"sortKey":423},{"deltaTime":31,"channel":1,"type":"channel","subtype":"noteOff","noteNumber":74,"velocity":64,"realTime":14452,"sortKey":424},{"deltaTime":12,"channel":1,"type":"channel","noteNumber":74,"velocity":93,"subtype":"noteOn","realTime":14464,"sortKey":425},{"deltaTime":44,"channel":1,"type":"channel","subtype":"noteOff","noteNumber":74,"velocity":64,"realTime":14508,"sortKey":426},{"deltaTime":41,"channel":1,"type":"channel","noteNumber":74,"velocity":89,"subtype":"noteOn","realTime":14549,"sortKey":427},{"deltaTime":31,"channel":1,"type":"channel","subtype":"noteOff","noteNumber":74,"velocity":64,"realTime":14580,"sortKey":428},{"deltaTime":12,"channel":1,"type":"channel","noteNumber":74,"velocity":93,"subtype":"noteOn","realTime":14592,"sortKey":429},{"deltaTime":41,"channel":1,"type":"channel","subtype":"noteOff","noteNumber":74,"velocity":64,"realTime":14633,"sortKey":430},{"deltaTime":44,"channel":1,"type":"channel","noteNumber":74,"velocity":98,"subtype":"noteOn","realTime":14677,"sortKey":431},{"deltaTime":30,"channel":1,"type":"channel","subtype":"noteOff","noteNumber":74,"velocity":64,"realTime":14707,"sortKey":432},{"deltaTime":13,"channel":1,"type":"channel","noteNumber":74,"velocity":89,"subtype":"noteOn","realTime":14720,"sortKey":433},{"deltaTime":43,"channel":1,"type":"channel","subtype":"noteOff","noteNumber":74,"velocity":64,"realTime":14763,"sortKey":434},{"deltaTime":42,"channel":1,"type":"channel","noteNumber":74,"velocity":107,"subtype":"noteOn","realTime":14805,"sortKey":435},{"deltaTime":31,"channel":1,"type":"channel","subtype":"noteOff","noteNumber":74,"velocity":64,"realTime":14836,"sortKey":436},{"deltaTime":12,"channel":1,"type":"channel","noteNumber":74,"velocity":102,"subtype":"noteOn","realTime":14848,"sortKey":437},{"deltaTime":41,"channel":1,"type":"channel","subtype":"noteOff","noteNumber":74,"velocity":64,"realTime":14889,"sortKey":438},{"deltaTime":44,"channel":1,"type":"channel","noteNumber":74,"velocity":102,"subtype":"noteOn","realTime":14933,"sortKey":439},{"deltaTime":30,"channel":1,"type":"channel","subtype":"noteOff","noteNumber":74,"velocity":64,"realTime":14963,"sortKey":440},{"deltaTime":13,"channel":1,"type":"channel","noteNumber":74,"velocity":89,"subtype":"noteOn","realTime":14976,"sortKey":441},{"deltaTime":52,"channel":1,"type":"channel","subtype":"noteOff","noteNumber":74,"velocity":64,"realTime":15028,"sortKey":442},{"deltaTime":33,"channel":1,"type":"channel","noteNumber":74,"velocity":107,"subtype":"noteOn","realTime":15061,"sortKey":443},{"deltaTime":34,"channel":1,"type":"channel","subtype":"noteOff","noteNumber":74,"velocity":64,"realTime":15095,"sortKey":444},{"deltaTime":9,"channel":1,"type":"channel","noteNumber":74,"velocity":107,"subtype":"noteOn","realTime":15104,"sortKey":445},{"deltaTime":43,"channel":1,"type":"channel","subtype":"noteOff","noteNumber":74,"velocity":64,"realTime":15147,"sortKey":446},{"deltaTime":42,"channel":1,"type":"channel","noteNumber":74,"velocity":98,"subtype":"noteOn","realTime":15189,"sortKey":447},{"deltaTime":40,"channel":1,"type":"channel","subtype":"noteOff","noteNumber":74,"velocity":64,"realTime":15229,"sortKey":448},{"deltaTime":3,"channel":1,"type":"channel","noteNumber":66,"velocity":98,"subtype":"noteOn","realTime":15232,"sortKey":449},{"deltaTime":76,"channel":1,"type":"channel","subtype":"noteOff","noteNumber":66,"velocity":64,"realTime":15308,"sortKey":450},{"deltaTime":9,"channel":1,"type":"channel","noteNumber":67,"velocity":93,"subtype":"noteOn","realTime":15317,"sortKey":451},{"deltaTime":43,"channel":1,"type":"channel","noteNumber":69,"velocity":113,"subtype":"noteOn","realTime":15360,"sortKey":452},{"deltaTime":3,"channel":1,"type":"channel","subtype":"noteOff","noteNumber":67,"velocity":64,"realTime":15363,"sortKey":453},{"deltaTime":36,"channel":1,"type":"channel","subtype":"noteOff","noteNumber":69,"velocity":64,"realTime":15399,"sortKey":454},{"deltaTime":46,"channel":1,"type":"channel","noteNumber":69,"velocity":113,"subtype":"noteOn","realTime":15445,"sortKey":455},{"deltaTime":28,"channel":1,"type":"channel","subtype":"noteOff","noteNumber":69,"velocity":64,"realTime":15473,"sortKey":456},{"deltaTime":15,"channel":1,"type":"channel","noteNumber":69,"velocity":102,"subtype":"noteOn","realTime":15488,"sortKey":457},{"deltaTime":35,"channel":1,"type":"channel","subtype":"noteOff","noteNumber":69,"velocity":64,"realTime":15523,"sortKey":458},{"deltaTime":50,"channel":1,"type":"channel","noteNumber":69,"velocity":107,"subtype":"noteOn","realTime":15573,"sortKey":459},{"deltaTime":31,"channel":1,"type":"channel","subtype":"noteOff","noteNumber":69,"velocity":64,"realTime":15604,"sortKey":460},{"deltaTime":12,"channel":1,"type":"channel","noteNumber":69,"velocity":98,"subtype":"noteOn","realTime":15616,"sortKey":461},{"deltaTime":41,"channel":1,"type":"channel","subtype":"noteOff","noteNumber":69,"velocity":64,"realTime":15657,"sortKey":462},{"deltaTime":44,"channel":1,"type":"channel","noteNumber":69,"velocity":107,"subtype":"noteOn","realTime":15701,"sortKey":463},{"deltaTime":31,"channel":1,"type":"channel","subtype":"noteOff","noteNumber":69,"velocity":64,"realTime":15732,"sortKey":464},{"deltaTime":12,"channel":1,"type":"channel","noteNumber":69,"velocity":102,"subtype":"noteOn","realTime":15744,"sortKey":465},{"deltaTime":40,"channel":1,"type":"channel","subtype":"noteOff","noteNumber":69,"velocity":64,"realTime":15784,"sortKey":466},{"deltaTime":45,"channel":1,"type":"channel","noteNumber":69,"velocity":98,"subtype":"noteOn","realTime":15829,"sortKey":467},{"deltaTime":43,"channel":1,"type":"channel","noteNumber":64,"velocity":113,"subtype":"noteOn","realTime":15872,"sortKey":468},{"deltaTime":1,"channel":1,"type":"channel","subtype":"noteOff","noteNumber":69,"velocity":64,"realTime":15873,"sortKey":469},{"deltaTime":42,"channel":1,"type":"channel","subtype":"noteOff","noteNumber":64,"velocity":64,"realTime":15915,"sortKey":470},{"deltaTime":42,"channel":1,"type":"channel","noteNumber":64,"velocity":98,"subtype":"noteOn","realTime":15957,"sortKey":471},{"deltaTime":28,"channel":1,"type":"channel","subtype":"noteOff","noteNumber":64,"velocity":64,"realTime":15985,"sortKey":472},{"deltaTime":15,"channel":1,"type":"channel","noteNumber":64,"velocity":93,"subtype":"noteOn","realTime":16000,"sortKey":473},{"deltaTime":37,"channel":1,"type":"channel","subtype":"noteOff","noteNumber":64,"velocity":64,"realTime":16037,"sortKey":474},{"deltaTime":48,"channel":1,"type":"channel","noteNumber":64,"velocity":93,"subtype":"noteOn","realTime":16085,"sortKey":475},{"deltaTime":27,"channel":1,"type":"channel","subtype":"noteOff","noteNumber":64,"velocity":64,"realTime":16112,"sortKey":476},{"deltaTime":16,"channel":1,"type":"channel","noteNumber":64,"velocity":93,"subtype":"noteOn","realTime":16128,"sortKey":477},{"deltaTime":40,"channel":1,"type":"channel","subtype":"noteOff","noteNumber":64,"velocity":64,"realTime":16168,"sortKey":478},{"deltaTime":45,"channel":1,"type":"channel","noteNumber":64,"velocity":93,"subtype":"noteOn","realTime":16213,"sortKey":479},{"deltaTime":26,"channel":1,"type":"channel","subtype":"noteOff","noteNumber":64,"velocity":64,"realTime":16239,"sortKey":480},{"deltaTime":17,"channel":1,"type":"channel","noteNumber":64,"velocity":85,"subtype":"noteOn","realTime":16256,"sortKey":481},{"deltaTime":35,"channel":1,"type":"channel","subtype":"noteOff","noteNumber":64,"velocity":64,"realTime":16291,"sortKey":482},{"deltaTime":50,"channel":1,"type":"channel","noteNumber":64,"velocity":93,"subtype":"noteOn","realTime":16341,"sortKey":483},{"deltaTime":30,"channel":1,"type":"channel","subtype":"noteOff","noteNumber":64,"velocity":64,"realTime":16371,"sortKey":484},{"deltaTime":13,"channel":1,"type":"channel","noteNumber":69,"velocity":107,"subtype":"noteOn","realTime":16384,"sortKey":485},{"deltaTime":85,"channel":1,"type":"channel","noteNumber":81,"velocity":107,"subtype":"noteOn","realTime":16469,"sortKey":486},{"deltaTime":8,"channel":1,"type":"channel","subtype":"noteOff","noteNumber":69,"velocity":64,"realTime":16477,"sortKey":487},{"deltaTime":35,"channel":1,"type":"channel","noteNumber":67,"velocity":102,"subtype":"noteOn","realTime":16512,"sortKey":488},{"deltaTime":9,"channel":1,"type":"channel","subtype":"noteOff","noteNumber":81,"velocity":64,"realTime":16521,"sortKey":489},{"deltaTime":76,"channel":1,"type":"channel","noteNumber":79,"velocity":102,"subtype":"noteOn","realTime":16597,"sortKey":490},{"deltaTime":16,"channel":1,"type":"channel","subtype":"noteOff","noteNumber":67,"velocity":64,"realTime":16613,"sortKey":491},{"deltaTime":23,"channel":1,"type":"channel","subtype":"noteOff","noteNumber":79,"velocity":64,"realTime":16636,"sortKey":492},{"deltaTime":4,"channel":1,"type":"channel","noteNumber":66,"velocity":102,"subtype":"noteOn","realTime":16640,"sortKey":493},{"deltaTime":85,"channel":1,"type":"channel","noteNumber":78,"velocity":102,"subtype":"noteOn","realTime":16725,"sortKey":494},{"deltaTime":22,"channel":1,"type":"channel","subtype":"noteOff","noteNumber":66,"velocity":64,"realTime":16747,"sortKey":495},{"deltaTime":20,"channel":1,"type":"channel","subtype":"noteOff","noteNumber":78,"velocity":64,"realTime":16767,"sortKey":496},{"deltaTime":1,"channel":1,"type":"channel","noteNumber":65,"velocity":113,"subtype":"noteOn","realTime":16768,"sortKey":497},{"deltaTime":85,"channel":1,"type":"channel","noteNumber":77,"velocity":102,"subtype":"noteOn","realTime":16853,"sortKey":498},{"deltaTime":23,"channel":1,"type":"channel","subtype":"noteOff","noteNumber":65,"velocity":64,"realTime":16876,"sortKey":499},{"deltaTime":9,"channel":1,"type":"channel","subtype":"noteOff","noteNumber":77,"velocity":64,"realTime":16885,"sortKey":500},{"deltaTime":11,"channel":1,"type":"channel","noteNumber":64,"velocity":93,"subtype":"noteOn","realTime":16896,"sortKey":501},{"deltaTime":85,"channel":1,"type":"channel","subtype":"noteOff","noteNumber":64,"velocity":64,"realTime":16981,"sortKey":502},{"deltaTime":0,"channel":1,"type":"channel","noteNumber":76,"velocity":113,"subtype":"noteOn","realTime":16981,"sortKey":503},{"deltaTime":43,"channel":1,"type":"channel","noteNumber":64,"velocity":89,"subtype":"noteOn","realTime":17024,"sortKey":504},{"deltaTime":21,"channel":1,"type":"channel","subtype":"noteOff","noteNumber":76,"velocity":64,"realTime":17045,"sortKey":505},{"deltaTime":60,"channel":1,"type":"channel","subtype":"noteOff","noteNumber":64,"velocity":64,"realTime":17105,"sortKey":506},{"deltaTime":4,"channel":1,"type":"channel","noteNumber":76,"velocity":119,"subtype":"noteOn","realTime":17109,"sortKey":507},{"deltaTime":124,"channel":1,"type":"channel","subtype":"noteOff","noteNumber":76,"velocity":64,"realTime":17233,"sortKey":508},{"deltaTime":4,"channel":1,"type":"channel","noteNumber":64,"velocity":89,"subtype":"noteOn","realTime":17237,"sortKey":509},{"deltaTime":27,"channel":1,"type":"channel","subtype":"noteOff","noteNumber":64,"velocity":64,"realTime":17264,"sortKey":510},{"deltaTime":16,"channel":1,"type":"channel","noteNumber":64,"velocity":98,"subtype":"noteOn","realTime":17280,"sortKey":511},{"deltaTime":85,"channel":1,"type":"channel","subtype":"noteOff","noteNumber":64,"velocity":64,"realTime":17365,"sortKey":512},{"deltaTime":0,"channel":1,"type":"channel","noteNumber":66,"velocity":107,"subtype":"noteOn","realTime":17365,"sortKey":513},{"deltaTime":0,"type":"meta","subtype":"endOfTrack"}]]}