{"header":{"formatType":1,"trackCount":3,"ticksPerBeat":128},"tracks":[[{"deltaTime":0,"type":"meta","subtype":"timeSignature","numerator":4,"denominator":4,"metronome":24,"thirtyseconds":8,"realTime":0,"sortKey":2},{"deltaTime":0,"type":"meta","subtype":"setTempo","microsecondsPerBeat":468750,"realTime":0,"sortKey":1},{"deltaTime":0,"type":"meta","subtype":"endOfTrack"}],[{"deltaTime":null,"channel":9,"type":"channel","noteNumber":35,"velocity":107,"subtype":"noteOn","realTime":1024,"sortKey":53},{"deltaTime":0,"channel":9,"type":"channel","noteNumber":35,"velocity":76,"subtype":"noteOn","realTime":1024,"sortKey":54},{"deltaTime":0,"channel":9,"type":"channel","noteNumber":51,"velocity":127,"subtype":"noteOn","realTime":1024,"sortKey":55},{"deltaTime":0,"channel":9,"type":"channel","noteNumber":49,"velocity":107,"subtype":"noteOn","realTime":1024,"sortKey":56},{"deltaTime":0,"channel":9,"type":"channel","subtype":"noteOff","noteNumber":35,"velocity":64,"realTime":1024,"sortKey":57},{"deltaTime":7,"channel":9,"type":"channel","subtype":"noteOff","noteNumber":49,"velocity":64,"realTime":1031,"sortKey":58},{"deltaTime":12,"channel":9,"type":"channel","subtype":"noteOff","noteNumber":51,"velocity":64,"realTime":1043,"sortKey":59},{"deltaTime":66,"channel":9,"type":"channel","noteNumber":51,"velocity":85,"subtype":"noteOn","realTime":1109,"sortKey":60},{"deltaTime":5,"channel":9,"type":"channel","subtype":"noteOff","noteNumber":51,"velocity":64,"realTime":1114,"sortKey":61},{"deltaTime":40,"channel":9,"type":"channel","noteNumber":38,"velocity":127,"subtype":"noteOn","realTime":1154,"sortKey":62},{"deltaTime":0,"channel":9,"type":"channel","noteNumber":51,"velocity":127,"subtype":"noteOn","realTime":1154,"sortKey":63},{"deltaTime":29,"channel":9,"type":"channel","subtype":"noteOff","noteNumber":51,"velocity":64,"realTime":1183,"sortKey":64},{"deltaTime":12,"channel":9,"type":"channel","subtype":"noteOff","noteNumber":35,"velocity":64,"realTime":1195,"sortKey":65},{"deltaTime":40,"channel":9,"type":"channel","noteNumber":35,"velocity":93,"subtype":"noteOn","realTime":1235,"sortKey":66},{"deltaTime":0,"channel":9,"type":"channel","noteNumber":51,"velocity":107,"subtype":"noteOn","realTime":1235,"sortKey":67},{"deltaTime":4,"channel":9,"type":"channel","subtype":"noteOff","noteNumber":38,"velocity":64,"realTime":1239,"sortKey":68},{"deltaTime":8,"channel":9,"type":"channel","subtype":"noteOff","noteNumber":51,"velocity":64,"realTime":1247,"sortKey":69},{"deltaTime":5,"channel":9,"type":"channel","subtype":"noteOff","noteNumber":35,"velocity":64,"realTime":1252,"sortKey":70},{"deltaTime":28,"channel":9,"type":"channel","noteNumber":35,"velocity":93,"subtype":"noteOn","realTime":1280,"sortKey":71},{"deltaTime":0,"channel":9,"type":"channel","noteNumber":51,"velocity":127,"subtype":"noteOn","realTime":1280,"sortKey":72},{"deltaTime":16,"channel":9,"type":"channel","subtype":"noteOff","noteNumber":51,"velocity":64,"realTime":1296,"sortKey":73},{"deltaTime":69,"channel":9,"type":"channel","noteNumber":51,"velocity":98,"subtype":"noteOn","realTime":1365,"sortKey":74},{"deltaTime":10,"channel":9,"type":"channel","subtype":"noteOff","noteNumber":51,"velocity":64,"realTime":1375,"sortKey":75},{"deltaTime":34,"channel":9,"type":"channel","noteNumber":38,"velocity":127,"subtype":"noteOn","realTime":1409,"sortKey":76},{"deltaTime":0,"channel":9,"type":"channel","noteNumber":51,"velocity":127,"subtype":"noteOn","realTime":1409,"sortKey":77},{"deltaTime":20,"channel":9,"type":"channel","subtype":"noteOff","noteNumber":51,"velocity":64,"realTime":1429,"sortKey":78},{"deltaTime":19,"channel":9,"type":"channel","subtype":"noteOff","noteNumber":35,"velocity":64,"realTime":1448,"sortKey":79},{"deltaTime":42,"channel":9,"type":"channel","subtype":"noteOff","noteNumber":38,"velocity":64,"realTime":1490,"sortKey":80},{"deltaTime":3,"channel":9,"type":"channel","noteNumber":35,"velocity":72,"subtype":"noteOn","realTime":1493,"sortKey":81},{"deltaTime":0,"channel":9,"type":"channel","noteNumber":51,"velocity":113,"subtype":"noteOn","realTime":1493,"sortKey":82},{"deltaTime":12,"channel":9,"type":"channel","subtype":"noteOff","noteNumber":51,"velocity":64,"realTime":1505,"sortKey":83},{"deltaTime":6,"channel":9,"type":"channel","subtype":"noteOff","noteNumber":35,"velocity":64,"realTime":1511,"sortKey":84},{"deltaTime":25,"channel":9,"type":"channel","noteNumber":35,"velocity":107,"subtype":"noteOn","realTime":1536,"sortKey":85},{"deltaTime":0,"channel":9,"type":"channel","noteNumber":51,"velocity":127,"subtype":"noteOn","realTime":1536,"sortKey":86},{"deltaTime":19,"channel":9,"type":"channel","subtype":"noteOff","noteNumber":51,"velocity":64,"realTime":1555,"sortKey":87},{"deltaTime":66,"channel":9,"type":"channel","noteNumber":51,"velocity":85,"subtype":"noteOn","realTime":1621,"sortKey":88},{"deltaTime":9,"channel":9,"type":"channel","subtype":"noteOff","noteNumber":51,"velocity":64,"realTime":1630,"sortKey":89},{"deltaTime":36,"channel":9,"type":"channel","noteNumber":38,"velocity":127,"subtype":"noteOn","realTime":1666,"sortKey":90},{"deltaTime":0,"channel":9,"type":"channel","noteNumber":51,"velocity":127,"subtype":"noteOn","realTime":1666,"sortKey":91},{"deltaTime":20,"channel":9,"type":"channel","subtype":"noteOff","noteNumber":51,"velocity":64,"realTime":1686,"sortKey":92},{"deltaTime":21,"channel":9,"type":"channel","subtype":"noteOff","noteNumber":35,"velocity":64,"realTime":1707,"sortKey":93},{"deltaTime":40,"channel":9,"type":"channel","noteNumber":35,"velocity":85,"subtype":"noteOn","realTime":1747,"sortKey":94},{"deltaTime":0,"channel":9,"type":"channel","noteNumber":51,"velocity":107,"subtype":"noteOn","realTime":1747,"sortKey":95},{"deltaTime":8,"channel":9,"type":"channel","subtype":"noteOff","noteNumber":38,"velocity":64,"realTime":1755,"sortKey":96},{"deltaTime":2,"channel":9,"type":"channel","subtype":"noteOff","noteNumber":51,"velocity":64,"realTime":1757,"sortKey":97},{"deltaTime":7,"channel":9,"type":"channel","subtype":"noteOff","noteNumber":35,"velocity":64,"realTime":1764,"sortKey":98},{"deltaTime":28,"channel":9,"type":"channel","noteNumber":35,"velocity":85,"subtype":"noteOn","realTime":1792,"sortKey":99},{"deltaTime":0,"channel":9,"type":"channel","noteNumber":51,"velocity":107,"subtype":"noteOn","realTime":1792,"sortKey":100},{"deltaTime":14,"channel":9,"type":"channel","subtype":"noteOff","noteNumber":51,"velocity":64,"realTime":1806,"sortKey":101},{"deltaTime":71,"channel":9,"type":"channel","noteNumber":51,"velocity":107,"subtype":"noteOn","realTime":1877,"sortKey":102},{"deltaTime":12,"channel":9,"type":"channel","subtype":"noteOff","noteNumber":51,"velocity":64,"realTime":1889,"sortKey":103},{"deltaTime":32,"channel":9,"type":"channel","noteNumber":38,"velocity":127,"subtype":"noteOn","realTime":1921,"sortKey":104},{"deltaTime":0,"channel":9,"type":"channel","noteNumber":51,"velocity":127,"subtype":"noteOn","realTime":1921,"sortKey":105},{"deltaTime":20,"channel":9,"type":"channel","subtype":"noteOff","noteNumber":51,"velocity":64,"realTime":1941,"sortKey":106},{"deltaTime":20,"channel":9,"type":"channel","subtype":"noteOff","noteNumber":35,"velocity":64,"realTime":1961,"sortKey":107},{"deltaTime":13,"channel":9,"type":"channel","subtype":"noteOff","noteNumber":38,"velocity":64,"realTime":1974,"sortKey":108},{"deltaTime":31,"channel":9,"type":"channel","noteNumber":35,"velocity":93,"subtype":"noteOn","realTime":2005,"sortKey":109},{"deltaTime":0,"channel":9,"type":"channel","noteNumber":51,"velocity":127,"subtype":"noteOn","realTime":2005,"sortKey":110},{"deltaTime":10,"channel":9,"type":"channel","subtype":"noteOff","noteNumber":51,"velocity":64,"realTime":2015,"sortKey":111},{"deltaTime":1,"channel":9,"type":"channel","subtype":"noteOff","noteNumber":35,"velocity":64,"realTime":2016,"sortKey":112},{"deltaTime":32,"channel":9,"type":"channel","noteNumber":35,"velocity":107,"subtype":"noteOn","realTime":2048,"sortKey":113},{"deltaTime":0,"channel":9,"type":"channel","noteNumber":51,"velocity":127,"subtype":"noteOn","realTime":2048,"sortKey":114},{"deltaTime":11,"channel":9,"type":"channel","subtype":"noteOff","noteNumber":51,"velocity":64,"realTime":2059,"sortKey":115},{"deltaTime":74,"channel":9,"type":"channel","noteNumber":51,"velocity":68,"subtype":"noteOn","realTime":2133,"sortKey":116},{"deltaTime":6,"channel":9,"type":"channel","subtype":"noteOff","noteNumber":51,"velocity":64,"realTime":2139,"sortKey":117},{"deltaTime":39,"channel":9,"type":"channel","noteNumber":38,"velocity":127,"subtype":"noteOn","realTime":2178,"sortKey":118},{"deltaTime":0,"channel":9,"type":"channel","noteNumber":51,"velocity":127,"subtype":"noteOn","realTime":2178,"sortKey":119},{"deltaTime":33,"channel":9,"type":"channel","subtype":"noteOff","noteNumber":51,"velocity":64,"realTime":2211,"sortKey":120},{"deltaTime":10,"channel":9,"type":"channel","subtype":"noteOff","noteNumber":35,"velocity":64,"realTime":2221,"sortKey":121},{"deltaTime":38,"channel":9,"type":"channel","noteNumber":35,"velocity":50,"subtype":"noteOn","realTime":2259,"sortKey":122},{"deltaTime":0,"channel":9,"type":"channel","noteNumber":51,"velocity":102,"subtype":"noteOn","realTime":2259,"sortKey":123},{"deltaTime":13,"channel":9,"type":"channel","subtype":"noteOff","noteNumber":35,"velocity":64,"realTime":2272,"sortKey":124},{"deltaTime":0,"channel":9,"type":"channel","subtype":"noteOff","noteNumber":51,"velocity":64,"realTime":2272,"sortKey":125},{"deltaTime":6,"channel":9,"type":"channel","subtype":"noteOff","noteNumber":38,"velocity":64,"realTime":2278,"sortKey":126},{"deltaTime":26,"channel":9,"type":"channel","noteNumber":35,"velocity":85,"subtype":"noteOn","realTime":2304,"sortKey":127},{"deltaTime":0,"channel":9,"type":"channel","noteNumber":51,"velocity":113,"subtype":"noteOn","realTime":2304,"sortKey":128},{"deltaTime":25,"channel":9,"type":"channel","subtype":"noteOff","noteNumber":51,"velocity":64,"realTime":2329,"sortKey":129},{"deltaTime":60,"channel":9,"type":"channel","noteNumber":51,"velocity":93,"subtype":"noteOn","realTime":2389,"sortKey":130},{"deltaTime":10,"channel":9,"type":"channel","subtype":"noteOff","noteNumber":51,"velocity":64,"realTime":2399,"sortKey":131},{"deltaTime":34,"channel":9,"type":"channel","noteNumber":38,"velocity":127,"subtype":"noteOn","realTime":2433,"sortKey":132},{"deltaTime":0,"channel":9,"type":"channel","noteNumber":51,"velocity":127,"subtype":"noteOn","realTime":2433,"sortKey":133},{"deltaTime":32,"channel":9,"type":"channel","subtype":"noteOff","noteNumber":51,"velocity":64,"realTime":2465,"sortKey":134},{"deltaTime":23,"channel":9,"type":"channel","subtype":"noteOff","noteNumber":35,"velocity":64,"realTime":2488,"sortKey":135},{"deltaTime":25,"channel":9,"type":"channel","subtype":"noteOff","noteNumber":38,"velocity":64,"realTime":2513,"sortKey":136},{"deltaTime":4,"channel":9,"type":"channel","noteNumber":35,"velocity":72,"subtype":"noteOn","realTime":2517,"sortKey":137},{"deltaTime":0,"channel":9,"type":"channel","noteNumber":51,"velocity":107,"subtype":"noteOn","realTime":2517,"sortKey":138},{"deltaTime":15,"channel":9,"type":"channel","subtype":"noteOff","noteNumber":51,"velocity":64,"realTime":2532,"sortKey":139},{"deltaTime":7,"channel":9,"type":"channel","subtype":"noteOff","noteNumber":35,"velocity":64,"realTime":2539,"sortKey":140},{"deltaTime":21,"channel":9,"type":"channel","noteNumber":35,"velocity":80,"subtype":"noteOn","realTime":2560,"sortKey":141},{"deltaTime":0,"channel":9,"type":"channel","noteNumber":51,"velocity":113,"subtype":"noteOn","realTime":2560,"sortKey":142},{"deltaTime":25,"channel":9,"type":"channel","subtype":"noteOff","noteNumber":51,"velocity":64,"realTime":2585,"sortKey":143},{"deltaTime":60,"channel":9,"type":"channel","noteNumber":51,"velocity":68,"subtype":"noteOn","realTime":2645,"sortKey":144},{"deltaTime":6,"channel":9,"type":"channel","subtype":"noteOff","noteNumber":51,"velocity":64,"realTime":2651,"sortKey":145},{"deltaTime":39,"channel":9,"type":"channel","noteNumber":38,"velocity":127,"subtype":"noteOn","realTime":2690,"sortKey":146},{"deltaTime":0,"channel":9,"type":"channel","noteNumber":51,"velocity":127,"subtype":"noteOn","realTime":2690,"sortKey":147},{"deltaTime":37,"channel":9,"type":"channel","subtype":"noteOff","noteNumber":51,"velocity":64,"realTime":2727,"sortKey":148},{"deltaTime":20,"channel":9,"type":"channel","subtype":"noteOff","noteNumber":35,"velocity":64,"realTime":2747,"sortKey":149},{"deltaTime":22,"channel":9,"type":"channel","subtype":"noteOff","noteNumber":38,"velocity":64,"realTime":2769,"sortKey":150},{"deltaTime":2,"channel":9,"type":"channel","noteNumber":35,"velocity":72,"subtype":"noteOn","realTime":2771,"sortKey":151},{"deltaTime":0,"channel":9,"type":"channel","noteNumber":51,"velocity":98,"subtype":"noteOn","realTime":2771,"sortKey":152},{"deltaTime":12,"channel":9,"type":"channel","subtype":"noteOff","noteNumber":51,"velocity":64,"realTime":2783,"sortKey":153},{"deltaTime":2,"channel":9,"type":"channel","subtype":"noteOff","noteNumber":35,"velocity":64,"realTime":2785,"sortKey":154},{"deltaTime":31,"channel":9,"type":"channel","noteNumber":35,"velocity":98,"subtype":"noteOn","realTime":2816,"sortKey":155},{"deltaTime":0,"channel":9,"type":"channel","noteNumber":51,"velocity":113,"subtype":"noteOn","realTime":2816,"sortKey":156},{"deltaTime":24,"channel":9,"type":"channel","subtype":"noteOff","noteNumber":51,"velocity":64,"realTime":2840,"sortKey":157},{"deltaTime":61,"channel":9,"type":"channel","noteNumber":51,"velocity":89,"subtype":"noteOn","realTime":2901,"sortKey":158},{"deltaTime":10,"channel":9,"type":"channel","subtype":"noteOff","noteNumber":51,"velocity":64,"realTime":2911,"sortKey":159},{"deltaTime":34,"channel":9,"type":"channel","noteNumber":38,"velocity":127,"subtype":"noteOn","realTime":2945,"sortKey":160},{"deltaTime":0,"channel":9,"type":"channel","noteNumber":51,"velocity":127,"subtype":"noteOn","realTime":2945,"sortKey":161},{"deltaTime":32,"channel":9,"type":"channel","subtype":"noteOff","noteNumber":51,"velocity":64,"realTime":2977,"sortKey":162},{"deltaTime":12,"channel":9,"type":"channel","subtype":"noteOff","noteNumber":35,"velocity":64,"realTime":2989,"sortKey":163},{"deltaTime":38,"channel":9,"type":"channel","subtype":"noteOff","noteNumber":38,"velocity":64,"realTime":3027,"sortKey":164},{"deltaTime":2,"channel":9,"type":"channel","noteNumber":35,"velocity":76,"subtype":"noteOn","realTime":3029,"sortKey":165},{"deltaTime":0,"channel":9,"type":"channel","noteNumber":51,"velocity":102,"subtype":"noteOn","realTime":3029,"sortKey":166},{"deltaTime":12,"channel":9,"type":"channel","subtype":"noteOff","noteNumber":51,"velocity":64,"realTime":3041,"sortKey":167},{"deltaTime":6,"channel":9,"type":"channel","subtype":"noteOff","noteNumber":35,"velocity":64,"realTime":3047,"sortKey":168},{"deltaTime":25,"channel":9,"type":"channel","noteNumber":35,"velocity":76,"subtype":"noteOn","realTime":3072,"sortKey":169},{"deltaTime":0,"channel":9,"type":"channel","noteNumber":51,"velocity":127,"subtype":"noteOn","realTime":3072,"sortKey":170},{"deltaTime":19,"channel":9,"type":"channel","subtype":"noteOff","noteNumber":51,"velocity":64,"realTime":3091,"sortKey":171},{"deltaTime":66,"channel":9,"type":"channel","noteNumber":51,"velocity":85,"subtype":"noteOn","realTime":3157,"sortKey":172},{"deltaTime":5,"channel":9,"type":"channel","subtype":"noteOff","noteNumber":51,"velocity":64,"realTime":3162,"sortKey":173},{"deltaTime":40,"channel":9,"type":"channel","noteNumber":38,"velocity":127,"subtype":"noteOn","realTime":3202,"sortKey":174},{"deltaTime":0,"channel":9,"type":"channel","noteNumber":49,"velocity":107,"subtype":"noteOn","realTime":3202,"sortKey":175},{"deltaTime":0,"channel":9,"type":"channel","noteNumber":51,"velocity":127,"subtype":"noteOn","realTime":3202,"sortKey":176},{"deltaTime":16,"channel":9,"type":"channel","subtype":"noteOff","noteNumber":49,"velocity":64,"realTime":3218,"sortKey":177},{"deltaTime":13,"channel":9,"type":"channel","subtype":"noteOff","noteNumber":51,"velocity":64,"realTime":3231,"sortKey":178},{"deltaTime":12,"channel":9,"type":"channel","subtype":"noteOff","noteNumber":35,"velocity":64,"realTime":3243,"sortKey":179},{"deltaTime":40,"channel":9,"type":"channel","noteNumber":35,"velocity":93,"subtype":"noteOn","realTime":3283,"sortKey":180},{"deltaTime":0,"channel":9,"type":"channel","noteNumber":51,"velocity":107,"subtype":"noteOn","realTime":3283,"sortKey":181},{"deltaTime":4,"channel":9,"type":"channel","subtype":"noteOff","noteNumber":38,"velocity":64,"realTime":3287,"sortKey":182},{"deltaTime":8,"channel":9,"type":"channel","subtype":"noteOff","noteNumber":51,"velocity":64,"realTime":3295,"sortKey":183},{"deltaTime":5,"channel":9,"type":"channel","subtype":"noteOff","noteNumber":35,"velocity":64,"realTime":3300,"sortKey":184},{"deltaTime":28,"channel":9,"type":"channel","noteNumber":35,"velocity":93,"subtype":"noteOn","realTime":3328,"sortKey":185},{"deltaTime":0,"channel":9,"type":"channel","noteNumber":51,"velocity":127,"subtype":"noteOn","realTime":3328,"sortKey":186},{"deltaTime":16,"channel":9,"type":"channel","subtype":"noteOff","noteNumber":51,"velocity":64,"realTime":3344,"sortKey":187},{"deltaTime":69,"channel":9,"type":"channel","noteNumber":51,"velocity":98,"subtype":"noteOn","realTime":3413,"sortKey":188},{"deltaTime":10,"channel":9,"type":"channel","subtype":"noteOff","noteNumber":51,"velocity":64,"realTime":3423,"sortKey":189},{"deltaTime":34,"channel":9,"type":"channel","noteNumber":38,"velocity":127,"subtype":"noteOn","realTime":3457,"sortKey":190},{"deltaTime":0,"channel":9,"type":"channel","noteNumber":51,"velocity":127,"subtype":"noteOn","realTime":3457,"sortKey":191},{"deltaTime":20,"channel":9,"type":"channel","subtype":"noteOff","noteNumber":51,"velocity":64,"realTime":3477,"sortKey":192},{"deltaTime":19,"channel":9,"type":"channel","subtype":"noteOff","noteNumber":35,"velocity":64,"realTime":3496,"sortKey":193},{"deltaTime":42,"channel":9,"type":"channel","subtype":"noteOff","noteNumber":38,"velocity":64,"realTime":3538,"sortKey":194},{"deltaTime":3,"channel":9,"type":"channel","noteNumber":35,"velocity":72,"subtype":"noteOn","realTime":3541,"sortKey":195},{"deltaTime":0,"channel":9,"type":"channel","noteNumber":51,"velocity":113,"subtype":"noteOn","realTime":3541,"sortKey":196},{"deltaTime":12,"channel":9,"type":"channel","subtype":"noteOff","noteNumber":51,"velocity":64,"realTime":3553,"sortKey":197},{"deltaTime":6,"channel":9,"type":"channel","subtype":"noteOff","noteNumber":35,"velocity":64,"realTime":3559,"sortKey":198},{"deltaTime":25,"channel":9,"type":"channel","noteNumber":35,"velocity":107,"subtype":"noteOn","realTime":3584,"sortKey":199},{"deltaTime":0,"channel":9,"type":"channel","noteNumber":51,"velocity":127,"subtype":"noteOn","realTime":3584,"sortKey":200},{"deltaTime":19,"channel":9,"type":"channel","subtype":"noteOff","noteNumber":51,"velocity":64,"realTime":3603,"sortKey":201},{"deltaTime":66,"channel":9,"type":"channel","noteNumber":51,"velocity":85,"subtype":"noteOn","realTime":3669,"sortKey":202},{"deltaTime":9,"channel":9,"type":"channel","subtype":"noteOff","noteNumber":51,"velocity":64,"realTime":3678,"sortKey":203},{"deltaTime":36,"channel":9,"type":"channel","noteNumber":38,"velocity":127,"subtype":"noteOn","realTime":3714,"sortKey":204},{"deltaTime":0,"channel":9,"type":"channel","noteNumber":51,"velocity":127,"subtype":"noteOn","realTime":3714,"sortKey":205},{"deltaTime":20,"channel":9,"type":"channel","subtype":"noteOff","noteNumber":51,"velocity":64,"realTime":3734,"sortKey":206},{"deltaTime":21,"channel":9,"type":"channel","subtype":"noteOff","noteNumber":35,"velocity":64,"realTime":3755,"sortKey":207},{"deltaTime":40,"channel":9,"type":"channel","noteNumber":35,"velocity":85,"subtype":"noteOn","realTime":3795,"sortKey":208},{"deltaTime":0,"channel":9,"type":"channel","noteNumber":51,"velocity":107,"subtype":"noteOn","realTime":3795,"sortKey":209},{"deltaTime":8,"channel":9,"type":"channel","subtype":"noteOff","noteNumber":38,"velocity":64,"realTime":3803,"sortKey":210},{"deltaTime":2,"channel":9,"type":"channel","subtype":"noteOff","noteNumber":51,"velocity":64,"realTime":3805,"sortKey":211},{"deltaTime":7,"channel":9,"type":"channel","subtype":"noteOff","noteNumber":35,"velocity":64,"realTime":3812,"sortKey":212},{"deltaTime":28,"channel":9,"type":"channel","noteNumber":35,"velocity":85,"subtype":"noteOn","realTime":3840,"sortKey":213},{"deltaTime":0,"channel":9,"type":"channel","noteNumber":51,"velocity":107,"subtype":"noteOn","realTime":3840,"sortKey":214},{"deltaTime":14,"channel":9,"type":"channel","subtype":"noteOff","noteNumber":51,"velocity":64,"realTime":3854,"sortKey":215},{"deltaTime":71,"channel":9,"type":"channel","noteNumber":51,"velocity":107,"subtype":"noteOn","realTime":3925,"sortKey":216},{"deltaTime":12,"channel":9,"type":"channel","subtype":"noteOff","noteNumber":51,"velocity":64,"realTime":3937,"sortKey":217},{"deltaTime":32,"channel":9,"type":"channel","noteNumber":38,"velocity":127,"subtype":"noteOn","realTime":3969,"sortKey":218},{"deltaTime":0,"channel":9,"type":"channel","noteNumber":51,"velocity":127,"subtype":"noteOn","realTime":3969,"sortKey":219},{"deltaTime":20,"channel":9,"type":"channel","subtype":"noteOff","noteNumber":51,"velocity":64,"realTime":3989,"sortKey":220},{"deltaTime":20,"channel":9,"type":"channel","subtype":"noteOff","noteNumber":35,"velocity":64,"realTime":4009,"sortKey":221},{"deltaTime":13,"channel":9,"type":"channel","subtype":"noteOff","noteNumber":38,"velocity":64,"realTime":4022,"sortKey":222},{"deltaTime":31,"channel":9,"type":"channel","noteNumber":35,"velocity":93,"subtype":"noteOn","realTime":4053,"sortKey":223},{"deltaTime":0,"channel":9,"type":"channel","noteNumber":51,"velocity":127,"subtype":"noteOn","realTime":4053,"sortKey":224},{"deltaTime":10,"channel":9,"type":"channel","subtype":"noteOff","noteNumber":51,"velocity":64,"realTime":4063,"sortKey":225},{"deltaTime":1,"channel":9,"type":"channel","subtype":"noteOff","noteNumber":35,"velocity":64,"realTime":4064,"sortKey":226},{"deltaTime":32,"channel":9,"type":"channel","noteNumber":35,"velocity":107,"subtype":"noteOn","realTime":4096,"sortKey":227},{"deltaTime":0,"channel":9,"type":"channel","noteNumber":51,"velocity":127,"subtype":"noteOn","realTime":4096,"sortKey":228},{"deltaTime":0,"channel":9,"type":"channel","noteNumber":49,"velocity":93,"subtype":"noteOn","realTime":4096,"sortKey":229},{"deltaTime":11,"channel":9,"type":"channel","subtype":"noteOff","noteNumber":51,"velocity":64,"realTime":4107,"sortKey":230},{"deltaTime":4,"channel":9,"type":"channel","subtype":"noteOff","noteNumber":49,"velocity":64,"realTime":4111,"sortKey":231},{"deltaTime":70,"channel":9,"type":"channel","noteNumber":51,"velocity":68,"subtype":"noteOn","realTime":4181,"sortKey":232},{"deltaTime":6,"channel":9,"type":"channel","subtype":"noteOff","noteNumber":51,"velocity":64,"realTime":4187,"sortKey":233},{"deltaTime":39,"channel":9,"type":"channel","noteNumber":38,"velocity":127,"subtype":"noteOn","realTime":4226,"sortKey":234},{"deltaTime":0,"channel":9,"type":"channel","noteNumber":51,"velocity":127,"subtype":"noteOn","realTime":4226,"sortKey":235},{"deltaTime":33,"channel":9,"type":"channel","subtype":"noteOff","noteNumber":51,"velocity":64,"realTime":4259,"sortKey":236},{"deltaTime":10,"channel":9,"type":"channel","subtype":"noteOff","noteNumber":35,"velocity":64,"realTime":4269,"sortKey":237},{"deltaTime":38,"channel":9,"type":"channel","noteNumber":35,"velocity":50,"subtype":"noteOn","realTime":4307,"sortKey":238},{"deltaTime":0,"channel":9,"type":"channel","noteNumber":51,"velocity":102,"subtype":"noteOn","realTime":4307,"sortKey":239},{"deltaTime":13,"channel":9,"type":"channel","subtype":"noteOff","noteNumber":35,"velocity":64,"realTime":4320,"sortKey":240},{"deltaTime":0,"channel":9,"type":"channel","subtype":"noteOff","noteNumber":51,"velocity":64,"realTime":4320,"sortKey":241},{"deltaTime":6,"channel":9,"type":"channel","subtype":"noteOff","noteNumber":38,"velocity":64,"realTime":4326,"sortKey":242},{"deltaTime":26,"channel":9,"type":"channel","noteNumber":35,"velocity":85,"subtype":"noteOn","realTime":4352,"sortKey":243},{"deltaTime":0,"channel":9,"type":"channel","noteNumber":51,"velocity":113,"subtype":"noteOn","realTime":4352,"sortKey":244},{"deltaTime":25,"channel":9,"type":"channel","subtype":"noteOff","noteNumber":51,"velocity":64,"realTime":4377,"sortKey":245},{"deltaTime":60,"channel":9,"type":"channel","noteNumber":51,"velocity":93,"subtype":"noteOn","realTime":4437,"sortKey":246},{"deltaTime":10,"channel":9,"type":"channel","subtype":"noteOff","noteNumber":51,"velocity":64,"realTime":4447,"sortKey":247},{"deltaTime":34,"channel":9,"type":"channel","noteNumber":38,"velocity":127,"subtype":"noteOn","realTime":4481,"sortKey":248},{"deltaTime":0,"channel":9,"type":"channel","noteNumber":51,"velocity":127,"subtype":"noteOn","realTime":4481,"sortKey":249},{"deltaTime":32,"channel":9,"type":"channel","subtype":"noteOff","noteNumber":51,"velocity":64,"realTime":4513,"sortKey":250},{"deltaTime":23,"channel":9,"type":"channel","subtype":"noteOff","noteNumber":35,"velocity":64,"realTime":4536,"sortKey":251},{"deltaTime":25,"channel":9,"type":"channel","subtype":"noteOff","noteNumber":38,"velocity":64,"realTime":4561,"sortKey":252},{"deltaTime":4,"channel":9,"type":"channel","noteNumber":35,"velocity":72,"subtype":"noteOn","realTime":4565,"sortKey":253},{"deltaTime":0,"channel":9,"type":"channel","noteNumber":51,"velocity":107,"subtype":"noteOn","realTime":4565,"sortKey":254},{"deltaTime":15,"channel":9,"type":"channel","subtype":"noteOff","noteNumber":51,"velocity":64,"realTime":4580,"sortKey":255},{"deltaTime":7,"channel":9,"type":"channel","subtype":"noteOff","noteNumber":35,"velocity":64,"realTime":4587,"sortKey":256},{"deltaTime":21,"channel":9,"type":"channel","noteNumber":35,"velocity":80,"subtype":"noteOn","realTime":4608,"sortKey":257},{"deltaTime":0,"channel":9,"type":"channel","noteNumber":51,"velocity":113,"subtype":"noteOn","realTime":4608,"sortKey":258},{"deltaTime":25,"channel":9,"type":"channel","subtype":"noteOff","noteNumber":51,"velocity":64,"realTime":4633,"sortKey":259},{"deltaTime":60,"channel":9,"type":"channel","noteNumber":51,"velocity":68,"subtype":"noteOn","realTime":4693,"sortKey":260},{"deltaTime":6,"channel":9,"type":"channel","subtype":"noteOff","noteNumber":51,"velocity":64,"realTime":4699,"sortKey":261},{"deltaTime":39,"channel":9,"type":"channel","noteNumber":38,"velocity":127,"subtype":"noteOn","realTime":4738,"sortKey":262},{"deltaTime":0,"channel":9,"type":"channel","noteNumber":51,"velocity":127,"subtype":"noteOn","realTime":4738,"sortKey":263},{"deltaTime":37,"channel":9,"type":"channel","subtype":"noteOff","noteNumber":51,"velocity":64,"realTime":4775,"sortKey":264},{"deltaTime":20,"channel":9,"type":"channel","subtype":"noteOff","noteNumber":35,"velocity":64,"realTime":4795,"sortKey":265},{"deltaTime":22,"channel":9,"type":"channel","subtype":"noteOff","noteNumber":38,"velocity":64,"realTime":4817,"sortKey":266},{"deltaTime":2,"channel":9,"type":"channel","noteNumber":35,"velocity":72,"subtype":"noteOn","realTime":4819,"sortKey":267},{"deltaTime":0,"channel":9,"type":"channel","noteNumber":51,"velocity":98,"subtype":"noteOn","realTime":4819,"sortKey":268},{"deltaTime":12,"channel":9,"type":"channel","subtype":"noteOff","noteNumber":51,"velocity":64,"realTime":4831,"sortKey":269},{"deltaTime":2,"channel":9,"type":"channel","subtype":"noteOff","noteNumber":35,"velocity":64,"realTime":4833,"sortKey":270},{"deltaTime":31,"channel":9,"type":"channel","noteNumber":35,"velocity":98,"subtype":"noteOn","realTime":4864,"sortKey":271},{"deltaTime":0,"channel":9,"type":"channel","noteNumber":51,"velocity":113,"subtype":"noteOn","realTime":4864,"sortKey":272},{"deltaTime":24,"channel":9,"type":"channel","subtype":"noteOff","noteNumber":51,"velocity":64,"realTime":4888,"sortKey":273},{"deltaTime":61,"channel":9,"type":"channel","noteNumber":38,"velocity":76,"subtype":"noteOn","realTime":4949,"sortKey":274},{"deltaTime":0,"channel":9,"type":"channel","noteNumber":51,"velocity":89,"subtype":"noteOn","realTime":4949,"sortKey":275},{"deltaTime":10,"channel":9,"type":"channel","subtype":"noteOff","noteNumber":51,"velocity":64,"realTime":4959,"sortKey":276},{"deltaTime":4,"channel":9,"type":"channel","subtype":"noteOff","noteNumber":38,"velocity":64,"realTime":4963,"sortKey":277},{"deltaTime":30,"channel":9,"type":"channel","noteNumber":38,"velocity":107,"subtype":"noteOn","realTime":4993,"sortKey":278},{"deltaTime":0,"channel":9,"type":"channel","noteNumber":51,"velocity":127,"subtype":"noteOn","realTime":4993,"sortKey":279},{"deltaTime":16,"channel":9,"type":"channel","subtype":"noteOff","noteNumber":38,"velocity":64,"realTime":5009,"sortKey":280},{"deltaTime":16,"channel":9,"type":"channel","subtype":"noteOff","noteNumber":51,"velocity":64,"realTime":5025,"sortKey":281},{"deltaTime":10,"channel":9,"type":"channel","noteNumber":38,"velocity":119,"subtype":"noteOn","realTime":5035,"sortKey":282},{"deltaTime":2,"channel":9,"type":"channel","subtype":"noteOff","noteNumber":35,"velocity":64,"realTime":5037,"sortKey":283},{"deltaTime":15,"channel":9,"type":"channel","subtype":"noteOff","noteNumber":38,"velocity":64,"realTime":5052,"sortKey":284},{"deltaTime":25,"channel":9,"type":"channel","noteNumber":35,"velocity":76,"subtype":"noteOn","realTime":5077,"sortKey":285},{"deltaTime":0,"channel":9,"type":"channel","noteNumber":38,"velocity":127,"subtype":"noteOn","realTime":5077,"sortKey":286},{"deltaTime":0,"channel":9,"type":"channel","noteNumber":51,"velocity":102,"subtype":"noteOn","realTime":5077,"sortKey":287},{"deltaTime":12,"channel":9,"type":"channel","subtype":"noteOff","noteNumber":51,"velocity":64,"realTime":5089,"sortKey":288},{"deltaTime":6,"channel":9,"type":"channel","subtype":"noteOff","noteNumber":35,"velocity":64,"realTime":5095,"sortKey":289},{"deltaTime":9,"channel":9,"type":"channel","subtype":"noteOff","noteNumber":38,"velocity":64,"realTime":5104,"sortKey":290},{"deltaTime":0,"type":"meta","subtype":"endOfTrack"}],[{"deltaTime":null,"channel":1,"type":"channel","noteNumber":69,"velocity":119,"subtype":"noteOn","realTime":1024,"sortKey":13},{"deltaTime":65,"channel":1,"type":"channel","subtype":"noteOff","noteNumber":69,"velocity":64,"realTime":1089,"sortKey":14},{"deltaTime":20,"channel":1,"type":"channel","noteNumber":69,"velocity":93,"subtype":"noteOn","realTime":1109,"sortKey":15},{"deltaTime":15,"channel":1,"type":"channel","subtype":"noteOff","noteNumber":69,"velocity":64,"realTime":1124,"sortKey":16},{"deltaTime":28,"channel":1,"type":"channel","noteNumber":69,"velocity":107,"subtype":"noteOn","realTime":1152,"sortKey":17},{"deltaTime":49,"channel":1,"type":"channel","subtype":"noteOff","noteNumber":69,"velocity":64,"realTime":1201,"sortKey":18},{"deltaTime":36,"channel":1,"type":"channel","noteNumber":69,"velocity":102,"subtype":"noteOn","realTime":1237,"sortKey":19},{"deltaTime":18,"channel":1,"type":"channel","subtype":"noteOff","noteNumber":69,"velocity":64,"realTime":1255,"sortKey":20},{"deltaTime":25,"channel":1,"type":"channel","noteNumber":69,"velocity":107,"subtype":"noteOn","realTime":1280,"sortKey":21},{"deltaTime":47,"channel":1,"type":"channel","subtype":"noteOff","noteNumber":69,"velocity":64,"realTime":1327,"sortKey":22},{"deltaTime":38,"channel":1,"type":"channel","noteNumber":69,"velocity":107,"subtype":"noteOn","realTime":1365,"sortKey":23},{"deltaTime":18,"channel":1,"type":"channel","subtype":"noteOff","noteNumber":69,"velocity":64,"realTime":1383,"sortKey":24},{"deltaTime":25,"channel":1,"type":"channel","noteNumber":69,"velocity":107,"subtype":"noteOn","realTime":1408,"sortKey":25},{"deltaTime":49,"channel":1,"type":"channel","subtype":"noteOff","noteNumber":69,"velocity":64,"realTime":1457,"sortKey":26},{"deltaTime":36,"channel":1,"type":"channel","noteNumber":69,"velocity":107,"subtype":"noteOn","realTime":1493,"sortKey":27},{"deltaTime":40,"channel":1,"type":"channel","subtype":"noteOff","noteNumber":69,"velocity":64,"realTime":1533,"sortKey":28},{"deltaTime":3,"channel":1,"type":"channel","noteNumber":64,"velocity":93,"subtype":"noteOn","realTime":1536,"sortKey":29},{"deltaTime":47,"channel":1,"type":"channel","subtype":"noteOff","noteNumber":64,"velocity":64,"realTime":1583,"sortKey":30},{"deltaTime":38,"channel":1,"type":"channel","noteNumber":64,"velocity":89,"subtype":"noteOn","realTime":1621,"sortKey":31},{"deltaTime":24,"channel":1,"type":"channel","subtype":"noteOff","noteNumber":64,"velocity":64,"realTime":1645,"sortKey":32},{"deltaTime":19,"channel":1,"type":"channel","noteNumber":64,"velocity":85,"subtype":"noteOn","realTime":1664,"sortKey":33},{"deltaTime":32,"channel":1,"type":"channel","subtype":"noteOff","noteNumber":64,"velocity":64,"realTime":1696,"sortKey":34},{"deltaTime":53,"channel":1,"type":"channel","noteNumber":64,"velocity":89,"subtype":"noteOn","realTime":1749,"sortKey":35},{"deltaTime":24,"channel":1,"type":"channel","subtype":"noteOff","noteNumber":64,"velocity":64,"realTime":1773,"sortKey":36},{"deltaTime":19,"channel":1,"type":"channel","noteNumber":64,"velocity":76,"subtype":"noteOn","realTime":1792,"sortKey":37},{"deltaTime":37,"channel":1,"type":"channel","subtype":"noteOff","noteNumber":64,"velocity":64,"realTime":1829,"sortKey":38},{"deltaTime":48,"channel":1,"type":"channel","noteNumber":64,"velocity":93,"subtype":"noteOn","realTime":1877,"sortKey":39},{"deltaTime":20,"channel":1,"type":"channel","subtype":"noteOff","noteNumber":64,"velocity":64,"realTime":1897,"sortKey":40},{"deltaTime":23,"channel":1,"type":"channel","noteNumber":64,"velocity":89,"subtype":"noteOn","realTime":1920,"sortKey":41},{"deltaTime":31,"channel":1,"type":"channel","subtype":"noteOff","noteNumber":64,"velocity":64,"realTime":1951,"sortKey":42},{"deltaTime":54,"channel":1,"type":"channel","noteNumber":64,"velocity":102,"subtype":"noteOn","realTime":2005,"sortKey":43},{"deltaTime":39,"channel":1,"type":"channel","subtype":"noteOff","noteNumber":64,"velocity":64,"realTime":2044,"sortKey":44},{"deltaTime":4,"channel":1,"type":"channel","noteNumber":62,"velocity":89,"subtype":"noteOn","realTime":2048,"sortKey":45},{"deltaTime":41,"channel":1,"type":"channel","subtype":"noteOff","noteNumber":62,"velocity":64,"realTime":2089,"sortKey":46},{"deltaTime":44,"channel":1,"type":"channel","noteNumber":62,"velocity":98,"subtype":"noteOn","realTime":2133,"sortKey":47},{"deltaTime":26,"channel":1,"type":"channel","subtype":"noteOff","noteNumber":62,"velocity":64,"realTime":2159,"sortKey":48},{"deltaTime":17,"channel":1,"type":"channel","noteNumber":62,"velocity":89,"subtype":"noteOn","realTime":2176,"sortKey":49},{"deltaTime":37,"channel":1,"type":"channel","subtype":"noteOff","noteNumber":62,"velocity":64,"realTime":2213,"sortKey":50},{"deltaTime":48,"channel":1,"type":"channel","noteNumber":62,"velocity":102,"subtype":"noteOn","realTime":2261,"sortKey":51},{"deltaTime":27,"channel":1,"type":"channel","subtype":"noteOff","noteNumber":62,"velocity":64,"realTime":2288,"sortKey":52},{"deltaTime":16,"channel":1,"type":"channel","noteNumber":62,"velocity":98,"subtype":"noteOn","realTime":2304,"sortKey":53},{"deltaTime":39,"channel":1,"type":"channel","subtype":"noteOff","noteNumber":62,"velocity":64,"realTime":2343,"sortKey":54},{"deltaTime":46,"channel":1,"type":"channel","noteNumber":62,"velocity":102,"subtype":"noteOn","realTime":2389,"sortKey":55},{"deltaTime":28,"channel":1,"type":"channel","subtype":"noteOff","noteNumber":62,"velocity":64,"realTime":2417,"sortKey":56},{"deltaTime":15,"channel":1,"type":"channel","noteNumber":62,"velocity":93,"subtype":"noteOn","realTime":2432,"sortKey":57},{"deltaTime":39,"channel":1,"type":"channel","subtype":"noteOff","noteNumber":62,"velocity":64,"realTime":2471,"sortKey":58},{"deltaTime":46,"channel":1,"type":"channel","noteNumber":62,"velocity":93,"subtype":"noteOn","realTime":2517,"sortKey":59},{"deltaTime":28,"channel":1,"type":"channel","subtype":"noteOff","noteNumber":62,"velocity":64,"realTime":2545,"sortKey":60},{"deltaTime":15,"channel":1,"type":"channel","noteNumber":62,"velocity":102,"subtype":"noteOn","realTime":2560,"sortKey":61},{"deltaTime":49,"channel":1,"type":"channel","subtype":"noteOff","noteNumber":62,"velocity":64,"realTime":2609,"sortKey":62},{"deltaTime":36,"channel":1,"type":"channel","noteNumber":62,"velocity":102,"subtype":"noteOn","realTime":2645,"sortKey":63},{"deltaTime":27,"channel":1,"type":"channel","subtype":"noteOff","noteNumber":62,"velocity":64,"realTime":2672,"sortKey":64},{"deltaTime":16,"channel":1,"type":"channel","noteNumber":62,"velocity":98,"subtype":"noteOn","realTime":2688,"sortKey":65},{"deltaTime":43,"channel":1,"type":"channel","subtype":"noteOff","noteNumber":62,"velocity":64,"realTime":2731,"sortKey":66},{"deltaTime":42,"channel":1,"type":"channel","noteNumber":62,"velocity":102,"subtype":"noteOn","realTime":2773,"sortKey":67},{"deltaTime":22,"channel":1,"type":"channel","subtype":"noteOff","noteNumber":62,"velocity":64,"realTime":2795,"sortKey":68},{"deltaTime":21,"channel":1,"type":"channel","noteNumber":62,"velocity":93,"subtype":"noteOn","realTime":2816,"sortKey":69},{"deltaTime":35,"channel":1,"type":"channel","subtype":"noteOff","noteNumber":62,"velocity":64,"realTime":2851,"sortKey":70},{"deltaTime":50,"channel":1,"type":"channel","noteNumber":62,"velocity":98,"subtype":"noteOn","realTime":2901,"sortKey":71},{"deltaTime":22,"channel":1,"type":"channel","subtype":"noteOff","noteNumber":62,"velocity":64,"realTime":2923,"sortKey":72},{"deltaTime":21,"channel":1,"type":"channel","noteNumber":62,"velocity":102,"subtype":"noteOn","realTime":2944,"sortKey":73},{"deltaTime":43,"channel":1,"type":"channel","subtype":"noteOff","noteNumber":62,"velocity":64,"realTime":2987,"sortKey":74},{"deltaTime":42,"channel":1,"type":"channel","noteNumber":62,"velocity":102,"subtype":"noteOn","realTime":3029,"sortKey":75},{"deltaTime":38,"channel":1,"type":"channel","subtype":"noteOff","noteNumber":62,"velocity":64,"realTime":3067,"sortKey":76},{"deltaTime":5,"channel":1,"type":"channel","noteNumber":69,"velocity":107,"subtype":"noteOn","realTime":3072,"sortKey":77},{"deltaTime":40,"channel":1,"type":"channel","subtype":"noteOff","noteNumber":69,"velocity":64,"realTime":3112,"sortKey":78},{"deltaTime":45,"channel":1,"type":"channel","noteNumber":69,"velocity":113,"subtype":"noteOn","realTime":3157,"sortKey":79},{"deltaTime":28,"channel":1,"type":"channel","subtype":"noteOff","noteNumber":69,"velocity":64,"realTime":3185,"sortKey":80},{"deltaTime":15,"channel":1,"type":"channel","noteNumber":69,"velocity":98,"subtype":"noteOn","realTime":3200,"sortKey":81},{"deltaTime":40,"channel":1,"type":"channel","subtype":"noteOff","noteNumber":69,"velocity":64,"realTime":3240,"sortKey":82},{"deltaTime":45,"channel":1,"type":"channel","noteNumber":69,"velocity":107,"subtype":"noteOn","realTime":3285,"sortKey":83},{"deltaTime":26,"channel":1,"type":"channel","subtype":"noteOff","noteNumber":69,"velocity":64,"realTime":3311,"sortKey":84},{"deltaTime":17,"channel":1,"type":"channel","noteNumber":69,"velocity":93,"subtype":"noteOn","realTime":3328,"sortKey":85},{"deltaTime":48,"channel":1,"type":"channel","subtype":"noteOff","noteNumber":69,"velocity":64,"realTime":3376,"sortKey":86},{"deltaTime":37,"channel":1,"type":"channel","noteNumber":69,"velocity":107,"subtype":"noteOn","realTime":3413,"sortKey":87},{"deltaTime":26,"channel":1,"type":"channel","subtype":"noteOff","noteNumber":69,"velocity":64,"realTime":3439,"sortKey":88},{"deltaTime":17,"channel":1,"type":"channel","noteNumber":69,"velocity":93,"subtype":"noteOn","realTime":3456,"sortKey":89},{"deltaTime":33,"channel":1,"type":"channel","subtype":"noteOff","noteNumber":69,"velocity":64,"realTime":3489,"sortKey":90},{"deltaTime":52,"channel":1,"type":"channel","noteNumber":69,"velocity":107,"subtype":"noteOn","realTime":3541,"sortKey":91},{"deltaTime":36,"channel":1,"type":"channel","subtype":"noteOff","noteNumber":69,"velocity":64,"realTime":3577,"sortKey":92},{"deltaTime":7,"channel":1,"type":"channel","noteNumber":64,"velocity":98,"subtype":"noteOn","realTime":3584,"sortKey":93},{"deltaTime":45,"channel":1,"type":"channel","subtype":"noteOff","noteNumber":64,"velocity":64,"realTime":3629,"sortKey":94},{"deltaTime":40,"channel":1,"type":"channel","noteNumber":64,"velocity":93,"subtype":"noteOn","realTime":3669,"sortKey":95},{"deltaTime":26,"channel":1,"type":"channel","subtype":"noteOff","noteNumber":64,"velocity":64,"realTime":3695,"sortKey":96},{"deltaTime":17,"channel":1,"type":"channel","noteNumber":64,"velocity":80,"subtype":"noteOn","realTime":3712,"sortKey":97},{"deltaTime":39,"channel":1,"type":"channel","subtype":"noteOff","noteNumber":64,"velocity":64,"realTime":3751,"sortKey":98},{"deltaTime":46,"channel":1,"type":"channel","noteNumber":64,"velocity":89,"subtype":"noteOn","realTime":3797,"sortKey":99},{"deltaTime":30,"channel":1,"type":"channel","subtype":"noteOff","noteNumber":64,"velocity":64,"realTime":3827,"sortKey":100},{"deltaTime":13,"channel":1,"type":"channel","noteNumber":64,"velocity":89,"subtype":"noteOn","realTime":3840,"sortKey":101},{"deltaTime":39,"channel":1,"type":"channel","subtype":"noteOff","noteNumber":64,"velocity":64,"realTime":3879,"sortKey":102},{"deltaTime":46,"channel":1,"type":"channel","noteNumber":64,"velocity":93,"subtype":"noteOn","realTime":3925,"sortKey":103},{"deltaTime":24,"channel":1,"type":"channel","subtype":"noteOff","noteNumber":64,"velocity":64,"realTime":3949,"sortKey":104},{"deltaTime":19,"channel":1,"type":"channel","noteNumber":64,"velocity":89,"subtype":"noteOn","realTime":3968,"sortKey":105},{"deltaTime":39,"channel":1,"type":"channel","subtype":"noteOff","noteNumber":64,"velocity":64,"realTime":4007,"sortKey":106},{"deltaTime":46,"channel":1,"type":"channel","noteNumber":64,"velocity":89,"subtype":"noteOn","realTime":4053,"sortKey":107},{"deltaTime":38,"channel":1,"type":"channel","subtype":"noteOff","noteNumber":64,"velocity":64,"realTime":4091,"sortKey":108},{"deltaTime":5,"channel":1,"type":"channel","noteNumber":69,"velocity":102,"subtype":"noteOn","realTime":4096,"sortKey":109},{"deltaTime":63,"channel":1,"type":"channel","subtype":"noteOff","noteNumber":69,"velocity":64,"realTime":4159,"sortKey":110},{"deltaTime":22,"channel":1,"type":"channel","noteNumber":69,"velocity":93,"subtype":"noteOn","realTime":4181,"sortKey":111},{"deltaTime":43,"channel":1,"type":"channel","noteNumber":67,"velocity":93,"subtype":"noteOn","realTime":4224,"sortKey":112},{"deltaTime":3,"channel":1,"type":"channel","subtype":"noteOff","noteNumber":69,"velocity":64,"realTime":4227,"sortKey":113},{"deltaTime":58,"channel":1,"type":"channel","subtype":"noteOff","noteNumber":67,"velocity":64,"realTime":4285,"sortKey":114},{"deltaTime":24,"channel":1,"type":"channel","noteNumber":67,"velocity":85,"subtype":"noteOn","realTime":4309,"sortKey":115},{"deltaTime":43,"channel":1,"type":"channel","noteNumber":66,"velocity":98,"subtype":"noteOn","realTime":4352,"sortKey":116},{"deltaTime":4,"channel":1,"type":"channel","subtype":"noteOff","noteNumber":67,"velocity":64,"realTime":4356,"sortKey":117},{"deltaTime":52,"channel":1,"type":"channel","subtype":"noteOff","noteNumber":66,"velocity":64,"realTime":4408,"sortKey":118},{"deltaTime":29,"channel":1,"type":"channel","noteNumber":66,"velocity":89,"subtype":"noteOn","realTime":4437,"sortKey":119},{"deltaTime":35,"channel":1,"type":"channel","subtype":"noteOff","noteNumber":66,"velocity":64,"realTime":4472,"sortKey":120},{"deltaTime":8,"channel":1,"type":"channel","noteNumber":65,"velocity":89,"subtype":"noteOn","realTime":4480,"sortKey":121},{"deltaTime":56,"channel":1,"type":"channel","subtype":"noteOff","noteNumber":65,"velocity":64,"realTime":4536,"sortKey":122},{"deltaTime":29,"channel":1,"type":"channel","noteNumber":65,"velocity":93,"subtype":"noteOn","realTime":4565,"sortKey":123},{"deltaTime":38,"channel":1,"type":"channel","subtype":"noteOff","noteNumber":65,"velocity":64,"realTime":4603,"sortKey":124},{"deltaTime":5,"channel":1,"type":"channel","noteNumber":64,"velocity":93,"subtype":"noteOn","realTime":4608,"sortKey":125},{"deltaTime":52,"channel":1,"type":"channel","subtype":"noteOff","noteNumber":64,"velocity":64,"realTime":4660,"sortKey":126},{"deltaTime":33,"channel":1,"type":"channel","noteNumber":64,"velocity":72,"subtype":"noteOn","realTime":4693,"sortKey":127},{"deltaTime":16,"channel":1,"type":"channel","subtype":"noteOff","noteNumber":64,"velocity":64,"realTime":4709,"sortKey":128},{"deltaTime":27,"channel":1,"type":"channel","noteNumber":64,"velocity":93,"subtype":"noteOn","realTime":4736,"sortKey":129},{"deltaTime":39,"channel":1,"type":"channel","subtype":"noteOff","noteNumber":64,"velocity":64,"realTime":4775,"sortKey":130},{"deltaTime":46,"channel":1,"type":"channel","noteNumber":64,"velocity":89,"subtype":"noteOn","realTime":4821,"sortKey":131},{"deltaTime":24,"channel":1,"type":"channel","subtype":"noteOff","noteNumber":64,"velocity":64,"realTime":4845,"sortKey":132},{"deltaTime":19,"channel":1,"type":"channel","noteNumber":64,"velocity":85,"subtype":"noteOn","realTime":4864,"sortKey":133},{"deltaTime":41,"channel":1,"type":"channel","subtype":"noteOff","noteNumber":64,"velocity":64,"realTime":4905,"sortKey":134},{"deltaTime":44,"channel":1,"type":"channel","noteNumber":64,"velocity":93,"subtype":"noteOn","realTime":4949,"sortKey":135},{"deltaTime":19,"channel":1,"type":"channel","subtype":"noteOff","noteNumber":64,"velocity":64,"realTime":4968,"sortKey":136},{"deltaTime":24,"channel":1,"type":"channel","noteNumber":64,"velocity":89,"subtype":"noteOn","realTime":4992,"sortKey":137},{"deltaTime":32,"channel":1,"type":"channel","subtype":"noteOff","noteNumber":64,"velocity":64,"realTime":5024,"sortKey":138},{"deltaTime":53,"channel":1,"type":"channel","noteNumber":66,"velocity":119,"subtype":"noteOn","realTime":5077,"sortKey":139},{"deltaTime":42,"channel":1,"type":"channel","subtype":"noteOff","noteNumber":66,"velocity":64,"realTime":5119,"sortKey":140},{"deltaTime":0,"type":"meta","subtype":"endOfTrack"}]]}