{"header":{"formatType":1,"trackCount":3,"ticksPerBeat":128},"tracks":[[{"deltaTime":0,"type":"meta","subtype":"timeSignature","numerator":4,"denominator":4,"metronome":24,"thirtyseconds":8,"realTime":0,"sortKey":2},{"deltaTime":0,"type":"meta","subtype":"setTempo","microsecondsPerBeat":468750,"realTime":0,"sortKey":1},{"deltaTime":0,"type":"meta","subtype":"endOfTrack"}],[{"deltaTime":null,"channel":9,"type":"channel","noteNumber":35,"velocity":113,"subtype":"noteOn","realTime":9216,"sortKey":533},{"deltaTime":0,"channel":9,"type":"channel","noteNumber":42,"velocity":127,"subtype":"noteOn","realTime":9216,"sortKey":534},{"deltaTime":0,"channel":9,"type":"channel","noteNumber":49,"velocity":107,"subtype":"noteOn","realTime":9216,"sortKey":535},{"deltaTime":8,"channel":9,"type":"channel","subtype":"noteOff","noteNumber":49,"velocity":64,"realTime":9224,"sortKey":536},{"deltaTime":3,"channel":9,"type":"channel","subtype":"noteOff","noteNumber":42,"velocity":64,"realTime":9227,"sortKey":537},{"deltaTime":74,"channel":9,"type":"channel","noteNumber":42,"velocity":127,"subtype":"noteOn","realTime":9301,"sortKey":538},{"deltaTime":12,"channel":9,"type":"channel","subtype":"noteOff","noteNumber":42,"velocity":64,"realTime":9313,"sortKey":539},{"deltaTime":33,"channel":9,"type":"channel","noteNumber":38,"velocity":127,"subtype":"noteOn","realTime":9346,"sortKey":540},{"deltaTime":0,"channel":9,"type":"channel","noteNumber":42,"velocity":127,"subtype":"noteOn","realTime":9346,"sortKey":541},{"deltaTime":16,"channel":9,"type":"channel","subtype":"noteOff","noteNumber":42,"velocity":64,"realTime":9362,"sortKey":542},{"deltaTime":25,"channel":9,"type":"channel","subtype":"noteOff","noteNumber":35,"velocity":64,"realTime":9387,"sortKey":543},{"deltaTime":40,"channel":9,"type":"channel","noteNumber":35,"velocity":80,"subtype":"noteOn","realTime":9427,"sortKey":544},{"deltaTime":0,"channel":9,"type":"channel","noteNumber":42,"velocity":127,"subtype":"noteOn","realTime":9427,"sortKey":545},{"deltaTime":9,"channel":9,"type":"channel","subtype":"noteOff","noteNumber":42,"velocity":64,"realTime":9436,"sortKey":546},{"deltaTime":1,"channel":9,"type":"channel","subtype":"noteOff","noteNumber":38,"velocity":64,"realTime":9437,"sortKey":547},{"deltaTime":11,"channel":9,"type":"channel","subtype":"noteOff","noteNumber":35,"velocity":64,"realTime":9448,"sortKey":548},{"deltaTime":24,"channel":9,"type":"channel","noteNumber":35,"velocity":113,"subtype":"noteOn","realTime":9472,"sortKey":549},{"deltaTime":0,"channel":9,"type":"channel","noteNumber":42,"velocity":127,"subtype":"noteOn","realTime":9472,"sortKey":550},{"deltaTime":16,"channel":9,"type":"channel","subtype":"noteOff","noteNumber":42,"velocity":64,"realTime":9488,"sortKey":551},{"deltaTime":69,"channel":9,"type":"channel","noteNumber":42,"velocity":127,"subtype":"noteOn","realTime":9557,"sortKey":552},{"deltaTime":12,"channel":9,"type":"channel","subtype":"noteOff","noteNumber":42,"velocity":64,"realTime":9569,"sortKey":553},{"deltaTime":32,"channel":9,"type":"channel","noteNumber":38,"velocity":127,"subtype":"noteOn","realTime":9601,"sortKey":554},{"deltaTime":0,"channel":9,"type":"channel","noteNumber":42,"velocity":127,"subtype":"noteOn","realTime":9601,"sortKey":555},{"deltaTime":34,"channel":9,"type":"channel","subtype":"noteOff","noteNumber":42,"velocity":64,"realTime":9635,"sortKey":556},{"deltaTime":10,"channel":9,"type":"channel","subtype":"noteOff","noteNumber":35,"velocity":64,"realTime":9645,"sortKey":557},{"deltaTime":40,"channel":9,"type":"channel","noteNumber":35,"velocity":98,"subtype":"noteOn","realTime":9685,"sortKey":558},{"deltaTime":0,"channel":9,"type":"channel","noteNumber":46,"velocity":127,"subtype":"noteOn","realTime":9685,"sortKey":559},{"deltaTime":16,"channel":9,"type":"channel","subtype":"noteOff","noteNumber":35,"velocity":64,"realTime":9701,"sortKey":560},{"deltaTime":10,"channel":9,"type":"channel","subtype":"noteOff","noteNumber":38,"velocity":64,"realTime":9711,"sortKey":561},{"deltaTime":16,"channel":9,"type":"channel","subtype":"noteOff","noteNumber":46,"velocity":64,"realTime":9727,"sortKey":562},{"deltaTime":1,"channel":9,"type":"channel","noteNumber":35,"velocity":107,"subtype":"noteOn","realTime":9728,"sortKey":563},{"deltaTime":0,"channel":9,"type":"channel","noteNumber":42,"velocity":113,"subtype":"noteOn","realTime":9728,"sortKey":564},{"deltaTime":20,"channel":9,"type":"channel","subtype":"noteOff","noteNumber":42,"velocity":64,"realTime":9748,"sortKey":565},{"deltaTime":65,"channel":9,"type":"channel","noteNumber":42,"velocity":127,"subtype":"noteOn","realTime":9813,"sortKey":566},{"deltaTime":14,"channel":9,"type":"channel","subtype":"noteOff","noteNumber":42,"velocity":64,"realTime":9827,"sortKey":567},{"deltaTime":31,"channel":9,"type":"channel","noteNumber":38,"velocity":127,"subtype":"noteOn","realTime":9858,"sortKey":568},{"deltaTime":0,"channel":9,"type":"channel","noteNumber":42,"velocity":127,"subtype":"noteOn","realTime":9858,"sortKey":569},{"deltaTime":15,"channel":9,"type":"channel","subtype":"noteOff","noteNumber":42,"velocity":64,"realTime":9873,"sortKey":570},{"deltaTime":22,"channel":9,"type":"channel","subtype":"noteOff","noteNumber":35,"velocity":64,"realTime":9895,"sortKey":571},{"deltaTime":44,"channel":9,"type":"channel","noteNumber":35,"velocity":98,"subtype":"noteOn","realTime":9939,"sortKey":572},{"deltaTime":0,"channel":9,"type":"channel","noteNumber":42,"velocity":127,"subtype":"noteOn","realTime":9939,"sortKey":573},{"deltaTime":8,"channel":9,"type":"channel","subtype":"noteOff","noteNumber":38,"velocity":64,"realTime":9947,"sortKey":574},{"deltaTime":6,"channel":9,"type":"channel","subtype":"noteOff","noteNumber":42,"velocity":64,"realTime":9953,"sortKey":575},{"deltaTime":4,"channel":9,"type":"channel","subtype":"noteOff","noteNumber":35,"velocity":64,"realTime":9957,"sortKey":576},{"deltaTime":27,"channel":9,"type":"channel","noteNumber":35,"velocity":107,"subtype":"noteOn","realTime":9984,"sortKey":577},{"deltaTime":0,"channel":9,"type":"channel","noteNumber":42,"velocity":127,"subtype":"noteOn","realTime":9984,"sortKey":578},{"deltaTime":16,"channel":9,"type":"channel","subtype":"noteOff","noteNumber":42,"velocity":64,"realTime":10000,"sortKey":579},{"deltaTime":34,"channel":9,"type":"channel","subtype":"noteOff","noteNumber":35,"velocity":64,"realTime":10034,"sortKey":580},{"deltaTime":35,"channel":9,"type":"channel","noteNumber":35,"velocity":64,"subtype":"noteOn","realTime":10069,"sortKey":581},{"deltaTime":0,"channel":9,"type":"channel","noteNumber":42,"velocity":127,"subtype":"noteOn","realTime":10069,"sortKey":582},{"deltaTime":15,"channel":9,"type":"channel","subtype":"noteOff","noteNumber":42,"velocity":64,"realTime":10084,"sortKey":583},{"deltaTime":29,"channel":9,"type":"channel","noteNumber":38,"velocity":127,"subtype":"noteOn","realTime":10113,"sortKey":584},{"deltaTime":0,"channel":9,"type":"channel","noteNumber":42,"velocity":127,"subtype":"noteOn","realTime":10113,"sortKey":585},{"deltaTime":30,"channel":9,"type":"channel","subtype":"noteOff","noteNumber":42,"velocity":64,"realTime":10143,"sortKey":586},{"deltaTime":5,"channel":9,"type":"channel","subtype":"noteOff","noteNumber":35,"velocity":64,"realTime":10148,"sortKey":587},{"deltaTime":49,"channel":9,"type":"channel","noteNumber":35,"velocity":93,"subtype":"noteOn","realTime":10197,"sortKey":588},{"deltaTime":0,"channel":9,"type":"channel","noteNumber":46,"velocity":119,"subtype":"noteOn","realTime":10197,"sortKey":589},{"deltaTime":9,"channel":9,"type":"channel","subtype":"noteOff","noteNumber":38,"velocity":64,"realTime":10206,"sortKey":590},{"deltaTime":14,"channel":9,"type":"channel","subtype":"noteOff","noteNumber":35,"velocity":64,"realTime":10220,"sortKey":591},{"deltaTime":20,"channel":9,"type":"channel","subtype":"noteOff","noteNumber":46,"velocity":64,"realTime":10240,"sortKey":592},{"deltaTime":0,"channel":9,"type":"channel","noteNumber":35,"velocity":102,"subtype":"noteOn","realTime":10240,"sortKey":593},{"deltaTime":0,"channel":9,"type":"channel","noteNumber":42,"velocity":119,"subtype":"noteOn","realTime":10240,"sortKey":594},{"deltaTime":19,"channel":9,"type":"channel","subtype":"noteOff","noteNumber":42,"velocity":64,"realTime":10259,"sortKey":595},{"deltaTime":66,"channel":9,"type":"channel","noteNumber":42,"velocity":127,"subtype":"noteOn","realTime":10325,"sortKey":596},{"deltaTime":16,"channel":9,"type":"channel","subtype":"noteOff","noteNumber":42,"velocity":64,"realTime":10341,"sortKey":597},{"deltaTime":29,"channel":9,"type":"channel","noteNumber":38,"velocity":127,"subtype":"noteOn","realTime":10370,"sortKey":598},{"deltaTime":0,"channel":9,"type":"channel","noteNumber":42,"velocity":127,"subtype":"noteOn","realTime":10370,"sortKey":599},{"deltaTime":16,"channel":9,"type":"channel","subtype":"noteOff","noteNumber":42,"velocity":64,"realTime":10386,"sortKey":600},{"deltaTime":5,"channel":9,"type":"channel","subtype":"noteOff","noteNumber":35,"velocity":64,"realTime":10391,"sortKey":601},{"deltaTime":48,"channel":9,"type":"channel","subtype":"noteOff","noteNumber":38,"velocity":64,"realTime":10439,"sortKey":602},{"deltaTime":12,"channel":9,"type":"channel","noteNumber":35,"velocity":102,"subtype":"noteOn","realTime":10451,"sortKey":603},{"deltaTime":0,"channel":9,"type":"channel","noteNumber":42,"velocity":127,"subtype":"noteOn","realTime":10451,"sortKey":604},{"deltaTime":13,"channel":9,"type":"channel","subtype":"noteOff","noteNumber":42,"velocity":64,"realTime":10464,"sortKey":605},{"deltaTime":7,"channel":9,"type":"channel","subtype":"noteOff","noteNumber":35,"velocity":64,"realTime":10471,"sortKey":606},{"deltaTime":25,"channel":9,"type":"channel","noteNumber":35,"velocity":89,"subtype":"noteOn","realTime":10496,"sortKey":607},{"deltaTime":0,"channel":9,"type":"channel","noteNumber":42,"velocity":127,"subtype":"noteOn","realTime":10496,"sortKey":608},{"deltaTime":20,"channel":9,"type":"channel","subtype":"noteOff","noteNumber":42,"velocity":64,"realTime":10516,"sortKey":609},{"deltaTime":14,"channel":9,"type":"channel","subtype":"noteOff","noteNumber":35,"velocity":64,"realTime":10530,"sortKey":610},{"deltaTime":51,"channel":9,"type":"channel","noteNumber":35,"velocity":93,"subtype":"noteOn","realTime":10581,"sortKey":611},{"deltaTime":0,"channel":9,"type":"channel","noteNumber":42,"velocity":127,"subtype":"noteOn","realTime":10581,"sortKey":612},{"deltaTime":15,"channel":9,"type":"channel","subtype":"noteOff","noteNumber":42,"velocity":64,"realTime":10596,"sortKey":613},{"deltaTime":19,"channel":9,"type":"channel","subtype":"noteOff","noteNumber":35,"velocity":64,"realTime":10615,"sortKey":614},{"deltaTime":10,"channel":9,"type":"channel","noteNumber":38,"velocity":127,"subtype":"noteOn","realTime":10625,"sortKey":615},{"deltaTime":0,"channel":9,"type":"channel","noteNumber":42,"velocity":127,"subtype":"noteOn","realTime":10625,"sortKey":616},{"deltaTime":20,"channel":9,"type":"channel","subtype":"noteOff","noteNumber":42,"velocity":64,"realTime":10645,"sortKey":617},{"deltaTime":64,"channel":9,"type":"channel","noteNumber":35,"velocity":98,"subtype":"noteOn","realTime":10709,"sortKey":618},{"deltaTime":0,"channel":9,"type":"channel","noteNumber":42,"velocity":127,"subtype":"noteOn","realTime":10709,"sortKey":619},{"deltaTime":4,"channel":9,"type":"channel","subtype":"noteOff","noteNumber":38,"velocity":64,"realTime":10713,"sortKey":620},{"deltaTime":12,"channel":9,"type":"channel","subtype":"noteOff","noteNumber":42,"velocity":64,"realTime":10725,"sortKey":621},{"deltaTime":4,"channel":9,"type":"channel","subtype":"noteOff","noteNumber":35,"velocity":64,"realTime":10729,"sortKey":622},{"deltaTime":23,"channel":9,"type":"channel","noteNumber":35,"velocity":98,"subtype":"noteOn","realTime":10752,"sortKey":623},{"deltaTime":0,"channel":9,"type":"channel","noteNumber":42,"velocity":127,"subtype":"noteOn","realTime":10752,"sortKey":624},{"deltaTime":16,"channel":9,"type":"channel","subtype":"noteOff","noteNumber":42,"velocity":64,"realTime":10768,"sortKey":625},{"deltaTime":51,"channel":9,"type":"channel","subtype":"noteOff","noteNumber":35,"velocity":64,"realTime":10819,"sortKey":626},{"deltaTime":18,"channel":9,"type":"channel","noteNumber":42,"velocity":127,"subtype":"noteOn","realTime":10837,"sortKey":627},{"deltaTime":14,"channel":9,"type":"channel","subtype":"noteOff","noteNumber":42,"velocity":64,"realTime":10851,"sortKey":628},{"deltaTime":31,"channel":9,"type":"channel","noteNumber":38,"velocity":127,"subtype":"noteOn","realTime":10882,"sortKey":629},{"deltaTime":0,"channel":9,"type":"channel","noteNumber":42,"velocity":127,"subtype":"noteOn","realTime":10882,"sortKey":630},{"deltaTime":20,"channel":9,"type":"channel","subtype":"noteOff","noteNumber":42,"velocity":64,"realTime":10902,"sortKey":631},{"deltaTime":45,"channel":9,"type":"channel","subtype":"noteOff","noteNumber":38,"velocity":64,"realTime":10947,"sortKey":632},{"deltaTime":16,"channel":9,"type":"channel","noteNumber":35,"velocity":76,"subtype":"noteOn","realTime":10963,"sortKey":633},{"deltaTime":0,"channel":9,"type":"channel","noteNumber":42,"velocity":127,"subtype":"noteOn","realTime":10963,"sortKey":634},{"deltaTime":17,"channel":9,"type":"channel","subtype":"noteOff","noteNumber":42,"velocity":64,"realTime":10980,"sortKey":635},{"deltaTime":4,"channel":9,"type":"channel","subtype":"noteOff","noteNumber":35,"velocity":64,"realTime":10984,"sortKey":636},{"deltaTime":24,"channel":9,"type":"channel","noteNumber":35,"velocity":98,"subtype":"noteOn","realTime":11008,"sortKey":637},{"deltaTime":0,"channel":9,"type":"channel","noteNumber":42,"velocity":127,"subtype":"noteOn","realTime":11008,"sortKey":638},{"deltaTime":18,"channel":9,"type":"channel","subtype":"noteOff","noteNumber":42,"velocity":64,"realTime":11026,"sortKey":639},{"deltaTime":31,"channel":9,"type":"channel","subtype":"noteOff","noteNumber":35,"velocity":64,"realTime":11057,"sortKey":640},{"deltaTime":36,"channel":9,"type":"channel","noteNumber":35,"velocity":85,"subtype":"noteOn","realTime":11093,"sortKey":641},{"deltaTime":0,"channel":9,"type":"channel","noteNumber":42,"velocity":127,"subtype":"noteOn","realTime":11093,"sortKey":642},{"deltaTime":15,"channel":9,"type":"channel","subtype":"noteOff","noteNumber":42,"velocity":64,"realTime":11108,"sortKey":643},{"deltaTime":17,"channel":9,"type":"channel","subtype":"noteOff","noteNumber":35,"velocity":64,"realTime":11125,"sortKey":644},{"deltaTime":12,"channel":9,"type":"channel","noteNumber":38,"velocity":127,"subtype":"noteOn","realTime":11137,"sortKey":645},{"deltaTime":0,"channel":9,"type":"channel","noteNumber":42,"velocity":127,"subtype":"noteOn","realTime":11137,"sortKey":646},{"deltaTime":30,"channel":9,"type":"channel","subtype":"noteOff","noteNumber":42,"velocity":64,"realTime":11167,"sortKey":647},{"deltaTime":54,"channel":9,"type":"channel","noteNumber":35,"velocity":93,"subtype":"noteOn","realTime":11221,"sortKey":648},{"deltaTime":0,"channel":9,"type":"channel","noteNumber":46,"velocity":119,"subtype":"noteOn","realTime":11221,"sortKey":649},{"deltaTime":1,"channel":9,"type":"channel","subtype":"noteOff","noteNumber":38,"velocity":64,"realTime":11222,"sortKey":650},{"deltaTime":22,"channel":9,"type":"channel","subtype":"noteOff","noteNumber":35,"velocity":64,"realTime":11244,"sortKey":651},{"deltaTime":17,"channel":9,"type":"channel","subtype":"noteOff","noteNumber":46,"velocity":64,"realTime":11261,"sortKey":652},{"deltaTime":3,"channel":9,"type":"channel","noteNumber":35,"velocity":107,"subtype":"noteOn","realTime":11264,"sortKey":653},{"deltaTime":0,"channel":9,"type":"channel","noteNumber":42,"velocity":119,"subtype":"noteOn","realTime":11264,"sortKey":654},{"deltaTime":0,"channel":9,"type":"channel","noteNumber":49,"velocity":76,"subtype":"noteOn","realTime":11264,"sortKey":655},{"deltaTime":12,"channel":9,"type":"channel","subtype":"noteOff","noteNumber":49,"velocity":64,"realTime":11276,"sortKey":656},{"deltaTime":8,"channel":9,"type":"channel","subtype":"noteOff","noteNumber":42,"velocity":64,"realTime":11284,"sortKey":657},{"deltaTime":41,"channel":9,"type":"channel","subtype":"noteOff","noteNumber":35,"velocity":64,"realTime":11325,"sortKey":658},{"deltaTime":24,"channel":9,"type":"channel","noteNumber":42,"velocity":127,"subtype":"noteOn","realTime":11349,"sortKey":659},{"deltaTime":14,"channel":9,"type":"channel","subtype":"noteOff","noteNumber":42,"velocity":64,"realTime":11363,"sortKey":660},{"deltaTime":31,"channel":9,"type":"channel","noteNumber":38,"velocity":127,"subtype":"noteOn","realTime":11394,"sortKey":661},{"deltaTime":0,"channel":9,"type":"channel","noteNumber":42,"velocity":127,"subtype":"noteOn","realTime":11394,"sortKey":662},{"deltaTime":21,"channel":9,"type":"channel","subtype":"noteOff","noteNumber":42,"velocity":64,"realTime":11415,"sortKey":663},{"deltaTime":46,"channel":9,"type":"channel","subtype":"noteOff","noteNumber":38,"velocity":64,"realTime":11461,"sortKey":664},{"deltaTime":14,"channel":9,"type":"channel","noteNumber":35,"velocity":98,"subtype":"noteOn","realTime":11475,"sortKey":665},{"deltaTime":0,"channel":9,"type":"channel","noteNumber":42,"velocity":127,"subtype":"noteOn","realTime":11475,"sortKey":666},{"deltaTime":14,"channel":9,"type":"channel","subtype":"noteOff","noteNumber":42,"velocity":64,"realTime":11489,"sortKey":667},{"deltaTime":6,"channel":9,"type":"channel","subtype":"noteOff","noteNumber":35,"velocity":64,"realTime":11495,"sortKey":668},{"deltaTime":25,"channel":9,"type":"channel","noteNumber":35,"velocity":107,"subtype":"noteOn","realTime":11520,"sortKey":669},{"deltaTime":0,"channel":9,"type":"channel","noteNumber":42,"velocity":127,"subtype":"noteOn","realTime":11520,"sortKey":670},{"deltaTime":18,"channel":9,"type":"channel","subtype":"noteOff","noteNumber":42,"velocity":64,"realTime":11538,"sortKey":671},{"deltaTime":28,"channel":9,"type":"channel","subtype":"noteOff","noteNumber":35,"velocity":64,"realTime":11566,"sortKey":672},{"deltaTime":39,"channel":9,"type":"channel","noteNumber":42,"velocity":127,"subtype":"noteOn","realTime":11605,"sortKey":673},{"deltaTime":16,"channel":9,"type":"channel","subtype":"noteOff","noteNumber":42,"velocity":64,"realTime":11621,"sortKey":674},{"deltaTime":28,"channel":9,"type":"channel","noteNumber":38,"velocity":127,"subtype":"noteOn","realTime":11649,"sortKey":675},{"deltaTime":0,"channel":9,"type":"channel","noteNumber":42,"velocity":127,"subtype":"noteOn","realTime":11649,"sortKey":676},{"deltaTime":28,"channel":9,"type":"channel","subtype":"noteOff","noteNumber":42,"velocity":64,"realTime":11677,"sortKey":677},{"deltaTime":42,"channel":9,"type":"channel","subtype":"noteOff","noteNumber":38,"velocity":64,"realTime":11719,"sortKey":678},{"deltaTime":14,"channel":9,"type":"channel","noteNumber":35,"velocity":93,"subtype":"noteOn","realTime":11733,"sortKey":679},{"deltaTime":0,"channel":9,"type":"channel","noteNumber":46,"velocity":119,"subtype":"noteOn","realTime":11733,"sortKey":680},{"deltaTime":20,"channel":9,"type":"channel","subtype":"noteOff","noteNumber":35,"velocity":64,"realTime":11753,"sortKey":681},{"deltaTime":23,"channel":9,"type":"channel","subtype":"noteOff","noteNumber":46,"velocity":64,"realTime":11776,"sortKey":682},{"deltaTime":0,"channel":9,"type":"channel","noteNumber":35,"velocity":102,"subtype":"noteOn","realTime":11776,"sortKey":683},{"deltaTime":0,"channel":9,"type":"channel","noteNumber":42,"velocity":127,"subtype":"noteOn","realTime":11776,"sortKey":684},{"deltaTime":19,"channel":9,"type":"channel","subtype":"noteOff","noteNumber":42,"velocity":64,"realTime":11795,"sortKey":685},{"deltaTime":40,"channel":9,"type":"channel","subtype":"noteOff","noteNumber":35,"velocity":64,"realTime":11835,"sortKey":686},{"deltaTime":26,"channel":9,"type":"channel","noteNumber":42,"velocity":127,"subtype":"noteOn","realTime":11861,"sortKey":687},{"deltaTime":14,"channel":9,"type":"channel","subtype":"noteOff","noteNumber":42,"velocity":64,"realTime":11875,"sortKey":688},{"deltaTime":31,"channel":9,"type":"channel","noteNumber":38,"velocity":127,"subtype":"noteOn","realTime":11906,"sortKey":689},{"deltaTime":0,"channel":9,"type":"channel","noteNumber":42,"velocity":127,"subtype":"noteOn","realTime":11906,"sortKey":690},{"deltaTime":17,"channel":9,"type":"channel","subtype":"noteOff","noteNumber":42,"velocity":64,"realTime":11923,"sortKey":691},{"deltaTime":42,"channel":9,"type":"channel","subtype":"noteOff","noteNumber":38,"velocity":64,"realTime":11965,"sortKey":692},{"deltaTime":22,"channel":9,"type":"channel","noteNumber":35,"velocity":102,"subtype":"noteOn","realTime":11987,"sortKey":693},{"deltaTime":0,"channel":9,"type":"channel","noteNumber":42,"velocity":127,"subtype":"noteOn","realTime":11987,"sortKey":694},{"deltaTime":16,"channel":9,"type":"channel","subtype":"noteOff","noteNumber":42,"velocity":64,"realTime":12003,"sortKey":695},{"deltaTime":6,"channel":9,"type":"channel","subtype":"noteOff","noteNumber":35,"velocity":64,"realTime":12009,"sortKey":696},{"deltaTime":23,"channel":9,"type":"channel","noteNumber":35,"velocity":93,"subtype":"noteOn","realTime":12032,"sortKey":697},{"deltaTime":0,"channel":9,"type":"channel","noteNumber":42,"velocity":127,"subtype":"noteOn","realTime":12032,"sortKey":698},{"deltaTime":17,"channel":9,"type":"channel","subtype":"noteOff","noteNumber":42,"velocity":64,"realTime":12049,"sortKey":699},{"deltaTime":13,"channel":9,"type":"channel","subtype":"noteOff","noteNumber":35,"velocity":64,"realTime":12062,"sortKey":700},{"deltaTime":55,"channel":9,"type":"channel","noteNumber":35,"velocity":102,"subtype":"noteOn","realTime":12117,"sortKey":701},{"deltaTime":0,"channel":9,"type":"channel","noteNumber":42,"velocity":127,"subtype":"noteOn","realTime":12117,"sortKey":702},{"deltaTime":15,"channel":9,"type":"channel","subtype":"noteOff","noteNumber":42,"velocity":64,"realTime":12132,"sortKey":703},{"deltaTime":9,"channel":9,"type":"channel","subtype":"noteOff","noteNumber":35,"velocity":64,"realTime":12141,"sortKey":704},{"deltaTime":20,"channel":9,"type":"channel","noteNumber":38,"velocity":127,"subtype":"noteOn","realTime":12161,"sortKey":705},{"deltaTime":0,"channel":9,"type":"channel","noteNumber":42,"velocity":127,"subtype":"noteOn","realTime":12161,"sortKey":706},{"deltaTime":18,"channel":9,"type":"channel","subtype":"noteOff","noteNumber":42,"velocity":64,"realTime":12179,"sortKey":707},{"deltaTime":54,"channel":9,"type":"channel","subtype":"noteOff","noteNumber":38,"velocity":64,"realTime":12233,"sortKey":708},{"deltaTime":12,"channel":9,"type":"channel","noteNumber":35,"velocity":102,"subtype":"noteOn","realTime":12245,"sortKey":709},{"deltaTime":0,"channel":9,"type":"channel","noteNumber":42,"velocity":127,"subtype":"noteOn","realTime":12245,"sortKey":710},{"deltaTime":18,"channel":9,"type":"channel","subtype":"noteOff","noteNumber":42,"velocity":64,"realTime":12263,"sortKey":711},{"deltaTime":2,"channel":9,"type":"channel","subtype":"noteOff","noteNumber":35,"velocity":64,"realTime":12265,"sortKey":712},{"deltaTime":23,"channel":9,"type":"channel","noteNumber":35,"velocity":113,"subtype":"noteOn","realTime":12288,"sortKey":713},{"deltaTime":0,"channel":9,"type":"channel","noteNumber":42,"velocity":127,"subtype":"noteOn","realTime":12288,"sortKey":714},{"deltaTime":17,"channel":9,"type":"channel","subtype":"noteOff","noteNumber":42,"velocity":64,"realTime":12305,"sortKey":715},{"deltaTime":26,"channel":9,"type":"channel","subtype":"noteOff","noteNumber":35,"velocity":64,"realTime":12331,"sortKey":716},{"deltaTime":42,"channel":9,"type":"channel","noteNumber":42,"velocity":127,"subtype":"noteOn","realTime":12373,"sortKey":717},{"deltaTime":13,"channel":9,"type":"channel","subtype":"noteOff","noteNumber":42,"velocity":64,"realTime":12386,"sortKey":718},{"deltaTime":32,"channel":9,"type":"channel","noteNumber":38,"velocity":127,"subtype":"noteOn","realTime":12418,"sortKey":719},{"deltaTime":0,"channel":9,"type":"channel","noteNumber":42,"velocity":127,"subtype":"noteOn","realTime":12418,"sortKey":720},{"deltaTime":19,"channel":9,"type":"channel","subtype":"noteOff","noteNumber":42,"velocity":64,"realTime":12437,"sortKey":721},{"deltaTime":56,"channel":9,"type":"channel","subtype":"noteOff","noteNumber":38,"velocity":64,"realTime":12493,"sortKey":722},{"deltaTime":6,"channel":9,"type":"channel","noteNumber":35,"velocity":98,"subtype":"noteOn","realTime":12499,"sortKey":723},{"deltaTime":0,"channel":9,"type":"channel","noteNumber":42,"velocity":127,"subtype":"noteOn","realTime":12499,"sortKey":724},{"deltaTime":16,"channel":9,"type":"channel","subtype":"noteOff","noteNumber":42,"velocity":64,"realTime":12515,"sortKey":725},{"deltaTime":9,"channel":9,"type":"channel","subtype":"noteOff","noteNumber":35,"velocity":64,"realTime":12524,"sortKey":726},{"deltaTime":20,"channel":9,"type":"channel","noteNumber":35,"velocity":102,"subtype":"noteOn","realTime":12544,"sortKey":727},{"deltaTime":0,"channel":9,"type":"channel","noteNumber":42,"velocity":127,"subtype":"noteOn","realTime":12544,"sortKey":728},{"deltaTime":21,"channel":9,"type":"channel","subtype":"noteOff","noteNumber":42,"velocity":64,"realTime":12565,"sortKey":729},{"deltaTime":36,"channel":9,"type":"channel","subtype":"noteOff","noteNumber":35,"velocity":64,"realTime":12601,"sortKey":730},{"deltaTime":28,"channel":9,"type":"channel","noteNumber":42,"velocity":127,"subtype":"noteOn","realTime":12629,"sortKey":731},{"deltaTime":15,"channel":9,"type":"channel","subtype":"noteOff","noteNumber":42,"velocity":64,"realTime":12644,"sortKey":732},{"deltaTime":29,"channel":9,"type":"channel","noteNumber":38,"velocity":127,"subtype":"noteOn","realTime":12673,"sortKey":733},{"deltaTime":0,"channel":9,"type":"channel","noteNumber":42,"velocity":127,"subtype":"noteOn","realTime":12673,"sortKey":734},{"deltaTime":20,"channel":9,"type":"channel","subtype":"noteOff","noteNumber":42,"velocity":64,"realTime":12693,"sortKey":735},{"deltaTime":54,"channel":9,"type":"channel","subtype":"noteOff","noteNumber":38,"velocity":64,"realTime":12747,"sortKey":736},{"deltaTime":10,"channel":9,"type":"channel","noteNumber":35,"velocity":98,"subtype":"noteOn","realTime":12757,"sortKey":737},{"deltaTime":0,"channel":9,"type":"channel","noteNumber":42,"velocity":127,"subtype":"noteOn","realTime":12757,"sortKey":738},{"deltaTime":18,"channel":9,"type":"channel","subtype":"noteOff","noteNumber":42,"velocity":64,"realTime":12775,"sortKey":739},{"deltaTime":5,"channel":9,"type":"channel","subtype":"noteOff","noteNumber":35,"velocity":64,"realTime":12780,"sortKey":740},{"deltaTime":20,"channel":9,"type":"channel","noteNumber":35,"velocity":102,"subtype":"noteOn","realTime":12800,"sortKey":741},{"deltaTime":0,"channel":9,"type":"channel","noteNumber":42,"velocity":127,"subtype":"noteOn","realTime":12800,"sortKey":742},{"deltaTime":19,"channel":9,"type":"channel","subtype":"noteOff","noteNumber":42,"velocity":64,"realTime":12819,"sortKey":743},{"deltaTime":66,"channel":9,"type":"channel","noteNumber":42,"velocity":127,"subtype":"noteOn","realTime":12885,"sortKey":744},{"deltaTime":16,"channel":9,"type":"channel","subtype":"noteOff","noteNumber":42,"velocity":64,"realTime":12901,"sortKey":745},{"deltaTime":29,"channel":9,"type":"channel","noteNumber":38,"velocity":127,"subtype":"noteOn","realTime":12930,"sortKey":746},{"deltaTime":0,"channel":9,"type":"channel","noteNumber":42,"velocity":127,"subtype":"noteOn","realTime":12930,"sortKey":747},{"deltaTime":9,"channel":9,"type":"channel","subtype":"noteOff","noteNumber":35,"velocity":64,"realTime":12939,"sortKey":748},{"deltaTime":14,"channel":9,"type":"channel","subtype":"noteOff","noteNumber":42,"velocity":64,"realTime":12953,"sortKey":749},{"deltaTime":58,"channel":9,"type":"channel","noteNumber":35,"velocity":85,"subtype":"noteOn","realTime":13011,"sortKey":750},{"deltaTime":0,"channel":9,"type":"channel","noteNumber":42,"velocity":127,"subtype":"noteOn","realTime":13011,"sortKey":751},{"deltaTime":12,"channel":9,"type":"channel","subtype":"noteOff","noteNumber":35,"velocity":64,"realTime":13023,"sortKey":752},{"deltaTime":4,"channel":9,"type":"channel","subtype":"noteOff","noteNumber":42,"velocity":64,"realTime":13027,"sortKey":753},{"deltaTime":27,"channel":9,"type":"channel","subtype":"noteOff","noteNumber":38,"velocity":64,"realTime":13054,"sortKey":754},{"deltaTime":2,"channel":9,"type":"channel","noteNumber":35,"velocity":93,"subtype":"noteOn","realTime":13056,"sortKey":755},{"deltaTime":0,"channel":9,"type":"channel","noteNumber":42,"velocity":127,"subtype":"noteOn","realTime":13056,"sortKey":756},{"deltaTime":21,"channel":9,"type":"channel","subtype":"noteOff","noteNumber":42,"velocity":64,"realTime":13077,"sortKey":757},{"deltaTime":20,"channel":9,"type":"channel","noteNumber":38,"velocity":127,"subtype":"noteOn","realTime":13097,"sortKey":758},{"deltaTime":11,"channel":9,"type":"channel","subtype":"noteOff","noteNumber":35,"velocity":64,"realTime":13108,"sortKey":759},{"deltaTime":27,"channel":9,"type":"channel","subtype":"noteOff","noteNumber":38,"velocity":64,"realTime":13135,"sortKey":760},{"deltaTime":6,"channel":9,"type":"channel","noteNumber":35,"velocity":76,"subtype":"noteOn","realTime":13141,"sortKey":761},{"deltaTime":0,"channel":9,"type":"channel","noteNumber":42,"velocity":127,"subtype":"noteOn","realTime":13141,"sortKey":762},{"deltaTime":16,"channel":9,"type":"channel","subtype":"noteOff","noteNumber":42,"velocity":64,"realTime":13157,"sortKey":763},{"deltaTime":28,"channel":9,"type":"channel","noteNumber":38,"velocity":127,"subtype":"noteOn","realTime":13185,"sortKey":764},{"deltaTime":0,"channel":9,"type":"channel","noteNumber":42,"velocity":127,"subtype":"noteOn","realTime":13185,"sortKey":765},{"deltaTime":2,"channel":9,"type":"channel","subtype":"noteOff","noteNumber":35,"velocity":64,"realTime":13187,"sortKey":766},{"deltaTime":27,"channel":9,"type":"channel","subtype":"noteOff","noteNumber":42,"velocity":64,"realTime":13214,"sortKey":767},{"deltaTime":13,"channel":9,"type":"channel","noteNumber":35,"velocity":107,"subtype":"noteOn","realTime":13227,"sortKey":768},{"deltaTime":19,"channel":9,"type":"channel","subtype":"noteOff","noteNumber":38,"velocity":64,"realTime":13246,"sortKey":769},{"deltaTime":7,"channel":9,"type":"channel","subtype":"noteOff","noteNumber":35,"velocity":64,"realTime":13253,"sortKey":770},{"deltaTime":16,"channel":9,"type":"channel","noteNumber":35,"velocity":107,"subtype":"noteOn","realTime":13269,"sortKey":771},{"deltaTime":0,"channel":9,"type":"channel","noteNumber":46,"velocity":127,"subtype":"noteOn","realTime":13269,"sortKey":772},{"deltaTime":24,"channel":9,"type":"channel","subtype":"noteOff","noteNumber":35,"velocity":64,"realTime":13293,"sortKey":773},{"deltaTime":11,"channel":9,"type":"channel","subtype":"noteOff","noteNumber":46,"velocity":64,"realTime":13304,"sortKey":774},{"deltaTime":0,"type":"meta","subtype":"endOfTrack"}],[{"deltaTime":null,"channel":1,"type":"channel","noteNumber":69,"velocity":113,"subtype":"noteOn","realTime":9216,"sortKey":256},{"deltaTime":1,"channel":1,"type":"channel","subtype":"noteOff","noteNumber":66,"velocity":64,"realTime":9217,"sortKey":257},{"deltaTime":27,"channel":1,"type":"channel","subtype":"noteOff","noteNumber":69,"velocity":64,"realTime":9244,"sortKey":258},{"deltaTime":57,"channel":1,"type":"channel","noteNumber":69,"velocity":85,"subtype":"noteOn","realTime":9301,"sortKey":259},{"deltaTime":23,"channel":1,"type":"channel","subtype":"noteOff","noteNumber":69,"velocity":64,"realTime":9324,"sortKey":260},{"deltaTime":20,"channel":1,"type":"channel","noteNumber":69,"velocity":98,"subtype":"noteOn","realTime":9344,"sortKey":261},{"deltaTime":36,"channel":1,"type":"channel","subtype":"noteOff","noteNumber":69,"velocity":64,"realTime":9380,"sortKey":262},{"deltaTime":49,"channel":1,"type":"channel","noteNumber":69,"velocity":93,"subtype":"noteOn","realTime":9429,"sortKey":263},{"deltaTime":22,"channel":1,"type":"channel","subtype":"noteOff","noteNumber":69,"velocity":64,"realTime":9451,"sortKey":264},{"deltaTime":21,"channel":1,"type":"channel","noteNumber":69,"velocity":98,"subtype":"noteOn","realTime":9472,"sortKey":265},{"deltaTime":29,"channel":1,"type":"channel","subtype":"noteOff","noteNumber":69,"velocity":64,"realTime":9501,"sortKey":266},{"deltaTime":56,"channel":1,"type":"channel","noteNumber":69,"velocity":102,"subtype":"noteOn","realTime":9557,"sortKey":267},{"deltaTime":38,"channel":1,"type":"channel","subtype":"noteOff","noteNumber":69,"velocity":64,"realTime":9595,"sortKey":268},{"deltaTime":5,"channel":1,"type":"channel","noteNumber":73,"velocity":102,"subtype":"noteOn","realTime":9600,"sortKey":269},{"deltaTime":83,"channel":1,"type":"channel","subtype":"noteOff","noteNumber":73,"velocity":64,"realTime":9683,"sortKey":270},{"deltaTime":2,"channel":1,"type":"channel","noteNumber":74,"velocity":80,"subtype":"noteOn","realTime":9685,"sortKey":271},{"deltaTime":43,"channel":1,"type":"channel","noteNumber":76,"velocity":102,"subtype":"noteOn","realTime":9728,"sortKey":272},{"deltaTime":1,"channel":1,"type":"channel","subtype":"noteOff","noteNumber":74,"velocity":64,"realTime":9729,"sortKey":273},{"deltaTime":34,"channel":1,"type":"channel","subtype":"noteOff","noteNumber":76,"velocity":64,"realTime":9763,"sortKey":274},{"deltaTime":50,"channel":1,"type":"channel","noteNumber":76,"velocity":93,"subtype":"noteOn","realTime":9813,"sortKey":275},{"deltaTime":22,"channel":1,"type":"channel","subtype":"noteOff","noteNumber":76,"velocity":64,"realTime":9835,"sortKey":276},{"deltaTime":21,"channel":1,"type":"channel","noteNumber":76,"velocity":85,"subtype":"noteOn","realTime":9856,"sortKey":277},{"deltaTime":33,"channel":1,"type":"channel","subtype":"noteOff","noteNumber":76,"velocity":64,"realTime":9889,"sortKey":278},{"deltaTime":52,"channel":1,"type":"channel","noteNumber":76,"velocity":102,"subtype":"noteOn","realTime":9941,"sortKey":279},{"deltaTime":23,"channel":1,"type":"channel","subtype":"noteOff","noteNumber":76,"velocity":64,"realTime":9964,"sortKey":280},{"deltaTime":20,"channel":1,"type":"channel","noteNumber":76,"velocity":76,"subtype":"noteOn","realTime":9984,"sortKey":281},{"deltaTime":41,"channel":1,"type":"channel","subtype":"noteOff","noteNumber":76,"velocity":64,"realTime":10025,"sortKey":282},{"deltaTime":44,"channel":1,"type":"channel","noteNumber":76,"velocity":98,"subtype":"noteOn","realTime":10069,"sortKey":283},{"deltaTime":26,"channel":1,"type":"channel","subtype":"noteOff","noteNumber":76,"velocity":64,"realTime":10095,"sortKey":284},{"deltaTime":17,"channel":1,"type":"channel","noteNumber":76,"velocity":93,"subtype":"noteOn","realTime":10112,"sortKey":285},{"deltaTime":41,"channel":1,"type":"channel","subtype":"noteOff","noteNumber":76,"velocity":64,"realTime":10153,"sortKey":286},{"deltaTime":44,"channel":1,"type":"channel","noteNumber":76,"velocity":107,"subtype":"noteOn","realTime":10197,"sortKey":287},{"deltaTime":39,"channel":1,"type":"channel","subtype":"noteOff","noteNumber":76,"velocity":64,"realTime":10236,"sortKey":288},{"deltaTime":4,"channel":1,"type":"channel","noteNumber":74,"velocity":102,"subtype":"noteOn","realTime":10240,"sortKey":289},{"deltaTime":43,"channel":1,"type":"channel","subtype":"noteOff","noteNumber":74,"velocity":64,"realTime":10283,"sortKey":290},{"deltaTime":42,"channel":1,"type":"channel","noteNumber":74,"velocity":102,"subtype":"noteOn","realTime":10325,"sortKey":291},{"deltaTime":24,"channel":1,"type":"channel","subtype":"noteOff","noteNumber":74,"velocity":64,"realTime":10349,"sortKey":292},{"deltaTime":19,"channel":1,"type":"channel","noteNumber":74,"velocity":93,"subtype":"noteOn","realTime":10368,"sortKey":293},{"deltaTime":35,"channel":1,"type":"channel","subtype":"noteOff","noteNumber":74,"velocity":64,"realTime":10403,"sortKey":294},{"deltaTime":50,"channel":1,"type":"channel","noteNumber":74,"velocity":107,"subtype":"noteOn","realTime":10453,"sortKey":295},{"deltaTime":26,"channel":1,"type":"channel","subtype":"noteOff","noteNumber":74,"velocity":64,"realTime":10479,"sortKey":296},{"deltaTime":17,"channel":1,"type":"channel","noteNumber":74,"velocity":102,"subtype":"noteOn","realTime":10496,"sortKey":297},{"deltaTime":40,"channel":1,"type":"channel","subtype":"noteOff","noteNumber":74,"velocity":64,"realTime":10536,"sortKey":298},{"deltaTime":45,"channel":1,"type":"channel","noteNumber":74,"velocity":107,"subtype":"noteOn","realTime":10581,"sortKey":299},{"deltaTime":26,"channel":1,"type":"channel","subtype":"noteOff","noteNumber":74,"velocity":64,"realTime":10607,"sortKey":300},{"deltaTime":17,"channel":1,"type":"channel","noteNumber":74,"velocity":102,"subtype":"noteOn","realTime":10624,"sortKey":301},{"deltaTime":40,"channel":1,"type":"channel","subtype":"noteOff","noteNumber":74,"velocity":64,"realTime":10664,"sortKey":302},{"deltaTime":45,"channel":1,"type":"channel","noteNumber":74,"velocity":107,"subtype":"noteOn","realTime":10709,"sortKey":303},{"deltaTime":24,"channel":1,"type":"channel","subtype":"noteOff","noteNumber":74,"velocity":64,"realTime":10733,"sortKey":304},{"deltaTime":19,"channel":1,"type":"channel","noteNumber":74,"velocity":93,"subtype":"noteOn","realTime":10752,"sortKey":305},{"deltaTime":56,"channel":1,"type":"channel","subtype":"noteOff","noteNumber":74,"velocity":64,"realTime":10808,"sortKey":306},{"deltaTime":29,"channel":1,"type":"channel","noteNumber":74,"velocity":93,"subtype":"noteOn","realTime":10837,"sortKey":307},{"deltaTime":27,"channel":1,"type":"channel","subtype":"noteOff","noteNumber":74,"velocity":64,"realTime":10864,"sortKey":308},{"deltaTime":16,"channel":1,"type":"channel","noteNumber":74,"velocity":98,"subtype":"noteOn","realTime":10880,"sortKey":309},{"deltaTime":40,"channel":1,"type":"channel","subtype":"noteOff","noteNumber":74,"velocity":64,"realTime":10920,"sortKey":310},{"deltaTime":45,"channel":1,"type":"channel","noteNumber":74,"velocity":107,"subtype":"noteOn","realTime":10965,"sortKey":311},{"deltaTime":26,"channel":1,"type":"channel","subtype":"noteOff","noteNumber":74,"velocity":64,"realTime":10991,"sortKey":312},{"deltaTime":17,"channel":1,"type":"channel","noteNumber":74,"velocity":89,"subtype":"noteOn","realTime":11008,"sortKey":313},{"deltaTime":45,"channel":1,"type":"channel","subtype":"noteOff","noteNumber":74,"velocity":64,"realTime":11053,"sortKey":314},{"deltaTime":40,"channel":1,"type":"channel","noteNumber":74,"velocity":113,"subtype":"noteOn","realTime":11093,"sortKey":315},{"deltaTime":42,"channel":1,"type":"channel","subtype":"noteOff","noteNumber":74,"velocity":64,"realTime":11135,"sortKey":316},{"deltaTime":1,"channel":1,"type":"channel","noteNumber":66,"velocity":93,"subtype":"noteOn","realTime":11136,"sortKey":317},{"deltaTime":35,"channel":1,"type":"channel","subtype":"noteOff","noteNumber":66,"velocity":64,"realTime":11171,"sortKey":318},{"deltaTime":8,"channel":1,"type":"channel","noteNumber":67,"velocity":102,"subtype":"noteOn","realTime":11179,"sortKey":319},{"deltaTime":40,"channel":1,"type":"channel","subtype":"noteOff","noteNumber":67,"velocity":64,"realTime":11219,"sortKey":320},{"deltaTime":2,"channel":1,"type":"channel","noteNumber":68,"velocity":85,"subtype":"noteOn","realTime":11221,"sortKey":321},{"deltaTime":43,"channel":1,"type":"channel","noteNumber":69,"velocity":107,"subtype":"noteOn","realTime":11264,"sortKey":322},{"deltaTime":1,"channel":1,"type":"channel","subtype":"noteOff","noteNumber":68,"velocity":64,"realTime":11265,"sortKey":323},{"deltaTime":42,"channel":1,"type":"channel","subtype":"noteOff","noteNumber":69,"velocity":64,"realTime":11307,"sortKey":324},{"deltaTime":42,"channel":1,"type":"channel","noteNumber":69,"velocity":107,"subtype":"noteOn","realTime":11349,"sortKey":325},{"deltaTime":30,"channel":1,"type":"channel","subtype":"noteOff","noteNumber":69,"velocity":64,"realTime":11379,"sortKey":326},{"deltaTime":13,"channel":1,"type":"channel","noteNumber":69,"velocity":102,"subtype":"noteOn","realTime":11392,"sortKey":327},{"deltaTime":35,"channel":1,"type":"channel","subtype":"noteOff","noteNumber":69,"velocity":64,"realTime":11427,"sortKey":328},{"deltaTime":50,"channel":1,"type":"channel","noteNumber":69,"velocity":107,"subtype":"noteOn","realTime":11477,"sortKey":329},{"deltaTime":32,"channel":1,"type":"channel","subtype":"noteOff","noteNumber":69,"velocity":64,"realTime":11509,"sortKey":330},{"deltaTime":11,"channel":1,"type":"channel","noteNumber":69,"velocity":93,"subtype":"noteOn","realTime":11520,"sortKey":331},{"deltaTime":32,"channel":1,"type":"channel","subtype":"noteOff","noteNumber":69,"velocity":64,"realTime":11552,"sortKey":332},{"deltaTime":53,"channel":1,"type":"channel","noteNumber":69,"velocity":113,"subtype":"noteOn","realTime":11605,"sortKey":333},{"deltaTime":28,"channel":1,"type":"channel","subtype":"noteOff","noteNumber":69,"velocity":64,"realTime":11633,"sortKey":334},{"deltaTime":15,"channel":1,"type":"channel","noteNumber":69,"velocity":98,"subtype":"noteOn","realTime":11648,"sortKey":335},{"deltaTime":36,"channel":1,"type":"channel","subtype":"noteOff","noteNumber":69,"velocity":64,"realTime":11684,"sortKey":336},{"deltaTime":49,"channel":1,"type":"channel","noteNumber":69,"velocity":107,"subtype":"noteOn","realTime":11733,"sortKey":337},{"deltaTime":42,"channel":1,"type":"channel","subtype":"noteOff","noteNumber":69,"velocity":64,"realTime":11775,"sortKey":338},{"deltaTime":1,"channel":1,"type":"channel","noteNumber":64,"velocity":98,"subtype":"noteOn","realTime":11776,"sortKey":339},{"deltaTime":44,"channel":1,"type":"channel","subtype":"noteOff","noteNumber":64,"velocity":64,"realTime":11820,"sortKey":340},{"deltaTime":41,"channel":1,"type":"channel","noteNumber":64,"velocity":89,"subtype":"noteOn","realTime":11861,"sortKey":341},{"deltaTime":30,"channel":1,"type":"channel","subtype":"noteOff","noteNumber":64,"velocity":64,"realTime":11891,"sortKey":342},{"deltaTime":13,"channel":1,"type":"channel","noteNumber":64,"velocity":89,"subtype":"noteOn","realTime":11904,"sortKey":343},{"deltaTime":35,"channel":1,"type":"channel","subtype":"noteOff","noteNumber":64,"velocity":64,"realTime":11939,"sortKey":344},{"deltaTime":50,"channel":1,"type":"channel","noteNumber":64,"velocity":89,"subtype":"noteOn","realTime":11989,"sortKey":345},{"deltaTime":30,"channel":1,"type":"channel","subtype":"noteOff","noteNumber":64,"velocity":64,"realTime":12019,"sortKey":346},{"deltaTime":13,"channel":1,"type":"channel","noteNumber":64,"velocity":85,"subtype":"noteOn","realTime":12032,"sortKey":347},{"deltaTime":39,"channel":1,"type":"channel","subtype":"noteOff","noteNumber":64,"velocity":64,"realTime":12071,"sortKey":348},{"deltaTime":46,"channel":1,"type":"channel","noteNumber":64,"velocity":98,"subtype":"noteOn","realTime":12117,"sortKey":349},{"deltaTime":24,"channel":1,"type":"channel","subtype":"noteOff","noteNumber":64,"velocity":64,"realTime":12141,"sortKey":350},{"deltaTime":19,"channel":1,"type":"channel","noteNumber":64,"velocity":89,"subtype":"noteOn","realTime":12160,"sortKey":351},{"deltaTime":35,"channel":1,"type":"channel","subtype":"noteOff","noteNumber":64,"velocity":64,"realTime":12195,"sortKey":352},{"deltaTime":50,"channel":1,"type":"channel","noteNumber":64,"velocity":93,"subtype":"noteOn","realTime":12245,"sortKey":353},{"deltaTime":42,"channel":1,"type":"channel","subtype":"noteOff","noteNumber":64,"velocity":64,"realTime":12287,"sortKey":354},{"deltaTime":1,"channel":1,"type":"channel","noteNumber":69,"velocity":102,"subtype":"noteOn","realTime":12288,"sortKey":355},{"deltaTime":51,"channel":1,"type":"channel","subtype":"noteOff","noteNumber":69,"velocity":64,"realTime":12339,"sortKey":356},{"deltaTime":34,"channel":1,"type":"channel","noteNumber":69,"velocity":107,"subtype":"noteOn","realTime":12373,"sortKey":357},{"deltaTime":39,"channel":1,"type":"channel","subtype":"noteOff","noteNumber":69,"velocity":64,"realTime":12412,"sortKey":358},{"deltaTime":4,"channel":1,"type":"channel","noteNumber":67,"velocity":102,"subtype":"noteOn","realTime":12416,"sortKey":359},{"deltaTime":48,"channel":1,"type":"channel","subtype":"noteOff","noteNumber":67,"velocity":64,"realTime":12464,"sortKey":360},{"deltaTime":37,"channel":1,"type":"channel","noteNumber":67,"velocity":107,"subtype":"noteOn","realTime":12501,"sortKey":361},{"deltaTime":43,"channel":1,"type":"channel","noteNumber":66,"velocity":107,"subtype":"noteOn","realTime":12544,"sortKey":362},{"deltaTime":5,"channel":1,"type":"channel","subtype":"noteOff","noteNumber":67,"velocity":64,"realTime":12549,"sortKey":363},{"deltaTime":52,"channel":1,"type":"channel","subtype":"noteOff","noteNumber":66,"velocity":64,"realTime":12601,"sortKey":364},{"deltaTime":28,"channel":1,"type":"channel","noteNumber":66,"velocity":107,"subtype":"noteOn","realTime":12629,"sortKey":365},{"deltaTime":36,"channel":1,"type":"channel","subtype":"noteOff","noteNumber":66,"velocity":64,"realTime":12665,"sortKey":366},{"deltaTime":7,"channel":1,"type":"channel","noteNumber":65,"velocity":98,"subtype":"noteOn","realTime":12672,"sortKey":367},{"deltaTime":49,"channel":1,"type":"channel","subtype":"noteOff","noteNumber":65,"velocity":64,"realTime":12721,"sortKey":368},{"deltaTime":36,"channel":1,"type":"channel","noteNumber":65,"velocity":89,"subtype":"noteOn","realTime":12757,"sortKey":369},{"deltaTime":39,"channel":1,"type":"channel","subtype":"noteOff","noteNumber":65,"velocity":64,"realTime":12796,"sortKey":370},{"deltaTime":4,"channel":1,"type":"channel","noteNumber":64,"velocity":89,"subtype":"noteOn","realTime":12800,"sortKey":371},{"deltaTime":52,"channel":1,"type":"channel","subtype":"noteOff","noteNumber":64,"velocity":64,"realTime":12852,"sortKey":372},{"deltaTime":33,"channel":1,"type":"channel","noteNumber":64,"velocity":102,"subtype":"noteOn","realTime":12885,"sortKey":373},{"deltaTime":26,"channel":1,"type":"channel","subtype":"noteOff","noteNumber":64,"velocity":64,"realTime":12911,"sortKey":374},{"deltaTime":17,"channel":1,"type":"channel","noteNumber":64,"velocity":89,"subtype":"noteOn","realTime":12928,"sortKey":375},{"deltaTime":37,"channel":1,"type":"channel","subtype":"noteOff","noteNumber":64,"velocity":64,"realTime":12965,"sortKey":376},{"deltaTime":48,"channel":1,"type":"channel","noteNumber":64,"velocity":113,"subtype":"noteOn","realTime":13013,"sortKey":377},{"deltaTime":26,"channel":1,"type":"channel","subtype":"noteOff","noteNumber":64,"velocity":64,"realTime":13039,"sortKey":378},{"deltaTime":17,"channel":1,"type":"channel","noteNumber":64,"velocity":80,"subtype":"noteOn","realTime":13056,"sortKey":379},{"deltaTime":47,"channel":1,"type":"channel","subtype":"noteOff","noteNumber":64,"velocity":64,"realTime":13103,"sortKey":380},{"deltaTime":38,"channel":1,"type":"channel","noteNumber":64,"velocity":93,"subtype":"noteOn","realTime":13141,"sortKey":381},{"deltaTime":23,"channel":1,"type":"channel","subtype":"noteOff","noteNumber":64,"velocity":64,"realTime":13164,"sortKey":382},{"deltaTime":20,"channel":1,"type":"channel","noteNumber":64,"velocity":98,"subtype":"noteOn","realTime":13184,"sortKey":383},{"deltaTime":37,"channel":1,"type":"channel","subtype":"noteOff","noteNumber":64,"velocity":64,"realTime":13221,"sortKey":384},{"deltaTime":48,"channel":1,"type":"channel","noteNumber":66,"velocity":102,"subtype":"noteOn","realTime":13269,"sortKey":385},{"deltaTime":35,"channel":1,"type":"channel","subtype":"noteOff","noteNumber":66,"velocity":64,"realTime":13304,"sortKey":386},{"deltaTime":0,"type":"meta","subtype":"endOfTrack"}]]}