{"header":{"formatType":1,"trackCount":3,"ticksPerBeat":128},"tracks":[[{"deltaTime":0,"type":"meta","subtype":"timeSignature","numerator":4,"denominator":4,"metronome":24,"thirtyseconds":8,"realTime":0,"sortKey":2},{"deltaTime":0,"type":"meta","subtype":"setTempo","microsecondsPerBeat":705798,"realTime":0,"sortKey":1},{"deltaTime":0,"type":"meta","subtype":"endOfTrack"}],[{"deltaTime":null,"channel":9,"type":"channel","noteNumber":35,"velocity":107,"subtype":"noteOn","realTime":45056,"sortKey":2637},{"deltaTime":0,"channel":9,"type":"channel","noteNumber":49,"velocity":102,"subtype":"noteOn","realTime":45056,"sortKey":2638},{"deltaTime":0,"channel":9,"type":"channel","noteNumber":51,"velocity":127,"subtype":"noteOn","realTime":45056,"sortKey":2639},{"deltaTime":11,"channel":9,"type":"channel","subtype":"noteOff","noteNumber":51,"velocity":64,"realTime":45067,"sortKey":2640},{"deltaTime":2,"channel":9,"type":"channel","subtype":"noteOff","noteNumber":49,"velocity":64,"realTime":45069,"sortKey":2641},{"deltaTime":72,"channel":9,"type":"channel","noteNumber":51,"velocity":68,"subtype":"noteOn","realTime":45141,"sortKey":2642},{"deltaTime":6,"channel":9,"type":"channel","subtype":"noteOff","noteNumber":51,"velocity":64,"realTime":45147,"sortKey":2643},{"deltaTime":39,"channel":9,"type":"channel","noteNumber":38,"velocity":127,"subtype":"noteOn","realTime":45186,"sortKey":2644},{"deltaTime":0,"channel":9,"type":"channel","noteNumber":51,"velocity":127,"subtype":"noteOn","realTime":45186,"sortKey":2645},{"deltaTime":33,"channel":9,"type":"channel","subtype":"noteOff","noteNumber":51,"velocity":64,"realTime":45219,"sortKey":2646},{"deltaTime":10,"channel":9,"type":"channel","subtype":"noteOff","noteNumber":35,"velocity":64,"realTime":45229,"sortKey":2647},{"deltaTime":38,"channel":9,"type":"channel","noteNumber":35,"velocity":50,"subtype":"noteOn","realTime":45267,"sortKey":2648},{"deltaTime":0,"channel":9,"type":"channel","noteNumber":51,"velocity":102,"subtype":"noteOn","realTime":45267,"sortKey":2649},{"deltaTime":13,"channel":9,"type":"channel","subtype":"noteOff","noteNumber":35,"velocity":64,"realTime":45280,"sortKey":2650},{"deltaTime":0,"channel":9,"type":"channel","subtype":"noteOff","noteNumber":51,"velocity":64,"realTime":45280,"sortKey":2651},{"deltaTime":6,"channel":9,"type":"channel","subtype":"noteOff","noteNumber":38,"velocity":64,"realTime":45286,"sortKey":2652},{"deltaTime":26,"channel":9,"type":"channel","noteNumber":35,"velocity":85,"subtype":"noteOn","realTime":45312,"sortKey":2653},{"deltaTime":0,"channel":9,"type":"channel","noteNumber":51,"velocity":113,"subtype":"noteOn","realTime":45312,"sortKey":2654},{"deltaTime":25,"channel":9,"type":"channel","subtype":"noteOff","noteNumber":51,"velocity":64,"realTime":45337,"sortKey":2655},{"deltaTime":60,"channel":9,"type":"channel","noteNumber":51,"velocity":93,"subtype":"noteOn","realTime":45397,"sortKey":2656},{"deltaTime":10,"channel":9,"type":"channel","subtype":"noteOff","noteNumber":51,"velocity":64,"realTime":45407,"sortKey":2657},{"deltaTime":34,"channel":9,"type":"channel","noteNumber":38,"velocity":127,"subtype":"noteOn","realTime":45441,"sortKey":2658},{"deltaTime":0,"channel":9,"type":"channel","noteNumber":51,"velocity":127,"subtype":"noteOn","realTime":45441,"sortKey":2659},{"deltaTime":32,"channel":9,"type":"channel","subtype":"noteOff","noteNumber":51,"velocity":64,"realTime":45473,"sortKey":2660},{"deltaTime":23,"channel":9,"type":"channel","subtype":"noteOff","noteNumber":35,"velocity":64,"realTime":45496,"sortKey":2661},{"deltaTime":25,"channel":9,"type":"channel","subtype":"noteOff","noteNumber":38,"velocity":64,"realTime":45521,"sortKey":2662},{"deltaTime":4,"channel":9,"type":"channel","noteNumber":35,"velocity":72,"subtype":"noteOn","realTime":45525,"sortKey":2663},{"deltaTime":0,"channel":9,"type":"channel","noteNumber":51,"velocity":107,"subtype":"noteOn","realTime":45525,"sortKey":2664},{"deltaTime":15,"channel":9,"type":"channel","subtype":"noteOff","noteNumber":51,"velocity":64,"realTime":45540,"sortKey":2665},{"deltaTime":7,"channel":9,"type":"channel","subtype":"noteOff","noteNumber":35,"velocity":64,"realTime":45547,"sortKey":2666},{"deltaTime":21,"channel":9,"type":"channel","noteNumber":35,"velocity":107,"subtype":"noteOn","realTime":45568,"sortKey":2667},{"deltaTime":0,"channel":9,"type":"channel","noteNumber":46,"velocity":113,"subtype":"noteOn","realTime":45568,"sortKey":2668},{"deltaTime":11,"channel":9,"type":"channel","subtype":"noteOff","noteNumber":46,"velocity":64,"realTime":45579,"sortKey":2669},{"deltaTime":24,"channel":9,"type":"channel","subtype":"noteOff","noteNumber":35,"velocity":64,"realTime":45603,"sortKey":2670},{"deltaTime":50,"channel":9,"type":"channel","noteNumber":35,"velocity":72,"subtype":"noteOn","realTime":45653,"sortKey":2671},{"deltaTime":10,"channel":9,"type":"channel","subtype":"noteOff","noteNumber":35,"velocity":64,"realTime":45663,"sortKey":2672},{"deltaTime":35,"channel":9,"type":"channel","noteNumber":35,"velocity":107,"subtype":"noteOn","realTime":45698,"sortKey":2673},{"deltaTime":0,"channel":9,"type":"channel","noteNumber":38,"velocity":127,"subtype":"noteOn","realTime":45698,"sortKey":2674},{"deltaTime":0,"channel":9,"type":"channel","noteNumber":49,"velocity":113,"subtype":"noteOn","realTime":45698,"sortKey":2675},{"deltaTime":31,"channel":9,"type":"channel","subtype":"noteOff","noteNumber":49,"velocity":64,"realTime":45729,"sortKey":2676},{"deltaTime":12,"channel":9,"type":"channel","subtype":"noteOff","noteNumber":38,"velocity":64,"realTime":45741,"sortKey":2677},{"deltaTime":1,"channel":9,"type":"channel","subtype":"noteOff","noteNumber":35,"velocity":64,"realTime":45742,"sortKey":2678},{"deltaTime":37,"channel":9,"type":"channel","noteNumber":35,"velocity":119,"subtype":"noteOn","realTime":45779,"sortKey":2679},{"deltaTime":0,"channel":9,"type":"channel","noteNumber":38,"velocity":127,"subtype":"noteOn","realTime":45779,"sortKey":2680},{"deltaTime":0,"channel":9,"type":"channel","noteNumber":49,"velocity":127,"subtype":"noteOn","realTime":45779,"sortKey":2681},{"deltaTime":14,"channel":9,"type":"channel","subtype":"noteOff","noteNumber":49,"velocity":64,"realTime":45793,"sortKey":2682},{"deltaTime":92,"channel":9,"type":"channel","subtype":"noteOff","noteNumber":38,"velocity":64,"realTime":45885,"sortKey":2683},{"deltaTime":2,"channel":9,"type":"channel","subtype":"noteOff","noteNumber":35,"velocity":64,"realTime":45887,"sortKey":2684},{"deltaTime":0,"type":"meta","subtype":"endOfTrack"}],[{"deltaTime":null,"channel":1,"type":"channel","noteNumber":69,"velocity":107,"subtype":"noteOn","realTime":45056,"sortKey":1374},{"deltaTime":1,"channel":1,"type":"channel","subtype":"noteOff","noteNumber":76,"velocity":64,"realTime":45057,"sortKey":1375},{"deltaTime":35,"channel":1,"type":"channel","subtype":"noteOff","noteNumber":69,"velocity":64,"realTime":45092,"sortKey":1376},{"deltaTime":49,"channel":1,"type":"channel","noteNumber":69,"velocity":107,"subtype":"noteOn","realTime":45141,"sortKey":1377},{"deltaTime":40,"channel":1,"type":"channel","subtype":"noteOff","noteNumber":69,"velocity":64,"realTime":45181,"sortKey":1378},{"deltaTime":3,"channel":1,"type":"channel","noteNumber":67,"velocity":98,"subtype":"noteOn","realTime":45184,"sortKey":1379},{"deltaTime":51,"channel":1,"type":"channel","subtype":"noteOff","noteNumber":67,"velocity":64,"realTime":45235,"sortKey":1380},{"deltaTime":34,"channel":1,"type":"channel","noteNumber":67,"velocity":98,"subtype":"noteOn","realTime":45269,"sortKey":1381},{"deltaTime":43,"channel":1,"type":"channel","subtype":"noteOff","noteNumber":67,"velocity":64,"realTime":45312,"sortKey":1382},{"deltaTime":0,"channel":1,"type":"channel","noteNumber":66,"velocity":98,"subtype":"noteOn","realTime":45312,"sortKey":1383},{"deltaTime":57,"channel":1,"type":"channel","subtype":"noteOff","noteNumber":66,"velocity":64,"realTime":45369,"sortKey":1384},{"deltaTime":28,"channel":1,"type":"channel","noteNumber":66,"velocity":107,"subtype":"noteOn","realTime":45397,"sortKey":1385},{"deltaTime":42,"channel":1,"type":"channel","subtype":"noteOff","noteNumber":66,"velocity":64,"realTime":45439,"sortKey":1386},{"deltaTime":1,"channel":1,"type":"channel","noteNumber":65,"velocity":80,"subtype":"noteOn","realTime":45440,"sortKey":1387},{"deltaTime":65,"channel":1,"type":"channel","subtype":"noteOff","noteNumber":65,"velocity":64,"realTime":45505,"sortKey":1388},{"deltaTime":20,"channel":1,"type":"channel","noteNumber":65,"velocity":98,"subtype":"noteOn","realTime":45525,"sortKey":1389},{"deltaTime":39,"channel":1,"type":"channel","subtype":"noteOff","noteNumber":65,"velocity":64,"realTime":45564,"sortKey":1390},{"deltaTime":4,"channel":1,"type":"channel","noteNumber":64,"velocity":102,"subtype":"noteOn","realTime":45568,"sortKey":1391},{"deltaTime":43,"channel":1,"type":"channel","subtype":"noteOff","noteNumber":64,"velocity":64,"realTime":45611,"sortKey":1392},{"deltaTime":85,"channel":1,"type":"channel","noteNumber":68,"velocity":127,"subtype":"noteOn","realTime":45696,"sortKey":1393},{"deltaTime":63,"channel":1,"type":"channel","subtype":"noteOff","noteNumber":68,"velocity":64,"realTime":45759,"sortKey":1394},{"deltaTime":22,"channel":1,"type":"channel","noteNumber":69,"velocity":119,"subtype":"noteOn","realTime":45781,"sortKey":1395},{"deltaTime":779,"channel":1,"type":"channel","subtype":"noteOff","noteNumber":69,"velocity":64,"realTime":46560,"sortKey":1396},{"deltaTime":0,"type":"meta","subtype":"endOfTrack"}]]}