{"header":{"formatType":1,"trackCount":3,"ticksPerBeat":128},"tracks":[[{"deltaTime":0,"type":"meta","subtype":"timeSignature","numerator":1,"denominator":4,"metronome":24,"thirtyseconds":8,"realTime":0,"sortKey":2},{"deltaTime":0,"type":"meta","subtype":"setTempo","microsecondsPerBeat":1083345,"realTime":0,"sortKey":1},{"deltaTime":0,"type":"meta","subtype":"endOfTrack"}],[{"deltaTime":null,"channel":9,"type":"channel","noteNumber":35,"velocity":127,"subtype":"noteOn","realTime":2561,"sortKey":230},{"deltaTime":0,"channel":9,"type":"channel","noteNumber":44,"velocity":127,"subtype":"noteOn","realTime":2561,"sortKey":231},{"deltaTime":5,"channel":9,"type":"channel","subtype":"noteOff","noteNumber":35,"velocity":64,"realTime":2566,"sortKey":232},{"deltaTime":0,"channel":9,"type":"channel","subtype":"noteOff","noteNumber":44,"velocity":64,"realTime":2566,"sortKey":233},{"deltaTime":27,"channel":9,"type":"channel","noteNumber":69,"velocity":85,"subtype":"noteOn","realTime":2593,"sortKey":234},{"deltaTime":5,"channel":9,"type":"channel","subtype":"noteOff","noteNumber":69,"velocity":64,"realTime":2598,"sortKey":235},{"deltaTime":27,"channel":9,"type":"channel","noteNumber":38,"velocity":127,"subtype":"noteOn","realTime":2625,"sortKey":236},{"deltaTime":0,"channel":9,"type":"channel","noteNumber":42,"velocity":127,"subtype":"noteOn","realTime":2625,"sortKey":237},{"deltaTime":7,"channel":9,"type":"channel","subtype":"noteOff","noteNumber":38,"velocity":64,"realTime":2632,"sortKey":238},{"deltaTime":0,"channel":9,"type":"channel","subtype":"noteOff","noteNumber":42,"velocity":64,"realTime":2632,"sortKey":239},{"deltaTime":25,"channel":9,"type":"channel","noteNumber":35,"velocity":127,"subtype":"noteOn","realTime":2657,"sortKey":240},{"deltaTime":0,"channel":9,"type":"channel","noteNumber":69,"velocity":85,"subtype":"noteOn","realTime":2657,"sortKey":241},{"deltaTime":7,"channel":9,"type":"channel","subtype":"noteOff","noteNumber":35,"velocity":64,"realTime":2664,"sortKey":242},{"deltaTime":0,"channel":9,"type":"channel","subtype":"noteOff","noteNumber":69,"velocity":64,"realTime":2664,"sortKey":243},{"deltaTime":24,"channel":9,"type":"channel","noteNumber":42,"velocity":127,"subtype":"noteOn","realTime":2688,"sortKey":244},{"deltaTime":5,"channel":9,"type":"channel","subtype":"noteOff","noteNumber":42,"velocity":64,"realTime":2693,"sortKey":245},{"deltaTime":29,"channel":9,"type":"channel","noteNumber":35,"velocity":127,"subtype":"noteOn","realTime":2722,"sortKey":246},{"deltaTime":0,"channel":9,"type":"channel","noteNumber":69,"velocity":85,"subtype":"noteOn","realTime":2722,"sortKey":247},{"deltaTime":4,"channel":9,"type":"channel","subtype":"noteOff","noteNumber":35,"velocity":64,"realTime":2726,"sortKey":248},{"deltaTime":0,"channel":9,"type":"channel","subtype":"noteOff","noteNumber":69,"velocity":64,"realTime":2726,"sortKey":249},{"deltaTime":27,"channel":9,"type":"channel","noteNumber":38,"velocity":127,"subtype":"noteOn","realTime":2753,"sortKey":250},{"deltaTime":0,"channel":9,"type":"channel","noteNumber":42,"velocity":127,"subtype":"noteOn","realTime":2753,"sortKey":251},{"deltaTime":5,"channel":9,"type":"channel","subtype":"noteOff","noteNumber":38,"velocity":64,"realTime":2758,"sortKey":252},{"deltaTime":0,"channel":9,"type":"channel","subtype":"noteOff","noteNumber":42,"velocity":64,"realTime":2758,"sortKey":253},{"deltaTime":27,"channel":9,"type":"channel","noteNumber":69,"velocity":85,"subtype":"noteOn","realTime":2785,"sortKey":254},{"deltaTime":2,"channel":9,"type":"channel","subtype":"noteOff","noteNumber":69,"velocity":64,"realTime":2787,"sortKey":255},{"deltaTime":30,"channel":9,"type":"channel","noteNumber":35,"velocity":127,"subtype":"noteOn","realTime":2817,"sortKey":256},{"deltaTime":0,"channel":9,"type":"channel","noteNumber":42,"velocity":127,"subtype":"noteOn","realTime":2817,"sortKey":257},{"deltaTime":5,"channel":9,"type":"channel","subtype":"noteOff","noteNumber":35,"velocity":64,"realTime":2822,"sortKey":258},{"deltaTime":0,"channel":9,"type":"channel","subtype":"noteOff","noteNumber":42,"velocity":64,"realTime":2822,"sortKey":259},{"deltaTime":27,"channel":9,"type":"channel","noteNumber":69,"velocity":85,"subtype":"noteOn","realTime":2849,"sortKey":260},{"deltaTime":5,"channel":9,"type":"channel","subtype":"noteOff","noteNumber":69,"velocity":64,"realTime":2854,"sortKey":261},{"deltaTime":27,"channel":9,"type":"channel","noteNumber":38,"velocity":127,"subtype":"noteOn","realTime":2881,"sortKey":262},{"deltaTime":0,"channel":9,"type":"channel","noteNumber":42,"velocity":127,"subtype":"noteOn","realTime":2881,"sortKey":263},{"deltaTime":5,"channel":9,"type":"channel","subtype":"noteOff","noteNumber":38,"velocity":64,"realTime":2886,"sortKey":264},{"deltaTime":0,"channel":9,"type":"channel","subtype":"noteOff","noteNumber":42,"velocity":64,"realTime":2886,"sortKey":265},{"deltaTime":27,"channel":9,"type":"channel","noteNumber":35,"velocity":127,"subtype":"noteOn","realTime":2913,"sortKey":266},{"deltaTime":0,"channel":9,"type":"channel","noteNumber":69,"velocity":85,"subtype":"noteOn","realTime":2913,"sortKey":267},{"deltaTime":5,"channel":9,"type":"channel","subtype":"noteOff","noteNumber":35,"velocity":64,"realTime":2918,"sortKey":268},{"deltaTime":0,"channel":9,"type":"channel","subtype":"noteOff","noteNumber":69,"velocity":64,"realTime":2918,"sortKey":269},{"deltaTime":27,"channel":9,"type":"channel","noteNumber":42,"velocity":127,"subtype":"noteOn","realTime":2945,"sortKey":270},{"deltaTime":5,"channel":9,"type":"channel","subtype":"noteOff","noteNumber":42,"velocity":64,"realTime":2950,"sortKey":271},{"deltaTime":27,"channel":9,"type":"channel","noteNumber":35,"velocity":127,"subtype":"noteOn","realTime":2977,"sortKey":272},{"deltaTime":0,"channel":9,"type":"channel","noteNumber":69,"velocity":85,"subtype":"noteOn","realTime":2977,"sortKey":273},{"deltaTime":5,"channel":9,"type":"channel","subtype":"noteOff","noteNumber":35,"velocity":64,"realTime":2982,"sortKey":274},{"deltaTime":0,"channel":9,"type":"channel","subtype":"noteOff","noteNumber":69,"velocity":64,"realTime":2982,"sortKey":275},{"deltaTime":27,"channel":9,"type":"channel","noteNumber":38,"velocity":127,"subtype":"noteOn","realTime":3009,"sortKey":276},{"deltaTime":0,"channel":9,"type":"channel","noteNumber":42,"velocity":127,"subtype":"noteOn","realTime":3009,"sortKey":277},{"deltaTime":7,"channel":9,"type":"channel","subtype":"noteOff","noteNumber":38,"velocity":64,"realTime":3016,"sortKey":278},{"deltaTime":0,"channel":9,"type":"channel","subtype":"noteOff","noteNumber":42,"velocity":64,"realTime":3016,"sortKey":279},{"deltaTime":25,"channel":9,"type":"channel","noteNumber":46,"velocity":80,"subtype":"noteOn","realTime":3041,"sortKey":280},{"deltaTime":0,"channel":9,"type":"channel","noteNumber":69,"velocity":85,"subtype":"noteOn","realTime":3041,"sortKey":281},{"deltaTime":4,"channel":9,"type":"channel","subtype":"noteOff","noteNumber":46,"velocity":64,"realTime":3045,"sortKey":282},{"deltaTime":0,"channel":9,"type":"channel","subtype":"noteOff","noteNumber":69,"velocity":64,"realTime":3045,"sortKey":283},{"deltaTime":29,"channel":9,"type":"channel","noteNumber":35,"velocity":127,"subtype":"noteOn","realTime":3074,"sortKey":284},{"deltaTime":0,"channel":9,"type":"channel","noteNumber":42,"velocity":127,"subtype":"noteOn","realTime":3074,"sortKey":285},{"deltaTime":8,"channel":9,"type":"channel","subtype":"noteOff","noteNumber":35,"velocity":64,"realTime":3082,"sortKey":286},{"deltaTime":0,"channel":9,"type":"channel","subtype":"noteOff","noteNumber":42,"velocity":64,"realTime":3082,"sortKey":287},{"deltaTime":21,"channel":9,"type":"channel","noteNumber":69,"velocity":85,"subtype":"noteOn","realTime":3103,"sortKey":288},{"deltaTime":5,"channel":9,"type":"channel","subtype":"noteOff","noteNumber":69,"velocity":64,"realTime":3108,"sortKey":289},{"deltaTime":29,"channel":9,"type":"channel","noteNumber":38,"velocity":127,"subtype":"noteOn","realTime":3137,"sortKey":290},{"deltaTime":0,"channel":9,"type":"channel","noteNumber":42,"velocity":127,"subtype":"noteOn","realTime":3137,"sortKey":291},{"deltaTime":5,"channel":9,"type":"channel","subtype":"noteOff","noteNumber":38,"velocity":64,"realTime":3142,"sortKey":292},{"deltaTime":0,"channel":9,"type":"channel","subtype":"noteOff","noteNumber":42,"velocity":64,"realTime":3142,"sortKey":293},{"deltaTime":27,"channel":9,"type":"channel","noteNumber":35,"velocity":127,"subtype":"noteOn","realTime":3169,"sortKey":294},{"deltaTime":0,"channel":9,"type":"channel","noteNumber":69,"velocity":85,"subtype":"noteOn","realTime":3169,"sortKey":295},{"deltaTime":5,"channel":9,"type":"channel","subtype":"noteOff","noteNumber":35,"velocity":64,"realTime":3174,"sortKey":296},{"deltaTime":0,"channel":9,"type":"channel","subtype":"noteOff","noteNumber":69,"velocity":64,"realTime":3174,"sortKey":297},{"deltaTime":27,"channel":9,"type":"channel","noteNumber":42,"velocity":127,"subtype":"noteOn","realTime":3201,"sortKey":298},{"deltaTime":5,"channel":9,"type":"channel","subtype":"noteOff","noteNumber":42,"velocity":64,"realTime":3206,"sortKey":299},{"deltaTime":27,"channel":9,"type":"channel","noteNumber":35,"velocity":127,"subtype":"noteOn","realTime":3233,"sortKey":300},{"deltaTime":0,"channel":9,"type":"channel","noteNumber":69,"velocity":85,"subtype":"noteOn","realTime":3233,"sortKey":301},{"deltaTime":2,"channel":9,"type":"channel","subtype":"noteOff","noteNumber":35,"velocity":64,"realTime":3235,"sortKey":302},{"deltaTime":0,"channel":9,"type":"channel","subtype":"noteOff","noteNumber":69,"velocity":64,"realTime":3235,"sortKey":303},{"deltaTime":30,"channel":9,"type":"channel","noteNumber":38,"velocity":127,"subtype":"noteOn","realTime":3265,"sortKey":304},{"deltaTime":0,"channel":9,"type":"channel","noteNumber":42,"velocity":127,"subtype":"noteOn","realTime":3265,"sortKey":305},{"deltaTime":5,"channel":9,"type":"channel","subtype":"noteOff","noteNumber":38,"velocity":64,"realTime":3270,"sortKey":306},{"deltaTime":0,"channel":9,"type":"channel","subtype":"noteOff","noteNumber":42,"velocity":64,"realTime":3270,"sortKey":307},{"deltaTime":27,"channel":9,"type":"channel","noteNumber":69,"velocity":85,"subtype":"noteOn","realTime":3297,"sortKey":308},{"deltaTime":5,"channel":9,"type":"channel","subtype":"noteOff","noteNumber":69,"velocity":64,"realTime":3302,"sortKey":309},{"deltaTime":27,"channel":9,"type":"channel","noteNumber":35,"velocity":127,"subtype":"noteOn","realTime":3329,"sortKey":310},{"deltaTime":0,"channel":9,"type":"channel","noteNumber":42,"velocity":127,"subtype":"noteOn","realTime":3329,"sortKey":311},{"deltaTime":8,"channel":9,"type":"channel","subtype":"noteOff","noteNumber":35,"velocity":64,"realTime":3337,"sortKey":312},{"deltaTime":0,"channel":9,"type":"channel","subtype":"noteOff","noteNumber":42,"velocity":64,"realTime":3337,"sortKey":313},{"deltaTime":24,"channel":9,"type":"channel","noteNumber":69,"velocity":85,"subtype":"noteOn","realTime":3361,"sortKey":314},{"deltaTime":8,"channel":9,"type":"channel","subtype":"noteOff","noteNumber":69,"velocity":64,"realTime":3369,"sortKey":315},{"deltaTime":24,"channel":9,"type":"channel","noteNumber":38,"velocity":127,"subtype":"noteOn","realTime":3393,"sortKey":316},{"deltaTime":0,"channel":9,"type":"channel","noteNumber":42,"velocity":127,"subtype":"noteOn","realTime":3393,"sortKey":317},{"deltaTime":5,"channel":9,"type":"channel","subtype":"noteOff","noteNumber":38,"velocity":64,"realTime":3398,"sortKey":318},{"deltaTime":0,"channel":9,"type":"channel","subtype":"noteOff","noteNumber":42,"velocity":64,"realTime":3398,"sortKey":319},{"deltaTime":27,"channel":9,"type":"channel","noteNumber":35,"velocity":127,"subtype":"noteOn","realTime":3425,"sortKey":320},{"deltaTime":0,"channel":9,"type":"channel","noteNumber":69,"velocity":85,"subtype":"noteOn","realTime":3425,"sortKey":321},{"deltaTime":5,"channel":9,"type":"channel","subtype":"noteOff","noteNumber":35,"velocity":64,"realTime":3430,"sortKey":322},{"deltaTime":0,"channel":9,"type":"channel","subtype":"noteOff","noteNumber":69,"velocity":64,"realTime":3430,"sortKey":323},{"deltaTime":27,"channel":9,"type":"channel","noteNumber":42,"velocity":127,"subtype":"noteOn","realTime":3457,"sortKey":324},{"deltaTime":5,"channel":9,"type":"channel","subtype":"noteOff","noteNumber":42,"velocity":64,"realTime":3462,"sortKey":325},{"deltaTime":27,"channel":9,"type":"channel","noteNumber":35,"velocity":127,"subtype":"noteOn","realTime":3489,"sortKey":326},{"deltaTime":0,"channel":9,"type":"channel","noteNumber":69,"velocity":85,"subtype":"noteOn","realTime":3489,"sortKey":327},{"deltaTime":5,"channel":9,"type":"channel","subtype":"noteOff","noteNumber":35,"velocity":64,"realTime":3494,"sortKey":328},{"deltaTime":0,"channel":9,"type":"channel","subtype":"noteOff","noteNumber":69,"velocity":64,"realTime":3494,"sortKey":329},{"deltaTime":27,"channel":9,"type":"channel","noteNumber":38,"velocity":127,"subtype":"noteOn","realTime":3521,"sortKey":330},{"deltaTime":0,"channel":9,"type":"channel","noteNumber":42,"velocity":127,"subtype":"noteOn","realTime":3521,"sortKey":331},{"deltaTime":7,"channel":9,"type":"channel","subtype":"noteOff","noteNumber":38,"velocity":64,"realTime":3528,"sortKey":332},{"deltaTime":0,"channel":9,"type":"channel","subtype":"noteOff","noteNumber":42,"velocity":64,"realTime":3528,"sortKey":333},{"deltaTime":27,"channel":9,"type":"channel","noteNumber":46,"velocity":80,"subtype":"noteOn","realTime":3555,"sortKey":334},{"deltaTime":0,"channel":9,"type":"channel","noteNumber":69,"velocity":85,"subtype":"noteOn","realTime":3555,"sortKey":335},{"deltaTime":5,"channel":9,"type":"channel","subtype":"noteOff","noteNumber":46,"velocity":64,"realTime":3560,"sortKey":336},{"deltaTime":0,"channel":9,"type":"channel","subtype":"noteOff","noteNumber":69,"velocity":64,"realTime":3560,"sortKey":337},{"deltaTime":24,"channel":9,"type":"channel","noteNumber":35,"velocity":127,"subtype":"noteOn","realTime":3584,"sortKey":338},{"deltaTime":0,"channel":9,"type":"channel","noteNumber":44,"velocity":127,"subtype":"noteOn","realTime":3584,"sortKey":339},{"deltaTime":7,"channel":9,"type":"channel","subtype":"noteOff","noteNumber":35,"velocity":64,"realTime":3591,"sortKey":340},{"deltaTime":0,"channel":9,"type":"channel","subtype":"noteOff","noteNumber":44,"velocity":64,"realTime":3591,"sortKey":341},{"deltaTime":27,"channel":9,"type":"channel","noteNumber":69,"velocity":85,"subtype":"noteOn","realTime":3618,"sortKey":342},{"deltaTime":2,"channel":9,"type":"channel","subtype":"noteOff","noteNumber":69,"velocity":64,"realTime":3620,"sortKey":343},{"deltaTime":29,"channel":9,"type":"channel","noteNumber":38,"velocity":127,"subtype":"noteOn","realTime":3649,"sortKey":344},{"deltaTime":0,"channel":9,"type":"channel","noteNumber":42,"velocity":127,"subtype":"noteOn","realTime":3649,"sortKey":345},{"deltaTime":5,"channel":9,"type":"channel","subtype":"noteOff","noteNumber":38,"velocity":64,"realTime":3654,"sortKey":346},{"deltaTime":3,"channel":9,"type":"channel","subtype":"noteOff","noteNumber":42,"velocity":64,"realTime":3657,"sortKey":347},{"deltaTime":24,"channel":9,"type":"channel","noteNumber":35,"velocity":127,"subtype":"noteOn","realTime":3681,"sortKey":348},{"deltaTime":0,"channel":9,"type":"channel","noteNumber":69,"velocity":85,"subtype":"noteOn","realTime":3681,"sortKey":349},{"deltaTime":5,"channel":9,"type":"channel","subtype":"noteOff","noteNumber":35,"velocity":64,"realTime":3686,"sortKey":350},{"deltaTime":0,"channel":9,"type":"channel","subtype":"noteOff","noteNumber":69,"velocity":64,"realTime":3686,"sortKey":351},{"deltaTime":27,"channel":9,"type":"channel","noteNumber":42,"velocity":127,"subtype":"noteOn","realTime":3713,"sortKey":352},{"deltaTime":5,"channel":9,"type":"channel","subtype":"noteOff","noteNumber":42,"velocity":64,"realTime":3718,"sortKey":353},{"deltaTime":27,"channel":9,"type":"channel","noteNumber":35,"velocity":127,"subtype":"noteOn","realTime":3745,"sortKey":354},{"deltaTime":0,"channel":9,"type":"channel","noteNumber":69,"velocity":85,"subtype":"noteOn","realTime":3745,"sortKey":355},{"deltaTime":5,"channel":9,"type":"channel","subtype":"noteOff","noteNumber":35,"velocity":64,"realTime":3750,"sortKey":356},{"deltaTime":3,"channel":9,"type":"channel","subtype":"noteOff","noteNumber":69,"velocity":64,"realTime":3753,"sortKey":357},{"deltaTime":24,"channel":9,"type":"channel","noteNumber":38,"velocity":127,"subtype":"noteOn","realTime":3777,"sortKey":358},{"deltaTime":0,"channel":9,"type":"channel","noteNumber":42,"velocity":127,"subtype":"noteOn","realTime":3777,"sortKey":359},{"deltaTime":5,"channel":9,"type":"channel","subtype":"noteOff","noteNumber":38,"velocity":64,"realTime":3782,"sortKey":360},{"deltaTime":0,"channel":9,"type":"channel","subtype":"noteOff","noteNumber":42,"velocity":64,"realTime":3782,"sortKey":361},{"deltaTime":27,"channel":9,"type":"channel","noteNumber":69,"velocity":85,"subtype":"noteOn","realTime":3809,"sortKey":362},{"deltaTime":4,"channel":9,"type":"channel","subtype":"noteOff","noteNumber":69,"velocity":64,"realTime":3813,"sortKey":363},{"deltaTime":27,"channel":9,"type":"channel","noteNumber":35,"velocity":127,"subtype":"noteOn","realTime":3840,"sortKey":364},{"deltaTime":0,"channel":9,"type":"channel","noteNumber":42,"velocity":127,"subtype":"noteOn","realTime":3840,"sortKey":365},{"deltaTime":7,"channel":9,"type":"channel","subtype":"noteOff","noteNumber":35,"velocity":64,"realTime":3847,"sortKey":366},{"deltaTime":0,"channel":9,"type":"channel","subtype":"noteOff","noteNumber":42,"velocity":64,"realTime":3847,"sortKey":367},{"deltaTime":24,"channel":9,"type":"channel","noteNumber":69,"velocity":85,"subtype":"noteOn","realTime":3871,"sortKey":368},{"deltaTime":5,"channel":9,"type":"channel","subtype":"noteOff","noteNumber":69,"velocity":64,"realTime":3876,"sortKey":369},{"deltaTime":29,"channel":9,"type":"channel","noteNumber":38,"velocity":127,"subtype":"noteOn","realTime":3905,"sortKey":370},{"deltaTime":0,"channel":9,"type":"channel","noteNumber":42,"velocity":127,"subtype":"noteOn","realTime":3905,"sortKey":371},{"deltaTime":2,"channel":9,"type":"channel","subtype":"noteOff","noteNumber":38,"velocity":64,"realTime":3907,"sortKey":372},{"deltaTime":0,"channel":9,"type":"channel","subtype":"noteOff","noteNumber":42,"velocity":64,"realTime":3907,"sortKey":373},{"deltaTime":28,"channel":9,"type":"channel","noteNumber":35,"velocity":127,"subtype":"noteOn","realTime":3935,"sortKey":374},{"deltaTime":0,"channel":9,"type":"channel","noteNumber":69,"velocity":85,"subtype":"noteOn","realTime":3935,"sortKey":375},{"deltaTime":7,"channel":9,"type":"channel","subtype":"noteOff","noteNumber":35,"velocity":64,"realTime":3942,"sortKey":376},{"deltaTime":0,"channel":9,"type":"channel","subtype":"noteOff","noteNumber":69,"velocity":64,"realTime":3942,"sortKey":377},{"deltaTime":27,"channel":9,"type":"channel","noteNumber":42,"velocity":127,"subtype":"noteOn","realTime":3969,"sortKey":378},{"deltaTime":2,"channel":9,"type":"channel","subtype":"noteOff","noteNumber":42,"velocity":64,"realTime":3971,"sortKey":379},{"deltaTime":30,"channel":9,"type":"channel","noteNumber":35,"velocity":127,"subtype":"noteOn","realTime":4001,"sortKey":380},{"deltaTime":0,"channel":9,"type":"channel","noteNumber":69,"velocity":85,"subtype":"noteOn","realTime":4001,"sortKey":381},{"deltaTime":2,"channel":9,"type":"channel","subtype":"noteOff","noteNumber":35,"velocity":64,"realTime":4003,"sortKey":382},{"deltaTime":0,"channel":9,"type":"channel","subtype":"noteOff","noteNumber":69,"velocity":64,"realTime":4003,"sortKey":383},{"deltaTime":30,"channel":9,"type":"channel","noteNumber":38,"velocity":127,"subtype":"noteOn","realTime":4033,"sortKey":384},{"deltaTime":0,"channel":9,"type":"channel","noteNumber":42,"velocity":127,"subtype":"noteOn","realTime":4033,"sortKey":385},{"deltaTime":5,"channel":9,"type":"channel","subtype":"noteOff","noteNumber":38,"velocity":64,"realTime":4038,"sortKey":386},{"deltaTime":0,"channel":9,"type":"channel","subtype":"noteOff","noteNumber":42,"velocity":64,"realTime":4038,"sortKey":387},{"deltaTime":27,"channel":9,"type":"channel","noteNumber":46,"velocity":80,"subtype":"noteOn","realTime":4065,"sortKey":388},{"deltaTime":0,"channel":9,"type":"channel","noteNumber":69,"velocity":85,"subtype":"noteOn","realTime":4065,"sortKey":389},{"deltaTime":5,"channel":9,"type":"channel","subtype":"noteOff","noteNumber":46,"velocity":64,"realTime":4070,"sortKey":390},{"deltaTime":0,"channel":9,"type":"channel","subtype":"noteOff","noteNumber":69,"velocity":64,"realTime":4070,"sortKey":391},{"deltaTime":27,"channel":9,"type":"channel","noteNumber":35,"velocity":127,"subtype":"noteOn","realTime":4097,"sortKey":392},{"deltaTime":0,"channel":9,"type":"channel","noteNumber":42,"velocity":127,"subtype":"noteOn","realTime":4097,"sortKey":393},{"deltaTime":8,"channel":9,"type":"channel","subtype":"noteOff","noteNumber":35,"velocity":64,"realTime":4105,"sortKey":394},{"deltaTime":0,"channel":9,"type":"channel","subtype":"noteOff","noteNumber":42,"velocity":64,"realTime":4105,"sortKey":395},{"deltaTime":24,"channel":9,"type":"channel","noteNumber":69,"velocity":85,"subtype":"noteOn","realTime":4129,"sortKey":396},{"deltaTime":5,"channel":9,"type":"channel","subtype":"noteOff","noteNumber":69,"velocity":64,"realTime":4134,"sortKey":397},{"deltaTime":27,"channel":9,"type":"channel","noteNumber":38,"velocity":127,"subtype":"noteOn","realTime":4161,"sortKey":398},{"deltaTime":0,"channel":9,"type":"channel","noteNumber":42,"velocity":127,"subtype":"noteOn","realTime":4161,"sortKey":399},{"deltaTime":8,"channel":9,"type":"channel","subtype":"noteOff","noteNumber":38,"velocity":64,"realTime":4169,"sortKey":400},{"deltaTime":0,"channel":9,"type":"channel","subtype":"noteOff","noteNumber":42,"velocity":64,"realTime":4169,"sortKey":401},{"deltaTime":24,"channel":9,"type":"channel","noteNumber":35,"velocity":127,"subtype":"noteOn","realTime":4193,"sortKey":402},{"deltaTime":0,"channel":9,"type":"channel","noteNumber":69,"velocity":85,"subtype":"noteOn","realTime":4193,"sortKey":403},{"deltaTime":8,"channel":9,"type":"channel","subtype":"noteOff","noteNumber":35,"velocity":64,"realTime":4201,"sortKey":404},{"deltaTime":0,"channel":9,"type":"channel","subtype":"noteOff","noteNumber":69,"velocity":64,"realTime":4201,"sortKey":405},{"deltaTime":24,"channel":9,"type":"channel","noteNumber":42,"velocity":127,"subtype":"noteOn","realTime":4225,"sortKey":406},{"deltaTime":5,"channel":9,"type":"channel","subtype":"noteOff","noteNumber":42,"velocity":64,"realTime":4230,"sortKey":407},{"deltaTime":27,"channel":9,"type":"channel","noteNumber":35,"velocity":127,"subtype":"noteOn","realTime":4257,"sortKey":408},{"deltaTime":0,"channel":9,"type":"channel","noteNumber":69,"velocity":85,"subtype":"noteOn","realTime":4257,"sortKey":409},{"deltaTime":5,"channel":9,"type":"channel","subtype":"noteOff","noteNumber":35,"velocity":64,"realTime":4262,"sortKey":410},{"deltaTime":0,"channel":9,"type":"channel","subtype":"noteOff","noteNumber":69,"velocity":64,"realTime":4262,"sortKey":411},{"deltaTime":27,"channel":9,"type":"channel","noteNumber":38,"velocity":127,"subtype":"noteOn","realTime":4289,"sortKey":412},{"deltaTime":0,"channel":9,"type":"channel","noteNumber":42,"velocity":127,"subtype":"noteOn","realTime":4289,"sortKey":413},{"deltaTime":7,"channel":9,"type":"channel","subtype":"noteOff","noteNumber":38,"velocity":64,"realTime":4296,"sortKey":414},{"deltaTime":0,"channel":9,"type":"channel","subtype":"noteOff","noteNumber":42,"velocity":64,"realTime":4296,"sortKey":415},{"deltaTime":25,"channel":9,"type":"channel","noteNumber":69,"velocity":85,"subtype":"noteOn","realTime":4321,"sortKey":416},{"deltaTime":4,"channel":9,"type":"channel","subtype":"noteOff","noteNumber":69,"velocity":64,"realTime":4325,"sortKey":417},{"deltaTime":27,"channel":9,"type":"channel","noteNumber":35,"velocity":127,"subtype":"noteOn","realTime":4352,"sortKey":418},{"deltaTime":2,"channel":9,"type":"channel","noteNumber":42,"velocity":127,"subtype":"noteOn","realTime":4354,"sortKey":419},{"deltaTime":5,"channel":9,"type":"channel","subtype":"noteOff","noteNumber":42,"velocity":64,"realTime":4359,"sortKey":420},{"deltaTime":0,"channel":9,"type":"channel","subtype":"noteOff","noteNumber":35,"velocity":64,"realTime":4359,"sortKey":421},{"deltaTime":27,"channel":9,"type":"channel","noteNumber":69,"velocity":85,"subtype":"noteOn","realTime":4386,"sortKey":422},{"deltaTime":4,"channel":9,"type":"channel","subtype":"noteOff","noteNumber":69,"velocity":64,"realTime":4390,"sortKey":423},{"deltaTime":27,"channel":9,"type":"channel","noteNumber":38,"velocity":127,"subtype":"noteOn","realTime":4417,"sortKey":424},{"deltaTime":0,"channel":9,"type":"channel","noteNumber":42,"velocity":127,"subtype":"noteOn","realTime":4417,"sortKey":425},{"deltaTime":5,"channel":9,"type":"channel","subtype":"noteOff","noteNumber":38,"velocity":64,"realTime":4422,"sortKey":426},{"deltaTime":0,"channel":9,"type":"channel","subtype":"noteOff","noteNumber":42,"velocity":64,"realTime":4422,"sortKey":427},{"deltaTime":27,"channel":9,"type":"channel","noteNumber":35,"velocity":127,"subtype":"noteOn","realTime":4449,"sortKey":428},{"deltaTime":0,"channel":9,"type":"channel","noteNumber":69,"velocity":85,"subtype":"noteOn","realTime":4449,"sortKey":429},{"deltaTime":5,"channel":9,"type":"channel","subtype":"noteOff","noteNumber":35,"velocity":64,"realTime":4454,"sortKey":430},{"deltaTime":0,"channel":9,"type":"channel","subtype":"noteOff","noteNumber":69,"velocity":64,"realTime":4454,"sortKey":431},{"deltaTime":27,"channel":9,"type":"channel","noteNumber":42,"velocity":127,"subtype":"noteOn","realTime":4481,"sortKey":432},{"deltaTime":5,"channel":9,"type":"channel","subtype":"noteOff","noteNumber":42,"velocity":64,"realTime":4486,"sortKey":433},{"deltaTime":27,"channel":9,"type":"channel","noteNumber":35,"velocity":127,"subtype":"noteOn","realTime":4513,"sortKey":434},{"deltaTime":0,"channel":9,"type":"channel","noteNumber":69,"velocity":85,"subtype":"noteOn","realTime":4513,"sortKey":435},{"deltaTime":2,"channel":9,"type":"channel","subtype":"noteOff","noteNumber":35,"velocity":64,"realTime":4515,"sortKey":436},{"deltaTime":0,"channel":9,"type":"channel","subtype":"noteOff","noteNumber":69,"velocity":64,"realTime":4515,"sortKey":437},{"deltaTime":30,"channel":9,"type":"channel","noteNumber":38,"velocity":127,"subtype":"noteOn","realTime":4545,"sortKey":438},{"deltaTime":0,"channel":9,"type":"channel","noteNumber":42,"velocity":127,"subtype":"noteOn","realTime":4545,"sortKey":439},{"deltaTime":5,"channel":9,"type":"channel","subtype":"noteOff","noteNumber":38,"velocity":64,"realTime":4550,"sortKey":440},{"deltaTime":0,"channel":9,"type":"channel","subtype":"noteOff","noteNumber":42,"velocity":64,"realTime":4550,"sortKey":441},{"deltaTime":27,"channel":9,"type":"channel","noteNumber":46,"velocity":80,"subtype":"noteOn","realTime":4577,"sortKey":442},{"deltaTime":0,"channel":9,"type":"channel","noteNumber":69,"velocity":85,"subtype":"noteOn","realTime":4577,"sortKey":443},{"deltaTime":5,"channel":9,"type":"channel","subtype":"noteOff","noteNumber":46,"velocity":64,"realTime":4582,"sortKey":444},{"deltaTime":0,"channel":9,"type":"channel","subtype":"noteOff","noteNumber":69,"velocity":64,"realTime":4582,"sortKey":445},{"deltaTime":27,"channel":9,"type":"channel","noteNumber":35,"velocity":127,"subtype":"noteOn","realTime":4609,"sortKey":446},{"deltaTime":0,"channel":9,"type":"channel","noteNumber":49,"velocity":127,"subtype":"noteOn","realTime":4609,"sortKey":447},{"deltaTime":0,"channel":9,"type":"channel","noteNumber":70,"velocity":127,"subtype":"noteOn","realTime":4609,"sortKey":448},{"deltaTime":2,"channel":9,"type":"channel","subtype":"noteOff","noteNumber":35,"velocity":64,"realTime":4611,"sortKey":449},{"deltaTime":3,"channel":9,"type":"channel","subtype":"noteOff","noteNumber":49,"velocity":64,"realTime":4614,"sortKey":450},{"deltaTime":0,"channel":9,"type":"channel","subtype":"noteOff","noteNumber":70,"velocity":64,"realTime":4614,"sortKey":451},{"deltaTime":27,"channel":9,"type":"channel","noteNumber":69,"velocity":85,"subtype":"noteOn","realTime":4641,"sortKey":452},{"deltaTime":5,"channel":9,"type":"channel","subtype":"noteOff","noteNumber":69,"velocity":64,"realTime":4646,"sortKey":453},{"deltaTime":27,"channel":9,"type":"channel","noteNumber":38,"velocity":127,"subtype":"noteOn","realTime":4673,"sortKey":454},{"deltaTime":0,"channel":9,"type":"channel","noteNumber":42,"velocity":127,"subtype":"noteOn","realTime":4673,"sortKey":455},{"deltaTime":5,"channel":9,"type":"channel","subtype":"noteOff","noteNumber":38,"velocity":64,"realTime":4678,"sortKey":456},{"deltaTime":0,"channel":9,"type":"channel","subtype":"noteOff","noteNumber":42,"velocity":64,"realTime":4678,"sortKey":457},{"deltaTime":27,"channel":9,"type":"channel","noteNumber":35,"velocity":127,"subtype":"noteOn","realTime":4705,"sortKey":458},{"deltaTime":0,"channel":9,"type":"channel","noteNumber":69,"velocity":85,"subtype":"noteOn","realTime":4705,"sortKey":459},{"deltaTime":7,"channel":9,"type":"channel","subtype":"noteOff","noteNumber":35,"velocity":64,"realTime":4712,"sortKey":460},{"deltaTime":0,"channel":9,"type":"channel","subtype":"noteOff","noteNumber":69,"velocity":64,"realTime":4712,"sortKey":461},{"deltaTime":25,"channel":9,"type":"channel","noteNumber":42,"velocity":127,"subtype":"noteOn","realTime":4737,"sortKey":462},{"deltaTime":7,"channel":9,"type":"channel","subtype":"noteOff","noteNumber":42,"velocity":64,"realTime":4744,"sortKey":463},{"deltaTime":27,"channel":9,"type":"channel","noteNumber":35,"velocity":127,"subtype":"noteOn","realTime":4771,"sortKey":464},{"deltaTime":0,"channel":9,"type":"channel","noteNumber":69,"velocity":85,"subtype":"noteOn","realTime":4771,"sortKey":465},{"deltaTime":2,"channel":9,"type":"channel","subtype":"noteOff","noteNumber":35,"velocity":64,"realTime":4773,"sortKey":466},{"deltaTime":0,"channel":9,"type":"channel","subtype":"noteOff","noteNumber":69,"velocity":64,"realTime":4773,"sortKey":467},{"deltaTime":27,"channel":9,"type":"channel","noteNumber":38,"velocity":127,"subtype":"noteOn","realTime":4800,"sortKey":468},{"deltaTime":2,"channel":9,"type":"channel","noteNumber":42,"velocity":127,"subtype":"noteOn","realTime":4802,"sortKey":469},{"deltaTime":5,"channel":9,"type":"channel","subtype":"noteOff","noteNumber":38,"velocity":64,"realTime":4807,"sortKey":470},{"deltaTime":0,"channel":9,"type":"channel","subtype":"noteOff","noteNumber":42,"velocity":64,"realTime":4807,"sortKey":471},{"deltaTime":27,"channel":9,"type":"channel","noteNumber":69,"velocity":85,"subtype":"noteOn","realTime":4834,"sortKey":472},{"deltaTime":3,"channel":9,"type":"channel","subtype":"noteOff","noteNumber":69,"velocity":64,"realTime":4837,"sortKey":473},{"deltaTime":29,"channel":9,"type":"channel","noteNumber":35,"velocity":127,"subtype":"noteOn","realTime":4866,"sortKey":474},{"deltaTime":0,"channel":9,"type":"channel","noteNumber":42,"velocity":127,"subtype":"noteOn","realTime":4866,"sortKey":475},{"deltaTime":5,"channel":9,"type":"channel","subtype":"noteOff","noteNumber":35,"velocity":64,"realTime":4871,"sortKey":476},{"deltaTime":2,"channel":9,"type":"channel","subtype":"noteOff","noteNumber":42,"velocity":64,"realTime":4873,"sortKey":477},{"deltaTime":24,"channel":9,"type":"channel","noteNumber":69,"velocity":85,"subtype":"noteOn","realTime":4897,"sortKey":478},{"deltaTime":3,"channel":9,"type":"channel","subtype":"noteOff","noteNumber":69,"velocity":64,"realTime":4900,"sortKey":479},{"deltaTime":29,"channel":9,"type":"channel","noteNumber":38,"velocity":127,"subtype":"noteOn","realTime":4929,"sortKey":480},{"deltaTime":0,"channel":9,"type":"channel","noteNumber":42,"velocity":127,"subtype":"noteOn","realTime":4929,"sortKey":481},{"deltaTime":5,"channel":9,"type":"channel","subtype":"noteOff","noteNumber":38,"velocity":64,"realTime":4934,"sortKey":482},{"deltaTime":0,"channel":9,"type":"channel","subtype":"noteOff","noteNumber":42,"velocity":64,"realTime":4934,"sortKey":483},{"deltaTime":27,"channel":9,"type":"channel","noteNumber":35,"velocity":127,"subtype":"noteOn","realTime":4961,"sortKey":484},{"deltaTime":0,"channel":9,"type":"channel","noteNumber":69,"velocity":85,"subtype":"noteOn","realTime":4961,"sortKey":485},{"deltaTime":5,"channel":9,"type":"channel","subtype":"noteOff","noteNumber":35,"velocity":64,"realTime":4966,"sortKey":486},{"deltaTime":0,"channel":9,"type":"channel","subtype":"noteOff","noteNumber":69,"velocity":64,"realTime":4966,"sortKey":487},{"deltaTime":27,"channel":9,"type":"channel","noteNumber":42,"velocity":127,"subtype":"noteOn","realTime":4993,"sortKey":488},{"deltaTime":5,"channel":9,"type":"channel","subtype":"noteOff","noteNumber":42,"velocity":64,"realTime":4998,"sortKey":489},{"deltaTime":27,"channel":9,"type":"channel","noteNumber":35,"velocity":127,"subtype":"noteOn","realTime":5025,"sortKey":490},{"deltaTime":0,"channel":9,"type":"channel","noteNumber":69,"velocity":85,"subtype":"noteOn","realTime":5025,"sortKey":491},{"deltaTime":5,"channel":9,"type":"channel","subtype":"noteOff","noteNumber":35,"velocity":64,"realTime":5030,"sortKey":492},{"deltaTime":0,"channel":9,"type":"channel","subtype":"noteOff","noteNumber":69,"velocity":64,"realTime":5030,"sortKey":493},{"deltaTime":27,"channel":9,"type":"channel","noteNumber":38,"velocity":127,"subtype":"noteOn","realTime":5057,"sortKey":494},{"deltaTime":0,"channel":9,"type":"channel","noteNumber":42,"velocity":127,"subtype":"noteOn","realTime":5057,"sortKey":495},{"deltaTime":5,"channel":9,"type":"channel","subtype":"noteOff","noteNumber":38,"velocity":64,"realTime":5062,"sortKey":496},{"deltaTime":0,"channel":9,"type":"channel","subtype":"noteOff","noteNumber":42,"velocity":64,"realTime":5062,"sortKey":497},{"deltaTime":27,"channel":9,"type":"channel","noteNumber":46,"velocity":80,"subtype":"noteOn","realTime":5089,"sortKey":498},{"deltaTime":0,"channel":9,"type":"channel","noteNumber":69,"velocity":85,"subtype":"noteOn","realTime":5089,"sortKey":499},{"deltaTime":4,"channel":9,"type":"channel","subtype":"noteOff","noteNumber":46,"velocity":64,"realTime":5093,"sortKey":500},{"deltaTime":0,"channel":9,"type":"channel","subtype":"noteOff","noteNumber":69,"velocity":64,"realTime":5093,"sortKey":501},{"deltaTime":27,"channel":9,"type":"channel","noteNumber":70,"velocity":127,"subtype":"noteOn","realTime":5120,"sortKey":502},{"deltaTime":2,"channel":9,"type":"channel","noteNumber":35,"velocity":127,"subtype":"noteOn","realTime":5122,"sortKey":503},{"deltaTime":0,"channel":9,"type":"channel","noteNumber":42,"velocity":127,"subtype":"noteOn","realTime":5122,"sortKey":504},{"deltaTime":5,"channel":9,"type":"channel","subtype":"noteOff","noteNumber":70,"velocity":64,"realTime":5127,"sortKey":505},{"deltaTime":0,"channel":9,"type":"channel","subtype":"noteOff","noteNumber":35,"velocity":64,"realTime":5127,"sortKey":506},{"deltaTime":0,"channel":9,"type":"channel","subtype":"noteOff","noteNumber":42,"velocity":64,"realTime":5127,"sortKey":507},{"deltaTime":24,"channel":9,"type":"channel","noteNumber":69,"velocity":85,"subtype":"noteOn","realTime":5151,"sortKey":508},{"deltaTime":7,"channel":9,"type":"channel","subtype":"noteOff","noteNumber":69,"velocity":64,"realTime":5158,"sortKey":509},{"deltaTime":27,"channel":9,"type":"channel","noteNumber":38,"velocity":127,"subtype":"noteOn","realTime":5185,"sortKey":510},{"deltaTime":0,"channel":9,"type":"channel","noteNumber":42,"velocity":127,"subtype":"noteOn","realTime":5185,"sortKey":511},{"deltaTime":2,"channel":9,"type":"channel","subtype":"noteOff","noteNumber":38,"velocity":64,"realTime":5187,"sortKey":512},{"deltaTime":0,"channel":9,"type":"channel","subtype":"noteOff","noteNumber":42,"velocity":64,"realTime":5187,"sortKey":513},{"deltaTime":30,"channel":9,"type":"channel","noteNumber":35,"velocity":127,"subtype":"noteOn","realTime":5217,"sortKey":514},{"deltaTime":0,"channel":9,"type":"channel","noteNumber":69,"velocity":85,"subtype":"noteOn","realTime":5217,"sortKey":515},{"deltaTime":5,"channel":9,"type":"channel","subtype":"noteOff","noteNumber":35,"velocity":64,"realTime":5222,"sortKey":516},{"deltaTime":0,"channel":9,"type":"channel","subtype":"noteOff","noteNumber":69,"velocity":64,"realTime":5222,"sortKey":517},{"deltaTime":27,"channel":9,"type":"channel","noteNumber":42,"velocity":127,"subtype":"noteOn","realTime":5249,"sortKey":518},{"deltaTime":2,"channel":9,"type":"channel","subtype":"noteOff","noteNumber":42,"velocity":64,"realTime":5251,"sortKey":519},{"deltaTime":28,"channel":9,"type":"channel","noteNumber":35,"velocity":127,"subtype":"noteOn","realTime":5279,"sortKey":520},{"deltaTime":0,"channel":9,"type":"channel","noteNumber":69,"velocity":85,"subtype":"noteOn","realTime":5279,"sortKey":521},{"deltaTime":7,"channel":9,"type":"channel","subtype":"noteOff","noteNumber":35,"velocity":64,"realTime":5286,"sortKey":522},{"deltaTime":0,"channel":9,"type":"channel","subtype":"noteOff","noteNumber":69,"velocity":64,"realTime":5286,"sortKey":523},{"deltaTime":27,"channel":9,"type":"channel","noteNumber":38,"velocity":127,"subtype":"noteOn","realTime":5313,"sortKey":524},{"deltaTime":0,"channel":9,"type":"channel","noteNumber":42,"velocity":127,"subtype":"noteOn","realTime":5313,"sortKey":525},{"deltaTime":5,"channel":9,"type":"channel","subtype":"noteOff","noteNumber":38,"velocity":64,"realTime":5318,"sortKey":526},{"deltaTime":0,"channel":9,"type":"channel","subtype":"noteOff","noteNumber":42,"velocity":64,"realTime":5318,"sortKey":527},{"deltaTime":27,"channel":9,"type":"channel","noteNumber":69,"velocity":85,"subtype":"noteOn","realTime":5345,"sortKey":528},{"deltaTime":2,"channel":9,"type":"channel","subtype":"noteOff","noteNumber":69,"velocity":64,"realTime":5347,"sortKey":529},{"deltaTime":30,"channel":9,"type":"channel","noteNumber":35,"velocity":127,"subtype":"noteOn","realTime":5377,"sortKey":530},{"deltaTime":0,"channel":9,"type":"channel","noteNumber":42,"velocity":127,"subtype":"noteOn","realTime":5377,"sortKey":531},{"deltaTime":5,"channel":9,"type":"channel","subtype":"noteOff","noteNumber":35,"velocity":64,"realTime":5382,"sortKey":532},{"deltaTime":0,"channel":9,"type":"channel","subtype":"noteOff","noteNumber":42,"velocity":64,"realTime":5382,"sortKey":533},{"deltaTime":27,"channel":9,"type":"channel","noteNumber":69,"velocity":85,"subtype":"noteOn","realTime":5409,"sortKey":534},{"deltaTime":5,"channel":9,"type":"channel","subtype":"noteOff","noteNumber":69,"velocity":64,"realTime":5414,"sortKey":535},{"deltaTime":27,"channel":9,"type":"channel","noteNumber":38,"velocity":127,"subtype":"noteOn","realTime":5441,"sortKey":536},{"deltaTime":0,"channel":9,"type":"channel","noteNumber":42,"velocity":127,"subtype":"noteOn","realTime":5441,"sortKey":537},{"deltaTime":8,"channel":9,"type":"channel","subtype":"noteOff","noteNumber":38,"velocity":64,"realTime":5449,"sortKey":538},{"deltaTime":0,"channel":9,"type":"channel","subtype":"noteOff","noteNumber":42,"velocity":64,"realTime":5449,"sortKey":539},{"deltaTime":24,"channel":9,"type":"channel","noteNumber":35,"velocity":127,"subtype":"noteOn","realTime":5473,"sortKey":540},{"deltaTime":0,"channel":9,"type":"channel","noteNumber":69,"velocity":85,"subtype":"noteOn","realTime":5473,"sortKey":541},{"deltaTime":5,"channel":9,"type":"channel","subtype":"noteOff","noteNumber":35,"velocity":64,"realTime":5478,"sortKey":542},{"deltaTime":0,"channel":9,"type":"channel","subtype":"noteOff","noteNumber":69,"velocity":64,"realTime":5478,"sortKey":543},{"deltaTime":27,"channel":9,"type":"channel","noteNumber":42,"velocity":127,"subtype":"noteOn","realTime":5505,"sortKey":544},{"deltaTime":5,"channel":9,"type":"channel","subtype":"noteOff","noteNumber":42,"velocity":64,"realTime":5510,"sortKey":545},{"deltaTime":27,"channel":9,"type":"channel","noteNumber":35,"velocity":127,"subtype":"noteOn","realTime":5537,"sortKey":546},{"deltaTime":0,"channel":9,"type":"channel","noteNumber":69,"velocity":85,"subtype":"noteOn","realTime":5537,"sortKey":547},{"deltaTime":8,"channel":9,"type":"channel","subtype":"noteOff","noteNumber":35,"velocity":64,"realTime":5545,"sortKey":548},{"deltaTime":0,"channel":9,"type":"channel","subtype":"noteOff","noteNumber":69,"velocity":64,"realTime":5545,"sortKey":549},{"deltaTime":24,"channel":9,"type":"channel","noteNumber":38,"velocity":127,"subtype":"noteOn","realTime":5569,"sortKey":550},{"deltaTime":0,"channel":9,"type":"channel","noteNumber":42,"velocity":127,"subtype":"noteOn","realTime":5569,"sortKey":551},{"deltaTime":5,"channel":9,"type":"channel","subtype":"noteOff","noteNumber":38,"velocity":64,"realTime":5574,"sortKey":552},{"deltaTime":0,"channel":9,"type":"channel","subtype":"noteOff","noteNumber":42,"velocity":64,"realTime":5574,"sortKey":553},{"deltaTime":29,"channel":9,"type":"channel","noteNumber":46,"velocity":80,"subtype":"noteOn","realTime":5603,"sortKey":554},{"deltaTime":0,"channel":9,"type":"channel","noteNumber":69,"velocity":85,"subtype":"noteOn","realTime":5603,"sortKey":555},{"deltaTime":2,"channel":9,"type":"channel","subtype":"noteOff","noteNumber":46,"velocity":64,"realTime":5605,"sortKey":556},{"deltaTime":0,"channel":9,"type":"channel","subtype":"noteOff","noteNumber":69,"velocity":64,"realTime":5605,"sortKey":557},{"deltaTime":29,"channel":9,"type":"channel","noteNumber":35,"velocity":127,"subtype":"noteOn","realTime":5634,"sortKey":558},{"deltaTime":0,"channel":9,"type":"channel","noteNumber":42,"velocity":127,"subtype":"noteOn","realTime":5634,"sortKey":559},{"deltaTime":5,"channel":9,"type":"channel","subtype":"noteOff","noteNumber":35,"velocity":64,"realTime":5639,"sortKey":560},{"deltaTime":0,"channel":9,"type":"channel","subtype":"noteOff","noteNumber":42,"velocity":64,"realTime":5639,"sortKey":561},{"deltaTime":27,"channel":9,"type":"channel","noteNumber":69,"velocity":85,"subtype":"noteOn","realTime":5666,"sortKey":562},{"deltaTime":4,"channel":9,"type":"channel","subtype":"noteOff","noteNumber":69,"velocity":64,"realTime":5670,"sortKey":563},{"deltaTime":27,"channel":9,"type":"channel","noteNumber":38,"velocity":127,"subtype":"noteOn","realTime":5697,"sortKey":564},{"deltaTime":0,"channel":9,"type":"channel","noteNumber":42,"velocity":127,"subtype":"noteOn","realTime":5697,"sortKey":565},{"deltaTime":2,"channel":9,"type":"channel","subtype":"noteOff","noteNumber":38,"velocity":64,"realTime":5699,"sortKey":566},{"deltaTime":0,"channel":9,"type":"channel","subtype":"noteOff","noteNumber":42,"velocity":64,"realTime":5699,"sortKey":567},{"deltaTime":30,"channel":9,"type":"channel","noteNumber":35,"velocity":127,"subtype":"noteOn","realTime":5729,"sortKey":568},{"deltaTime":0,"channel":9,"type":"channel","noteNumber":69,"velocity":85,"subtype":"noteOn","realTime":5729,"sortKey":569},{"deltaTime":5,"channel":9,"type":"channel","subtype":"noteOff","noteNumber":35,"velocity":64,"realTime":5734,"sortKey":570},{"deltaTime":0,"channel":9,"type":"channel","subtype":"noteOff","noteNumber":69,"velocity":64,"realTime":5734,"sortKey":571},{"deltaTime":27,"channel":9,"type":"channel","noteNumber":42,"velocity":127,"subtype":"noteOn","realTime":5761,"sortKey":572},{"deltaTime":5,"channel":9,"type":"channel","subtype":"noteOff","noteNumber":42,"velocity":64,"realTime":5766,"sortKey":573},{"deltaTime":27,"channel":9,"type":"channel","noteNumber":35,"velocity":127,"subtype":"noteOn","realTime":5793,"sortKey":574},{"deltaTime":0,"channel":9,"type":"channel","noteNumber":69,"velocity":85,"subtype":"noteOn","realTime":5793,"sortKey":575},{"deltaTime":8,"channel":9,"type":"channel","subtype":"noteOff","noteNumber":35,"velocity":64,"realTime":5801,"sortKey":576},{"deltaTime":0,"channel":9,"type":"channel","subtype":"noteOff","noteNumber":69,"velocity":64,"realTime":5801,"sortKey":577},{"deltaTime":24,"channel":9,"type":"channel","noteNumber":38,"velocity":127,"subtype":"noteOn","realTime":5825,"sortKey":578},{"deltaTime":0,"channel":9,"type":"channel","noteNumber":42,"velocity":127,"subtype":"noteOn","realTime":5825,"sortKey":579},{"deltaTime":5,"channel":9,"type":"channel","subtype":"noteOff","noteNumber":38,"velocity":64,"realTime":5830,"sortKey":580},{"deltaTime":0,"channel":9,"type":"channel","subtype":"noteOff","noteNumber":42,"velocity":64,"realTime":5830,"sortKey":581},{"deltaTime":27,"channel":9,"type":"channel","noteNumber":69,"velocity":85,"subtype":"noteOn","realTime":5857,"sortKey":582},{"deltaTime":2,"channel":9,"type":"channel","subtype":"noteOff","noteNumber":69,"velocity":64,"realTime":5859,"sortKey":583},{"deltaTime":30,"channel":9,"type":"channel","noteNumber":35,"velocity":127,"subtype":"noteOn","realTime":5889,"sortKey":584},{"deltaTime":0,"channel":9,"type":"channel","noteNumber":42,"velocity":127,"subtype":"noteOn","realTime":5889,"sortKey":585},{"deltaTime":8,"channel":9,"type":"channel","subtype":"noteOff","noteNumber":35,"velocity":64,"realTime":5897,"sortKey":586},{"deltaTime":0,"channel":9,"type":"channel","subtype":"noteOff","noteNumber":42,"velocity":64,"realTime":5897,"sortKey":587},{"deltaTime":24,"channel":9,"type":"channel","noteNumber":69,"velocity":85,"subtype":"noteOn","realTime":5921,"sortKey":588},{"deltaTime":5,"channel":9,"type":"channel","subtype":"noteOff","noteNumber":69,"velocity":64,"realTime":5926,"sortKey":589},{"deltaTime":27,"channel":9,"type":"channel","noteNumber":38,"velocity":127,"subtype":"noteOn","realTime":5953,"sortKey":590},{"deltaTime":0,"channel":9,"type":"channel","noteNumber":42,"velocity":127,"subtype":"noteOn","realTime":5953,"sortKey":591},{"deltaTime":7,"channel":9,"type":"channel","subtype":"noteOff","noteNumber":38,"velocity":64,"realTime":5960,"sortKey":592},{"deltaTime":0,"channel":9,"type":"channel","subtype":"noteOff","noteNumber":42,"velocity":64,"realTime":5960,"sortKey":593},{"deltaTime":25,"channel":9,"type":"channel","noteNumber":35,"velocity":127,"subtype":"noteOn","realTime":5985,"sortKey":594},{"deltaTime":0,"channel":9,"type":"channel","noteNumber":69,"velocity":85,"subtype":"noteOn","realTime":5985,"sortKey":595},{"deltaTime":7,"channel":9,"type":"channel","subtype":"noteOff","noteNumber":35,"velocity":64,"realTime":5992,"sortKey":596},{"deltaTime":0,"channel":9,"type":"channel","subtype":"noteOff","noteNumber":69,"velocity":64,"realTime":5992,"sortKey":597},{"deltaTime":24,"channel":9,"type":"channel","noteNumber":42,"velocity":127,"subtype":"noteOn","realTime":6016,"sortKey":598},{"deltaTime":5,"channel":9,"type":"channel","subtype":"noteOff","noteNumber":42,"velocity":64,"realTime":6021,"sortKey":599},{"deltaTime":29,"channel":9,"type":"channel","noteNumber":35,"velocity":127,"subtype":"noteOn","realTime":6050,"sortKey":600},{"deltaTime":0,"channel":9,"type":"channel","noteNumber":69,"velocity":85,"subtype":"noteOn","realTime":6050,"sortKey":601},{"deltaTime":4,"channel":9,"type":"channel","subtype":"noteOff","noteNumber":35,"velocity":64,"realTime":6054,"sortKey":602},{"deltaTime":0,"channel":9,"type":"channel","subtype":"noteOff","noteNumber":69,"velocity":64,"realTime":6054,"sortKey":603},{"deltaTime":27,"channel":9,"type":"channel","noteNumber":38,"velocity":127,"subtype":"noteOn","realTime":6081,"sortKey":604},{"deltaTime":0,"channel":9,"type":"channel","noteNumber":42,"velocity":127,"subtype":"noteOn","realTime":6081,"sortKey":605},{"deltaTime":5,"channel":9,"type":"channel","subtype":"noteOff","noteNumber":38,"velocity":64,"realTime":6086,"sortKey":606},{"deltaTime":0,"channel":9,"type":"channel","subtype":"noteOff","noteNumber":42,"velocity":64,"realTime":6086,"sortKey":607},{"deltaTime":27,"channel":9,"type":"channel","noteNumber":46,"velocity":80,"subtype":"noteOn","realTime":6113,"sortKey":608},{"deltaTime":0,"channel":9,"type":"channel","noteNumber":69,"velocity":85,"subtype":"noteOn","realTime":6113,"sortKey":609},{"deltaTime":2,"channel":9,"type":"channel","subtype":"noteOff","noteNumber":46,"velocity":64,"realTime":6115,"sortKey":610},{"deltaTime":0,"channel":9,"type":"channel","subtype":"noteOff","noteNumber":69,"velocity":64,"realTime":6115,"sortKey":611},{"deltaTime":30,"channel":9,"type":"channel","noteNumber":35,"velocity":127,"subtype":"noteOn","realTime":6145,"sortKey":612},{"deltaTime":0,"channel":9,"type":"channel","noteNumber":42,"velocity":127,"subtype":"noteOn","realTime":6145,"sortKey":613},{"deltaTime":0,"channel":9,"type":"channel","noteNumber":49,"velocity":127,"subtype":"noteOn","realTime":6145,"sortKey":614},{"deltaTime":0,"channel":9,"type":"channel","noteNumber":70,"velocity":127,"subtype":"noteOn","realTime":6145,"sortKey":615},{"deltaTime":5,"channel":9,"type":"channel","subtype":"noteOff","noteNumber":49,"velocity":64,"realTime":6150,"sortKey":616},{"deltaTime":0,"channel":9,"type":"channel","subtype":"noteOff","noteNumber":70,"velocity":64,"realTime":6150,"sortKey":617},{"deltaTime":3,"channel":9,"type":"channel","subtype":"noteOff","noteNumber":35,"velocity":64,"realTime":6153,"sortKey":618},{"deltaTime":0,"channel":9,"type":"channel","subtype":"noteOff","noteNumber":42,"velocity":64,"realTime":6153,"sortKey":619},{"deltaTime":24,"channel":9,"type":"channel","noteNumber":69,"velocity":85,"subtype":"noteOn","realTime":6177,"sortKey":620},{"deltaTime":5,"channel":9,"type":"channel","subtype":"noteOff","noteNumber":69,"velocity":64,"realTime":6182,"sortKey":621},{"deltaTime":27,"channel":9,"type":"channel","noteNumber":38,"velocity":127,"subtype":"noteOn","realTime":6209,"sortKey":622},{"deltaTime":0,"channel":9,"type":"channel","noteNumber":42,"velocity":127,"subtype":"noteOn","realTime":6209,"sortKey":623},{"deltaTime":5,"channel":9,"type":"channel","subtype":"noteOff","noteNumber":38,"velocity":64,"realTime":6214,"sortKey":624},{"deltaTime":0,"channel":9,"type":"channel","subtype":"noteOff","noteNumber":42,"velocity":64,"realTime":6214,"sortKey":625},{"deltaTime":27,"channel":9,"type":"channel","noteNumber":35,"velocity":127,"subtype":"noteOn","realTime":6241,"sortKey":626},{"deltaTime":0,"channel":9,"type":"channel","noteNumber":69,"velocity":85,"subtype":"noteOn","realTime":6241,"sortKey":627},{"deltaTime":5,"channel":9,"type":"channel","subtype":"noteOff","noteNumber":35,"velocity":64,"realTime":6246,"sortKey":628},{"deltaTime":0,"channel":9,"type":"channel","subtype":"noteOff","noteNumber":69,"velocity":64,"realTime":6246,"sortKey":629},{"deltaTime":27,"channel":9,"type":"channel","noteNumber":42,"velocity":127,"subtype":"noteOn","realTime":6273,"sortKey":630},{"deltaTime":5,"channel":9,"type":"channel","subtype":"noteOff","noteNumber":42,"velocity":64,"realTime":6278,"sortKey":631},{"deltaTime":27,"channel":9,"type":"channel","noteNumber":35,"velocity":127,"subtype":"noteOn","realTime":6305,"sortKey":632},{"deltaTime":0,"channel":9,"type":"channel","noteNumber":69,"velocity":85,"subtype":"noteOn","realTime":6305,"sortKey":633},{"deltaTime":8,"channel":9,"type":"channel","subtype":"noteOff","noteNumber":35,"velocity":64,"realTime":6313,"sortKey":634},{"deltaTime":0,"channel":9,"type":"channel","subtype":"noteOff","noteNumber":69,"velocity":64,"realTime":6313,"sortKey":635},{"deltaTime":24,"channel":9,"type":"channel","noteNumber":38,"velocity":127,"subtype":"noteOn","realTime":6337,"sortKey":636},{"deltaTime":0,"channel":9,"type":"channel","noteNumber":42,"velocity":127,"subtype":"noteOn","realTime":6337,"sortKey":637},{"deltaTime":5,"channel":9,"type":"channel","subtype":"noteOff","noteNumber":38,"velocity":64,"realTime":6342,"sortKey":638},{"deltaTime":0,"channel":9,"type":"channel","subtype":"noteOff","noteNumber":42,"velocity":64,"realTime":6342,"sortKey":639},{"deltaTime":27,"channel":9,"type":"channel","noteNumber":69,"velocity":85,"subtype":"noteOn","realTime":6369,"sortKey":640},{"deltaTime":5,"channel":9,"type":"channel","subtype":"noteOff","noteNumber":69,"velocity":64,"realTime":6374,"sortKey":641},{"deltaTime":27,"channel":9,"type":"channel","noteNumber":35,"velocity":127,"subtype":"noteOn","realTime":6401,"sortKey":642},{"deltaTime":0,"channel":9,"type":"channel","noteNumber":42,"velocity":127,"subtype":"noteOn","realTime":6401,"sortKey":643},{"deltaTime":8,"channel":9,"type":"channel","subtype":"noteOff","noteNumber":35,"velocity":64,"realTime":6409,"sortKey":644},{"deltaTime":0,"channel":9,"type":"channel","subtype":"noteOff","noteNumber":42,"velocity":64,"realTime":6409,"sortKey":645},{"deltaTime":24,"channel":9,"type":"channel","noteNumber":69,"velocity":85,"subtype":"noteOn","realTime":6433,"sortKey":646},{"deltaTime":5,"channel":9,"type":"channel","subtype":"noteOff","noteNumber":69,"velocity":64,"realTime":6438,"sortKey":647},{"deltaTime":27,"channel":9,"type":"channel","noteNumber":38,"velocity":127,"subtype":"noteOn","realTime":6465,"sortKey":648},{"deltaTime":0,"channel":9,"type":"channel","noteNumber":42,"velocity":127,"subtype":"noteOn","realTime":6465,"sortKey":649},{"deltaTime":7,"channel":9,"type":"channel","subtype":"noteOff","noteNumber":38,"velocity":64,"realTime":6472,"sortKey":650},{"deltaTime":0,"channel":9,"type":"channel","subtype":"noteOff","noteNumber":42,"velocity":64,"realTime":6472,"sortKey":651},{"deltaTime":27,"channel":9,"type":"channel","noteNumber":35,"velocity":127,"subtype":"noteOn","realTime":6499,"sortKey":652},{"deltaTime":0,"channel":9,"type":"channel","noteNumber":69,"velocity":85,"subtype":"noteOn","realTime":6499,"sortKey":653},{"deltaTime":5,"channel":9,"type":"channel","subtype":"noteOff","noteNumber":35,"velocity":64,"realTime":6504,"sortKey":654},{"deltaTime":0,"channel":9,"type":"channel","subtype":"noteOff","noteNumber":69,"velocity":64,"realTime":6504,"sortKey":655},{"deltaTime":24,"channel":9,"type":"channel","noteNumber":42,"velocity":127,"subtype":"noteOn","realTime":6528,"sortKey":656},{"deltaTime":7,"channel":9,"type":"channel","subtype":"noteOff","noteNumber":42,"velocity":64,"realTime":6535,"sortKey":657},{"deltaTime":24,"channel":9,"type":"channel","noteNumber":35,"velocity":127,"subtype":"noteOn","realTime":6559,"sortKey":658},{"deltaTime":3,"channel":9,"type":"channel","noteNumber":69,"velocity":85,"subtype":"noteOn","realTime":6562,"sortKey":659},{"deltaTime":2,"channel":9,"type":"channel","subtype":"noteOff","noteNumber":35,"velocity":64,"realTime":6564,"sortKey":660},{"deltaTime":0,"channel":9,"type":"channel","subtype":"noteOff","noteNumber":69,"velocity":64,"realTime":6564,"sortKey":661},{"deltaTime":29,"channel":9,"type":"channel","noteNumber":38,"velocity":127,"subtype":"noteOn","realTime":6593,"sortKey":662},{"deltaTime":0,"channel":9,"type":"channel","noteNumber":42,"velocity":127,"subtype":"noteOn","realTime":6593,"sortKey":663},{"deltaTime":5,"channel":9,"type":"channel","subtype":"noteOff","noteNumber":38,"velocity":64,"realTime":6598,"sortKey":664},{"deltaTime":0,"channel":9,"type":"channel","subtype":"noteOff","noteNumber":42,"velocity":64,"realTime":6598,"sortKey":665},{"deltaTime":27,"channel":9,"type":"channel","noteNumber":46,"velocity":80,"subtype":"noteOn","realTime":6625,"sortKey":666},{"deltaTime":0,"channel":9,"type":"channel","noteNumber":69,"velocity":85,"subtype":"noteOn","realTime":6625,"sortKey":667},{"deltaTime":5,"channel":9,"type":"channel","subtype":"noteOff","noteNumber":46,"velocity":64,"realTime":6630,"sortKey":668},{"deltaTime":0,"channel":9,"type":"channel","subtype":"noteOff","noteNumber":69,"velocity":64,"realTime":6630,"sortKey":669},{"deltaTime":27,"channel":9,"type":"channel","noteNumber":35,"velocity":127,"subtype":"noteOn","realTime":6657,"sortKey":670},{"deltaTime":0,"channel":9,"type":"channel","noteNumber":42,"velocity":127,"subtype":"noteOn","realTime":6657,"sortKey":671},{"deltaTime":5,"channel":9,"type":"channel","subtype":"noteOff","noteNumber":35,"velocity":64,"realTime":6662,"sortKey":672},{"deltaTime":0,"channel":9,"type":"channel","subtype":"noteOff","noteNumber":42,"velocity":64,"realTime":6662,"sortKey":673},{"deltaTime":27,"channel":9,"type":"channel","noteNumber":69,"velocity":85,"subtype":"noteOn","realTime":6689,"sortKey":674},{"deltaTime":5,"channel":9,"type":"channel","subtype":"noteOff","noteNumber":69,"velocity":64,"realTime":6694,"sortKey":675},{"deltaTime":27,"channel":9,"type":"channel","noteNumber":38,"velocity":127,"subtype":"noteOn","realTime":6721,"sortKey":676},{"deltaTime":0,"channel":9,"type":"channel","noteNumber":42,"velocity":127,"subtype":"noteOn","realTime":6721,"sortKey":677},{"deltaTime":5,"channel":9,"type":"channel","subtype":"noteOff","noteNumber":38,"velocity":64,"realTime":6726,"sortKey":678},{"deltaTime":2,"channel":9,"type":"channel","subtype":"noteOff","noteNumber":42,"velocity":64,"realTime":6728,"sortKey":679},{"deltaTime":25,"channel":9,"type":"channel","noteNumber":35,"velocity":127,"subtype":"noteOn","realTime":6753,"sortKey":680},{"deltaTime":0,"channel":9,"type":"channel","noteNumber":69,"velocity":85,"subtype":"noteOn","realTime":6753,"sortKey":681},{"deltaTime":5,"channel":9,"type":"channel","subtype":"noteOff","noteNumber":35,"velocity":64,"realTime":6758,"sortKey":682},{"deltaTime":0,"channel":9,"type":"channel","subtype":"noteOff","noteNumber":69,"velocity":64,"realTime":6758,"sortKey":683},{"deltaTime":27,"channel":9,"type":"channel","noteNumber":42,"velocity":127,"subtype":"noteOn","realTime":6785,"sortKey":684},{"deltaTime":4,"channel":9,"type":"channel","subtype":"noteOff","noteNumber":42,"velocity":64,"realTime":6789,"sortKey":685},{"deltaTime":27,"channel":9,"type":"channel","noteNumber":35,"velocity":127,"subtype":"noteOn","realTime":6816,"sortKey":686},{"deltaTime":0,"channel":9,"type":"channel","noteNumber":69,"velocity":85,"subtype":"noteOn","realTime":6816,"sortKey":687},{"deltaTime":5,"channel":9,"type":"channel","subtype":"noteOff","noteNumber":35,"velocity":64,"realTime":6821,"sortKey":688},{"deltaTime":2,"channel":9,"type":"channel","subtype":"noteOff","noteNumber":69,"velocity":64,"realTime":6823,"sortKey":689},{"deltaTime":25,"channel":9,"type":"channel","noteNumber":38,"velocity":127,"subtype":"noteOn","realTime":6848,"sortKey":690},{"deltaTime":2,"channel":9,"type":"channel","noteNumber":42,"velocity":127,"subtype":"noteOn","realTime":6850,"sortKey":691},{"deltaTime":3,"channel":9,"type":"channel","subtype":"noteOff","noteNumber":38,"velocity":64,"realTime":6853,"sortKey":692},{"deltaTime":0,"channel":9,"type":"channel","subtype":"noteOff","noteNumber":42,"velocity":64,"realTime":6853,"sortKey":693},{"deltaTime":29,"channel":9,"type":"channel","noteNumber":69,"velocity":85,"subtype":"noteOn","realTime":6882,"sortKey":694},{"deltaTime":5,"channel":9,"type":"channel","subtype":"noteOff","noteNumber":69,"velocity":64,"realTime":6887,"sortKey":695},{"deltaTime":27,"channel":9,"type":"channel","noteNumber":35,"velocity":127,"subtype":"noteOn","realTime":6914,"sortKey":696},{"deltaTime":0,"channel":9,"type":"channel","noteNumber":42,"velocity":127,"subtype":"noteOn","realTime":6914,"sortKey":697},{"deltaTime":5,"channel":9,"type":"channel","subtype":"noteOff","noteNumber":35,"velocity":64,"realTime":6919,"sortKey":698},{"deltaTime":0,"channel":9,"type":"channel","subtype":"noteOff","noteNumber":42,"velocity":64,"realTime":6919,"sortKey":699},{"deltaTime":26,"channel":9,"type":"channel","noteNumber":69,"velocity":85,"subtype":"noteOn","realTime":6945,"sortKey":700},{"deltaTime":3,"channel":9,"type":"channel","subtype":"noteOff","noteNumber":69,"velocity":64,"realTime":6948,"sortKey":701},{"deltaTime":29,"channel":9,"type":"channel","noteNumber":38,"velocity":127,"subtype":"noteOn","realTime":6977,"sortKey":702},{"deltaTime":0,"channel":9,"type":"channel","noteNumber":42,"velocity":127,"subtype":"noteOn","realTime":6977,"sortKey":703},{"deltaTime":5,"channel":9,"type":"channel","subtype":"noteOff","noteNumber":38,"velocity":64,"realTime":6982,"sortKey":704},{"deltaTime":0,"channel":9,"type":"channel","subtype":"noteOff","noteNumber":42,"velocity":64,"realTime":6982,"sortKey":705},{"deltaTime":27,"channel":9,"type":"channel","noteNumber":35,"velocity":127,"subtype":"noteOn","realTime":7009,"sortKey":706},{"deltaTime":0,"channel":9,"type":"channel","noteNumber":69,"velocity":85,"subtype":"noteOn","realTime":7009,"sortKey":707},{"deltaTime":2,"channel":9,"type":"channel","subtype":"noteOff","noteNumber":35,"velocity":64,"realTime":7011,"sortKey":708},{"deltaTime":0,"channel":9,"type":"channel","subtype":"noteOff","noteNumber":69,"velocity":64,"realTime":7011,"sortKey":709},{"deltaTime":30,"channel":9,"type":"channel","noteNumber":42,"velocity":127,"subtype":"noteOn","realTime":7041,"sortKey":710},{"deltaTime":5,"channel":9,"type":"channel","subtype":"noteOff","noteNumber":42,"velocity":64,"realTime":7046,"sortKey":711},{"deltaTime":27,"channel":9,"type":"channel","noteNumber":35,"velocity":127,"subtype":"noteOn","realTime":7073,"sortKey":712},{"deltaTime":0,"channel":9,"type":"channel","noteNumber":69,"velocity":85,"subtype":"noteOn","realTime":7073,"sortKey":713},{"deltaTime":5,"channel":9,"type":"channel","subtype":"noteOff","noteNumber":35,"velocity":64,"realTime":7078,"sortKey":714},{"deltaTime":0,"channel":9,"type":"channel","subtype":"noteOff","noteNumber":69,"velocity":64,"realTime":7078,"sortKey":715},{"deltaTime":27,"channel":9,"type":"channel","noteNumber":38,"velocity":127,"subtype":"noteOn","realTime":7105,"sortKey":716},{"deltaTime":0,"channel":9,"type":"channel","noteNumber":42,"velocity":127,"subtype":"noteOn","realTime":7105,"sortKey":717},{"deltaTime":7,"channel":9,"type":"channel","subtype":"noteOff","noteNumber":38,"velocity":64,"realTime":7112,"sortKey":718},{"deltaTime":0,"channel":9,"type":"channel","subtype":"noteOff","noteNumber":42,"velocity":64,"realTime":7112,"sortKey":719},{"deltaTime":25,"channel":9,"type":"channel","noteNumber":46,"velocity":80,"subtype":"noteOn","realTime":7137,"sortKey":720},{"deltaTime":0,"channel":9,"type":"channel","noteNumber":69,"velocity":85,"subtype":"noteOn","realTime":7137,"sortKey":721},{"deltaTime":7,"channel":9,"type":"channel","subtype":"noteOff","noteNumber":46,"velocity":64,"realTime":7144,"sortKey":722},{"deltaTime":0,"channel":9,"type":"channel","subtype":"noteOff","noteNumber":69,"velocity":64,"realTime":7144,"sortKey":723},{"deltaTime":0,"type":"meta","subtype":"endOfTrack"}],[{"deltaTime":null,"channel":1,"type":"channel","noteNumber":76,"velocity":95,"subtype":"noteOn","realTime":2561,"sortKey":83},{"deltaTime":30,"channel":1,"type":"channel","noteNumber":74,"velocity":76,"subtype":"noteOn","realTime":2591,"sortKey":84},{"deltaTime":2,"channel":1,"type":"channel","subtype":"noteOff","noteNumber":76,"velocity":64,"realTime":2593,"sortKey":85},{"deltaTime":27,"channel":1,"type":"channel","noteNumber":71,"velocity":86,"subtype":"noteOn","realTime":2620,"sortKey":86},{"deltaTime":3,"channel":1,"type":"channel","subtype":"noteOff","noteNumber":74,"velocity":64,"realTime":2623,"sortKey":87},{"deltaTime":36,"channel":1,"type":"channel","subtype":"noteOff","noteNumber":71,"velocity":64,"realTime":2659,"sortKey":88},{"deltaTime":0,"channel":1,"type":"channel","noteNumber":76,"velocity":95,"subtype":"noteOn","realTime":2659,"sortKey":89},{"deltaTime":26,"channel":1,"type":"channel","subtype":"noteOff","noteNumber":76,"velocity":64,"realTime":2685,"sortKey":90},{"deltaTime":32,"channel":1,"type":"channel","noteNumber":76,"velocity":90,"subtype":"noteOn","realTime":2717,"sortKey":91},{"deltaTime":63,"channel":1,"type":"channel","subtype":"noteOff","noteNumber":76,"velocity":64,"realTime":2780,"sortKey":92},{"deltaTime":37,"channel":1,"type":"channel","noteNumber":74,"velocity":82,"subtype":"noteOn","realTime":2817,"sortKey":93},{"deltaTime":32,"channel":1,"type":"channel","noteNumber":72,"velocity":88,"subtype":"noteOn","realTime":2849,"sortKey":94},{"deltaTime":5,"channel":1,"type":"channel","subtype":"noteOff","noteNumber":74,"velocity":64,"realTime":2854,"sortKey":95},{"deltaTime":22,"channel":1,"type":"channel","noteNumber":69,"velocity":93,"subtype":"noteOn","realTime":2876,"sortKey":96},{"deltaTime":3,"channel":1,"type":"channel","subtype":"noteOff","noteNumber":72,"velocity":64,"realTime":2879,"sortKey":97},{"deltaTime":32,"channel":1,"type":"channel","noteNumber":74,"velocity":92,"subtype":"noteOn","realTime":2911,"sortKey":98},{"deltaTime":2,"channel":1,"type":"channel","subtype":"noteOff","noteNumber":69,"velocity":64,"realTime":2913,"sortKey":99},{"deltaTime":34,"channel":1,"type":"channel","subtype":"noteOff","noteNumber":74,"velocity":64,"realTime":2947,"sortKey":100},{"deltaTime":30,"channel":1,"type":"channel","noteNumber":74,"velocity":89,"subtype":"noteOn","realTime":2977,"sortKey":101},{"deltaTime":61,"channel":1,"type":"channel","subtype":"noteOff","noteNumber":74,"velocity":64,"realTime":3038,"sortKey":102},{"deltaTime":34,"channel":1,"type":"channel","noteNumber":72,"velocity":90,"subtype":"noteOn","realTime":3072,"sortKey":103},{"deltaTime":29,"channel":1,"type":"channel","noteNumber":70,"velocity":90,"subtype":"noteOn","realTime":3101,"sortKey":104},{"deltaTime":5,"channel":1,"type":"channel","subtype":"noteOff","noteNumber":72,"velocity":64,"realTime":3106,"sortKey":105},{"deltaTime":26,"channel":1,"type":"channel","noteNumber":67,"velocity":93,"subtype":"noteOn","realTime":3132,"sortKey":106},{"deltaTime":3,"channel":1,"type":"channel","subtype":"noteOff","noteNumber":70,"velocity":64,"realTime":3135,"sortKey":107},{"deltaTime":34,"channel":1,"type":"channel","subtype":"noteOff","noteNumber":67,"velocity":64,"realTime":3169,"sortKey":108},{"deltaTime":0,"channel":1,"type":"channel","noteNumber":72,"velocity":95,"subtype":"noteOn","realTime":3169,"sortKey":109},{"deltaTime":27,"channel":1,"type":"channel","subtype":"noteOff","noteNumber":72,"velocity":64,"realTime":3196,"sortKey":110},{"deltaTime":37,"channel":1,"type":"channel","noteNumber":72,"velocity":95,"subtype":"noteOn","realTime":3233,"sortKey":111},{"deltaTime":64,"channel":1,"type":"channel","subtype":"noteOff","noteNumber":72,"velocity":64,"realTime":3297,"sortKey":112},{"deltaTime":32,"channel":1,"type":"channel","noteNumber":72,"velocity":94,"subtype":"noteOn","realTime":3329,"sortKey":113},{"deltaTime":30,"channel":1,"type":"channel","noteNumber":70,"velocity":94,"subtype":"noteOn","realTime":3359,"sortKey":114},{"deltaTime":4,"channel":1,"type":"channel","subtype":"noteOff","noteNumber":72,"velocity":64,"realTime":3363,"sortKey":115},{"deltaTime":28,"channel":1,"type":"channel","subtype":"noteOff","noteNumber":70,"velocity":64,"realTime":3391,"sortKey":116},{"deltaTime":0,"channel":1,"type":"channel","noteNumber":67,"velocity":93,"subtype":"noteOn","realTime":3391,"sortKey":117},{"deltaTime":34,"channel":1,"type":"channel","noteNumber":72,"velocity":99,"subtype":"noteOn","realTime":3425,"sortKey":118},{"deltaTime":2,"channel":1,"type":"channel","subtype":"noteOff","noteNumber":67,"velocity":64,"realTime":3427,"sortKey":119},{"deltaTime":25,"channel":1,"type":"channel","subtype":"noteOff","noteNumber":72,"velocity":64,"realTime":3452,"sortKey":120},{"deltaTime":37,"channel":1,"type":"channel","noteNumber":72,"velocity":93,"subtype":"noteOn","realTime":3489,"sortKey":121},{"deltaTime":66,"channel":1,"type":"channel","subtype":"noteOff","noteNumber":72,"velocity":64,"realTime":3555,"sortKey":122},{"deltaTime":31,"channel":1,"type":"channel","noteNumber":76,"velocity":95,"subtype":"noteOn","realTime":3586,"sortKey":123},{"deltaTime":27,"channel":1,"type":"channel","noteNumber":74,"velocity":76,"subtype":"noteOn","realTime":3613,"sortKey":124},{"deltaTime":5,"channel":1,"type":"channel","subtype":"noteOff","noteNumber":76,"velocity":64,"realTime":3618,"sortKey":125},{"deltaTime":26,"channel":1,"type":"channel","subtype":"noteOff","noteNumber":74,"velocity":64,"realTime":3644,"sortKey":126},{"deltaTime":0,"channel":1,"type":"channel","noteNumber":71,"velocity":86,"subtype":"noteOn","realTime":3644,"sortKey":127},{"deltaTime":37,"channel":1,"type":"channel","subtype":"noteOff","noteNumber":71,"velocity":64,"realTime":3681,"sortKey":128},{"deltaTime":0,"channel":1,"type":"channel","noteNumber":76,"velocity":95,"subtype":"noteOn","realTime":3681,"sortKey":129},{"deltaTime":30,"channel":1,"type":"channel","subtype":"noteOff","noteNumber":76,"velocity":64,"realTime":3711,"sortKey":130},{"deltaTime":29,"channel":1,"type":"channel","noteNumber":76,"velocity":90,"subtype":"noteOn","realTime":3740,"sortKey":131},{"deltaTime":64,"channel":1,"type":"channel","subtype":"noteOff","noteNumber":76,"velocity":64,"realTime":3804,"sortKey":132},{"deltaTime":38,"channel":1,"type":"channel","noteNumber":74,"velocity":82,"subtype":"noteOn","realTime":3842,"sortKey":133},{"deltaTime":32,"channel":1,"type":"channel","noteNumber":72,"velocity":88,"subtype":"noteOn","realTime":3874,"sortKey":134},{"deltaTime":4,"channel":1,"type":"channel","subtype":"noteOff","noteNumber":74,"velocity":64,"realTime":3878,"sortKey":135},{"deltaTime":22,"channel":1,"type":"channel","noteNumber":69,"velocity":93,"subtype":"noteOn","realTime":3900,"sortKey":136},{"deltaTime":3,"channel":1,"type":"channel","subtype":"noteOff","noteNumber":72,"velocity":64,"realTime":3903,"sortKey":137},{"deltaTime":32,"channel":1,"type":"channel","subtype":"noteOff","noteNumber":69,"velocity":64,"realTime":3935,"sortKey":138},{"deltaTime":0,"channel":1,"type":"channel","noteNumber":74,"velocity":92,"subtype":"noteOn","realTime":3935,"sortKey":139},{"deltaTime":34,"channel":1,"type":"channel","subtype":"noteOff","noteNumber":74,"velocity":64,"realTime":3969,"sortKey":140},{"deltaTime":30,"channel":1,"type":"channel","noteNumber":74,"velocity":89,"subtype":"noteOn","realTime":3999,"sortKey":141},{"deltaTime":61,"channel":1,"type":"channel","subtype":"noteOff","noteNumber":74,"velocity":64,"realTime":4060,"sortKey":142},{"deltaTime":37,"channel":1,"type":"channel","noteNumber":72,"velocity":90,"subtype":"noteOn","realTime":4097,"sortKey":143},{"deltaTime":30,"channel":1,"type":"channel","noteNumber":70,"velocity":90,"subtype":"noteOn","realTime":4127,"sortKey":144},{"deltaTime":2,"channel":1,"type":"channel","subtype":"noteOff","noteNumber":72,"velocity":64,"realTime":4129,"sortKey":145},{"deltaTime":30,"channel":1,"type":"channel","subtype":"noteOff","noteNumber":70,"velocity":64,"realTime":4159,"sortKey":146},{"deltaTime":0,"channel":1,"type":"channel","noteNumber":67,"velocity":93,"subtype":"noteOn","realTime":4159,"sortKey":147},{"deltaTime":34,"channel":1,"type":"channel","noteNumber":72,"velocity":95,"subtype":"noteOn","realTime":4193,"sortKey":148},{"deltaTime":2,"channel":1,"type":"channel","subtype":"noteOff","noteNumber":67,"velocity":64,"realTime":4195,"sortKey":149},{"deltaTime":28,"channel":1,"type":"channel","subtype":"noteOff","noteNumber":72,"velocity":64,"realTime":4223,"sortKey":150},{"deltaTime":34,"channel":1,"type":"channel","noteNumber":72,"velocity":95,"subtype":"noteOn","realTime":4257,"sortKey":151},{"deltaTime":66,"channel":1,"type":"channel","subtype":"noteOff","noteNumber":72,"velocity":64,"realTime":4323,"sortKey":152},{"deltaTime":31,"channel":1,"type":"channel","noteNumber":72,"velocity":94,"subtype":"noteOn","realTime":4354,"sortKey":153},{"deltaTime":29,"channel":1,"type":"channel","noteNumber":70,"velocity":94,"subtype":"noteOn","realTime":4383,"sortKey":154},{"deltaTime":3,"channel":1,"type":"channel","subtype":"noteOff","noteNumber":72,"velocity":64,"realTime":4386,"sortKey":155},{"deltaTime":26,"channel":1,"type":"channel","subtype":"noteOff","noteNumber":70,"velocity":64,"realTime":4412,"sortKey":156},{"deltaTime":3,"channel":1,"type":"channel","noteNumber":67,"velocity":93,"subtype":"noteOn","realTime":4415,"sortKey":157},{"deltaTime":34,"channel":1,"type":"channel","noteNumber":72,"velocity":99,"subtype":"noteOn","realTime":4449,"sortKey":158},{"deltaTime":0,"channel":1,"type":"channel","subtype":"noteOff","noteNumber":67,"velocity":64,"realTime":4449,"sortKey":159},{"deltaTime":27,"channel":1,"type":"channel","subtype":"noteOff","noteNumber":72,"velocity":64,"realTime":4476,"sortKey":160},{"deltaTime":37,"channel":1,"type":"channel","noteNumber":72,"velocity":93,"subtype":"noteOn","realTime":4513,"sortKey":161},{"deltaTime":66,"channel":1,"type":"channel","subtype":"noteOff","noteNumber":72,"velocity":64,"realTime":4579,"sortKey":162},{"deltaTime":30,"channel":1,"type":"channel","noteNumber":67,"velocity":118,"subtype":"noteOn","realTime":4609,"sortKey":163},{"deltaTime":79,"channel":1,"type":"channel","subtype":"noteOff","noteNumber":67,"velocity":64,"realTime":4688,"sortKey":164},{"deltaTime":17,"channel":1,"type":"channel","noteNumber":67,"velocity":127,"subtype":"noteOn","realTime":4705,"sortKey":165},{"deltaTime":29,"channel":1,"type":"channel","subtype":"noteOff","noteNumber":67,"velocity":64,"realTime":4734,"sortKey":166},{"deltaTime":129,"channel":1,"type":"channel","noteNumber":67,"velocity":127,"subtype":"noteOn","realTime":4863,"sortKey":167},{"deltaTime":78,"channel":1,"type":"channel","subtype":"noteOff","noteNumber":67,"velocity":64,"realTime":4941,"sortKey":168},{"deltaTime":18,"channel":1,"type":"channel","noteNumber":67,"velocity":127,"subtype":"noteOn","realTime":4959,"sortKey":169},{"deltaTime":29,"channel":1,"type":"channel","subtype":"noteOff","noteNumber":67,"velocity":64,"realTime":4988,"sortKey":170},{"deltaTime":98,"channel":1,"type":"channel","noteNumber":67,"velocity":109,"subtype":"noteOn","realTime":5086,"sortKey":171},{"deltaTime":34,"channel":1,"type":"channel","noteNumber":72,"velocity":112,"subtype":"noteOn","realTime":5120,"sortKey":172},{"deltaTime":0,"channel":1,"type":"channel","subtype":"noteOff","noteNumber":67,"velocity":64,"realTime":5120,"sortKey":173},{"deltaTime":75,"channel":1,"type":"channel","subtype":"noteOff","noteNumber":72,"velocity":64,"realTime":5195,"sortKey":174},{"deltaTime":17,"channel":1,"type":"channel","noteNumber":72,"velocity":117,"subtype":"noteOn","realTime":5212,"sortKey":175},{"deltaTime":42,"channel":1,"type":"channel","subtype":"noteOff","noteNumber":72,"velocity":64,"realTime":5254,"sortKey":176},{"deltaTime":59,"channel":1,"type":"channel","noteNumber":72,"velocity":118,"subtype":"noteOn","realTime":5313,"sortKey":177},{"deltaTime":62,"channel":1,"type":"channel","noteNumber":69,"velocity":121,"subtype":"noteOn","realTime":5375,"sortKey":178},{"deltaTime":4,"channel":1,"type":"channel","subtype":"noteOff","noteNumber":72,"velocity":64,"realTime":5379,"sortKey":179},{"deltaTime":64,"channel":1,"type":"channel","subtype":"noteOff","noteNumber":69,"velocity":64,"realTime":5443,"sortKey":180},{"deltaTime":30,"channel":1,"type":"channel","noteNumber":69,"velocity":127,"subtype":"noteOn","realTime":5473,"sortKey":181},{"deltaTime":37,"channel":1,"type":"channel","subtype":"noteOff","noteNumber":69,"velocity":64,"realTime":5510,"sortKey":182},{"deltaTime":59,"channel":1,"type":"channel","noteNumber":69,"velocity":121,"subtype":"noteOn","realTime":5569,"sortKey":183},{"deltaTime":60,"channel":1,"type":"channel","noteNumber":76,"velocity":111,"subtype":"noteOn","realTime":5629,"sortKey":184},{"deltaTime":3,"channel":1,"type":"channel","subtype":"noteOff","noteNumber":69,"velocity":64,"realTime":5632,"sortKey":185},{"deltaTime":75,"channel":1,"type":"channel","subtype":"noteOff","noteNumber":76,"velocity":64,"realTime":5707,"sortKey":186},{"deltaTime":20,"channel":1,"type":"channel","noteNumber":76,"velocity":122,"subtype":"noteOn","realTime":5727,"sortKey":187},{"deltaTime":39,"channel":1,"type":"channel","subtype":"noteOff","noteNumber":76,"velocity":64,"realTime":5766,"sortKey":188},{"deltaTime":59,"channel":1,"type":"channel","noteNumber":76,"velocity":118,"subtype":"noteOn","realTime":5825,"sortKey":189},{"deltaTime":64,"channel":1,"type":"channel","noteNumber":74,"velocity":122,"subtype":"noteOn","realTime":5889,"sortKey":190},{"deltaTime":5,"channel":1,"type":"channel","subtype":"noteOff","noteNumber":76,"velocity":64,"realTime":5894,"sortKey":191},{"deltaTime":61,"channel":1,"type":"channel","subtype":"noteOff","noteNumber":74,"velocity":64,"realTime":5955,"sortKey":192},{"deltaTime":30,"channel":1,"type":"channel","noteNumber":74,"velocity":112,"subtype":"noteOn","realTime":5985,"sortKey":193},{"deltaTime":31,"channel":1,"type":"channel","noteNumber":72,"velocity":127,"subtype":"noteOn","realTime":6016,"sortKey":194},{"deltaTime":2,"channel":1,"type":"channel","subtype":"noteOff","noteNumber":74,"velocity":64,"realTime":6018,"sortKey":195},{"deltaTime":71,"channel":1,"type":"channel","subtype":"noteOff","noteNumber":72,"velocity":64,"realTime":6089,"sortKey":196},{"deltaTime":22,"channel":1,"type":"channel","noteNumber":72,"velocity":119,"subtype":"noteOn","realTime":6111,"sortKey":197},{"deltaTime":32,"channel":1,"type":"channel","subtype":"noteOff","noteNumber":72,"velocity":64,"realTime":6143,"sortKey":198},{"deltaTime":2,"channel":1,"type":"channel","noteNumber":67,"velocity":127,"subtype":"noteOn","realTime":6145,"sortKey":199},{"deltaTime":76,"channel":1,"type":"channel","subtype":"noteOff","noteNumber":67,"velocity":64,"realTime":6221,"sortKey":200},{"deltaTime":20,"channel":1,"type":"channel","noteNumber":67,"velocity":127,"subtype":"noteOn","realTime":6241,"sortKey":201},{"deltaTime":27,"channel":1,"type":"channel","subtype":"noteOff","noteNumber":67,"velocity":64,"realTime":6268,"sortKey":202},{"deltaTime":131,"channel":1,"type":"channel","noteNumber":67,"velocity":127,"subtype":"noteOn","realTime":6399,"sortKey":203},{"deltaTime":80,"channel":1,"type":"channel","subtype":"noteOff","noteNumber":67,"velocity":64,"realTime":6479,"sortKey":204},{"deltaTime":18,"channel":1,"type":"channel","noteNumber":67,"velocity":127,"subtype":"noteOn","realTime":6497,"sortKey":205},{"deltaTime":33,"channel":1,"type":"channel","subtype":"noteOff","noteNumber":67,"velocity":64,"realTime":6530,"sortKey":206},{"deltaTime":127,"channel":1,"type":"channel","noteNumber":67,"velocity":127,"subtype":"noteOn","realTime":6657,"sortKey":207},{"deltaTime":71,"channel":1,"type":"channel","subtype":"noteOff","noteNumber":67,"velocity":64,"realTime":6728,"sortKey":208},{"deltaTime":22,"channel":1,"type":"channel","noteNumber":67,"velocity":127,"subtype":"noteOn","realTime":6750,"sortKey":209},{"deltaTime":27,"channel":1,"type":"channel","subtype":"noteOff","noteNumber":67,"velocity":64,"realTime":6777,"sortKey":210},{"deltaTime":134,"channel":1,"type":"channel","noteNumber":67,"velocity":127,"subtype":"noteOn","realTime":6911,"sortKey":211},{"deltaTime":76,"channel":1,"type":"channel","subtype":"noteOff","noteNumber":67,"velocity":64,"realTime":6987,"sortKey":212},{"deltaTime":17,"channel":1,"type":"channel","noteNumber":67,"velocity":127,"subtype":"noteOn","realTime":7004,"sortKey":213},{"deltaTime":30,"channel":1,"type":"channel","subtype":"noteOff","noteNumber":67,"velocity":64,"realTime":7034,"sortKey":214},{"deltaTime":0,"type":"meta","subtype":"endOfTrack"}]]}