{"header":{"formatType":1,"trackCount":3,"ticksPerBeat":128},"tracks":[[{"deltaTime":0,"type":"meta","subtype":"timeSignature","numerator":1,"denominator":4,"metronome":24,"thirtyseconds":8,"realTime":0,"sortKey":2},{"deltaTime":0,"type":"meta","subtype":"setTempo","microsecondsPerBeat":1083345,"realTime":0,"sortKey":1},{"deltaTime":0,"type":"meta","subtype":"endOfTrack"}],[{"deltaTime":null,"channel":9,"type":"channel","noteNumber":35,"velocity":127,"subtype":"noteOn","realTime":16384,"sortKey":1712},{"deltaTime":0,"channel":9,"type":"channel","noteNumber":49,"velocity":127,"subtype":"noteOn","realTime":16384,"sortKey":1713},{"deltaTime":0,"channel":9,"type":"channel","noteNumber":70,"velocity":127,"subtype":"noteOn","realTime":16384,"sortKey":1714},{"deltaTime":2,"channel":9,"type":"channel","subtype":"noteOff","noteNumber":35,"velocity":64,"realTime":16386,"sortKey":1715},{"deltaTime":0,"channel":9,"type":"channel","subtype":"noteOff","noteNumber":49,"velocity":64,"realTime":16386,"sortKey":1716},{"deltaTime":0,"channel":9,"type":"channel","subtype":"noteOff","noteNumber":70,"velocity":64,"realTime":16386,"sortKey":1717},{"deltaTime":29,"channel":9,"type":"channel","noteNumber":69,"velocity":85,"subtype":"noteOn","realTime":16415,"sortKey":1718},{"deltaTime":7,"channel":9,"type":"channel","subtype":"noteOff","noteNumber":69,"velocity":64,"realTime":16422,"sortKey":1719},{"deltaTime":27,"channel":9,"type":"channel","noteNumber":38,"velocity":127,"subtype":"noteOn","realTime":16449,"sortKey":1720},{"deltaTime":0,"channel":9,"type":"channel","noteNumber":42,"velocity":127,"subtype":"noteOn","realTime":16449,"sortKey":1721},{"deltaTime":2,"channel":9,"type":"channel","subtype":"noteOff","noteNumber":38,"velocity":64,"realTime":16451,"sortKey":1722},{"deltaTime":0,"channel":9,"type":"channel","subtype":"noteOff","noteNumber":42,"velocity":64,"realTime":16451,"sortKey":1723},{"deltaTime":30,"channel":9,"type":"channel","noteNumber":35,"velocity":127,"subtype":"noteOn","realTime":16481,"sortKey":1724},{"deltaTime":0,"channel":9,"type":"channel","noteNumber":69,"velocity":85,"subtype":"noteOn","realTime":16481,"sortKey":1725},{"deltaTime":5,"channel":9,"type":"channel","subtype":"noteOff","noteNumber":35,"velocity":64,"realTime":16486,"sortKey":1726},{"deltaTime":0,"channel":9,"type":"channel","subtype":"noteOff","noteNumber":69,"velocity":64,"realTime":16486,"sortKey":1727},{"deltaTime":27,"channel":9,"type":"channel","noteNumber":42,"velocity":127,"subtype":"noteOn","realTime":16513,"sortKey":1728},{"deltaTime":5,"channel":9,"type":"channel","subtype":"noteOff","noteNumber":42,"velocity":64,"realTime":16518,"sortKey":1729},{"deltaTime":27,"channel":9,"type":"channel","noteNumber":35,"velocity":127,"subtype":"noteOn","realTime":16545,"sortKey":1730},{"deltaTime":0,"channel":9,"type":"channel","noteNumber":69,"velocity":85,"subtype":"noteOn","realTime":16545,"sortKey":1731},{"deltaTime":2,"channel":9,"type":"channel","subtype":"noteOff","noteNumber":35,"velocity":64,"realTime":16547,"sortKey":1732},{"deltaTime":0,"channel":9,"type":"channel","subtype":"noteOff","noteNumber":69,"velocity":64,"realTime":16547,"sortKey":1733},{"deltaTime":30,"channel":9,"type":"channel","noteNumber":38,"velocity":127,"subtype":"noteOn","realTime":16577,"sortKey":1734},{"deltaTime":0,"channel":9,"type":"channel","noteNumber":42,"velocity":127,"subtype":"noteOn","realTime":16577,"sortKey":1735},{"deltaTime":5,"channel":9,"type":"channel","subtype":"noteOff","noteNumber":38,"velocity":64,"realTime":16582,"sortKey":1736},{"deltaTime":0,"channel":9,"type":"channel","subtype":"noteOff","noteNumber":42,"velocity":64,"realTime":16582,"sortKey":1737},{"deltaTime":27,"channel":9,"type":"channel","noteNumber":69,"velocity":85,"subtype":"noteOn","realTime":16609,"sortKey":1738},{"deltaTime":5,"channel":9,"type":"channel","subtype":"noteOff","noteNumber":69,"velocity":64,"realTime":16614,"sortKey":1739},{"deltaTime":27,"channel":9,"type":"channel","noteNumber":35,"velocity":127,"subtype":"noteOn","realTime":16641,"sortKey":1740},{"deltaTime":0,"channel":9,"type":"channel","noteNumber":42,"velocity":127,"subtype":"noteOn","realTime":16641,"sortKey":1741},{"deltaTime":5,"channel":9,"type":"channel","subtype":"noteOff","noteNumber":35,"velocity":64,"realTime":16646,"sortKey":1742},{"deltaTime":0,"channel":9,"type":"channel","subtype":"noteOff","noteNumber":42,"velocity":64,"realTime":16646,"sortKey":1743},{"deltaTime":27,"channel":9,"type":"channel","noteNumber":69,"velocity":85,"subtype":"noteOn","realTime":16673,"sortKey":1744},{"deltaTime":5,"channel":9,"type":"channel","subtype":"noteOff","noteNumber":69,"velocity":64,"realTime":16678,"sortKey":1745},{"deltaTime":27,"channel":9,"type":"channel","noteNumber":38,"velocity":127,"subtype":"noteOn","realTime":16705,"sortKey":1746},{"deltaTime":0,"channel":9,"type":"channel","noteNumber":42,"velocity":127,"subtype":"noteOn","realTime":16705,"sortKey":1747},{"deltaTime":7,"channel":9,"type":"channel","subtype":"noteOff","noteNumber":38,"velocity":64,"realTime":16712,"sortKey":1748},{"deltaTime":0,"channel":9,"type":"channel","subtype":"noteOff","noteNumber":42,"velocity":64,"realTime":16712,"sortKey":1749},{"deltaTime":25,"channel":9,"type":"channel","noteNumber":35,"velocity":127,"subtype":"noteOn","realTime":16737,"sortKey":1750},{"deltaTime":0,"channel":9,"type":"channel","noteNumber":69,"velocity":85,"subtype":"noteOn","realTime":16737,"sortKey":1751},{"deltaTime":7,"channel":9,"type":"channel","subtype":"noteOff","noteNumber":35,"velocity":64,"realTime":16744,"sortKey":1752},{"deltaTime":0,"channel":9,"type":"channel","subtype":"noteOff","noteNumber":69,"velocity":64,"realTime":16744,"sortKey":1753},{"deltaTime":25,"channel":9,"type":"channel","noteNumber":42,"velocity":127,"subtype":"noteOn","realTime":16769,"sortKey":1754},{"deltaTime":4,"channel":9,"type":"channel","subtype":"noteOff","noteNumber":42,"velocity":64,"realTime":16773,"sortKey":1755},{"deltaTime":27,"channel":9,"type":"channel","noteNumber":35,"velocity":127,"subtype":"noteOn","realTime":16800,"sortKey":1756},{"deltaTime":0,"channel":9,"type":"channel","noteNumber":69,"velocity":85,"subtype":"noteOn","realTime":16800,"sortKey":1757},{"deltaTime":7,"channel":9,"type":"channel","subtype":"noteOff","noteNumber":35,"velocity":64,"realTime":16807,"sortKey":1758},{"deltaTime":0,"channel":9,"type":"channel","subtype":"noteOff","noteNumber":69,"velocity":64,"realTime":16807,"sortKey":1759},{"deltaTime":25,"channel":9,"type":"channel","noteNumber":38,"velocity":127,"subtype":"noteOn","realTime":16832,"sortKey":1760},{"deltaTime":2,"channel":9,"type":"channel","noteNumber":42,"velocity":127,"subtype":"noteOn","realTime":16834,"sortKey":1761},{"deltaTime":5,"channel":9,"type":"channel","subtype":"noteOff","noteNumber":42,"velocity":64,"realTime":16839,"sortKey":1762},{"deltaTime":0,"channel":9,"type":"channel","subtype":"noteOff","noteNumber":38,"velocity":64,"realTime":16839,"sortKey":1763},{"deltaTime":24,"channel":9,"type":"channel","noteNumber":69,"velocity":85,"subtype":"noteOn","realTime":16863,"sortKey":1764},{"deltaTime":3,"channel":9,"type":"channel","noteNumber":46,"velocity":80,"subtype":"noteOn","realTime":16866,"sortKey":1765},{"deltaTime":3,"channel":9,"type":"channel","subtype":"noteOff","noteNumber":69,"velocity":64,"realTime":16869,"sortKey":1766},{"deltaTime":0,"channel":9,"type":"channel","subtype":"noteOff","noteNumber":46,"velocity":64,"realTime":16869,"sortKey":1767},{"deltaTime":29,"channel":9,"type":"channel","noteNumber":35,"velocity":127,"subtype":"noteOn","realTime":16898,"sortKey":1768},{"deltaTime":0,"channel":9,"type":"channel","noteNumber":42,"velocity":127,"subtype":"noteOn","realTime":16898,"sortKey":1769},{"deltaTime":7,"channel":9,"type":"channel","subtype":"noteOff","noteNumber":35,"velocity":64,"realTime":16905,"sortKey":1770},{"deltaTime":0,"channel":9,"type":"channel","subtype":"noteOff","noteNumber":42,"velocity":64,"realTime":16905,"sortKey":1771},{"deltaTime":24,"channel":9,"type":"channel","noteNumber":69,"velocity":85,"subtype":"noteOn","realTime":16929,"sortKey":1772},{"deltaTime":5,"channel":9,"type":"channel","subtype":"noteOff","noteNumber":69,"velocity":64,"realTime":16934,"sortKey":1773},{"deltaTime":27,"channel":9,"type":"channel","noteNumber":38,"velocity":127,"subtype":"noteOn","realTime":16961,"sortKey":1774},{"deltaTime":0,"channel":9,"type":"channel","noteNumber":42,"velocity":127,"subtype":"noteOn","realTime":16961,"sortKey":1775},{"deltaTime":2,"channel":9,"type":"channel","subtype":"noteOff","noteNumber":38,"velocity":64,"realTime":16963,"sortKey":1776},{"deltaTime":0,"channel":9,"type":"channel","subtype":"noteOff","noteNumber":42,"velocity":64,"realTime":16963,"sortKey":1777},{"deltaTime":30,"channel":9,"type":"channel","noteNumber":35,"velocity":127,"subtype":"noteOn","realTime":16993,"sortKey":1778},{"deltaTime":0,"channel":9,"type":"channel","noteNumber":69,"velocity":85,"subtype":"noteOn","realTime":16993,"sortKey":1779},{"deltaTime":8,"channel":9,"type":"channel","subtype":"noteOff","noteNumber":35,"velocity":64,"realTime":17001,"sortKey":1780},{"deltaTime":0,"channel":9,"type":"channel","subtype":"noteOff","noteNumber":69,"velocity":64,"realTime":17001,"sortKey":1781},{"deltaTime":24,"channel":9,"type":"channel","noteNumber":42,"velocity":127,"subtype":"noteOn","realTime":17025,"sortKey":1782},{"deltaTime":5,"channel":9,"type":"channel","subtype":"noteOff","noteNumber":42,"velocity":64,"realTime":17030,"sortKey":1783},{"deltaTime":27,"channel":9,"type":"channel","noteNumber":35,"velocity":127,"subtype":"noteOn","realTime":17057,"sortKey":1784},{"deltaTime":0,"channel":9,"type":"channel","noteNumber":69,"velocity":85,"subtype":"noteOn","realTime":17057,"sortKey":1785},{"deltaTime":5,"channel":9,"type":"channel","subtype":"noteOff","noteNumber":35,"velocity":64,"realTime":17062,"sortKey":1786},{"deltaTime":0,"channel":9,"type":"channel","subtype":"noteOff","noteNumber":69,"velocity":64,"realTime":17062,"sortKey":1787},{"deltaTime":27,"channel":9,"type":"channel","noteNumber":38,"velocity":127,"subtype":"noteOn","realTime":17089,"sortKey":1788},{"deltaTime":0,"channel":9,"type":"channel","noteNumber":42,"velocity":127,"subtype":"noteOn","realTime":17089,"sortKey":1789},{"deltaTime":5,"channel":9,"type":"channel","subtype":"noteOff","noteNumber":38,"velocity":64,"realTime":17094,"sortKey":1790},{"deltaTime":0,"channel":9,"type":"channel","subtype":"noteOff","noteNumber":42,"velocity":64,"realTime":17094,"sortKey":1791},{"deltaTime":27,"channel":9,"type":"channel","noteNumber":69,"velocity":85,"subtype":"noteOn","realTime":17121,"sortKey":1792},{"deltaTime":5,"channel":9,"type":"channel","subtype":"noteOff","noteNumber":69,"velocity":64,"realTime":17126,"sortKey":1793},{"deltaTime":27,"channel":9,"type":"channel","noteNumber":35,"velocity":127,"subtype":"noteOn","realTime":17153,"sortKey":1794},{"deltaTime":0,"channel":9,"type":"channel","noteNumber":42,"velocity":127,"subtype":"noteOn","realTime":17153,"sortKey":1795},{"deltaTime":0,"channel":9,"type":"channel","noteNumber":49,"velocity":127,"subtype":"noteOn","realTime":17153,"sortKey":1796},{"deltaTime":0,"channel":9,"type":"channel","noteNumber":70,"velocity":127,"subtype":"noteOn","realTime":17153,"sortKey":1797},{"deltaTime":5,"channel":9,"type":"channel","subtype":"noteOff","noteNumber":49,"velocity":64,"realTime":17158,"sortKey":1798},{"deltaTime":0,"channel":9,"type":"channel","subtype":"noteOff","noteNumber":70,"velocity":64,"realTime":17158,"sortKey":1799},{"deltaTime":3,"channel":9,"type":"channel","subtype":"noteOff","noteNumber":35,"velocity":64,"realTime":17161,"sortKey":1800},{"deltaTime":0,"channel":9,"type":"channel","subtype":"noteOff","noteNumber":42,"velocity":64,"realTime":17161,"sortKey":1801},{"deltaTime":24,"channel":9,"type":"channel","noteNumber":70,"velocity":35,"subtype":"noteOn","realTime":17185,"sortKey":1802},{"deltaTime":5,"channel":9,"type":"channel","subtype":"noteOff","noteNumber":70,"velocity":64,"realTime":17190,"sortKey":1803},{"deltaTime":0,"type":"meta","subtype":"endOfTrack"}],[{"deltaTime":null,"channel":1,"type":"channel","noteNumber":67,"velocity":127,"subtype":"noteOn","realTime":16384,"sortKey":479},{"deltaTime":77,"channel":1,"type":"channel","subtype":"noteOff","noteNumber":67,"velocity":64,"realTime":16461,"sortKey":480},{"deltaTime":20,"channel":1,"type":"channel","noteNumber":67,"velocity":127,"subtype":"noteOn","realTime":16481,"sortKey":481},{"deltaTime":27,"channel":1,"type":"channel","subtype":"noteOff","noteNumber":67,"velocity":64,"realTime":16508,"sortKey":482},{"deltaTime":131,"channel":1,"type":"channel","noteNumber":67,"velocity":127,"subtype":"noteOn","realTime":16639,"sortKey":483},{"deltaTime":81,"channel":1,"type":"channel","subtype":"noteOff","noteNumber":67,"velocity":64,"realTime":16720,"sortKey":484},{"deltaTime":17,"channel":1,"type":"channel","noteNumber":67,"velocity":127,"subtype":"noteOn","realTime":16737,"sortKey":485},{"deltaTime":34,"channel":1,"type":"channel","subtype":"noteOff","noteNumber":67,"velocity":64,"realTime":16771,"sortKey":486},{"deltaTime":127,"channel":1,"type":"channel","noteNumber":67,"velocity":127,"subtype":"noteOn","realTime":16898,"sortKey":487},{"deltaTime":71,"channel":1,"type":"channel","subtype":"noteOff","noteNumber":67,"velocity":64,"realTime":16969,"sortKey":488},{"deltaTime":22,"channel":1,"type":"channel","noteNumber":67,"velocity":127,"subtype":"noteOn","realTime":16991,"sortKey":489},{"deltaTime":27,"channel":1,"type":"channel","subtype":"noteOff","noteNumber":67,"velocity":64,"realTime":17018,"sortKey":490},{"deltaTime":140,"channel":1,"type":"channel","noteNumber":67,"velocity":127,"subtype":"noteOn","realTime":17158,"sortKey":491},{"deltaTime":244,"channel":1,"type":"channel","subtype":"noteOff","noteNumber":67,"velocity":64,"realTime":17402,"sortKey":492},{"deltaTime":0,"type":"meta","subtype":"endOfTrack"}]]}