{"header":{"formatType":1,"trackCount":3,"ticksPerBeat":128},"tracks":[[{"deltaTime":0,"type":"meta","subtype":"timeSignature","numerator":1,"denominator":4,"metronome":24,"thirtyseconds":8,"realTime":0,"sortKey":2},{"deltaTime":0,"type":"meta","subtype":"setTempo","microsecondsPerBeat":1083345,"realTime":0,"sortKey":1},{"deltaTime":0,"type":"meta","subtype":"endOfTrack"}],[{"deltaTime":0,"channel":9,"type":"channel","noteNumber":42,"velocity":127,"subtype":"noteOn","realTime":0,"sortKey":2},{"deltaTime":10,"channel":9,"type":"channel","subtype":"noteOff","noteNumber":42,"velocity":64,"realTime":10,"sortKey":3},{"deltaTime":118,"channel":9,"type":"channel","noteNumber":42,"velocity":127,"subtype":"noteOn","realTime":128,"sortKey":4},{"deltaTime":5,"channel":9,"type":"channel","subtype":"noteOff","noteNumber":42,"velocity":64,"realTime":133,"sortKey":5},{"deltaTime":124,"channel":9,"type":"channel","noteNumber":42,"velocity":127,"subtype":"noteOn","realTime":257,"sortKey":6},{"deltaTime":5,"channel":9,"type":"channel","subtype":"noteOff","noteNumber":42,"velocity":64,"realTime":262,"sortKey":7},{"deltaTime":58,"channel":9,"type":"channel","noteNumber":42,"velocity":127,"subtype":"noteOn","realTime":320,"sortKey":8},{"deltaTime":5,"channel":9,"type":"channel","subtype":"noteOff","noteNumber":42,"velocity":64,"realTime":325,"sortKey":9},{"deltaTime":59,"channel":9,"type":"channel","noteNumber":42,"velocity":127,"subtype":"noteOn","realTime":384,"sortKey":10},{"deltaTime":5,"channel":9,"type":"channel","subtype":"noteOff","noteNumber":42,"velocity":64,"realTime":389,"sortKey":11},{"deltaTime":59,"channel":9,"type":"channel","noteNumber":42,"velocity":127,"subtype":"noteOn","realTime":448,"sortKey":12},{"deltaTime":2,"channel":9,"type":"channel","subtype":"noteOff","noteNumber":42,"velocity":64,"realTime":450,"sortKey":13},{"deltaTime":63,"channel":9,"type":"channel","noteNumber":35,"velocity":127,"subtype":"noteOn","realTime":513,"sortKey":14},{"deltaTime":0,"channel":9,"type":"channel","noteNumber":44,"velocity":127,"subtype":"noteOn","realTime":513,"sortKey":15},{"deltaTime":5,"channel":9,"type":"channel","subtype":"noteOff","noteNumber":35,"velocity":64,"realTime":518,"sortKey":16},{"deltaTime":0,"channel":9,"type":"channel","subtype":"noteOff","noteNumber":44,"velocity":64,"realTime":518,"sortKey":17},{"deltaTime":26,"channel":9,"type":"channel","noteNumber":69,"velocity":85,"subtype":"noteOn","realTime":544,"sortKey":18},{"deltaTime":5,"channel":9,"type":"channel","subtype":"noteOff","noteNumber":69,"velocity":64,"realTime":549,"sortKey":19},{"deltaTime":27,"channel":9,"type":"channel","noteNumber":38,"velocity":127,"subtype":"noteOn","realTime":576,"sortKey":20},{"deltaTime":2,"channel":9,"type":"channel","noteNumber":42,"velocity":127,"subtype":"noteOn","realTime":578,"sortKey":21},{"deltaTime":5,"channel":9,"type":"channel","subtype":"noteOff","noteNumber":38,"velocity":64,"realTime":583,"sortKey":22},{"deltaTime":0,"channel":9,"type":"channel","subtype":"noteOff","noteNumber":42,"velocity":64,"realTime":583,"sortKey":23},{"deltaTime":27,"channel":9,"type":"channel","noteNumber":35,"velocity":127,"subtype":"noteOn","realTime":610,"sortKey":24},{"deltaTime":0,"channel":9,"type":"channel","noteNumber":69,"velocity":85,"subtype":"noteOn","realTime":610,"sortKey":25},{"deltaTime":5,"channel":9,"type":"channel","subtype":"noteOff","noteNumber":35,"velocity":64,"realTime":615,"sortKey":26},{"deltaTime":0,"channel":9,"type":"channel","subtype":"noteOff","noteNumber":69,"velocity":64,"realTime":615,"sortKey":27},{"deltaTime":27,"channel":9,"type":"channel","noteNumber":42,"velocity":127,"subtype":"noteOn","realTime":642,"sortKey":28},{"deltaTime":2,"channel":9,"type":"channel","subtype":"noteOff","noteNumber":42,"velocity":64,"realTime":644,"sortKey":29},{"deltaTime":29,"channel":9,"type":"channel","noteNumber":35,"velocity":127,"subtype":"noteOn","realTime":673,"sortKey":30},{"deltaTime":0,"channel":9,"type":"channel","noteNumber":69,"velocity":85,"subtype":"noteOn","realTime":673,"sortKey":31},{"deltaTime":5,"channel":9,"type":"channel","subtype":"noteOff","noteNumber":35,"velocity":64,"realTime":678,"sortKey":32},{"deltaTime":0,"channel":9,"type":"channel","subtype":"noteOff","noteNumber":69,"velocity":64,"realTime":678,"sortKey":33},{"deltaTime":27,"channel":9,"type":"channel","noteNumber":38,"velocity":127,"subtype":"noteOn","realTime":705,"sortKey":34},{"deltaTime":0,"channel":9,"type":"channel","noteNumber":42,"velocity":127,"subtype":"noteOn","realTime":705,"sortKey":35},{"deltaTime":5,"channel":9,"type":"channel","subtype":"noteOff","noteNumber":38,"velocity":64,"realTime":710,"sortKey":36},{"deltaTime":0,"channel":9,"type":"channel","subtype":"noteOff","noteNumber":42,"velocity":64,"realTime":710,"sortKey":37},{"deltaTime":27,"channel":9,"type":"channel","noteNumber":69,"velocity":85,"subtype":"noteOn","realTime":737,"sortKey":38},{"deltaTime":2,"channel":9,"type":"channel","subtype":"noteOff","noteNumber":69,"velocity":64,"realTime":739,"sortKey":39},{"deltaTime":30,"channel":9,"type":"channel","noteNumber":35,"velocity":127,"subtype":"noteOn","realTime":769,"sortKey":40},{"deltaTime":0,"channel":9,"type":"channel","noteNumber":42,"velocity":127,"subtype":"noteOn","realTime":769,"sortKey":41},{"deltaTime":5,"channel":9,"type":"channel","subtype":"noteOff","noteNumber":35,"velocity":64,"realTime":774,"sortKey":42},{"deltaTime":0,"channel":9,"type":"channel","subtype":"noteOff","noteNumber":42,"velocity":64,"realTime":774,"sortKey":43},{"deltaTime":27,"channel":9,"type":"channel","noteNumber":69,"velocity":85,"subtype":"noteOn","realTime":801,"sortKey":44},{"deltaTime":5,"channel":9,"type":"channel","subtype":"noteOff","noteNumber":69,"velocity":64,"realTime":806,"sortKey":45},{"deltaTime":27,"channel":9,"type":"channel","noteNumber":38,"velocity":127,"subtype":"noteOn","realTime":833,"sortKey":46},{"deltaTime":0,"channel":9,"type":"channel","noteNumber":42,"velocity":127,"subtype":"noteOn","realTime":833,"sortKey":47},{"deltaTime":5,"channel":9,"type":"channel","subtype":"noteOff","noteNumber":38,"velocity":64,"realTime":838,"sortKey":48},{"deltaTime":0,"channel":9,"type":"channel","subtype":"noteOff","noteNumber":42,"velocity":64,"realTime":838,"sortKey":49},{"deltaTime":27,"channel":9,"type":"channel","noteNumber":35,"velocity":127,"subtype":"noteOn","realTime":865,"sortKey":50},{"deltaTime":0,"channel":9,"type":"channel","noteNumber":69,"velocity":85,"subtype":"noteOn","realTime":865,"sortKey":51},{"deltaTime":8,"channel":9,"type":"channel","subtype":"noteOff","noteNumber":35,"velocity":64,"realTime":873,"sortKey":52},{"deltaTime":0,"channel":9,"type":"channel","subtype":"noteOff","noteNumber":69,"velocity":64,"realTime":873,"sortKey":53},{"deltaTime":24,"channel":9,"type":"channel","noteNumber":42,"velocity":127,"subtype":"noteOn","realTime":897,"sortKey":54},{"deltaTime":5,"channel":9,"type":"channel","subtype":"noteOff","noteNumber":42,"velocity":64,"realTime":902,"sortKey":55},{"deltaTime":27,"channel":9,"type":"channel","noteNumber":35,"velocity":127,"subtype":"noteOn","realTime":929,"sortKey":56},{"deltaTime":0,"channel":9,"type":"channel","noteNumber":69,"velocity":85,"subtype":"noteOn","realTime":929,"sortKey":57},{"deltaTime":5,"channel":9,"type":"channel","subtype":"noteOff","noteNumber":35,"velocity":64,"realTime":934,"sortKey":58},{"deltaTime":0,"channel":9,"type":"channel","subtype":"noteOff","noteNumber":69,"velocity":64,"realTime":934,"sortKey":59},{"deltaTime":27,"channel":9,"type":"channel","noteNumber":38,"velocity":127,"subtype":"noteOn","realTime":961,"sortKey":60},{"deltaTime":0,"channel":9,"type":"channel","noteNumber":42,"velocity":127,"subtype":"noteOn","realTime":961,"sortKey":61},{"deltaTime":7,"channel":9,"type":"channel","subtype":"noteOff","noteNumber":38,"velocity":64,"realTime":968,"sortKey":62},{"deltaTime":0,"channel":9,"type":"channel","subtype":"noteOff","noteNumber":42,"velocity":64,"realTime":968,"sortKey":63},{"deltaTime":25,"channel":9,"type":"channel","noteNumber":46,"velocity":80,"subtype":"noteOn","realTime":993,"sortKey":64},{"deltaTime":0,"channel":9,"type":"channel","noteNumber":69,"velocity":85,"subtype":"noteOn","realTime":993,"sortKey":65},{"deltaTime":4,"channel":9,"type":"channel","subtype":"noteOff","noteNumber":46,"velocity":64,"realTime":997,"sortKey":66},{"deltaTime":0,"channel":9,"type":"channel","subtype":"noteOff","noteNumber":69,"velocity":64,"realTime":997,"sortKey":67},{"deltaTime":29,"channel":9,"type":"channel","noteNumber":35,"velocity":127,"subtype":"noteOn","realTime":1026,"sortKey":68},{"deltaTime":0,"channel":9,"type":"channel","noteNumber":42,"velocity":127,"subtype":"noteOn","realTime":1026,"sortKey":69},{"deltaTime":8,"channel":9,"type":"channel","subtype":"noteOff","noteNumber":35,"velocity":64,"realTime":1034,"sortKey":70},{"deltaTime":0,"channel":9,"type":"channel","subtype":"noteOff","noteNumber":42,"velocity":64,"realTime":1034,"sortKey":71},{"deltaTime":21,"channel":9,"type":"channel","noteNumber":69,"velocity":85,"subtype":"noteOn","realTime":1055,"sortKey":72},{"deltaTime":5,"channel":9,"type":"channel","subtype":"noteOff","noteNumber":69,"velocity":64,"realTime":1060,"sortKey":73},{"deltaTime":29,"channel":9,"type":"channel","noteNumber":38,"velocity":127,"subtype":"noteOn","realTime":1089,"sortKey":74},{"deltaTime":0,"channel":9,"type":"channel","noteNumber":42,"velocity":127,"subtype":"noteOn","realTime":1089,"sortKey":75},{"deltaTime":5,"channel":9,"type":"channel","subtype":"noteOff","noteNumber":38,"velocity":64,"realTime":1094,"sortKey":76},{"deltaTime":0,"channel":9,"type":"channel","subtype":"noteOff","noteNumber":42,"velocity":64,"realTime":1094,"sortKey":77},{"deltaTime":27,"channel":9,"type":"channel","noteNumber":35,"velocity":127,"subtype":"noteOn","realTime":1121,"sortKey":78},{"deltaTime":0,"channel":9,"type":"channel","noteNumber":69,"velocity":85,"subtype":"noteOn","realTime":1121,"sortKey":79},{"deltaTime":5,"channel":9,"type":"channel","subtype":"noteOff","noteNumber":35,"velocity":64,"realTime":1126,"sortKey":80},{"deltaTime":0,"channel":9,"type":"channel","subtype":"noteOff","noteNumber":69,"velocity":64,"realTime":1126,"sortKey":81},{"deltaTime":27,"channel":9,"type":"channel","noteNumber":42,"velocity":127,"subtype":"noteOn","realTime":1153,"sortKey":82},{"deltaTime":5,"channel":9,"type":"channel","subtype":"noteOff","noteNumber":42,"velocity":64,"realTime":1158,"sortKey":83},{"deltaTime":27,"channel":9,"type":"channel","noteNumber":35,"velocity":127,"subtype":"noteOn","realTime":1185,"sortKey":84},{"deltaTime":0,"channel":9,"type":"channel","noteNumber":69,"velocity":85,"subtype":"noteOn","realTime":1185,"sortKey":85},{"deltaTime":2,"channel":9,"type":"channel","subtype":"noteOff","noteNumber":35,"velocity":64,"realTime":1187,"sortKey":86},{"deltaTime":0,"channel":9,"type":"channel","subtype":"noteOff","noteNumber":69,"velocity":64,"realTime":1187,"sortKey":87},{"deltaTime":30,"channel":9,"type":"channel","noteNumber":38,"velocity":127,"subtype":"noteOn","realTime":1217,"sortKey":88},{"deltaTime":0,"channel":9,"type":"channel","noteNumber":42,"velocity":127,"subtype":"noteOn","realTime":1217,"sortKey":89},{"deltaTime":5,"channel":9,"type":"channel","subtype":"noteOff","noteNumber":38,"velocity":64,"realTime":1222,"sortKey":90},{"deltaTime":0,"channel":9,"type":"channel","subtype":"noteOff","noteNumber":42,"velocity":64,"realTime":1222,"sortKey":91},{"deltaTime":27,"channel":9,"type":"channel","noteNumber":69,"velocity":85,"subtype":"noteOn","realTime":1249,"sortKey":92},{"deltaTime":5,"channel":9,"type":"channel","subtype":"noteOff","noteNumber":69,"velocity":64,"realTime":1254,"sortKey":93},{"deltaTime":27,"channel":9,"type":"channel","noteNumber":35,"velocity":127,"subtype":"noteOn","realTime":1281,"sortKey":94},{"deltaTime":0,"channel":9,"type":"channel","noteNumber":42,"velocity":127,"subtype":"noteOn","realTime":1281,"sortKey":95},{"deltaTime":8,"channel":9,"type":"channel","subtype":"noteOff","noteNumber":35,"velocity":64,"realTime":1289,"sortKey":96},{"deltaTime":0,"channel":9,"type":"channel","subtype":"noteOff","noteNumber":42,"velocity":64,"realTime":1289,"sortKey":97},{"deltaTime":24,"channel":9,"type":"channel","noteNumber":69,"velocity":85,"subtype":"noteOn","realTime":1313,"sortKey":98},{"deltaTime":8,"channel":9,"type":"channel","subtype":"noteOff","noteNumber":69,"velocity":64,"realTime":1321,"sortKey":99},{"deltaTime":24,"channel":9,"type":"channel","noteNumber":38,"velocity":127,"subtype":"noteOn","realTime":1345,"sortKey":100},{"deltaTime":0,"channel":9,"type":"channel","noteNumber":42,"velocity":127,"subtype":"noteOn","realTime":1345,"sortKey":101},{"deltaTime":5,"channel":9,"type":"channel","subtype":"noteOff","noteNumber":38,"velocity":64,"realTime":1350,"sortKey":102},{"deltaTime":0,"channel":9,"type":"channel","subtype":"noteOff","noteNumber":42,"velocity":64,"realTime":1350,"sortKey":103},{"deltaTime":27,"channel":9,"type":"channel","noteNumber":35,"velocity":127,"subtype":"noteOn","realTime":1377,"sortKey":104},{"deltaTime":0,"channel":9,"type":"channel","noteNumber":69,"velocity":85,"subtype":"noteOn","realTime":1377,"sortKey":105},{"deltaTime":5,"channel":9,"type":"channel","subtype":"noteOff","noteNumber":35,"velocity":64,"realTime":1382,"sortKey":106},{"deltaTime":0,"channel":9,"type":"channel","subtype":"noteOff","noteNumber":69,"velocity":64,"realTime":1382,"sortKey":107},{"deltaTime":27,"channel":9,"type":"channel","noteNumber":42,"velocity":127,"subtype":"noteOn","realTime":1409,"sortKey":108},{"deltaTime":7,"channel":9,"type":"channel","subtype":"noteOff","noteNumber":42,"velocity":64,"realTime":1416,"sortKey":109},{"deltaTime":24,"channel":9,"type":"channel","noteNumber":35,"velocity":127,"subtype":"noteOn","realTime":1440,"sortKey":110},{"deltaTime":0,"channel":9,"type":"channel","noteNumber":69,"velocity":85,"subtype":"noteOn","realTime":1440,"sortKey":111},{"deltaTime":5,"channel":9,"type":"channel","subtype":"noteOff","noteNumber":35,"velocity":64,"realTime":1445,"sortKey":112},{"deltaTime":0,"channel":9,"type":"channel","subtype":"noteOff","noteNumber":69,"velocity":64,"realTime":1445,"sortKey":113},{"deltaTime":27,"channel":9,"type":"channel","noteNumber":38,"velocity":127,"subtype":"noteOn","realTime":1472,"sortKey":114},{"deltaTime":2,"channel":9,"type":"channel","noteNumber":42,"velocity":127,"subtype":"noteOn","realTime":1474,"sortKey":115},{"deltaTime":5,"channel":9,"type":"channel","subtype":"noteOff","noteNumber":38,"velocity":64,"realTime":1479,"sortKey":116},{"deltaTime":0,"channel":9,"type":"channel","subtype":"noteOff","noteNumber":42,"velocity":64,"realTime":1479,"sortKey":117},{"deltaTime":27,"channel":9,"type":"channel","noteNumber":46,"velocity":80,"subtype":"noteOn","realTime":1506,"sortKey":118},{"deltaTime":0,"channel":9,"type":"channel","noteNumber":69,"velocity":85,"subtype":"noteOn","realTime":1506,"sortKey":119},{"deltaTime":5,"channel":9,"type":"channel","subtype":"noteOff","noteNumber":46,"velocity":64,"realTime":1511,"sortKey":120},{"deltaTime":0,"channel":9,"type":"channel","subtype":"noteOff","noteNumber":69,"velocity":64,"realTime":1511,"sortKey":121},{"deltaTime":24,"channel":9,"type":"channel","noteNumber":35,"velocity":127,"subtype":"noteOn","realTime":1535,"sortKey":122},{"deltaTime":0,"channel":9,"type":"channel","noteNumber":44,"velocity":127,"subtype":"noteOn","realTime":1535,"sortKey":123},{"deltaTime":8,"channel":9,"type":"channel","subtype":"noteOff","noteNumber":35,"velocity":64,"realTime":1543,"sortKey":124},{"deltaTime":0,"channel":9,"type":"channel","subtype":"noteOff","noteNumber":44,"velocity":64,"realTime":1543,"sortKey":125},{"deltaTime":26,"channel":9,"type":"channel","noteNumber":69,"velocity":85,"subtype":"noteOn","realTime":1569,"sortKey":126},{"deltaTime":3,"channel":9,"type":"channel","subtype":"noteOff","noteNumber":69,"velocity":64,"realTime":1572,"sortKey":127},{"deltaTime":29,"channel":9,"type":"channel","noteNumber":38,"velocity":127,"subtype":"noteOn","realTime":1601,"sortKey":128},{"deltaTime":0,"channel":9,"type":"channel","noteNumber":42,"velocity":127,"subtype":"noteOn","realTime":1601,"sortKey":129},{"deltaTime":8,"channel":9,"type":"channel","subtype":"noteOff","noteNumber":38,"velocity":64,"realTime":1609,"sortKey":130},{"deltaTime":0,"channel":9,"type":"channel","subtype":"noteOff","noteNumber":42,"velocity":64,"realTime":1609,"sortKey":131},{"deltaTime":24,"channel":9,"type":"channel","noteNumber":35,"velocity":127,"subtype":"noteOn","realTime":1633,"sortKey":132},{"deltaTime":0,"channel":9,"type":"channel","noteNumber":69,"velocity":85,"subtype":"noteOn","realTime":1633,"sortKey":133},{"deltaTime":5,"channel":9,"type":"channel","subtype":"noteOff","noteNumber":35,"velocity":64,"realTime":1638,"sortKey":134},{"deltaTime":0,"channel":9,"type":"channel","subtype":"noteOff","noteNumber":69,"velocity":64,"realTime":1638,"sortKey":135},{"deltaTime":27,"channel":9,"type":"channel","noteNumber":42,"velocity":127,"subtype":"noteOn","realTime":1665,"sortKey":136},{"deltaTime":5,"channel":9,"type":"channel","subtype":"noteOff","noteNumber":42,"velocity":64,"realTime":1670,"sortKey":137},{"deltaTime":27,"channel":9,"type":"channel","noteNumber":35,"velocity":127,"subtype":"noteOn","realTime":1697,"sortKey":138},{"deltaTime":0,"channel":9,"type":"channel","noteNumber":69,"velocity":85,"subtype":"noteOn","realTime":1697,"sortKey":139},{"deltaTime":8,"channel":9,"type":"channel","subtype":"noteOff","noteNumber":35,"velocity":64,"realTime":1705,"sortKey":140},{"deltaTime":0,"channel":9,"type":"channel","subtype":"noteOff","noteNumber":69,"velocity":64,"realTime":1705,"sortKey":141},{"deltaTime":24,"channel":9,"type":"channel","noteNumber":38,"velocity":127,"subtype":"noteOn","realTime":1729,"sortKey":142},{"deltaTime":0,"channel":9,"type":"channel","noteNumber":42,"velocity":127,"subtype":"noteOn","realTime":1729,"sortKey":143},{"deltaTime":5,"channel":9,"type":"channel","subtype":"noteOff","noteNumber":38,"velocity":64,"realTime":1734,"sortKey":144},{"deltaTime":0,"channel":9,"type":"channel","subtype":"noteOff","noteNumber":42,"velocity":64,"realTime":1734,"sortKey":145},{"deltaTime":27,"channel":9,"type":"channel","noteNumber":69,"velocity":85,"subtype":"noteOn","realTime":1761,"sortKey":146},{"deltaTime":4,"channel":9,"type":"channel","subtype":"noteOff","noteNumber":69,"velocity":64,"realTime":1765,"sortKey":147},{"deltaTime":27,"channel":9,"type":"channel","noteNumber":35,"velocity":127,"subtype":"noteOn","realTime":1792,"sortKey":148},{"deltaTime":0,"channel":9,"type":"channel","noteNumber":42,"velocity":127,"subtype":"noteOn","realTime":1792,"sortKey":149},{"deltaTime":7,"channel":9,"type":"channel","subtype":"noteOff","noteNumber":35,"velocity":64,"realTime":1799,"sortKey":150},{"deltaTime":0,"channel":9,"type":"channel","subtype":"noteOff","noteNumber":42,"velocity":64,"realTime":1799,"sortKey":151},{"deltaTime":24,"channel":9,"type":"channel","noteNumber":69,"velocity":85,"subtype":"noteOn","realTime":1823,"sortKey":152},{"deltaTime":5,"channel":9,"type":"channel","subtype":"noteOff","noteNumber":69,"velocity":64,"realTime":1828,"sortKey":153},{"deltaTime":29,"channel":9,"type":"channel","noteNumber":38,"velocity":127,"subtype":"noteOn","realTime":1857,"sortKey":154},{"deltaTime":0,"channel":9,"type":"channel","noteNumber":42,"velocity":127,"subtype":"noteOn","realTime":1857,"sortKey":155},{"deltaTime":2,"channel":9,"type":"channel","subtype":"noteOff","noteNumber":38,"velocity":64,"realTime":1859,"sortKey":156},{"deltaTime":0,"channel":9,"type":"channel","subtype":"noteOff","noteNumber":42,"velocity":64,"realTime":1859,"sortKey":157},{"deltaTime":28,"channel":9,"type":"channel","noteNumber":35,"velocity":127,"subtype":"noteOn","realTime":1887,"sortKey":158},{"deltaTime":0,"channel":9,"type":"channel","noteNumber":69,"velocity":85,"subtype":"noteOn","realTime":1887,"sortKey":159},{"deltaTime":7,"channel":9,"type":"channel","subtype":"noteOff","noteNumber":35,"velocity":64,"realTime":1894,"sortKey":160},{"deltaTime":0,"channel":9,"type":"channel","subtype":"noteOff","noteNumber":69,"velocity":64,"realTime":1894,"sortKey":161},{"deltaTime":27,"channel":9,"type":"channel","noteNumber":42,"velocity":127,"subtype":"noteOn","realTime":1921,"sortKey":162},{"deltaTime":5,"channel":9,"type":"channel","subtype":"noteOff","noteNumber":42,"velocity":64,"realTime":1926,"sortKey":163},{"deltaTime":27,"channel":9,"type":"channel","noteNumber":35,"velocity":127,"subtype":"noteOn","realTime":1953,"sortKey":164},{"deltaTime":0,"channel":9,"type":"channel","noteNumber":69,"velocity":85,"subtype":"noteOn","realTime":1953,"sortKey":165},{"deltaTime":2,"channel":9,"type":"channel","subtype":"noteOff","noteNumber":35,"velocity":64,"realTime":1955,"sortKey":166},{"deltaTime":0,"channel":9,"type":"channel","subtype":"noteOff","noteNumber":69,"velocity":64,"realTime":1955,"sortKey":167},{"deltaTime":30,"channel":9,"type":"channel","noteNumber":38,"velocity":127,"subtype":"noteOn","realTime":1985,"sortKey":168},{"deltaTime":0,"channel":9,"type":"channel","noteNumber":42,"velocity":127,"subtype":"noteOn","realTime":1985,"sortKey":169},{"deltaTime":5,"channel":9,"type":"channel","subtype":"noteOff","noteNumber":38,"velocity":64,"realTime":1990,"sortKey":170},{"deltaTime":0,"channel":9,"type":"channel","subtype":"noteOff","noteNumber":42,"velocity":64,"realTime":1990,"sortKey":171},{"deltaTime":27,"channel":9,"type":"channel","noteNumber":46,"velocity":80,"subtype":"noteOn","realTime":2017,"sortKey":172},{"deltaTime":0,"channel":9,"type":"channel","noteNumber":69,"velocity":85,"subtype":"noteOn","realTime":2017,"sortKey":173},{"deltaTime":5,"channel":9,"type":"channel","subtype":"noteOff","noteNumber":46,"velocity":64,"realTime":2022,"sortKey":174},{"deltaTime":0,"channel":9,"type":"channel","subtype":"noteOff","noteNumber":69,"velocity":64,"realTime":2022,"sortKey":175},{"deltaTime":27,"channel":9,"type":"channel","noteNumber":35,"velocity":127,"subtype":"noteOn","realTime":2049,"sortKey":176},{"deltaTime":0,"channel":9,"type":"channel","noteNumber":42,"velocity":127,"subtype":"noteOn","realTime":2049,"sortKey":177},{"deltaTime":8,"channel":9,"type":"channel","subtype":"noteOff","noteNumber":35,"velocity":64,"realTime":2057,"sortKey":178},{"deltaTime":0,"channel":9,"type":"channel","subtype":"noteOff","noteNumber":42,"velocity":64,"realTime":2057,"sortKey":179},{"deltaTime":24,"channel":9,"type":"channel","noteNumber":69,"velocity":85,"subtype":"noteOn","realTime":2081,"sortKey":180},{"deltaTime":5,"channel":9,"type":"channel","subtype":"noteOff","noteNumber":69,"velocity":64,"realTime":2086,"sortKey":181},{"deltaTime":27,"channel":9,"type":"channel","noteNumber":38,"velocity":127,"subtype":"noteOn","realTime":2113,"sortKey":182},{"deltaTime":0,"channel":9,"type":"channel","noteNumber":42,"velocity":127,"subtype":"noteOn","realTime":2113,"sortKey":183},{"deltaTime":8,"channel":9,"type":"channel","subtype":"noteOff","noteNumber":38,"velocity":64,"realTime":2121,"sortKey":184},{"deltaTime":0,"channel":9,"type":"channel","subtype":"noteOff","noteNumber":42,"velocity":64,"realTime":2121,"sortKey":185},{"deltaTime":24,"channel":9,"type":"channel","noteNumber":35,"velocity":127,"subtype":"noteOn","realTime":2145,"sortKey":186},{"deltaTime":0,"channel":9,"type":"channel","noteNumber":69,"velocity":85,"subtype":"noteOn","realTime":2145,"sortKey":187},{"deltaTime":8,"channel":9,"type":"channel","subtype":"noteOff","noteNumber":35,"velocity":64,"realTime":2153,"sortKey":188},{"deltaTime":0,"channel":9,"type":"channel","subtype":"noteOff","noteNumber":69,"velocity":64,"realTime":2153,"sortKey":189},{"deltaTime":24,"channel":9,"type":"channel","noteNumber":42,"velocity":127,"subtype":"noteOn","realTime":2177,"sortKey":190},{"deltaTime":5,"channel":9,"type":"channel","subtype":"noteOff","noteNumber":42,"velocity":64,"realTime":2182,"sortKey":191},{"deltaTime":27,"channel":9,"type":"channel","noteNumber":35,"velocity":127,"subtype":"noteOn","realTime":2209,"sortKey":192},{"deltaTime":0,"channel":9,"type":"channel","noteNumber":69,"velocity":85,"subtype":"noteOn","realTime":2209,"sortKey":193},{"deltaTime":5,"channel":9,"type":"channel","subtype":"noteOff","noteNumber":35,"velocity":64,"realTime":2214,"sortKey":194},{"deltaTime":0,"channel":9,"type":"channel","subtype":"noteOff","noteNumber":69,"velocity":64,"realTime":2214,"sortKey":195},{"deltaTime":27,"channel":9,"type":"channel","noteNumber":38,"velocity":127,"subtype":"noteOn","realTime":2241,"sortKey":196},{"deltaTime":0,"channel":9,"type":"channel","noteNumber":42,"velocity":127,"subtype":"noteOn","realTime":2241,"sortKey":197},{"deltaTime":7,"channel":9,"type":"channel","subtype":"noteOff","noteNumber":38,"velocity":64,"realTime":2248,"sortKey":198},{"deltaTime":0,"channel":9,"type":"channel","subtype":"noteOff","noteNumber":42,"velocity":64,"realTime":2248,"sortKey":199},{"deltaTime":25,"channel":9,"type":"channel","noteNumber":69,"velocity":85,"subtype":"noteOn","realTime":2273,"sortKey":200},{"deltaTime":4,"channel":9,"type":"channel","subtype":"noteOff","noteNumber":69,"velocity":64,"realTime":2277,"sortKey":201},{"deltaTime":29,"channel":9,"type":"channel","noteNumber":35,"velocity":127,"subtype":"noteOn","realTime":2306,"sortKey":202},{"deltaTime":0,"channel":9,"type":"channel","noteNumber":42,"velocity":127,"subtype":"noteOn","realTime":2306,"sortKey":203},{"deltaTime":5,"channel":9,"type":"channel","subtype":"noteOff","noteNumber":35,"velocity":64,"realTime":2311,"sortKey":204},{"deltaTime":0,"channel":9,"type":"channel","subtype":"noteOff","noteNumber":42,"velocity":64,"realTime":2311,"sortKey":205},{"deltaTime":27,"channel":9,"type":"channel","noteNumber":69,"velocity":85,"subtype":"noteOn","realTime":2338,"sortKey":206},{"deltaTime":4,"channel":9,"type":"channel","subtype":"noteOff","noteNumber":69,"velocity":64,"realTime":2342,"sortKey":207},{"deltaTime":27,"channel":9,"type":"channel","noteNumber":38,"velocity":127,"subtype":"noteOn","realTime":2369,"sortKey":208},{"deltaTime":0,"channel":9,"type":"channel","noteNumber":42,"velocity":127,"subtype":"noteOn","realTime":2369,"sortKey":209},{"deltaTime":5,"channel":9,"type":"channel","subtype":"noteOff","noteNumber":38,"velocity":64,"realTime":2374,"sortKey":210},{"deltaTime":0,"channel":9,"type":"channel","subtype":"noteOff","noteNumber":42,"velocity":64,"realTime":2374,"sortKey":211},{"deltaTime":27,"channel":9,"type":"channel","noteNumber":35,"velocity":127,"subtype":"noteOn","realTime":2401,"sortKey":212},{"deltaTime":0,"channel":9,"type":"channel","noteNumber":69,"velocity":85,"subtype":"noteOn","realTime":2401,"sortKey":213},{"deltaTime":5,"channel":9,"type":"channel","subtype":"noteOff","noteNumber":35,"velocity":64,"realTime":2406,"sortKey":214},{"deltaTime":0,"channel":9,"type":"channel","subtype":"noteOff","noteNumber":69,"velocity":64,"realTime":2406,"sortKey":215},{"deltaTime":27,"channel":9,"type":"channel","noteNumber":42,"velocity":127,"subtype":"noteOn","realTime":2433,"sortKey":216},{"deltaTime":5,"channel":9,"type":"channel","subtype":"noteOff","noteNumber":42,"velocity":64,"realTime":2438,"sortKey":217},{"deltaTime":27,"channel":9,"type":"channel","noteNumber":35,"velocity":127,"subtype":"noteOn","realTime":2465,"sortKey":218},{"deltaTime":0,"channel":9,"type":"channel","noteNumber":69,"velocity":85,"subtype":"noteOn","realTime":2465,"sortKey":219},{"deltaTime":5,"channel":9,"type":"channel","subtype":"noteOff","noteNumber":35,"velocity":64,"realTime":2470,"sortKey":220},{"deltaTime":0,"channel":9,"type":"channel","subtype":"noteOff","noteNumber":69,"velocity":64,"realTime":2470,"sortKey":221},{"deltaTime":27,"channel":9,"type":"channel","noteNumber":38,"velocity":127,"subtype":"noteOn","realTime":2497,"sortKey":222},{"deltaTime":0,"channel":9,"type":"channel","noteNumber":42,"velocity":127,"subtype":"noteOn","realTime":2497,"sortKey":223},{"deltaTime":5,"channel":9,"type":"channel","subtype":"noteOff","noteNumber":38,"velocity":64,"realTime":2502,"sortKey":224},{"deltaTime":0,"channel":9,"type":"channel","subtype":"noteOff","noteNumber":42,"velocity":64,"realTime":2502,"sortKey":225},{"deltaTime":27,"channel":9,"type":"channel","noteNumber":46,"velocity":80,"subtype":"noteOn","realTime":2529,"sortKey":226},{"deltaTime":0,"channel":9,"type":"channel","noteNumber":69,"velocity":85,"subtype":"noteOn","realTime":2529,"sortKey":227},{"deltaTime":5,"channel":9,"type":"channel","subtype":"noteOff","noteNumber":46,"velocity":64,"realTime":2534,"sortKey":228},{"deltaTime":0,"channel":9,"type":"channel","subtype":"noteOff","noteNumber":69,"velocity":64,"realTime":2534,"sortKey":229},{"deltaTime":0,"type":"meta","subtype":"endOfTrack"}],[{"deltaTime":0,"channel":1,"type":"channel","subtype":"programChange","programNumber":33,"realTime":0,"sortKey":2},{"deltaTime":513,"channel":1,"type":"channel","noteNumber":76,"velocity":95,"subtype":"noteOn","realTime":513,"sortKey":3},{"deltaTime":29,"channel":1,"type":"channel","noteNumber":74,"velocity":76,"subtype":"noteOn","realTime":542,"sortKey":4},{"deltaTime":2,"channel":1,"type":"channel","subtype":"noteOff","noteNumber":76,"velocity":64,"realTime":544,"sortKey":5},{"deltaTime":27,"channel":1,"type":"channel","noteNumber":71,"velocity":86,"subtype":"noteOn","realTime":571,"sortKey":6},{"deltaTime":2,"channel":1,"type":"channel","subtype":"noteOff","noteNumber":74,"velocity":64,"realTime":573,"sortKey":7},{"deltaTime":37,"channel":1,"type":"channel","subtype":"noteOff","noteNumber":71,"velocity":64,"realTime":610,"sortKey":8},{"deltaTime":0,"channel":1,"type":"channel","noteNumber":76,"velocity":95,"subtype":"noteOn","realTime":610,"sortKey":9},{"deltaTime":27,"channel":1,"type":"channel","subtype":"noteOff","noteNumber":76,"velocity":64,"realTime":637,"sortKey":10},{"deltaTime":32,"channel":1,"type":"channel","noteNumber":76,"velocity":90,"subtype":"noteOn","realTime":669,"sortKey":11},{"deltaTime":63,"channel":1,"type":"channel","subtype":"noteOff","noteNumber":76,"velocity":64,"realTime":732,"sortKey":12},{"deltaTime":37,"channel":1,"type":"channel","noteNumber":74,"velocity":82,"subtype":"noteOn","realTime":769,"sortKey":13},{"deltaTime":32,"channel":1,"type":"channel","noteNumber":72,"velocity":88,"subtype":"noteOn","realTime":801,"sortKey":14},{"deltaTime":5,"channel":1,"type":"channel","subtype":"noteOff","noteNumber":74,"velocity":64,"realTime":806,"sortKey":15},{"deltaTime":22,"channel":1,"type":"channel","noteNumber":69,"velocity":93,"subtype":"noteOn","realTime":828,"sortKey":16},{"deltaTime":3,"channel":1,"type":"channel","subtype":"noteOff","noteNumber":72,"velocity":64,"realTime":831,"sortKey":17},{"deltaTime":32,"channel":1,"type":"channel","noteNumber":74,"velocity":92,"subtype":"noteOn","realTime":863,"sortKey":18},{"deltaTime":2,"channel":1,"type":"channel","subtype":"noteOff","noteNumber":69,"velocity":64,"realTime":865,"sortKey":19},{"deltaTime":34,"channel":1,"type":"channel","subtype":"noteOff","noteNumber":74,"velocity":64,"realTime":899,"sortKey":20},{"deltaTime":30,"channel":1,"type":"channel","noteNumber":74,"velocity":89,"subtype":"noteOn","realTime":929,"sortKey":21},{"deltaTime":61,"channel":1,"type":"channel","subtype":"noteOff","noteNumber":74,"velocity":64,"realTime":990,"sortKey":22},{"deltaTime":34,"channel":1,"type":"channel","noteNumber":72,"velocity":90,"subtype":"noteOn","realTime":1024,"sortKey":23},{"deltaTime":29,"channel":1,"type":"channel","noteNumber":70,"velocity":90,"subtype":"noteOn","realTime":1053,"sortKey":24},{"deltaTime":5,"channel":1,"type":"channel","subtype":"noteOff","noteNumber":72,"velocity":64,"realTime":1058,"sortKey":25},{"deltaTime":26,"channel":1,"type":"channel","noteNumber":67,"velocity":93,"subtype":"noteOn","realTime":1084,"sortKey":26},{"deltaTime":3,"channel":1,"type":"channel","subtype":"noteOff","noteNumber":70,"velocity":64,"realTime":1087,"sortKey":27},{"deltaTime":34,"channel":1,"type":"channel","subtype":"noteOff","noteNumber":67,"velocity":64,"realTime":1121,"sortKey":28},{"deltaTime":0,"channel":1,"type":"channel","noteNumber":72,"velocity":95,"subtype":"noteOn","realTime":1121,"sortKey":29},{"deltaTime":27,"channel":1,"type":"channel","subtype":"noteOff","noteNumber":72,"velocity":64,"realTime":1148,"sortKey":30},{"deltaTime":37,"channel":1,"type":"channel","noteNumber":72,"velocity":95,"subtype":"noteOn","realTime":1185,"sortKey":31},{"deltaTime":64,"channel":1,"type":"channel","subtype":"noteOff","noteNumber":72,"velocity":64,"realTime":1249,"sortKey":32},{"deltaTime":32,"channel":1,"type":"channel","noteNumber":72,"velocity":94,"subtype":"noteOn","realTime":1281,"sortKey":33},{"deltaTime":30,"channel":1,"type":"channel","noteNumber":70,"velocity":94,"subtype":"noteOn","realTime":1311,"sortKey":34},{"deltaTime":4,"channel":1,"type":"channel","subtype":"noteOff","noteNumber":72,"velocity":64,"realTime":1315,"sortKey":35},{"deltaTime":28,"channel":1,"type":"channel","subtype":"noteOff","noteNumber":70,"velocity":64,"realTime":1343,"sortKey":36},{"deltaTime":0,"channel":1,"type":"channel","noteNumber":67,"velocity":93,"subtype":"noteOn","realTime":1343,"sortKey":37},{"deltaTime":34,"channel":1,"type":"channel","noteNumber":72,"velocity":99,"subtype":"noteOn","realTime":1377,"sortKey":38},{"deltaTime":2,"channel":1,"type":"channel","subtype":"noteOff","noteNumber":67,"velocity":64,"realTime":1379,"sortKey":39},{"deltaTime":24,"channel":1,"type":"channel","subtype":"noteOff","noteNumber":72,"velocity":64,"realTime":1403,"sortKey":40},{"deltaTime":37,"channel":1,"type":"channel","noteNumber":72,"velocity":93,"subtype":"noteOn","realTime":1440,"sortKey":41},{"deltaTime":66,"channel":1,"type":"channel","subtype":"noteOff","noteNumber":72,"velocity":64,"realTime":1506,"sortKey":42},{"deltaTime":32,"channel":1,"type":"channel","noteNumber":76,"velocity":95,"subtype":"noteOn","realTime":1538,"sortKey":43},{"deltaTime":27,"channel":1,"type":"channel","noteNumber":74,"velocity":76,"subtype":"noteOn","realTime":1565,"sortKey":44},{"deltaTime":4,"channel":1,"type":"channel","subtype":"noteOff","noteNumber":76,"velocity":64,"realTime":1569,"sortKey":45},{"deltaTime":27,"channel":1,"type":"channel","subtype":"noteOff","noteNumber":74,"velocity":64,"realTime":1596,"sortKey":46},{"deltaTime":0,"channel":1,"type":"channel","noteNumber":71,"velocity":86,"subtype":"noteOn","realTime":1596,"sortKey":47},{"deltaTime":37,"channel":1,"type":"channel","subtype":"noteOff","noteNumber":71,"velocity":64,"realTime":1633,"sortKey":48},{"deltaTime":0,"channel":1,"type":"channel","noteNumber":76,"velocity":95,"subtype":"noteOn","realTime":1633,"sortKey":49},{"deltaTime":30,"channel":1,"type":"channel","subtype":"noteOff","noteNumber":76,"velocity":64,"realTime":1663,"sortKey":50},{"deltaTime":29,"channel":1,"type":"channel","noteNumber":76,"velocity":90,"subtype":"noteOn","realTime":1692,"sortKey":51},{"deltaTime":64,"channel":1,"type":"channel","subtype":"noteOff","noteNumber":76,"velocity":64,"realTime":1756,"sortKey":52},{"deltaTime":38,"channel":1,"type":"channel","noteNumber":74,"velocity":82,"subtype":"noteOn","realTime":1794,"sortKey":53},{"deltaTime":32,"channel":1,"type":"channel","noteNumber":72,"velocity":88,"subtype":"noteOn","realTime":1826,"sortKey":54},{"deltaTime":4,"channel":1,"type":"channel","subtype":"noteOff","noteNumber":74,"velocity":64,"realTime":1830,"sortKey":55},{"deltaTime":22,"channel":1,"type":"channel","noteNumber":69,"velocity":93,"subtype":"noteOn","realTime":1852,"sortKey":56},{"deltaTime":3,"channel":1,"type":"channel","subtype":"noteOff","noteNumber":72,"velocity":64,"realTime":1855,"sortKey":57},{"deltaTime":32,"channel":1,"type":"channel","noteNumber":74,"velocity":92,"subtype":"noteOn","realTime":1887,"sortKey":58},{"deltaTime":2,"channel":1,"type":"channel","subtype":"noteOff","noteNumber":69,"velocity":64,"realTime":1889,"sortKey":59},{"deltaTime":32,"channel":1,"type":"channel","subtype":"noteOff","noteNumber":74,"velocity":64,"realTime":1921,"sortKey":60},{"deltaTime":30,"channel":1,"type":"channel","noteNumber":74,"velocity":89,"subtype":"noteOn","realTime":1951,"sortKey":61},{"deltaTime":61,"channel":1,"type":"channel","subtype":"noteOff","noteNumber":74,"velocity":64,"realTime":2012,"sortKey":62},{"deltaTime":37,"channel":1,"type":"channel","noteNumber":72,"velocity":90,"subtype":"noteOn","realTime":2049,"sortKey":63},{"deltaTime":30,"channel":1,"type":"channel","noteNumber":70,"velocity":90,"subtype":"noteOn","realTime":2079,"sortKey":64},{"deltaTime":2,"channel":1,"type":"channel","subtype":"noteOff","noteNumber":72,"velocity":64,"realTime":2081,"sortKey":65},{"deltaTime":30,"channel":1,"type":"channel","subtype":"noteOff","noteNumber":70,"velocity":64,"realTime":2111,"sortKey":66},{"deltaTime":0,"channel":1,"type":"channel","noteNumber":67,"velocity":93,"subtype":"noteOn","realTime":2111,"sortKey":67},{"deltaTime":34,"channel":1,"type":"channel","noteNumber":72,"velocity":95,"subtype":"noteOn","realTime":2145,"sortKey":68},{"deltaTime":2,"channel":1,"type":"channel","subtype":"noteOff","noteNumber":67,"velocity":64,"realTime":2147,"sortKey":69},{"deltaTime":28,"channel":1,"type":"channel","subtype":"noteOff","noteNumber":72,"velocity":64,"realTime":2175,"sortKey":70},{"deltaTime":34,"channel":1,"type":"channel","noteNumber":72,"velocity":95,"subtype":"noteOn","realTime":2209,"sortKey":71},{"deltaTime":66,"channel":1,"type":"channel","subtype":"noteOff","noteNumber":72,"velocity":64,"realTime":2275,"sortKey":72},{"deltaTime":31,"channel":1,"type":"channel","noteNumber":72,"velocity":94,"subtype":"noteOn","realTime":2306,"sortKey":73},{"deltaTime":29,"channel":1,"type":"channel","noteNumber":70,"velocity":94,"subtype":"noteOn","realTime":2335,"sortKey":74},{"deltaTime":3,"channel":1,"type":"channel","subtype":"noteOff","noteNumber":72,"velocity":64,"realTime":2338,"sortKey":75},{"deltaTime":26,"channel":1,"type":"channel","subtype":"noteOff","noteNumber":70,"velocity":64,"realTime":2364,"sortKey":76},{"deltaTime":3,"channel":1,"type":"channel","noteNumber":67,"velocity":93,"subtype":"noteOn","realTime":2367,"sortKey":77},{"deltaTime":34,"channel":1,"type":"channel","subtype":"noteOff","noteNumber":67,"velocity":64,"realTime":2401,"sortKey":78},{"deltaTime":0,"channel":1,"type":"channel","noteNumber":72,"velocity":99,"subtype":"noteOn","realTime":2401,"sortKey":79},{"deltaTime":27,"channel":1,"type":"channel","subtype":"noteOff","noteNumber":72,"velocity":64,"realTime":2428,"sortKey":80},{"deltaTime":37,"channel":1,"type":"channel","noteNumber":72,"velocity":93,"subtype":"noteOn","realTime":2465,"sortKey":81},{"deltaTime":66,"channel":1,"type":"channel","subtype":"noteOff","noteNumber":72,"velocity":64,"realTime":2531,"sortKey":82},{"deltaTime":0,"type":"meta","subtype":"endOfTrack"}]]}